<?xml version="1.0" encoding="UTF-8"?><svg id="Layer_1" xmlns="http://www.w3.org/2000/svg" viewBox="0 0 425.2 623.62"><path d="M393.06,400.42c-1.34-8.8-8-14.49-16.4-16.02-.89-.16-2.72-7.01-.32-7.52,4.5-.96,6.76-4.18,6.75-8.75-.02-7.46-2.01-14.44-3.98-21.59-3.47-12.58-7.87-24.34-14.55-35.61-12.5-21.1-37.29-26.78-59.63-21.16-.59.15-2.3.18-1.8-.4,17.56-20.38,25.11-42.76,25.48-70.12.41-30.21-10.88-72.94-30.66-94.43l-8.26-8.97c-.81-.88-1.54-1.95-.67-3.02,4.98-6.12,12.51-21.27,5.92-25.97-3.55-2.53-9.17,2.74-7.96-.94,2.01-3.51,4.27-6.51,5.69-10.33l.54-1.45c9.81-26.45.74-47.55-8.94-40.04-2.04,1.58-3.48,3.62-4.9,5.79-11.57,17.68-30.88,35.27-50.65,43.15-25.61-7.64-51.36-8.23-76.96-2.31-34.18,7.9-62.84,23.9-81.08,54.45-9.13,15.28-14.92,31.3-17.03,49.01-1.01,8.48-1.07,16.54-1.03,25.04l.1,19.25c-19.53,6.51-27.9,28.2-22.51,47.14,1.44,5.06,4.58,16.7,10.45,14.34,1.68-.68,1.98-4.26,3.49-4.77,3.1-1.03,9.77,5.34,15.34,5.18l7.06-.21,6.19,8.92c6.2,8.93,15.9,14.1,25.58,19.79-38.76,46.89-54.98,129.66-6.59,174.09,14.72,13.52,32.2,22.51,51.63,26.27l28.49,5.51c1.79,4.47,2.15,8.86,2.68,13.51,1.12,9.94-23.35,1.09-39.68,7.44-7.99,3.11-16.15,11.27-15.34,20.53.93,10.62,10.78,5.13,12.69,10.53,2.7,7.62,7.82,3.61,10.28,8.77,4.56,1.87,8.96,4.48,13.75,5.55.04,0,.08,0,.13-.02,4.61-.67,9.13-1.7,13.7-2.48.54-.39,1.12-.75,1.77-1.06.61-.3,1.26-.49,1.91-.57,7.93-2.6,10.93-3.41,18.43-5.26,14.01-3.44,19.86-3.26,33.62.26,4.32,1.1,9.05,2.46,13.35.73,2.7-1.09,4.05-4.67,4.04-7.36-.01-17.5-25.25-16.47-25.74-23.2-.29-4.01.1-8.86,1.12-12.87,6.05-4.25,12.22-8.35,16.06-14.88,1.43-2.43,3.3-3.62,6.08-4.31,10.35-2.57,20.15-6.1,29.48-11.41,1.04-.59,1.71-.52,2.29.5l7.36,12.99c3.5,6.18,7.98,11.63,13.03,16.72,9.81,9.87,25.36,13.63,36.83,2.3,11.56,6.36,24.14,8.17,35.11-.72,4.02-3.25,5.42-9.89.88-13.44-15.21-11.89-19.19-15.67-33.12-28.85l-10.79-10.21c-.5-.48-1.27-1.26-1.12-1.99.06-.28.67-.16,1.26-.15l9.64.12c9.23.12,17.99-1.76,26.37-5.37,8.13-3.5,14.61-9.55,18.29-17.5,2.62-5.66,9.58-3.38,15.19-10,3.79-4.46,5.27-10.79,5.2-16.85-.14-12.14-1.72-23.87-3.53-35.78ZM341.9,298.08c10.31,5.04,14.29,10.14,19.85,20.16,5.6,10.07,8.92,20.81,11.83,32,.97,3.72,4.79,17.45,2.98,19.6-2.1,2.51-5.96-4.3-6.46-5.65l-6.65-18.01c-5.57-15.09-13.25-31.69-28.95-37.83-16.57-6.18-35.5-2.17-49.92,9.33,0-26.84,42.06-27.07,57.32-19.61ZM268.01,448.19c5.87-1.72,11.65-2.63,17.27-5.34.85-.41,2.69-1.71,3.13-.79l2.81,14c-4.21,1.94-21.26,6.05-24.53,4.33,1.17-4.14,1.4-7.86,1.32-12.2ZM266.35,442.4c-1.54-2.44-2.25-5.03-2.94-8.07,5.2-3.36,8.45-8.02,9.16-14.13,2.21-18.97-6.96-43.73-13.84-61.23-.52-1.33-1.96-1.94-2.8-2.02-1.24-.11-3.1,1.55-2.52,3.38,3.31,10.29,7.02,20.01,9.6,30.46,1.74,7.03,8.54,37.95-3.34,37.48-3.95-6.65-7.34-13.12-12.37-18.89-1.04-1.19-2.67-1.47-3.88-.89-1,.48-2.06,2.58-1.04,4.17l10.81,16.99c4.48,7.05,10.41,20.09,7.7,28.81-1.15,3.71-6.04,7.72-9.99,5.33-1.55-.93-11.98-14.07-14.42-16.55l-11.84-12.06c-1.06-1.08-2.54.01-3.11.63-.98,1.06-.6,2.82.52,4.07l13.6,15.22c5.3,5.93,24.33,28.49,17.82,35.91-3.31,3.77-15.26,2.64-20.29.82-19.01-6.88-29.56-12.9-42.96-28.29-19.28-22.14-30.57-58.35-26.46-87.42,1.88-13.31,8.51-26.1,18.93-34.78,25.95-21.59,66.47-13.32,94.05,1.43,1.84.98,2.71,2.4,2.87,4.46l4.9,61.86,3.37,26.44c-6.85,3.12-13.71,5.51-21.53,6.83ZM278.04,322.61c1.59,4.32.23,9.58,1.12,14.32-2.32-.06-3.61-1.59-5.62-2.6-25.79-13.02-66.72-18.46-91.36-.48-13.07,9.53-21.5,23.99-24,39.89-1.67,10.62-1.94,21.04.2,31.45l5.22,25.44c-22.36-29.83-23.51-72.53,5.39-98.01,7.62-6.71,16.07-11.07,25.67-14.45,22.64-7.97,47.95-7.28,70.85,0,4.02,1.28,9.07,1.88,12.53,4.42ZM272.72,313.64c1.84-1.77,3.48-2.62,6.1-3.8.86,1.83.48,3.27-.07,5.43-2.51.03-4.29-.47-6.03-1.63ZM67.52,155.22c.75-5.17,6.34-13.86,9.68-19.35,4.81-7.91,10.71-14.39,17.45-20.79,9.99-9.49,21.73-16.12,34.52-21.16,7.11-2.8,13.78-5.27,21.35-6.9,20.84-4.49,47.57-6.92,68.83.47-26.18,6.18-49.38,7.81-74.88,13.82-33.34,7.86-57.65,26.13-76.94,53.91-.27,1.88-.85,4.11-2.77,4.77,1.06-2.17,1.38-3.9,2.77-4.77ZM66.59,170.28c11.06-23.1,29.54-42.02,52.55-53.45,13.75-6.83,28-10.51,42.99-13.12l46.77-8.15c11.34-1.98,29.1-9.42,38.35-15.7,17.41-11.83,27.7-21.94,38.93-39.95.4-.65,2.06-1.92,2.51-.99,3.21,6.58,3.05,13.97,1.87,21.25-2.33,14.33-10.25,27.75-20.83,37.28-3.19,2.87-7.18,3.08-6.38,7.3,1.19,6.29,24.99-9.96,28.11-12.72-1.63,22.67-30.17,37.89-48.93,43.27-11.85,3.4-23.54,5.39-35.94,5.98l-39.53,1.87c-14.16.67-27.07,2.73-40.29,5.43-14.8,3.02-28.17,8.93-40.27,17.63-11.29,8.12-19.23,17.66-26.84,29.83.27-9.71,3.02-17.6,6.93-25.77ZM59.02,196.58c.36,0,.65.29.65.65s-.29.65-.65.65-.65-.29-.65-.65.29-.65.65-.65ZM41.84,251.1c-4.83,8.12-5,16.99-4.63,26.32-6.43-16.5-.48-37.84,18.4-43.73,2.25-.7,4.74-.73,6.79.9-8.74,2.66-15.75,8.08-20.56,16.51ZM59.4,227.22c-1.9-16.68,2.16-23.48,11.45-36.59,13.56-19.14,33.92-31.38,56.81-36.08,4.03-.83,8.2.61,12.05,1.45,12.03,2.62,22.17,8.71,30.62,17.38,26.78,27.47,24.73,74.33-6.87,97.86-8.12,6.05-16.75,10.57-27,12.16-19.51,3.01-35.89-.61-50.98-13.11-1.47-1.22-3.12-3.05-3.04-5.06.68-15.76-8.19-32.37-23.06-38ZM72.45,287.4c3.65-4.19,6.77-8.08,8.75-13.18,21.37,19.63,55.76,20.98,79.57,6.13,16.18-10.09,28.27-25.33,32.34-44.13,8.1-37.39-10.51-71.36-46.1-84.82,9.84-2.2,18.93-2.19,28.54-2.6l24.93-1.07c30.3-1.3,60.85-7.76,83.73-28.93,23.2,23.48,34.91,54.32,37.52,86.32,2.34,28.69-2.85,55.83-21.23,78-7.41,8.94-15.39,16.19-25.68,21.65-3.74,1.99-8.69,5.99-13.22,5.76-27.73-5.52-56.83-5.61-82.09,7.88-3.85,2.06-7.3,5.06-11.3,6.8-18,.72-35.55-1.55-52.86-6.51-15.95-4.57-35.4-16.01-42.9-31.29ZM132.68,567.06c-1.2,2.05-4.83.87-6.32.35-1.43-2.6-.54-5.06.7-7.51,8.9-17.55,32.45-6.71,47.02-11.78,8.31-2.89,5.38-9.86,6.1-14.61,4.58,3.95,10.81,3.85,10.88,7.76l.16,9c.04,2.32-1.34,3.82-3.72,3.96-18.23,1.12-41.56-9.89-54.83,12.83ZM231.72,567.11c3.07,2.11,6.39,5.65,5.12,9.44-4.33,3.04-13.16-2.7-24.33-3.36-21.14-1.25-44.68,12.39-61,11.26-2.82-.2-5.07-2.3-4.09-5.71,1.49-5.19,5.74-7.78,10.08-9.55,6.84-2.79,13.18.16,16.4-2.17.88-.63,1.59-3.85.03-4.26-6.17-1.61-13.34-1.65-19.44.65-5.83,2.2-9.16,7.4-12.48,12.17-.58.81-3.38.11-3.78-.68-1.08-2.15-.12-4.77,1.2-6.64,5.1-7.21,13.28-10.74,22.16-9.97l14.73,1.28c4.79.42,16.29,2.61,19.13-3.37,2.22-4.69,1.18-9.69,1.93-15.03,4.95.37,9.29.21,14.28-.06-.08,5.33-1.05,9.87.55,14.53,2.34,6.79,12.69,6.78,19.5,11.46ZM255.27,509.15l-11.93,4.26c-2,.71-3.28-.13-4.59-1.56-3.71-4.04-6.29,9.97-17.35,18.24-9.32,6.97-20.86,7.58-30.92,2.41-14-7.18-13.61-14.27-18.68-19.67-1.01-1.07-3.48-.72-4.08.51-.75,1.56-.1,2.94-.38,4.56-18.91-2.92-39.14-7.52-55.87-17.55-33.54-20.11-46.87-54.75-43.31-93.14,4.22-33.47,15.08-59.13,35.68-86.04,19.45,6.98,36.03,9.13,56.77,10.35-.69,2.55-2.72,3.7-4.24,5.57-12.96,15.94-17.76,38.45-14.19,58.57,6.44,36.37,26,44.4,29.23,50.85,5.65,11.3,13.09,20.87,22.28,29.6,9.49,9.02,20.73,15.04,32.91,19.9,8.43,3.36,17.38,4.77,26.09,2.15,5.43-1.63,8.16-6.37,7.81-11.98-.35-5.61-2.43-10.36-5-15.36,3.86-2.55,8.27-3.51,12.98-3.97,8.3-.8,15.95-2.5,23.84-5.05,1.33,7.74,5.68,11.63,3.19,15.34-9.84,14.7-23.57,26.06-40.23,32.01ZM323.82,497.98c12.37,12.24,25.03,23.46,38.71,34.27,3,2.37-12.4,13.89-27.74,4.78-13.65-8.11-26.71-21.59-35.22-34.83-.7-1.09-2.62-1.03-3.43-.73-4.97,1.84,4.26,11.47,6.18,13.96,6.35,8.23,13.37,15.24,22.22,21.67-9.01,9.86-21.8,3.68-28.94-3.94-7.37-7.86-13.32-18.92-18.61-28.85,9.97-6.95,17.54-14.86,24.48-24.7,12.02,5.28,13.21,9.32,22.36,18.37ZM373.69,446.26c-.07,7.62-2.53,15.11-7.15,21.07-10.18,13.14-41.25,15.54-56.12,10.18-4.98-1.8-8.16-5.46-9.85-10.33-7-20.21-10.51-59.53-12.22-81.93l-2.34-30.64c-.75-9.82-1.15-19.2-1.34-29.49,20.14,2.57,39.28,1.88,58.98-4.09,12.03,13.13,15.38,35.94,21.84,47.35,1.91,3.38,3.51,5.78,3.89,9.93l3.68,40.52c.83,9.18.72,18.05.64,27.43ZM379.81,453.44c.56-15.76-.32-31.12-1.67-47.01l-1.29-15.23c5.83.1,9.42,4.87,10.32,10.45,1.69,10.49,2.78,20.81,3.41,31.55.42,7.17-.64,18.43-10.77,20.24Z" fill="#0a0a0a"/><path d="M115.35,318.68c-15.95-4.57-35.4-16.01-42.9-31.29,3.65-4.19,6.77-8.08,8.75-13.18,21.37,19.63,55.76,20.98,79.57,6.13,16.18-10.09,28.27-25.33,32.34-44.13,8.1-37.39-10.51-71.36-46.1-84.82,9.84-2.2,18.94-2.19,28.54-2.6l24.93-1.07c30.3-1.3,60.85-7.76,83.73-28.93,23.2,23.48,34.91,54.32,37.52,86.32,2.34,28.69-2.85,55.83-21.23,78-7.41,8.94-15.39,16.19-25.68,21.65-3.74,1.99-8.69,5.99-13.22,5.76-27.73-5.52-56.83-5.61-82.09,7.88-3.85,2.06-7.3,5.06-11.3,6.8-18,.72-35.55-1.55-52.86-6.51Z" fill="#fdfdfd"/><path d="M136.48,283.38c-19.51,3.01-35.89-.61-50.98-13.11-1.47-1.22-3.12-3.05-3.04-5.06.68-15.76-8.19-32.37-23.06-38-1.9-16.68,2.16-23.48,11.45-36.59,13.56-19.14,33.92-31.38,56.81-36.08,4.03-.83,8.2.61,12.05,1.45,12.03,2.62,22.17,8.71,30.62,17.38,26.78,27.47,24.73,74.33-6.87,97.86-8.12,6.05-16.75,10.57-27,12.16ZM126.38,249.41c15.27-13.7,16.4-37.56,5.88-53.99-4.41-6.88-11.32-11.81-19.71-12.47-7.48-.59-14.12,2.89-19.12,8.21-14.13,15.04-15.31,46.34,4.05,60.12,8.68,6.17,20.58,5.6,28.9-1.87Z" fill="#fcfcfc"/><path d="M167.06,143.16c-14.16.67-27.07,2.73-40.29,5.43-14.8,3.02-28.17,8.93-40.27,17.63-11.29,8.12-19.23,17.66-26.84,29.83.27-9.71,3.02-17.6,6.93-25.77,11.06-23.1,29.54-42.02,52.55-53.45,13.75-6.83,28-10.51,42.99-13.12l46.77-8.15c11.34-1.98,29.1-9.42,38.35-15.7,17.41-11.83,27.7-21.94,38.93-39.95.4-.65,2.06-1.92,2.51-.99,3.21,6.58,3.05,13.97,1.87,21.25-2.33,14.33-10.25,27.75-20.83,37.28-3.19,2.87-7.18,3.08-6.38,7.3,1.19,6.29,24.99-9.96,28.11-12.72-1.63,22.67-30.17,37.89-48.93,43.27-11.85,3.4-23.54,5.39-35.94,5.98l-39.53,1.87Z" fill="#fcfcfc"/><path d="M67.52,155.22c.75-5.17,6.34-13.86,9.68-19.35,4.81-7.91,10.71-14.39,17.45-20.79,9.99-9.49,21.73-16.12,34.52-21.16,7.11-2.8,13.78-5.27,21.35-6.9,20.84-4.49,47.57-6.92,68.83.47-26.18,6.18-49.38,7.81-74.88,13.82-33.34,7.86-57.65,26.13-76.94,53.91Z" fill="#f6f6f6"/><path d="M41.84,251.1c-4.83,8.12-5,16.99-4.63,26.32-6.43-16.5-.48-37.84,18.4-43.73,2.25-.7,4.74-.73,6.79.9-8.74,2.66-15.75,8.08-20.56,16.51Z" fill="#e7e7e7"/><circle cx="59.02" cy="197.22" r=".65" fill="#8d8c8a"/><path d="M67.52,155.22c-.27,1.88-.85,4.11-2.77,4.77,1.06-2.17,1.38-3.9,2.77-4.77Z" fill="#8d8c8a"/><path d="M126.38,249.41c-8.32,7.46-20.22,8.04-28.9,1.87-19.36-13.78-18.18-45.08-4.05-60.12,5-5.32,11.64-8.8,19.12-8.21,8.39.66,15.31,5.59,19.71,12.47,10.52,16.44,9.39,40.3-5.88,53.99ZM102.38,210.71c2.05-4.18.47-11.36-3.54-12.13-3.55-.68-7.75,4.11-6.79,9.89.38,2.28,1.69,5.56,4.79,6.27,2.31.53,4.42-1.76,5.53-4.04Z" fill="#030303"/><path d="M102.38,210.71c-1.12,2.28-3.23,4.57-5.53,4.04-3.1-.71-4.42-3.99-4.79-6.27-.95-5.78,3.24-10.58,6.79-9.89,4.01.77,5.59,7.95,3.54,12.13Z" fill="#f4f4f4"/><path d="M292.31,461.8c1.33,7.74,5.68,11.63,3.19,15.34-9.84,14.7-23.57,26.06-40.23,32.01l-11.93,4.26c-2,.71-3.28-.13-4.59-1.56-3.71-4.04-6.29,9.97-17.35,18.24-9.32,6.97-20.86,7.58-30.92,2.41-14-7.18-13.61-14.27-18.68-19.67-1.01-1.07-3.48-.72-4.08.51-.75,1.56-.1,2.94-.38,4.56-18.91-2.92-39.14-7.52-55.87-17.55-33.54-20.11-46.87-54.75-43.31-93.14,4.22-33.47,15.08-59.13,35.68-86.04,19.45,6.98,36.03,9.13,56.77,10.35-.69,2.55-2.72,3.7-4.24,5.57-12.96,15.94-17.76,38.45-14.19,58.57,6.44,36.37,26,44.4,29.23,50.85,5.65,11.3,13.09,20.87,22.28,29.6s20.73,15.04,32.91,19.9c8.43,3.36,17.38,4.77,26.09,2.15,5.43-1.63,8.16-6.37,7.81-11.98s-2.43-10.36-5-15.36c3.86-2.55,8.27-3.51,12.98-3.97,8.3-.8,15.95-2.5,23.84-5.05Z" fill="#fcfcfc"/><path d="M253.19,429.67c4.48,7.05,10.41,20.09,7.7,28.81-1.15,3.71-6.04,7.72-9.99,5.33-1.55-.93-11.98-14.07-14.42-16.55l-11.84-12.06c-1.06-1.08-2.54.01-3.11.63-.98,1.06-.6,2.82.52,4.07l13.6,15.22c5.3,5.93,24.33,28.49,17.82,35.91-3.31,3.77-15.26,2.64-20.29.82-19.01-6.88-29.56-12.9-42.96-28.29-19.28-22.14-30.57-58.35-26.46-87.42,1.88-13.31,8.51-26.1,18.93-34.78,25.95-21.59,66.47-13.32,94.05,1.43,1.84.98,2.71,2.4,2.87,4.46l4.9,61.86,3.37,26.44c-6.85,3.12-13.71,5.51-21.53,6.83-1.54-2.44-2.25-5.03-2.94-8.07,5.2-3.36,8.45-8.02,9.16-14.13,2.21-18.97-6.96-43.73-13.84-61.23-.52-1.33-1.96-1.94-2.8-2.02-1.24-.11-3.1,1.55-2.52,3.38,3.31,10.29,7.02,20.01,9.6,30.46,1.74,7.03,8.54,37.95-3.34,37.48-3.95-6.65-7.34-13.12-12.37-18.89-1.04-1.19-2.67-1.47-3.88-.89-1,.48-2.06,2.58-1.04,4.17l10.81,16.99Z" fill="#fcfcfc"/><path d="M366.55,467.33c-10.18,13.14-41.25,15.54-56.12,10.18-4.98-1.8-8.16-5.46-9.85-10.33-7-20.21-10.51-59.53-12.22-81.93l-2.34-30.64c-.75-9.82-1.15-19.2-1.34-29.49,20.14,2.57,39.28,1.88,58.98-4.09,12.03,13.13,15.38,35.94,21.84,47.35,1.91,3.38,3.51,5.78,3.89,9.93l3.68,40.52c.83,9.18.72,18.05.64,27.43-.07,7.62-2.53,15.11-7.15,21.07ZM341.49,365.17c2.05-10.31-5.06-20.61-16.01-20.84-5.58-.11-11.24,3.35-13.97,7.92-8.21,13.71,6.2,29.4,16.33,37.48,5.01,3.99,13-21.27,13.66-24.56ZM362.63,446.66c2.06-6.33,2.05-12.68,1.51-19.25-.6-7.2-3.09-26.72-4.98-33.01-.66-2.18-2.16-3.28-4.63-3.33l-48.93,5.37c-2.63.29-4.8,1.64-6.18,3.81.5,14.46,1.69,28.34,4.91,42.36,1.06,4.59,3,9.16,6.35,12.45,7.85,7.68,24.23,6.76,34.22,4.44,7.58-1.76,15.23-5.17,17.72-12.84Z" fill="#fafafa"/><path d="M299.57,502.19c-.7-1.09-2.62-1.03-3.43-.73-4.97,1.84,4.26,11.47,6.18,13.96,6.35,8.23,13.37,15.24,22.22,21.67-9.01,9.86-21.8,3.68-28.94-3.94-7.37-7.86-13.32-18.92-18.61-28.85,9.97-6.95,17.54-14.86,24.48-24.7,12.02,5.28,13.21,9.32,22.36,18.37,12.37,12.24,25.03,23.46,38.71,34.27,3,2.37-12.4,13.89-27.74,4.78-13.65-8.11-26.71-21.59-35.22-34.83Z" fill="#fafafa"/><path d="M273.54,334.34c-25.79-13.02-66.72-18.46-91.36-.48-13.07,9.53-21.5,23.99-24,39.89-1.67,10.62-1.94,21.04.2,31.45l5.22,25.44c-22.36-29.83-23.51-72.53,5.39-98.01,7.62-6.71,16.07-11.07,25.67-14.45,22.64-7.97,47.95-7.28,70.85,0,4.02,1.28,9.07,1.88,12.53,4.42,1.59,4.32.23,9.58,1.12,14.32-2.32-.06-3.61-1.59-5.62-2.6Z" fill="#f6f6f6"/><path d="M147.43,578.74c1.49-5.19,5.74-7.78,10.08-9.55,6.84-2.79,13.18.15,16.4-2.17.88-.63,1.59-3.85.03-4.26-6.17-1.61-13.34-1.65-19.44.65-5.83,2.2-9.16,7.4-12.48,12.17-.58.81-3.38.11-3.78-.68-1.08-2.15-.12-4.77,1.2-6.64,5.1-7.21,13.28-10.74,22.16-9.97l14.73,1.28c4.79.42,16.29,2.61,19.13-3.37,2.22-4.69,1.18-9.69,1.93-15.03,4.95.37,9.29.21,14.28-.06-.08,5.33-1.05,9.87.55,14.53,2.34,6.79,12.69,6.78,19.5,11.46,3.07,2.11,6.39,5.65,5.12,9.44-4.33,3.04-13.16-2.7-24.33-3.36-21.14-1.25-44.68,12.39-61,11.26-2.82-.2-5.07-2.3-4.09-5.71Z" fill="#f7f7f7"/><path d="M370.1,364.19l-6.65-18.01c-5.57-15.09-13.25-31.69-28.95-37.83-16.57-6.18-35.5-2.17-49.92,9.33,0-26.84,42.06-27.07,57.32-19.61,10.31,5.04,14.29,10.14,19.85,20.16s8.92,20.81,11.83,32c.97,3.72,4.79,17.45,2.98,19.6-2.1,2.51-5.96-4.3-6.46-5.65Z" fill="#f7f7f7"/><path d="M390.58,433.21c.42,7.17-.64,18.43-10.77,20.24.56-15.76-.32-31.12-1.67-47.01l-1.29-15.23c5.83.1,9.42,4.87,10.32,10.45,1.69,10.49,2.78,20.81,3.41,31.55Z" fill="#f4f4f4"/><path d="M132.68,567.06c-1.2,2.05-4.83.87-6.32.35-1.43-2.6-.54-5.06.7-7.51,8.9-17.55,32.45-6.71,47.02-11.78,8.31-2.89,5.38-9.86,6.1-14.61,4.58,3.95,10.81,3.85,10.88,7.76l.16,9c.04,2.32-1.34,3.82-3.72,3.96-18.23,1.12-41.56-9.89-54.83,12.83Z" fill="#efefef"/><path d="M291.22,456.06c-4.21,1.94-21.26,6.05-24.53,4.33,1.17-4.14,1.4-7.86,1.32-12.2,5.87-1.72,11.65-2.63,17.27-5.34.85-.41,2.69-1.71,3.13-.79l2.81,14Z" fill="#f5f5f5"/><path d="M278.74,315.26c-2.51.03-4.29-.47-6.03-1.63,1.84-1.77,3.48-2.62,6.1-3.8.86,1.83.48,3.27-.07,5.43Z" fill="#e7e7e7"/><path d="M362.63,446.66c-2.5,7.67-10.14,11.08-17.72,12.84-10,2.32-26.37,3.24-34.22-4.44-3.35-3.28-5.3-7.85-6.35-12.45-3.22-14.01-4.41-27.9-4.91-42.36,1.37-2.17,3.54-3.53,6.18-3.81l48.93-5.37c2.46.05,3.97,1.16,4.63,3.33,1.89,6.28,4.38,25.81,4.98,33.01.55,6.57.56,12.92-1.51,19.25ZM331.21,416.3c11.7-.08,20.8-7.63,22.55-19.35l-46.64,5c2.48,5.17,5.72,8.17,9.47,11.08,4.28,2.58,8.83,3.31,14.62,3.27ZM321.29,454.64c10.12,1.67,20.33.97,29.78-2.77,14.35-5.69,5.91-34.43,5.05-45.77-7.52,16.69-27.69,19.09-41.52,11.94-4.4-2.28-6.81-5.73-9.63-9.67-.31,9.39,1.25,17.82,2.58,26.78,1.21,8.17,4.59,17.98,13.75,19.5Z" fill="#0c0c0c"/><path d="M341.49,365.17c-.65,3.29-8.65,28.55-13.66,24.56-10.13-8.08-24.54-23.77-16.33-37.48,2.74-4.57,8.4-8.03,13.97-7.92,10.95.22,18.06,10.53,16.01,20.84ZM329.75,361.51c0-2.49-2.02-4.51-4.51-4.51s-4.51,2.02-4.51,4.51,2.02,4.51,4.51,4.51,4.51-2.02,4.51-4.51Z" fill="#040404"/><path d="M321.29,454.64c-9.15-1.52-12.53-11.33-13.75-19.5-1.33-8.96-2.88-17.39-2.58-26.78,2.82,3.95,5.23,7.39,9.63,9.67,13.83,7.16,34,4.75,41.52-11.94.86,11.33,9.31,40.08-5.05,45.77-9.46,3.75-19.67,4.45-29.78,2.77Z" fill="#fafafa"/><path d="M331.21,416.3c-5.79.04-10.35-.69-14.62-3.27-3.75-2.91-6.99-5.91-9.47-11.08l46.64-5c-1.75,11.72-10.85,19.26-22.55,19.35Z" fill="#f7f7f7"/><circle cx="325.24" cy="361.51" r="4.51" fill="#f4f4f4"/></svg>