<?xml version="1.0" encoding="UTF-8"?><svg id="Layer_1" xmlns="http://www.w3.org/2000/svg" viewBox="0 0 425.2 623.62"><path d="M345.36,414.78c1.25,41.95-24.89,79.07-64.14,93.66-30.72,11.42-63.61,13.25-96,9.73-15.5-1.68-29.64-5.33-44.11-11.04-28.36-11.19-49.34-34.36-57.54-63.83-2.53-9.07-4.19-18.33-3.32-27.94.88-4.17,4.78-7.53,6.63-11.37,13.92-28.84,21.99-55.04,20.78-89.01l24.87,9.27c9.2,3.43,18.38,4.99,28.29,6.7,48.62,8.36,109.85,6.02,156.17-16.14.73,5.75.12,11.04.47,16.7,1.11,17.99,5.31,34.83,11.59,51.58,4.27,11.39,8.87,21.93,16.31,31.68Z" fill="#fdfdfd"/><path d="M122.91,578.75c.29-6.33,5.06-11.6,10.9-12.87,1.44-.31,7.35-.47,7.11-4.91-.29-5.44-11.37-.14-14.53,1.37-3.95,1.89-5.54,5.66-8.49,8.56-2.66,2.61-17.6,5.9-15.63-1.46,1.14-4.25,3.76-7.5,7.39-9.76,7.87-4.88,17.19-2.7,28.51-4.68,10.58-1.85,10.51-10.59,10.39-19.73,5.02,1.16,9.18,1.11,14.18,1.06.18,9.21-1.98,13.6,6.37,19.39,3,2.08,13.74,7.39,10.64,13.04-2,3.65-11.39-1.06-15.2-.92-5.84.22-11.08,2.73-15.97,5.54l-12.19,6.99c-2.46,1.41-4.89,2.58-7.9,2.91-2.5.27-5.72-1.33-5.57-4.53Z" fill="#f9f9f9"/><path d="M284.67,559.61c-2.44,7.05,9.22,3.29,16.4,13.46,1.81,2.57,2.84,6.73.16,9.19-6.13,5.63-26.93-13.33-38.73-14.43-4.84-.45-13.54,4.22-16.06,1.61-1.18-1.22-1.14-4.72-.07-6.24,6.33-9.02,18.15-4.15,16.92-26.87,4.67.12,8.85.21,13.5-.9.27,5.49-.49,10.81,2.53,15.28,4.71,6.99,19.25,4.17,30.35,6.47,6.78,1.4,12.15,6.18,13.37,12.88s-12.57,2.93-14.66,1.72-2.88-4.01-4.64-5.57c-4.67-4.15-17.59-10.86-19.07-6.58Z" fill="#f7f7f7"/><path d="M227.63,550.41c-4.43,6.93-12.35,9.69-20.19,7.18-4.35-1.4-7.96-3.96-10.11-8.17-6.57-12.84-5.45-12.64-.85-24.16l31.92.22c5,10.37,5.95,14.41-.77,24.93Z" fill="#fafafa"/><path d="M346.49,390.95c1.16,5.51,1.81,10.37,1.34,15.57-.17.67-1.13.72-1.51.03-15.06-27.31-25.7-64.62-21.78-95.81,2.13-1.64,5.29-3.38,7.87-2.86,1.87.38,4.31,3.01,4.64,4.79,1.02,5.56-2.41,21.87,3.3,49.01l6.15,29.27Z" fill="#f6f6f6"/><path d="M101.1,311.07c3.06,31.11-7.02,68.57-22.92,95.29-1.29-5.22-.65-9.96.4-14.84l5.49-25.45,2.4-12.6c2.43-12.71,2.71-25.1,1.49-38.02-.37-3.9,2.5-7.79,6.52-7.31,2.38.28,4.72,1.62,6.61,2.93Z" fill="#f7f7f7"/><path d="M289.5,519.35c-4.98,6.03-10.6,10.83-18.92,11.2-8.02.36-15.91-1.17-21.82-7.45,16.32-2.88,30.99-6.95,45.75-13.95-.98,4.14-3.32,6.79-5.01,10.2Z" fill="#f6f6f6"/><path d="M175.72,523.45c-11.77,10.95-29.36,8.81-39.14-2.86-2.07-3.58-4.21-6.54-5.06-11.36,10.63,4.88,20.76,8.84,32.07,11.14,3.93,1.17,7.92,1.08,12.14,3.09Z" fill="#f5f5f5"/><path d="M190.02,525.37c-2.88,8.83-9.88,19.61-19.89,16.26-2.57-.86-1.84-4.61-1.19-6.86,12.19-3.08,13.29-13.78,21.08-9.39Z" fill="#f4f4f4"/><path d="M256,534.66c1.74,2.32.86,4.85-.11,7.22-10.73,2.36-18.02-6.85-20.46-16.3,1.25-1.22,3.83-1.3,5.54-.61,4.13,4.3,8.74,7.61,15.04,9.69Z" fill="#f4f4f4"/><path d="M360.68,462.45c-.12.93-.88,1.36-2.06.88-.26-.63.13-1.35.71-.95.44.08.9.11,1.35.08Z" fill="#e7e7e7"/><circle cx="358.03" cy="464.96" r=".5" fill="#e7e7e7"/><path d="M65.53,462.46c1.26.86,2.06.99,1.89,2.04-1.13-.48-1.82-1.19-1.89-2.04Z" fill="#8d8c8a"/><path d="M360.68,462.45c-.45.03-.9,0-1.35-.08,3.51-8.09,6.44-16.37,7.36-25.74.2-2.01,1.11-3.99-.5-5.66-.67-.7-2.06-.75-2.86-.27-.69.41-1.82,1.1-1.98,2.64-1.54,14.62-6.62,28.32-16.48,39.46-4.31,4.87-10.21,7.39-16.34,9.58.61-2.59,2.31-4.08,3.87-6.02,6.99-8.75,11.38-18.6,14.79-29.2s3.78-21.48,4.62-32.68c.43-5.74,2.36-11.02,1.58-17.12-1.1-8.62-2.53-16.86-4.55-25.37-4-16.84-6.38-33.47-5.7-50.77,26.38,26.79,39.54,60.88,35.76,97.24-1.67,16.07-8.6,31.03-18.22,43.99Z" fill="#f9f9f9"/><path d="M65.53,462.46c-.2-.68-.17-.87-.11-.79s.17.42.11.79Z" fill="#f9f9f9"/><path d="M96.83,482.31c-20.73-4.39-30.59-30.95-33.2-48.84-.22-1.51-1.66-2.5-2.69-2.67-7.77-1.25,2.28,24.83,3.87,30.34-4.94-3.12-7.11-8.4-9.67-13.47-14.79-29.32-11.53-60.72,1.59-90.12,5.19-11.62,15.67-26.82,25.17-35.98,1.18,11.6.13,23.15-2.34,34.89l-5.9,28.1c-1.26,5.98-1.78,11.79-2.15,17.87-.24,4.01,1.6,7.39,1.83,11.07.63,9.87.83,19.27,3.26,28.95,3.44,13.68,11.02,28.28,20.21,39.87Z" fill="#f9f9f9"/><path d="M241.5,269.05c-4.28-3.61,4.94-9.92-6.63-25.07-4.92-6.43-11.91-11.51-20.3-12.31-13.54-1.29-25.91,10.86-29.86,22.83-2.62,7.96,3.66,11.13-2.51,15.76-27.11,20.38-64.2,16.64-86.89-8.56-5.09-5.65-8.54-11.58-11.38-18.47-15.53-37.78,6.32-79.58,46.09-88.59,4.49-1.02,7.52-1.14,12.23.11,13.27,3.53,26.21,7.49,37.62,15.33,13.05,8.97,22.51,21.11,28.49,35.57.69,1.68,2.57,2.43,3.71,2.55,1.76.19,3.43-1.23,4.19-3.13,1.98-4.95,4.4-9.08,7.45-13.42,10.04-14.3,23.53-24.91,39.9-31.25,6.41-2.48,12.75-4.11,19.27-5.92,4.66-1.3,8.67-1.16,13.3.12,9.46,2.61,18.01,6.07,25.81,12.45,22.33,18.26,30.49,49.15,19.37,76s-37.69,43-65.38,40.09c-12.78-1.34-24.48-5.67-34.48-14.11ZM314.34,218.44c0-19.86-16.1-35.97-35.97-35.97s-35.97,16.1-35.97,35.97,16.1,35.97,35.97,35.97,35.97-16.1,35.97-35.97ZM182.52,218.47c0-19.82-16.07-35.89-35.89-35.89s-35.89,16.07-35.89,35.89,16.07,35.89,35.89,35.89,35.89-16.07,35.89-35.89Z" fill="#fbfbfb"/><path d="M118.86,151.35c-37.02,14.82-54.89,53.85-42.01,90.98,4.18,12.05,10.95,21.96,20.58,30.02,25.93,21.7,63.09,23.22,90.42,1.22,4.92,9.51,10.07,18.01,18.49,23.95,10.64,10.4,26.45-15.38,30.42-24.2,25.16,20.21,59.95,21.7,86.29,2.57,9.46-6.87,17.05-15.09,22.04-25.67,6.53-13.87,9.07-28.49,6.37-43.79-1.92-10.86-5.64-21.01-12.04-29.99-5.7-7.99-12.58-15.25-21.23-19.65l-11.87-6.04c12.01-1.52,22.67-3.64,34.25-7.19,5.9,8.77,11.75,17.18,16.18,26.94,7.3,16.1,11.08,33.09,11.88,50.92,1.45,32.43-12.77,60.72-39.31,78.87-16.52,11.3-34.76,18.26-54.32,22.65-37.58,8.43-82.87,8.76-120.49.76-21.57-4.58-46.22-12.96-63.33-26.71-7.5-6.03-14.26-12.59-19.63-20.55-7.03-10.42-12.04-21.51-13.93-34.03-3.12-20.69-.86-41,6.21-60.56,4.89-13.51,11.19-25.82,20.23-36.94,1.13-1.39,4.22-.15,5.54.27,9.56,3,18.86,3.69,29.26,6.17Z" fill="#fbfbfb"/><path d="M350.56,108.82c1.39,7.1,20.24-7.9,24-9.59-4.23,18.39-17.84,32.2-35.2,38.32-7.73,2.72-15.22,4.45-23.26,5.7l-18.97,2.94c-11.98,1.86-23.29,4.14-34.68,8.31-21.79,7.98-39.2,23.22-49.89,44.75-9.51-16.11-17.76-27.73-33.72-36.83-34.39-19.61-58.74-13.94-91.9-24.3-14.79-4.62-27.94-15.39-34.39-29.75-1.24-2.75-3.22-5.07-2.42-8.35,4.98,2.43,19.05,14.46,23.35,9.94,1.15-1.21.87-2.82-.28-4.11l-7.19-8.06c-10.96-12.29-21.04-41.36-12.36-56.43,3.51,4.59,5.44,9.21,8.44,13.68,5.29,7.88,11.22,15.16,18.68,21.19,22.03,17.79,42.27,18.86,67.25,29.79,2.71,1.18,5.14,2.8,7.72,4.22,11.68,6.41,21.77,14.5,30.46,24.64,9.66,11.26,17.34,23.26,23.03,36.88.53,1.27,2.09,2,2.93,2.11,3.5.45,4.21-5.5,7.5-11.23,5.8-10.11,11.55-19.8,19.39-28.55,12.14-13.56,26.24-24.93,43.52-30.77l29.17-9.86c12.71-4.3,24.2-10.64,33.99-19.73,12.54-11.65,15.71-18.29,24.37-31.94.82.12,1.4.89,1.65,1.64,5.67,17.25-2.33,41.43-13.57,54.53l-7.04,8.21c-.77.9-.7,1.98-.56,2.68Z" fill="#fbfbfb"/><path d="M212.98,163.18c-5.85-8.71-9.76-16.94-15.81-24.4-14.15-18.94-30.86-31.74-53.68-41.31,37.86-17.71,78.55-18.94,117.15-8.3l20.62,8.05c-14.83,6.43-27.62,14.02-39.14,24.88-12.3,11.47-21.25,24.9-29.14,41.08Z" fill="#fcfcfc"/><path d="M227.59,245.26l-1.25.31c-14.12-7.81-19.81-4.87-31.87,4.34-1.15-.31-1.21-1.28.02-1.7,4.64-5.6,11.26-10.77,18.99-10.49,5.75.21,10.94,3.7,14.1,7.55Z" fill="#e7e7e7"/><path d="M222.46,250.91c2.24,1.3,3.25,6.51.78,8.77-1.11,1.01-2.95,1.42-4.44.28-2.93-2.25-2.8-6.83.06-9.15,1.12-.91,2.63-.45,3.6.11Z" fill="#f4f4f4"/><path d="M226.34,245.57l1.25-.31c1,1.21,3.02.98,2.52,3-1.57-.76-2.66-1.71-3.77-2.69Z" fill="#8d8c8a"/><circle cx="368.03" cy="94.96" r=".5" fill="#fdfdfd"/><path d="M314.34,218.44c0,19.86-16.1,35.97-35.97,35.97s-35.97-16.1-35.97-35.97,16.1-35.97,35.97-35.97,35.97,16.1,35.97,35.97ZM274.68,204.57c0-5.11-4.15-9.26-9.26-9.26s-9.26,4.15-9.26,9.26,4.15,9.26,9.26,9.26,9.26-4.15,9.26-9.26ZM293.33,230.86c0-2.26-1.83-4.09-4.09-4.09s-4.09,1.83-4.09,4.09,1.83,4.09,4.09,4.09,4.09-1.83,4.09-4.09Z" fill="#030303"/><circle cx="265.42" cy="204.57" r="9.26" fill="#fafafa"/><circle cx="289.24" cy="230.86" r="4.09" fill="#e7e7e7"/><path d="M182.52,218.47c0,19.82-16.07,35.89-35.89,35.89s-35.89-16.07-35.89-35.89,16.07-35.89,35.89-35.89,35.89,16.07,35.89,35.89ZM143.05,204.5c0-5.15-4.18-9.33-9.33-9.33s-9.33,4.18-9.33,9.33,4.18,9.33,9.33,9.33,9.33-4.18,9.33-9.33ZM161.66,230.99c0-2.26-1.83-4.09-4.09-4.09s-4.09,1.83-4.09,4.09,1.83,4.09,4.09,4.09,4.09-1.83,4.09-4.09Z" fill="#030303"/><circle cx="133.72" cy="204.5" r="9.33" fill="#f9f9f9"/><circle cx="157.57" cy="230.99" r="4.09" fill="#e7e7e7"/><path d="M385.75,402.36c-.92-18.09-5.25-35.65-13.43-51.83-6.7-13.25-15.97-24.19-26.1-34.71-2.92-3.03-2.11-6.99-9.37-13.44,22.71-17.3,36.31-41.52,37.83-69.95,1.72-32.16-7.88-64.3-27.53-89.75-.68-.88-.75-1.7.34-2.22,11.9-5.64,21.63-14.49,27.97-25.96,2.81-5.09,7.23-15.84,2.34-20.05-3.81-3.28-11.5,2.48-8.18-2.73,13.37-20.94,12.56-55.25,2.33-56.16-6.06-.54-8.8,6.67-13.61,13.73-19.17,28.1-35.82,36.13-68.95,44.58-5.59-1.48-10.91-4.8-16.45-6.77-45.16-16.04-89.8-14.38-133.42,5.21-1.57.71-3.13,2.44-4.9,1.89l-13.4-4.21c-24.96-7.83-42.56-18.61-56.02-41.41-3.19-5.4-6.96-13.66-12.15-13.25-6.32.5-8.55,10.99-8.77,17.13-.58,16.3,3.71,27.58,11.46,42.07-.91,3.38-3.42-3.24-8.98-.2-4.31,2.35-1.78,12.05-.99,14.01,5.96,14.86,17.36,25.92,32.39,33.02-5.45,8.18-10.44,15.61-14.42,24.06-14.62,31.12-20.2,70.99-4.6,102.66,6.48,13.16,16.13,24.19,27.5,33.19.79.63,1.93.75,1.85,1.68-.03.38-.75.95-1.22,1.28-6.34,4.5-4.34,7.37-8.38,11.56-5.7,5.92-10.81,11.55-15.66,18.29-17.72,24.57-26.37,53.97-23.28,84.28,1.43,14.04,6.03,26.7,13.29,38.49,5.13,8.33,11.84,14.5,19.47,20.29,9.05,6.87,18.87,10.15,29.94,12.22,5.48,5.11,13.21,9.98,18.45,15.43,5.26,5.47,4.08,16.72,18.43,26.6,4.21,2.9,2.39,5.83,2.41,12.05.02,3.32-2.09,5.37-5.23,5.6l-17.33,1.26c-11.57.84-23.35,8.73-23.14,21.21.08,4.96,4.42,8.33,9.3,8.54,3.91.17,7.13-.64,10.77-1.25l2.58,6.71c1.22.82,2.39,1.56,3.46,2.33,1.98.37,4.53.4,5.71.42,3.02.05,5.85-.65,8.79-1.2.14-.07.27-.14.41-.19,6.17-3.79,21.58-13.9,27.28-12.81l10.22,1.96c3.54.68,8.31-.48,10-4.06,2.68-5.68-.03-12.24-4.59-16.04-4.28-3.56-9.9-5.13-10.5-7.96,6.16.97,12.35-.46,17.21-5.34,2.43,4.78,3.77,9.48,7.24,13.42,10.03,11.4,27.07,11.61,37.04.05,3.12-3.61,4.37-7.99,6.9-13.06,5.49,3.59,11.04,5.44,17.48,5.59-2.74,3.18-5.74,4.37-8.79,6.18-6.18,3.67-9.45,10.88-5.92,17.57,1.5,2.85,5.53,3.77,8.64,3.77,6.97-.01,12.2-4.22,19.11-.41l15.76,8.69s.01,0,.02,0c5.17,1.08,10.81,4.16,16.01,3.69,2.03-.63,4-1.46,5.89-2.64.69-1.1,1.79-2.57,2.08-4.18.87-4.8,6.13.36,14.6-1.64,4.82-1.14,7.33-5.32,6.33-10.23-5.85-28.71-42.25-14.83-45.64-23.17-1.15-2.82-.64-5.77-.91-8.72-.63-6.84,8.88-7.58,13.43-17.38l7.09-15.26c6.51-4.9,12.72-10.68,19.55-15.02,4.02-2.55,9.76-2.41,14.16-4.15,20.94-8.29,36.33-24.8,43.44-46.24,4.04-12.18,6.04-24.06,5.37-37.13ZM337.05,312.67c1.02,5.56-2.41,21.87,3.3,49.01l6.15,29.27c1.16,5.51,1.81,10.37,1.34,15.57-.17.67-1.13.72-1.51.03-15.06-27.31-25.7-64.62-21.78-95.81,2.13-1.64,5.29-3.38,7.87-2.86,1.87.38,4.31,3.01,4.64,4.79ZM260.64,89.17l20.62,8.05c-14.83,6.43-27.62,14.02-39.14,24.88-12.3,11.47-21.25,24.9-29.14,41.08-5.85-8.71-9.76-16.94-15.81-24.4-14.15-18.94-30.86-31.74-53.68-41.31,37.86-17.71,78.55-18.94,117.15-8.3ZM52.55,108.36c-1.24-2.75-3.22-5.07-2.42-8.35,4.98,2.43,19.05,14.46,23.35,9.94,1.15-1.21.87-2.82-.28-4.11l-7.19-8.06c-10.96-12.29-21.04-41.36-12.36-56.43,3.51,4.59,5.44,9.21,8.44,13.68,5.29,7.88,11.22,15.16,18.68,21.19,22.03,17.79,42.27,18.86,67.25,29.79,2.71,1.18,5.14,2.8,7.72,4.22,11.68,6.41,21.77,14.5,30.46,24.64,9.66,11.26,17.34,23.26,23.03,36.88.53,1.27,2.09,2,2.93,2.11,3.5.45,4.21-5.5,7.5-11.23,5.8-10.11,11.55-19.8,19.39-28.55,12.14-13.56,26.24-24.93,43.52-30.77l29.17-9.86c12.71-4.3,24.2-10.64,33.99-19.73,12.54-11.65,15.71-18.29,24.37-31.94.82.12,1.4.89,1.65,1.64,5.67,17.25-2.33,41.43-13.57,54.53l-7.04,8.21c-.77.9-.7,1.98-.56,2.68,1.39,7.1,20.24-7.9,24-9.59-4.23,18.39-17.84,32.2-35.2,38.32-7.73,2.72-15.22,4.45-23.26,5.7l-18.97,2.94c-11.98,1.86-23.29,4.14-34.68,8.31-21.79,7.98-39.2,23.22-49.89,44.75-9.51-16.11-17.76-27.73-33.72-36.83-34.39-19.61-58.74-13.94-91.9-24.3-14.79-4.62-27.94-15.39-34.39-29.75ZM368.53,94.96c0,.28-.22.5-.5.5s-.5-.22-.5-.5.22-.5.5-.5.5.22.5.5ZM234.86,243.98c-4.92-6.43-11.91-11.51-20.3-12.31-13.54-1.29-25.91,10.86-29.86,22.83-2.62,7.96,3.66,11.13-2.51,15.76-27.11,20.38-64.2,16.64-86.89-8.56-5.09-5.65-8.54-11.58-11.38-18.47-15.53-37.78,6.32-79.58,46.09-88.59,4.49-1.02,7.52-1.14,12.23.11,13.27,3.53,26.21,7.49,37.62,15.33,13.05,8.97,22.51,21.11,28.49,35.57.69,1.68,2.57,2.43,3.71,2.55,1.76.19,3.43-1.23,4.19-3.13,1.98-4.95,4.4-9.08,7.45-13.42,10.04-14.3,23.53-24.91,39.9-31.25,6.41-2.48,12.75-4.11,19.27-5.92,4.66-1.3,8.67-1.16,13.3.12,9.46,2.61,18.01,6.07,25.81,12.45,22.33,18.26,30.49,49.15,19.37,76-10.81,26.12-37.69,43-65.38,40.09-12.78-1.34-24.48-5.67-34.48-14.11-4.28-3.61,4.94-9.92-6.63-25.07ZM194.48,249.9c-1.15-.31-1.21-1.28.02-1.7,4.64-5.6,11.26-10.77,18.99-10.49,5.75.21,10.94,3.7,14.1,7.55,1,1.21,3.02.98,2.52,3-1.57-.76-2.66-1.71-3.77-2.69-14.12-7.81-19.81-4.87-31.87,4.34ZM223.24,259.67c-1.11,1.01-2.95,1.42-4.44.28-2.93-2.25-2.8-6.83.06-9.15,1.12-.91,2.63-.45,3.6.11,2.24,1.3,3.25,6.51.78,8.77ZM71.53,276.43c-7.03-10.42-12.04-21.51-13.93-34.03-3.12-20.69-.86-41,6.21-60.56,4.89-13.51,11.19-25.82,20.23-36.93,1.13-1.39,4.22-.15,5.54.27,9.56,3,18.86,3.69,29.26,6.17-37.02,14.82-54.89,53.85-42.01,90.98,4.18,12.05,10.95,21.96,20.58,30.02,25.93,21.7,63.09,23.22,90.42,1.22,4.92,9.51,10.07,18.01,18.49,23.95,10.64,10.4,26.45-15.38,30.42-24.2,25.16,20.21,59.95,21.7,86.29,2.57,9.46-6.87,17.05-15.09,22.04-25.67,6.53-13.87,9.07-28.49,6.37-43.79-1.92-10.86-5.64-21.01-12.04-29.99-5.7-7.99-12.58-15.25-21.23-19.65l-11.87-6.04c12.01-1.52,22.67-3.64,34.25-7.19,5.9,8.77,11.75,17.18,16.18,26.94,7.3,16.1,11.08,33.09,11.88,50.92,1.45,32.43-12.77,60.72-39.31,78.87-16.52,11.3-34.76,18.26-54.32,22.65-37.58,8.43-82.87,8.76-120.49.76-21.57-4.58-46.22-12.96-63.33-26.71-7.5-6.03-14.26-12.59-19.63-20.55ZM86.48,353.47c2.43-12.71,2.71-25.1,1.49-38.02-.37-3.9,2.5-7.79,6.52-7.31,2.38.28,4.72,1.62,6.61,2.93,3.06,31.11-7.02,68.57-22.92,95.29-1.29-5.22-.65-9.96.4-14.84l5.49-25.46,2.4-12.6ZM67.41,464.5c-1.13-.48-1.82-1.19-1.89-2.04-.41-1.37.12-.74,0,0,1.26.86,2.06.99,1.89,2.04ZM63.63,433.47c-.22-1.51-1.66-2.5-2.69-2.67-7.77-1.25,2.28,24.83,3.87,30.34-4.94-3.12-7.11-8.4-9.67-13.47-14.79-29.32-11.53-60.72,1.59-90.12,5.19-11.62,15.67-26.82,25.17-35.98,1.18,11.6.13,23.15-2.34,34.89l-5.9,28.1c-1.26,5.98-1.78,11.79-2.15,17.87-.24,4.01,1.6,7.39,1.83,11.07.63,9.87.83,19.27,3.26,28.95,3.44,13.68,11.02,28.28,20.21,39.87-20.73-4.39-30.59-30.95-33.2-48.84ZM136.58,520.59c-2.07-3.58-4.21-6.54-5.06-11.36,10.63,4.88,20.76,8.84,32.07,11.14,3.93,1.17,7.92,1.08,12.14,3.09-11.77,10.95-29.36,8.81-39.14-2.86ZM179.75,568.77c-2,3.65-11.39-1.06-15.2-.92-5.84.22-11.08,2.73-15.97,5.54l-12.19,6.99c-2.46,1.41-4.89,2.58-7.9,2.91-2.5.27-5.72-1.33-5.57-4.53.29-6.33,5.06-11.6,10.9-12.87,1.44-.31,7.35-.47,7.11-4.91-.29-5.44-11.37-.14-14.53,1.37-3.95,1.89-5.54,5.66-8.49,8.56-2.66,2.61-17.6,5.9-15.63-1.46,1.14-4.25,3.76-7.5,7.39-9.76,7.87-4.88,17.19-2.7,28.51-4.68,10.58-1.85,10.51-10.59,10.39-19.73,5.02,1.16,9.18,1.11,14.18,1.06.18,9.21-1.98,13.6,6.37,19.39,3,2.08,13.74,7.39,10.64,13.04ZM170.13,541.62c-2.57-.86-1.84-4.61-1.19-6.86,12.19-3.08,13.29-13.78,21.08-9.39-2.88,8.83-9.88,19.61-19.89,16.26ZM227.63,550.41c-4.43,6.93-12.35,9.69-20.19,7.18-4.35-1.4-7.96-3.96-10.11-8.17-6.57-12.84-5.45-12.64-.85-24.16l31.92.22c5,10.37,5.95,14.41-.77,24.93ZM235.43,525.58c1.25-1.22,3.83-1.3,5.54-.61,4.13,4.3,8.74,7.61,15.04,9.69,1.74,2.32.86,4.85-.11,7.22-10.73,2.36-18.02-6.85-20.46-16.3ZM309.67,557.17c6.78,1.4,12.15,6.18,13.37,12.88,1.25,6.84-12.57,2.93-14.66,1.72-2.13-1.24-2.88-4.01-4.64-5.57-4.67-4.15-17.59-10.86-19.07-6.58-2.44,7.05,9.22,3.29,16.4,13.46,1.81,2.57,2.84,6.73.16,9.19-6.13,5.63-26.93-13.33-38.73-14.43-4.84-.45-13.54,4.22-16.06,1.61-1.18-1.22-1.14-4.72-.07-6.24,6.33-9.02,18.15-4.15,16.92-26.87,4.67.12,8.85.21,13.5-.9.27,5.49-.49,10.81,2.53,15.28,4.71,6.99,19.25,4.17,30.35,6.47ZM289.5,519.35c-4.98,6.03-10.6,10.83-18.92,11.2-8.02.36-15.91-1.17-21.82-7.45,16.32-2.88,30.99-6.95,45.75-13.95-.98,4.14-3.32,6.79-5.01,10.2ZM281.23,508.44c-30.72,11.42-63.61,13.25-96,9.73-15.5-1.68-29.64-5.33-44.11-11.04-28.36-11.19-49.34-34.36-57.54-63.83-2.53-9.07-4.19-18.33-3.32-27.94.88-4.17,4.78-7.53,6.63-11.37,13.92-28.84,21.99-55.04,20.78-89.01l24.87,9.27c9.2,3.43,18.38,4.99,28.29,6.7,48.62,8.36,109.85,6.02,156.17-16.14.73,5.75.12,11.04.47,16.7,1.11,17.99,5.31,34.83,11.59,51.58,4.27,11.39,8.87,21.93,16.31,31.68,1.25,41.95-24.89,79.07-64.14,93.66ZM358.03,465.46c-.28,0-.5-.22-.5-.5s.22-.5.5-.5.5.22.5.5-.22.5-.5.5ZM378.9,418.46c-1.67,16.07-8.6,31.03-18.22,43.99-.12.93-.88,1.36-2.06.88-.26-.63.13-1.35.71-.95,3.51-8.09,6.44-16.37,7.36-25.74.2-2.01,1.11-3.99-.5-5.66-.67-.7-2.06-.75-2.86-.27-.69.41-1.82,1.1-1.98,2.64-1.54,14.62-6.62,28.32-16.48,39.46-4.31,4.87-10.21,7.39-16.34,9.58.61-2.59,2.31-4.08,3.87-6.02,6.99-8.75,11.38-18.6,14.79-29.2,3.46-10.77,3.78-21.48,4.62-32.68.43-5.74,2.36-11.02,1.58-17.12-1.1-8.62-2.53-16.86-4.55-25.37-4-16.84-6.38-33.47-5.7-50.77,26.38,26.79,39.54,60.88,35.76,97.24Z" fill="#0a0a0a"/></svg>