<?xml version="1.0" encoding="UTF-8"?><svg id="Layer_1" xmlns="http://www.w3.org/2000/svg" viewBox="0 0 425.2 623.62"><path d="M357.45,327.13c-2.73-3.4-5.22-6.67-8.39-9.61-2.53-2.35-4.39-5.04-6.01-8.07-2.25-4.22-7.25-5.3-4-7.97l2.69-2.21c6.16-5.06,11.19-10.66,15.87-17.05,10.72-14.64,17.06-31.02,17.79-49.29,1.29-32.47-8.42-63.86-27.62-90.06-.8-1.1-.95-1.62-.12-2.12.55-.33,1.13-.46,1.83-.83,8.31-4.37,15.92-9.78,21.72-17.09,5.14-6.47,10.23-14.77,10.07-23.26-.07-3.6-2.78-6.3-6.33-5.89-3.19.37-4.8,2.96-6.49,2.24-.44-.19-.76-.91.4-1.56.42-.23.8-.52,1.04-.93,7.92-13.52,12.72-27.75,10.83-43.87-.52-4.45-1.68-8.78-4.62-11.96-2.52-2.72-6.81-2.84-9.22,0-2.94,3.46-4.86,7.44-7.34,11.37-19.01,30.22-36.54,34.25-68.5,45.67-49.65-23.93-102.83-24.33-152.82-1.71-5.01,2.27-7.73-.07-16.53-2.78-21.06-6.48-41.02-18.5-52.91-37.44l-8.45-13.46c-1.55-2.46-3.99-3.57-6.73-3.33-2.4.21-4.45,2.03-5.65,4.74-7.15,16.22-.44,40.27,9.39,54.78,1.26,1.03-.1,1.8-.88.36-2.04-1.24-4.73-2.24-7.4-2.14-10.42.4-1.19,25.6,14.66,38.12,4.78,3.77,9.61,6.75,15.32,9.4-17,23.18-26.97,49.94-28.95,78.44-1.12,16.09,1.48,31.46,7.98,46.08,6.32,14.22,16.37,25.78,28.19,35.59.72.6,1.7,1.15,1.67,1.79-.02.51-.79,1.65-1.33,1.96-3.78,2.18-4.48,6.17-6.97,9.12l-13.73,16.27c-6.21,7.36-10.49,15.46-14.79,24.17-6.27,12.7-9.93,26-11.64,40.19-2.51,20.85,1.46,41.54,11.72,59.69,4.41,7.8,9.78,13.8,16.57,19.43,21.39,17.74,30.88,11.69,37.69,18.2,5.23,4.99,11.42,8.39,17.09,12.99,1.9,2.2,2.48,5.79,3.66,8.51,3.51,8.07,8.51,14.96,15.78,19.92,2.02,1.38,2.37,3.59,2.4,6.16.06,4.28-8.22,0-16.12,6.23-4.5,3.55-7.57.04-16.35,3.86-3.94,1.71-7.21,4.82-8.63,8.95-2.2,6.38,1.39,12.91,8.07,14.18,15.09,2.86,24.17-.5,41.25,8.04,3.94,1.97,8.41,3.24,11.64,6,.18.04.36.08.54.14,1.47.46,2.97.7,4.46.94,2.24-.24,4.47-.51,6.64-.94.18-.04.36-.05.54-.07,3.5-2.57,6.17-5.1,6.15-9.66-.02-4.06-1.09-8.5-4.01-11.35l-6.93-6.75c5.53-1.13,9.71-3.45,13.74-8.1.75,8.91,4.83,15.99,11.12,21.87,8.69,8.12,21.15,9.12,30.63,1.83,6.55-5.04,11.28-14.64,12.8-23.89,4.23,4.22,7.32,6.56,14.09,8.08-4.35,4-8.72,7.71-10.47,13.79-1.77,6.17,1.12,11.49,6.56,14.58h-.26c2.94,1.07,5.54.86,9.08-.17.95-.28,1.89-.54,2.83-.78.16-.09.34-.19.58-.29,6.69-3.37,12.69-7.1,19.54-8.91l1.55-.41,1.59-.45,1.57-.42c.58-.15,1.04-.3,1.61-.36l25.41-2.56c4.37-.44,7.81-3.58,9.13-7.22,1.41-3.85.42-8.35-2.6-11.39-5.13-5.16-11.87-6.6-19.18-6.92l-1.86-.08c-10.06-9.94-17.44-1.96-17.35-8.86.1-7.98,8.82-7.81,12.51-14.75l9.67-18.2c5.67-5.07,12.9-11.97,19.44-15.27,9.52-4.19,19.53-4.75,27.97-11.6,5.45-4.42,11.24-8.33,15.73-14.02,8.84-11.19,14.55-23.66,17.28-37.73,6.88-35.51-4.59-72.05-26.97-99.89ZM338.97,313.72c-17.82,3.55-28.61,12.59-43.24,24.68l-2.57-17.68c8.74-7.18,38.85-21.99,45.81-7.01ZM203.75,276.47c-6.16,2.89-9.8,8.44-11.7,14.62-2.49.37-4.42.85-7.41.28,2.01-17.24,18.82-28.12,35.62-24.12,11.85,2.82,20.06,12.47,20.52,23.97-2.11.06-5.59.49-7.12-1.19-3.99-13.85-19.08-18.64-29.91-13.57ZM227.17,290l-28.36.59c1.8-7.03,7.72-10.14,14.27-10.23,5.82.31,11.38,2.92,14.09,9.64ZM276.4,304.02c9.81,2.6,10.96,11.48,9.53,20.16-1.66,10.03-5.41,31.11-14.85,36.57-6.07,3.51-21.74,7.81-31.01,8.08-1.28-9.02-5.8-15.91-11.97-20.06-7.25-4.88-16.1-5.92-24.03-2.93-10.14,3.82-16.66,12.59-18.43,23.33-9.79-1.2-18.2-3.4-26.91-6.13-3.31-1.04-6.22-3.19-7.97-6.22-2.11-3.66-4.23-7.28-5.62-11.39-3.13-9.25-5.47-18.85-5.77-28.49-.19-6.16,3.58-10.62,8.97-12.36,7.23-2.35,14.4-3.43,21.95-4.81,33.36-6.12,73.31-4.43,106.13,4.26ZM244.05,421.76c-17.4,3.83-49.61,4.93-65.69-1.46-12.66-5.03-15.45-18.58-13.68-18.96,10.56-2.25,21.23-2.37,32.12-2.4,3.84,4.67,12.71,25.24,19.89,17.21,4.75-5.31,8.53-11.15,12.63-17.1,3.69-.57,7.25-.13,10.91.12,7.24.07,13.75.65,22.04,2.41-.81,10.26-8.31,18.01-18.22,20.19ZM265.39,412.62c1.76,13.9,1.12,27.51-1.82,41.71-.74,3.58-2.86,5.81-5.85,7.03-5.39,2.21-10.92,3.46-16.87,4.08-18.79,1.98-55.75,3.04-73.1-4.5-2.86-1.23-5.01-3.39-5.66-6.57-2.91-14.28-3.5-28.47-1.44-42.85,4.13,7.86,10.19,12.72,18.3,15.1,11.41,3.34,23.06,4.31,35.08,4.02,17.53-.25,41.92-.04,51.34-18.03ZM212.74,411.89c-8.16-10.29-14.7-21.33-19.34-33.65-2.62-6.96-1.49-14.38,3.2-20,5.39-7.18,14.32-9.68,22.87-7.04,6.04,1.87,10.7,6.01,12.81,12.05,7.94,11.09-11.2,39.06-19.54,48.64ZM162.84,370.6c7.66,2.29,15.14,3.52,22.94,5.13,1.23.25,1.09,2.73,1.37,3.59,1.59,5.04,4.21,9.05,6.17,14-10.54.39-20.35.28-30.44,2.01-3.47.6-6.21,2.46-6.91,6.17-3.39,17.92-3.25,36.08.14,54.04.84,4.46,3.33,7.82,7.2,9.81,6.31,3.25,13.07,4.74,20.14,5.68,18.7,2.46,61.63,3.35,78.29-4.89,4.12-2.04,6.82-5.6,7.75-10.19,3.65-18.1,3.74-36.35.59-54.48-.56-3.19-3.24-5.02-6.16-5.6-8.99-1.79-17.67-2.56-26.88-2.51-1.47,0-2.76.14-4.13-.92,2.11-4.13,4.07-7.82,5.68-12.27.38-1.04.21-4.12,1.7-4.43,9.7-2.08,30.94-5.42,37.44-12.49,6.2-6.74,8.52-14.87,11.76-24.09l2.2,18.67,6.42,81.65c.74,9.46-.5,18.31-2.72,27.2-1.26,5.04-4.55,8.9-9.37,11.02-13.94,6.14-28.48,9.24-43.77,10.36-18.97,1.39-37.36,1.38-56.32.07-14.21-.98-27.6-3.35-40.83-8.46-3.82-1.48-8.05-3.1-10.84-6.23-7.08-7.94-6.83-31.39-5.97-41.96l5.44-67.03c.71-8.72,1.37-16.76,2.83-25.21,4.92,15.21,9.98,28.11,26.29,31.36ZM363.81,53.45c2.52-4.02,4.39-7.9,7.49-12.15,2.35,1.39,2.84,4.2,3.21,6.88,2.9,20.6-7.65,45.63-23.53,58.18-.82.64-.81,2-.69,2.64.81,4.18,10.12.04,12.7-1.61l12.07-7.74c.23,6.03-2.78,10.96-5.97,15.92-6.17,9.61-15.52,16.07-25.94,20.92-8.47-10.11-17.27-19.45-28.12-26.76l-16.99-11.45c29.38-9.24,48.96-18,65.76-44.84ZM52.76,107.57c-1.11-2.67-2.2-5.23-.95-8.09,3.06,4.21,20.08,14.25,22.6,10.88.56-.75,1.08-2.5.25-3.48l-10.17-11.93c-9.59-11.26-18.28-39.58-9.91-53.77,3.29,4.5,4.9,8.38,7.44,12.41,11.3,17.95,27.52,31.02,47.35,38.61,5.77,2.21,11.29,3.48,17.49,6.24l-16.07,10.89c-6.78,4.6-22.46,19.18-27.77,26.69-12.97-4.89-24.96-15.69-30.25-28.46ZM75.11,281.4c-15.47-19-21.47-43.31-18.41-67.8,5.16-41.28,28.03-79.01,62.18-102.32,41.52-28.34,93.87-36.18,142.11-21.85,35.84,10.65,67.27,33.3,87.23,65.15,6.72,10.72,11.79,21.67,15.29,33.94,12.88,45.12,5.21,83.6-33.48,112.28l-11.65,1.36c-9.69,1.13-17.69,6.7-26.13,11.75-1.35-7.49-5.37-12.54-11.79-14.61-10.58-3.41-20.92-5.66-33.02-7-1.13-12.34-7.03-22.6-18.08-27.96-10.45-5.08-22.91-5.14-33.28.44-10.47,5.64-16.14,15.97-18.17,27.56-10.75,1.71-20.81,3.48-31.06,6.33-7.03,1.96-12.09,7.28-13.08,15.36-13.11-8.57-22.86-13.5-38.73-13.06-7.31-6.13-13.93-12.19-19.94-19.57ZM132.75,320.43c-.83,5.92-.96,11.34-2.58,17.56-13.38-11.35-25.66-20.67-43.11-24.64,7.18-15.25,36.41.21,45.69,7.07ZM88.5,479.3c-13.98-7.54-23.28-30.66-24.54-45.6-.16-1.89-1.85-3.26-3.26-3.07-6.75.92,2.1,24.43,3.54,28.94.6,1.87,2.56,2.88,2.62,5.03-1.77-1.17-3.02-2.53-3.81-4.19-33.18-43.39-16.43-105.46,21.18-140.8,2.07-1.6,5.52.62,7.45,1.21,12.59,3.87,28.58,14.97,37.6,24.99l-4.29,42.33c-4.43,1.18-8.5,1.82-11.72,4.7-6.96,6.22-8.19,30.92-9.02,41-4.72-.91-23.78-7.43-23.89-10.5-.49-14.44,1.3-28.51,4.69-42.53.85-3.51,4.14-13.07-.45-13.13-.75-.01-2.44.33-2.79,1.61-4.53,16.53-8.26,33.87-7.33,51.21.6,11.07-3.54,11.32,3.55,28.11,5.7,13.51,8.49,20.99,17.65,32.84-2.76.7-4.89-.91-7.2-2.15ZM123.3,463.82c-4.74-1.27-7.26-4.22-10.46-7.51-5.09-10.86-1.52-50.11,4.01-58.01,1.74-2.48,4.88-3.64,7.83-3.73l-2.52,34.99c-.83,11.5-.43,22.35,1.14,34.26ZM105.66,453.69c-7.26-1.28-21.82-5.51-24.68-12.82-1.25-3.19-1.83-6.45-1.4-9.99,7.36,3.75,14.61,6.65,22.83,8.08,3.32.58,1.76,8.35,3.25,14.73ZM86.75,453.6c4.91,1.62,8.6,4.13,13.53,4.74l7.38,2.5c-4.77-1.61,18.58,11.39,19.19,13.09,2.25,6.28,13.25,11.07,20.16,13l20.46,5.71-8.7,19.69c-.57,1.3-3.22-.17-4.13-.45-9.3-2.89-18.18-6.2-26.64-11.04-18.71-10.7-33.3-26.52-41.25-47.25ZM131.86,509.87l15.83,6.16c2.8,1.09,5.56,1.29,8.62,2.81-1.42,3.67-2.13,7.08-3.29,10.73-.77,2.43-4.02.65-5.48-.23-7.62-4.58-13.31-10.95-15.67-19.47ZM174.46,580.84c-2.71,1.61-5.74,1.04-8.41-.19l-14.96-6.9c-7.9-3.64-16.3-4.58-24.98-5.45l-10.47-1.05c-2.06-.21-4.31-.36-5.48-1.59-2.51-2.62-1.23-6.48,1.32-8.73,3.68-3.25,8.73-4.52,13.58-3.25l12.32,3.22c1.21.32,1.8.04,2.27-.35.97-.8.9-2.4-.11-3.49-1.54-1.66-3.25-2.36-5.29-3.8,3-1.62,6.83-2.73,10.04-.86,1.63,2.01-.72,6.99,3.31,7.24,1.39.09,2.65-1.17,2.64-3.04l-.11-17.03c3.43,1.28.68,3.07,3.06,11.89,1.57,5.82,6.4,9.48,11.87,11.05,1.01,2.78,2.01,5.68,4.53,7.51,4.05,2.96,10.79,11.28,4.88,14.8ZM248.75,550.89c-3.01-2.26-7.24-5.88-7.98-9.96-2.26-12.62-3.26-25.01-6.62-37.42-.51-1.88-1.86-2.71-3.5-2.55-1.38.14-2.59,1.63-2.23,3.59l3.38,18.47c1.49,8.16,2.87,16.13,2.47,24.6-.54,11.62-9.02,26.53-21.19,26.29-13.88-.28-22.28-16.59-21.76-29.3.29-7.12,1.17-13.96,2.54-21.03l3.72-19.14c.37-1.88-.85-3.52-2.21-3.82-1.59-.35-3.36.39-3.76,2.32l-3.77,18.37c-1.09,5.29-1.69,10.32-2.22,15.72-.67,6.84-4.72,13.29-11.64,15.25-4.29,1.22-9.74.41-12.79-2.78-6.98-7.3-.57-24.94,2.74-33.08,2.91-7.16,5.3-14.11,8.87-20.93.66-1.26,1.71-2.09,3.32-1.88,15.47,1.96,54.46,1.53,70.56.45,1.78-.12,3.2-.74,5.4-.36,6.12,12.29,11.22,24.8,14.64,38.24,1.22,4.8,1.48,9.57.04,14.27-2.53,8.27-14.15,7.58-18.01,4.67ZM284.11,547.48c2.96.51,5.63.54,8.06,1.64-3.08,1.64-6.2,2.29-6.73,5.62-.25,1.58,2.18,2.46,3.64,2.07l12.07-3.18c5.88-1.55,12.16,1.1,15.42,6.22.88,1.38.51,3.47.11,4.74-1.78,5.65-25.07.95-44.46,10.28l-13.53,6.51c-2.92,1.41-7.41.69-9.03-2.49-3.52-6.96,7.65-13.56,9.45-16.11.92-1.3.73-3.88,2.57-4.5,7.14-2.41,11.54-8.17,12.2-15.75.21-2.47-.98-5.48,1.67-7.63,1.59,4.43-1.4,17.84,1.55,20.21.78.62,2.58,1,3.34-.24,1.23-2.02.27-7.96,3.68-7.38ZM273.65,530.44c-.59.09-1.05-.88-1.37-1.93l-2.9-9.6c8.55-2.87,16.43-5.5,25.13-9.52-2.08,9.69-11.95,19.72-20.86,21.06ZM308.56,494.15l-11.52,7.54c-9.11,4.57-17.83,8.24-29.26,11.49-4-6.52-5.84-13.68-9.18-20.63,14.4-4.52,36.08-6.71,42.06-21.17,6.71-2.34,12.62-5.43,16.97-11.38,7.27-.47,13.23-3.04,21.32-5.74-3.82,12.45-20,33.09-30.39,39.88ZM301.21,394.62c4.4-.61,8.22,2,9.53,6.36,2.64,8.73,3.72,17.43,4.52,26.63,1,11.57,2.46,32.82-12.54,36.21,3.4-24.16.16-45.47-1.51-69.19ZM320.55,453.82l1.09-12.32c.14-1.62,1.73-2.26,3.04-2.48,7.9-1.37,14.74-4.32,21.73-8.79,1.76,17.5-11.01,19.54-25.86,23.59ZM359.42,464.94c-1.1.86-1.58.38-.72-.72,1.1-.86,1.58-.38.72.72ZM371.67,446.14l-6.16,10.83c-.78,1.36-2.3,1.68-3.39,1.58l-.03,3.08c-.01,1.06-1,1.22-1.52.95-1.69-.87.81-3.22,1.55-4.04.72-3.79,10.3-29.63,2.51-27.97-1.06.23-2.43,1.49-2.61,3.07-1.58,13.73-6.6,26.03-14.79,36.98-4.27,5.71-9.64,10.44-17.6,11.08,5.46-7.83,10.79-14.7,14.09-23.23,1.69-4.39,3.44-8.38,5.5-12.63,5.21-10.76,2.17-17.25,2.39-25.33.49-17.47-2.52-34.35-7.69-50.86-.57-1.8-2.74-2.07-3.91-1.56-1.52.66-1.71,2.06-1.2,3.92,4.7,17.14,7.43,34.44,7.03,52.21-7.55,4.68-15.27,7.67-24.02,9.6-1.26-11.13-1.55-36.92-11.08-42.8-2.99-1.85-6.31-1.98-10-3.65l-4.19-40.79c-.2-1.96,2.07-3.33,3.23-4.25,11.95-9.47,24.01-19.25,39.29-22.74,2.28-.52,3.78.28,5.17,1.84,5.92,6.65,11.68,13.07,16.29,20.75,4.22,7.02,8.41,13.81,11.38,21.6,9.18,24.07,12.25,60.39-.25,82.38Z" fill="#0a0a0a"/><path d="M247.45,292.3c-1.13-12.34-7.03-22.6-18.08-27.96-10.45-5.08-22.91-5.14-33.28.44-10.47,5.64-16.14,15.97-18.17,27.56-10.75,1.71-20.81,3.48-31.06,6.33-7.03,1.96-12.09,7.28-13.08,15.36-13.11-8.57-22.86-13.5-38.73-13.06-7.31-6.13-13.93-12.19-19.94-19.57-15.47-19-21.47-43.31-18.41-67.8,5.16-41.28,28.03-79.01,62.18-102.32,41.52-28.34,93.87-36.18,142.11-21.85,35.84,10.65,67.27,33.3,87.23,65.15,6.72,10.72,11.79,21.67,15.29,33.94,12.88,45.12,5.21,83.6-33.48,112.28l-11.65,1.36c-9.69,1.13-17.69,6.7-26.13,11.75-1.35-7.49-5.37-12.54-11.79-14.61-10.58-3.41-20.92-5.66-33.02-7Z" fill="#fdfdfd"/><path d="M375.06,99.66c.23,6.03-2.78,10.96-5.97,15.92-6.17,9.61-15.52,16.07-25.94,20.92-8.48-10.11-17.27-19.45-28.12-26.76l-16.99-11.45c29.38-9.24,48.96-18,65.76-44.84,2.52-4.02,4.39-7.9,7.49-12.15,2.35,1.39,2.84,4.2,3.21,6.88,2.9,20.6-7.65,45.63-23.53,58.18-.82.64-.81,2-.69,2.64.81,4.18,10.12.04,12.7-1.61l12.07-7.74Z" fill="#fbfbfb"/><path d="M83.01,136.02c-12.97-4.89-24.96-15.69-30.25-28.46-1.11-2.67-2.2-5.23-.95-8.09,3.06,4.21,20.08,14.25,22.6,10.88.56-.75,1.08-2.5.25-3.48l-10.17-11.93c-9.59-11.26-18.28-39.58-9.91-53.77,3.29,4.5,4.9,8.38,7.44,12.41,11.3,17.95,27.52,31.02,47.35,38.61,5.76,2.21,11.29,3.48,17.49,6.24l-16.07,10.89c-6.78,4.6-22.46,19.18-27.77,26.69Z" fill="#fafafa"/><path d="M237.03,393.37c-1.47,0-2.76.14-4.13-.92,2.11-4.13,4.07-7.82,5.68-12.27.38-1.04.21-4.12,1.7-4.43,9.7-2.08,30.94-5.42,37.44-12.49,6.2-6.74,8.52-14.87,11.76-24.09l2.2,18.67,6.42,81.65c.74,9.46-.5,18.31-2.72,27.2-1.26,5.04-4.55,8.9-9.37,11.02-13.94,6.14-28.48,9.24-43.77,10.36-18.97,1.39-37.36,1.38-56.32.07-14.21-.98-27.6-3.35-40.83-8.46-3.82-1.48-8.05-3.1-10.84-6.23-7.08-7.94-6.83-31.39-5.97-41.96l5.44-67.03c.71-8.72,1.37-16.76,2.83-25.21,4.92,15.21,9.98,28.11,26.29,31.36,7.66,2.29,15.14,3.52,22.94,5.13,1.23.25,1.09,2.73,1.37,3.59,1.59,5.04,4.21,9.05,6.17,14-10.54.39-20.35.28-30.44,2.01-3.47.6-6.21,2.46-6.91,6.17-3.39,17.92-3.25,36.08.14,54.04.84,4.46,3.33,7.82,7.2,9.81,6.31,3.25,13.07,4.74,20.14,5.68,18.7,2.46,61.63,3.35,78.29-4.89,4.12-2.04,6.82-5.6,7.75-10.19,3.65-18.1,3.74-36.35.59-54.48-.56-3.19-3.24-5.02-6.16-5.6-8.99-1.79-17.67-2.56-26.88-2.51Z" fill="#fbfbfb"/><path d="M240.07,368.83c-1.28-9.02-5.8-15.91-11.97-20.06-7.25-4.88-16.1-5.92-24.03-2.93-10.14,3.82-16.66,12.59-18.43,23.33-9.79-1.2-18.2-3.4-26.91-6.13-3.31-1.04-6.22-3.19-7.97-6.22-2.11-3.66-4.23-7.28-5.62-11.39-3.13-9.25-5.47-18.85-5.77-28.49-.19-6.16,3.58-10.62,8.97-12.36,7.23-2.35,14.4-3.43,21.95-4.81,33.36-6.12,73.31-4.43,106.13,4.26,9.81,2.6,10.96,11.48,9.53,20.16-1.66,10.03-5.41,31.11-14.85,36.57-6.07,3.51-21.74,7.81-31.01,8.08Z" fill="#fcfcfc"/><path d="M64.24,459.58c-.25.46-.67.79-1.19.83-33.18-43.39-16.43-105.46,21.18-140.8,2.07-1.6,5.52.62,7.45,1.21,12.59,3.87,28.58,14.97,37.6,24.99l-4.29,42.33c-4.43,1.18-8.5,1.82-11.72,4.7-6.96,6.22-8.19,30.92-9.02,41-4.72-.91-23.78-7.43-23.89-10.5-.49-14.44,1.3-28.51,4.69-42.53.85-3.51,4.14-13.07-.45-13.13-.75-.01-2.44.33-2.79,1.61-4.53,16.52-8.26,33.87-7.33,51.21.6,11.07-3.54,11.32,3.55,28.11,5.7,13.51,8.49,20.99,17.65,32.84-2.76.7-4.89-.91-7.2-2.15-13.98-7.54-23.28-30.66-24.54-45.6-.16-1.89-1.85-3.26-3.26-3.07-6.75.92,2.1,24.43,3.54,28.94Z" fill="#fbfbfb"/><path d="M362.12,458.55c.72-3.79,10.3-29.63,2.51-27.97-1.06.23-2.43,1.49-2.61,3.07-1.58,13.73-6.6,26.03-14.79,36.98-4.27,5.71-9.64,10.44-17.6,11.08,5.46-7.83,10.79-14.7,14.09-23.23,1.69-4.39,3.44-8.38,5.5-12.63,5.21-10.76,2.17-17.25,2.39-25.33.49-17.47-2.52-34.35-7.69-50.86-.57-1.8-2.74-2.07-3.91-1.56-1.52.66-1.71,2.06-1.2,3.92,4.7,17.14,7.43,34.44,7.03,52.21-7.55,4.68-15.27,7.67-24.02,9.6-1.26-11.13-1.55-36.92-11.08-42.8-2.99-1.85-6.31-1.98-10-3.65l-4.19-40.79c-.2-1.96,2.07-3.33,3.23-4.25,11.95-9.47,24.01-19.25,39.29-22.74,2.28-.52,3.78.28,5.17,1.84,5.92,6.65,11.68,13.07,16.29,20.75,4.22,7.02,8.41,13.81,11.38,21.6,9.18,24.07,12.25,60.39-.25,82.38l-6.16,10.83c-.78,1.36-2.3,1.68-3.39,1.58Z" fill="#fbfbfb"/><path d="M234.28,547.62c-.54,11.62-9.02,26.53-21.19,26.29-13.88-.28-22.28-16.59-21.76-29.3.29-7.12,1.17-13.96,2.54-21.03l3.72-19.14c.37-1.88-.85-3.52-2.21-3.82-1.59-.35-3.36.39-3.76,2.32l-3.77,18.37c-1.09,5.29-1.69,10.32-2.22,15.72-.67,6.84-4.72,13.29-11.64,15.25-4.29,1.22-9.74.41-12.79-2.78-6.98-7.3-.57-24.94,2.74-33.08,2.91-7.16,5.3-14.11,8.87-20.93.66-1.26,1.71-2.09,3.32-1.88,15.47,1.96,54.46,1.53,70.56.45,1.78-.12,3.2-.74,5.4-.36,6.12,12.29,11.22,24.8,14.64,38.24,1.22,4.8,1.48,9.57.04,14.27-2.53,8.27-14.15,7.58-18.01,4.67-3.01-2.26-7.24-5.88-7.98-9.96-2.26-12.62-3.26-25.01-6.62-37.42-.51-1.88-1.86-2.71-3.5-2.55-1.38.14-2.59,1.63-2.23,3.59l3.38,18.47c1.49,8.16,2.87,16.13,2.47,24.6Z" fill="#fbfbfb"/><path d="M263.57,454.33c-.74,3.58-2.86,5.81-5.85,7.03-5.39,2.21-10.92,3.46-16.87,4.08-18.79,1.98-55.75,3.04-73.1-4.5-2.86-1.23-5.01-3.39-5.66-6.57-2.91-14.28-3.5-28.47-1.44-42.85,4.13,7.86,10.19,12.72,18.3,15.1,11.41,3.34,23.06,4.31,35.08,4.02,17.53-.25,41.92-.04,51.34-18.03,1.76,13.9,1.12,27.51-1.82,41.71Z" fill="#fcfcfc"/><path d="M262.28,401.57c-.81,10.26-8.31,18.01-18.22,20.19-17.4,3.83-49.61,4.93-65.69-1.46-12.66-5.03-15.45-18.58-13.68-18.96,10.56-2.25,21.23-2.37,32.12-2.4,3.84,4.67,12.71,25.24,19.89,17.21,4.75-5.31,8.53-11.15,12.63-17.1,3.69-.57,7.25-.13,10.91.12,7.24.07,13.75.65,22.04,2.41Z" fill="#f9f9f9"/><path d="M267.78,513.18c-4-6.52-5.84-13.68-9.18-20.63,14.4-4.52,36.08-6.71,42.06-21.17,6.71-2.34,12.62-5.43,16.97-11.38,7.27-.47,13.23-3.04,21.32-5.74-3.82,12.45-20,33.09-30.39,39.88l-11.52,7.54c-9.11,4.57-17.83,8.24-29.26,11.49Z" fill="#fafafa"/><path d="M147.01,486.94l20.46,5.71-8.7,19.69c-.57,1.3-3.22-.17-4.13-.45-9.3-2.89-18.18-6.2-26.64-11.04-18.71-10.7-33.3-26.52-41.25-47.25,4.91,1.62,8.6,4.13,13.53,4.74l7.38,2.5c-4.77-1.61,18.58,11.39,19.19,13.09,2.25,6.28,13.25,11.07,20.16,13Z" fill="#fafafa"/><path d="M232.28,363.25c7.94,11.09-11.2,39.06-19.54,48.64-8.15-10.29-14.7-21.33-19.34-33.65-2.62-6.96-1.49-14.38,3.2-20,5.39-7.18,14.32-9.68,22.87-7.04,6.04,1.87,10.7,6.01,12.81,12.05ZM219.77,382.51c4.2-2.39,6.05-7.32,6.11-11.41.06-4.18-2.11-8.55-5.81-11.41-4.19-3.24-9.98-2.78-14.22-.02-3.95,2.57-6.3,7.55-5.64,12.84.59,4.75,3.13,8.34,6.39,10.15,4.06,2.26,8.66,2.41,13.17-.15Z" fill="#f7f7f7"/><path d="M316.66,564.59c-1.78,5.65-25.07.95-44.46,10.28l-13.53,6.51c-2.92,1.41-7.41.69-9.03-2.49-3.52-6.96,7.65-13.56,9.45-16.11.92-1.3.73-3.88,2.57-4.5,7.14-2.41,11.54-8.17,12.2-15.75.22-2.47-.98-5.48,1.67-7.63,1.59,4.43-1.4,17.84,1.55,20.21.78.62,2.58,1,3.34-.24,1.23-2.02.27-7.96,3.68-7.38,2.96.51,5.63.54,8.06,1.64-3.08,1.64-6.2,2.29-6.73,5.62-.25,1.58,2.18,2.46,3.64,2.07l12.07-3.18c5.88-1.55,12.16,1.1,15.42,6.22.88,1.38.51,3.47.11,4.74Z" fill="#f7f7f7"/><path d="M115.64,567.26c-2.06-.21-4.31-.36-5.48-1.59-2.51-2.62-1.23-6.48,1.31-8.73,3.68-3.25,8.73-4.52,13.58-3.25l12.32,3.22c1.21.32,1.8.04,2.27-.35.97-.8.9-2.4-.11-3.49-1.54-1.66-3.25-2.36-5.29-3.8,3-1.62,6.83-2.73,10.04-.86,1.63,2.01-.72,6.99,3.31,7.24,1.39.09,2.65-1.17,2.64-3.04l-.11-17.03c3.43,1.28.68,3.07,3.06,11.89,1.57,5.82,6.4,9.48,11.87,11.05,1.01,2.78,2.01,5.68,4.53,7.51,4.05,2.96,10.79,11.28,4.88,14.8-2.71,1.61-5.74,1.04-8.41-.19l-14.96-6.9c-7.9-3.64-16.3-4.58-24.98-5.45l-10.47-1.05Z" fill="#f6f6f6"/><path d="M315.26,427.61c1,11.57,2.46,32.82-12.54,36.21,3.4-24.16.16-45.47-1.51-69.19,4.4-.61,8.22,2,9.53,6.36,2.64,8.73,3.72,17.43,4.52,26.63Z" fill="#f6f6f6"/><path d="M112.83,456.31c-5.09-10.86-1.52-50.11,4.01-58.01,1.74-2.48,4.88-3.64,7.83-3.73l-2.52,34.99c-.83,11.5-.43,22.35,1.14,34.26-4.74-1.27-7.26-4.22-10.46-7.51Z" fill="#f6f6f6"/><path d="M130.17,338c-13.38-11.35-25.66-20.67-43.11-24.64,7.18-15.25,36.41.21,45.69,7.07-.83,5.92-.96,11.34-2.58,17.56Z" fill="#f6f6f6"/><path d="M338.97,313.72c-17.82,3.55-28.61,12.59-43.24,24.68l-2.57-17.68c8.74-7.18,38.85-21.99,45.81-7.01Z" fill="#f7f7f7"/><path d="M233.66,290.04c-3.99-13.85-19.08-18.64-29.91-13.57-6.16,2.89-9.8,8.44-11.7,14.62-2.49.37-4.42.85-7.41.28,2.01-17.24,18.82-28.12,35.62-24.12,11.85,2.82,20.06,12.47,20.52,23.97-2.11.06-5.59.49-7.12-1.19Z" fill="#f5f5f5"/><path d="M105.66,453.69c-7.26-1.28-21.82-5.51-24.68-12.82-1.25-3.19-1.83-6.45-1.4-9.99,7.36,3.75,14.61,6.65,22.83,8.08,3.32.58,1.76,8.35,3.25,14.73Z" fill="#f5f5f5"/><path d="M320.55,453.82l1.09-12.32c.14-1.62,1.73-2.26,3.04-2.48,7.9-1.37,14.74-4.32,21.74-8.79,1.76,17.5-11.01,19.54-25.86,23.59Z" fill="#f6f6f6"/><path d="M294.5,509.38c-2.08,9.69-11.95,19.72-20.86,21.06-.59.09-1.05-.88-1.37-1.93l-2.9-9.6c8.55-2.87,16.43-5.5,25.13-9.52Z" fill="#f4f4f4"/><path d="M153.01,529.57c-.77,2.43-4.02.65-5.48-.23-7.62-4.58-13.31-10.95-15.67-19.47l15.83,6.16c2.8,1.09,5.56,1.29,8.62,2.81-1.42,3.67-2.13,7.08-3.29,10.73Z" fill="#f4f4f4"/><path d="M227.17,290l-28.36.59c1.8-7.03,7.72-10.14,14.27-10.23,5.82.31,11.38,2.92,14.09,9.64Z" fill="#f4f4f4"/><path d="M362.12,458.55l-.03,3.08c-.01,1.06-1,1.22-1.52.95-1.69-.87.81-3.22,1.55-4.04Z" fill="#e7e7e7"/><path d="M63.05,460.41c.52-.04.95-.38,1.19-.83.6,1.87,2.56,2.88,2.62,5.03-1.77-1.17-3.02-2.53-3.81-4.19Z" fill="#e7e7e7"/><path d="M359.42,464.94c-1.1.86-1.58.38-.72-.72,1.1-.86,1.58-.38.72.72Z" fill="#e7e7e7"/><path d="M219.77,382.51c-4.51,2.56-9.11,2.41-13.17.15-3.26-1.82-5.8-5.41-6.39-10.15-.66-5.29,1.69-10.28,5.64-12.84,4.24-2.75,10.03-3.22,14.22.02,3.7,2.86,5.87,7.23,5.81,11.41-.06,4.09-1.92,9.02-6.11,11.41Z" fill="#040404"/></svg>