<?xml version="1.0" encoding="UTF-8"?><svg id="Layer_1" xmlns="http://www.w3.org/2000/svg" viewBox="0 0 311.81 311.81"><circle cx="280.71" cy="97.77" r="5.05" fill="#ef842a"/><path d="M38.53,97.94c-19.73,37.38-19.69,81.06,1.62,118.4l4.74,8.31c.7,1.23,1.61,1.9,2.69,2.14.18.81.1,2.07.93,2.63.61.4,1.48.44,2.1.59.41,5.1,22.83,25.23,27.94,26.02.49,1.04,1.37,1.8,2.03,2.73,3.1,4.35,19.87,11.55,26.6,13.57,4.14,1.24,16.75,5.69,19.39,4.24.29-.07.69.14,1,.13-.4,3.32,29.28,2.15,31.72,1.82,19.12-2.54,29.23-5.65,46.26-14.6,2.88-1.51,8.95-4.97,9.94-7.16.36-.79,1.18-1.19,2.12-1.87,9.34-6.75,17.66-14.33,24.31-23.25.63-.85,1.82-1.49,1.48-2.98.42-.43.94-.99,1.11-1.61,1.23-.18,2.04-1.01,2.94-2.33,26.13-38.43,27.52-86.37,6.65-126.89-.17-.46.23-1.16.39-1.6,1.15-.03,2.18-1.11,3.19-1.51.47-.19,1.38-.47,1.77-.02,19.71,35.93,20.83,82.11,1.91,119.18-2.92,5.71-12.38,20.45-16.18,24.73-13.82,15.53-26.83,25.4-45.7,34.31-16.56,7.82-39.61,12.57-58.01,11.4-20.43-1.3-40.05-6.14-57.77-16.42-5.43-3.15-10.13-6.59-15.31-9.98-7.55-4.93-21.72-19.69-26.98-27.78-3.9-5.99-7.87-11.55-10.96-18.09-11.69-24.75-15.23-48.73-11.45-76.09,2.71-19.62,14.01-42.46,13.82-40.96.07-.55,1.22-.87,1.58-1.18,2.19.24,4.14,1.83,4.11,4.12Z" fill="#7e431b"/><path d="M293.7,65.09c-2.38,6.57-6.37,23.28-10.65,23.09-1.44-.06-2.66-1.39-2.72-3.25-.03-.9.63-17.32.55-16.87l1.33-7.82c.4-2.36,1.98-4.24,3.47-4.83,2.01-.79,4.85-.57,6.48,1.14,2.14,2.22,2.6,5.62,1.54,8.54Z" fill="#ef842a"/><path d="M206.6,238.95l7,17.87c-1.29,2.01-3.97,2.51-5.88,4.22-5.81,5.19-14.24,6.8-19.56,9.48-4.79,2.41-20.62,5.15-26.63,6.3-3.57.68-7.29-.63-10.71.36s-6.08.15-9.49-.02l-9.59-.47c-1.65-.08-3.02-.75-4.17.02-.31.01-.71-.2-1-.13-.34-.89-1.47-.75-2.57-1.02l-13.81-3.33c-4.73-1.14-16.8-6.1-21.21-8.76-.92-.56-6.8-4.79-8.41-4.7-.66-.92-1.54-1.68-2.03-2.73l6.98-17.13c1.35-.21,2.82.04,4.44.59,33.15,11.15,77.4,11.27,110.74.5,2.13-.97,4.02-1.42,5.89-1.04Z" fill="#f6eed7"/><path d="M28.47,76.87c.05.32-.13.72-.04,1.03,3.9,13.39,23.49,23.73,35.15,25.1-.92.37-2.91.39-2.87,1.59.77.92,1.87.93,1.93,1.69-2.95.11-5.88-1.65-9.03-1.79-2.69-.12-3.01,3.17-4.01,4.49-8.61,11.35-13.57,25.45-16.13,39.83-1.7,9.55-.67,17.74,1.49,26.27,2.99,11.78,8.76,22.62,18.47,31.01,5.24,4.52,10.68,8.81,16.89,12.12,24.48,13.03,54.92,18.06,82.43,17.15,21.08-.69,41.02-4.68,60.41-12.84,9.11-3.83,16.61-9.39,24.27-14.77-.22,3.4-1.78,2.29-1.9,6.14-.02.76-.54,1.45-.86,2.1-1.48.06-2.12,1.53-2.16,2.88-.72-.42-2.11-1.32-3.28-.59-8.68,5.37-17.57,9.22-26.61,12.86l-15.69,4.21c-26.43,7.09-54.41,6.96-80.9.04l-16.5-4.31c-10.96-4.32-17.2-7.18-27.98-13.27-2.49,1.06-3.27,3.46-4.74,5.09-3.27,3.63-3.78,5.09-6.19,7.1-.62-.15-1.49-.19-2.1-.59-.84-.55-.75-1.81-.93-2.63,1.59-.36,2.37-1.87,3.45-3.38,2.72-3.8,8.87-7.56,5.77-9.72-8.65-6.03-8.29-6.28-15.03-14.02-20.85-27.33-14.59-65.54,3.45-92.19,1.3-1.92,2.94-3.38,2.39-5.57-.17-.69-.52-.82-1.2-.92s-1.39-.47-1.78-1.01c-.74-1-1.85-1.79-3.14-1.94-.98-.11-1.99.11-2.97-.1.03-2.29-1.92-3.88-4.11-4.12,1.17.17-4.47-9.43-3.77-8.92-4.42-3.2-7.34-13.31-3.71-11.64.2,1.32.47,2.71,1.53,3.61Z" fill="#6a3610"/><path d="M241.93,231.64c-6.65,8.92-14.97,16.51-24.31,23.25-.94.68-1.77,1.08-2.12,1.87-.51-.09-1.48-.29-1.9.06l-7-17.87c-.11-.29.07-.69.02-1.01,11.26-3.27,18.85-9.92,28.81-14.74,1-.01,7.54,7.79,6.51,8.43Z" fill="#f1ba3d"/><path d="M85.51,237.93c-.04.3.1.69.02.98l-6.98,17.13c-5.11-.8-27.53-20.92-27.94-26.02,2.41-2.01,2.92-3.47,6.19-7.1,10.52,6.71,16.66,10.7,28.71,15.02Z" fill="#f1ba3d"/><path d="M215.5,256.76c-.98,2.19-7.05,5.65-9.94,7.16-17.04,8.95-27.14,12.06-46.26,14.6-2.44.32-32.12,1.5-31.72-1.82,1.14-.77,2.52-.1,4.17-.02l9.59.47c3.41.17,6.13.98,9.49.02s7.14.32,10.71-.36c6.01-1.15,21.85-3.89,26.63-6.3,5.32-2.68,13.75-4.29,19.56-9.48,1.91-1.71,4.59-2.2,5.88-4.22.41-.35,1.39-.15,1.9-.06Z" fill="#6b3711"/><path d="M248.86,95.92c1.86.18,3.77.35,5.64.3-.16.44-.56,1.14-.39,1.6-2.24-.13-5.85,2.73-9.82,4.38l10.1,18.65c2.74,5.07,4.46,10.5,6.12,16.01,2.49,8.29,3.18,16.42,3.19,25.01.02,10.2-2.38,19.29-7.15,28.08-2.27,4.18-4.27,7.98-7.42,11.56-1.6,1.82-2.59,3.9-4.66,5.52-3.08,2.42-5.47,5.52-8.94,6.87.12-3.85,1.68-2.74,1.9-6.14.39-.28.82-.73,1.24-.93,7.78,1.7,18.4-19.07,17.02-23.97-.06-.2-.05-.6.03-.8,1.34,1.93,5.39-10.55,5.5-11.31.97-6.22.02-12.46.38-18.84.15-2.66-1.09-4.82-1.43-7.17-2.69-18.77-12.12-29.19-13.02-32.66-2.29-8.77-6.02-7.21-5.17-9.55.97-2.66,4.51-2.33,4.73-5.57.67-.11,1.25-1.14,2.16-1.05Z" fill="#693714"/><path d="M243.4,228.66c.34,1.49-.84,2.13-1.48,2.98,1.03-.64-5.51-8.45-6.51-8.43l-1.77-3.19c5.42-1.38,7.56,7.78,9.76,8.65Z" fill="#6a3610"/><path d="M126.57,276.57c-2.64,1.45-15.25-3-19.39-4.24-6.73-2.02-23.5-9.22-26.6-13.57,1.61-.09,7.49,4.14,8.41,4.7,4.41,2.66,16.47,7.62,21.21,8.76l13.81,3.33c1.1.26,2.23.12,2.57,1.02Z" fill="#6b3711"/><path d="M234.65,216.01c3.93,3.06,6.78,7.15,9.86,11.03-.17.63-.69,1.19-1.11,1.61-2.2-.86-4.34-10.03-9.76-8.65-.55.14-1.67-.44-1.15-1.12.04-1.36.68-2.82,2.16-2.88Z" fill="#693714"/><path d="M202.61,231.16c.91,2.48,1.46,5.57,4.01,6.78.05.31-.13.72-.02,1.01-1.87-.38-3.76.08-5.89,1.04-33.34,10.76-77.58,10.65-110.74-.5-1.62-.54-3.09-.79-4.44-.59.08-.28-.06-.67-.02-.98,2.52-1.25,3.09-4.35,4.01-6.83l16.5,4.31c26.49,6.92,54.47,7.05,80.9-.04l15.69-4.21Z" fill="#d8c19d"/><path d="M66.43,114.03c-22.32,15.34-29.19,45.16-14.38,68.54.76,1.2,1.37,2.1,1.59,3.17s.9,1.91,1.92,2.25l.9.96c.17,2.16,1.89,3.87,4.03,4.08.26.27.72.59.85.94.87,4.73,23.25,12.86,28.21,12.91l9.06.09c1.53.02,2.77-.81,4.14-.86,8.51-.32,18.8-7.14,25.3-11.63,1.06,2.37,1.23,3.79,2.65,4.42.36.16.49.75.76,1-.8,4.4,9.76,15.02,12.49,16.52,2.68,1.48,5.55.47,7.54-1.57,4.22-4.33,11.49-15.72,13.16-21.03,23.06,17.45,54.69,15.63,73.13-7.86,17.38-22.15,11.79-55.15-11.49-71.46-.51-.65.09-.73.81-.86,5.58-1.01,10.52-2.88,15.38-4.8,12.49,17.9,21.52,44.37,15.16,65.86-1.04-1-4.51,6.73-5.33,7.96-4.46,6.72-9.66,12.95-16.14,17.83-7.47,5.62-15.09,10.64-23.7,14.19-38.36,15.77-81.72,16.77-120.97,4.37-20.96-6.62-37.54-16.71-50.48-34.56-2.04-2.82-4.09-9.52-6.06-9.41-2.17-8.53-3.19-16.72-1.49-26.27,2.56-14.38,7.52-28.48,16.13-39.83,4.24,2.25,13.97,3.19,16.84,5.04Z" fill="#f1ba3d"/><path d="M257.63,174.71c-.71,2.4-.9,5.01-1.92,7.36-.08.19-.09.59-.03.8-1.02-.4-1,.73-1.38,1.68-4.32,10.67-9.1,14.45-15.64,22.3-.43.2-.85.66-1.24.93-7.66,5.39-15.16,10.94-24.27,14.77-19.39,8.16-39.33,12.14-60.41,12.84-27.51.9-57.94-4.13-82.43-17.15-6.22-3.31-11.66-7.6-16.89-12.12-9.72-8.4-15.48-19.23-18.47-31.01,1.97-.1,4.02,6.6,6.06,9.41,12.94,17.85,29.51,27.94,50.48,34.56,39.25,12.4,82.61,11.4,120.97-4.37,8.61-3.54,16.23-8.56,23.7-14.19,6.49-4.88,11.68-11.11,16.14-17.83.82-1.24,4.29-8.96,5.33-7.96Z" fill="#d29235"/><path d="M232.5,218.89c-.52.68.61,1.25,1.15,1.12l1.77,3.19c-9.96,4.82-17.54,11.47-28.81,14.74-2.54-1.21-3.1-4.31-4.01-6.78,9.04-3.64,17.93-7.49,26.61-12.86,1.17-.73,2.56.18,3.28.59Z" fill="#d29235"/><path d="M89.52,231.09c-.92,2.48-1.49,5.58-4.01,6.83-12.05-4.31-18.19-8.31-28.71-15.02,1.47-1.63,2.24-4.03,4.74-5.09,10.78,6.1,17.02,8.96,27.98,13.27Z" fill="#d29235"/><path d="M246.71,96.97c-.23,3.25-3.76,2.91-4.73,5.57-.85,2.34,2.88.78,5.17,9.55.91,3.47,10.34,13.88,13.02,32.66.34,2.35,1.58,4.51,1.43,7.17-.36,6.38.59,12.62-.38,18.84-.12.77-4.16,13.25-5.5,11.31,1.02-2.35,1.21-4.96,1.92-7.36,6.36-21.49-2.67-47.96-15.16-65.86-1.19-1.7-1.54-4.19-3.78-4.82v-4.02c2.75-.82,5.15-2.6,8.01-3.05Z" fill="#6a3610"/><path d="M62.65,59.14c.83,2.81,4.14,3.72,6.83,2.98.13,1.51,1.51,2.31,3.18,2.83l12.95,4.03c4.07,1.27,6.97,1.35,10.67-.41,12.54-5.95,25.88-8.81,39.69-10.21,23.19-2.35,43.57,3.22,64.44,12.45,3.02-1.28,24.32-6.12,22.18-8.94,2.87,1.08,6.32.25,7.25-2.82,4.18-.24,7.06-3.85,10.57-6.22,2.84-1.91,4.66-3.66,6.69-6.48l7.07-9.85c1.42-1.97,4.64-10.13,9.06-8.8,7,2.1,5.68,18.3,4.61,23.63-1.34,6.67-4.42,12.39-7.09,18.51,2.11-.91,5.14-2.02,7.07-.15,1.4,1.35.96,4.29.58,6.17-2.3,11.53-9.05,13.61-8.94,18.81-.38-.45-1.3-.16-1.77.02-.05-1.28-.16-2.67.43-4.19,1.23-1.42,1.48-2.99,1.29-4.46.31-.27.34-1.19.96-1.21.74-.03,1.55.1,2.25-.29-.93.52,5.25-6.95,1.86-9.7-1.32-1.07-1.55-.48-3.05.42-2.54,1.52-10.89,6.67-13.34,4.35-.81-.77-.57-2.17.34-2.98,7.46-6.61,13.16-16.53,14.89-25.74,1.01-.82,1.46-23.24-2.2-17.41-3.39,5.4-6.45,10.67-10.58,15.57-10.88,12.89-24.49,18.97-40.58,23.23-10.72,2.84-20.37,7.15-29.52,12.49-1.26-.28-2.01-1.47-2.02-2.72,1.45-1.52,3.23-3.09,5.14-4.04,3.56-1.77,7.47-2.86,11.47-5.35-30.36-13.82-64.55-14.02-95.06-1.34-1.66.69-1.79,1.14-2.21,2.3-.59,1.11-3.05.84-3.26,2.33-.79-.37-2.36-.03-2.86-1.03s-1.19-.6-2.06-.8c-22.45-4.94-42.39-13.73-54.87-34.04l-3.97-6.46c-3.54-5.75-5.12,12.99-.95,22.12l3.12,6.83c.66,1.45,1.32,3,2.55,3.41,3.34,7.36,9.43,10.34,9.24,12.42-.41,4.59-9.32-1.17-14.31-3-1.16-.43-1.95-2.15-3.44-2.16-3.63-1.67-.71,8.44,3.71,11.64-.71-.51,4.94,9.08,3.77,8.92-.37.31-1.51.63-1.58,1.18-.91-7.62-4.54-4.25-8.18-15.04-.96-2.86-2.85-6.46-1.19-9.42,1.48-2.63,5.38-1.5,7.98-.6-.55-1.69-1.2-3.11-2.03-4.66-12.98-24.45-4.25-42.86,2.49-36.78,2.57,2.32,4.12,5.32,5.86,8.21,3.83,6.34,17.52,22.84,24.87,22.44Z" fill="#693714"/><path d="M229.84,59.07c-.92,3.07-4.37,3.9-7.25,2.82-2.38-3.43-8.02-6.7-11.84-9.12-42.12-26.57-96.84-24.03-136.82,5.4-1.79,1.32-3.29,2.54-4.45,3.95-2.7.74-6-.17-6.83-2.98.26-1.2,1.33-1.69,2.53-2.65,17.29-13.71,37.22-23.09,59.27-26.62,39.88-6.39,75.39,3.76,105.38,29.2Z" fill="#7b421d"/><path d="M257.7,94.71c-1.01.4-2.05,1.48-3.19,1.51-1.87.05-3.78-.13-5.64-.3,3.5-2.88,7.85-7.5,10.55-9.86.18,1.47-.07,3.04-1.29,4.46-.59,1.52-.48,2.91-.43,4.19Z" fill="#6a3610"/><path d="M263.33,50.91c-1.73,9.2-7.43,19.12-14.89,25.74-.92.81-1.15,2.21-.34,2.98,2.45,2.32,10.8-2.83,13.34-4.35.68,2.89-1.51,4.89-3.55,6.92-8.68,8.63-20.78,13.61-32.91,15.08l-19.61,2.37c-16.86,2.04-27.31,5.71-40.53,15.53-2.67,1.98-8.5,9.46-11.27,10.75-1.2-.64-2.55-.9-3.89-1.04.52-2.93,9.51-14.78,12.16-17.72l9.03-10c1.54-1.7,3.86-2.7,5.6-4.28,6.38-5.77,21.11-10.73,29.52-13.56l17.99-6.06c6.09-2.05,11.8-5.24,16.76-9.33,3.42-2.82,11.62-11.56,13.64-15.06l7.58-13.11c3,5.31-.48,14.37,1.38,15.14Z" fill="#f1bb3c"/><path d="M33.59,41.07c0,3.5,5.93,10.92,8.69,14.12,22.16,25.75,48.99,18.55,75.02,39.02,2.99,2.35,18.9,17.75,18.37,21.62-.26.81-.14,2.41-.98,2.86-1.23-.05-2.59-1-2.94.07l-10.32-7.72c-8.46-6.33-18.73-9.34-29.26-10.7l-16.69-2.17c-6.44-.84-12.64-1.42-18.79-3.24-9.72-2.88-18.19-7.66-24.97-15.2-.99-1.11-2.1-1.8-3.31-1.82-.09-.31.09-.71.04-1.03.27-.85,1.04-1.37,1.91-1.45,4.99,1.83,13.9,7.6,14.31,3,.19-2.08-5.9-5.06-9.24-12.42-2.78-6.12-9.08-20.57-6.08-27.46,2.12.91,2.63,2.45,4.23,2.52Z" fill="#f1bb3c"/><path d="M183.56,78.02c-1.9.95-3.69,2.52-5.14,4.04-2.05.26-15.89,10.82-14.02,13.46-3.76-1.98-15.39,18.79-18.29,23.61-11.98-20.15-18.13-28.37-37.53-41.25-.05-.77-.44-2.41,1.07-2.92,24.41-8.16,50.47-7.91,74.82.41.21,1.24-.76,1.81-.92,2.64Z" fill="#f1bb3c"/><path d="M264.48,74.86c-.49,3.63-2.78,6.62-4.1,9.99-.62.02-.65.94-.96,1.21-2.71,2.36-7.05,6.97-10.55,9.86-.91-.09-1.49.94-2.16,1.05-2.86.45-5.26,2.23-8,3.05-6.59,1.98-13.35,3.42-20.1,4.67-3.71.69-8.03.33-12.27.88-26.81,3.47-47.94,13.92-60.27,38.8-3.38-5.51-5.06-10.4-9.35-13.34-.1-2.68-11.8-12.68-14.36-12.87-1.73-2.73-5.18-2.97-7.7-4.44-8.82-5.15-19.15-6.94-29.67-8.18l-21.41-2.52c-11.66-1.37-31.25-11.71-35.15-25.1,1.21.02,2.32.71,3.31,1.82,6.77,7.54,15.25,12.32,24.97,15.2,6.15,1.82,12.35,2.41,18.79,3.24l16.69,2.17c10.53,1.37,20.8,4.38,29.26,10.7l10.32,7.72c1.15,2.47,3.75,3.96,5.51,6.36,3.03,4.17,5.62,8.34,8.36,13.07,2.85-2.58,5.91-9.15,7.92-12.27,2.77-1.29,8.6-8.77,11.27-10.75,13.22-9.82,23.67-13.49,40.53-15.53l19.61-2.37c12.13-1.47,24.23-6.45,32.91-15.08,2.04-2.03,4.23-4.03,3.55-6.92,1.5-.9,1.73-1.49,3.05-.42Z" fill="#d29235"/><path d="M183.56,78.02c.16-.83,1.13-1.4.92-2.64-24.35-8.32-50.42-8.57-74.82-.41-1.51.5-1.12,2.15-1.07,2.92,2.95,1.96-12.75-6.27-10.83-4.25.43-1.16.55-1.61,2.21-2.3,30.51-12.67,64.7-12.48,95.06,1.34-4,2.49-7.91,3.58-11.47,5.35Z" fill="#f5cd77"/><path d="M263.33,50.91c-1.86-.77,1.62-9.83-1.38-15.14l-7.58,13.11c-2.02,3.5-10.22,12.24-13.64,15.06-4.96,4.09-10.68,7.28-16.76,9.33l-17.99,6.06c-8.41,2.83-23.14,7.79-29.52,13.56-1.74,1.57-4.06,2.58-5.6,4.28l-9.03,10c-2.66,2.94-11.64,14.79-12.16,17.72-.39-.04-.87-.11-1.26-.04,3.73-9.62,9.69-18.28,16.66-26.37.72-.84,1.1-1.63,1.38-2.33,4.52-3.24,8.82-7.86,14-11.35,9.15-5.34,18.8-9.65,29.52-12.49,16.09-4.26,29.71-10.33,40.58-23.23,4.13-4.9,7.18-10.17,10.58-15.57,3.66-5.83,3.22,16.59,2.2,17.41Z" fill="#f5cd77"/><path d="M89.57,74.14c.11,1,1.3.85,2.06.8.5,1,2.07.65,2.86,1.03,8.96,4.22,17.88,8.41,25.6,15.39,10.11,9.14,17.75,20.12,23.39,32.48.69,1.51,1.86,2.3,3.17,2.02-.01.53-.02,2.1-.55,1.86-3.85-.78-8.08-10.54-10.42-11.89.52-3.87-15.38-19.26-18.37-21.62-26.04-20.47-52.86-13.28-75.02-39.02-2.76-3.2-8.68-10.62-8.69-14.12l1.11-.97c12.49,20.31,32.42,29.11,54.87,34.04Z" fill="#f5cd77"/><path d="M108.59,77.88c19.4,12.88,25.55,21.1,37.53,41.25,2.91-4.82,14.53-25.59,18.29-23.61l2.03.61c-.28.71-.66,1.5-1.38,2.33-6.97,8.09-12.93,16.74-16.66,26.37-.63.1-1.31.58-1.75,1.02-1.31.28-2.49-.51-3.17-2.02-5.64-12.36-13.28-23.34-23.39-32.48-7.72-6.98-16.64-11.17-25.6-15.39.21-1.49,2.67-1.23,3.26-2.33-1.92-2.02,13.78,6.21,10.83,4.25Z" fill="#6e360c"/><path d="M178.42,82.06c0,1.25.76,2.44,2.02,2.72-5.18,3.49-9.48,8.11-14,11.35l-2.03-.61c-1.88-2.64,11.96-13.2,14.02-13.46Z" fill="#6a3610"/><path d="M34.7,40.09l-1.11.97c-1.6-.07-2.11-1.61-4.23-2.52-3,6.89,3.3,21.33,6.08,27.46-1.23-.41-1.89-1.96-2.55-3.41l-3.12-6.83c-4.17-9.13-2.58-27.88.95-22.12l3.97,6.46Z" fill="#ebb453"/><path d="M260.37,84.84c1.33-3.37,3.61-6.36,4.1-9.99,3.39,2.75-2.79,10.21-1.86,9.7-.7.39-1.51.26-2.25.29Z" fill="#6a3610"/><path d="M30.38,75.42c-.87.09-1.64.6-1.91,1.45-1.06-.9-1.32-2.29-1.53-3.61,1.48.01,2.27,1.73,3.44,2.16Z" fill="#d29235"/><path d="M91.63,74.93c-.76.06-1.94.2-2.06-.8.87.19,1.53-.25,2.06.8Z" fill="#6e360c"/><path d="M114.66,113.71c-5.41,1.19-6.53-1.01-10.08-.51-.32.04-.67-.11-1-.11.16-2.11-7.61-2.83-10.54-3.65-8.18-2.28-10.42,2.44-19.57,1.42.2-.73,1.2-.6,2.17-1.58-2.33-1.65-10.11-1.04-12.99-3-.06-.76-1.16-.78-1.93-1.69-.03-1.19,1.96-1.22,2.87-1.59l21.41,2.52c10.52,1.24,20.85,3.03,29.67,8.18Z" fill="#6e360c"/><path d="M62.63,106.29c2.89,1.96,10.67,1.35,12.99,3-.97.98-1.97.85-2.17,1.58-2.28.57-5.07,1.82-7.02,3.17-2.87-1.86-12.61-2.79-16.84-5.04,1-1.32,1.33-4.61,4.01-4.49,3.15.14,6.07,1.9,9.03,1.79Z" fill="#d29235"/><path d="M44.63,99.97c-1.29.05-3-.47-3.14-1.94,1.28.14,2.39.94,3.14,1.94Z" fill="#693714"/><path d="M47.62,101.91c-.43-.2-1.57-.19-1.2-.92.68.1,1.03.24,1.2.92Z" fill="#693714"/><path d="M146.66,125.85c.43-.44,1.12-.92,1.75-1.02.39-.06.86,0,1.26.04,1.34.14,2.69.4,3.89,1.04-2.01,3.12-5.07,9.69-7.92,12.27-2.74-4.73-5.33-8.9-8.36-13.07-1.75-2.41-4.35-3.89-5.51-6.36.35-1.07,1.71-.11,2.94-.07.83-.45.72-2.06.98-2.86,2.34,1.35,6.58,11.12,10.42,11.89.54.24.54-1.33.55-1.86Z" fill="#f1ba3d"/><path d="M238.71,100.02v4.02c-7.02,2.71-14.47,4.01-21.96,4.5-.17-1.57.81-2.77,1.85-3.85,6.76-1.26,13.52-2.69,20.1-4.67Z" fill="#6e360c"/><path d="M136.72,131.02c.09,4.46-8.5-5.47-10.31-7.02-2.06-1.78-4.35-3.05-4.06-5.85,2.56.19,14.27,10.19,14.36,12.87Z" fill="#6e360c"/><path d="M242.47,108.85c-4.86,1.92-9.79,3.79-15.38,4.8-.73.13-1.32.21-.81.86-3.54-2.48-9.31-3.91-9.53-5.98,7.49-.5,14.94-1.79,21.94-4.5,2.24.62,2.59,3.11,3.78,4.82Z" fill="#d29235"/><path d="M60.5,193.03c-2.15-.21-3.87-1.92-4.03-4.08l4.03,4.08Z" fill="#ebb453"/><path d="M55.56,187.99c-1.02-.33-1.71-1.2-1.92-2.25,1.03.31,1.55,1.29,1.92,2.25Z" fill="#ebb453"/><path d="M238.66,206.84c6.54-7.84,11.32-11.62,15.64-22.3.38-.94.36-2.08,1.38-1.68,1.38,4.9-9.24,25.67-17.02,23.97Z" fill="#6a3610"/><path d="M164.64,193.83c-1.66,5.31-8.94,16.7-13.16,21.03-1.99,2.04-4.86,3.05-7.54,1.57-2.73-1.51-13.29-12.13-12.49-16.52,4.48,2.97,5.64,6.97,12.11,10.91,6.47,3.95,16.77-12.62,19.51-17.43.63-.78,1.51-.23,1.57.45Z" fill="#d29235"/><path d="M159.61,179.08c1.27,2.16,4.37,4.76,2.22,7.2-3.46,3.92-7.37,7.15-9.98,11.97-1,1.85-3.84,4.01-5.93,3.39-2.65-.78-4.2-3.45-5.92-5.31l-9.92-10.77c-1.21-1.31.98-3.39,1.59-4.26,6.19-4.5,13.2-13.14,22.4-4.56-1.89,1.14-3.84,1.16-4.24,2.81s.03,4.15,2.12,4.88c1.97.7,3.75-1.43,3.55-3.46-.14-1.42-1.14-2.25-.31-3.72,2.17.65,3.07,1.7,4.43,1.83Z" fill="#ef842a"/><path d="M159.61,179.08c-1.35-.13-2.26-1.18-4.43-1.83-.83,1.47.18,2.3.31,3.72.2,2.03-1.58,4.16-3.55,3.46-2.08-.73-2.51-3.26-2.12-4.88s2.34-1.67,4.24-2.81c-9.2-8.58-16.21.06-22.4,4.56,2.09-6.29,11.08-13.41,17.62-10.88,4.55,1.76,8.11,4.91,10.32,8.66Z" fill="#ebb453"/><path d="M148.89,207.28c-2.42.9-4.23.45-2.04-.47,1.55-1.46,3.4-.98,2.04.47Z" fill="#d29235"/><circle cx="144.07" cy="206.41" r=".5" fill="#d29235"/><path d="M218.6,104.69c-1.04,1.08-2.02,2.28-1.85,3.85.22,2.06,5.99,3.5,9.53,5.98,23.28,16.31,28.87,49.31,11.49,71.46-18.43,23.49-50.07,25.31-73.13,7.86-.06-.67-.94-1.23-1.57-.45-2.74,4.81-13.04,21.38-19.51,17.43-6.46-3.94-7.62-7.94-12.11-10.91-.27-.25-.4-.84-.76-1,.98-1.17-2.85-5.99-2.62-5.96.86.11-10.53,9.34-24.74,11.61-2.78.44-5.94,1.47-8.74,1.19l-10.06-1.04c-6.87-.71-17.8-7.27-23.19-10.74-.12-.35-.58-.67-.85-.94l-4.03-4.08-.9-.96c-.37-.96-.88-1.93-1.92-2.25-.21-1.07-.83-1.97-1.59-3.17-14.81-23.37-7.95-53.2,14.38-68.54,1.95-1.34,4.74-2.59,7.02-3.17,9.15,1.02,11.39-3.71,19.57-1.42,2.94.82,10.7,1.54,10.54,3.65-5.77.08-19.07-9.06-40.1,8.64-1.18,1-1.71,2.15-2.08,3.14-1.13.59-2.17,1.28-3.29,2.74-11.26,14.73-13.12,34.87-3.52,51.29,14.55,24.89,48.85,30.05,70.95,10.72-1-6.74,3.49-12.58,3.26-13.85l1.08-.64c3.31-1.97,5.53-5.5,8.52-7.82,1.16-.12,2.43-.41,3.12-1.42,5.33-.86,10.32.66,15.1,3.05,5.38,6.61,11.41,9.74,9.98,20.75,21.75,18.28,53.79,14.61,69.47-8.37,9.64-14.13,9.89-31.8,2.51-46.37-3.27-6.46-7.35-11.07-13.06-15.11-6.59-4.66-13.55-9.74-23.06-9.23-7.57.41-15,2.85-22.06,5.98-14.88,6.59-26.45,18.55-31.98,33.35-2.37,1.06-4.3-.5-5.88-2.14-.11-1.67-.99-3.2-2-4.92-8.1-13.83-17.89-22.21-32.9-28.02-1.3-.5-2.6-.57-3.05-1.67,3.55-.5,4.67,1.7,10.08.51,2.52,1.47,5.97,1.72,7.7,4.44-.3,2.79,2,4.07,4.06,5.85,1.8,1.56,10.39,11.49,10.31,7.02,4.29,2.94,5.97,7.84,9.35,13.34,12.32-24.88,33.46-35.33,60.27-38.8,4.24-.55,8.56-.19,12.27-.88ZM131.67,181.3c-.6.87-2.79,2.95-1.59,4.26l9.92,10.77c1.72,1.87,3.27,4.53,5.92,5.31,2.08.62,4.92-1.54,5.93-3.39,2.62-4.82,6.53-8.04,9.98-11.97,2.15-2.44-.95-5.05-2.22-7.2-2.21-3.76-5.77-6.9-10.32-8.66-6.54-2.53-15.53,4.59-17.62,10.88ZM144.57,206.41c0-.28-.22-.5-.5-.5s-.5.22-.5.5.22.5.5.5.5-.22.5-.5ZM148.89,207.28c1.37-1.46-.48-1.93-2.04-.47-2.2.92-.38,1.37,2.04.47Z" fill="#6a3610"/><path d="M130.7,198.91c-1.42-.63-1.59-2.05-2.65-4.42-6.51,4.5-16.8,11.31-25.3,11.63-1.37.05-2.6.87-4.14.86l-9.06-.09c-4.96-.05-27.34-8.19-28.21-12.91,5.39,3.46,16.32,10.03,23.19,10.74l10.06,1.04c2.8.29,5.97-.74,8.74-1.19,14.21-2.27,25.6-11.5,24.74-11.61-.23-.03,3.6,4.79,2.62,5.96Z" fill="#ebb453"/><path d="M103.57,113.09c.33,0,.68.15,1,.11.45,1.1,1.74,1.16,3.05,1.67,15.01,5.81,24.8,14.19,32.9,28.02,1,1.72,1.88,3.25,2,4.92-2.1-.34-4.61.64-6.1,2.11-5.73-3.2-3.06,7.89-10.73,5.01-8.71-3.27-16.82-6.94-25.32-10.67l-27.73-12.16c-2.41-1.06-4.67-1.8-7-1.43-.53-2.45-2.81-3.83-4.25-5.79.37-.99.9-2.14,2.08-3.14,21.03-17.7,34.34-8.56,40.1-8.64Z" fill="#f6eed7"/><path d="M65.64,130.67c1.66,7.6,11.16,5.41,12.24,10.07-3.45,4.21-5.45,9.22-5.68,15.19-.51,13.21,8.23,24.66,21.4,26.79,15.16,2.45,29.04-8.29,30.12-22.98,7.5-.18,6.17,1,12-3.9.71.09,1.24.44,1.41.93.6,1.76-1.13,3.16-.37,5.51.63,1.94,4.59.49,4.74,3.61-.69,1.01-1.96,1.29-3.12,1.42-3.46.37-10.29,4.5-9.6,8.46.22,1.26-4.27,7.11-3.26,13.85-22.09,19.34-56.4,14.17-70.95-10.72-9.6-16.42-7.74-36.55,3.52-51.29,1.11-1.45,2.16-2.14,3.29-2.74,1.44,1.96,3.71,3.34,4.25,5.79Z" fill="#fafbf9"/><path d="M238.56,134.95c7.38,14.57,7.14,32.23-2.51,46.37-15.68,22.98-47.72,26.65-69.47,8.37,1.43-11.01-4.6-14.14-9.98-20.75-.1-1.21-.53-2.39-.98-4.07,4.04-4.04,10.43.09,10.05-5.08.88-.15,1.77-.25,2.66-.08.17,9.36,1.26,6.94,3.16,10.38,5.23,9.42,15.27,14.23,26.21,12.75,12.05-1.63,20.95-11.25,22.48-23.36.91-7.25-1.9-13.85-5.63-19.55,1.98-3.37,11.41-3.35,11.43-8.25,5.96-4.5,6.96,1.79,12.59,3.27Z" fill="#fafbf9"/><path d="M225.5,119.84c-2.86,3.01,1.6,7.24-.84,10.62-.24-.02-.66-.06-1.31.07l-56.02,24.19c-1.52.66-3.52.53-4.98.04-2.27-.75-2.46-5.04-4.32-5.4-1.1-.21-2.19.3-2.53,1.69-.28,1.18-.14,2.08-.02,2.87-3.53.16-6.24.02-7.09-3.98,5.54-14.8,17.11-26.76,31.98-33.35,7.05-3.12,14.48-5.56,22.06-5.98,9.52-.52,16.47,4.57,23.06,9.23Z" fill="#f6eed7"/><path d="M142.52,147.81c1.59,1.64,3.52,3.2,5.88,2.14.86,4,3.56,4.15,7.09,3.98,2.01,3.89,5.73,6.6,10.17,5.87.38,5.17-6.01,1.04-10.05,5.08.45,1.68.88,2.86.98,4.07-4.78-2.4-9.78-3.91-15.1-3.05-.15-3.12-4.12-1.67-4.74-3.61-.76-2.35.97-3.75.37-5.51-.17-.49-.7-.84-1.41-.93.52-1.93.84-3.92.69-5.92,1.5-1.47,4.01-2.45,6.1-2.11Z" fill="#f4f5f5"/><path d="M238.56,134.95c-5.63-1.49-6.63-7.77-12.59-3.27.39-.89-.63-1.15-1.31-1.22,2.44-3.38-2.02-7.61.84-10.62,5.71,4.04,9.79,8.65,13.06,15.11Z" fill="#efefef"/><path d="M138.39,167.31c-2.99,2.32-5.21,5.85-8.52,7.82l-1.08.64c-.7-3.96,6.13-8.09,9.6-8.46Z" fill="#f4f5f5"/><path d="M136.41,149.91c.15,2-.17,3.99-.69,5.92-5.83,4.9-4.5,3.72-12,3.9-2.27-1.81-5.25-2.96-8.16-2.93.52-1.04-11.54-5.79-14.56-7.21-1.93-.91-3.61-1.79-5.48-1.62-3.26-2.35-6.75-4.71-10.84-4.86-1.54-2.13-4.34-2.23-6.81-2.36-1.08-4.66-10.58-2.47-12.24-10.07,2.33-.38,4.58.37,7,1.43l27.73,12.16c8.5,3.73,16.61,7.4,25.32,10.67,7.67,2.88,5-8.21,10.73-5.01Z" fill="#5d3b1e"/><path d="M84.69,143.1c-4.59,7.38-2.08,7.71-2.8,9.92-2.53,7.78,1.57,15.9,9.33,19.45,6.24,2.85,16.56,1.49,17.37-3.36,4.96-1.57,6.6-7.39,6.98-12.31,2.92-.03,5.89,1.12,8.16,2.93-1.08,14.69-14.96,25.43-30.12,22.98-13.17-2.13-21.92-13.58-21.4-26.79.23-5.97,2.23-10.98,5.68-15.19,2.47.14,5.27.23,6.81,2.36Z" fill="#3eb8a2"/><path d="M214.55,139.93c3.73,5.7,6.55,12.3,5.63,19.55-1.53,12.11-10.42,21.73-22.48,23.36-10.95,1.48-20.98-3.34-26.21-12.75-1.91-3.43-2.99-1.01-3.16-10.38,2.32-1.92,5.38-2.68,8.24-3.49-.24,4.51,1.46,8.49,4.69,11.99,5.23,5.65,12.78,7.52,20.08,4.34,1.36-.59,2.43-1.34,2.29-2.68,6.6-2.34,8.69-11.02,7.03-17.94-.84-3.53-2.57-6.31-5.17-8.06,2.32-2.43,5.91-3.02,9.06-3.94Z" fill="#3eb8a2"/><path d="M224.66,130.46c.68.07,1.71.33,1.31,1.22-.02,4.91-9.45,4.88-11.43,8.25-3.15.92-6.74,1.5-9.06,3.94-5.3,1.58-10.89,3.28-15.09,6.94-.53-1.16-12.66,4.03-11.96,5.01-.62.13-1.26.23-1.87.41-2.86.82-5.92,1.58-8.24,3.49-.89-.17-1.78-.07-2.66.08-4.44.73-8.16-1.97-10.17-5.87-.12-.78-.26-1.69.02-2.87.33-1.39,1.43-1.9,2.53-1.69,1.85.35,2.04,4.65,4.32,5.4,1.46.48,3.45.61,4.98-.04l56.02-24.19c.65-.13,1.07-.09,1.31-.07Z" fill="#5d3b1e"/><path d="M115.56,156.8c-.37,4.92-2.02,10.75-6.98,12.31-.5-.85.35-1.84.1-3.1-.36-1.86-2.1-2.28-3.53-1.93-1.44.35-2.34,2.36-1.47,3.99.59,1.11,2.32,1.72,4.89,1.03-.81,4.85-11.13,6.21-17.37,3.36-7.76-3.55-11.86-11.67-9.33-19.45,2.78,1.9,4.68,4.59,9,2.8,3.98-1.65,4.11-4.13,4.63-7.86,1.87-.16,3.55.72,5.48,1.62,3.02,1.42,15.08,6.18,14.56,7.21Z" fill="#1f6056"/><path d="M95.53,147.96c-.53,3.73-.65,6.2-4.63,7.86-4.32,1.79-6.22-.9-9-2.8.72-2.22-1.79-2.54,2.8-9.92,4.08.15,7.58,2.51,10.84,4.86Z" fill="#f4f5f5"/><path d="M205.49,143.87c2.6,1.75,4.33,4.53,5.17,8.06,1.66,6.93-.43,15.6-7.03,17.94-.62-.71.3-1.23.58-2.12.61-1.94-.36-3.49-2.08-3.73-1.31-.18-2.91.47-3.11,2.37-.15,1.46,1.18,3.11,4.61,3.48.14,1.34-.93,2.09-2.29,2.68-7.3,3.17-14.85,1.3-20.08-4.34-3.23-3.49-4.93-7.48-4.69-11.99.61-.18,1.24-.28,1.87-.41.1,2.89,2.67,5.16,6.03,5.08,3.52-.08,6.01-2.47,6.25-6,.11-1.64-.16-2.93-.32-4.09,4.2-3.65,9.79-5.36,15.09-6.94Z" fill="#1f6056"/><path d="M190.39,150.81c.16,1.16.43,2.45.32,4.09-.24,3.53-2.72,5.92-6.25,6-3.36.07-5.93-2.19-6.03-5.08-.7-.97,11.42-6.17,11.96-5.01Z" fill="#f4f5f5"/><path d="M108.58,169.11c-2.57.69-4.3.07-4.89-1.03-.87-1.63.03-3.64,1.47-3.99,1.43-.35,3.17.07,3.53,1.93.25,1.26-.61,2.25-.1,3.1Z" fill="#efefef"/><path d="M203.63,169.87c-3.43-.37-4.76-2.01-4.61-3.48.19-1.9,1.8-2.55,3.11-2.37,1.72.23,2.68,1.79,2.08,3.73-.28.88-1.2,1.41-.58,2.12Z" fill="#e7e8e9"/></svg>