<?xml version="1.0" encoding="UTF-8"?><svg id="Layer_1" xmlns="http://www.w3.org/2000/svg" viewBox="0 0 311.81 311.81"><path d="M270.48,42.65c-1.01.14-2.2-.14-3.19.16-.32-.97.81-1.24,1.52-1.16.58.07,1.97.05,1.67,1Z" fill="#693714"/><path d="M35.23,86.8c-.84.39-1.13-.8-.83-1.47.16-.34.64-.51,1.03-.63.02.69-.26,1.41-.2,2.09Z" fill="#693714"/><path d="M41.15,101.89c-.02.93,3.7,4.34,3.04,3.81-.41.98-.79,1.97-1.03,3.01-.07.31-.1.69-.07,1-.68-1.84-6.45,18.95-6.25,17.59-2.72,18.58-4.88,21.33-2.53,41.48,1.78,15.3,6.27,29.84,13.45,43.24,2.95,5.5,11.03,18.75,15.58,21.55.44,1.97.61,2.96,2.85,3.11.37,1.03.92,2.19,1.96,3.18l8.69,8.25c4.24,4.03,8.95,6.28,13.24,9.24,16.66,11.5,36.32,17.71,57.17,19.23,24.58,1.79,48.21-3.51,69.38-15.64,2.26-1.3,4.43-2.17,5.61-4.08,2.05.89,25.47-18.15,22.86-20.29.46.03.93-.04,1.5-.19.62-.16.74-1.01.86-1.6,4.72-3.57,7.53-7.23,10.93-12.82,10.57-17.4,16.08-30.74,18.7-51.28l1.02-8c1.51-11.89-2.22-35.98-7-47.83-1.33-3.29-3.01-6.18-3.62-9.34,1.45-1.6,2.55-3.82,4.93-3.77.82.65,1.17,1.79,1.71,3.06,17.5,41.13,13.17,88.11-13.08,124.74-32.06,44.72-86.27,63.38-139.89,49.3-15.16-3.98-28.43-10.96-41.01-20.05-2.59-1.87-5.06-3.3-7.43-5.53l-7.65-7.22c-2.62-2.47-4.35-4.65-6.72-7.37-24.49-28.12-35.3-64.71-29.77-101.97,1.85-12.48,5.23-24.27,10.75-34.92l1.82.11Z" fill="#7e431b"/><path d="M246.46,65.64c-.22,2.62-2.44,4.53-5.07,4.24-1.21-2.17-7.64-6.86-10.22-8.98-6.57-5.41-13.22-9.47-20.89-13.29-32.42-16.16-69.41-17.12-102.79-2.79-10.77,4.63-19.92,10.76-29.19,17.78-1.29.97-9.27,7.5-8.02,8.52-.22-.12-.54-.04-.78-.12-2.57-.54-4.68-2.63-4.29-5.34,51-49.4,130.5-50.09,181.25-.02Z" fill="#7b421d"/><path d="M259.34,53.75c.27-.33.74-.79.91-1.15-.1.51-.42.95-.91,1.15Z" fill="#693714"/><path d="M94.17,249.6c32.79,13.6,90.56,13.66,123.32-.04.3-.05.66.11.94.03,1.15,2.48,2.06,5.14,3.8,7.27-1.18,1.9-3.35,2.78-5.61,4.08-21.17,12.13-44.8,17.43-69.38,15.64-20.85-1.52-40.5-7.73-57.17-19.23-.55-2.34,2.36-3.78,2.36-7.55l1.73-.21Z" fill="#f6eed7"/><path d="M245.1,236.57c2.61,2.15-20.81,21.18-22.86,20.29-1.74-2.13-2.65-4.79-3.8-7.27,2.43-.71,24.93-10.76,25.16-13.71l1.51.69Z" fill="#f1ba3d"/><path d="M92.44,249.81c0,3.77-2.91,5.2-2.36,7.55-4.29-2.96-8.99-5.21-13.24-9.24l-8.69-8.25c-1.04-.99-1.6-2.15-1.96-3.18l1.03-.05c2.37-.11,4.04,1.48,6.13,2.93,10.02,6.93,9.33,5.34,19.08,10.25Z" fill="#f1ba3d"/><path d="M53.4,207.67c.94.64,1.66,1.9,1.94,2.97.19.73-.31,1.62.07,2.45s1.36.43,2.05.62c1.5.4,1.87,2.41,2.74,3.34-.61,2.4,3.66,5.85,5.72,8.08,2.3.72,4.33,1.33,6.33,1.71l.89.75c-.73.93-.65,2.31-.85,3.36-1.53,2.06-4.04,3.31-5.08,5.69l-1.03.05c-2.24-.15-2.41-1.14-2.85-3.11,1.88-.95,3.59-2.52,4.65-4.63l-10.03-8.87c-2.12-1.87-10.37-12.48-10.96-15.29-2.83-2.42,9.76,5.19,6.38,2.88Z" fill="#6a3610"/><path d="M247.47,234.78c-.12.59-.25,1.44-.86,1.6-.57.15-1.04.23-1.5.19.79-6.32-.71-3.41-1.43-6.96,1.67,1.36,3.54,2.92,3.8,5.17Z" fill="#693714"/><path d="M250.95,122.43c3.49,4.25,3.54,6.23,6.13,9.24-.09.3,0,.73.06,1.04.08.5.47,1,1,1l.04,1c.09,2.09,1.9,3.5,2.72,5.64,9.63,25.12,4.82,26.17,6.72,39.41.37,2.59-1.13,4.84-1.26,6.92-1.68.47-2.27,2.33-2.88,4.16-2.04,6.2-6.48,10.81-10.08,15.94-1.7,2.42-3.46,3.58-5.61,5.39-10.85,9.13-22.71,15.7-36.43,19.64-39.85,11.46-92.18,10.58-129.68-7.46-11.33-5.45-26.92-19.08-31.49-28.41l-4.4-8.98c-5.84-11.91.53-31.08,2.14-39.88l.28-1.54c3.33-7.44,6.35-15.04,10.9-21.83,3.55-.14,15.13,3.04,18.9,4.19-6.21,4.03-11.32,9.35-15.39,16.1-12.12,20.08-8.35,45.57,8.91,61.54,16.46,15.24,41.7,18.55,59.94,6.2,1.44-.97,3.38-1.15,5.25-3.25.89,1.57,1.89,3.4,1.71,5.09-.71,6.9,7.17,17.38,13.15,21.62,3.21,2.27,6.66,1.66,9.51-.81,5.52-4.79,10.03-10.66,11.24-17.62.29-1.7.84-4.57,2.9-5.33,2.22-.82,3.42,1.83,4.87,2.45,6.55,2.83,13.07,5.52,20.25,6.62,4.14.64,15.28-.04,18.51-1.31,13.64-5.4,23.37-11.44,31.17-23.86,6.49-10.33,8-23.25,7-35.55-.09-1.05-4.11-11.06-4.11-10.74-.03-1.44-1.34-1.76-1.76-2.4-4.9-7.45-10.08-14.99-17.98-19.24-.23-.31-.22-.54.2-.62,6.52.13,12.3-1.61,17.55-4.39Z" fill="#f1ba3d"/><path d="M48.23,145.54l-.28,1.54c-1.71-2.66-4.62,11.97-4.41,9.7l-.61,6.59c-.54,5.9-2.15,11.5-.59,17.42.86,3.28,1.22,6.4.86,9.8,2.57,2.33,4.91,10.22,3.86,13.34-1.19.35-1.13-1.36-1.61-2.35-3.41-7-5.14-14-5.62-21.67-.19-3.03-1.17-5.95-.29-9.06.45-1.62.85-2.98.6-4.3-.17-.93.17-1.91.12-2.84-.24-4.1,2.36-7.6,2.18-13-.01-.32.11-.69.04-1,1.84-1.13,1.62-3.54,2-5.84.34-2.06,1.96-3.44,1.96-5.16v-.91c.73-.34,1.07-1.12,1.11-1.9l.76-.12c2.6,3.96-3.92,6.45-.08,9.76Z" fill="#6a3610"/><path d="M78.03,127.9c-3.77-1.15-15.35-4.33-18.9-4.19,1.25-1.86,2.56-5.34,5.22-6.15,7.88,1.89,15.26,3.47,23.28,4.73-3.12,3.2-6.72,3.73-9.6,5.6Z" fill="#d29235"/><path d="M250.95,122.43c-5.25,2.78-11.03,4.52-17.55,4.39-.43.08-.44.31-.2.62l-9.96-5.35c7.8-1.01,14.89-2.07,22.24-4.27,3.56-1.06,4.15,3,5.47,4.61Z" fill="#d29235"/><path d="M265.21,139.71c.3,1.06.68,1.99,1.11,3l-2.5.71c-1.1-2.34-3.74-10.38-5.62-8.71l-.04-1c-.03-.63-.33-1.07-1-1-.05-.31-.15-.74-.06-1.04.46-1.63.65-3.35,1.36-4.9,1.44-.55,6.68,12.67,6.76,12.94Z" fill="#693714"/><path d="M172.35,216.79l-1.05.07c.12-3.17,1.67-3.41,3.28-8.34,1.27,1.3,2.64,1.64,3.86,2.28,2.1,1.11,3.95,3.26,6.58,4.17,3.37,1.16,6.85,2.98,10.47,3.42,11.53,1.38,24.09.51,34.33-5.23,12.87-7.21,16.94-12.59,22.87-26.05.82-1.86,1.55-3.24,1.84-5.31l1.1-7.81c.5-3.53.83-6.08,0-9.54-.66-2.8-.49-5.68-1.44-8.58-1.07-3.28-2.24-6.23-3.03-9.19.42.64,1.74.96,1.76,2.4,0-.32,4.02,9.69,4.11,10.74,1,12.29-.51,25.22-7,35.55-7.8,12.42-17.53,18.45-31.17,23.86-3.22,1.28-14.36,1.95-18.51,1.31-7.18-1.1-13.7-3.79-20.25-6.62-1.46-.63-2.65-3.27-4.87-2.45-2.06.76-2.61,3.63-2.9,5.33Z" fill="#ebb453"/><path d="M215.26,243.51c.78,2.03,2.29,3.81,2.24,6.06-32.76,13.7-90.53,13.64-123.32.04-.06-3,1.76-3.92,2.14-6.82,19.72,5.91,39.81,9.01,60.99,8.78,18.17-.2,35.48-2.05,52.79-7.21,1.91-.57,3.57-1.03,5.16-.84Z" fill="#d8c19d"/><path d="M96.31,242.78c-.39,2.91-2.2,3.82-2.14,6.82l-1.73.21c-9.75-4.91-9.06-3.32-19.08-10.25-2.09-1.45-3.76-3.04-6.13-2.93,1.04-2.38,3.55-3.63,5.08-5.69.79,2.21,22.93,11.51,24.01,11.83Z" fill="#d29235"/><path d="M243.6,235.88c-.23,2.96-22.73,13-25.16,13.71-.29.08-.65-.08-.94-.03.06-2.25-1.46-4.02-2.24-6.06.47-.64,1.27-1.28,2.38-1.6,16.36-4.6,23.39-15.86,25.96-6.03Z" fill="#d29235"/><path d="M246.36,221.68c-.16,2.26-1.69,4.09-2.03,6.3-.09.59-.32,1.14-.66,1.63.73,3.55,2.22.64,1.43,6.96l-1.51-.69c-2.57-9.83-9.59,1.43-25.96,6.03-1.12.31-1.92.96-2.38,1.6-1.59-.19-3.25.27-5.16.84-17.31,5.17-34.62,7.02-52.79,7.21-21.18.23-41.28-2.88-60.99-8.78-1.08-.32-23.22-9.63-24.01-11.83.2-1.05.12-2.42.85-3.36,2.08.08,3.56,1.73,5.61,2.84,39.32,21.08,98.23,21.74,139.81,6.72,10.46-3.78,19.08-9.44,27.79-15.47Z" fill="#6e360c"/><path d="M244.33,227.98c.35-2.21,1.87-4.04,2.03-6.3.34-.24.62-.61.96-.87s.98-.67,1.09-1.11c.63-2.46,3.31-3.34,4.73-4.99,1.54-.66,3.76-.68,5.26-2.05,2.32-2.12,7.73-12.26,6.99-14.98-.01,5.43,4.38-13.21,3.59-8.2,1.02-6.52.05-13.02.31-19.79.18-4.58.77-9.19-.49-13.41-.3-1-2.13-1.68-1.62-2.99.2-.52.48-1.19,1.13-1.59,1.21-.9,2.82,9.67,2.82,10.03.1,7.65,1.72,4.65,1.04,17.34-.26,4.93-2.11,9.46-3.08,14.31-2.84,14.24-13.96,26.76-24.77,34.58Z" fill="#693714"/><path d="M47.94,147.08c-1.62,8.8-7.98,27.97-2.14,39.88-2.4,3.07,5.94,17.42,7.6,20.71,3.38,2.31-9.21-5.3-6.38-2.88,0-.24-.04-.61.04-.85,1.05-3.12-1.29-11.01-3.86-13.34.36-3.41,0-6.52-.86-9.8-1.55-5.92.05-11.52.59-17.42l.61-6.59c-.21,2.27,2.7-12.36,4.41-9.7Z" fill="#6e360c"/><path d="M266.38,186.68c-.39,6.51-2,5.76-2.07,11.02-3.7,5.7-6.7,11.83-11.16,17.01-1.42,1.65-4.11,2.53-4.73,4.99-.53.16-1.06.51-1.09,1.11-.34.26-.61.63-.96.87-8.71,6.02-17.32,11.69-27.79,15.47-41.58,15.02-100.49,14.36-139.81-6.72-2.06-1.1-3.53-2.76-5.61-2.84l-.89-.75c-3.41-2.88-8.48-7.03-12.06-9.79-.87-.93-1.24-2.94-2.74-3.34.08-1.34-.73-2.84-2.12-3.06-.28-1.07-1-2.33-1.94-2.97-1.65-3.28-10-17.64-7.6-20.71l4.4,8.98c4.57,9.33,20.17,22.97,31.49,28.41,37.5,18.03,89.83,18.91,129.68,7.46,13.72-3.95,25.58-10.51,36.43-19.64,2.15-1.81,3.92-2.97,5.61-5.39,3.6-5.13,8.04-9.74,10.08-15.94.6-1.83,1.2-3.69,2.88-4.16Z" fill="#d29235"/><path d="M72.26,226.84c-2.01-.38-4.04-.99-6.33-1.71-2.06-2.23-6.33-5.68-5.72-8.08,3.58,2.76,8.64,6.91,12.06,9.79Z" fill="#6e360c"/><path d="M266.32,142.71c1.19,2.78,2.06,5.99,2,9-.64.4-.92,1.07-1.13,1.59-.51,1.31,1.32,1.99,1.62,2.99,1.26,4.22.67,8.83.49,13.41-.26,6.77.71,13.26-.31,19.79.79-5.01-3.6,13.63-3.59,8.2l-1.09.02c.07-5.26,1.68-4.51,2.07-11.02.13-2.08,1.63-4.34,1.26-6.92-1.9-13.23,2.91-14.28-6.72-39.41-.82-2.14-2.63-3.55-2.72-5.64,1.88-1.67,4.52,6.37,5.62,8.71l2.5-.71Z" fill="#6b3711"/><path d="M258.15,133.71c-.53,0-.92-.5-1-1,.67-.07.98.37,1,1Z" fill="#6b3711"/><path d="M131.25,72.83c.44.85,2.06.37,2.37,2.55-3.46.24-6.48.36-9.69,1.9-1.65.79-3.81-.09-5.57.69l-8.12,3.61c-.76.34-1.53.25-1.82.76-.24.43-.2,1.04-.11,1.5-.31,0-.69.07-1,.01-2.45-.47-4.87-.27-7.03,1.96-2-.93-3.91-2.09-3.91-3.96,3.24,1.51,5.83.61,9.05-1.04,8.25-4.24,17.19-6.04,25.82-7.98Z" fill="#693714"/><path d="M175.32,72.04c1.64,2.3-11.09,2-9.85-1.24,3.33.34,6.53.69,9.85,1.24Z" fill="#693714"/><path d="M136.41,71.72c.48.4.28.85-.06,1.47-.21.38-.66.7-1.33.42-.34-.14-.49-.8-.7-1.11.16-1.01,1.36-.69,2.09-.78Z" fill="#693714"/><path d="M87.32,79.43c-.55-.03-1.07-.06-1-.79.48.03,1.02.21,1,.79Z" fill="#693714"/><path d="M234.16,75.62c-.08-.65.65-.89,1.15-1.04-.36.2-.67,1.03-1.15,1.04Z" fill="#693714"/><path d="M145.32,71.48c.18-.42.56-.69,1-.79-.28.33-.61.6-1,.79Z" fill="#693714"/><path d="M265.4,197.69c.73,2.72-4.67,12.86-6.99,14.98-1.5,1.37-3.73,1.39-5.26,2.05,4.46-5.18,7.47-11.31,11.16-17.01l1.09-.02Z" fill="#6e360c"/><path d="M247.32,220.81c.03-.6.56-.94,1.09-1.11-.11.44-.75.84-1.09,1.11Z" fill="#6e360c"/><path d="M57.46,213.7c-.69-.18-1.66.24-2.05-.62s.12-1.72-.07-2.45c1.39.22,2.2,1.73,2.12,3.06Z" fill="#6e360c"/><path d="M175.32,202.71c-.01.45.32.93.26,1.38-.14,1.04.75,1.72,1.86,2.34,1.98,1.11,2.01,2.91,1,4.37-1.22-.64-2.59-.98-3.86-2.28-1.61,4.93-3.16,5.17-3.28,8.34-3.39,4.91-11.28,16.4-19.36,12.04-6.74-3.64-9.99-9.86-13.49-15.31.17-1.69-.82-3.52-1.71-5.09-1.87,2.1-3.81,2.27-5.25,3.25-1.09-.19-2.59.86-3.72-1.52,3.1-.14,8.95-4.91,8.47-6.49-.08-.28.2-.64.17-.93,1.73-1.48.19-3.92,3.07-4.03,4.59,2.76,8.95,5.82,13.73,9.12.89.62,2.45,2.56,3.7,1.59l12.38-9.65c.72-.36,2.12-.07,2.6-1.06.33-.7.54-1.39.5-2.13.67.41,1.88.64,2.26,1.28.98,1.6-1.14,3.8.68,4.8ZM153.32,214.54c-.36-.77-.87-.46-1.01.26-.9.17-1.82.7-1.81,1.69l-1.92.3c-2.3-1.73-4.09-3.57-6.29-6.17,1.3,5.79,10.73,19.3,18.29,13.28,2.71-2.16,4.37-4.83,5.71-8.11-1.44.22-2.37,2.02-3.48,1.37-1.56-4.22-5.47-2.19-9.5-2.61Z" fill="#6e360c"/><path d="M175.32,202.71c-1.82-1.01.3-3.2-.68-4.8-.39-.64-1.59-.86-2.26-1.28-1.05-4.88-3-4.63-4.09-7.75,1.3-7.41-11.85-9.32-16.77-8.07-4.58,1.16-15.99,9.4-11.24,12.97-.46,1.61-.59,3.35-.81,4.99-2.87.11-1.33,2.55-3.07,4.03-4.47-9.49,5.47-19.72,15.51-23.42,8.43-3.1,17.06,3.53,21.66,10.08,2.77,3.95,4.26,11.68,1.76,13.25Z" fill="#6b3711"/><path d="M171.3,216.86l1.05-.07c-1.2,6.96-5.71,12.82-11.24,17.62-2.85,2.47-6.3,3.08-9.51.81-5.99-4.24-13.86-14.73-13.15-21.62,3.49,5.45,6.75,11.68,13.49,15.31,8.09,4.36,15.97-7.12,19.36-12.04Z" fill="#d29235"/><path d="M165.86,188.91c2.7,4.59,3.04.5,5.53,8.8-.71,1.09-1.52,1.49-2.11,2.12l-12.38,9.65c-1.24.97-2.8-.98-3.7-1.59-4.78-3.3-9.14-6.36-13.73-9.12.22-1.64.34-3.38.81-4.99l.89-.12c1.13-.15,1.75-1.37,2.64-2.44,1.18-1.42,2.96-1.7,4.46-2.65,7.24-4.57,11.84-.92,17.6.33ZM165.26,194.59c0-1.71-1.39-3.1-3.1-3.1s-3.1,1.39-3.1,3.1,1.39,3.1,3.1,3.1,3.1-1.39,3.1-3.1Z" fill="#ef842a"/><path d="M148.58,216.78c-.3-.22,8.1,9.07,13.71.63-4.47,1.56-8.22,1.05-11.8-.92-.01-.99.91-1.52,1.81-1.69l1.01-.26c4.03.41,7.94-1.61,9.5,2.61,1.11.65,2.04-1.15,3.48-1.37-1.34,3.27-3.01,5.95-5.71,8.11-7.55,6.03-16.98-7.49-18.29-13.28,2.2,2.59,3.99,4.44,6.29,6.17Z" fill="#ef842a"/><path d="M150.5,216.48c3.57,1.98,7.33,2.49,11.8.92-5.61,8.44-14.01-.85-13.71-.63l1.92-.3Z" fill="#7e431b"/><path d="M168.29,188.88c1.09,3.12,3.04,2.87,4.09,7.75.04.74-.17,1.44-.5,2.13-.47.99-1.87.71-2.6,1.06.59-.64,1.4-1.03,2.11-2.12-2.49-8.3-2.83-4.2-5.53-8.8l.23-1.23,2.2,1.2Z" fill="#d29235"/><path d="M153.32,214.54l-1.01.26c.14-.72.65-1.02,1.01-.26Z" fill="#7e431b"/><path d="M168.29,188.88l-2.2-1.2c-3.07-3.34-7.46-5.65-12.42-4.64-5.31,1.08-11.67,6.35-12.5,10.62l-.89.12c-4.74-3.57,6.66-11.81,11.24-12.97,4.92-1.25,18.07.67,16.77,8.07Z" fill="#6e360c"/><path d="M166.09,187.68l-.23,1.23c-5.76-1.26-10.36-4.9-17.6-.33-1.5.95-3.28,1.23-4.46,2.65-.89,1.07-1.51,2.29-2.64,2.44.83-4.27,7.19-9.54,12.5-10.62,4.96-1.01,9.35,1.3,12.42,4.64Z" fill="#ebb453"/><circle cx="162.16" cy="194.59" r="3.1" fill="#ebb453"/><path d="M47.23,45.7c.93,1.65,1.91,3.33,2.2,5.2l-2.3,1.18c-2.88-.45-2.92-5.35-5.66-5.07-2.46,5.77-1.66,12.07-.24,17.7,1.38,9.93,7.27,19.1,14.89,26.22.81.76.42,1.73.2,2.14-1.9,3.62-13.78-5.04-16.79-6.46-.21,1.99.9,3.22,1.6,4.32-1.19,2.22,5.52,10.68,7.48,12.52,7.65,7.18,17.11,11.11,27.47,12.74l29.32,4.63c21.33,3.37,40.08,15.95,50.29,36.15,14.66-26.3,31-33.26,59.81-37.79l18.43-2.9c6.18-.97,12.1-2.3,17.7-5.05,1.47-.72,2.57-1.73,3.99-1.46-.5.63-5.77,6.7-3.29,5.94-.31,1.56.98,2.4,2.07,3.03,1.07,3.26,3.85,5.12,4.07,8.03-.72,1.54-.9,3.26-1.36,4.9-2.59-3.01-2.64-4.99-6.13-9.24-1.32-1.61-1.91-5.68-5.47-4.61-7.36,2.2-14.44,3.26-22.24,4.27l9.96,5.35c7.9,4.24,13.07,11.79,17.98,19.24.79,2.95,1.96,5.9,3.03,9.19.95,2.9.78,5.78,1.44,8.58.82,3.46.49,6.01,0,9.54l-1.1,7.81c-.29,2.07-1.02,3.45-1.84,5.31-5.93,13.46-10,18.83-22.87,26.05-10.24,5.74-22.8,6.61-34.33,5.23-3.62-.43-7.1-2.26-10.47-3.42-2.64-.91-4.49-3.07-6.58-4.17,1.01-1.45.97-3.26-1-4.37-1.11-.62-2-1.3-1.86-2.34,19.05,15.77,48.02,14.6,64.74-4.42,14.25-16.21,15.37-39.33,2.9-56.81-7.25-10.16-18.95-17.92-31.83-18.12-9.84-.15-19.34,3.77-27.66,8.23-11.66,6.25-19.51,16.4-25.25,27.93-.6,1.2-1.66,1.93-2.65,1.93-4.96,0-8.33-28.41-48.38-37.36-4.85-1.09-9.3-1.32-14.2.12-16,4.68-28.54,17.21-32.32,33.7s1.63,31.76,12.86,42.88c.95.94,1.81,1.24,2.64,1.41,16.08,15.76,42.84,14.87,59.81.14.48,1.58-5.36,6.35-8.47,6.49,1.13,2.37,2.63,1.33,3.72,1.52-18.24,12.35-43.48,9.04-59.94-6.2-17.25-15.97-21.03-41.46-8.91-61.54,4.08-6.75,9.19-12.06,15.39-16.1,2.88-1.87,6.49-2.4,9.6-5.6-8.02-1.26-15.4-2.85-23.28-4.73-2.66.81-3.97,4.28-5.22,6.15-4.56,6.79-7.58,14.39-10.9,21.83-3.85-3.32,2.67-5.8.08-9.76-.4-2.02,7.79-15.61,9.11-17.01s1.49-2.62.89-4.08c-.4-.97-.4-1.92-1.13-2.31-1.5-.8-2.72-1.01-3.95-.58-2.79-.33-3.13-2.41-5.79-3.14-.23-.43-.6-.83-1.09-.93-.28-.06-.59,0-.88-.04.31-1.13-.6-1.44-1.27-1.98.66.53-3.06-2.88-3.04-3.81.02-1.12.68-2.53-.17-3.82-.38-.58-1.38-.37-1.67-.43-2.64-2.9-3.75-6.99-4.08-10.85-.06-.69.22-1.4.2-2.09,1.31-3.66,5.69-1.36,6.44-2.78,1.28-2.45-1.36-3.4-1.72-7.24,1.2-1.62.54-3.32-.5-5.17-.94-1.67-.08-3.82-.88-5.66-.56-1.28-1.68-.41-2.33-.01-.63-3.34-1-6.67-.98-10.09,4.1-.06-1-5.04,6.94-8.84,1.07-.51,1.86,1.43,2.37,2.81.97-.57,1.49-1.56,2.46-2.01ZM188.96,214.21c0-.36-.29-.65-.65-.65s-.65.29-.65.65.29.65.65.65.65-.29.65-.65ZM192.32,215.21c0-.28-.22-.5-.5-.5s-.5.22-.5.5.22.5.5.5.5-.22.5-.5Z" fill="#6b3711"/><path d="M270.48,42.65c4.22-.59,6.5,11.7,4.86,19-.51-.3-1.07-.2-1.53.06-1.26.7-.29,3.15.73,4-.46,1.09-.1,2.82-.44,4-.46.17-.71.59-.84,1.04-.71,2.36-1.71,4.61-2.9,6.76-3,.93-5.21,3.48-4.9,7.21.12,1.49.59,2.62,1.41,2.83,3.14.79,2.87-2.43,4.9-1.67,3.26,1.22.11,7.75,2.44,8.69.74-1.31-3.03,7.55-1.78,7.18-2.39-.05-3.48,2.18-4.93,3.77-.37-.23-.78-.14-1.17-.13-5.57.12-4.54,2.31-9.16,3.27,4.65-3.69,12.17-10.79,12.97-16.9.15-1.11,2.23-2.12.66-4.38-2.66,1.49-13.86,8.79-15.65,6.22-.5-.71-.46-2.1.34-2.82,6.72-6.06,11.09-13.57,13.91-22.19.91-2.78,1.58-5.32.94-7.88,1.89,2.94.66-14.47-1.5-14.29-3.76,5.92-6.46,12.56-11.88,16.98l-3.61,2.94.85-5.78c.42-2.84,3.44-4.69,5.17-6.8.49-.2.81-.64.91-1.15.31-.67.58-1.29,1.12-1.81.46-.21.69-.67.76-1.15.04-.29-.05-.64.04-.92,1.48-.22,2.25-1.59,2.3-3.01.92-.9,1.46-2.48,2.83-2.9.98-.3,2.17-.02,3.19-.16Z" fill="#6b3711"/><path d="M254.18,60.55l-.85,5.78c-2.9,3.58-6.67,6.66-10.93,8.51-1.97.33-4.26,1.24-5.8-.4,1.07-2.18,4.38-1.95,4.78-4.56,2.63.28,4.85-1.62,5.07-4.24,4.08-.58,5.13-4.73,7.72-5.09Z" fill="#693714"/><path d="M60.39,63.75c1.46,1.02,2.95,2.23,4.81,1.92-.39,2.71,1.72,4.8,4.29,5.34,2.9,6.51,8.5,3.44,7.93,8.43-5.64-1.88-19.58-10.31-21.97-15.64,1.64-.11,3.29-.12,4.94-.05Z" fill="#6b3711"/><path d="M274.2,94.57c-2.33-.94.82-7.47-2.44-8.69-2.03-.76-1.76,2.46-4.9,1.67-.82-.21-1.28-1.33-1.41-2.83-.31-3.73,1.9-6.29,4.9-7.21.45-.81-3.41,6.95-1.28,5.65s5.55-1.51,6.62.9c1.6,3.62.16,7.55-1.5,10.5Z" fill="#693714"/><path d="M60.39,63.75c-1.65-.07-3.29-.06-4.94.05-1.64-.3-2.01-2.15-3.02-3.08.02-.73,0-1.52-.23-2.36-.25-.91-1.48-.35-2.02-.67-1.91-1.14-3.09-3.41-3.06-5.61l2.3-1.18c2.77,1.28,3.85,4.38,5.77,6.97,1.67,2.26,3.91,3.76,5.19,5.87Z" fill="#693714"/><path d="M47.23,45.7c-.97.45-1.49,1.44-2.46,2.01-.51-1.38-1.3-3.32-2.37-2.81-7.94,3.8-2.84,8.77-6.94,8.84.42-3.25,1-9.85,5.15-11.49,3.1-1.23,5.37,1.23,6.63,3.45Z" fill="#693714"/><path d="M40.15,74.68c-2.62-2.89-3.01-7.1-3.71-10.84.66-.39,1.77-1.26,2.33.01.81,1.83-.05,3.98.88,5.66,1.04,1.86,1.69,3.56.5,5.17Z" fill="#693714"/><path d="M41.15,101.89l-1.82-.11c-.1-1.38-.09-2.76-.02-4.14.3.06,1.29-.15,1.67.43.85,1.29.19,2.7.17,3.82Z" fill="#693714"/><path d="M275.34,61.65c-.31,1.4.44,2.92-.8,4.06-1.02-.85-1.99-3.3-.73-4,.45-.25,1.02-.35,1.53-.06Z" fill="#693714"/><path d="M262.16,48.72c.42-1.29,1.39-2.12,2.3-3.01-.05,1.42-.82,2.78-2.3,3.01Z" fill="#693714"/><path d="M273.26,70.75c.13-.45.38-.87.84-1.04-.13.44-.15,1.4-.84,1.04Z" fill="#693714"/><path d="M261.37,50.79c.3-.29.08-1.15.76-1.15-.07.48-.3.94-.76,1.15Z" fill="#693714"/><path d="M156.42,138.86l.85.07c5.87-3.23,4.74-8.93,12.36-17.78,6.2-7.19,12.81-14.03,21.1-18.95,23.97-14.25,42.32-11.3,58.99-27.15,2.96-2.81,6.25-4.72,8.5-8.49,1.54-2.58,4.12-4.46,5.57-7.26,1.29-2.49,2.79-5.06,4.79-7.16,2.7,1.24.96,5.43,1.74,8.57.64,2.56-.03,5.09-.94,7.88-2.82,8.62-7.19,16.13-13.91,22.19-.8.72-.84,2.1-.34,2.82,1.8,2.57,12.99-4.73,15.65-6.22,1.58,2.26-.51,3.27-.66,4.38-1.44.38-2.74,1.5-3.91,2.86-7.67,8.9-21.53,14.15-33.1,15.87l-27,4.01c-14.11,2.09-30.88,9.88-39.68,21.36-2.21,2.88-4.89,5.1-6.57,8.49-1.15,2.33-2.53,4.5-4.47,6.62l-9.3-14.07c-2.16-3.26-5.75-5.49-8.64-8.14-7.28-6.68-22.36-13.12-31.72-14.44l-28.79-4.04c-7.13-1-13.34-3-19.61-6.42-9.29-5.06-10.05-5.59-15.01-13.42-.35-.56-.75.2-1.17.48-.7-1.1-1.81-2.32-1.6-4.32,3.01,1.42,14.89,10.08,16.79,6.46.22-.41.61-1.38-.2-2.14-7.62-7.12-13.51-16.29-14.89-26.22,1.89,1.46-1.72-11.36,1.17-14.76l10.3,16.45c4.23,6.75,17.91,16.64,24.88,19.01l28.3,9.63c8.31,2.83,15.89,6.92,22.66,12.44,5.56,4.54,15.03,14.4,18.02,21.22,1.57,3.6,9.42,16.24,9.86,10.17Z" fill="#f1bb3c"/><path d="M270.12,91.76c-.8,6.11-8.32,13.21-12.97,16.9-.76.16-1.09.54-1.54,1.11-1.41-.28-2.52.74-3.99,1.46-5.6,2.74-11.52,4.08-17.7,5.05l-18.43,2.9c-28.81,4.53-45.15,11.49-59.81,37.79-10.21-20.21-28.95-32.79-50.29-36.15l-29.32-4.63c-10.35-1.63-19.82-5.57-27.47-12.74-1.96-1.84-8.67-10.3-7.48-12.52.42-.27.82-1.03,1.17-.48,4.96,7.83,5.73,8.36,15.01,13.42,6.27,3.42,12.48,5.42,19.61,6.42l28.79,4.04c9.36,1.31,24.44,7.76,31.72,14.44,2.89,2.65,6.49,4.88,8.64,8.14l9.3,14.07c1.94-2.12,3.32-4.29,4.47-6.62,1.67-3.39,4.35-5.6,6.57-8.49,8.81-11.48,25.57-19.27,39.68-21.36l27-4.01c11.57-1.72,25.43-6.97,33.1-15.87,1.17-1.36,2.47-2.48,3.91-2.86Z" fill="#d29235"/><path d="M47.13,52.08c-.03,2.2,1.15,4.47,3.06,5.61-.55,1.85,1.31,2.16,2.25,3.03,1.01.93,1.37,2.78,3.02,3.08,2.39,5.33,16.33,13.76,21.97,15.64.58.2,1.35.34,1.89.56,1.02,1.15,2.6,1.66,4.38,2.22l15.95,4.98c2.1.66,3.85,1.65,5.7,1.49.35.43.81.96,1.65,1.3,22.37,9.21,36.58,24.95,46.47,46.72.66,1.46,1.59,2.34,2.96,2.15-.44,6.08-8.28-6.56-9.86-10.17-2.98-6.82-12.45-16.68-18.02-21.22-6.77-5.52-14.35-9.62-22.66-12.44l-28.3-9.63c-6.96-2.37-20.65-12.26-24.88-19.01l-10.3-16.45c-2.89,3.4.72,16.22-1.17,14.76-1.43-5.63-2.22-11.93.24-17.7,2.74-.28,2.78,4.62,5.66,5.07Z" fill="#f5cd77"/><path d="M266.32,105.39c-.44.93-.96,2.82-2.06,3.31-1.6.72-2.79,1.58-3.9,2.96-2,.17-3.68,1.6-5.13,2.9l-.92.02c-.64.41-1.31.79-1.99,1.14-2.48.76,2.79-5.32,3.29-5.94.46-.57.79-.96,1.54-1.11,4.62-.96,3.6-3.15,9.16-3.27Z" fill="#693714"/><path d="M58.3,114.69c-1.79-.79-3.79-1.33-5.08-2.89,1.23-.43,2.45-.22,3.95.58.72.39.72,1.34,1.13,2.31Z" fill="#693714"/><path d="M84.31,78.55c-1.54.87-3.19,1.54-4.99,1.45-.54-.22-1.31-.37-1.89-.56.57-4.99-5.03-1.92-7.93-8.43.24.08.56,0,.78.12,4.01,2.19,7.95,4.53,12.67,6.12.76.26,1.13.93,1.35,1.3Z" fill="#693714"/><path d="M270.32,60.71c-.78-3.14.96-7.33-1.74-8.57-2,2.09-3.5,4.67-4.79,7.16-1.46,2.8-4.03,4.68-5.57,7.26-2.25,3.77-5.54,5.68-8.5,8.49-16.67,15.85-35.02,12.91-58.99,27.15-8.28,4.92-14.9,11.76-21.1,18.95-7.62,8.85-6.49,14.55-12.36,17.78,8.21-19.31,19.86-34.67,39.11-45.05,1.27-.69,2.34-1.43,3.02-2.2l15.59-5.66c6-2.18,21.71-5.26,27.42-11.17,4.26-1.85,8.02-4.92,10.93-8.51l3.61-2.94c5.42-4.41,8.12-11.06,11.88-16.98,2.16-.18,3.38,17.24,1.5,14.29Z" fill="#f5cd77"/><path d="M242.41,74.84c-5.71,5.91-21.42,8.99-27.42,11.17l-15.59,5.66c-.05-1.06-.39-2.1-1.17-2.85,1.68-2.01,6.83-2.38,7.04-3.83,1.61-.89,3.42.79,4.8,1.22,3.74-1.04,11.91-2.71,12.12-6.41,1.72-.65,10.33-4.16,11.96-4.19.48,0,.8-.84,1.15-1.04.38-.14.88-.05,1.29-.13,1.54,1.63,3.83.73,5.8.4Z" fill="#6b3711"/><path d="M52.44,60.72c-.94-.87-2.8-1.18-2.25-3.03.54.32,1.77-.24,2.02.67.23.84.25,1.63.23,2.36Z" fill="#6b3711"/><path d="M117.29,89.64c.43.74,1.11,1.41,2.15,2.03,18.66,11.2,26.28,21.62,36.38,40.16,1.4-2.42,2.07-4.39,3.51-6.31,7.26-13.83,18.03-25.19,31.53-33.1,1.46-.86,2.72-1.45,3.48-2.57,1.29-.39,2.55-.91,3.9-1.02.78.74,1.12,1.79,1.17,2.85-.68.77-1.75,1.52-3.02,2.2-19.25,10.38-30.9,25.74-39.11,45.05l-.85-.07c-1.37.19-2.3-.69-2.96-2.15-9.88-21.77-24.1-37.52-46.47-46.72-.84-.34-1.3-.88-1.65-1.3.14-.99.51-1.93.95-2.83,4.4.28,6.9,3.31,10.98,3.77Z" fill="#6e360c"/><path d="M84.31,78.55c.56-.32,1.43.06,2.01.09-.07.73.45.76,1,.79,1.35.07,9.8,2.76,9.06,2.41,0,1.87,1.91,3.04,3.91,3.96,2.15-2.23,4.58-2.43,7.03-1.96-.39.65-.72,1.32-1.02,2.01-.44.9-.82,1.83-.95,2.83-1.85.16-3.6-.84-5.7-1.49l-15.95-4.98c-1.77-.55-3.35-1.07-4.38-2.22,1.8.08,3.45-.58,4.99-1.45Z" fill="#6b3711"/><path d="M165.47,70.8c-1.25,3.24,11.49,3.54,9.85,1.24l5.19.86c-.03.61-.32,1.62.13,2.38,2.81.16,5.37.79,7.75,2.41,1.28-.69,10.61,2.73,9.06,3.91-49.88-17.04-87.52,2.2-89.12,2.24-.1-.47-.13-1.07.11-1.5.28-.51,1.06-.42,1.82-.76l8.12-3.61c1.76-.78,3.92.1,5.57-.69,3.21-1.54,6.23-1.66,9.69-1.9-.31-2.18-1.93-1.7-2.37-2.55.99-.22,2.06-.33,3.07-.33.21.31.36.97.7,1.11.67.28,1.12-.04,1.33-.42.34-.62.55-1.07.06-1.47,2.96-.34,5.94-.67,8.91-.24.39-.19.72-.46,1-.79,6.39-.45,12.79-.54,19.15.11Z" fill="#6b3711"/><path d="M222.2,79.81c-.21,3.7-8.38,5.37-12.12,6.41-1.38-.43-3.19-2.1-4.8-1.22-.95-.5-1.92-.94-2.96-1.22.02-.45-.03-1.01-.18-1.5-.09-.3-.44-.64-1.03-.47-.35.1-.57.69-.79.9-1.04-.1-1.92-.79-2.88-1.12,1.55-1.18-7.78-4.6-9.06-3.91-2.38-1.61-4.94-2.25-7.75-2.41-.45-.76-.16-1.77-.13-2.38,10.04,1.67,19.57,5.16,29.23,9.6,1.67.77,4.11.18,5.6-.6,2.42-1.27,4.78-1.3,6.87-2.09Z" fill="#693714"/><path d="M197.44,81.6c.95.33,1.84,1.01,2.88,1.12.19.92,1.18,1.09,2,1.07,1.04.27,2.01.72,2.96,1.22-.21,1.45-5.36,1.82-7.04,3.83-1.35.11-2.61.62-3.9,1.02.05-.22.1-.76.27-1,.2-.28-.24-1.13-1.03-1.37-23.84-7.41-49.17-8-73.13-.82-1.85.55-3.16,1.4-3.17,2.98-4.09-.47-6.59-3.49-10.98-3.77.3-.69.63-1.37,1.02-2.01.31.06.69,0,1-.01,1.6-.05,39.24-19.28,89.12-2.24Z" fill="#f5cd77"/><path d="M194.34,89.85c-.76,1.11-2.02,1.71-3.48,2.57-13.5,7.91-24.27,19.27-31.53,33.1-1.43,1.92-2.1,3.89-3.51,6.31-10.11-18.53-17.73-28.96-36.38-40.16-1.04-.63-1.72-1.29-2.15-2.03,0-1.58,1.32-2.43,3.17-2.98,23.97-7.18,49.29-6.59,73.13.82.79.24,1.23,1.09,1.03,1.37-.17.23-.22.77-.27,1Z" fill="#f1bb3c"/><path d="M202.32,83.79c-.82.02-1.81-.15-2-1.07.22-.22.43-.81.79-.9.59-.16.93.18,1.03.47.16.49.21,1.06.18,1.5Z" fill="#6b3711"/><path d="M175.57,204.09c.06-.45-.27-.93-.26-1.38,2.5-1.56,1.01-9.29-1.76-13.25-4.59-6.55-13.23-13.19-21.66-10.08-10.04,3.7-19.98,13.93-15.51,23.42.03.29-.25.66-.17.93-16.97,14.72-43.72,15.62-59.81-.14,1.57-.28,2.96.7,4.69,1.37,6.58,2.53,19.58,1.11,19.58-5.76,0-1.46-.74-3.44-2.5-4.48-8.46-5.01-20.67-2.31-22.58,2.79-.64,1.71-.05,3.21.81,6.08-.83-.17-1.69-.47-2.64-1.41-11.23-11.12-16.46-27.17-12.86-42.88,3.77-16.49,16.31-29.02,32.32-33.7,4.91-1.44,9.35-1.2,14.2-.12,40.05,8.96,43.41,37.36,48.38,37.36.99,0,2.05-.74,2.65-1.93,5.74-11.53,13.58-21.68,25.25-27.93,8.32-4.46,17.82-8.38,27.66-8.23,12.88.2,24.58,7.96,31.83,18.12,12.48,17.48,11.35,40.6-2.9,56.81-16.72,19.02-45.69,20.19-64.74,4.42ZM135.85,169.44c0-14.25-11.55-25.8-25.8-25.8s-25.8,11.55-25.8,25.8,11.55,25.8,25.8,25.8,25.8-11.55,25.8-25.8ZM227.69,169.49c0-14.23-11.53-25.76-25.76-25.76s-25.76,11.53-25.76,25.76,11.53,25.76,25.76,25.76,25.76-11.53,25.76-25.76ZM235.89,198.42c-.13-1.32-.98-2.77-2.58-3.69-9.78-5.63-23.07-1.45-22.93,4.53.04,1.7,1.09,3.5,3.05,4.59,9.85,5.49,23.08.93,22.46-5.43Z" fill="#fafbf9"/><circle cx="188.32" cy="214.21" r=".65" fill="#6e360c"/><circle cx="191.82" cy="215.21" r=".5" fill="#6e360c"/><path d="M235.89,198.42c.61,6.36-12.61,10.92-22.46,5.43-1.96-1.09-3.01-2.89-3.05-4.59-.14-5.98,13.15-10.17,22.93-4.53,1.6.92,2.45,2.37,2.58,3.69Z" fill="#d8c19d"/><path d="M76.43,203.59c-.86-2.87-1.44-4.38-.81-6.08,1.91-5.1,14.12-7.8,22.58-2.79,1.76,1.04,2.5,3.02,2.5,4.48,0,6.88-13.01,8.3-19.58,5.76-1.73-.67-3.12-1.65-4.69-1.37Z" fill="#d8c19d"/><path d="M135.85,169.44c0,14.25-11.55,25.8-25.8,25.8s-25.8-11.55-25.8-25.8,11.55-25.8,25.8-25.8,25.8,11.55,25.8,25.8ZM104.53,154.13c-3.08-.73-6.51-.78-9.02,1.6s-.18,5.02-.97,7.91c-1.93,7.01-.36,15.15,6.14,19.7,5.42,3.8,12.39,3.83,17.64.88,5.82-3.27,8.98-9.47,8.33-16.54-.48-5.19-3.27-9.42-6.93-11.94-4.42-3.03-9.79-3.48-15.19-1.61Z" fill="#3eb8a2"/><path d="M94.54,163.63c3.08,2.72,6.7,4.94,10.78,1.52,2.6-2.18,3.09-5.8,1.12-8.75-.65-.98-1.52-1.52-1.91-2.28,5.4-1.87,10.78-1.43,15.19,1.61,3.66,2.52,6.46,6.74,6.93,11.94.65,7.07-2.52,13.27-8.33,16.54-5.25,2.95-12.22,2.92-17.64-.88-6.49-4.55-8.07-12.69-6.14-19.7ZM120.88,178.32c0-1.57-1.27-2.85-2.85-2.85s-2.85,1.27-2.85,2.85,1.27,2.85,2.85,2.85,2.85-1.27,2.85-2.85Z" fill="#1f6056"/><path d="M104.53,154.13c.39.76,1.26,1.3,1.91,2.28,1.97,2.95,1.48,6.57-1.12,8.75-4.08,3.42-7.7,1.19-10.78-1.52.8-2.89-1.44-5.62.97-7.91s5.93-2.33,9.02-1.6Z" fill="#fafbf9"/><circle cx="118.03" cy="178.32" r="2.85" fill="#e7e8e9"/><path d="M227.69,169.49c0,14.23-11.53,25.76-25.76,25.76s-25.76-11.53-25.76-25.76,11.53-25.76,25.76-25.76,25.76,11.53,25.76,25.76ZM196.19,154.48c-3.21-1.46-7.18-.67-9.39,2.59-1.29,1.9.24,4.32-.32,6.64-3.43,7.81.17,16.72,8.11,20.8,5.95,3.06,12.53,2.48,17.97-2,5.73-4.71,7.66-13.52,4.39-20.42-3.81-8.04-13.46-11.69-20.76-7.61Z" fill="#3eb8a2"/><path d="M186.47,163.71l3.49,2.42c2.2,1.52,5.25.72,7.04-1.17,3.22-3.41,2.29-7.4-.81-10.47,7.3-4.07,16.95-.42,20.76,7.61,3.27,6.9,1.34,15.7-4.39,20.42s-12.03,5.06-17.97,2c-7.94-4.08-11.54-12.99-8.11-20.8ZM212.52,178.33c0-1.54-1.25-2.79-2.79-2.79s-2.79,1.25-2.79,2.79,1.25,2.79,2.79,2.79,2.79-1.25,2.79-2.79Z" fill="#1f6056"/><path d="M196.19,154.48c3.1,3.07,4.03,7.06.81,10.47-1.79,1.89-4.84,2.7-7.04,1.17l-3.49-2.42c.56-2.32-.97-4.73.32-6.64,2.21-3.26,6.18-4.05,9.39-2.59Z" fill="#f4f5f5"/><circle cx="209.73" cy="178.33" r="2.79" fill="#f4f5f5"/></svg>