<?xml version="1.0" encoding="UTF-8"?><svg id="Layer_1" xmlns="http://www.w3.org/2000/svg" viewBox="0 0 311.81 311.81"><path d="M44.67,43.82c-2.4-.32-4.96-.47-7.08.84.71-1.08,1.51-2.52,3.19-2.96,2.06-.55,3.7.45,3.89,2.13Z" fill="#693714"/><path d="M273.92,47.58c-.52-.1-1.07.21-1.19.61-.21.69,0,1.3.52,1.47.45.15,1.03-.05,1.53,0,.4,5.05,1,10.13-.31,15.07-1.45-.57-.05-2.44-1.23-3.09-2.92-1.61-.35,8.82-.43,7.02.88,3.43-4.82,12.08-3.98,13.35.94,1.42,3.93-.47,5.67,1.31,4.19,4.27-3.43,13.87-2.65,17.36-2.55-.14-3.53,2.33-4.52,4.14-1.24.71-4.2,1.12-3.7,3.87.78,4.26,4.2,7.31,4.35,10.88.02.58.15,1.1.86,1.08,1.24,2.9,2.75,5.8,2.13,9-.4,2.31-.22,4.66-.24,7-.64.59-.8,1.11-.76,2,.06,1.43-1.79,2.16-2.28,5.04-.17.99-.59,1.95-.71,2.96-.04.4-.23.82-.13,1.38.09.47.36.82.97.62.05.66.18,1.33.13,2-.03.39-.13.82-.03,1.39.07.35.35.69.89.65.04.33.01.67.03,1-.08.67-.66,5.79,1.01,4.97.03.32.06.67.04,1-.11,2.14-.93,4.53.84,6.07.68.59.79,2.1.85,2.93-1.26-2.63-1.26,13.61,0,11-.05.8-.01,2.44-.69,3-1.82,1.09-1.27,3.15-.92,5-.09.27-.04.7-.08,1-1.57.01-1.2,1.92-1.03,3,.05.31.01.69-.03,1-1.52.07-1.11,1.95-.92,3,.06.31-.04.68-.06,1-.57-.13-.9.17-.98.61-.1.55-.01.99,0,1.39.02.32,0,.68-.04,1-1.64.65-2.02,2.53-2.06,4.14-.25.51-.5,1.41-1,1.8-1.61,1.32-2.71,3.09-3.11,5.1-.51,2.54-2.82,4.12-4.68,6.17s-2.48,4.68-5.05,6.11-6.08,3.42-6.33,6.44c.09,2.22,3.28,3.54,4.91,4.12-1.21,1.34-2.14,3.39-3.82,3.99-.29-.48-.95-.71-1.25-1.16-1.2-1.78-2.26-3.81-4.67-5.06l-7.49,3.99c-1.32,2.52-1.59,5.11-1.79,7.56-2.62,3.4-6.09,5.75-9.9,7.71-2.48-.06-5,.25-8.25-1.08-3.24,6.55-9.83,3.44-14.56,4.89.56-.36-5.5-4.26-7.16-5.88-32.48,5.67-64,3.34-94.77-5.88-7.99-2.4-15.25-7.46-23.45-10.73-2.32-.92-3.98,2.29-4.73,3.89-.35.18-.67.39-.96.65-1.41-.23-3.4-.85-3.22-2.78.86-1.93,2.59-2.83,4.42-5-2.87-1.57-4.41-3.74-6.44-5.78l-4.47-4.49c-6.72-6.76-11.77-15.47-14.59-24.6-7.26-23.5-.26-49.8,11.62-70.63,1.46-2.57,4.15-4.48,4.43-7.59.1-1.1-2.14-1.53-2.75-1.79-.34-.28-.65-.86-1.09-.98-.68-.18-1.54-.31-1.92-1.02-.41-.76-1.07-1.28-1.98-1.2-.31-.18-.6-.79-.93-.92.59.24-5.88-7.12-4.22-3.15-.54-.34-.86.04-1.46.22-.2-2.15-1.65-3.79-3.45-4.89.75-2.27-6.58-16.75-2.38-18.17,1.25-.42,1.75,2.17,3.66,1.55.74-.24.59-1.03.62-1.71h.84c1.8.27,1.25-1.13-.2-.92,0-.33.03-.69.09-1.01.32-1.71-.17-3.38-1.65-4.85-2.84-2.84-.97-6.57-4.03-7.05,0-.66-.16-1.33-.12-2,.23-4.38.08-8.86-.54-13.54.8-3.03.22-5.82.55-8.46.04-.3-.05-.73.07-1,2.13-1.3,4.68-1.16,7.08-.84.32.33.62.69.89,1.06.11,2.61,1.48,4.98,1.25,7.62-.5-.23-1.02-.62-1.55-1.29-1.29-1.47-1.74-3.27-3.8-4.71-2.81,6.32-2.25,12.98-.51,19.15,1.83,9.73,7.73,18.44,15.24,25.23.69.62.11,2.15-.15,2.66-1.33,2.64-13.01-5.26-16.01-6.28-1.3,2.8.79,4.03,1.54,5.3.84,4.33,3.89,7.77,7.22,11.1,7.73,7.71,10.05,6.17,17.85,10.8-.17.99-.26,2-.2,3.01-4.07-1.46-5.77,4.35-6.57,5.27-3.54,4.04-5.12,9.16-7.3,13.83-2.01,4.32-4.42,8.31-5.34,13.77.06-.37-2.42,7.74-3.25,14.55-1.18,9.6.86,21.38.93,20.85-.08.59.62,1.23.72,1.8-.29,1.59.31,3.17.92,4.99,5.55,16.71,16.88,29.79,32.34,38,32.06,17.02,75.09,19.76,110.38,14.06.79-2.98.56-5.29.28-7.59-.08-.62-.3-1.4-1.14-1.94-7.88-5.03-8.8-10.85-11.5-12.48-.4-2.51-2.86-4.31-1.09-7.21.36-.59,1.8-1.3,2.89-.67,6.1,3.53,12.49,7.26,19.69,7.1.39-.73.47-2.73.03-3.17-8.52-.99-16.36-4.5-23.17-9.57-.88-.66-1.65-.98-2.41-.59-.64.33-.26,1.56-.72,2-3.45,3.31-1.12,3.21-3.87,5.02.19-1.57-1.6-1.88-2.83-1.93l-.15-.83c.51.21,1.38-.61,1.44-1.19.11-1.02.58-1.97,1.02-2.89,1.04-.5.76-2.55,1.8-3.27,1.64-1.13,3.92-.69,5.32-1.88,7.31,5.86,15.61,10.35,25.59,10.87,4.53-5.65,11.92-7.41,18.2-3.76,1.73,1,3.37,1.14,5.27.28,12.66-5.73,16.6-13.28,18.78-14.22,1.67-.72,6.07-7.33,5.74-10.03-.04-.32.07-.68.1-1,1.43,1.01,4.46-10.12,2.36-10,0-.59.15-1.22.05-1.81,2.58,1.92,1.83-7.06,1.64-8.15l-1.17-6.87c-1.69-9.97-4.31-10.24-7.51-13.29-7.86-7.49-2.05-10.91-10.19-13.04-2.58-.68-13.17-8.38-23.02-7.93-9.49.43-18.36,4.01-26.62,8.2-8.64,4.38-15.52,10.7-20.46,18.87l-5.61,9.28c-.52.86-1.23,1.48-1.9,1.57-.84.12-2.14-.45-2.73-1.5-11.19-19.87-21.41-29.24-44.02-35.12-5.76-1.5-10.82-2.07-16.59-.27-17.15,5.35-30.26,19.29-32.69,37.44-2.48,18.58,6.64,36.16,22.69,45.62,14.8,8.73,32.61,8.23,47.22-.57,2.2-1.33,4.07-2.54,6.04-3.42-.69,1.02-.2,2.75-.16,3.88-.25,1.21-1.36,1.77-2.63,2.58-21.23,13.44-49.1,9.29-64.94-9.09-20.75-24.07-15.9-55.9,9.41-74.35.17-.12,10.43-4.66,9.84-5.82.61-.26,1.58-.38,1.97-.98.45-.68.38-1.52.28-2.23,10.61,2.04,21.65,2.59,32.25,6.86,16.67,6.71,24.14,15.74,33.7,30.72,8.03-13.81,17.28-23.8,31.67-29.81,21-8.78,39.72-7.31,54.96-12.28,2.91-.95,3.16-4.55,4.36-6.43s2.91-3.64,3.99-6.14c1.47-3.41,4.52-3.16,6.96-2.12.49,1.75,1.75,3.17,3.5,4.6,4.67-3.83,7.74-9.27,9.94-15.68-2.63-2.13-4.05,1.65-5.56,2.23l-8.76,3.38c-1.2.46-1.97-.58-2.56-1.06-.98-.79.09-1.77,1.08-2.71,8.44-7.99,14.16-18.34,15.28-29.57.5-4.66.4-9.39-1.5-14.34-4.03,3.54-5.68,9.26-9.33,12.23-.61-2.38.53-4.66.8-7.04.46-.42.44-1.45,1.15-1.8.53-.2.8-.69.91-1.22.4-2.02,1.4-4.17,3.29-5.73,1.76-1.45,4.41-1.05,5.98.17,1.39,1.08,1.98,2.86,2.02,4.64ZM243.95,122.74c.06.22.02.7-.05.92-1.88.05-1.25,2.52-2.03,3.73-4.08,6.31.39,14.76,6.41,18.81,4.35,2.92,8.6,1.71,12.53-.36,10.79-5.69,9.29-15.5,4.82-25.07l-2.52-5.41c-.12-.25-6.85-12.53-8.31-13.32-2.57,2.68-3.16,5.34-4.9,7.96s-7.05,9.67-5.95,12.75ZM237.55,130.74c1.36-5.12,2.02-7.73,4.1-11.83l-18.92,3.27c5.25,2.3,9.91,5.02,14.82,8.56ZM227.57,226.58c.52,1.61,1.17,3.78,3.28,4.87,15.92-8.63,32.23-23.47,34.82-43.09.53-4.06,2.24-7.94,2.03-12.7-.43-9.47-1.11-18.62-4.28-27.11-3.84,1.62-6.94,1.72-10.91,2.35,9.16,26.74-2.49,53.7-28.88,64.73,3.52,5.85.12,9.78,3.96,10.95ZM194.57,238.94c-2.04,5.3,1.26,10.16,6.08,11.23,4.19.93,8.43-1.77,10.29-6.72,3.8,3.05,8.36,3.61,12.14.91,3.29-2.35,4.98-6.93,3.01-11.32-1.23-2.75-4.09-3.94-6.58-5.37l1.82-5.38c1.59-4.71-3.77-8.86-8.79-9.3-5.42-.47-10.51,3.72-9.53,9.44.21,1.21,1.57,3.53-.5,3.73-7.31.72-14.03-1.51-20.77-4.54,2.98,5.86,7.93,9.41,13.41,12.64,1.68.99-.03,3.26-.57,4.67Z" fill="#6a3610"/><path d="M271.84,100.68c3.91,5.4,7.21,17.34,9.03,24.82,6.89,28.29,4.31,57.8-8.19,84.12-5.74,12.08-12.4,22.85-21.72,32.25-4.04,4.07-7.67,8.27-12.14,11.81l-5.59,4.42c-7.74,6.12-17.35,11.46-26.52,15.31-23.47,9.85-44,11.76-69.37,8.64-13.57-1.67-31.83-7.72-43.54-14.59-7.38-4.33-14.05-8.91-20.77-14.26-4.41-3.51-7.97-7.83-12.04-11.78s-6.92-8.3-10.29-12.67c-14.31-18.58-22.24-44.6-23.4-68.04-1.54-31.14,11.02-54.6,11.47-58.79l1.9-.09c1.8,1.1,3.25,2.74,3.45,4.89l-3.33,7.88c-3.22,7.63-5.02,15.75-5.76,24.08l-1.15,12.98c-.21,2.34-.13,4.67-.01,7,.76,15.11,3.71,32.84,10.75,47,3.78,7.6,12.74,23.55,18.89,28-.18,1.93,1.81,2.55,3.22,2.78-.22,2.25,1.68,3.37,3.16,4.97,6.21,6.71,13.31,11.28,20.45,15.97,66.74,43.87,122.11,2.72,132.3-.56l2.51-.81c8.47-2.73,15.29-11.13,20.55-18.48,1.68-.6,2.61-2.64,3.82-3.99,2.14-2.37,8.49-10.17,10-13.06,4.07-7.83,8.45-15.04,11.51-23.5,11.27-31.08,8.68-62.59-3.74-92.17,1-1.81,1.97-4.28,4.52-4.14Z" fill="#7e431b"/><path d="M246.71,65.78c.09,3.29-2.59,2.53-3.88,3.96-.34-.14-.77-.11-1.1-.27-2.42-1.16-3.91-3.78-6.22-5.54l-9.75-7.41c-14.7-11.18-32.29-17.23-50.61-20.3-29.31-4.92-63.24,2.16-87.35,19.42l-8.22,5.89c-2.66,1.91-4.45,5.01-7.66,5.28-4.47-2.5-5.06-.09-7.33-.28,28.03-28.09,64.57-41.3,105.08-37.49,23.58,2.22,48.07,12.61,66.33,27.34l8.26,6.66c1.11.9,2.12,1.62,2.45,2.74Z" fill="#7b421d"/><path d="M42.59,83.49c-.03.68.12,1.47-.62,1.71-1.9.62-2.41-1.97-3.66-1.55-4.21,1.42,3.13,15.9,2.38,18.17l-1.9.09c.66-6.12-6.74-13.56-3.09-18.35,1.55-2.04,5.06-.64,6.89-.07Z" fill="#693714"/><path d="M77.73,127.7c-25.32,18.44-30.17,50.28-9.41,74.35,15.84,18.37,43.72,22.53,64.94,9.09,1.27-.81,2.38-1.37,2.63-2.58,3.06-1.6,5.82,7.27,5.82,7.24-.03,1.02-.59,2.14.46,3.54,2.79,3.75,8.18,13.3,13.47,12.76,7.39-.75,14.98-14.99,17.23-20.61.31-1.07,1.62-.97,2.35-.88,1.31.15,1.81,1.43,1.51,2.47-.19.67-1.11,1.04-1.74,1.9-1.8,2.47-.36,6.22,1.94,7.61,2.69,1.63,3.62,7.45,11.5,12.48.83.53,1.06,1.32,1.14,1.94-25.97,3.07-49.66,3.77-75.95-2.07-25.07-5.57-45.86-13.88-60.57-35.51-4.45-6.54-5.26-11.78-7.4-11.88-.1-.57-.8-1.21-.72-1.8,1.85,1.28.26-12.8.26-12.82l.69-9.29c.34-4.52,1.46-9.01,2.65-13.22l1.56-5.53c.84-2.97,2.62-5.41,2.49-8.31,2.18-4.67,3.76-9.79,7.3-13.83,5.69,1.63,11.21,3.63,17.57,4.12.33.02.35.67.29.84Z" fill="#f1ba3c"/><path d="M197.81,254.39c4.74-1.45,11.33,1.66,14.56-4.89,3.25,1.33,5.77,1.01,8.25,1.08-.18,2.27.39,4.62,2.04,6.24-10.18,3.28-65.56,44.43-132.3.56-.03-2.74,1.65-5.03,2.42-7.61,15.81,4.5,28.56,8.2,46.01,9.25,20.15,1.21,40.32,1.08,59.02-4.63Z" fill="#f6eed7"/><path d="M189.56,237.01c.28,2.3.51,4.61-.28,7.59-35.29,5.7-78.32,2.96-110.38-14.06-15.47-8.21-26.8-21.3-32.34-38-.6-1.81-1.21-3.39-.92-4.99,2.15.1,2.96,5.34,7.4,11.88,14.71,21.63,35.5,29.94,60.57,35.51,26.29,5.84,49.98,5.14,75.95,2.07Z" fill="#d29235"/><path d="M265.66,188.36c-.58-.74-.99-.28-1.42.52-3.21,5.99-5.98,11.88-10.34,16.94-5.25,6.1-11.03,11.1-17.97,15.13-.63.37-9.87,5.79-8.36,5.64-3.83-1.17-.43-5.1-3.96-10.95,26.39-11.03,38.04-37.99,28.88-64.73,3.97-.63,7.08-.73,10.91-2.35,3.17,8.48,3.85,17.64,4.28,27.11.22,4.75-1.49,8.64-2.03,12.7Z" fill="#f1ba3d"/><path d="M197.81,254.39c-18.7,5.71-38.87,5.84-59.02,4.63-17.45-1.05-30.2-4.75-46.01-9.25l-.07-.84c1.73-1.7,3.13-3.83,3.17-6.3,30.77,9.22,62.29,11.55,94.77,5.88,1.66,1.62,7.72,5.51,7.16,5.88Z" fill="#d8c19d"/><path d="M243.9,123.66c.07-.22.11-.7.05-.92,1.88-.7,4.76-8.82,7.25-12.66,1.14-1.76,2.25-4,3.16-5.57,2.38.41,2.79,2.55,3.57,4,4.06,7.46,8.08,14.78,9.51,23.47.51,3.11-1.21,7.68-3.19,10.24-2.39,3.1-7.28,4.04-10.76,3.91-6.35-.24-10.64-4.1-11.29-10.34-.44-4.24.27-8.5,1.69-12.13ZM264.03,131.63c0-1.47-1.19-2.67-2.67-2.67s-2.67,1.19-2.67,2.67,1.19,2.67,2.67,2.67,2.67-1.19,2.67-2.67Z" fill="#ace1ee"/><path d="M265.66,188.36c-2.58,19.62-18.89,34.46-34.82,43.09-2.11-1.08-2.75-3.26-3.28-4.87-1.51.16,7.73-5.27,8.36-5.64,6.94-4.03,12.72-9.03,17.97-15.13,4.36-5.06,7.14-10.95,10.34-16.94.43-.8.84-1.26,1.42-.52Z" fill="#d29235"/><path d="M95.88,242.63c-.04,2.48-1.45,4.6-3.17,6.3-7.09-1.39-13.8-6.06-20.11-10.05l-4.89-3.1c.74-1.6,2.41-4.81,4.73-3.89,8.2,3.27,15.45,8.33,23.45,10.73Z" fill="#d29235"/><path d="M92.7,248.94l.07.84c-.77,2.58-2.44,4.88-2.42,7.61-7.14-4.69-14.24-9.26-20.45-15.97-1.48-1.6-3.38-2.72-3.16-4.97.29-.26.61-.48.96-.65l4.89,3.1c6.3,3.99,13.02,8.66,20.11,10.05Z" fill="#f1ba3d"/><path d="M244.47,236.37c.3.45.96.68,1.25,1.16-5.26,7.35-12.08,15.75-20.55,18.48l-2.51.81c-1.65-1.62-2.22-3.98-2.04-6.24,3.81-1.96,7.28-4.31,9.9-7.71,3.13.27,10.61-5.82,13.95-6.5Z" fill="#f1ba3d"/><path d="M66.44,117.47c6.76,2.42,14.01,3.52,21.13,4.41.59,1.16-9.67,5.69-9.84,5.82.06-.17.04-.81-.29-.84-6.36-.48-11.88-2.49-17.57-4.12.8-.92,2.5-6.73,6.57-5.27Z" fill="#d29235"/><path d="M244.47,236.37c-3.34.68-10.82,6.77-13.95,6.5.21-2.45.47-5.04,1.79-7.56l7.49-3.99c2.41,1.24,3.47,3.28,4.67,5.06Z" fill="#d29235"/><path d="M44.92,185.74c-.08.53-2.11-11.25-.93-20.85.83-6.81,3.31-14.92,3.25-14.55.91-5.46,3.32-9.46,5.34-13.77.13,2.9-1.65,5.33-2.49,8.31l-1.56,5.53c-1.19,4.21-2.32,8.7-2.65,13.22l-.69,9.29s1.59,14.1-.26,12.82Z" fill="#ebb453"/><path d="M243.9,123.66c-1.42,3.64-2.13,7.9-1.69,12.13.65,6.25,4.94,10.1,11.29,10.34,3.48.13,8.37-.81,10.76-3.91,1.97-2.56,3.7-7.13,3.19-10.24-1.43-8.69-5.45-16.01-9.51-23.47-.79-1.45-1.19-3.59-3.57-4-.91,1.57-2.02,3.81-3.16,5.57-2.49,3.84-5.38,11.95-7.25,12.66-1.11-3.07,4.28-10.23,5.95-12.75s2.33-5.28,4.9-7.96c1.46.78,8.19,13.07,8.31,13.32l2.52,5.41c4.47,9.57,5.97,19.38-4.82,25.07-3.93,2.07-8.18,3.28-12.53.36-6.02-4.04-10.48-12.5-6.41-18.81.78-1.21.15-3.68,2.03-3.73Z" fill="#5d3b1e"/><path d="M271.59,179.66c-1.26,2.61-1.26-13.63,0-11,.26,3.66.24,7.34,0,11Z" fill="#5d3b1e"/><path d="M270.73,136.66c.01-2.34-.16-4.69.24-7,1.18,2,1.59,5.31-.24,7Z" fill="#5d3b1e"/><path d="M270.74,165.73c-1.76-1.54-.94-3.94-.84-6.07,1.23-1.15.85,5.79.84,6.07Z" fill="#5d3b1e"/><path d="M269.86,158.66c-1.67.82-1.09-4.3-1.01-4.97,1.41,1.25.83,3.26,1.01,4.97Z" fill="#5d3b1e"/><path d="M269.98,187.66c-.36-1.85-.9-3.91.92-5-.22,1.7.29,3.62-.92,5Z" fill="#5d3b1e"/><path d="M267.7,143.7c.48-2.89,2.33-3.61,2.28-5.04,2.1-.64-.9,5.38-2.28,5.04Z" fill="#5d3b1e"/><path d="M267.92,195.66c-.19-1.05-.61-2.93.92-3-.13,1.01.28,2.59-.92,3Z" fill="#5d3b1e"/><path d="M268.87,191.66c-.17-1.08-.54-2.99,1.03-3-.15,1.03.16,2.55-1.03,3Z" fill="#5d3b1e"/><path d="M267.83,148.66c-.61.2-.88-.16-.97-.62-.1-.56.09-.98.13-1.38.88.23.78,1.27.84,2Z" fill="#5d3b1e"/><path d="M266.9,198.66c-.02-.4-.11-.85,0-1.39.08-.44.4-.73.98-.61-.04.76-.08,1.8-.97,2Z" fill="#5d3b1e"/><path d="M260.68,210.7c.4-2.01,1.5-3.78,3.11-5.1-.26,1.95-1.56,3.85-3.11,5.1Z" fill="#5d3b1e"/><path d="M268.82,152.69c-.54.05-.82-.29-.89-.65-.11-.56,0-1,.03-1.39.9.2.77,1.31.86,2.03Z" fill="#5d3b1e"/><path d="M264.79,203.8c.04-1.61.42-3.5,2.06-4.14-.2,1.6-.87,3.06-2.06,4.14Z" fill="#5d3b1e"/><path d="M268.84,120.66c-.72.02-.84-.5-.86-1.08.74-.39.68.66.86,1.08Z" fill="#5d3b1e"/><path d="M176.93,222.59c-2.3-1.39-3.75-5.13-1.94-7.61.63-.86,1.54-1.23,1.74-1.9.3-1.04-.19-2.32-1.51-2.47-.73-.09-2.04-.19-2.35.88-.2-.36-.45-.69-.72-1.01.46-.44.08-1.67.72-2,.76-.39,1.53-.07,2.41.59,6.8,5.07,14.65,8.58,23.17,9.57.45.44.36,2.44-.03,3.17-7.2.16-13.58-3.56-19.69-7.1-1.09-.63-2.53.08-2.89.67-1.76,2.89.69,4.7,1.09,7.21Z" fill="#ebb453"/><path d="M194.57,238.94c.54-1.41,2.25-3.68.57-4.67-5.48-3.23-10.42-6.78-13.41-12.64,6.73,3.03,13.46,5.26,20.77,4.54,2.07-.2.71-2.52.5-3.73-.99-5.71,4.1-9.91,9.53-9.44,5.02.44,10.38,4.58,8.79,9.3l-1.82,5.38c2.49,1.44,5.35,2.62,6.58,5.37,1.97,4.38.28,8.96-3.01,11.32-3.78,2.7-8.35,2.14-12.14-.91-1.86,4.95-6.1,7.65-10.29,6.72-4.82-1.07-8.11-5.93-6.08-11.23Z" fill="#e7e8e9"/><path d="M33.89,158.66c-.12-2.33-.2-4.66.01-7,1.22-1.46,1.23,8.45-.01,7Z" fill="#5d3b1e"/><path d="M81.73,77.43c-1.3.53-2.55-.01-4.03-.7l-6.18-2.88c-.82-.38-2.09-.41-1.82-1.48.09-.36.41-.55.86-.71,2.56,2.37,11.51,4.54,11.17,5.77Z" fill="#693714"/><path d="M233.73,132.51c3.55,4.57,2.77.59,5.25,7.93,1.29,3.81,7.93,6.9,9.87,13.08,3.3,10.47,1.11,14.64,2.1,20.33.1.59-.04,1.22-.05,1.81-.35,6.74-1.56,2.31-2.36,10-.03.32-.14.68-.1,1-1.82,3.16-3.94,6.82-5.74,10.03-2.18.93-6.12,8.48-18.78,14.22-1.9.86-3.54.72-5.27-.28-6.28-3.65-13.67-1.89-18.2,3.76-9.97-.52-18.28-5.01-25.59-10.87-.02-.26.06-.53.03-.79.88.54.8-.21.84-1.05,2.97-10.03-8.24-21.4-17.16-22.66-12.77-1.8-25.84,11.34-23.12,22.23.33,1.33,1.32,2.38.6,3.43-1.98.88-3.84,2.1-6.04,3.42-14.62,8.8-32.42,9.3-47.22.57-16.05-9.46-25.18-27.05-22.69-45.62,2.43-18.15,15.54-32.09,32.69-37.44,5.77-1.8,10.83-1.23,16.59.27,22.61,5.88,32.83,15.25,44.02,35.12.59,1.05,1.89,1.61,2.73,1.5.66-.09,1.38-.71,1.9-1.57l5.61-9.28c4.94-8.17,11.83-14.49,20.46-18.87,8.26-4.19,17.13-7.76,26.62-8.2,9.85-.45,20.44,7.26,23.02,7.93ZM126.87,179.12c3.87-2.86-4.4-17.73-18.52-19.91-18.02-2.78-30.05,14.78-26.59,17.99.61.57,1.75.66,2.62-.05,25.37-20.69,38.58,4.87,42.49,1.98ZM226.42,176.83c.89.79,2.43.68,3.14.11,3.5-2.76-10.38-23.63-30.58-16.75-11.59,3.95-18.21,16.48-14.32,18.93.67.42,2.02.45,3.11-.57,12.39-11.48,25.47-13.39,38.64-1.73Z" fill="#fdfcfb"/><path d="M250.96,173.85c-.99-5.69,1.2-9.86-2.1-20.33-1.95-6.18-8.59-9.27-9.87-13.08-2.48-7.34-1.7-3.36-5.25-7.93,8.14,2.13,2.33,5.55,10.19,13.04,3.2,3.05,5.82,3.32,7.51,13.29l1.17,6.87c.18,1.09.94,10.06-1.64,8.15Z" fill="#5d3b1e"/><path d="M248.55,185.66c.79-7.69,2.01-3.26,2.36-10,2.1-.12-.92,11.01-2.36,10Z" fill="#5d3b1e"/><path d="M242.71,196.69c1.8-3.21,3.92-6.87,5.74-10.03.33,2.7-4.07,9.32-5.74,10.03Z" fill="#5d3b1e"/><path d="M126.87,179.12c-3.91,2.89-17.12-22.66-42.49-1.98-.87.71-2.01.62-2.62.05-3.46-3.21,8.57-20.77,26.59-17.99,14.12,2.18,22.39,17.05,18.52,19.91Z" fill="#693714"/><path d="M226.42,176.83c-13.17-11.66-26.26-9.75-38.64,1.73-1.1,1.02-2.44,1-3.11.57-3.89-2.45,2.73-14.99,14.32-18.93,20.2-6.88,34.08,13.98,30.58,16.75-.71.56-2.25.68-3.14-.11Z" fill="#693714"/><circle cx="261.36" cy="131.63" r="2.67" fill="#efefef"/><path d="M53.7,56.53c.48-.01.72.78,1.04.99-.08.98.12,2.08,1.04,3.06l4.4,4.73c.78.84,1.62,1.12,2.45,1.08.66-.03,1.32.07,1.97.12,2.27.2,2.86-2.22,7.33.28-.32,1.67-1.4,3.18-1.36,4.86-.45.15-.78.35-.86.71-.27,1.07,1,1.1,1.82,1.48l6.18,2.88c1.48.69,2.73,1.23,4.03.7.71-.4,10.7,3.07,11.06,3.25-.36.93-.78,1.61-.29,2.57l9.26.46c5.57.27,16.46-6.15,21.8-6.75-.4-1.26-.92-1.57-.92-2.09.95-.16,2.21-.35,3.12-.43-1.09,2.41,7.89,1.15,9.96.06,1.03.42,1.79.35,2.27-.79-.54-.9-1.08-1.38-1.31-1.99,9.6-1.38,19.38-1.91,29.03-.93l-2.06,2.01c4.37,1.16,8.23.77,12.05-.14s8.11,1.24,11.89,2.17c-.08,1.18.55,2.17,1.82,2.44.84.18,1.6-.24,2.31-.69.92-.15,2.16,0,3.08.22-2.57,4.47,1.98,1.17,6.1,4.6,3.03-.26,5.47.65,7.91,1.11l.93.18c0,.74-.14,1.58.26,2.46,2.3.81,4.38.56,6.13-1.15,3.76-1.16,9-1.23,8.44-5.36,3.04-1.03,5.89-2.75,9.12-3.01.04,1.11.39,2.17,1.04,3.07-.59.41-1.19,1.25-2.23,1.61l-12.63,4.41-14.23,4.02c-.33-.92-.81-1.84-.95-2.82-.21-1.49-1.39-1.83-3.03-2.48-30.42-12.01-64.03-11.97-94.13.81-.94.4-1.4,1.83-.56,1.98,1.43.25,2.23,1.03,3.03,1.26,0,1.43.21,2.86.85,4.14-13.11-6.26-26.25-7.67-39.43-14.81-8.59-4.66-21.41-15.24-24.3-23.3,6.47-.72,3.88,3.09,6.59,3.02Z" fill="#6a3610"/><path d="M257.32,61.73c-3.78,5.85-9.53,10.22-15.63,13.55l1.15-5.54c1.29-1.43,3.96-.68,3.88-3.96,3.99-.52,3.13-3.36,6.03-4.15,1.52.13,3.05.21,4.58.1Z" fill="#6a3610"/><path d="M37.51,67.66c-2.74-1.63-3.23-19.85,0-22-.33,2.65.25,5.43-.55,8.46.62,4.68.77,9.15.54,13.54Z" fill="#693714"/><path d="M259.78,58.55c-.28,1.4-1.24,2.48-2.46,3.18-1.53.11-3.06.03-4.58-.1,2.65-3.34,4.71-7.22,7.84-10.12-.27,2.37-1.41,4.66-.8,7.04Z" fill="#693714"/><path d="M53.7,56.53c-2.7.07-.12-3.74-6.59-3.02-.1-.29-.34-.7-.31-1,.23-2.65-1.14-5.02-1.25-7.62.73.24,1.42.81,2,1.74l6.14,9.91Z" fill="#693714"/><path d="M43.32,81.56c-1.39-.42-5.66-10.11-5.68-11.9,3.07.48,1.2,4.2,4.03,7.05,1.47,1.48,1.96,3.14,1.65,4.85Z" fill="#693714"/><path d="M62.62,66.4c-.83.04-1.66-.24-2.45-1.08l-4.4-4.73c-.91-.98-1.12-2.08-1.04-3.06-.86-.55,8.18,8.63,7.88,8.88Z" fill="#693714"/><path d="M274.47,64.73c-.37,1.41-.16,3.16-1.66,3.93.09,1.8-2.49-8.62.43-7.02,1.18.65-.22,2.52,1.23,3.09Z" fill="#693714"/><path d="M274.78,49.66c-.5-.05-1.08.15-1.53,0-.52-.17-.73-.78-.52-1.47.12-.4.67-.71,1.19-.61.5.53.8,1.31.86,2.08Z" fill="#693714"/><path d="M43.43,83.5c-.03-.31-.2-.62-.2-.93,1.45-.2,2,1.19.2.93Z" fill="#693714"/><path d="M261.73,49.72c.38-.19.23-1.2.91-1.22-.1.53-.38,1.02-.91,1.22Z" fill="#693714"/><path d="M270.62,60.66c-1.12,11.23-6.84,21.57-15.28,29.57-.99.94-2.06,1.92-1.08,2.71.6.48,1.36,1.52,2.56,1.06l8.76-3.38,2.26.46c-4.28,3.51-4.46,5.69-10.15,8.39-2.43-1.04-5.49-1.29-6.96,2.12-1.08,2.51-2.77,4.24-3.99,6.14-1.85-.02-3.75.59-5.96,1.13-20.17,4.9-34.11,2.61-53.66,11.24-5.82,2.57-10.75,6.25-15.68,10.26-3.92,3.19-6.78,7.12-9.72,11.19-5.49,7.59-2.07,3.66-6.46,11.1-9.77-24.11-31.18-36.06-55.91-39.42l-20.41-2.77c-13.17-1.79-25.04-7.16-34.56-16.42-.91-.88-1.89-1.32-2.8-1.46-.75-1.26-2.84-2.49-1.54-5.3,3,1.03,14.67,8.93,16.01,6.28.26-.51.83-2.03.15-2.66-7.52-6.79-13.42-15.5-15.24-25.23,2.09-.92-1.85-8.46.54-14.47,4.32,2.87,6.07,9.72,10.32,14.53,6.81,7.7,8.35,9.72,17.35,15.34,13.13,8.19,41.27,12.02,58.48,25.77,2.26,1.8,4.86,2.88,6.41,5.64,1.78,3.15,4.6,5.26,7.01,7.84,6.99,7.48,8.96,18.66,12.75,18.32.29-.03.59.16.88.17,1.84,4.76,9.5-9.53,10.5-11.47,5.03-9.77,19.76-23.38,30.15-27.9l7.07-3.07c11.44-4.98,28.43-7.59,39.57-15.4s19.38-17.04,24.97-28.93c.34-.73,1.86-1.8,2.21-1.1,1.37,2.75-.56,8.4,1.46,9.74Z" fill="#f1bb3c"/><path d="M246.76,107.73c-1.2,1.88-1.45,5.48-4.36,6.43-15.24,4.97-33.96,3.5-54.96,12.28-14.38,6.01-23.63,16.01-31.67,29.81-9.56-14.98-17.03-24.01-33.7-30.72-10.59-4.27-21.64-4.82-32.25-6.86l-16.86-3.24c-2.24-.43-4.35-1.28-6.32-.98-7.8-4.63-10.12-3.09-17.85-10.8-3.33-3.32-6.38-6.77-7.22-11.1.92.15,1.9.58,2.8,1.46,9.53,9.26,21.39,14.63,34.56,16.42l20.41,2.77c24.73,3.36,46.14,15.31,55.91,39.42,4.39-7.44.97-3.51,6.46-11.1,2.94-4.07,5.81-8,9.72-11.19,4.93-4.01,9.87-7.69,15.68-10.26,19.56-8.63,33.5-6.34,53.66-11.24,2.21-.54,4.11-1.15,5.96-1.13Z" fill="#d29235"/><path d="M46.81,52.51c-.03.3.21.71.31,1,2.89,8.06,15.71,18.64,24.3,23.3,13.18,7.14,26.32,8.55,39.43,14.81,20.93,9.99,34.6,25.48,42.97,47-3.79.33-5.76-10.84-12.75-18.32-2.41-2.58-5.24-4.7-7.01-7.84-1.56-2.76-4.15-3.83-6.41-5.64-17.21-13.74-45.35-17.58-58.48-25.77-9-5.61-10.54-7.64-17.35-15.34-4.26-4.81-6-11.66-10.32-14.53-2.39,6.01,1.55,13.56-.54,14.47-1.75-6.17-2.3-12.83.51-19.15,2.06,1.44,2.51,3.24,3.8,4.71.53.67,1.05,1.06,1.55,1.29Z" fill="#f5cd77"/><path d="M270.62,60.66c-2.02-1.34-.09-6.98-1.46-9.74-.35-.7-1.86.37-2.21,1.1-5.59,11.89-14.23,21.4-24.97,28.93s-28.13,10.42-39.57,15.4l-7.07,3.07c-10.39,4.52-25.12,18.13-30.15,27.9-1,1.94-8.66,16.23-10.5,11.47.4-.2,2.34.16,2.73-.73,5.78-13.34,13.65-25.39,24.78-35.04,7.21-6.24,15.49-9.99,23.44-14.28l14.23-4.02,12.63-4.41c1.03-.36,1.64-1.2,2.23-1.61.95-.37,2.11-.32,3-.9.41-.27,1.42-.24,1.09-.98,1.2-.02,1.93-1.02,2.87-1.53,6.1-3.33,11.85-7.7,15.63-13.55,1.22-.7,2.19-1.78,2.46-3.18,3.65-2.97,5.3-8.69,9.33-12.23,1.91,4.95,2,9.68,1.5,14.34Z" fill="#f5cd77"/><path d="M237.55,130.74c-4.91-3.54-9.58-6.27-14.82-8.56l18.92-3.27c-2.08,4.1-2.74,6.71-4.1,11.83Z" fill="#d29235"/><path d="M89.82,118.67c.1.71.17,1.55-.28,2.23-.39.6-1.36.72-1.97.98-7.12-.89-14.37-1.99-21.13-4.41-.06-1.01.03-2.02.2-3.01,1.97-.3,4.08.55,6.32.98l16.86,3.24Z" fill="#6e360c"/><path d="M257.7,99.47c5.69-2.71,5.87-4.88,10.15-8.39l-2.26-.46c1.5-.58,2.92-4.35,5.56-2.23-2.2,6.42-5.27,11.85-9.94,15.68-1.74-1.43-3-2.85-3.5-4.6Z" fill="#d29235"/><path d="M52.73,111.77c-.91.18-1.69-.36-1.98-1.2.91-.07,1.57.45,1.98,1.2Z" fill="#693714"/><path d="M55.74,113.77c-.47-.16-1.22-.35-1.09-.98.45.12.75.7,1.09.98Z" fill="#693714"/><path d="M49.82,109.65c-1.71-.65-2.57-2.4-4.22-3.15-1.66-3.97,4.81,3.39,4.22,3.15Z" fill="#693714"/><path d="M241.69,75.28c-.94.51-1.66,1.51-2.87,1.53-.55.01-1.01.45-1.09.98-.89.58-2.05.53-3,.9-.65-.9-1-1.96-1.04-3.07,2.11-3.01,8.14-3.4,8.04-6.16.33.16.76.13,1.1.27l-1.15,5.54Z" fill="#693714"/><path d="M204.69,85.91c-3.95.64-7.4,3.22-10.9,3.71-.08-1.16-.9-2.29-2.4-2.71-9.41-2.63-18.66-4.74-28.6-5.19-14.79-.67-29.02.96-43.16,4.91-1.82.51-2.89,1.39-2.86,2.95-1.96-1.19-4.58-1.63-6.78-2.12-.8-.22-1.59-1.01-3.03-1.26-.84-.14-.38-1.58.56-1.98,30.1-12.78,63.71-12.82,94.13-.81,1.64.65,2.82.99,3.03,2.48Z" fill="#f5cd77"/><path d="M204.69,85.91c.14.98.61,1.9.95,2.82-7.95,4.29-16.23,8.04-23.44,14.28-11.13,9.65-19.01,21.7-24.78,35.04-.39.89-2.33.53-2.73.73-.29,0-.59-.19-.88-.17-8.37-21.52-22.04-37.01-42.97-47-.64-1.29-.84-2.72-.85-4.14,2.2.49,4.81.93,6.78,2.12,19.29,11.71,27.51,21.38,39.01,41.71,8.87-16.59,18.55-29.86,34.58-38.89,1.52-.86,2.92-1.39,3.44-2.79,3.5-.49,6.95-3.07,10.9-3.71Z" fill="#6e360c"/><path d="M122.65,74.86c0,.52.53.83.92,2.09-5.35.6-16.23,7.03-21.8,6.75l-9.26-.46c-.5-.96-.07-1.63.29-2.57,1.31.66,3.06.74,4.79,1.35,5.23,1.86,13.51-5.22,25.06-7.17Z" fill="#693714"/><path d="M237.73,77.79c.08-.53.54-.97,1.09-.98.33.74-.68.72-1.09.98Z" fill="#6a3610"/><path d="M224.58,78.64c.57,4.13-4.68,4.2-8.44,5.36-1.75,1.71-3.83,1.96-6.13,1.15-.4-.88-.27-1.72-.26-2.46,1.53.29,3.26-.14,5.11-.77l9.72-3.29Z" fill="#693714"/><path d="M136.69,71.72c.23.61.77,1.09,1.31,1.99-.49,1.14-1.25,1.21-2.27.79-2.07,1.09-11.06,2.36-9.96-.06,3.35-1.76,7.21-2.18,10.93-2.72Z" fill="#693714"/><path d="M175.71,72.67c-3.81.91-7.68,1.3-12.05.14l2.06-2.01c2.6.27,7.68-.23,9.99,1.87Z" fill="#693714"/><path d="M208.82,82.52c-2.45-.46-4.88-1.37-7.91-1.11-4.12-3.42-8.66-.12-6.1-4.6-.38-.09,15.94,5.29,14.01,5.71Z" fill="#693714"/><path d="M191.74,76.59c-.72.45-1.47.87-2.31.69-1.26-.26-1.9-1.26-1.82-2.44,1.46.36,3.42.17,4.13,1.75Z" fill="#693714"/><path d="M193.79,89.63c-.52,1.4-1.92,1.93-3.44,2.79-16.03,9.03-25.71,22.3-34.58,38.89-11.49-20.33-19.72-30-39.01-41.71-.03-1.57,1.04-2.45,2.86-2.95,14.14-3.95,28.37-5.58,43.16-4.91,9.95.45,19.19,2.56,28.6,5.19,1.5.42,2.31,1.55,2.4,2.71Z" fill="#f1bb3c"/><path d="M139.74,194.41l-.52,4.19c4.78,3.36,8.45,7.76,12.62,11.9,5.32,5.29,10.73-3.48,16.2-8.54,2.09-1.93,3.72-3.84,3.66-6.55.65.08,1.33.09,1.97.25-.02,1.34-.54,3.45,1.06,4,.05,1.02.01,2.05.17,3.06.04.26-.05.53-.03.79-1.4,1.18-3.67.75-5.32,1.88-1.04.72-.76,2.78-1.8,3.27-.5.24-1.25.51-1.84,1.27-.73.93-.28,2.03.83,1.62-.06.58-.93,1.4-1.44,1.19-1.07-2.83-7.09,7.13-13.46,2.85-2.47-1.66-3.99-4.05-7.04-4.93,1.22,3.73,3.88,5.92,6.11,8.87s6.66,3.4,9.24.57c2.04-2.24,3.25-4.79,5.3-6.53,1.23.05,3.02.36,2.83,1.93-1.45,4.63-9.96,13.44-16.18,9.93s-6.51-6.73-10.38-9.64c0,.03-2.77-8.84-5.82-7.24-.04-1.13-.53-2.85.16-3.88.58-.75,1.53-1.27,1.57-2.98l.12-5.14c.02-.87.31-1.53.7-1.86.28-.24.84-.3,1.3-.29ZM144.73,209.16c0-.28-.22-.5-.5-.5s-.5.22-.5.5.22.5.5.5.5-.22.5-.5Z" fill="#6e360c"/><path d="M172.87,211.49c-2.24,5.61-9.84,19.85-17.23,20.61-5.29.54-10.69-9.02-13.47-12.76-1.04-1.4-.49-2.53-.46-3.54,3.87,2.91,4.3,6.21,10.38,9.64s14.73-5.3,16.18-9.93c2.76-1.81.42-1.71,3.87-5.02.27.31.52.65.72,1.01Z" fill="#d29235"/><path d="M165.3,212.74l.15.83c-2.04,1.74-3.26,4.29-5.3,6.53-2.58,2.83-6.96,2.44-9.24-.57s-4.9-5.13-6.11-8.87c3.05.87,4.57,3.27,7.04,4.93,6.37,4.27,12.4-5.68,13.46-2.85Z" fill="#ef842a"/><path d="M166.74,211.55c-1.11.41-1.56-.69-.83-1.62.6-.76,1.35-1.03,1.84-1.27-.44.91-.91,1.86-1.02,2.89Z" fill="#ef842a"/><path d="M174.9,202.72c-.15-1.01-.12-2.04-.17-3.06-.06-1.38.7-3.56-1.06-4-.64-.16-1.32-.17-1.97-.25-.14-1.06-1.33-1.82-1.71-2.68-1.13-4.24-9.16-10.7-15.23-9.97-5.68.68-10.55,4.43-13.1,8.94-.53.93-1.64,1.59-1.92,2.71-.46,0-1.02.05-1.3.29-.39.33-.68.99-.7,1.86l-.12,5.14c-.04,1.71-1,2.23-1.57,2.98.72-1.05-.26-2.09-.6-3.43-2.72-10.89,10.35-24.03,23.12-22.23,8.92,1.26,20.13,12.63,17.16,22.66-.04.84.05,1.59-.84,1.05Z" fill="#693714"/><path d="M169.99,192.73c.38.86,1.58,1.61,1.71,2.68.06,2.71-1.57,4.62-3.66,6.55-5.47,5.06-10.87,13.83-16.2,8.54-4.17-4.14-7.84-8.54-12.62-11.9l.52-4.19c.28-1.12,1.4-1.77,1.92-2.71,1.39-.28,2.81-.93,4.26-2.01,8.24-6.13,17.53-3.39,24.07,3.04ZM164.63,194.23c-.46-2.1-2.17-3.08-3.6-2.22-1.6.96-2.11,3.38-1.82,4.81.21,1.02.76,3.16,2.44,3.19,2.78.05,3.6-2.93,2.97-5.78Z" fill="#ef842a"/><path d="M174.73,199.66c-1.59-.55-1.07-2.66-1.06-4,1.76.44.99,2.62,1.06,4Z" fill="#6a3610"/><circle cx="144.23" cy="209.16" r=".5" fill="#ef842a"/><path d="M169.99,192.73c-6.54-6.44-15.83-9.17-24.07-3.04-1.45,1.08-2.87,1.73-4.26,2.01,2.55-4.51,7.42-8.25,13.1-8.94,6.06-.73,14.1,5.73,15.23,9.97Z" fill="#ebb453"/><path d="M164.63,194.23c.63,2.85-.19,5.84-2.97,5.78-1.68-.03-2.23-2.18-2.44-3.19-.3-1.43.21-3.85,1.82-4.81,1.43-.86,3.14.13,3.6,2.22Z" fill="#ebb453"/></svg>