<?xml version="1.0" encoding="UTF-8"?><svg id="Layer_1" xmlns="http://www.w3.org/2000/svg" viewBox="0 0 311.81 311.81"><path d="M44.02,105.57l-.26,2.12c-.04.31-.15.69-.09,1-.95.74-1.28,1.98-1.88,3-.11.22-.11.75-.06,1-1.8.36-5.11,16.59-4.94,18,.04.32-.14.69-.05,1-1.1-1.23-2.92,15.6-2.92,15.98l.24,19.99,1.18,6.95c3.06,17.96,9.09,33.47,19.19,48.48,1.5,2.23,8.16,11.84,10.07,11.58.21.87,1.03,1.46,1.7,1.96-1.44,2.36,18.22,17.54,18.84,17.85l4.75,2.39c15.06,7.57,30.51,16.12,48.13,18.71,28.16,4.14,56.02-1.37,80.26-15.64,1.64-.96,3-1.64,3.61-2.97,1.05,1.12,12.37-8.02,13.41-8.99l9.71-9.13c.32-.09.69-.04,1.01-.15.45-.15.94-.52,1.07-1,.36-1.31,1.24-2.82.94-4.24,1.4.22,2.87-.47,3.44-2.21,13.94-16.95,23.21-39.56,25.69-61.35.19-1.68,1.25-2.98.75-4.34-.2-.54.15-1.22.07-1.77-.09-6.16.9-12.51-.11-19.07l-1.07-6.97c-2.05-13.33-3.93-19.93-9.06-31.73l.2-2.29c1.51-.68,2.04-2.37,3.35-3.27.58-.21,1.19.31,1.58,1.19,14.59,32.26,15.56,68.57,2.52,101.65-2.04,5.18-4.76,9.8-7.26,14.71-1.79,3.52-4.17,6.55-6.12,9.93-2.54,4.39-5.94,7.76-9.14,11.58-6.06,7.22-12.62,13.21-20.21,18.91-15.6,11.71-39.2,21.59-58.61,23.93-29.98,3.62-57.35-1.23-83.16-16.46C32.68,231.57,12.02,162.18,39.17,100.68c2.84-.37,5.17,2.24,4.85,4.89Z" fill="#7e431b"/><path d="M245.81,65.6c-.52,2.25-1.46,4.65-4.07,4.35-3.36-3.98-19.18-15.76-23.74-18.18-10.12-5.39-19.88-10.07-31.12-13.01-35.29-9.21-70.13-2.5-100.12,17.67l-6.08,4.99c-3.44,2.82-7.05,5.04-9.6,8.27-.29.37-1.07.39-1.28.9-1.85-.44-3.57-1.69-3.94-3.62l.21-1.27c1.26-3.05,4.41-4.56,7.05-6.82,22.65-19.42,50.71-29.94,80.81-30.5,24.68-.46,48.43,5.09,68.71,18.72l9.43,6.34c2.77,1.86,4.9,3.51,7.22,5.93,2.16,2.26,5.36,3.45,6.52,6.25Z" fill="#7b421d"/><path d="M37.86,94.69c-1.06-.15-.81-1.26-1.03-2,1.02-.14.96,1.3,1.03,2Z" fill="#693714"/><path d="M41.11,82.75c-.2.32-.41.7-.77.83-.7.25-1.56.01-1.4-.81.72-.05,1.45-.01,2.17-.02Z" fill="#693714"/><path d="M65.86,66.96c-.33.04-.62-.14-.92-.22.18-.49.88-.71,1.14-1.06l-.21,1.27Z" fill="#693714"/><path d="M78.7,127.14c-3.52,2.59-6.92,5.56-10.18,8.96-1.26,1.31-2.07,3.03-3.55,3.56-3.7,1.34-9.74,16.59-9.88,18.99l-.59,10.09c-.14,2.46.95,5.16.49,7.99-.51,3.11,1.96,5.59,2.43,8.32.61,3.58,5.18,10.84,7.68,13.62,17.17,19.08,37.45,26.11,62.3,15.77,3.21,5.75,4.74,4.9,9.55,6.16,1.01,1.53,2.69,1.77,4.81,2.34,15.06,4.05,16.51,2.77,31.14-.54,1-.23,1.31-1.18,1.18-1.7,2.66.05,5.83-1.06,8.22-2.6,1.34-.86,1.06-2.9,2.64-3.68,14.86,6.98,31.81,6.11,45.76-1.89,23.57-13.52,32.08-42.83,19.38-67.29-3.76-7.24-9.56-12.85-15.91-17.37,3.34-1.98,12.61-2.28,16.81-5.14,3.23,1.77,11.08,19.97,12.54,24.34,3.78,11.26,5.21,26.37,3.44,37.52-1.3.33-1,2.14-1.04,3.19l-.03.99c-1.99-.99-5.3,11-10.25,14.6-9.74,14.77-31.04,24.83-47.93,29.37-29.77,7.99-60.42,8.78-90.81,3.06-18.03-3.39-34.33-9.47-48.99-20.28-7.97-5.88-13.75-13.67-18.94-21.99-.61-.98-1.39-1.63-2.12-1.12-1.69-5.42-3.04-11-3.07-16.71,0-1.33-.14-2.66.01-4,.11-.99.18-2,.17-3,0-1.68,1.1-3.57-.15-4.96.02-.35.24-.69.23-1.04.83.13.78-.42.88-1,.22-1.32.24-2.67.27-4,.36-.55.79-1.24.79-2,0-.98.16-1.97-.08-2.95,1.48-.47.6-2.38,1.09-3.22.9-1.57,7.21-16.52,7.75-19.05.83-.24.81-1.44,1.23-1.93,1.57-1.79,2.88-3.76,4.17-5.76,5.91,1.51,12.27,4.4,18.54,4.36Z" fill="#f1ba3c"/><path d="M265.9,188.77c-.3,9.45-9.98,23.24-16.96,29.9-19.6,18.74-51.82,26.44-79.02,28.26-25.65,1.71-50.62-1.13-74.78-9.35-10.38-3.53-19.43-8.66-27.98-15.06-7.93-5.93-14.78-15.47-18.8-24.48-.91-2.03-.96-3.9-1.5-5.64.74-.5,1.52.15,2.12,1.12,5.19,8.32,10.97,16.11,18.94,21.99,14.66,10.81,30.95,16.89,48.99,20.28,30.4,5.72,61.04,4.93,90.81-3.06,16.89-4.54,38.19-14.6,47.93-29.37,4.95-3.6,8.27-15.59,10.25-14.6Z" fill="#d29235"/><path d="M46.86,192.4c.54,1.73.6,3.6,1.5,5.64,4.03,9.01,10.87,18.55,18.8,24.48,8.56,6.4,17.6,11.53,27.98,15.06,24.15,8.22,49.12,11.06,74.78,9.35,27.2-1.81,59.42-9.52,79.02-28.26,1.07-.01,1.32.54.06.99-.96.72-1.16,1.57-1.1,2.41.04.68.11,1.86,1.22,1.61-.55.5-1.09,2.35-2.18,1.76-1.44-.79-2.61.96-2.99,2.38-.22.8.63,2.26,1.08,2.9-.72-.1-1.48.12-1.77.76-.31.7-.34,1.42-.34,2.08-.68-.74-2.59-2.2-3.82-1.86-.97.26-19.59,10.15-23.27,11.09-10.06,2.58-20.06,5.38-30.95,6.83-31.35,4.18-59.2,1.52-88.79-6.77-8.02-2.25-15.27-8.02-23.33-11.09-1.71-.65-2.79,1.53-3.91,2.1.53-.81,1.31-1.62,1.13-2.8-.16-1.03-1.27-1.43-2.14-1.59-.09-1.82-2.04-2.37-2.78-3.77-.55-1.04-1.19-1.47-2.2-2-2.5-1.33-4.44-3.57-5.93-5.93-.3-.99-1.01-1.77-1.95-2.19-.37-.24-.57-.69-.91-.93-.17-1.87-1.5-3.36-3.26-3.95.07-.3-.17-.73-.04-1,1-2.14-5.36-10.02-5.83-12-.13-.36-.66-.81-1-1,.03-1.08.37-2.89-1.12-3,.02-.32-.12-.69-.04-1,.28-1.11.2-2.33-.83-3v-4c.78-.53.68-1.38.78-2.21.2-1.67,0-3.24-.25-4.89-.15-.98.42-2.49,1.33-2.9.02,5.71,1.37,11.29,3.07,16.71Z" fill="#6e360c"/><path d="M174.07,220.7c.13.52-.19,1.47-1.18,1.7-14.63,3.31-16.09,4.59-31.14.54-2.12-.57-3.8-.81-4.81-2.34,10.31-.36,17.49.4,28.98-.31,3.03-.19,5.65.36,8.15.41Z" fill="#d29235"/><path d="M65.08,198.68c-2.5-2.78-7.07-10.04-7.68-13.62-.46-2.73-2.93-5.21-2.43-8.32.46-2.84-.64-5.53-.49-7.99l.59-10.09c.14-2.4,6.18-17.65,9.88-18.99-2.81,4.25-3.09,7.24-5.77,10.34l-3.11,12.71c-2.11,8.62,2.4,24.65,7.66,33.18.65,1.06,1.58,1.72,1.35,2.77Z" fill="#ebb453"/><path d="M267.09,145.74c-.84.14-1.74.06-2.02-.69-.23-.62-.04-1.39-.29-2.16-2.77-8.74-9.39-13.52-8.68-20.17,1.33.41,1.69,1.83,2.4,3.26l7.03,14.08c.97,1.94,1.6,3.86,1.57,5.67Z" fill="#693714"/><path d="M55.98,128.54c-.42.48-.4,1.68-1.23,1.93-3.36,1.24-3.68,6.03-6.72,6.31-.2-2.25,5.3-11.37,6.98-13.88,1.26,1.57.53,3.77.97,5.64Z" fill="#5d3b1e"/><path d="M272.31,176.47c-.34,2.87-1.13,13.46-3.2,15.22.18-3.04-.6-6.5.36-9.79,2.61-8.92.5-10.58,2.51-11.28-.13,1.96.03,3.91.33,5.85Z" fill="#693714"/><path d="M271.93,165.69c-3.56,1.18-3-9.35-3-11,.43-.04.74.36.89,1.06l2.11,9.94Z" fill="#693714"/><path d="M262.11,208.69c-.39-2.34,1.55-4,2.48-6.23s1.43-4.67,3.46-5.77c-1.11,4.38-2.94,8.6-5.94,12Z" fill="#693714"/><path d="M268.93,149.69v4c-.47,1.31-2.72-6.61-1-6-.07.81.04,1.85,1,2Z" fill="#693714"/><path d="M268.09,195.69c-.16-1.06-.57-2.95.97-3-.13,1.02.23,2.57-.97,3Z" fill="#693714"/><path d="M265.93,187.78c.03-1.05-.26-2.86,1.04-3.19-.16,1.01.45,3.04-1.04,3.19Z" fill="#d29235"/><path d="M250.93,221.74c.45-1.74,5.8-5.72,7.6-8.43,1.07-1.61,1.82-3.24,3.53-3.62-2.41,3.96-7.44,9.42-11.13,12.05Z" fill="#693714"/><path d="M219.07,250.78c.74,2.14,1.2,4.48,2.74,6.18-.61,1.33-1.97,2.01-3.61,2.97-24.24,14.28-52.1,19.78-80.26,15.64-17.62-2.59-33.07-11.14-48.13-18.71,1.07-2.38,2.73-4.57,3.12-7.19.27.04.62-.13.86-.04,15.08,5.75,30.98,8.45,47.53,9.63,24.4,1.73,48.17-.48,71.58-7.7,2.28-.7,4.24-1.04,6.17-.79Z" fill="#f6eed7"/><path d="M92.93,249.69c-.38,2.62-2.05,4.8-3.12,7.19l-4.75-2.39c-.62-.31-20.28-15.49-18.84-17.85.6.36.75-.06.78-.58.37.58.78.34,1.19-.06,4.61,3.05,9.1,6.42,14.37,9.11,3.56,1.82,7.38,2.48,10.37,4.58Z" fill="#f1ba3d"/><path d="M244.62,236.66c.35.51.19,1.57.31,2.18l-9.71,9.13c-1.04.98-12.36,10.11-13.41,8.99-1.54-1.71-2.01-4.04-2.74-6.18-.14-.41.06-.92-.04-1.34,9.99-3.07,16.89-7.48,25.59-12.79Z" fill="#f1ba3d"/><path d="M245.03,230.71c.63.9,2.65,1.47,2.92,2.74.3,1.42-.59,2.92-.94,4.24-.49.16-.89.51-1.07,1-.32.11-.68.07-1.01.15-.12-.61.04-1.68-.31-2.18-1.05-.58-1.05-2.4-1.7-3.11,0-.66.03-1.38.34-2.08.28-.64,1.05-.86,1.77-.76Z" fill="#6a3610"/><path d="M68.86,233.86c-.28.14-.36.64-.64.84-.48.35-.95.83-1.22,1.36-.03.52-.18.94-.78.58-.67-.5-1.49-1.1-1.7-1.96l3.32-5.2c.87.16,1.99.56,2.14,1.59.18,1.18-.59,1.99-1.13,2.8Z" fill="#5d3b1e"/><path d="M245.93,238.69c.18-.49.57-.84,1.07-1-.13.48-.61.85-1.07,1Z" fill="#6e360c"/><path d="M80.02,76.58c-.85.18-1.95.09-2.15-.92.63.31,1.69.26,2.15.92Z" fill="#693714"/><path d="M42.97,153.69c.01.6.18,1.21.15,1.82-.02.45-.33,1.08-.12,1.62.34.85,1.49.63,2.2.56-.04,1.33-.05,2.68-.27,4-.69-.09-.9.42-.88,1,.01.35-.21.69-.23,1.04-3.82.34-3.3,16.1-1.36,14.86.24,1.64.45,3.22.25,4.89l-1.86.17c-.82-1.19-.64-2.61-.82-3.97-.43-3.32.03-6.65-.1-9.98-.11-2.6.82-5.08.91-8.06l.17-5.97c.02-.58.12-1.18.16-1.76l1.79-.2Z" fill="#5d3b1e"/><path d="M54.75,130.47c-.54,2.53-6.85,17.48-7.75,19.05-.84-.88-2.11-.88-3.24-.99-.12-.61.02-1.24.12-1.84.66.06.88-.43.86-1-.01-.33.03-.67.06-1,2.39-.34,2.41-3.01,1.99-5-.06-.3,0-.69.03-1,.58,0,1.04-.43,1.1-1,.03-.3.14-.61.12-.91,3.03-.29,3.36-5.08,6.72-6.31Z" fill="#6a3610"/><path d="M43.97,168.69c-.93-.18-1.13.71-1.1,1.49.02.59.01,1.59.93,1.51-.15,1.34-.02,2.67-.01,4-.91.42-1.47,1.92-1.33,2.9-1.94,1.23-2.45-14.52,1.36-14.86,1.25,1.39.14,3.28.15,4.96Z" fill="#6a3610"/><path d="M45.91,152.74c.24.98.08,1.96.08,2.95l-2.87-.18c.02-.61-.14-1.22-.15-1.82l-.03-2h1.26c.53.42,1.11.76,1.72,1.05Z" fill="#6a3610"/><path d="M47,149.52c-.49.85.39,2.75-1.09,3.22-.61-.29-1.19-.63-1.72-1.05-.05-1.07-.23-2.11-.43-3.16,1.14.11,2.41.1,3.24.99Z" fill="#6e360c"/><path d="M45.99,155.69c0,.76-.43,1.45-.79,2-.71.07-1.86.29-2.2-.56-.22-.54.1-1.18.12-1.62l2.87.18Z" fill="#6e360c"/><path d="M43.8,171.69c-.92.08-.91-.91-.93-1.51-.03-.78.17-1.67,1.1-1.49,0,1-.06,2.01-.17,3Z" fill="#6e360c"/><path d="M44.05,162.69c-.02-.58.19-1.09.88-1-.1.58-.05,1.13-.88,1Z" fill="#6a3610"/><path d="M215.84,242.78c.2,2.51,1.25,5.03,3.19,6.67.1.42-.1.93.04,1.34-1.93-.24-3.89.09-6.17.79-23.4,7.22-47.18,9.43-71.58,7.7-16.55-1.17-32.46-3.88-47.53-9.63.34-2.68,2.25-3.93,2.3-6.8,29.58,8.29,57.43,10.95,88.79,6.77,10.9-1.45,20.89-4.25,30.95-6.83Z" fill="#d8c19d"/><path d="M242.92,233.55c.65.71.65,2.53,1.7,3.11-8.7,5.31-15.6,9.71-25.59,12.79-1.94-1.64-2.99-4.16-3.19-6.67,3.67-.94,22.3-10.83,23.27-11.09,1.23-.34,3.14,1.13,3.82,1.86Z" fill="#d29235"/><path d="M96.1,242.85c-.05,2.88-1.96,4.12-2.3,6.8-.25-.09-.59.08-.86.04-2.99-2.11-6.81-2.77-10.37-4.58-5.27-2.69-9.76-6.06-14.37-9.11.46-.45.68-.9.02-1.29.28-.2.36-.7.64-.84,1.12-.57,2.2-2.75,3.91-2.1,8.06,3.06,15.31,8.84,23.33,11.09Z" fill="#d29235"/><path d="M50.77,209.69c-3.31-3.17-5.58-7.6-6.83-12h1c.48,1.98,6.83,9.86,5.83,12Z" fill="#5d3b1e"/><path d="M42.72,183.48c-.1.83,0,1.68-.78,2.21h-1c.03-.6-.02-1.48-.08-2.04l1.86-.17Z" fill="#6a3610"/><path d="M41.93,189.69c-1.29-.95-1.08-2.57-1-4h1v4Z" fill="#5d3b1e"/><path d="M43.93,196.69c-1.08-.61-1.19-1.85-1.12-3,1.49.11,1.16,1.92,1.12,3Z" fill="#5d3b1e"/><path d="M42.77,192.69c-1.12-.49-.83-1.94-.83-3,1.03.67,1.11,1.89.83,3Z" fill="#6a3610"/><path d="M54.07,214.64c-1.4-1.01-2.26-2.55-3.26-3.95,1.75.59,3.09,2.08,3.26,3.95Z" fill="#5d3b1e"/><path d="M44.93,197.69h-1c-.08-.29,0-.7,0-1,.34.19.87.64,1,1Z" fill="#6a3610"/><path d="M246.93,225.44c-.99.81-1.84,1.8-2.99,2.38.38-1.41,1.55-3.16,2.99-2.38Z" fill="#6a3610"/><path d="M65.06,225.69c-1.03-.26-1.97-.92-2.2-2,1.01.53,1.64.96,2.2,2Z" fill="#5d3b1e"/><path d="M56.93,217.76c-.53-.68-1.96-.99-1.95-2.19.94.42,1.65,1.2,1.95,2.19Z" fill="#5d3b1e"/><path d="M44.79,144.69c.16-1.81.4-3.9,1.99-5,.42,1.99.4,4.66-1.99,5Z" fill="#5d3b1e"/><path d="M44.19,151.69h-1.26l-.07-3.14c.3-.18.59-.04.9-.01.2,1.04.38,2.09.43,3.16Z" fill="#5d3b1e"/><path d="M43.88,146.69c.07-.49.3-.98.86-1,.02.57-.19,1.06-.86,1Z" fill="#5d3b1e"/><path d="M46.82,138.69c.05-.57.51-1.06,1.1-1-.06.57-.52,1.01-1.1,1Z" fill="#5d3b1e"/><path d="M68.19,235.99c-.41.4-.82.65-1.19.06.26-.53.74-1.01,1.22-1.36.65.4.44.84-.02,1.29Z" fill="#6e360c"/><path d="M270.11,77.69c-.18-3.94,1.85-7.67,2.81-11.87.14-.62.63-16.16-.99-15.13-.29-.52.29-1.75-.11-2.38-.44-.69-1.23-.82-2.01-.57l-.05-.88c.18-.52.24-1.13.18-1.67-.05-.49-1.52-.96-1.76-.3-2.88,7.8-4.73,2.57-4.09,7.88.31,1.49-6.8,11.01-8.26,11.19-1.94.14-2.91,1.98-3.66,3.61-1.09,2.36-8.81,7.91-11.45,8.43-1.3-.19-2.66-.4-4.18.24-.35.92-.4,1.61-.48,2.24-1.63.82-3.03,2.26-4.98,2.24-.33-.62-.89-1.21-2.04-.98-.25.98-.09,1.54-.11,2.07-.31.08-.68.05-1,.04-.4-.01-.84-.1-1.39,0-.42.07-.73.37-.61.95-1.91.76-3.98,1.42-6,1.75-.2-.19-.46-.65-.8-.74-.78-.22-.86.8-1.2,1.08-1.11.92-2.59,1.19-4,1.13-.41-.02-.86-.24-1.39-.15s-.81.4-.61,1.03c-.27.03-.68.13-.92.01-.88-.44-3.47.08-3.87-1.05-1.03-2.94-2.47-3.58-5.12-4.5-2.26-.78-15.79-4.76-16.39-4.39-.28.17-.47.7-.71.87-.62-.01-1.38,0-2-.15.02-.43.17-1.1-.04-1.45-.33-.54-1.07-.44-1.93-.57l-12-1.86c-18.62-2.89-17.77.33-28.08-.05-3.43-.13-6.46,1.64-9.35,2.18-6.93-.63-5.98,2.17-13.42,1.98-.36.8-.2,1.49-.17,2.06-.59.07-1.42.93-2.15.69-1.75-3.48-12.05,3.58-15.83,4.8-5.62-4.11-3.39.15-10.48-3.37-1.62-.8-2.85-1.52-2.34-3.19,2.55.83,5.33,1.34,8.12,2.63,3.33,1.54,6.87,1.46,10.05-.45,7.56-4.56,29.22-9.5,38.61-10.13,27.02-1.83,42.27,1.38,67.09,11.81,5.85-1.22,11.1-3.12,16.59-5.31l10.01-4.01c1.93-.77,3.45-1.88,4.16-3.49,2.61.31,3.55-2.1,4.07-4.35,4.87,3.28,18-20.34,19.77-22.36,2.25-2.56,6.33-1.12,7.88,1.88,4.89,9.44,1.68,24.45-3.36,32.58Z" fill="#693714"/><path d="M54.1,56.61c1.23.13,1.21,1.79,1.97,2.33-.82,6.54,3.6,3.6,5.21,7.55.34.83,1.2,1.19,1.83.95.29-.11.55-.44.75-.79.36.05.74,0,1.09.08.31.08.59.25.92.22.37,1.93,2.09,3.18,3.94,3.62.25,2.9,3.5,3.87,6.1,4.04.88.06,1.29.71,1.96,1.04.19,1.01,1.3,1.1,2.15.92,2.37.24,4.83,1.59,7.1,2.33-.5,1.67.72,2.39,2.34,3.19,7.09,3.52,4.86-.74,10.48,3.37,3.79-1.22,14.09-8.28,15.83-4.8-3.01,2.61-8.12,2.05-8.93,5.09-.26.98-.89,1.87-1,2.9-24.35-6.25-44.4-12.57-58.73-34.9,3.12-.7,4.55,2.6,6.98,2.86Z" fill="#6a3610"/><path d="M270.11,77.69c.01.29.05.66-.03.94-1.71.11-2.85,1.22-2.98,2.6-.41,4.19.43,2.74,3.87,5.61-3.89,2.52-10.43,7.94-15.96,6.77l-.02-2.93c.33-.17.73-.63.87-.97,6.45-3.05,14.99-20.95,15.02-28l.05-11.02h1c1.61-1.03,1.13,14.51.99,15.13-.96,4.2-3,7.93-2.81,11.87Z" fill="#6e360c"/><path d="M54.1,56.61c-2.44-.26-3.86-3.56-6.98-2.86-.1-.3-.19-.84-.15-1.17.29-2.95-2.78-8.62-3.15-8.68-4.84-.71-4.71,3.62-5.42,6.64-1.05,4.42-1.9,7.85.28,12.23-.53-1.07,1.24,10.18,1.1,10.91-1.33-.14-1.33-1.51-1.76-2.84-2.58-7.98-3.21-16.17-1.09-24.3.54-2.06,1.85-3.72,3.1-4.19,1.63-.61,3.76-1.1,4.92.3,2.91,3.49,5.91,10.11,9.16,13.95Z" fill="#693714"/><path d="M270.08,78.63c-.31,1.13-.74,2.24-.73,3.74,1.71.29,4.48-.19,5.77,1.16,2.16,5.23.19,11.38-3.7,15-.47-3.33,3.55-6.79.56-9.84-.26-.58-.42-1.36-1.01-1.84-3.44-2.87-4.28-1.42-3.87-5.61.13-1.38,1.27-2.49,2.98-2.6Z" fill="#693714"/><path d="M271.42,98.53c.09.63-.13,1.3-.22,1.92-1.32.9-1.84,2.59-3.35,3.27l-3.77-1.09c3.43-3.08,5.45-7.9,6.86-12.06.23-.67.71-1.26,1.04-1.88,2.99,3.05-1.03,6.51-.56,9.84Z" fill="#6e360c"/><path d="M63.85,66.66c-.2.35-.46.68-.75.79-.63.24-1.49-.12-1.83-.95-1.61-3.96-6.03-1.02-5.21-7.55,3.35,2.42,4.41,4.82,7.79,7.72Z" fill="#693714"/><path d="M39.17,97.69c-.5-.65-.99-1.34-1.29-2.11.59-.46,1.41-.22,2.03.64.32.44-.2,1.08-.74,1.48Z" fill="#693714"/><path d="M41.88,77.79c-.64.36-.89-.65-1.08-1.1.59.07,1,.53,1.08,1.1Z" fill="#693714"/><path d="M40.74,75.69c-.53,0-.88-.51-.93-1,.6-.02.9.45.93,1Z" fill="#693714"/><path d="M266.91,53.71c.65,0,1.62-.12,2.03.35,1.32,1.5.03,10.24-.46,12.27-4.28,17.56-11.67,21.07-12.61,23.38-.14.34-.54.81-.87.97-.63.32-1.25.63-1.65,1.01-1.13,1.05.12,1.66.96,2.57,4.16,4.52,9.26-3.52,11.68.24-1.38,1.43-2.71,3.2-4.6,4.64-8.66,6.58-18.64,10.1-29.47,11.63l-25.38,3.57c-11.59,1.63-26.92,8.11-35.39,16.61l-6.48,6.51c-3.8,3.82-5.84,8.76-8.79,13.91l-8.28-12.37-3.53-4.56c-7.42-9.59-26.54-18.77-38.51-20.27l-16.69-2.09c-15.38-1.93-23.99-3.31-37.47-11.82-3.26-2.06-7.56-7.95-9.58-7.53-.37-1.46-1.99-2.59-1.8-4.75,2.06-.99,14.9,9.4,16.61,5.1,1.19-3-6.58-5.8-12.37-18.95-2.69-6.11-6.19-17.15-3.42-22.53,1.47-.6,2.8.12,3.58,1.78,3.71,7.92,9.14,14.43,15.19,20.58,5.17,5.25,14.31,10.29,21.46,12.68l25.42,8.47c11.74,3.91,26.48,13.86,33.51,23.59,2.55,3.53,5.45,6.75,7.24,10.75,1.39,3.11,6.26,10.65,7.43,10.87,3.09.58,6.37-5.13,7.71-8.02,2.87-6.16,14.76-20.81,19.27-23.78l9.68-6.38c10.38-6.85,30.2-11.79,43.7-17.21,7.46-3,13.35-7.62,18.66-13.49,5.16-5.7,10.03-11.11,13.21-17.74Z" fill="#f1bb3c"/><path d="M270.94,90.56c-1.41,4.15-3.42,8.98-6.86,12.06-13.53,12.13-26.57,13.07-43.54,15.73l-12.25,1.92c-11.18,1.75-21.72,5.45-31.22,11.62-5.04,3.28-8.75,7.84-12.78,12.12-3.61,3.83-5.29,8.12-8.71,13.15-6.48-13.75-16.77-24.25-30.64-30.47-31.67-14.2-63.27-2.43-81.75-30.35-.86-1.31-1.08-2.51-1.36-3.62,2.02-.42,6.32,5.47,9.58,7.53,13.48,8.51,22.09,9.89,37.47,11.82l16.69,2.09c11.97,1.5,31.09,10.69,38.51,20.27l3.53,4.56,8.28,12.37c2.95-5.15,4.99-10.09,8.79-13.91l6.48-6.51c8.47-8.5,23.8-14.98,35.39-16.61l25.38-3.57c10.83-1.52,20.81-5.05,29.47-11.63,1.89-1.43,3.22-3.21,4.6-4.64.67-.69,2.1-.68,2.52-2.46.28-1.19,1.59-1.71,2.44-1.47Z" fill="#d29235"/><path d="M46.96,52.58c-.03.33.05.88.15,1.17,14.33,22.33,34.39,28.65,58.73,34.9,10.76,5.75,21.42,11.5,30,20.92,7.31,8.03,12.87,16.95,17.47,26.8.53,1.14,2.29,3.68,3.76,2.64,11.01-25.35,27.41-42.09,52.87-51.14.73-.26,1.25-.37,1.07-.97.24.12.64.02.92-.01.72-.08,1.83.02,2-.87,1.41.06,2.89-.21,4-1.13l2-.34c2.02-.33,4.09-.99,6-1.75.68-.27,1.77.03,2-.95.32,0,.69.04,1-.04.7-.18,2.14-.12,2.15-1.09,1.95.02,3.35-1.42,4.98-2.24s3.62-.87,4.67-2.48c2.65-.52,10.36-6.07,11.45-8.43,1.53-.84,2.83-2.07,3.66-3.61,1.45-.18,8.57-9.7,8.26-11.19,2.25-.99,3.47-6.86,5.67-5.92l.05.88c.03.58-.13,1.17-.1,1.76-2.61-.09-2.05,2.64-2.8,4.21-3.18,6.63-8.05,12.04-13.21,17.74-5.31,5.87-11.2,10.49-18.66,13.49-13.5,5.42-33.32,10.37-43.7,17.21l-9.68,6.38c-4.5,2.97-16.4,17.62-19.27,23.78-1.34,2.89-4.63,8.6-7.71,8.02-1.17-.22-6.04-7.77-7.43-10.87-1.79-4-4.69-7.22-7.24-10.75-7.03-9.73-21.77-19.68-33.51-23.59l-25.42-8.47c-7.15-2.38-16.29-7.43-21.46-12.68-6.05-6.14-11.49-12.65-15.19-20.58-.78-1.67-2.11-2.38-3.58-1.78-.14-1.61-.4-3.47,1.36-4.87,2.14,1.51,2.67,4.74,4.75,5.85Z" fill="#f5cd77"/><path d="M250.98,122.74c-4.21,2.86-13.47,3.16-16.81,5.14-3.22-2.29-7.28-2.84-10.49-5.97l23.39-4.15c2.32-.39,3.33,3.62,3.91,4.98Z" fill="#d29235"/><path d="M78.7,127.14c-6.28.04-12.63-2.85-18.54-4.36.96-1.48,2.15-5.34,4.6-5.04l23.28,4.45c-2.59,2.99-6.62,2.96-9.33,4.96Z" fill="#d29235"/><path d="M122.98,129.78l-8.6-2.63c-5.89-1.8-13.6-3.67-19.71-1.72-2.01.64-4.15.58-5.79,1.28,1.96-2.56,11.58-4.6,16.34-3.35,3.39.89,16.86,4.06,17.77,6.42Z" fill="#5d3b1e"/><path d="M183,132.66c0,1.75-2.12,1.45-6.39,4.73-3.4,2.61-6.56,5.34-9.03,8.95l-5.67,8.31c-1.93,2.83-2.63,6.54-6.05,8.07-1.32-.3-2.46-2.15-3.11-3.04l3.16,1.92c2.81-.14,5.29-8.51,7.43-11.54,8.16-11.59,13.05-12.48,17.09-16.96.68-.75,1.98-.36,2.58-.44Z" fill="#5d3b1e"/><path d="M152.66,158.69c-1.94-1.25-6.14-9.43-7.8-12,1.46.33,6.92,8.13,7.8,12Z" fill="#5d3b1e"/><path d="M252.91,114.78c.77-1.51,6.71-3.89,7.11-3.94-1.52,2.27-4.55,3.26-7.11,3.94Z" fill="#693714"/><path d="M264.93,107.81c-.7.28-1.39.6-2.05.96.63-1.27,1.52-2.7,3.05-2.87-.37.62-.7,1.26-1,1.91Z" fill="#693714"/><path d="M48.93,108.69h-1c0-.48-.54-1-1-1v-1c.95.32,1.68,1.05,2,2Z" fill="#5d3b1e"/><path d="M75.91,74.62c-2.6-.17-5.85-1.14-6.1-4.04.21-.51,1-.54,1.28-.9.42,2.56,3.36,3.24,4.82,4.94Z" fill="#693714"/><path d="M182.93,77.69c.62.15,1.38.14,2,.15-.02.23.07.45.4.53,6.87,1.66,13.62,3.29,19.67,6.75-3.32,2.85-7.41,2.64-10.13,4.5-.02-1.15-.77-2.15-2.23-2.59-22.62-6.9-45.8-7.5-68.7-1.44-2.94.78-5.43,1.57-6.87,3.98-3.54-.58-6.32-3.08-10.23-3.81.81-3.04,5.92-2.48,8.93-5.09.73.25,1.57-.62,2.15-.69,4.66-.54,9.07-2.36,13.69-3.17,1.83-.32,4.12-.58,6.33-.87l8.01-1.06c6.67-.88,13.34-1.09,19.96-.04l6.92,1.09c3.62.57,6.97,1,10.09,1.75Z" fill="#f5cd77"/><path d="M211.02,86.9c.18.6-.34.71-1.07.97-25.45,9.05-41.86,25.8-52.87,51.14-1.47,1.04-3.23-1.5-3.76-2.64-4.6-9.85-10.16-18.77-17.47-26.8-8.58-9.42-19.23-15.17-30-20.92.11-1.03.74-1.92,1-2.9,3.91.73,6.68,3.23,10.23,3.81,1.17.95,2.41,2.08,4.02,3.02,14.84,8.61,27.62,23.87,34.37,39.38l9.49-15.35c3.33-5.39,7.77-9.98,12.4-14.36,5.46-5.15,11.68-8.67,17.51-12.64,2.72-1.86,6.81-1.65,10.13-4.5-6.05-3.46-12.8-5.09-19.67-6.75-.33-.08-.42-.31-.4-.53.24-.17.43-.7.71-.87.6-.37,14.13,3.61,16.39,4.39,2.65.92,4.09,1.56,5.12,4.5.4,1.13,2.98.61,3.87,1.05Z" fill="#6e360c"/><path d="M182.93,77.69c-3.13-.75-6.47-1.18-10.09-1.75l-6.92-1.09c-6.62-1.05-13.29-.84-19.96.04l-8.01,1.06c-2.21.29-4.49.54-6.33.87-.6-.23-.61-.52-.09-.87,2.89-.54,5.92-2.31,9.35-2.18,10.31.38,9.46-2.84,28.08.05l12,1.86c.86.13,1.59.03,1.93.57.22.35.07,1.02.04,1.45Z" fill="#6e360c"/><path d="M131.53,75.94c-.52.35-.51.64.09.87-4.61.81-9.02,2.62-13.69,3.17-.03-.57-.19-1.26.17-2.06,7.45.19,6.49-2.61,13.42-1.98Z" fill="#6a3610"/><path d="M240.73,76c-1.04,1.6-3.09,1.68-4.67,2.48.08-.63.13-1.32.48-2.24,1.52-.64,2.88-.43,4.18-.24Z" fill="#6e360c"/><path d="M255.84,63.97c-.83,1.54-2.13,2.77-3.66,3.61.76-1.63,1.72-3.47,3.66-3.61Z" fill="#6a3610"/><path d="M271.93,50.69h-1c0-.6-.78-1.02-1.22-1.19-.02-.59.14-1.18.1-1.76.77-.24,1.56-.12,2.01.57.4.62-.17,1.85.11,2.38Z" fill="#6a3610"/><path d="M269.77,46.86c-2.2-.95-3.42,4.92-5.67,5.92-.64-5.31,1.21-.09,4.09-7.88.24-.66,1.71-.19,1.76.3.06.54,0,1.15-.18,1.67Z" fill="#6a3610"/><path d="M231.08,80.72c-.01.97-1.45.91-2.15,1.09.02-.53-.14-1.09.11-2.07,1.15-.23,1.71.36,2.04.98Z" fill="#6e360c"/><path d="M213.93,86.02c-.17.89-1.28.79-2,.87-.2-.63.08-.95.61-1.03s.98.14,1.39.15Z" fill="#6e360c"/><path d="M227.93,81.85c-.23.98-1.32.68-2,.95-.12-.57.19-.87.61-.95.55-.1.99-.01,1.39,0Z" fill="#6e360c"/><path d="M219.93,84.55l-2,.34c.34-.28.42-1.3,1.2-1.08.34.09.6.55.8.74Z" fill="#6e360c"/><path d="M269.71,49.5c.45.17,1.23.59,1.22,1.19l-.05,11.02c-.03,7.05-8.57,24.95-15.02,28,.94-2.31,8.33-5.82,12.61-23.38.49-2.03,1.78-10.76.46-12.27-.41-.47-1.39-.35-2.03-.35.75-1.57.2-4.3,2.8-4.21Z" fill="#ebb453"/><path d="M271.98,88.69c-.32.62-.81,1.21-1.04,1.88-.84-.24-2.16.28-2.44,1.47-.42,1.78-1.85,1.77-2.52,2.46-2.42-3.75-7.52,4.28-11.68-.24-.84-.91-2.09-1.52-.96-2.57.4-.37,1.02-.69,1.65-1.01l.02,2.93c5.53,1.17,12.06-4.25,15.96-6.77.58.49.74,1.26,1.01,1.84Z" fill="#ebb453"/><path d="M194.87,89.62c-5.83,3.98-12.06,7.49-17.51,12.64-4.64,4.38-9.07,8.97-12.4,14.36l-9.49,15.35c-6.75-15.51-19.53-30.77-34.37-39.38-1.61-.94-2.84-2.07-4.02-3.02,1.43-2.41,3.93-3.2,6.87-3.98,22.91-6.06,46.08-5.47,68.7,1.44,1.45.44,2.21,1.44,2.23,2.59Z" fill="#f1bb3c"/><path d="M46.96,52.58c-2.08-1.12-2.61-4.35-4.75-5.85-1.76,1.4-1.5,3.26-1.36,4.87-2.77,5.39.72,16.42,3.42,22.53,5.79,13.14,13.56,15.95,12.37,18.95-1.71,4.3-14.55-6.09-16.61-5.1-.19,2.16,1.43,3.29,1.8,4.75.28,1.12.5,2.32,1.36,3.62,18.47,27.92,50.08,16.14,81.75,30.35,13.88,6.22,24.16,16.72,30.64,30.47,3.43-5.03,5.11-9.32,8.71-13.15,4.04-4.28,7.74-8.84,12.78-12.12,9.49-6.18,20.04-9.87,31.22-11.62l12.25-1.92c16.97-2.66,30.01-3.6,43.54-15.73l3.77,1.09-.2,2.29c-.56.15-1.17-.17-1.72-.11-1.53.17-2.41,1.6-3.05,2.87-.03.3.07.63.01.92-.69-.3-1.28.24-1.09.95l-1.78.2c-.4.04-6.34,2.43-7.11,3.94-1.69,3.32,2.79,4.91,3.18,7.94-.7,6.65,5.91,11.43,8.68,20.17.24.77.05,1.54.29,2.16.28.75,1.18.83,2.02.69.23-.04.5.09.71.01l.14,1.94c-1.72-.61.53,7.31,1,6v1c0,1.65-.56,12.18,3,11l.07,3.93c0,.31,0,.68-.02,1-2,.7.1,2.36-2.51,11.28-.96,3.29-.18,6.75-.36,9.79-.02.33,0,.67-.05,1-1.54.05-1.14,1.94-.97,3,.04.29.03.71-.04,1-2.03,1.1-2.49,3.46-3.46,5.77s-2.87,3.89-2.48,6.23c.05.32-.07.67-.05,1-1.71.37-2.46,2-3.53,3.62-1.8,2.71-7.15,6.69-7.6,8.43-.25.96-1.2,1.38-1.81,1.94-1.11.25-1.17-.93-1.22-1.61-.05-.84.14-1.7,1.1-2.41,1.26-.44,1.01-1-.06-.99,6.97-6.67,16.66-20.45,16.96-29.9l.03-.99c1.49-.15.88-2.18,1.04-3.19,1.77-11.15.34-26.25-3.44-37.52-1.47-4.37-9.31-22.57-12.54-24.34-.58-1.36-1.59-5.37-3.91-4.98l-23.39,4.15c3.21,3.13,7.27,3.69,10.49,5.97,6.35,4.51,12.15,10.13,15.91,17.37,12.7,24.46,4.19,53.77-19.38,67.29-13.95,8-30.9,8.87-45.76,1.89-1.58.78-1.29,2.81-2.64,3.68-2.4,1.54-5.56,2.65-8.22,2.6-2.5-.05-5.12-.59-8.15-.41-11.49.71-18.67-.05-28.98.31-4.81-1.26-6.35-.41-9.55-6.16-24.86,10.34-45.13,3.31-62.3-15.77.24-1.05-.69-1.72-1.35-2.77-5.26-8.53-9.77-24.55-7.66-33.18l3.11-12.71c2.68-3.11,2.96-6.09,5.77-10.34,1.48-.54,2.29-2.25,3.55-3.56,3.27-3.4,6.66-6.37,10.18-8.96,2.71-1.99,6.75-1.96,9.33-4.96l-23.28-4.45c-2.45-.3-3.64,3.56-4.6,5.04-1.29,2-2.6,3.97-4.17,5.76-.44-1.87.29-4.07-.97-5.64.84-1.26.3-3.24,1.91-4.09,1.16-.61,1.95-1.88,3.14-2.75-1.43-1.04-2.18-.94-2.92-1.22-1.02-1.25-2.53-1.83-4.05-2.25-.34-.26-.95-.55-1.28-.85-.49-.44-.92-1.02-1.64-1.13.09-.87-.45-1.6-1.24-1.93-.32-.95-1.05-1.68-2-2-.87-.6-1.86-1-2.91-1.12.32-2.65-2.01-5.26-4.85-4.89.38-.87-.18-2.12,0-2.99.54-.39,1.06-1.04.74-1.48-.62-.86-1.44-1.1-2.03-.64-.1-.25,0-.62-.02-.89-.06-.7,0-2.14-1.03-2-.46-1.57-1.42-3.13-1.64-5.16-.3-2.74,1.48-4.6,3.74-4.75-.16.82.7,1.05,1.4.81.36-.12.57-.51.77-.83.35-.09.95.01,1.21-.24,1.26-1.2-.17-2.95-.44-4.72-.09-.57-.5-1.03-1.08-1.1-.12-.29-.04-.69-.06-1-.03-.55-.33-1.02-.93-1-.03-.31-.1-.69-.04-1,.14-.73-1.63-11.98-1.1-10.91-2.17-4.38-1.32-7.81-.28-12.23.71-3.02.58-7.35,5.42-6.64.38.06,3.44,5.73,3.15,8.68ZM88.87,126.71c-23.53,9.99-35.54,35.79-25.16,60.14,8.32,19.52,28.79,31.16,49.84,27.41,5.12-.91,10.53-2.38,14.68-5.3,2.46-1.73,4.39-5.47,6.75-7.4-.98-11.38,11.09-23.85,22.08-22.77,9.19.9,16.27,7.99,19.17,16.37.66,1.91-.31,4.72,1.08,6.11,2.13,2.13,3.61,5.26,6,7.05,7.51,5.64,17.27,7.23,26.63,6.42,19.33-1.67,34.67-14.91,39.88-32.18,5.74-19.05-1.11-39.05-17.2-50.46-18.39-13.03-29.58-5.37-38.68-4.2-2.07.27-3.81-.2-6.16,1.73-1.34,1.11-4,.85-3.98,3.01-.26.02-.53-.02-.79.02-.59.09-1.9-.31-2.58.44-4.03,4.48-8.93,5.37-17.09,16.96-2.13,3.03-4.62,11.4-7.43,11.54l-3.16-1.92c-.13-.27-.03-.69-.1-1-.88-3.87-6.34-11.67-7.8-12-.93-.21-1.8-1.38-2.56-2.31-3.65-4.48-8.06-7.43-12.36-10.52-1.5-1.08-2.02-4.42-4.9-2.83-.73.22-1.56-.92-2.06-1.25-.91-2.36-14.38-5.53-17.77-6.42-4.76-1.25-14.38.79-16.34,3.35ZM141.66,192.62c-1.57.78-3.32,4.86-2.11,6.32l13.94,12.15c1.27,1.11,2.97,1.81,4.32.42,4.53-4.63,9.36-8.46,14.27-12.68,1.06-2.07-.65-5.45-2.23-6.82-2.44-4.71-7.91-9.01-13.93-9.17s-11.26,4.71-14.27,9.78ZM153.23,216.29c-4.49-3.72-8.13-8.59-13.66-10.94-2.19-.93-5.19,3.24-5.53,4.93,2.73.58,5.14-1.09,8.03.9-2.64,1.2-5.43,1.35-7.36,3.76,4.51,1.88,13.03,1.41,18.52,1.34ZM170.73,210.65c2.94-1.77,4.92.09,8.28.14-.97-2.22-2.64-3.45-4.25-4.91-4.13-3.75-10.91,6.58-15.78,10.47,6.13.16,12.2-.45,19.02-1.01l-7.26-4.7Z" fill="#6a3610"/><path d="M122.98,129.78c.5.33,1.33,1.46,2.06,1.25-7.76,11.16-26.46,14.69-40.13,14.81-1.67.01-2.87.98-2.75,2.33.32,3.64,8.98,1.38,11.94,2.48-.11,1.21-1.08,2.04-2,3.26-6.2,8.24-6.78,19.16-2.16,27.91-1.47,1.97-7.3,1.57-7.64,4.38-.17,1.47.91,2.1,2.75,2.46,15.89-5.6,32.61-5.28,48.44.31,1.23.43,2.3.05,2.77-.5.94-1.11.52-2.38-.78-3.22-.57-.37-1.01-.74-1.73-1.62-.02-.96.64-1.76,1.16-2.85,6.79-14.3-.04-30.72-15.13-35.75-.95-.32-1.58-.75-1.84-1.35,5.15-4.35,6.73-3.77,10.54-10.22.23-.39,1.26.32,1.45.41,4.3,3.09,8.7,6.04,12.36,10.52.76.93,1.62,2.09,2.56,2.31,1.66,2.57,5.87,10.75,7.8,12,.07.31-.03.73.1,1,.65.89,1.79,2.74,3.11,3.04,3.41-1.54,4.12-5.25,6.05-8.07l5.67-8.31c2.47-3.62,5.63-6.35,9.03-8.95,4.27-3.28,6.39-2.98,6.39-4.73.26-.04.53,0,.79-.02,1.87.8-1.35,2.53,3.24,5.95l7.87,5.87c-5.06.5-10.01,3.62-13.71,7.53-7.81,8.26-8.95,20.39-3.68,30.38.46.87,1.12,1.36.73,2.12-.75.53-1.8.84-2.59,1.78-.6.72-.27,1.57.05,2.08.49.76,1.46,1.06,2.67.67,32.71-10.74,48.26,2.19,51.18-1.35s-6.57-4.29-7.54-5.93c5.81-9.4,3.89-21.85-3.68-30.34-.22-.36.56-.75.74-.9-.79-.1,12.38.86,10.81-3.06-.45-1.11-1.49-1.54-2.92-1.55-12.46-.02-32.13-3.62-40.6-14.26,2.87-1.93,5.65-1.94,7.59-3.74,9.1-1.17,20.3-8.84,38.68,4.2,16.1,11.41,22.95,31.41,17.2,50.46-5.21,17.27-20.56,30.51-39.88,32.18-9.36.81-19.12-.78-26.63-6.42-2.39-1.79-3.87-4.92-6-7.05-1.39-1.38-.42-4.2-1.08-6.11-2.9-8.38-9.98-15.47-19.17-16.37-11-1.08-23.06,11.39-22.08,22.77-2.36,1.94-4.29,5.68-6.75,7.4-4.16,2.92-9.56,4.39-14.68,5.3-21.05,3.75-41.52-7.89-49.84-27.41-10.38-24.35,1.63-50.15,25.16-60.14,1.65-.7,3.79-.64,5.79-1.28,6.11-1.95,13.83-.08,19.71,1.72l8.6,2.63Z" fill="#fafbf9"/><path d="M169.86,192.02c1.58,1.37,3.29,4.75,2.23,6.82-4.91,4.22-9.75,8.05-14.27,12.68-1.36,1.39-3.05.69-4.32-.42l-13.94-12.15c-1.21-1.45.54-5.54,2.11-6.32,8.44-7.8,17.42-8.78,27.12-.9.34.99,1.22,1.44,1.08.29ZM165.11,193.34c0-1.1-.9-2-2-2s-2,.9-2,2,.9,2,2,2,2-.9,2-2Z" fill="#ef842a"/><path d="M129.94,133.86c-.19-.09-1.22-.8-1.45-.41-3.82,6.45-5.39,5.87-10.54,10.22-10.01,4.72-14.09,4.45-23.85,6.98-2.96-1.11-11.62,1.15-11.94-2.48-.12-1.35,1.08-2.32,2.75-2.33,13.67-.12,32.37-3.65,40.13-14.81,2.88-1.59,3.4,1.75,4.9,2.83Z" fill="#5d3b1e"/><path d="M193.93,127.9c-1.94,1.79-4.72,1.8-7.59,3.74,8.47,10.63,28.14,14.24,40.6,14.26,1.43,0,2.47.44,2.92,1.55,1.58,3.92-11.59,2.96-10.81,3.06-8.34-1.03-16.31-3.04-24.16-6.03l-7.87-5.87c-4.59-3.43-1.38-5.15-3.24-5.95-.02-2.16,2.64-1.91,3.98-3.01,2.34-1.93,4.08-1.47,6.16-1.73Z" fill="#5d3b1e"/><path d="M153.23,216.29c-5.49.07-14.01.55-18.52-1.34,1.93-2.42,4.72-2.56,7.36-3.76-2.89-1.99-5.31-.32-8.03-.9.34-1.7,3.34-5.87,5.53-4.93,5.53,2.35,9.17,7.22,13.66,10.94Z" fill="#efefef"/><path d="M170.73,210.65l7.26,4.7c-6.82.56-12.89,1.17-19.02,1.01,4.88-3.89,11.65-14.22,15.78-10.47,1.61,1.46,3.28,2.69,4.25,4.91-3.36-.05-5.34-1.91-8.28-.14Z" fill="#f6eed7"/><path d="M169.86,192.02c.14,1.15-.73.69-1.08-.29-9.7-7.88-18.68-6.89-27.12.9,3.01-5.06,8.09-9.94,14.27-9.78s11.49,4.46,13.93,9.17Z" fill="#ebb453"/><path d="M194.91,144.46c7.85,2.99,15.82,5,24.16,6.03-.17.15-.96.54-.74.9,7.58,8.49,9.49,20.95,3.68,30.34-2.8.46-5.49-.62-9.1-1.14,4.02-5.83,4.9-14.37.86-20.68-4.36-6.81-12.69-8.32-19.68-5.8-2.59.26-6-1.19-8.34,1.52-2,2.32-1.68,5.5-.97,8.15-3.2,2.85-.81,15.65,3.29,17.11-.55,1.77-7.51,2.24-9.83,3.6.39-.76-.27-1.25-.73-2.12-5.27-9.99-4.13-22.12,3.68-30.38,3.7-3.92,8.65-7.03,13.71-7.53Z" fill="#3eb8a2"/><path d="M133.75,183.64c1.05.15-13.64-1.38-9.64-3.13,6.8-5.63,5.73-18.83-2.51-24.47-4.83-3.3-10.62-3.81-15.57-2.11-1.35.46-3.17-.43-5.01.09-2.93.84-4.98,3.48-4.76,6.53.11,1.58.8,2.76.83,3.96-3.34,4.99.11,11.43,1.97,16.01-2.79-.02-5.49,1.66-9.12,1.29-4.63-8.74-4.05-19.67,2.16-27.91.91-1.21,1.89-2.05,2-3.26,9.76-2.53,13.84-2.26,23.85-6.98.26.6.89,1.04,1.84,1.35,15.09,5.03,21.92,21.46,15.13,35.75-.52,1.1-1.19,1.89-1.16,2.85Z" fill="#3eb8a2"/><path d="M204.8,179.67c2.11.84,3.73.48,5.25.09,1.23.29,2.08.72,2.85.83,3.61.52,6.31,1.6,9.1,1.14.97,1.64,10.45,2.4,7.54,5.93s-18.46-9.39-51.18,1.35c-1.2.39-2.18.09-2.67-.67-.33-.51-.66-1.36-.05-2.08.79-.94,1.84-1.25,2.59-1.78,2.32-1.36,9.27-1.83,9.83-3.6,5.61.04,11.17-.51,16.73-1.23Z" fill="#5d3b1e"/><path d="M123.05,179.78c.34.59.75.68,1.06.74-4,1.75,10.69,3.28,9.64,3.13.72.87,1.16,1.25,1.73,1.62,1.3.84,1.72,2.11.78,3.22-.47.55-1.54.94-2.77.5-15.83-5.58-32.55-5.91-48.44-.31-1.84-.37-2.92-.99-2.75-2.46.33-2.82,6.16-2.41,7.64-4.38,3.63.37,6.33-1.31,9.12-1.29l13.93.12c1.94.02,3.58.04,4.86-.82,2.05,1.2,3.83.94,5.2-.07Z" fill="#5d3b1e"/><circle cx="163.11" cy="193.34" r="2" fill="#ebb453"/><path d="M212.9,180.59c-.77-.11-1.63-.54-2.85-.83.19-1.04.29-2.31-.39-3.32-.54-.8-2.12-1.37-3.43-.55-1.51.94-1.41,2.62-1.42,3.78-5.56.72-11.12,1.27-16.73,1.23-4.11-1.45-6.49-14.26-3.29-17.11.95.42,1.63,1.47,2.79,2.11,3.07,1.71,6.48.61,8.24-1.88,2.72-3.84.6-7.02-1.72-9.9,6.98-2.52,15.32-1.01,19.68,5.8,4.03,6.3,3.16,14.85-.86,20.68Z" fill="#1f6056"/><path d="M194.09,154.12c2.32,2.88,4.44,6.06,1.72,9.9-1.77,2.5-5.18,3.59-8.24,1.88-1.16-.65-1.84-1.69-2.79-2.11-.7-2.64-1.02-5.83.97-8.15,2.34-2.71,5.75-1.26,8.34-1.52Z" fill="#f4f5f5"/><path d="M124.11,180.51c-.31-.06-.71-.14-1.06-.74.1-1.53.15-3.8-2.12-4.32-1.22-.28-2.31.41-2.69,1.04-.61,1.02-.55,2.27-.39,3.35-1.28.86-2.92.83-4.86.82l-13.93-.12c-1.87-4.58-5.31-11.02-1.97-16.01,3.09,1.96,7.58,3.75,10.52.27,1.8-2.13,2.7-5.51.87-7.8l-2.45-3.06c4.95-1.7,10.74-1.2,15.57,2.11,8.24,5.64,9.31,18.84,2.51,24.47Z" fill="#1f6056"/><path d="M106.03,153.94l2.45,3.06c1.83,2.29.94,5.66-.87,7.8-2.94,3.48-7.43,1.69-10.52-.27-.03-1.2-.71-2.38-.83-3.96-.22-3.05,1.83-5.69,4.76-6.53,1.84-.53,3.67.37,5.01-.09Z" fill="#f4f5f5"/><path d="M210.05,179.76c-1.52.39-3.14.75-5.25-.09.02-1.16-.09-2.83,1.42-3.78,1.32-.82,2.89-.25,3.43.55.68,1,.58,2.28.39,3.32Z" fill="#e7e8e9"/><path d="M123.05,179.78c-1.37,1.01-3.15,1.27-5.2.07-.16-1.08-.22-2.34.39-3.35.38-.63,1.47-1.32,2.69-1.04,2.27.53,2.23,2.8,2.12,4.32Z" fill="#efefef"/></svg>