<?xml version="1.0" encoding="UTF-8"?><svg id="Layer_1" xmlns="http://www.w3.org/2000/svg" viewBox="0 0 311.81 311.81"><path d="M45.28,93.65c.57,1.29,1.75,2.17,3.19,2.05l.15,2.01c-1.58.5-1.63,2.09-2.47,3.8-18.76,38.09-16.37,82.74,6.15,118.68,1.65,2.63,2.73,5.23,5.13,6.53.17.94.95,1.67,1.51,2.4.4.53.66,1.32,1.39,1.49,3.23,6.51,20.59,22.41,27.43,25.09.46.68,1,1.38,2.04,2.07,20.46,13.51,43.97,20.33,68.88,19.73,23.42-.57,44.71-11.02,64.83-20.92l3.91-1.92c9.92-4.88,17.18-14.13,24.16-23.01.24-1.38-1.05-2.98-1.23-3.93l.09-.99,3.38.1c1.3.04,2.04-.57,2.91-1.85,26.47-38.93,27.99-85.69,7.67-126.93l.2-2.36c.92-.23,1.7-1.93,3.22-1.73.83.11,1.19,1.64,1.86,1.96,3.92,5.66,6.17,12.32,8.51,19.26,18.28,54.38-2.2,114.54-49.52,146.65-20.65,13.51-41.95,20.89-66.72,22.46-12.87.82-25.23-1.01-37.81-4.11-13.28-3.27-25.48-8.59-36.85-16.07-11.13-7.32-18.92-13.23-27.68-23.27-12.48-14.29-19.84-27.04-25.91-45.08-4.75-14.1-7.68-32.21-6.49-47.03,1.51-18.76,5.88-36.74,15-53.23.42-.76.94-1.28,1.41-1.5s1.11-.19,1.63-.36Z" fill="#7e431b"/><path d="M260.6,42.93c.75-2.03,1.81-4.17,3.86-5.08-1.08,1.83-2.47,3.54-3.86,5.08Z" fill="#693714"/><path d="M216.8,238.87c2.63,5.76,5.32,11.52,6.72,17.7-20.12,9.89-41.41,20.35-64.83,20.92-24.91.6-48.43-6.21-68.88-19.73-1.04-.69-1.58-1.39-2.04-2.07l7.63-16.75c1.05,0,2.42-.34,3.79.14,33.15,11.65,77.88,11.52,111.39.77,2.28-1.07,4.28-1.3,6.23-.99Z" fill="#f6eed7"/><path d="M245.55,222.98l4.81,4.73c.18.95,1.47,2.55,1.23,3.93-6.98,8.88-14.23,18.13-24.16,23.01l-3.91,1.92c-1.4-6.19-4.09-11.94-6.72-17.7-.12-.31.05-.76-.01-1.1,7.29-2.55,18.19-7.94,24.75-12.99,1.32-1.02,2.68-1.76,4.01-1.81Z" fill="#f1ba3d"/><path d="M95.3,237.95l.09,1.01-7.63,16.75c-6.84-2.69-24.19-18.58-27.43-25.09l5.27-7.9c.39-.33.57-.07.92.11,4.2,2.18,8.05,5.11,12.47,7.7,5.34,3.13,10.9,5.28,16.31,7.43Z" fill="#f1ba3d"/><path d="M55.58,96.62c-.14.81.12,1.58.32,2.41.27,1.09,2.5.73,3.06,1.53,3.64,5.25-5.07,9.25-4.08,13.55.19.82-.48,1.8-.44,2.64-.66-.96-1.18,3.25-2.85,4.08-1.04-2.45-6.28,10.03-6.07,8.57-.13.89.13,1.91,1.07,2.43-.15.61.24,1.43,0,2-5.1.18-.9-1.52-4.64,8.11-1.1,2.83.09,5.93-.43,8.85-.88,4.94-2.27,9.77-1.23,14.61.3,1.41,1.84,2.58,1.34,4.45-.74,2.77.78,4.91,1.34,7.34,2.1,9.04,4.21,9.89,6.2,15.81,1.26,3.75,3.34,5.71,6.65,7.73-1.89-1.15,4.81,7.95,4.9,8.04-2.09.79-12.56-13.33-13.65-15.29-6.57-11.76-10.19-24.77-8.86-38.24,1.5-15.19,4.87-29.89,13.13-42.54l6.52-9.98c-3.7-1.83-7.32-5.23-9.26-4.99l-.15-2.01c.76-.57,1.44-1.24,2.12-1.91l5,2.83Z" fill="#693714"/><path d="M70.37,217.63c-.58,2.34-3.29,2.91-3.85,5.19-.35-.18-.53-.44-.92-.11-2.96-.21-5.73,9.14-6.66,6.41-.56-.73-1.34-1.46-1.51-2.4,2.55-1.67,3.92-4.48,6.11-7.07,1.17-1.38,4.06-3.1,3.31-4.93-1.52-2.13-3.67-3.55-5.18-5.04,2.04.03,2.95,2.36,4.83,3.14l4.9,2.02c-.4,1.14-.82,1.97-1.02,2.79Z" fill="#693714"/><path d="M249.55,220.78c-.42,4.17,3.3,3.65.9,5.94l-.09.99-4.81-4.73-.96-2.15c1.26-.24,2.03-1.36,3.08-2.02.86.46,1.2,1.47,1.87,1.97Z" fill="#6e360c"/><path d="M253.83,226.82l-3.38-.1c2.4-2.29-1.32-1.77-.9-5.94,1.97,1.47,3.63,3.61,4.28,6.04Z" fill="#693714"/><path d="M60.33,230.6c-.74-.17-.99-.97-1.39-1.49.93,2.73,3.7-6.62,6.66-6.41l-5.27,7.9Z" fill="#6e360c"/><path d="M256.25,113.59c.41.65.4,1.76,1.34,2.02.24,1.22.72,2.46,1.5,3.88,6.64,12.11,10.11,25.36,10.64,39.28.22,5.78-.91,10.82-2.08,15.84-.68-.33-1.51.54-1.86,1.46-2.69,7.15-12.11,18.99-17.87,23.13-2.08,1.5-3.7,3.61-6.1,4.97-5.32,3.01-10.28,6.38-15.92,8.88l-6.3,2.79c-38.77,17.16-106.73,15.16-143.06-7.85-10.97-6.95-24.85-19.03-30.29-30.94-.35-.78-1.07-1.18-1.53-.53-.09-.87-.28-1.73-.28-2.61.49-2.56.15-5.23-.95-8.08.38-4.73-.27-9.22.36-13.77.98-7.16,5.29-24.65,8.76-30.26,1.04-1.69,1.94-3.38,1.85-5.06-.04-.84.63-1.81.44-2.64-.35,2.6,3.72-4.62,3.57-4.35,2.49-.23,5.06.38,7.73,1.42,3.58,1.39,7.61.56,10.41,2.77-12.61,8.1-20.82,21.59-22.51,37.13-1.69,15.49,4.4,30.75,15.8,41.11,18.37,16.7,45.11,17.62,64.37,2.51,1.39,1.91,2.52,3.48,2.57,5.13.13,4.48,5.78,11.86,9.33,14.52,9.98,7.47,16.84,3.06,23.79-4.19,2.67-2.79,4.68-5.63,5.39-9.17.09-.44.36-1.28-.48-1.08l.81-.93c3-4.6,9.09,1.8,12.32,3.42,9.76,4.92,20.8,5.54,31.4,3.27,1.61-.35,2.9-.7,3.21-2.02l1-.1c3.67-.36,10.77-3.78,11.99-5.89,1.74-3.01,9.31-4.65,16.74-18.91,11.92-22.85,4.4-50.97-16.73-64.99-.08-.23-.06-.68.29-.71,6.04-.65,11.58-1.93,16.83-4.05,1.12,1.53,2.49,2.97,3.53,4.6Z" fill="#f1ba3c"/><path d="M262.39,116.77c-2.78,1.21-2.56-.53-4.81-1.15-.94-.26-.92-1.37-1.34-2.02.02-1.86-.67-3.89.53-5.48,2.88,2,4.26,5.54,5.61,8.65Z" fill="#693714"/><path d="M212.63,230.95c.74,1.89,1.92,6.63,4.16,6.83.06.34-.11.78.01,1.1-1.95-.31-3.95-.08-6.23.99-33.5,10.75-78.24,10.88-111.39-.77-1.37-.48-2.75-.15-3.79-.14l-.09-1.01c2.53-1.34,3.41-4.38,4.27-6.97l16.48,4.42c26.15,7.02,53.87,6.82,80.07-.09l16.51-4.35Z" fill="#d8c19d"/><path d="M262.39,116.77l2.22,5.11c-1.08,1.06-.35,2.27.15,3.69l2.61,7.39c.74,2.1,1.74,3.9,2.03,6l.77,5.57c.32,2.37,1.84,4.6,1.36,7.3-.51,2.89.9,5.39.86,7.99-.01.89-2.32,10.78.41,10.02.03.98.03,2.02-.14,3-1.83-.24-2.58,1.08-2.92,3.1-.52,3.09-2.96,5.21-3.64,8.24-.55,2.43-.64,4.82-2.01,7.02-.49.78-.3,1.63.54,1.68-1.85,3.03-2.65,6.35-5.88,9.19-1.38,1.21-2.99,2.65-3.97,3.72-4.98,2.82-4.78,1.11-7.34,4.95-.81,1.21-1.84,1.97-1.87,3.23-.02.64-.51,1.24-.69,1.83-.83.89-2.07,1.05-3.21.79.01-1.23-.28-2.44-.84-3.53,3.65-4.51,7.01-4.65,11.43-10.6.68-.91,1.66-1.33,2.29-1.71,2.32-.08,4.98-1.04,6.59-3.29,1.26-1.76.73-4.04.38-5.67,3.91-10.5,3.42-5.58,6.12-17.15,1.17-5.02,2.29-10.07,2.08-15.84-.52-13.93-3.99-27.18-10.64-39.28-.78-1.42-1.26-2.66-1.5-3.88,2.25.62,2.03,2.36,4.81,1.15Z" fill="#6a3610"/><path d="M272.79,169.83c-2.73.77-.42-9.13-.41-10.02.04-2.6-1.37-5.1-.86-7.99.47-2.7-1.04-4.93-1.36-7.3l-.77-5.57c-.29-2.09-1.29-3.9-2.03-6l-2.61-7.39c-.5-1.42-1.23-2.63-.15-3.69,4.18,9.61,8.76,19.84,8.89,30.9l.19,15.09c.01.98-.72,1.57-.9,1.96Z" fill="#693714"/><path d="M272.65,172.83c-1.26,7.19-4.28,13.89-8.03,20.04-.84-.05-1.02-.9-.54-1.68,1.37-2.19,1.46-4.58,2.01-7.02.68-3.02,3.13-5.14,3.64-8.24.34-2.03,1.09-3.35,2.92-3.1Z" fill="#693714"/><path d="M247.68,218.81c-1.05.65-1.82,1.77-3.08,2.02-1.34-.63-2.65-1.58-3.08-3.05-.08-.36.15-.81.15-1.19,1.15.27,2.39.1,3.21-.79,1.47.37,1.62,2.38,2.81,3.02Z" fill="#693714"/><path d="M245.57,213.96c.03-1.26,1.06-2.02,1.87-3.23,2.56-3.84,2.35-2.13,7.34-4.95l-3.52,3.83c-1.57,1.71-3.34,3.91-5.69,4.35Z" fill="#693714"/><path d="M46.6,133.83c-1.73,4.18-3.09,8.74-3.54,13.55l-.59,6.36c-.38,4.11-1.11,7.3-.27,11.31.65,3.13.14,6.52,2.25,8.88,0,.88.19,1.74.28,2.61.42,4.23,2.36,8.27,4.69,12.36,7.15,12.55,17.73,21.96,30.57,28.87,42.95,23.11,104.09,23.12,147.96,2.4,4.71-2.22,8.46-5.34,12.89-7.1.56,1.1.85,2.3.84,3.53,0,.38-.23.83-.15,1.19-.93.04-2.01.2-3.11.85-8.44,5.03-17.15,8.58-25.78,12.32l-16.51,4.35c-26.2,6.91-53.91,7.11-80.07.09l-16.48-4.42c-8.74-3.59-17.5-7.14-25.92-12.34-1.17-.73-2.22-1.15-3.29-1,.2-.82.62-1.65,1.02-2.79l-4.9-2.02c-1.88-.77-2.79-3.11-4.83-3.14l-.93-.92c-.08-.08-6.79-9.19-4.9-8.04-3.3-2.01-5.39-3.98-6.65-7.73-1.99-5.92-4.1-6.77-6.2-15.81-.56-2.43-2.08-4.57-1.34-7.34.5-1.87-1.04-3.05-1.34-4.45-1.05-4.84.35-9.67,1.23-14.61.52-2.91-.67-6.02.43-8.85,3.75-9.62-.46-7.92,4.64-8.11Z" fill="#6e360c"/><path d="M241.51,217.78c.44,1.47,1.74,2.42,3.08,3.05l.96,2.15c-1.33.06-2.69.8-4.01,1.81-6.56,5.05-17.46,10.43-24.75,12.99-2.24-.2-3.42-4.94-4.16-6.83,8.63-3.74,17.34-7.29,25.78-12.32,1.1-.65,2.17-.81,3.11-.85Z" fill="#d29235"/><path d="M99.57,230.97c-.86,2.59-1.74,5.63-4.27,6.97-5.4-2.15-10.96-4.3-16.31-7.43-4.42-2.59-8.27-5.52-12.47-7.7.55-2.27,3.27-2.85,3.85-5.19,1.06-.15,2.11.28,3.29,1,8.41,5.2,17.18,8.76,25.92,12.34Z" fill="#d29235"/><path d="M44.44,173.92c-2.11-2.36-1.59-5.75-2.25-8.88-.84-4.01-.11-7.2.27-11.31l.59-6.36c.45-4.81,1.81-9.37,3.54-13.55.24-.57-.15-1.39,0-2,.72-.77,5.07-9.92,5-11,1.67-.83,2.19-5.04,2.85-4.08.09,1.69-.81,3.38-1.85,5.06-3.47,5.61-7.78,23.09-8.76,30.26-.62,4.55.02,9.04-.36,13.77,1.1,2.85,1.44,5.51.95,8.08Z" fill="#ebb453"/><path d="M51.6,120.83c.07,1.08-4.28,10.23-5,11-.94-.52-1.2-1.53-1.07-2.43-.22,1.46,5.03-11.02,6.07-8.57Z" fill="#6e360c"/><path d="M261.52,191.78c-1.76,1.19-5.78,6.96-6.97,8.96-.64.38-1.62.8-2.29,1.71-4.42,5.96-7.78,6.09-11.43,10.6-4.43,1.76-8.18,4.87-12.89,7.1-43.87,20.72-105,20.71-147.96-2.4-12.84-6.91-23.42-16.32-30.57-28.87-2.33-4.09-4.27-8.13-4.69-12.36.46-.65,1.18-.25,1.53.53,5.44,11.92,19.32,23.99,30.29,30.94,36.33,23.02,104.29,25.01,143.06,7.85l6.3-2.79c5.64-2.5,10.6-5.86,15.92-8.88,2.4-1.36,4.02-3.46,6.1-4.97,5.76-4.15,15.17-15.98,17.87-23.13.34-.92,1.18-1.79,1.86-1.46-2.7,11.57-2.21,6.65-6.12,17.15Z" fill="#d29235"/><path d="M239.69,58.79c-.04,1.73-1.42,2.91-3,3.55-1.47.6-3.4-.7-4.19-2.27-1.1-2.18-2.77-1.48-3.96-2.25l-10.27-6.63-14-6.94c-26.56-13.17-64.79-12.64-92.69-1.41-11.33,4.56-23.5,11.01-31.86,19.09-2.67,1.41-5.86-.25-7.04-2.9,44.06-38.91,112.03-41.86,159.66-5.97,2.74,2.06,5.54,3.23,7.35,5.73Z" fill="#7b421d"/><path d="M72.68,59.03c1.19,2.65,4.37,4.31,7.04,2.9-.73,3.24,10.87,4.78,15.88,7,4.52,2,7.9,1.13,12.05-.95,8.64-4.33,18.1-6.45,27.68-8.28,22.79-4.35,49.04-1.02,70.01,8.65.7.32,1.1.78,1.24,1.24-1.33.12-2.66.15-3.99.17-1,0-2,.15-3,.22-.33.02-.67,0-1-.03.05-.7-.41-.86-1-.86-1.44.02-2.75-.5-4-1.13.14-.57-.16-.91-.61-.97-.54-.08-1,.09-1.39.06l-1-.07c-.1-.48-.35-1.59-1.3-1.82l-13.74-3.29c-1.9-.46-3.89-.28-4.96.85-.54.13-1.36-.33-1.86-.04.3-.5.11-1.01-.14-1.32-.89-1.13-6.02-.65-5,.56-2.68.07-5.31.24-8-.04,2.84-1.3-14.55-2.14-11.15.79-10.97.75-21.46,3.85-31.85,7.36-1.6-.19-3.42.34-3.88,2.01-.16.57-.64,1.06-.71,1.67-.13.46-.29.95-.59,1.37-1.13,1.56-4.5-1.23-3.82.6-7.6-3.18-23.31-5.94-33.97-12.05-14.49-8.31-19.83-16.26-28.29-28.79-.54-.8-.6-1.97-2.24-3.09-3.04,3.77-1.63,19.28.64,24.04l5.85,12.23c-3.96,1.84-1.28,1.99-6.91,4.51-.33-.53-.95.02-1.3.05-4.25.44-.61,8.94.57,10.88,1.15,1.87,2.82,3.14,2.91,5.14-3.9-3.22-8.03-10.57-7.83-16.65.16-4.7,7.47-1.97,7.6-4.11-6.24-12.22-8.57-18.14-7.65-31.84.15-2.26,2.06-7.98,5.33-8.59,4.73-.88,8.13,7.97,10.13,10.57,2.92,3.81,5.62,7.64,8.81,11.15,1.56,1.72,13.3,11.39,15.42,9.91Z" fill="#693714"/><path d="M278.57,46.75c-1.08-.26-1.31,1.08-.15,1.08.13,2.42-.43,4.76-1.77,6.79-3.79-1.04-2.01,6-5.76,10.43-1.17,1.39-1.32,2.67-.57,4.26.24.51,1.08.66,1.62.56.35-.06.54-.28.83-.76,1.56-.32,4.7-1.2,5.57.9,1.62,3.93-.51,7.58-1.59,10.81-6.04,4.04-2.44,7.22-7.27,8.97-1.04.38-.93,1.61-.69,2.19.5,1.19.55,2.73.91,3.91-.68-.32-1.04-1.85-1.86-1.96-1.52-.2-2.31,1.51-3.22,1.73-.99-.29-8.14,3.51-9.24,4.99-1.21-.17-2.44.84-.92,1.16-1.01,1.47,2.23,4.11,2.33,6.29-1.2,1.58-.51,3.61-.53,5.48-1.04-1.62-2.41-3.07-3.53-4.6-.97-1.32-1.45-3.48-2.25-4.93-.35-.64,1.03-2.86-1.01-2.84-1.08.01-2.19,1.21-3.54.86-.11.48.07,1.34.34,1.45.29.12.99-.3,1.24.02-.38,1.35-1.66,1.31-2.75,1.54-.51-1.24-1.51-2.17-2.16-3.32,10.93-2.73,27.23-11.2,29.8-22.88.45-1.53,2.4-2.76,2.04-5.25-6.47,2.21-9.15,7.06-16.71,6.1-.25-1.25-.04-2.12-.09-2.94.34-.28.69-.58.9-.98,1.46-.46,2.5-1.68,3.08-3.07.33-.29.63-.62.89-.97,7.97-7.88,14.24-24.77,11.33-35.9-.31-1.19.33-2.87-1.64-3.81-3.93,6.41-7.51,12.7-12.65,17.73l.1-5.82.96-1.06c1.4-1.54,2.78-3.25,3.86-5.08.16-.26-.09-.71.04-1,.47-.24.95-.68,1.09-1.22.15-.57.31-1.67,1.07-1.78,2.63-.39,3.53-3.23,4.09-5.59,8.97-4.23,7.99,14.6,7.82,18.49Z" fill="#6a3610"/><path d="M251.61,56.76c-5.53,7.4-24.91,14.18-33.96,15.82v-1.41c0-3.22,5.96,2.09,8.87-5.18,1.42-.43,6.81-2.06,6.6-3.51-.28-1.88-4.21-3.03-4.58-4.66,1.19.77,2.86.07,3.96,2.25.79,1.57,2.72,2.86,4.19,2.27,1.57-.64,2.96-1.82,3-3.55,3.5.37,3.97-1.64,6.82-2.13.41-.07,5.51-1.78,5.1.1Z" fill="#6a3610"/><path d="M37.38,72.58c-.1,3.45,1.75,6.32,3.45,9.16,1.16,1.92,1.87,4.03,3.81,6.01l5.94,6.04c-.67.68-1.35,1.34-2.12,1.91-1.44.12-2.61-.76-3.19-2.05-.29-2-1.77-3.39-3.68-3.95-.12-.38-.72-.69-.74-1.1-.09-2-1.76-3.27-2.91-5.14-1.19-1.93-4.82-10.43-.57-10.88Z" fill="#6e360c"/><path d="M259.53,49.81c-2.47,2.42-4.3,6.04-7.92,6.95.41-1.88-4.69-.17-5.1-.1,5.6-4.98,7.94-6.94,13.13-12.67l-.1,5.82Z" fill="#693714"/><path d="M276.64,54.62c.27,3.13-5.66,12.63-5.24,13.67.19.47.95.68,1.36.83-.29.47-.48.69-.83.76-.54.1-1.38-.05-1.62-.56-.75-1.59-.6-2.87.57-4.26,3.76-4.44,1.98-11.47,5.76-10.43Z" fill="#693714"/><path d="M266.65,33.85c.52-2.46,1.82-4.52,4.09-5.59-.55,2.36-1.45,5.2-4.09,5.59Z" fill="#693714"/><path d="M268.79,91.99c-.24-.58-.35-1.81.69-2.19,4.82-1.75,1.23-4.93,7.27-8.97-1.1,3.26-2.37,6.23-5.38,8.86-.92.81-1.09,2.75-2.57,2.3Z" fill="#693714"/><path d="M45.28,93.65c-.52.17-1.13.13-1.63.36-.32-1.6-1.57-2.77-2.05-4.31,1.91.56,3.39,1.95,3.68,3.95Z" fill="#693714"/><path d="M264.49,36.85c.21-.48.36-1.49,1.09-1.22-.14.54-.61.98-1.09,1.22Z" fill="#693714"/><path d="M278.41,47.83c-1.16,0-.93-1.34.15-1.08-.02.36-.17.72-.15,1.08Z" fill="#693714"/><path d="M264.61,95.68l-.2,2.36c-3.82-.68-4.83,2.59-9.96,3.79-1.52-.32-.3-1.33.92-1.16,1.11-1.48,8.25-5.29,9.24-4.99Z" fill="#693714"/><path d="M155.6,61.87c2.69.28,5.32.1,8,.04,1.57-.04,3.36,1.81,5.14.77.5-.29,1.32.18,1.86.04,1.88-.02,3.81.68,6.06,1.06l8.58,1.47c2.01.34,3.53,1.6,5.36,1.73l1,.07c.23.98,1.37.6,2,.92,1.25.63,2.56,1.15,4,1.13-.05.56.51.82,1,.86.33.02.67.06,1,.03.42,1.24,1.98,1,3.04,1.01.96.7,1.63,1.59,1.73,2.8-3.47-.2-6.36,2.77-9.75,3.08.27-1.2-.48-1.85-1.94-2.3-23.32-7.23-47.84-7.52-71.13-.22-1.99.62-3.17,1.74-2.97,3.44-3.31-.62-7.9-4.3-10.56-4.08.07-.61.55-1.1.71-1.67,1.6.13,2.63-1.59,3.88-2.01,10.38-3.51,20.87-6.6,31.85-7.36,4.82-.33,5.56-1.37,11.15-.79Z" fill="#f5cd77"/><path d="M118.57,77.79c.75,1.04,2.02,1.85,3.42,2.72,15.57,9.64,24.54,22,33.92,38.58,10.62-17.95,17.86-28.73,35.91-39.94,1.19-.74,2.29-1.33,2.8-2.28,3.39-.32,6.28-3.28,9.75-3.08l.25,3.04c-.72,1.26-2.2,1.58-3.74,2.31-21.83,10.45-33.41,25.57-43.51,46.5l-1.78.39c-.74-.75-1.63-1.56-2.27-2.84-12.18-24.18-25.2-37.27-49.72-47.52-.69-1.83,2.69.96,3.82-.6.3-.42.46-.9.59-1.37,2.66-.22,7.25,3.46,10.56,4.08Z" fill="#6e360c"/><path d="M103.6,75.67c24.52,10.25,37.54,23.34,49.72,47.52.64,1.27,1.53,2.09,2.27,2.84-.52,3.37-6.9-6.29-7.42-7.46-2.36-5.27-6.06-9.25-9.45-13.76-6.38-8.47-18.21-16.33-27.87-20.39-13.45-5.65-35.21-10.7-45.46-17.49-6.29-4.17-16.05-14.45-19.65-20.99-1.8-3.27-2.75-6.68-4.93-9.31-.13-.66,0-1.37.53-1.81,8.46,12.52,13.8,20.47,28.29,28.79,10.66,6.12,26.37,8.88,33.97,12.05Z" fill="#f5cd77"/><path d="M54.72,77.91c.03.56-.05,1.3-.13,1.78-4.06,1.15-13.91-3.99-15.92-7.18,5.63-2.52,2.95-2.68,6.91-4.51,1.53.37,2.47,1.82,3.43,3.43,1.6,2.67,4.47,3.94,5.7,6.47Z" fill="#6e360c"/><path d="M54.59,79.7c-.06.39.31,1.53-.21,1.9-3.43,1.55-8.24-3.32-9.72-1.01-.3.48-1.46,1.21-.38,1.87-1-.93-2.4-2.08-3.45-.73-1.7-2.83-3.56-5.71-3.45-9.16.35-.04.96-.58,1.3-.05,2.01,3.18,11.86,8.32,15.92,7.18Z" fill="#ebb453"/><path d="M206.58,69.6c.67-.06,1.35.08,1.98.27-.52,3.99,6.65.63,6.3,3.71-3.37,1.2-6.63,3.11-10.24,3.26l-.25-3.04c-.1-1.2-.77-2.1-1.73-2.8l-.04-1.23c1.33-.01,2.66-.04,3.99-.17Z" fill="#6a3610"/><path d="M41.34,34.83c-.54.44-.66,1.15-.53,1.81-5.51-.15.36,17.08.44,17.56l.69,4.29c1.2,7.48,7.73,13.26,13.5,18.66.42.41-.19,1.16-.72.77-1.23-2.53-4.1-3.8-5.7-6.47-.96-1.61-1.91-3.06-3.43-3.43l-5.85-12.23c-2.28-4.76-3.68-20.27-.64-24.04,1.64,1.12,1.7,2.29,2.24,3.09Z" fill="#ebb453"/><path d="M190.6,66.98c-1.83-.12-3.35-1.38-5.36-1.73l-8.58-1.47c-2.25-.39-4.18-1.09-6.06-1.06,1.07-1.14,3.05-1.31,4.96-.85l13.74,3.29c.96.23,1.21,1.34,1.3,1.82Z" fill="#6e360c"/><path d="M155.6,61.87c-5.6-.58-6.34.46-11.15.79-3.4-2.93,13.99-2.09,11.15-.79Z" fill="#6e360c"/><path d="M168.74,62.68c-1.78,1.04-3.57-.8-5.14-.77-1.02-1.2,4.12-1.69,5-.56.25.31.44.83.14,1.32Z" fill="#6e360c"/><path d="M202.6,69.76l.04,1.23c-1.06,0-2.62.23-3.04-1.01,1-.07,2-.21,3-.22Z" fill="#6e360c"/><path d="M193.6,67.96c-.63-.32-1.77.07-2-.92.4.03.85-.14,1.39-.06.45.07.74.4.61.97Z" fill="#6e360c"/><path d="M112.6,70.02c-1.25.42-2.28,2.14-3.88,2.01.46-1.67,2.28-2.2,3.88-2.01Z" fill="#6e360c"/><path d="M198.6,69.95c-.49-.04-1.05-.3-1-.86.59,0,1.05.16,1,.86Z" fill="#6e360c"/><path d="M40.81,36.64c2.18,2.63,3.13,6.04,4.93,9.31,3.6,6.54,13.36,16.82,19.65,20.99,10.25,6.79,32.01,11.84,45.46,17.49,9.65,4.05,21.49,11.91,27.87,20.39,3.4,4.51,7.1,8.49,9.45,13.76.52,1.17,6.9,10.83,7.42,7.46l1.78-.39c3.39-.73,8.97-13.7,15.56-20.44,3.15-3.22,5.92-6.79,9.41-9.59,21.54-17.28,44.99-16.15,66.17-29.95,4.85-3.16,14.44-14.44,17.19-19.14,1.79-.11,3.79.15,5.42,1.53.92,3.63-1.42,14.09-4.63,16.73-1.33,4.41-3.6,3.8-4,7.02-.27.35-.56.68-.89.97-1.36.63-2.39,1.75-3.08,3.07-.21.4-.56.7-.9.98-.63-.05-1.72-.18-2.04.52-.47,1.03,2.97,4.55,4.56,4.53,2.44-.03,6.44-4.06,8.5-1.04-5.73,8.49-21.99,14.96-32.85,16.26l-19.61,2.36c-10,1.2-19.28,3.47-28.54,7.53-5.21,2.28-9.42,5.73-14.07,8.86-6.38,4.29-13.79,15.77-17.96,23.43-5.75-13.51-14.7-23.56-27.12-30.22-32.79-17.58-58.9-3.12-84.23-26.58-1.08-.65.07-1.39.38-1.87,1.48-2.31,6.29,2.56,9.72,1.01.52-.38.15-1.51.21-1.9.08-.48.16-1.23.13-1.78.53.39,1.13-.35.72-.77-5.77-5.4-12.3-11.17-13.5-18.66l-.69-4.29c-.08-.48-5.95-17.7-.44-17.56Z" fill="#f1bb3c"/><path d="M272.4,78.9c-2.57,11.68-18.87,20.15-29.8,22.88-.32.08-.68,0-1,.06-.9.58-1.93.91-3,1-.61.04-1.25.15-1.86.14-.73-.02-2.05-.36-2.14.69-2.14-.87-4.43,1.19-6.37,1.06-3.32-.24-6.56.32-10.26.7-11.08,1.14-21.63,3.48-31.75,8.14-12.35,5.69-24.67,18.18-30.28,30.72-8.85-17.52-19.38-26.28-36.47-33.18-9.1-3.67-18.46-4.66-27.67-5.9l-15.41-2.07c-7.54-1.01-14.58-2.99-20.81-6.51l-5-2.83-5.94-6.04c-1.94-1.97-2.66-4.09-3.81-6.01,1.06-1.35,2.45-.2,3.45.73,25.33,23.46,51.44,9,84.23,26.58,12.42,6.66,21.37,16.71,27.12,30.22,4.16-7.66,11.58-19.14,17.96-23.43,4.65-3.13,8.86-6.58,14.07-8.86,9.27-4.05,18.54-6.32,28.54-7.53l19.61-2.36c10.87-1.31,27.12-7.77,32.85-16.26,1.03-.74,2.55-1.46,3.73-1.93Z" fill="#d29235"/><path d="M273.83,35.89c-.39.44.04,1.05-.57,2.02-.56-.68-.61-1.49-1.96-2.05-1.66,3.83-3.59,7.25-5.58,10.65-2.75,4.7-12.34,15.98-17.19,19.14-21.18,13.8-44.64,12.67-66.17,29.95-3.49,2.8-6.26,6.37-9.41,9.59-6.59,6.75-12.17,19.71-15.56,20.44,10.11-20.93,21.68-36.06,43.51-46.5,1.53-.73,3.02-1.05,3.74-2.31,3.61-.15,6.87-2.06,10.24-3.26l2.78-.99c9.05-1.64,28.43-8.42,33.96-15.82,3.62-.91,5.45-4.53,7.92-6.95,5.14-5.04,8.72-11.32,12.65-17.73,1.97.94,1.33,2.63,1.64,3.81Z" fill="#f5cd77"/><path d="M250.47,104.07c.8,1.45,1.28,3.61,2.25,4.93-5.26,2.12-10.79,3.4-16.83,4.05-.35.04-.38.48-.29.71-2.78-1.85-6.1-2.78-9.03-4.47,1.54-1.08,2.75-1.09,3.77-1.2,2.12-.24,4.32-.12,6.26-1.11.56-.29,1.41.04,2-.15.64.09,1.54-.31,1.97-.82l1.03.05c1.15.06,2.11-.75,3.16-.97s2.37-.19,2.75-1.54.97.25,2.96.51Z" fill="#d29235"/><path d="M273.83,35.89c2.92,11.13-3.36,28.02-11.33,35.9.41-3.22,2.68-2.61,4-7.02,3.21-2.64,5.55-13.1,4.63-16.73-1.63-1.38-3.63-1.64-5.42-1.53,1.99-3.4,3.91-6.82,5.58-10.65,1.35.56,1.41,1.37,1.96,2.05.61-.97.18-1.58.57-2.02Z" fill="#ebb453"/><path d="M244.75,105.1c-1.04.21-2.01,1.02-3.16.97.11-1.38-.89-1.45-1.03-.05-.44.51-1.33.91-1.97.82-.3-.04-.53-.79-.83-.87-.64-.18-1.5.22-1.17,1.02-1.94,1-4.14.88-6.26,1.11-.4-.63-1.05-1.01-1.74-1.26l-.43-.94.06-1.18c1.94.14,4.23-1.92,6.37-1.06.13.45.4.88.72,1.04.58.31,1.07.1,1.3-.37s.4-.91.12-1.36c.62.01,1.25-.1,1.86-.14.29.7.93,1.07,1.53,1.09,1.27.03,1.63-1.09,1.47-2.09.32-.06.68.02,1-.06.65,1.16,1.64,2.08,2.16,3.32Z" fill="#6e360c"/><path d="M272.4,78.9c-1.19.47-2.71,1.19-3.73,1.93-2.06-3.02-6.07,1.01-8.5,1.04-1.6.02-5.03-3.5-4.56-4.53.32-.7,1.41-.57,2.04-.52.04.82-.16,1.69.09,2.94,7.57.96,10.24-3.89,16.71-6.1.36,2.49-1.58,3.71-2.04,5.25Z" fill="#ebb453"/><path d="M250.47,104.07c-1.99-.26-2.57-1.88-2.96-.51-.25-.32-.96.09-1.24-.02-.27-.11-.45-.97-.34-1.45,1.35.35,2.46-.85,3.54-.86,2.03-.02.66,2.2,1.01,2.84Z" fill="#6e360c"/><path d="M258.53,75.84c.69-1.32,1.72-2.44,3.08-3.07-.57,1.39-1.62,2.6-3.08,3.07Z" fill="#ebb453"/><path d="M226.52,65.99c-2.91,7.27-8.87,1.95-8.87,5.18v1.41s-2.78.99-2.78.99c.36-3.07-6.82.28-6.3-3.71,2.55.6,5.14.03,7.86-1.07,3.46-1.4,6.92-1.84,10.1-2.81Z" fill="#693714"/><path d="M91.8,105.2c.04,1.31.97,2.47.76,4.12-1.87.58-3.36,1.29-4.02,2.48-3.78-1.23-9.19,4.96-10.87,2.05,1.91-2.68,5.15-2.84,8.26-4.96l-23.27-4.44c-2.23.66-3.39,3.85-4.2,5.3.15-.26-3.92,6.96-3.57,4.35-.99-4.3,7.71-8.3,4.08-13.55-.56-.81-2.79-.45-3.06-1.53-.2-.83-.46-1.6-.32-2.41,6.22,3.53,13.26,5.5,20.81,6.51l15.41,2.07Z" fill="#6e360c"/><path d="M194.62,76.87c-.51.95-1.61,1.54-2.8,2.28-18.05,11.21-25.29,21.99-35.91,39.94-9.37-16.59-18.35-28.94-33.92-38.58-1.4-.87-2.68-1.67-3.42-2.72-.2-1.71.98-2.82,2.97-3.44,23.29-7.29,47.81-7.01,71.13.22,1.46.45,2.22,1.1,1.94,2.3Z" fill="#f1ba3d"/><path d="M77.68,113.86l-1.07.08c-2.79-2.2-6.82-1.37-10.41-2.77-2.67-1.04-5.24-1.65-7.73-1.42.82-1.45,1.97-4.64,4.2-5.3l23.27,4.44c-3.11,2.12-6.35,2.29-8.26,4.96Z" fill="#d29235"/><path d="M236.74,102.97c.28.45.11.87-.12,1.36s-.72.68-1.3.37c-.31-.17-.59-.6-.72-1.04.09-1.05,1.41-.7,2.14-.69Z" fill="#6a3610"/><path d="M238.6,102.83c1.07-.09,2.1-.42,3-1,.16,1-.2,2.12-1.47,2.09-.61-.02-1.24-.39-1.53-1.09Z" fill="#6a3610"/><path d="M238.6,106.83c-.59.19-1.44-.14-2,.15-.32-.8.53-1.2,1.17-1.02.3.08.53.83.83.87Z" fill="#6a3610"/><path d="M241.6,106.06l-1.03-.05c.14-1.39,1.14-1.33,1.03.05Z" fill="#6a3610"/><path d="M228.6,106.83c-.57-.03-1.57-.77-.43-.94l.43.94Z" fill="#6b3711"/><path d="M254.55,200.74c1.19-2,5.21-7.77,6.97-8.96.35,1.63.88,3.91-.38,5.67-1.62,2.25-4.27,3.21-6.59,3.29Z" fill="#6e360c"/><path d="M228.23,104.71l-.06,1.18c-1.14.17-.15.91.43.94.69.25,1.34.63,1.74,1.26-1.03.11-2.23.12-3.77,1.2,2.93,1.68,6.25,2.62,9.03,4.47,21.14,14.02,28.65,42.14,16.73,64.99-7.44,14.26-15.01,15.9-16.74,18.91-3.21,1.51-9.08,4.28-11.99,5.89l-1,.1c-1.85.18-3.77,1.05-6.02,1.11-5.08.12-9.93.16-15.01,0-5.87-.17-19.04-5.53-24.16-10.47-1.39,1.77-.7,3.5-1.73,4.68l-.81.93c-.23.26-.14.8-.39,1.04-2.97,2.8-5.42,6.12-9.22,8.5-11.88,7.42-21.6-1.13-28.43-9.62-.05-1.65-1.18-3.22-2.57-5.13-19.27,15.1-46,14.19-64.37-2.51-11.4-10.36-17.49-25.62-15.8-41.11,1.69-15.54,9.91-29.03,22.51-37.13l1.07-.08c1.68,2.91,7.09-3.29,10.87-2.05-.46,1.15-1.63,1.28-2.9,1.84-22.9,10.14-33.27,35.84-24.23,59.32,5.15,13.38,16.97,22.68,29.04,26.24,15.31,4.51,30.07,1.11,41.74-8.03-1.13-1.72-2.77-3.16-2.03-4.98.59-1.46,2.86-1.76,3.68-3.2,3.23-5.63,6.98-10.76,12.4-14.37,11.75-7.82,24.44,1.06,30.25,12.22.95,1.83,2.08,3.19,3.89,4.19,3.23,1.79-.65,4.57-.19,6.13.18.6.84.99,1.68,1.58,14.27,9.9,32.65,11.41,48.38,2.91,14.26-7.7,24.05-23.27,23.58-40.85-.51-19-11.81-35.05-29.3-41.94-5.24-2.06-10.25-3.04-15.93-2.04-23.06,4.04-39.95,15.95-49.75,37.22-.6,1.31-1.79,1.98-2.77,2.06-4.62.41-5.74-17.56-28.29-30.56-9.59-5.53-27.4-11.89-39.22-7.74.66-1.2,2.14-1.9,4.02-2.48.21-1.66-.72-2.82-.76-4.12,9.21,1.24,18.57,2.22,27.67,5.9,17.08,6.89,27.61,15.66,36.47,33.18,5.61-12.54,17.93-25.03,30.28-30.72,10.13-4.66,20.67-7,31.75-8.14,3.69-.38,6.94-.94,10.26-.7ZM139.37,182.76c-1.35.7-3.6,3.89-2.33,5.33,2.86,3.27,11.55,4.53,16.44,9.01,3.45,3.16,6.79-2.68,17.17-6.13,1.31-.44,2.3-1.15,2.95-1.92.36-.16,1.11,0,1.46-.2,1.76-1-4.71-12.59-12.39-16.98-8.79-5.03-15.61.12-21.05,6.85-1.09,1.35-2.26,2.49-2.25,4.04ZM156.65,202.28c-4.18.34-12.35-7.17-16.85-7.03,3.16,6.92,9.2,13.16,16.64,13.01,7.05-.14,12.7-6.32,15.25-12.09-4.28-1.38-10.65,5.75-15.04,6.11Z" fill="#6a3610"/><path d="M222.6,203.65c-.31,1.32-1.59,1.68-3.21,2.02-10.59,2.27-21.63,1.65-31.4-3.27-3.22-1.63-9.32-8.02-12.32-3.42,1.03-1.19.34-2.91,1.73-4.68,5.12,4.94,18.29,10.3,24.16,10.47,5.09.15,9.94.11,15.01,0,2.25-.05,4.17-.93,6.02-1.11Z" fill="#ebb453"/><path d="M235.58,197.66c-1.22,2.11-8.31,5.54-11.99,5.89,2.91-1.62,8.78-4.38,11.99-5.89Z" fill="#ebb453"/><path d="M88.54,111.81c11.82-4.15,29.64,2.22,39.22,7.74,22.55,13,23.67,30.97,28.29,30.56.98-.09,2.17-.75,2.77-2.06,9.8-21.26,26.69-33.18,49.75-37.22,5.68-.99,10.69-.02,15.93,2.04,17.49,6.89,28.79,22.94,29.3,41.94.47,17.58-9.32,33.15-23.58,40.85-15.73,8.5-34.11,6.99-48.38-2.91-.84-.58-1.5-.97-1.68-1.58-.46-1.55,3.42-4.34.19-6.13-1.81-1-2.93-2.36-3.89-4.19-5.81-11.17-18.5-20.05-30.25-12.22-5.42,3.61-9.18,8.75-12.4,14.37-.82,1.43-3.09,1.74-3.68,3.2-.73,1.82.9,3.26,2.03,4.98-11.66,9.14-26.43,12.55-41.74,8.03-12.07-3.56-23.89-12.86-29.04-26.24-9.04-23.48,1.33-49.18,24.23-59.32,1.27-.56,2.44-.7,2.9-1.84ZM73.69,155.98c.42,11.91,7.47,22.58,18.26,27.63,10.79,5.05,23.5,3.64,32.91-3.67,9.41-7.3,13.94-19.27,11.73-30.97-3.09-16.3-18.21-27.48-34.7-25.64-16.49,1.84-28.78,16.07-28.2,32.65ZM175.78,148.82c-2.32,11.74,2.16,23.78,11.59,31.14s22.2,8.79,33.03,3.69c10.82-5.1,17.85-15.86,18.18-27.82.45-16.47-11.8-30.54-28.18-32.37-16.38-1.83-31.42,9.19-34.62,25.36Z" fill="#fcfaf6"/><path d="M136.58,148.97c-.71.2-1.32.33-1.93.42-18.23-2.19-42.84,1.27-60.34,6.66-.2.06-.47-.08-.63-.07-.58-16.58,11.71-30.81,28.2-32.65,16.49-1.84,31.61,9.34,34.7,25.64Z" fill="#f1ba3d"/><path d="M238.57,155.83l-18.09-3.89c-16.66-3.6-27.9-3.1-44.71-3.12,3.2-16.17,18.24-27.19,34.62-25.36,16.38,1.83,28.62,15.9,28.18,32.37Z" fill="#f1ba3d"/><path d="M238.57,155.83c-.32,11.96-7.35,22.72-18.18,27.82-10.82,5.1-23.59,3.67-33.03-3.69s-13.91-19.41-11.59-31.14c16.81.02,28.05-.48,44.71,3.12l18.09,3.89ZM224.74,157.89c-6.1-1.7-16.85-4.3-23.9-3.21-.38-1.87-12.32-1.5-14.07-1.46-2.57.04-4.99-.45-8.09.66.96,7.4,2.77,14.47,8.06,19.92,12.02,12.36,32.47,10.69,42.65-3.06,2.47-3.33,4.04-6.62,4.28-10.99-2.99-1.41-6.05-1.74-8.93-1.85Z" fill="#5d3b1e"/><path d="M136.58,148.97c2.22,11.71-2.31,23.67-11.73,30.97-9.41,7.3-22.12,8.72-32.91,3.67-10.79-5.05-17.84-15.72-18.26-27.63.16-.01.42.13.63.07.23,1.97-.21,4.23,1.65,5.83.22-2.88,1.19-3.89,3.55-4.38l10.65-2.2c4.17-.86,7.86-1.36,11.94-1.91,2.83-.39,5.28-2,8.57-1.34,6.41,1.27,4.63-3.16,19.95-.22,1.72.33,3.22.01,4.53,2.04.67-1.41.38-3.24-.51-4.49.61-.09,1.22-.22,1.93-.42ZM102.65,154.93c-3.56-.43-9.28,1.33-13.68,2.28-.49.24-.24,1.26-.34,1.6-3.14-2.01-10.44.17-10.1,2.09,1.08,6.1,5.06,11.48,9.73,15.18,7.01,5.56,15.07,7.35,23.78,5.34,12.66-2.92,21.77-14.34,20.58-27.4-2.3-1.38-5.03-.84-6.87-1.05-6.64-.75-21.71,2.13-23.09,1.97ZM77.6,165.33c0-.28-.22-.5-.5-.5s-.5.22-.5.5.22.5.5.5.5-.22.5-.5Z" fill="#5d3b1e"/><path d="M174.48,200.95l.87.04c-.71,3.54-2.73,6.38-5.39,9.17-6.95,7.25-13.8,11.66-23.79,4.19-3.55-2.66-9.2-10.04-9.33-14.52,6.82,8.49,16.54,17.04,28.43,9.62,3.8-2.37,6.25-5.69,9.22-8.5Z" fill="#d29235"/><path d="M175.35,201l-.87-.04c.25-.23.17-.78.39-1.04.84-.2.57.64.48,1.08Z" fill="#ebb453"/><path d="M173.6,189.05c-.65.77-1.64,1.48-2.95,1.92-10.38,3.45-13.72,9.29-17.17,6.13-4.89-4.48-13.58-5.74-16.44-9.01-1.26-1.45.98-4.63,2.33-5.33,2.68-1.39,12.43-15.72,26.63-5.57,3.88,2.77,8.53,7.56,7.59,11.87ZM164.95,182.51c-.31-1.41-1.84-3.32-3.43-2.8-2.68.89-2.66,5.23-.74,6.45,1.12.71,2.58.19,3.31-.37.61-.47,1.27-1.5.87-3.29Z" fill="#ef842a"/><path d="M156.65,202.28c4.38-.35,10.75-7.48,15.04-6.11-2.55,5.76-8.2,11.95-15.25,12.09-7.44.15-13.47-6.09-16.64-13.01,4.5-.13,12.66,7.37,16.85,7.03Z" fill="#ef842a"/><path d="M173.6,189.05c.94-4.31-3.72-9.1-7.59-11.87-14.2-10.15-23.95,4.18-26.63,5.57-.02-1.54,1.15-2.68,2.25-4.04,5.44-6.73,12.26-11.88,21.05-6.85,7.68,4.4,14.15,15.98,12.39,16.98-.35.2-1.1.04-1.46.2Z" fill="#ebb453"/><path d="M164.95,182.51c.4,1.79-.26,2.82-.87,3.29-.72.56-2.19,1.08-3.31.37-1.92-1.22-1.94-5.56.74-6.45,1.59-.53,3.12,1.38,3.43,2.8Z" fill="#ebb453"/><path d="M134.65,149.39c.89,1.25,1.18,3.07.51,4.49-1.31-2.03-2.81-1.71-4.53-2.04-15.32-2.94-13.54,1.49-19.95.22-3.28-.65-5.74.96-8.57,1.34-4.08.56-7.77,1.05-11.94,1.91l-10.65,2.2c-2.36.49-3.33,1.5-3.55,4.38-1.87-1.6-1.42-3.86-1.65-5.83,17.5-5.38,42.11-8.85,60.34-6.66Z" fill="#6e360c"/><path d="M186.76,153.21c-.01,1.87,1.11,3.78,1.58,5.47-.56,6.1,5.56,11.21,10.1,13.17,6.7,2.9,13.04,1.91,18.48-1.6,4.56-2.94,7.34-7.34,7.81-12.37,2.88.11,5.94.44,8.93,1.85-.24,4.38-1.82,7.66-4.28,10.99-10.18,13.75-30.63,15.43-42.65,3.06-5.29-5.44-7.11-12.52-8.06-19.92,3.1-1.11,5.52-.61,8.09-.66Z" fill="#3eb8a2"/><path d="M224.74,157.89c-.47,5.04-3.25,9.44-7.81,12.37-5.44,3.51-11.78,4.5-18.48,1.6-4.54-1.96-10.66-7.07-10.1-13.17,1.78,1.5,3.88,2.89,6.61,2.48,3.59-.55,6.03-3.22,5.88-6.48,7.06-1.09,17.8,1.5,23.9,3.21Z" fill="#1f6056"/><path d="M200.84,154.68c.15,3.27-2.29,5.94-5.88,6.48-2.73.41-4.84-.97-6.61-2.48-.47-1.69-1.6-3.6-1.58-5.47,1.75-.03,13.7-.4,14.07,1.46Z" fill="#efefef"/><path d="M88.63,158.8c-1.74,5.58,10.39,19,24.92,13.42,7.57-2.91,12.51-10.87,12.19-19.25,1.85.21,4.57-.33,6.87,1.05,1.19,13.06-7.91,24.48-20.58,27.4-8.71,2.01-16.77.22-23.78-5.34-4.67-3.71-8.65-9.09-9.73-15.18-.34-1.92,6.97-4.1,10.1-2.09Z" fill="#3eb8a2"/><path d="M125.74,152.96c.32,8.38-4.63,16.35-12.19,19.25-14.53,5.58-26.66-7.84-24.92-13.42l2.94,1.88c2.42,1.55,5.4,1.11,7.9-.4,1.56-.94,2.67-3.18,3.18-5.35,1.39.17,16.46-2.72,23.09-1.97Z" fill="#1f6056"/><path d="M102.65,154.93c-.51,2.17-1.61,4.41-3.18,5.35-2.5,1.51-5.48,1.95-7.9.4l-2.94-1.88c.1-.33-.15-1.36.34-1.6,4.39-.95,10.12-2.71,13.68-2.28Z" fill="#efefef"/><circle cx="77.1" cy="165.33" r=".5" fill="#6e360c"/></svg>