<?xml version="1.0" encoding="UTF-8"?><svg id="Layer_1" xmlns="http://www.w3.org/2000/svg" viewBox="0 0 311.81 311.81"><path d="M290.92,122.87c-1.58-4.32-2.9-7.28-7.68-7.46,4.22-3.32,4.58.02,7.28-7.02,1.59,3.25,3.51,4.77,7.08,6.79-4.02,1-6.41,3.42-6.67,7.69Z" fill="#ebb453"/><path d="M19.53,103.36c-.91-2.77-2.46-3.88-5.31-5.2,2.49-.99,4.31-2.26,5.11-4.9,1.95,1.7,2.92,3.78,5.15,4.9-2.57,1.66-3.65,3.16-4.95,5.2Z" fill="#ebb453"/><circle cx="281" cy="93.38" r="2.21" fill="#f5cd77"/><circle cx="26.46" cy="216.1" r="2.39" fill="#f5cd77"/><path d="M30.74,40.87c-.27-5.38,1.87-7.38,3.77-9.28.81-1.16-3.71,13.39-3.77,9.28Z" fill="#693714"/><path d="M75.08,42.56c-1.61-1.67-1.01-5.16-3.4-6.19l-5.3-2.29c7.8-5.15,4.62-.89,8.59-9.51,2.95,8.02.82,5.18,9.03,9.56-4.87.7-7.33,2.64-8.92,8.42Z" fill="#ebb453"/><circle cx="200.23" cy="57.9" r="2.87" fill="#ebb453"/><path d="M46.63,98.75c-.1.28.02.67-.12.92-19.28,34.41-20.72,72.89-4.75,109.53,3.45,7.92,7.87,14.84,12.76,21.35l.78,1.04c.21.32-.02.96.29,1.36.42.53,1.19.65,1.84.68,1.11,3.29,4.52,5.35,6.72,8.17,6.02,7.69,13.75,12.3,21.12,17.52,19.65,13.91,43.32,21.16,68.18,21,24.28-.15,48-6.87,67.07-20.79,1.76-1.29,4.15-1.9,6.21-3.58,8.15-6.66,16.17-13.26,21.89-21.71,1.96-.09,2.23-2.25,2.79-3.73,1.37-.31,1.89-1.73,2.79-3.1l4.35-6.61c1.16-1.76,1.76-3.27,2.77-5.19,18.79-35.76,18.87-77.96-.19-113.63-.5-.93-1.03-1.28-1.61-1.46.43-2.67,3.21-3.88,5.7-4.21,2.18,4.13,4.38,8.31,6.47,12.96,7.05,15.71,11.01,37.31,10.11,54.62-1.29,24.83-8.87,48.5-23.26,68.77-10.45,14.72-22.77,25.54-37.9,35.13-21.01,13.32-49.82,20.93-74.55,19.22-21.38-1.48-41.85-6.87-59.6-18.53l-7.3-4.79c-8.18-5.37-19.18-15.64-25.5-23.33-25.87-31.5-35.22-72.56-25.68-112.34,2.62-10.93,6.91-21.28,12.26-30.36.32-.54,1.19-1.49,1.82-2.13l4.53,3.24Z" fill="#7e431b"/><path d="M94.26,241.44c24.68,10.48,57.92,12.5,84.98,8.75,11.73-1.63,22.59-4.8,33.27-8.61.26-.09.6.04.87-.01l7.15,17.96c-19.08,13.92-42.79,20.64-67.07,20.79-24.86.15-48.54-7.09-68.18-21l7.17-17.77,1.81-.1Z" fill="#f6eed7"/><path d="M242.62,225.57c.39.41.94.66,1.43.91.21.8.67,1.52,1.38,1.96.3.94.83,1.86,1.81,2.18.04.32-.08.72.06,1,.21.43.47,1.45,1.12,1.14.33.42.45.98.2,1.47-5.71,8.44-13.73,15.04-21.89,21.71-2.06,1.68-4.44,2.3-6.21,3.58l-7.15-17.96c7.93-3.39,16.46-7.45,24.03-12.87,1.83-1.31,2.97-3.48,5.21-3.13Z" fill="#f1ba3c"/><path d="M92.45,241.54l-7.17,17.77c-7.37-5.22-15.09-9.83-21.12-17.52-2.2-2.82-5.61-4.87-6.72-8.17,4.28-5.1,1.18-3.35,7.06-8.09,1.95,2.93,12,8.45,15.89,10.3l12.06,5.72Z" fill="#f1ba3d"/><path d="M247.54,212.62c-1.21,2.25-3.93,3.01-5.66,5.3,1.15,2.94,3.61,5.05,5.76,7.54,1.5,1.74,2.09,3.92,3.77,5.04-.56,1.48-.83,3.65-2.79,3.73.25-.49.12-1.04-.2-1.47-.06-.61-.48-1.14-1.12-1.14-.14-.28-.02-.68-.06-1-.14-1.03-.89-1.76-1.81-2.18-.71-.44-1.16-1.16-1.38-1.96.96-1.54-3.7-5.78-5.53-5.27-.59.17-1.36-.49-1.97-.47.21-.86-.53-2.67.49-3.45,4.5-3.47,3.06-4.22,10.51-4.66Z" fill="#693714"/><path d="M55.3,231.59l-.78-1.04c1.41-1.99,2.75-4.13,4.81-6.04,1.57-2.55,3.61-4.4,5.8-5.84,4.66,1.82-2.54,1.54-4.32,6.2-1.41,3.69-2.03,7.85-5.51,6.72Z" fill="#693714"/><path d="M248.43,211.68c-.08.43-.71.6-.9.94-7.45.44-6.01,1.19-10.51,4.66-1.01.78-.28,2.59-.49,3.45-7.62,6.36-17.32,9.68-26.27,14.03-2.6,1.26-6.66,1.71-10.08,2.69-33.97,9.75-70.85,8.21-103.83-2.75-4.17-1.39-22.88-10.04-27.09-14.03-2.75.57-3.31,3.65-4.79,4.85-5.88,4.74-2.78,2.99-7.06,8.09-.65-.02-1.42-.14-1.84-.68-.31-.4-.08-1.04-.29-1.36,3.48,1.12,4.1-3.03,5.51-6.72,1.78-4.66,8.98-4.38,4.32-6.2l.05-.85c.11-1.82-.13-3.6-.92-5.24,9.7,6.82,19.61,12.93,31.19,17.17,34.71,12.7,74.73,13.42,109.79,1.91,11.45-3.76,25.34-10.17,34.38-17.72,2.81-2.35,5.85-3.99,8.18-6.97,1.36-1.74,3.05-3.04,4.63-4.06-.5,8.03-3.17,4.23-3.99,8.78Z" fill="#6e360c"/><path d="M73.28,116.73c-1.24,1.49-2.87,2.64-4.61,4.15-15.59,13.45-21.07,34.66-14.41,54.13,5.69,16.62,17.19,25.25,32.17,31.42,2.09,4.76,25.99,3.35,29.58,1.71,1.79-.82,14.22-7.74,14.88-7.55,2.19.63,1.53,7.1,4.5,9.14l.91.04c-.01.28-.01.62.04.91.08.48.46.92.96.96.03.31-.1.72.03,1,.2.44.46,1.44,1.09,1.11.19.68.52,1.31,1.07,1.76.13.45.37.86.76,1.13.07.32-.05.7.06,1,.17.5.79.76,1.03,1.19,1.48,2.59,3.75,4.54,6.33,6.58,7.09,5.62,14.86-2.4,17.79-7.73,1.95-.87,2.81-3.11,2.97-5.11.49-.4.43-1.42.79-1.85,2.56-2.99,3.04-7.1,3.89-10.88.08-.35.3-.68.34-1.03,3.02-.44,3.95,2.01,7.2,2.49.11.29.07.81.04,1.13-.12,1.51,8.22,5.44,11.78,6.05l5.99,1.03c3.47.59,19.31.48,22.01-3.04.26-.33,9.4-4.87,6.97-3.93,4.22-1.65,8.61-4.03,11.08-7.89,1.81-.37,2.73-1.98,3.84-3.15,23.91-25.2,9.09-65.19-9.79-74.89,4.73-2.16,11.37-2.58,16.79-5.22.32.5,1.77.85,1.47,1.78-.83,2.57,2.89,5.71,4.42,9.57.99,2.5,1.42,4.81,3.15,6.93,2.22,2.72,5.65,21.05,6.44,25.7,2.34,13.74-2.5,13.69.41,19.26-.2.87-.62,1.8-.68,2.72-.69-.5-1.66.15-2.1,1.16-4.03,9.2-10.49,17.69-18.19,24.02-23.72,19.48-53.24,27.49-83.86,29.04-18.63.94-36.44-1.66-54.39-6.45-17.16-4.58-32.53-12.72-45.94-24.02-5.79-6.17-11.35-11.72-15.22-19.19-.61-1.18-1.23-2.16-2.4-2.1-4.14-14.62-3.26-13.08-2.08-27.16.64-7.61,3.39-14.28,5.07-21.14.07-.29,0-.63.02-.93.31-.06.75-.27,1-.81,2.99-6.48,5.78-12.8,10.11-18.04,3.5,1.71,14.47,3.38,16.69,5Z" fill="#f1ba3c"/><path d="M267.41,141.75c-2.06-.27-1.67-4.26-4.69-6.57.67-1.47-3.34-8.69-2.91-8.45-.37-.21-.93-.23-1.39-.11-.11-.29.06-.69,0-1-.1-.52-.44-.99-1-1v-1c0-.5-.48-.94-1-1-.03-.32-.01-.67,0-1,.02-.71.16-1.49-.09-2.38-.2-.74-1.15-.78-1.91-.62-.69-.46-.9-1.22-1-2-.06-.48-.59-.85-1-1-1.32-.18-.65-1.78-1.02-2.61-.96-2.13-1.79-4.36-.02-6.2,5.04,5.18,16.87,29.38,16.02,34.95Z" fill="#693714"/><path d="M210.28,234.77c-.06,2.96,2.07,3.99,2.22,6.81-10.67,3.81-21.53,6.98-33.27,8.61-27.06,3.76-60.3,1.74-84.98-8.75-.53-2.2,1.62-4.36,2.12-6.73,32.98,10.96,69.86,12.5,103.83,2.75,3.42-.98,7.48-1.43,10.08-2.69Z" fill="#d8c19d"/><path d="M96.37,234.71c-.5,2.37-2.65,4.53-2.12,6.73l-1.81.1-12.06-5.72c-3.89-1.85-13.94-7.37-15.89-10.3,1.49-1.2,2.04-4.28,4.79-4.85,4.21,3.99,22.92,12.64,27.09,14.03Z" fill="#d29235"/><path d="M238.52,221.21c1.2,1.6,2.73,2.9,4.1,4.36-2.23-.35-3.38,1.82-5.21,3.13-7.57,5.41-16.1,9.48-24.03,12.87-.27.05-.61-.08-.87.01-.15-2.81-2.28-3.85-2.22-6.81,8.95-4.35,18.64-7.67,26.27-14.03.61-.02,1.38.64,1.97.47Z" fill="#d29235"/><path d="M267.41,141.75c-.04.29.08.6.05.9-.19,1.91-.1,3.98.95,6.17v20.83c-.01,2.6-.33,4.93-1.8,7.07.35,2.54-.59,4.39-1.51,6.48-1.85,4.17-2.88,8.48-3.49,12.62-.05.3-.2.64-.33.92-1.96-.51-3.8.21-4.92,1.9l.02-1.15,1.96-3.86c.6-.1.85-.59,1.06-1.1l3.99-9.98c.74-1.86,1.08-3.57,1.18-5.2.06-.92.48-1.85.68-2.72l1.13-5.01c1.09-4.8.32-9.88-.23-14.75-1.16-10.16-4.17-19.23-7.72-28.23.46-.12,1.01-.09,1.39.11-.44-.24,3.58,6.98,2.91,8.45,3.02,2.31,2.63,6.3,4.69,6.57Z" fill="#6b3711"/><path d="M261.6,195.81c.61-4.14,1.64-8.45,3.49-12.62.93-2.09,1.87-3.94,1.51-6.48,1.48-2.14,1.79-4.47,1.79-7.07v-20.83c-1.04-2.18-1.12-4.25-.94-6.17,3.84,3.35,3.15,23.97,2.7,29.93-.56,7.35-3.74,13.7-6.37,20.38-.54,1.36-.72,2.93-2.19,2.85Z" fill="#693714"/><path d="M261.27,196.73c-1.74,3.8-4.19,7.14-7.48,10.24-1.86,1.75-2.96,4.24-5.36,4.71.82-4.56,3.49-.75,3.99-8.78.11-1.8,1.72-3.12,2.99-4.16l.93-.11c1.12-1.69,2.95-2.41,4.92-1.9Z" fill="#693714"/><path d="M46.53,190.62l.02,1c.01.73-.31,1.6-.05,2.41s1.37.68,2.1.59c.41.61.63,1.29.83,1.99.14.48.61.83.96,1.15.52.45,1.27,1.15,1.13,1.97-.25,1.56.55,2.66,1.68,4.15l3.03,3.99c1.32,1.74,3.18,2.69,5.07,2.44,1.59,0,1.99,1.59,2.96,2.27.79,1.64,1.03,3.41.92,5.24-.96-.24-2.22-.82-3-1.9-3.02-4.15-7.41-2.57-18.31-20.93-7.95-13.39-10.02-29-7.5-44.39.38-2.33.48-4.31,1.21-6.07,1.22-1.51.44,6.86.75,11.09.49,6.83-.55,16.84.48,21.91.76,3.75,3.2,6.62,4.5,10.06.68,1.78,1.31,3.47,3.24,3.03Z" fill="#693714"/><path d="M45.46,131.51c-1.68,6.86-4.43,13.52-5.07,21.14-1.18,14.08-2.06,12.54,2.08,27.16.38,3.86,1.98,7.56,4.06,10.82-1.93.44-2.56-1.25-3.24-3.03-1.31-3.44-3.74-6.31-4.5-10.06-1.03-5.07.01-15.08-.48-21.91-.3-4.23.47-12.61-.75-11.09.22-.54.22-1.41.67-1.84,7.16-6.75,1.87-10.9,7.22-11.18Z" fill="#6b3711"/><path d="M45.48,130.58c-.02.3.06.64-.02.93-5.36.29-.07,4.43-7.22,11.18-.68-2.14,6.86-23.58,9.12-23.31-.41,3.77-1.68,7.4-1.88,11.19Z" fill="#693714"/><path d="M48.41,117.65c-.1-.85.2-1.72.98-2.13.19.91-.19,1.7-.98,2.13Z" fill="#693714"/><path d="M50.47,113.7c.1-.51.38-.99.89-1.17-.17.46-.53.84-.89,1.17Z" fill="#693714"/><path d="M244.05,226.48c-.5-.25-1.04-.5-1.43-.91-1.37-1.45-2.9-2.76-4.1-4.36,1.83-.51,6.49,3.73,5.53,5.27Z" fill="#6e360c"/><path d="M247.23,230.62c-.98-.32-1.51-1.24-1.81-2.18.92.42,1.67,1.15,1.81,2.18Z" fill="#6e360c"/><path d="M248.41,232.76c-.65.31-.91-.71-1.12-1.14.64,0,1.06.54,1.12,1.14Z" fill="#6e360c"/><path d="M264.57,177.34c-.1,1.63-.44,3.34-1.18,5.2l-3.99,9.98c-.65-.12-.83.65-1.06,1.1l-1.96,3.86c-.19.37-.75.88-.95,1.26-1.28,1.03-2.88,2.36-2.99,4.16-1.58,1.02-3.27,2.32-4.63,4.06-2.33,2.98-5.37,4.62-8.18,6.97-9.04,7.55-22.93,13.96-34.38,17.72-35.05,11.52-75.08,10.79-109.79-1.91-11.58-4.23-21.48-10.35-31.19-17.17-.97-.68-1.37-2.27-2.96-2.27-3.71-3.02-6.21-8.04-9.78-10.58.13-.82-.61-1.51-1.13-1.97-.35-.3-.12-1.61-.96-1.15-.2-.69-.42-1.38-.83-1.99-.17-1.28-.72-2.64-2.05-3l-.02-1c-2.09-3.26-3.68-6.96-4.06-10.82,1.17-.06,1.79.92,2.4,2.1,3.86,7.47,9.43,13.02,15.22,19.19,13.41,11.3,28.77,19.44,45.94,24.02,17.94,4.79,35.75,7.4,54.39,6.45,30.62-1.55,60.13-9.56,83.86-29.04,7.7-6.32,14.16-14.82,18.19-24.02.44-1.01,1.41-1.67,2.1-1.16Z" fill="#d29235"/><path d="M132.32,198.36c.29.06.62.31.92.24.2,1.29-.57,3.29.8,4.02-.2,1.01-.06,2.07.29,3.03.18.49.57.87,1.1.97.02.33,0,.67,0,1l-.04,2.09c-2.98-2.04-2.31-8.51-4.5-9.14-.67-.19-13.09,6.73-14.88,7.55-3.59,1.64-27.49,3.05-29.58-1.71.81.32,12.7,1.85,11.73,1.41,2.82,1.28,4.78.47,7.49.13,15.72-1.98,13.06-2.74,26.67-9.6Z" fill="#ebb453"/><path d="M252.43,115.62c.26.3.51.89,1,1,.1.78.31,1.54,1,2-.04,1.34.6,2.74,2,3-.01.33-.03.68,0,1,.05.53.44,1.01,1,1v1c0,.5.48.93,1,1,.06.31-.11.71,0,1,3.55,9,6.55,18.07,7.72,28.23.56,4.88,1.32,9.95.23,14.75l-1.13,5.01c-2.91-5.56,1.93-5.52-.41-19.26-.79-4.66-4.22-22.99-6.44-25.7-1.73-2.12-2.16-4.43-3.15-6.93-1.53-3.86-5.25-7-4.42-9.57.22-.36.44-.67.58-.15.37.83-.29,2.43,1.02,2.61Z" fill="#ebb453"/><path d="M256.43,121.62c-1.4-.26-2.04-1.66-2-3,.76-.16,1.71-.12,1.91.62.24.89.11,1.67.09,2.38Z" fill="#6b3711"/><path d="M253.43,116.62c-.49-.11-.74-.7-1-1,.41.15.94.52,1,1Z" fill="#6b3711"/><path d="M257.43,123.62c-.56.01-.95-.47-1-1,.52.06,1,.5,1,1Z" fill="#6b3711"/><path d="M258.43,125.62c-.52-.07-1-.5-1-1,.56,0,.9.48,1,1Z" fill="#6b3711"/><path d="M236.49,61.56l.07,1.8c-1.7.25-3.26,1.84-5.13,1.26-.32-.1-.68-.04-1.01-.12l-8.05-5.74c-16.6-11.83-39.26-20.25-59.92-21.25-29.12-1.41-45.1,2.65-70.3,15.76-6.03,3.14-10.8,7.58-15.79,11.55-2.5,1.1-6.02-.35-6.74-3.04,30.05-27.33,74.37-37.17,114.17-27.45,16.51,4.03,31.3,11.16,44.79,21.07,2.9,2.13,5.95,3.6,7.91,6.16Z" fill="#7e431b"/><path d="M69.62,61.78c.72,2.69,4.24,4.14,6.74,3.04,1.62,3.21,13.32,5.32,19.4,7.62,2.46.93,4.51.09,6.72-.81l6.9-2.82c3.74-1.53,7.49-2.61,11.5-3.73,20.66-5.78,41.96-5.95,62.68-.52,2.11.55,10,1.94,9.88,3.86-2.71.63-12.27-4.55-13.8-.8-.43-.15-.95-.19-1.4-.27-.03-.57.27-1.59-.15-2.02-3.85-.76-7.6-.44-11.45-.9-.17-.02-6.6-2.17-6.2.28-.92.17-2.06-.03-3-.01-.06-.44.22-1.25-.03-1.57-.51-.64-1.91-.83-2.92-.51-7.92,2.45-11.69-.71-11.2,2.84-1.2-.12-2.65.02-3.84.19.96-2.67-16.27.2-16,3.03-.62.19-1.36.1-2,.18-.39.05-.84-.17-1.39-.06-.43.09-.76.34-.61.94-.66.04-1.34.29-2,.22-.59-.07-1.1.02-1,.77-.66.05-1.33.27-2,.22-.6-.05-1.11.03-1,.79-1.94.55-3.85,1.88-5.91,1.94-5.28.15-3.32,4.95-5.78,3.54-1.27-.73-2.32-.12-3.17-.26-9.91-1.67-19.66-5.04-29.13-9.51-7.94-3.75-14.63-8.95-20.2-15.58-1.29-1.54-2.49-2.98-2.89-4.65.09.38-1.47-7.25-.75-6.51l5.86,6.88c4.57,5.37,11.4,12.97,18.17,14.19Z" fill="#693714"/><path d="M274.38,80.67c-.13,1.43-1.35,2.63-1.81,3.95-.59.07-1.05.52-1.07,1.12-.2.72-.89,1.27-1.29,1.79-2.41-.15-6.58,6.56-4.9,6.98,0,.53-.32,1.28-.08,1.78-2.49.33-5.28,1.54-5.7,4.21-1.45.3-9.54,4.04-8.14,6.3-1.77,1.85-.94,4.07.02,6.2-.14-.52-.36-.21-.58.15.3-.93-1.14-1.28-1.47-1.78-.64-1.38-1.92-4.14-3.73-4.67-7.43,2.64-14.4,3.29-22.57,5l9.51,4.89c18.88,9.7,33.7,49.69,9.79,74.89-1.76,1-.75-3.99-.75-4.6.05-.31.4-.63.73-1.24,3.45.68,7.89-14.63,8.8-17.37,1.76-5.31,1.93-12.56.36-17.69s-2.27-9.79-4.72-14.32c-1.1-2.03-3.59-3.66-3.92-5.93-.37-2.5-2.15-2.34-3.44-3.62-4.26-4.26-8.53-7.61-13.97-10.19-2.24-1.06-4.08-2.61-6.74-3.18-1.2-.26-3.44-1.66-2.37-2.8l2.08-2.21c10.39-2.53,16.96-1.82,28.92-6.67,8.12-3.3,21.14-12.83,22.01-20.99.35-.74,1.36-1.62,1.28-2.6-.1-1.18-.88-1.81-2.02-1.78l-.22-1.94,4.1-1.67c2.31,2.17,2.14,5.26,1.88,7.99Z" fill="#6b3711"/><path d="M274.38,80.67c.26-2.73.43-5.82-1.88-7.99l-4.1,1.67c-1.09-.49-2.15-1.11-2.86-2.22-1.07-1.69,2.03-6.02,0-5.53.42-.5.54-1.48,1.18-1.81,2.91-1.51,6.1-9.02,5.99-11.08-.36-6.22-.39-12.02-.25-18.2.04-1.72-1.22-3.49-2.95-2.98-.92.27-1.61.55-1.97.92s.12,1.3.12,1.92c0,.89-.44,1.78-1.19,2.24-.4.25-.63.69-.82,1.1-3.28,6.93-13.1,20.11-20.15,23.01,0-.59-.45-.86-.8-.97-3.05-.92-.88,1.52-8.15,2.6l-.07-1.8c7.66-.35,21.95-17.45,25.06-23.93,1.13-2.36,6.12-9.72,9.83-6.94,2.7,2.03,3.85,5.42,3.9,8.89.24,16.59-.48,16.32-7.96,31.96,2.96.33,5.23-.47,7.98.18-.08,1.43.82,10.29-.93,8.94Z" fill="#693714"/><path d="M45.59,40.7c-.72-.75.84,6.89.75,6.51-3.27-1.88-5.7-8.96-9.14-12.4-2.77,5.07-2.3,10.68-1.58,15.81,1.4,10.79,7.72,20.96,15.82,28.84.47.45.95,1.26.95,1.65,0,.62-1.04,1.72-2.18,1.6-7.35-.8-13.17-7.5-14.53-5.78-1.09,1.37.61,2.85.85,3.88,2.05,8.57,10.71,13.68,16.87,18.65-2.32.45-4.46-.87-6.77-.72l-4.53-3.24c-.62.65-1.5,1.59-1.82,2.13.16-.93-.06-2.21.47-3.03.34-.45,1.18-.87.66-1.52-.6-.76-1.43-.47-2.03-.5l-.87-1.13c.74-1.68-3.01-8.45-5.03-7.67-.19-.39-.1-.93-.28-1.34,1.25-1.34-.31-2.96-1.54-3.77-1.24-1.91-1.73-5.06.67-6.02l7.64.8c1.29-3.96-.11-7.04-2.18-10.17-.89-1.34-2.73-8.34-5.44-7.71l-1.27-7.74-.35-6.97c.06,4.11,4.59-10.45,3.77-9.28,2.11-2.12,4.64-1.22,6.8,1.27s2.52,5.79,4.28,7.85Z" fill="#6b3711"/><path d="M32.34,72.66c.47-2.03,4.57-.34,5.95-1.71-2.53-5.31-5.06-10.09-5.93-15.37,2.71-.63,4.55,6.37,5.44,7.71,2.07,3.13,3.48,6.21,2.18,10.17l-7.64-.8Z" fill="#693714"/><path d="M38.52,91.45c-1.12-.57-2.06-1.53-2.76-2.98l-2.27-4.69c2.02-.78,5.78,5.99,5.03,7.67Z" fill="#693714"/><path d="M270.22,87.53c-.88,2.75-2.87,4.97-4.9,6.98-1.68-.43,2.5-7.13,4.9-6.98Z" fill="#693714"/><path d="M33.21,82.45c-1.08-.95-.81-2.63-1.54-3.77,1.23.81,2.8,2.43,1.54,3.77Z" fill="#693714"/><path d="M40.76,94.6c-.49.01-1.01-.22-1.08-.57l-.28-1.44c.6.03,1.43-.26,2.03.5.51.65-.32,1.07-.66,1.52Z" fill="#693714"/><path d="M271.51,85.74c.02-.6.48-1.05,1.07-1.12-.17.48-.94.69-1.07,1.12Z" fill="#693714"/><path d="M53.41,99.47c.86-.17,1.4.66,2.04.95-.19,2.33,4.46,4.17,1.58,5.72-3.88,2.08-1.62,4.84-5.66,5.54l4.24-6.88-5.55-2.86c-1.42-.73-2.28-1.97-3.55-2.27.14-.25.03-.65.12-.92,2.31-.15,4.45,1.17,6.77.72Z" fill="#693714"/><path d="M229.45,70.44c-2.91,1.96-6.63,2.73-10.01,3.36-.06-.61-.89-1.68-1.76-.96-.6.5-.12,1.45-.24,1.84-1.68.52-3.37,1.06-5.14,1.04-1.08-2.23-2.51.51-8.67-2.32-2.24-1.03-9.23-3.6-9.12-3.35-.22-.48-.13-1.1-.07-1.56,9.17,1.38,9.29,5.57,13.48,4.47,2.27-.6,24.66-6.2,22.52-8.45.33.08.69.02,1.01.12.67,4.42-1.62,3.37-1.99,5.82Z" fill="#693714"/><path d="M245.51,61.73c-3.67,5.03-13.77,7.16-16.07,8.71.36-2.45,2.66-1.4,1.99-5.82,1.87.58,3.43-1,5.13-1.26,7.27-1.08,5.1-3.52,8.15-2.6.35.1.8.37.8.97Z" fill="#6e360c"/><path d="M193.43,68.42c.29-.07.7.01,1,.06-.06.45-.15,1.08.07,1.56-.11-.25,6.88,2.32,9.12,3.35,6.16,2.83,7.59.09,8.67,2.32-1.46,1.27-3.51,1.63-5.68,2.4-25.41,9.1-40.76,25.76-51.4,49.44-.26.13-.86.52-.84.8-1.66.04-3.16-1-4.02-2.82-10.42-21.88-25.44-37.92-48.38-46.66-1.39-.53-2.82-.89-3.4-1.92.85.14,1.9-.47,3.17.26,2.46,1.41.5-3.39,5.78-3.54-.49.82-1.75.53-2.39,2.11l11.28,4.93c9.06,6.38,20.58,14.71,26.84,24.98l9.98,16.37c6.41-11.9,13.14-22.28,22.62-30.85,5.09-4.6,10.7-7.71,15.78-11.58,2.82-1.11,6.17-1.79,9.5-4.26-7.25-3.65-14.46-5.34-21.51-7.75,1.54-3.75,11.09,1.43,13.8.8Z" fill="#6e360c"/><path d="M157.43,64.7c.94-.02,2.08.18,3,.01,2.21,1.36,5.12.44,7.96.94l9.83,1.71c.45.08.97.12,1.4.27,7.05,2.42,14.26,4.1,21.51,7.75-3.34,2.48-6.68,3.15-9.5,4.26.17-1.11-.85-1.61-2.16-2.01-12.09-3.68-24.19-6.12-36.84-5.62-12.75.5-24.91,2.16-37.09,6.21-.16,1.03.72,1.68.86,2.5l-11.28-4.93c.64-1.57,1.9-1.29,2.39-2.11,2.06-.06,3.98-1.4,5.91-1.94.43-.12.83-.36,1-.79.67.05,1.34-.17,2-.22.47-.04.97-.23,1-.77.66.07,1.34-.17,2-.22.75-.05,1.76,0,2-.88.64-.08,1.38,0,2-.18,5.2-1.55,10.62-2.28,16-3.03,1.2-.17,2.64-.31,3.84-.19,1.39.14,2.6-.23,4.34-.58,3.44-.68,6.73-.11,9.81-.18Z" fill="#f5cd77"/><path d="M46.35,47.21c.4,1.67,1.6,3.11,2.89,4.65,5.56,6.63,12.25,11.83,20.2,15.58,9.47,4.47,19.23,7.84,29.13,9.51.58,1.03,2.01,1.39,3.4,1.92,22.94,8.74,37.96,24.78,48.38,46.66.87,1.82,2.36,2.86,4.02,2.82.14.83-.89,1.73-2.03,1.44-3.85-3.32-6.03-7.92-8.9-11.98l-5.42-7.66-3.66-4.45c-4.67-5.68-11.25-11.01-17.81-14.29-4-2-7.74-4.31-12.1-5.78l-24.68-8.3c-6.76-2.27-13.09-5.18-19.03-8.94-4.39-2.77-17.65-18.89-19.99-24.05-.72-1.58-1.54-3.13-3.75-4.08-1.29,2.01.48,9.29-1.37,10.35-.72-5.13-1.19-10.74,1.58-15.81,3.44,3.44,5.88,10.52,9.14,12.4Z" fill="#f5cd77"/><path d="M178.23,67.35l-9.83-1.71c-2.85-.5-5.76.42-7.96-.94-.4-2.45,6.03-.3,6.2-.28,3.85.46,7.6.14,11.45.9.42.43.13,1.45.15,2.02Z" fill="#6e360c"/><path d="M139.43,65.64c-5.37.75-10.79,1.49-16,3.03-.28-2.84,16.96-5.7,16-3.03Z" fill="#6e360c"/><path d="M157.43,64.7c-3.09.07-6.38-.5-9.81.18-1.74.34-2.95.71-4.34.58-.49-3.55,3.28-.39,11.2-2.84,1.01-.31,2.42-.13,2.92.51.25.32-.03,1.13.03,1.57Z" fill="#6e360c"/><path d="M121.43,68.85c-.24.88-1.25.83-2,.88-.15-.6.18-.85.61-.94.55-.11,1,.1,1.39.06Z" fill="#6e360c"/><path d="M116.43,70.72c-.1-.76.41-.84,1-.77-.03.54-.53.74-1,.77Z" fill="#6e360c"/><path d="M113.43,71.73c-.11-.76.4-.84,1-.79-.17.43-.57.67-1,.79Z" fill="#6e360c"/><path d="M269.36,80.66c-.87,8.16-13.88,17.7-22.01,20.99-11.96,4.85-18.53,4.14-28.92,6.67-2.43.59-5.49-.67-8,.29-.43.16-1.01.13-1,.76-1.67-.21-3.35-.07-5,.21-.45.08-.98.16-1,.73-1.34-.11-2.68.06-4,.3-.55.1-1.09.16-.96.9-.28.02-.56.02-.83.06-6.4.82-12.24,3.99-18.29,7.1-1.07.55-1.96,1.03-1.93,2.04-.29-.03-.62.19-.89.1-.64-.2-.85.59-1.24.74-3.32,1.31-5.87,4.03-7.84,6.92-3.95,1.58-11.74,12.63-13.74,17.66-1.12-.02-1.37-1.21-2.23-1.4.12-.84-.49-1.58-1-2.06-.25-1.95-1.03-4.38-3.11-5.06-.26-2.56-2.85-3.58-4.18-5.33-5.84-7.62-13.93-13.42-22.93-16.77-2.93-1.09-5.59-3.05-8.8-3.11-.23-.98-1.32-.65-2-.89-2.25-.79-4.6-1.45-7-1.18-.07-.48-.54-.75-1-.75-1.71.01-3.33-.77-5-.97l-22.2-2.65c-6.82-.81-12.97-2.92-18.79-5.56-.64-.29-1.17-1.11-2.04-.95-6.15-4.97-14.81-10.08-16.87-18.65,1.87-.18,2.28,1.81,3.63,3.07,13.35,12.42,26.08,14.78,43.18,17.04l17.48,2.31c4.18.55,7.98,1.91,12,2.97,7.96,2.1,16.13,7.31,22.61,12.3,5.98,4.61,10.31,10.48,14.18,16.94,1.01,1.69,1.79,3.48,3.64,4.65l6.63-10.08c1.05-1.6,9.3-10.16,11.28-11.69,8.54-6.62,18.25-11.39,28.82-13.95,22.63-5.49,47.11-.8,66.34-21.85.95-1.03,1.95-1.7,3.03-1.86Z" fill="#d29235"/><path d="M249.36,111.38c-5.42,2.63-12.06,3.06-16.79,5.22l-9.51-4.89c8.17-1.71,15.14-2.36,22.57-5,1.81.53,3.09,3.29,3.73,4.67Z" fill="#d29235"/><path d="M271.43,41.62l.05,4.05c.01,1.09-.46,1.7-1.05,1.95-.64.27-.82.95-1,1.95l-1.51,8.44c-1.35,1.52-1.67,3.17-1.33,4.71.15.67.05,1.4.12,2.08-.64.33-.76,1.31-1.18,1.81-3.6,4.26-6.76,8.82-11,13.01-.67.66-.7,1.72-.48,2.18,1.69,3.54,12.97-3.44,14.55-5.51,1.15-.03,1.92.6,2.02,1.78.08.98-.93,1.86-1.28,2.6-1.08.16-2.08.83-3.03,1.86-19.23,21.05-43.71,16.36-66.34,21.85-10.57,2.57-20.28,7.34-28.82,13.95-1.98,1.53-10.23,10.09-11.28,11.69l-6.63,10.08c-1.85-1.17-2.63-2.96-3.64-4.65-3.87-6.46-8.2-12.33-14.18-16.94-6.48-4.99-14.65-10.2-22.61-12.3-4.03-1.06-7.82-2.42-12-2.97l-17.48-2.31c-17.1-2.26-29.83-4.62-43.18-17.04-1.35-1.26-1.77-3.25-3.63-3.07-.25-1.03-1.94-2.52-.85-3.88,1.36-1.71,7.18,4.98,14.53,5.78,1.14.12,2.18-.98,2.18-1.6,0-.4-.49-1.2-.95-1.65-8.1-7.88-14.42-18.06-15.82-28.84,1.86-1.06.09-8.34,1.37-10.35,2.21.95,3.03,2.5,3.75,4.08,2.34,5.15,15.6,21.27,19.99,24.05,5.94,3.76,12.27,6.66,19.03,8.94l24.68,8.3c4.36,1.47,8.1,3.78,12.1,5.78,6.56,3.28,13.14,8.61,17.81,14.29l3.66,4.45,5.42,7.66c2.88,4.07,5.06,8.67,8.9,11.98,1.14.29,2.17-.6,2.03-1.44-.01-.28.58-.67.84-.8,1.56-.79,3.73-3.53,4.64-5.54,2.01-4.43,14.23-19.42,18.45-22.56,6.08-4.5,6.84-6.06,14.73-10.05,7.62-3.85,15.58-6.24,23.76-8.65,9.23-2.72,26.02-9.58,32.82-15.96,4.88-4.58,8.44-10.05,12.54-15.38,2.43-3.16,3.06-7.25,6.08-10.26,1.62.56,2.24,2.27,3.19,2.47Z" fill="#f1bb3c"/><path d="M271.43,41.62c-.95-.19-1.57-1.91-3.19-2.47-3.03,3.01-3.65,7.11-6.08,10.26-4.1,5.33-7.66,10.8-12.54,15.38-6.8,6.38-23.59,13.24-32.82,15.96-8.18,2.41-16.14,4.8-23.76,8.65-7.89,3.99-8.65,5.55-14.73,10.05-4.23,3.13-16.44,18.13-18.45,22.56-.91,2.01-3.09,4.75-4.64,5.54,10.64-23.68,25.99-40.34,51.4-49.44,2.17-.78,4.22-1.13,5.68-2.4,1.78.02,3.47-.52,5.14-1.04.7-.22,1.79.12,2-.87,3.39-.63,7.1-1.4,10.01-3.36,2.3-1.55,12.4-3.67,16.07-8.71,7.05-2.9,16.87-16.08,20.15-23.01.73.41.72-.63.82-1.1.75-.46,1.19-1.35,1.19-2.24.59-.25,1.88-.46,2.16.56l1.6,5.68Z" fill="#f5cd77"/><path d="M268.39,74.35l.22,1.94c-1.58,2.07-12.86,9.05-14.55,5.51-.22-.46-.19-1.52.48-2.18,4.24-4.2,7.4-8.75,11-13.01,2.03-.49-1.08,3.84,0,5.53.7,1.11,1.77,1.73,2.86,2.22Z" fill="#6e360c"/><path d="M266.72,64.79c-.07-.68.03-1.41-.12-2.08,2.45-5.51,4.4-8.15,3.83-15.09.59-.25,1.06-.87,1.05-1.95l-.05-4.05-1.6-5.68c-.29-1.01-1.57-.81-2.16-.56,0-.62-.5-1.53-.12-1.92s1.05-.65,1.97-.92c1.73-.52,2.98,1.26,2.95,2.98-.14,6.17-.12,11.98.25,18.2.12,2.06-3.08,9.57-5.99,11.08Z" fill="#6e360c"/><path d="M265.66,38.72c.19-.41.42-.85.82-1.1-.1.46-.09,1.51-.82,1.1Z" fill="#6e360c"/><path d="M96.43,108.62c.62,2.87-4.14,2.78-7.61,4.51-2.78,1.38-6.02,2.4-8.43.75.36-1.14,1.88-.7,3.15-2.09-7.94-1.43-15.83-2.83-23.83-5.17-2.08,1.09-2.11,3.89-3.12,5.11-4.33,5.23-7.12,11.56-10.11,18.04-.25.55-.69.76-1,.81.2-3.8,1.47-7.42,1.88-11.19.19-.61.43-1.41,1.04-1.74.8-.43,1.17-1.22.98-2.13.19-.7.54-1.34,1.08-1.81.36-.33.72-.71.89-1.17.09-.25-.05-.59,0-.86,4.04-.7,1.78-3.46,5.66-5.54,2.89-1.55-1.77-3.39-1.58-5.72,5.82,2.64,11.97,4.74,18.79,5.56l22.2,2.65Z" fill="#6b3711"/><path d="M219.43,73.8c-.21.99-1.3.66-2,.87.12-.39-.37-1.34.24-1.84.88-.72,1.7.36,1.76.96Z" fill="#6e360c"/><path d="M191.63,79.64c-5.07,3.86-10.69,6.97-15.78,11.58-9.48,8.57-16.21,18.95-22.62,30.85l-9.98-16.37c-6.26-10.27-17.79-18.6-26.84-24.98-.14-.82-1.02-1.47-.86-2.5,12.18-4.05,24.34-5.71,37.09-6.21,12.65-.49,24.75,1.94,36.84,5.62,1.31.4,2.33.9,2.16,2.01Z" fill="#f1ba3d"/><path d="M80.39,113.88c-3.26.26-4.17,2.23-7.12,2.85-2.22-1.62-13.19-3.29-16.69-5,1.01-1.22,1.04-4.02,3.12-5.11,8,2.34,15.89,3.74,23.83,5.17-1.27,1.39-2.78.95-3.15,2.09Z" fill="#d29235"/><path d="M167.44,128.48c.95.09.59,1.16.62,1.65.04.62-6.9,9.27-5.92,8.31l-2.94,2.87c-2.36,2.3-1.95,6.97-4.98,9.15-1.29.93-3.01-.77-3.36-1.64-.55-1.34-.79-3.15.61-4.08.87.19,1.12,1.38,2.23,1.4,2-5.03,9.79-16.08,13.74-17.66Z" fill="#6b3711"/><path d="M143.17,132.3c-6.16-.27-3.74-2.93-9.11-4.46-1.95-3.32-5.34-4.56-8.49-6.49,2.7,1.65-8.7-7.08-5.34-5.82,9,3.36,17.1,9.15,22.93,16.77Z" fill="#6b3711"/><path d="M197.63,111.58c.16.63-.24,2.68-1.43,2.73-3.52.17-5.59,2.07-8.47,3.57-2.28,1.19-5,.8-6.92,3.1-.91,1.09-2.94.71-3.4-.26-.03-1.01.86-1.49,1.93-2.04,6.05-3.11,11.9-6.28,18.29-7.1Z" fill="#6b3711"/><path d="M150.46,142.68c-2.53.43-3.09-3.31-3.11-5.06,2.08.68,2.86,3.12,3.11,5.06Z" fill="#6b3711"/><path d="M111.43,112.41c-.38,0-.84.13-1.39.03-.41-.07-.73-.33-.61-.92.68.24,1.77-.09,2,.89Z" fill="#6b3711"/><path d="M209.43,109.38c0-.63.57-.59,1-.76.15.68-.5.82-1,.76Z" fill="#6b3711"/><path d="M102.43,110.34c-.53.06-1.14-.03-1-.75.46,0,.93.27,1,.75Z" fill="#6b3711"/><path d="M203.43,110.33c.02-.57.55-.66,1-.73.13.74-.47.78-1,.73Z" fill="#6b3711"/><path d="M198.47,111.52c-.13-.74.42-.8.96-.9.03.57-.45.87-.96.9Z" fill="#6b3711"/><path d="M175.28,121.56c.39-.15.6-.94,1.24-.74.46,1.1-.67.79-1.24.74Z" fill="#6b3711"/><path d="M266.6,62.72c-.34-1.54-.03-3.19,1.33-4.71l1.51-8.44c.18-1,.37-1.68,1-1.95.57,6.94-1.38,9.59-3.83,15.09Z" fill="#f5cd77"/><path d="M258.34,193.62c.23-.45.4-1.23,1.06-1.1-.2.51-.46,1-1.06,1.1Z" fill="#6e360c"/><path d="M256.35,198.63l-.93.11c.2-.37.76-.89.95-1.26l-.02,1.15Z" fill="#6e360c"/><path d="M61.3,210.31c-1.9.24-3.76-.71-5.07-2.44l-3.03-3.99c-1.12-1.48-1.93-2.58-1.68-4.15,3.57,2.55,6.07,7.56,9.78,10.58Z" fill="#6e360c"/><path d="M48.6,194.62c-.72.09-1.83.26-2.1-.59s.06-1.68.05-2.41c1.33.37,1.88,1.72,2.05,3Z" fill="#6b3711"/><path d="M50.39,197.76c-.35-.32-.82-.67-.96-1.15.84-.47.62.85.96,1.15Z" fill="#6e360c"/><path d="M242.34,185.65c-.33.61-.68.93-.73,1.24-2.14,1.11-3.01,2.82-4.63,4.31-17.94,16.49-43.39,17.22-62.08,2.13-1.29-6.78,1.06-8.34-4.73-14.65-.56-.61-.98-.82-1.14-1.09-3.64-5.93-10.57-9.75-17.68-8.85-10.65,1.36-21.17,12.56-19.33,24.1-12.76,10.88-30.26,14.37-46.13,8.62-23.5-8.51-35.75-33.65-27.83-57.16,4.37-12.98,13.46-22.94,26.07-28.24,4.42-1.86,9.33-3.3,14.36-2.65,14.97,1.93,30.8,9.09,40.79,20.34,4.79,5.4,8.41,11.17,11.65,17.52.6,1.17,2.03,1.68,2.96,1.54,2.98-.48,7.15-19.24,29.08-31.5,6.39-3.58,13.07-5.55,20.03-7.31s12.8-.74,18.9,2.08c4.74,2.19,9.63,3.99,13.26,7.84,3.16,3.36,6.33,6.38,8.59,10.31,7.27,12.64,8.86,26.86,3.93,40.58-3.59,9.98-2.66,3.77-5.32,10.84ZM133.51,157.91c0-15.47-12.54-28.01-28.01-28.01s-28.01,12.54-28.01,28.01,12.54,28.01,28.01,28.01,28.01-12.54,28.01-28.01ZM228.76,157.9c0-15.47-12.54-28.01-28.01-28.01s-28.01,12.54-28.01,28.01,12.54,28.01,28.01,28.01,28.01-12.54,28.01-28.01Z" fill="#fafbf9"/><path d="M101.43,109.59c-.14.72.47.81,1,.75,2.4-.27,4.75.4,7,1.18-.12.58.21.84.61.92.55.1,1.01-.03,1.39-.03,3.22.06,5.88,2.02,8.8,3.11-3.36-1.26,8.03,7.48,5.34,5.82,3.14,1.93,6.54,3.16,8.49,6.49,5.37,1.54,2.95,4.19,9.11,4.46,1.33,1.74,3.92,2.77,4.18,5.33.02,1.76.58,5.49,3.11,5.06.51.48,1.12,1.22,1,2.06-1.4.92-1.16,2.73-.61,4.08.36.86,2.07,2.56,3.36,1.64,3.04-2.18,2.63-6.85,4.98-9.15l2.94-2.87c-.98.96,5.95-7.68,5.92-8.31-.03-.49.33-1.56-.62-1.65,1.97-2.88,4.52-5.6,7.84-6.92.57.05,1.7.36,1.24-.74.27.09.6-.13.89-.1.46.97,2.49,1.36,3.4.26,1.92-2.3,4.64-1.9,6.92-3.1,2.88-1.5,4.95-3.41,8.47-3.57,1.19-.06,1.59-2.1,1.43-2.73.27-.04.56-.04.83-.06.52-.03.99-.33.96-.9,1.32-.23,2.66-.41,4-.3.53.04,1.13,0,1-.73,1.65-.28,3.33-.42,5-.21.5.06,1.15-.08,1-.76,2.5-.96,5.56.3,8-.29l-2.08,2.21c-1.07,1.14,1.18,2.54,2.37,2.8,2.65.57,4.49,2.12,6.74,3.18,5.44,2.58,9.7,5.93,13.97,10.19,1.28,1.28,3.07,1.12,3.44,3.62.33,2.27,2.82,3.9,3.92,5.93,2.45,4.53,3.24,9.44,4.72,14.32,1.57,5.14,1.4,12.38-.36,17.69-.91,2.75-5.35,18.05-8.8,17.37,2.66-7.07,1.73-.86,5.32-10.84,4.93-13.72,3.34-27.94-3.93-40.58-2.26-3.93-5.43-6.95-8.59-10.31-3.62-3.85-8.51-5.65-13.26-7.84-6.11-2.82-12.28-3.76-18.9-2.08-6.97,1.76-13.64,3.74-20.03,7.31-21.92,12.26-26.09,31.02-29.08,31.5-.92.15-2.36-.37-2.96-1.54-3.23-6.35-6.86-12.13-11.65-17.52-9.98-11.25-25.81-18.41-40.79-20.34-5.03-.65-9.94.79-14.36,2.65-12.6,5.29-21.69,15.26-26.07,28.24-7.92,23.51,4.33,48.65,27.83,57.16,15.87,5.75,33.37,2.26,46.13-8.62-1.84-11.54,8.68-22.74,19.33-24.1,7.11-.91,14.04,2.91,17.68,8.85l-.69-.09c-.5-.67-1.04-1.49-1.71-1.71-1.03-.34-1.77.53-2.36.97-2.15-.21-3.92-2.02-5.83-2.98.15-1.92-5.45-3.47-6.34-3.07-.59.27-.72,1.25-.66,1.98-3.38.2-5.85,3.34-9.08,3.94-12.71,2.36-5.05,16.07-12.1,18.52,1.19,1.44,1.92,2.14,2.07,3.21-13.61,6.86-10.96,7.61-26.67,9.6-2.71.34-4.67,1.15-7.49-.13.98.44-10.92-1.09-11.73-1.41-14.98-6.17-26.48-14.8-32.17-31.42-6.66-19.47-1.19-40.68,14.41-54.13,1.75-1.51,3.37-2.66,4.61-4.15,2.95-.62,3.85-2.59,7.12-2.85,2.41,1.65,5.65.64,8.43-.75,3.47-1.72,8.23-1.64,7.61-4.51,1.67.2,3.29.98,5,.97Z" fill="#693714"/><path d="M241.61,186.89c0,.6-1.01,5.59.75,4.6-1.11,1.17-2.03,2.78-3.84,3.15,1.11-3.74-11.53,5.9-10.96,4.61-.51,1.16-.17,2.31-.12,3.29,2.42-.95-6.72,3.59-6.97,3.93l-6.03.17c-.52.01-1.05.47-1,1-1.78.37-4.38-1-6,.14.1-.79.97-.81,2.03-1.74-8.22-1.12-7.66.72-17.38-2.11-2.73-.79-5.37-1.79-7.65-.42-1.01-.53-2.72-.38-3.76-1.08.03-.33.07-.85-.04-1.13-1.37-2.36-2.74-5.11-5.6-5.61-5.98-5.06.56-11.05-4.94-15.81-.64-.56-.88-1.2.07-1.17,5.79,6.3,3.44,7.86,4.73,14.65,18.69,15.09,44.14,14.36,62.08-2.13,1.61-1.48,2.48-3.2,4.63-4.31Z" fill="#693714"/><path d="M184.43,203.5c2.54,2.53,19.76,6.56,22.99,4.27,1.62-1.15,4.22.22,6-.14.52-.11,1.08-.38,1-1l6.03-.17c-2.7,3.52-18.54,3.63-22.01,3.04l-5.99-1.03c-3.57-.61-11.9-4.53-11.78-6.05,1.04.69,2.74.55,3.76,1.08Z" fill="#ebb453"/><path d="M238.52,194.64c-2.47,3.86-6.86,6.24-11.08,7.89-.05-.98-.39-2.13.12-3.29-.57,1.3,12.07-8.35,10.96-4.61Z" fill="#6b3711"/><path d="M180.64,201.29c-3.25-.48-4.18-2.93-7.2-2.49.15-1.21.7-2.3,1.6-3.13,2.86.51,4.23,3.25,5.6,5.61Z" fill="#6b3711"/><path d="M207.43,207.77c-3.23,2.29-20.46-1.74-22.99-4.27,2.28-1.37,4.92-.37,7.65.42,9.71,2.83,9.15.98,17.38,2.11-1.06.93-1.93.95-2.03,1.74Z" fill="#6b3711"/><path d="M213.43,207.62c-.05-.53.48-.99,1-1,.08.62-.48.89-1,1Z" fill="#6b3711"/><path d="M133.51,157.91c0,15.47-12.54,28.01-28.01,28.01s-28.01-12.54-28.01-28.01,12.54-28.01,28.01-28.01,28.01,12.54,28.01,28.01ZM98.09,138.6c-4.27,1.66-7.86,4.72-10.18,8.68-5.02,8.57-3.12,19.5,4.49,25.88s18.71,6.33,26.26-.11c7.55-6.44,9.36-17.39,4.26-25.92-5.09-8.52-15.59-12.12-24.84-8.52Z" fill="#3eb8a2"/><path d="M87.91,147.27c.83,5.67,5.35,10.53,11.38,9.22,4.36-.95,6.84-5.28,6.42-9.3s-3.46-7.26-7.62-8.59c9.25-3.6,19.75,0,24.84,8.52,5.09,8.52,3.29,19.47-4.26,25.92-7.55,6.44-18.65,6.49-26.26.11s-9.51-17.31-4.49-25.88ZM116.65,157.99l3.93-4.41c-1.39-1.58-2.35-2.74-4.2-4.35-.97,2.33-1.92,3.36-4.23,4.39,2.17,1.59,3.07,2.91,4.5,4.37ZM110.31,173.75c2.19-3.18,3.47-4.45,6.47-6.11-3.35-1.41-4.44-3.23-6.33-6.4-1.1,3.51-2.76,5.12-5.98,6.57,2.9,1.31,4.89,2.67,5.84,5.93ZM97.13,162.11l-3.06,3.66,3.14,2.62,3.06-3.66-3.14-2.62Z" fill="#1f6056"/><path d="M98.09,138.6c4.17,1.34,7.23,4.76,7.62,8.59.42,4.03-2.07,8.35-6.42,9.3-6.03,1.32-10.55-3.55-11.38-9.22,2.32-3.96,5.9-7.01,10.18-8.68Z" fill="#fafbf9"/><path d="M110.31,173.75c-.95-3.26-2.94-4.62-5.84-5.93,3.22-1.45,4.88-3.06,5.98-6.57,1.89,3.17,2.99,4.99,6.33,6.4-3,1.65-4.28,2.92-6.47,6.11Z" fill="#efefef"/><path d="M116.65,157.99c-1.43-1.46-2.32-2.78-4.5-4.37,2.31-1.03,3.26-2.06,4.23-4.39,1.85,1.61,2.81,2.77,4.2,4.35l-3.93,4.41Z" fill="#ebb453"/><rect x="94.78" y="163.21" width="4.77" height="4.09" transform="translate(-91.94 133.82) rotate(-50.11)" fill="#d8c19d"/><path d="M228.76,157.9c0,15.47-12.54,28.01-28.01,28.01s-28.01-12.54-28.01-28.01,12.54-28.01,28.01-28.01,28.01,12.54,28.01,28.01ZM193.11,138.63c-4.22,1.66-7.77,4.69-10.07,8.6-5.04,8.56-3.16,19.5,4.44,25.89s18.71,6.34,26.26-.11c7.55-6.45,9.34-17.41,4.23-25.92s-15.63-12.09-24.87-8.45ZM191.6,179.59c0-.88-.72-1.6-1.6-1.6s-1.6.72-1.6,1.6.72,1.6,1.6,1.6,1.6-.72,1.6-1.6Z" fill="#3eb8a2"/><path d="M183.04,147.22c.8,5.64,5.38,10.48,11.37,9.32,4.48-.87,6.99-5.41,6.63-9.18-.41-4.32-3.56-7.71-7.93-8.74,9.24-3.64,19.76-.06,24.87,8.45s3.32,19.47-4.23,25.92c-7.55,6.45-18.66,6.49-26.26.11s-9.49-17.33-4.44-25.89ZM212.15,158.65c1.5-2.67,2.89-3.23,4.26-4.78-2-1.33-2.92-2.43-4.17-4.69-1.24,2.03-2.48,2.98-3.77,4.59.63,2.66.93.12,3.68,4.88ZM211.8,168.49c.39-3.17-2.55.71-5.99-8.08-.92,4.05-2.88,6.2-6.06,7.4,3.54,1.52,5.29,3.67,6.23,7.1,1.35-3.37,2.1-5.7,5.82-6.42ZM192.58,167.55c1.12.09,2.05-.81,3.1-2-1.07-1.29-1.79-2.22-2.89-3.03-.43,1.5-1.48,1.61-2.13,2.53-.54.76,1.13,2.44,1.92,2.5Z" fill="#1f6056"/><path d="M193.11,138.63c4.37,1.02,7.52,4.41,7.93,8.74.36,3.77-2.16,8.31-6.63,9.18-5.98,1.16-10.57-3.68-11.37-9.32,2.3-3.91,5.85-6.94,10.07-8.6Z" fill="#f4f5f5"/><circle cx="190" cy="179.59" r="1.6" fill="#ace1ee"/><path d="M211.8,168.49c-3.72.71-4.47,3.04-5.82,6.42-.94-3.43-2.7-5.58-6.23-7.1,3.18-1.2,5.14-3.35,6.06-7.4,3.44,8.79,6.39,4.91,5.99,8.08Z" fill="#e7e8e9"/><path d="M212.15,158.65c-2.75-4.76-3.05-2.22-3.68-4.88,1.3-1.61,2.53-2.57,3.77-4.59,1.24,2.26,2.17,3.36,4.17,4.69-1.37,1.55-2.76,2.12-4.26,4.78Z" fill="#f5cd77"/><path d="M192.58,167.55c-.79-.06-2.46-1.74-1.92-2.5.65-.92,1.7-1.03,2.13-2.53,1.11.81,1.83,1.74,2.89,3.03-1.05,1.19-1.99,2.09-3.1,2Z" fill="#d8c19d"/><path d="M142.35,176.63c-1.32,1.84-2.81,3.68-3.8,5.72-.66,1.36-3.93,3.67-1.35,5.36,5.14,3.37,10.39,6.11,15.75,10.02l15.55-9.92c.32.02,2.24-.27,1.95-1-.96-2.46-2.15-4.26-3.1-6.12.11-1.12.47-2.19.99-3.18l.69.09c.17.27.58.48,1.14,1.09-.96-.03-.72.61-.07,1.17,5.49,4.76-1.05,10.76,4.94,15.81-.9.83-1.45,1.92-1.6,3.13-.04.35-.26.69-.34,1.03-2.35.56-1.4,3.74-4.38,3.48.58-.51.11-.95-.93-1.73-1.23,5.24-9.22,19.16-16.21,17.12-3.93-1.15-5.35-4.49-8.88-7.33-.18,2.79,6.68,14.43,12.72,11.08,4.82-2.68,10.17-12.01,11.02-14.83.46-.1,1.06-.12,1.39.15.94.73.51,2.68,1.39,2.94-.36.42-.3,1.44-.79,1.85-.45-.05-.98.03-1.66.38-1.15,1.56-1.45,3.17-1.32,4.73-2.94,5.33-10.7,13.35-17.79,7.73-2.58-2.04-4.84-3.99-6.33-6.58.05-.63-.4-1.16-1.03-1.19-.1-.3.01-.68-.06-1-.1-.46-.36-.88-.76-1.13-.56-.45-.88-1.08-1.07-1.76-.15-.53-.58-.94-1.09-1.11-.13-.28,0-.69-.03-1-.05-.54-.35-1.04-.96-.96-.05-.28-.05-.62-.04-.91.04-.79.24-2.11-.87-2.13,0-.33.02-.67,0-1-.04-.58-.48-1.1-1.1-.97-.35-.95-.5-2.02-.29-3.03.16-.81.55-1.68.42-3.02-.09-.9-.65-1.14-1.22-1-.3.07-.63-.18-.92-.24-.15-1.07-.88-1.77-2.07-3.21,7.05-2.45-.61-16.16,12.1-18.52ZM139.54,203.47c-1.31-1.54-.87-2.51-1.44-3.96-1.51,1.11-.6,2.76.48,4.01-.23,1.48.94,1.23.96-.06ZM142,210.56c-.61-2.26-1.28-3.72-2.33-4.72-.08,2.68,1.28,3.76,2.33,4.72ZM152.96,214.54c3.46.11,5.78-3.32,6.91-6.15-3.96-3.38-9.71-3.15-13.67-.19,1.46,2.81,3.36,6.24,6.76,6.34Z" fill="#6e360c"/><path d="M169.21,210.71c-.87-.26-.45-2.21-1.39-2.94-.33-.26-.93-.25-1.39-.15.46-1.54.91-3.3,2.29-4.31,2.98.26,2.02-2.92,4.38-3.48-.84,3.77-1.33,7.89-3.89,10.88Z" fill="#6b3711"/><path d="M168.42,212.55c-.16,2-1.02,4.24-2.97,5.11-.13-1.56.17-3.17,1.32-4.73.68-.35,1.21-.43,1.66-.38Z" fill="#6b3711"/><path d="M136.3,209.75l-.91-.04.04-2.09c1.11.03.9,1.34.87,2.13Z" fill="#693714"/><path d="M137.29,211.62c-.5-.04-.87-.48-.96-.96.61-.08.91.42.96.96Z" fill="#693714"/><path d="M138.41,213.73c-.63.33-.89-.67-1.09-1.11.51.17.94.58,1.09,1.11Z" fill="#693714"/><path d="M140.24,216.62c-.38-.27-.63-.68-.76-1.13.4.25.66.66.76,1.13Z" fill="#693714"/><path d="M141.33,218.81c-.25-.43-.86-.69-1.03-1.19.63.03,1.08.56,1.03,1.19Z" fill="#693714"/><path d="M168.49,187.81l-15.55,9.92c-5.36-3.91-10.61-6.65-15.75-10.02-2.58-1.69.69-4,1.35-5.36.88.07,1.57-.46,2.49-1.14,7.53-5.63,12.19-8.38,21.94-2.28,3.38,2.11,5.84,5.15,5.52,8.88ZM161.94,182.55c0-1.74-1.41-3.15-3.15-3.15s-3.15,1.41-3.15,3.15,1.41,3.15,3.15,3.15,3.15-1.41,3.15-3.15Z" fill="#ef842a"/><path d="M152.96,214.54c-3.4-.1-5.3-3.53-6.76-6.34,3.96-2.96,9.71-3.19,13.67.19-1.14,2.84-3.46,6.26-6.91,6.15Z" fill="#ef842a"/><path d="M168.72,203.31c-1.38,1.01-1.83,2.78-2.29,4.31-.85,2.82-6.2,12.16-11.02,14.83-6.04,3.35-12.9-8.3-12.72-11.08,3.53,2.84,4.96,6.19,8.88,7.33,6.99,2.04,14.98-11.88,16.21-17.12,1.05.78,1.51,1.21.93,1.73Z" fill="#d29235"/><path d="M151.43,172.69c2.4-.07,5.09-.61,7.01,1.09,1.91.97,3.68,2.78,5.83,2.98-.27,2.03,2.36,2.52,3.08,3.93.95,1.85,2.14,3.66,3.1,6.12.29.73-1.64,1.02-1.95,1,.32-3.73-2.13-6.77-5.52-8.88-9.75-6.09-14.41-3.35-21.94,2.28-.92.69-1.61,1.21-2.49,1.14.99-2.04,2.48-3.88,3.8-5.72,3.23-.6,5.71-3.74,9.08-3.94Z" fill="#ebb453"/><path d="M168.34,177.51c-.53.99-.89,2.06-.99,3.18-.72-1.41-3.35-1.9-3.08-3.93.59-.44,1.32-1.31,2.36-.97.68.23,1.22,1.04,1.71,1.71Z" fill="#6b3711"/><path d="M134.04,202.62c-1.37-.73-.6-2.73-.8-4.02.58-.14,1.14.1,1.22,1,.13,1.34-.26,2.21-.42,3.02Z" fill="#693714"/><path d="M139.54,203.47c-.02,1.28-1.19,1.53-.96.06-1.08-1.26-1.99-2.91-.48-4.01.56,1.44.12,2.41,1.44,3.96Z" fill="#d29235"/><path d="M142,210.56c-1.06-.96-2.41-2.04-2.33-4.72,1.05,1,1.72,2.46,2.33,4.72Z" fill="#d29235"/><path d="M135.43,206.62c-.52-.1-.92-.48-1.1-.97.61-.12,1.06.39,1.1.97Z" fill="#693714"/><path d="M158.44,173.78c-1.92-1.7-4.61-1.16-7.01-1.09-.06-.73.07-1.71.66-1.98.89-.41,6.49,1.15,6.34,3.07Z" fill="#6b3711"/><circle cx="158.78" cy="182.55" r="3.15" fill="#ebb453"/></svg>