<?xml version="1.0" encoding="UTF-8"?><svg id="Layer_1" xmlns="http://www.w3.org/2000/svg" viewBox="0 0 311.81 311.81"><path d="M248.52,21.52h-2.18c-.41-.6.19-.73.64-.82.7-.14,1.93-.01,1.54.82Z" fill="#693714"/><path d="M249.33,84.39c.31-.04.63.05.93.04.07.68.91.85,1.21,1.3,7.2,10.58,13.56,21.4,17.87,34,9.7,28.4,9.6,58.32-.24,86.58-2.86,8.2-9.58,21.71-14.64,28.46-6.56,8.76-13.16,17.21-21.71,24.26-6.67,5.51-18.38,14.05-25.95,17.75-19.1,9.34-39.66,14.93-60.9,14.35-20.24-.55-41.79-5.59-59.22-15.51-5.62-3.2-10.6-6.72-15.86-10.47-16.21-11.51-32.31-31.28-40.15-49.45-12.39-28.73-14.47-53.89-7.93-83.86.74.45,1.06-.37,1.02-.96,1.57,1.18,2.79,2.76,4.55,3.66-.06.46.13.96.05,1.42-6.35,35.45-.77,69.7,21.39,99.37,4.1,5.49,20.16,23.15,26.44,25.26.65-.07,1.09-1.54,1.08-1.87h2.33c.12.68.43,1.31.9,1.81-.07,1.12-.64,3.21.7,4.22,2.39,1.8,25.98,14.79,29.17,12.97.48.68,1.15,1.28,2.39,1.64,27.62,7.96,56.82,6.54,83.24-4.89,11.93-5.16,28.91-15.13,36.39-24.83,5.64-3.28,20.71-22.4,22.36-28.77,1.68-.17,1.73-2.52,2.71-4.36,5.8-10.98,9.31-22.87,11.33-35.64,2.79-17.63,1.25-34.95-3.29-52.17-1.76-6.67-7.32-20.42-10.89-26.09-2.44-3.88-6.09-11.24-9.09-13.19-.52-.68-1.6-2.13-.66-3.17,1.27-1.41,3.05-1.64,4.47-1.84Z" fill="#7e431b"/><path d="M277.86,88.81c.71-7.25,6.59-11.01,13.01-13.87,4.03-1.79,6.04-6.59,3.62-10.45-1.88-2.99-5.31-4.17-8.46-3.97-7.52.48-6.87,9.63-12.7,7.58-1.91-.67-3.03-2.75-2.53-5.05,1.9-8.65,12.74-11.85,22.36-9.05,7.34,2.14,13,8.42,11.81,16.56-.71,4.85-4.31,8.74-8.47,10.92l-6.71,3.51c-4.92,2.58-2.92,8.42-7.87,8.31-1.98-.04-4.31-1.93-4.06-4.5Z" fill="#7b421d"/><circle cx="279.37" cy="102.81" r="5.28" fill="#7b421d"/><path d="M220.43,55.73c.54-1.25,1.91-1.67,3.14-2.01-.92.94-1.75,2.01-3.14,2.01Z" fill="#693714"/><path d="M224.49,52.78l.99-1.18c-.24.46-.58.86-.99,1.18Z" fill="#693714"/><path d="M232.39,249.63c-7.48,9.69-24.47,19.67-36.39,24.83-26.41,11.43-55.62,12.85-83.24,4.89-1.25-.36-1.92-.96-2.39-1.64.54-5.74,3.09-12.59,3.93-18.08.36.07.79-.3,1.16-.28,13.87,1.1,27.55.15,41.83-2.01,22.69-3.44,43.75-11.13,63.1-22.54,2.54-.66,10.38,13.15,12,14.83Z" fill="#f6eed7"/><path d="M247.34,214.68c.26,1.36,1.7,2.19,3.03,2.14.87,1.88,2.82,2.78,4.39,4.04-1.65,6.37-16.72,25.5-22.36,28.77-1.63-1.68-9.46-15.49-12-14.83l-.06-1.14c2.37.29,4.05-1.64,6.17-3.02,7.15-4.64,14.17-9.46,18.88-16.16l1.96.2Z" fill="#f1ba3d"/><path d="M114.3,259.63c-.84,5.49-3.39,12.34-3.93,18.08-3.19,1.83-26.78-11.17-29.17-12.97-1.34-1.01-.77-3.1-.7-4.22.69-.99,1.57-2.19,1.94-3.74.51-2.14,2.25-3.38,3.08-4.69,10.79,4.87,17.79,5.38,28.78,7.54Z" fill="#f1ba3d"/><path d="M64.19,137.53l.48,2.7c-4.74.97-9.71.46-14.78,1.14-1.73.31-.89,3.42-1.64,4.2-8.13,20.22-7.87,47.61,3.08,67.09,5.13,9.13,12.74,16.66,22.01,22.13,1.42.84,2.5,1.59,3.21,2.59.09,1.14-.89,1.41-2.08,1.24-1.93-.27-2.86-1.89-4.29-2.56-2.67-1.27-4.17-2.98-6.07-5.15-6.3-7.21-7.19-4.95-12.69-14.4-4.57-7.86-3.19-5.11-6.72-14.3-1.99-5.19-3.84-12.8-3.39-18.58.55-7.04-.47-13.94.53-21,.41-2.91,1.46-5.7,2.1-8.56l2.04-9.02c.33-1.46,2.2-3.19.86-4.71-2.45-2.78-5.96-3.05-9.27-3.99-3.28-.94-6.1-2.57-9.26-1.81-1.76-.9-2.98-2.48-4.55-3.66-.09-1.41-.78-3.41.65-4.27l8.42,5.61c9.27,6.17,24.01,3.62,31.36,5.32Z" fill="#6e360c"/><path d="M76.55,237.39c.71.16,1.49.22,2.16.54.06.39-.45,1.86.25,2.15l5.71,2.36c1.01.42,2.07.53,2.37,1.11,1.85,3.49-3.44,7.09-4.49,9.22l-2.94,5.95h-2.33c.18-2.06,6.91-13.2,6.7-13.39-3.4-3.19-15.31-4.49-30.2-22.03-18.84-22.19-18.2-55.96-9.08-82.3l-10.94-3.74c-1.95-.67-3.62-1.64-5.38-1.3.08-.46-.11-.96-.05-1.42,3.16-.77,5.98.87,9.26,1.81,3.31.95,6.83,1.22,9.27,3.99,1.34,1.52-.53,3.25-.86,4.71l-2.04,9.02c-.65,2.86-1.69,5.65-2.1,8.56-.99,7.06.02,13.96-.53,21-.45,5.78,1.4,13.39,3.39,18.58,3.53,9.2,2.15,6.45,6.72,14.3,5.5,9.45,6.39,7.19,12.69,14.4,1.9,2.17,3.4,3.88,6.07,5.15,1.42.67,2.35,2.29,4.29,2.56,1.19.17,2.17-.1,2.08-1.24Z" fill="#693714"/><path d="M257.46,216.49c-.97,1.84-1.02,4.19-2.71,4.36-1.57-1.26-3.51-2.16-4.39-4.04-.41-.87-1.35-1.39-1.9-2.17l-.09-2.88c3.65.7,5.66,4.39,9.09,4.72Z" fill="#693714"/><path d="M239.47,211.38c-5.88,5.83-12.61,10.76-20.13,15.13-1.21.7-2.01,1.81-2.89,2.26-31.1,15.62-64.9,24.63-99.83,23.4-9.05-.32-17.97-3.5-27.16-5.18-2.47-.13-3.08,3.74-3.94,5.11s-2.57,2.55-3.08,4.69c-.37,1.55-1.25,2.75-1.94,3.74-.47-.5-.78-1.12-.9-1.8l2.94-5.95c1.05-2.13,6.34-5.73,4.49-9.22-.31-.58-1.36-.69-2.37-1.11l-5.71-2.36c-.7-.29-.19-1.76-.25-2.15,12.28,5.79,25.41,9.4,39.78,9.89,33.5,1.15,65.88-6.96,95.2-22.72,9.72-5.23,17.39-11.81,25.7-18.09l.07,4.36Z" fill="#6e360c"/><path d="M216.45,228.77c1.37,1.57,2.87,3.06,3.89,4.9l.06,1.14c-19.35,11.41-40.4,19.1-63.1,22.54-14.28,2.17-27.97,3.12-41.83,2.01-.28-2.5,1.17-4.72,1.16-7.19,34.93,1.23,68.73-7.77,99.83-23.4Z" fill="#d8c19d"/><path d="M116.62,252.16c.01,2.47-1.44,4.7-1.16,7.19-.37-.03-.8.35-1.16.28-10.99-2.16-17.99-2.67-28.78-7.54.86-1.36,1.47-5.24,3.94-5.11,9.18,1.68,18.11,4.86,27.16,5.18Z" fill="#d29235"/><path d="M239.55,102.73c.19,1.09.97,1.94,1.84,3,5.02,6.08,9.21,12.42,12.66,19.52.37.76.68,1.31,1.28,1.39-.05.27.14.66.22.93,5.13,17.97,6.11,13.63,5.98,34.18-1.14.13-2.03,1.17-2.33,2.63-2.2,10.64-12.78,27.28-20.92,34.13l-4.92,4.14c-5.82,4.9-11.38,9.31-18.09,12.91-5,2.68-9.92,5.38-15.22,7.6l-12.68,5.31c-9.63,4.03-19.58,6.07-29.95,8.19-16.14,3.3-32.07,4.09-48.35,2.49-22.06-2.17-41.49-10.08-55.72-27.14-.87.09-1.51.49-2.02.65-10.95-19.49-11.21-46.87-3.08-67.09,2.07.8,16.07.2,16.17,1.27-9.89,13.12-13.46,29.26-8.57,45.49s17.03,28.73,33.82,33.18c18.68,4.95,41.55-2.78,52.43-19.25.64-.98,2.31-2.17,3.26-1.59.2,5.29,15.94,18.3,20.11,17.5,6.18-1.19,11.76-19.68,11.1-24.59.96-1.14,2.49-1.38,4.28-.53,14.86,7.02,31.54,6.09,45.62-2.43,15.91-9.62,24.73-26.83,23.39-45.33-1.34-18.56-12.31-34.42-29.04-41.43,6-2.4,10.2-3.05,16.46-6.21.56.44,1.57.96,2.28,1.09Z" fill="#f1ba3c"/><path d="M253.61,116.58c-.87.06-1.93-.21-2.61-1.24-3.47-5.22-8.42-6.44-7.54-12.48-1.72-.55-2.81.07-3.91-.13-.7-.13-1.72-.65-2.28-1.09-.91-.72-1.34-2.12-1.89-3.02,1.09-1.92,1.88-4.32,4.17-4.97l-1.7,2.31c5.17,3.64,10.37,12.84,13.2,16.08,1.25,1.44,2.46,2.95,2.56,4.54Z" fill="#693714"/><path d="M262.33,176.63c.65,1.49-.72,3.54-.83,5.03-.64-.04-.88.44-.86,1,.01.33-.1.67-.06,1-.44.1-1.41-.35-1.93.25-.71.87-.11,1.88.8,1.85-.35.5-.64,1.32-1.03,1.82-.53-.14-2,.08-2.22.87-.15.55.09,1.28.48,1.93-.12.4.05.91-.12,1.29-1.03.18-1.95.99-2.01,2.08-.17,2.8-2.97,4.82-4.99,6.88-.5.33-1.76-.17-2.01.69s-.26,1.64-.24,2.37c-.34.68-.96,1.24-1.6,1.67.95-.52.14-.88-.27-1.23-.5-.43-.9-.78-1.52-.47-.74.38-.54,1.29-.5,2-.1.55.13,1.42.89,1.08-.14.59.13,1.22.1,1.8-.03.73-.2,1.73.62,2.02s1.65.14,2.36.18c.36.3.69.64.97,1.02l.09,2.88-1.13.03-1.96-.2c-1.08-2.13-3.67-2.87-5.92-3.1l-.07-4.36c.56-1.78,7.31-9.13,8.99-10.38.79-.18,2.4.24,3.09-.86.62-.99-.1-2.32-.23-3.23,5.17-9.69,10.21-19.7,10.28-30.8.13-20.56-.84-16.21-5.98-34.18,2.51-.28,5.93,11.19,6.68,13.82,2.84,9.95.6,8.94,1.31,19.29.97,14.15-3.54,10.19-1.21,15.95Z" fill="#6b3711"/><path d="M262.33,176.63c-2.33-5.76,2.18-1.79,1.21-15.95-.71-10.35,1.53-9.34-1.31-19.29-.75-2.62-4.17-14.09-6.68-13.82-.08-.27-.27-.66-.22-.93.74-4.02-2.74-5.54-.99-7.97,2.1,1.1,2.69,3.75,3.84,6.12,7.01,14.41,10.56,34.08,5.7,49.56-.34,1.09-.79,1.91-1.55,2.29Z" fill="#693714"/><path d="M253.61,116.58c.17.55,1.31,1.27.72,2.09-1.75,2.43,1.74,3.95.99,7.97-.6-.08-.91-.62-1.28-1.39-3.45-7.1-7.64-13.44-12.66-19.52-.87-1.06-1.66-1.91-1.84-3,1.09.2,2.19-.43,3.91.13-.88,6.05,4.07,7.26,7.54,12.48.68,1.03,1.74,1.3,2.61,1.24Z" fill="#6b3711"/><path d="M258.43,187.57c-.54.95-.49,2.45-1.74,2.8-.39-.65-.64-1.37-.48-1.93.22-.79,1.69-1.01,2.22-.87Z" fill="#693714"/><path d="M247.4,210.75c-.71-.04-1.55.11-2.36-.18s-.65-1.29-.62-2.02c1.44-.19,2.66.82,2.98,2.2Z" fill="#693714"/><path d="M249.56,200.63c.23,1.5-.89,2.64-2.25,3.06-.02-.73,0-1.52.24-2.37s1.51-.36,2.01-.69Z" fill="#693714"/><path d="M260.58,183.66c.1.98-.67,1.43-1.12,2.09-.92.03-1.52-.98-.8-1.85.52-.59,1.48-.15,1.93-.25Z" fill="#693714"/><path d="M245.72,205.36c-.52.35-.72,1.17-1.39,1.39-.76.34-.99-.54-.89-1.08.71-.14,1.63.06,2.28-.3Z" fill="#693714"/><path d="M260.64,182.66c-.02-.56.21-1.04.86-1-.04.47-.42.87-.86,1Z" fill="#693714"/><path d="M254.55,193.74c.06-1.09.98-1.91,2.01-2.08-.4.9-1.03,1.81-2.01,2.08Z" fill="#693714"/><path d="M245.38,214.48c-4.72,6.7-11.73,11.52-18.88,16.16-2.12,1.38-3.8,3.31-6.17,3.02-1.02-1.83-2.51-3.33-3.89-4.9.88-.44,1.69-1.55,2.89-2.26,7.52-4.37,14.25-9.31,20.13-15.13,2.25.23,4.84.97,5.92,3.1Z" fill="#d29235"/><path d="M250.37,216.82c-1.33.05-2.78-.78-3.03-2.14l1.13-.03c.55.77,1.49,1.29,1.9,2.17Z" fill="#6e360c"/><path d="M251.24,192.56c-.74,1.26-3.12,2.06-2.86,4.08-1.68,1.24-8.43,8.59-8.99,10.38-8.32,6.27-15.98,12.86-25.7,18.09-29.32,15.76-61.7,23.87-95.2,22.72-14.37-.49-27.5-4.1-39.78-9.89-.67-.32-1.45-.37-2.16-.54-.71-1-1.79-1.76-3.21-2.59-9.27-5.47-16.88-13-22.01-22.13.51-.16,1.15-.56,2.02-.65,14.23,17.06,33.65,24.96,55.72,27.14,16.28,1.6,32.21.81,48.35-2.49,10.36-2.12,20.32-4.15,29.95-8.19l12.68-5.31c5.3-2.22,10.22-4.92,15.22-7.6,6.71-3.6,12.27-8.01,18.09-12.91l4.92-4.14c8.14-6.85,18.72-23.49,20.92-34.13.3-1.46,1.19-2.5,2.33-2.63-.07,11.1-5.11,21.12-10.28,30.8Z" fill="#d29235"/><path d="M196.43,69.47c.74-.97,1.94-1.38,3-1.92-.13.66-.46,1.31-.98,1.66-.64.43-1.35.34-2.02.26Z" fill="#693714"/><path d="M218.18,55.89c-.88,2.4-3.01,4.18-5.62,3.69-25.38-14.8-43.92-19.41-74.13-18.02-14.12.65-27.27,4.43-40.14,9.86-12.81,5.4-23.73,12.99-33.94,22.19-3.09,2.78-5.79,5.3-8.39,8.59l-7.54,9.58c-1.01,1.29-1.9,2.43-2.01,3.84-2.63,1.39-6.11.11-6.99-2.74,1.81-1.82,3.31-3.99,4.87-6.44,1.79-2.83,4.09-4.98,6.33-7.6,12.95-15.14,29.6-27.13,48.25-34.69,38.32-15.53,85.69-11.92,119.29,11.77Z" fill="#7b421d"/><path d="M195.43,69.53c-.56,2.2-6.51,2.43-6.99,5.17-1.24-.55-3.27-.58-4.92-.17-3.58.88-6.13-.81-9.25-1.25-7.13-.99-14.48-1.03-21.57-.02-2.42.34-4.44,2.13-7.26,1.55-3-.62-5.48.86-8.14,1.53-.64.16-13.62,2.26-11.82,4.08-.3.08-.66.23-.96.23-.88-.06-2.05.05-2.09,1.15-11.08,3.95-21.83,8.88-31.56,16.21-1.16.88-1.66,1.55-2.13,2.47-.36.71-1.42,1.66-2.41,2.36-1.46,1.05-2.18-2.04-3.09-2.04l-30.74-.16c-.65,0-1.21.42-1.07.82h-1c-.01-.56-.57-.55-1-.57-.66-.03-1.34-.07-2-.17.25-1.24,0-2.34-1.49-2.11-.83.13-2.35-.35-2.51.89-13.12-3.46-21.88-12.44-31.68-22.03-1.83,3.74-.05,6.61.49,9.2,2.69,12.86,11.98,23.76,23.51,30.68.9.54,1.37,1.07,1.38,1.81.11,4.51-16.14.32-17.67-1.67-.27,3.06,2.08,3.5,2.93,4.95.69,1.19.99,3.15,2.01,4.17-1.43.86-.74,2.86-.65,4.27.04.59-.29,1.4-1.02.96,0-1.53-1.45-3.39-2.72-4.56-3.08-2.83-7.64-10.34-4.07-13.12,1.84-1.42,4.18-.33,6.55-.69-11.06-12.99-9.36-10.34-14.55-25.19-1.99-5.69-2.12-14.33,3.17-14.57,5.7-.26,7.8,6.45,16.08,12.19l7.74,5.36c1.54,1.06,2.95,1.78,4.5,1.6.88,2.85,4.36,4.13,6.99,2.74,9.23,4.85,24.6,2.19,35.94,3.53,2.49-1.72,4.27-3.55,6.52-5.05l8.91-5.92c10.31-6.86,22.14-10.48,34.19-13.62,7.75-2.02,15.4-2.61,23.42-3.51,9.83-1.11,19.32.04,29.04,1.95,4.92.97,6.4-2.6,10.99-3.45Z" fill="#693714"/><path d="M246.34,21.53h2.18c7.01-.04,6.4,18.64,5.62,24.12-.72.51-.71-.33-.65-1.42.18-2.25-2.38-2.19-2.1-.02,1.12,3.84-.33,5.18,1.13,7.36.37,3.33-1.19,6.3-2.86,9.1-.5-.08-1.92-.09-1.9.93.03,1.59.5,3.28.98,4.64,3.36,1.17,6.91.21,8.52-2.67.89,3.13-.19,6.16-.99,9.19-.76-.54-.21-1.99-2.31-2.4-1.14,9.96-4.87,5.43-4.64,14.02-1.42.19-3.21.43-4.47,1.84-.94,1.04.15,2.5.66,3.17-.9,2.33-3.65,3.59-5.97,4.25s-3.07,3.05-4.17,4.97c-1.49-1.01-3.23,0-4.89.8-5.2,2.47-10.36,3.77-16.12,5.64,1.94,1.54,4.31,1.9,6.44,2.79,16.73,7.01,27.7,22.87,29.04,41.43,1.34,18.5-7.49,35.71-23.39,45.33-14.08,8.52-30.76,9.44-45.62,2.43-1.79-.85-3.32-.6-4.28.53-3.5,4.13-2.91,8.49-8.65,17.67-4.53,7.25-13.18-4.88-22.57-10.57-.96-.58-2.62.61-3.26,1.59-10.88,16.47-33.74,24.2-52.43,19.25-16.79-4.45-28.9-16.84-33.82-33.18s-1.32-32.37,8.57-45.49c2.18-2.2,5.19-3.96,7.07-7.05-2.76-.35-4.85.04-6.82.44l-.48-2.7c.62-.86,1.69-1.65,3.17-1.94l15.02-2.95c26.52-5.21,48.91.58,66.81,21.67,4.58-17.25,11.58-28.82,24.84-39.02,8.78-6.76,18.98-10.27,29.77-12.3,13.79-2.6,31.81-8.26,41.15-18.83,3.35-3.79,5.96-7.79,6.61-12.38.16-1.13,2.32-2.32.56-4.35-3.55,1.72-11,8.61-14.61,7.33-.66-.23-1.23-1.84-.41-2.73,7.37-7.98,11.8-17.97,13.19-28.37.77-2.96-.21-16.24-2.51-17.48-1.82-.98-3.69,7.86-6.15,9.3-.2.35-.14-6.54-1.16-3.91.4-2.64,2.53-10.03,5.88-10.05ZM249.55,58.65c0-.61-.5-1.11-1.11-1.11s-1.11.5-1.11,1.11.5,1.11,1.11,1.11,1.11-.5,1.11-1.11ZM139.9,202.56c-2.56-8.98,2.27-18.85,7.53-23.87,4.89-4.67,11.83-5.07,17.95-2.68,5.39,2.11,13.51,9.41,14.88,15.9,15.85,9.33,35.57,6.9,49.58-4.83,13.41-11.24,18.91-28.29,14.65-45.33-5.39-21.54-24.86-35.29-47.09-33.24-17.14,4.64-31.37,15.82-39.16,31.75-3.98,8.14-4.58,18.89-7.45,19.42-4.1.76-9.19-12.25-25.29-19.22-11.36-4.92-24.42-7.68-36.77-4.4-19.36,5.14-31.65,23.62-30.96,43.11.57,16.21,8.87,30.5,22.82,38.42,19.81,11.26,46.27,4.2,59.32-15.03ZM144.43,199.79c7.8,3.2,9.87,7.36,15.96,10.86.47.78.95,1.84,1.72,1.94,1.23.15,2.85.53,3.41-.78l3.92-9.14c1.83-4.27,2.14-5.86,5.56-11.35-.14-3.8-3.87-6.2-6.56-8.53-4.82-4.18-11.45-5.66-16.93-1.96-4.49,3.04-6.84,7.93-7.7,13.17-.36,2.18-1.25,4.66.62,5.8Z" fill="#6b3711"/><path d="M239.24,39.57c-.22,1.65-1.19,3.1-2.31,4.71-9.09,13.12-20.62,20.15-34.43,26.4.09-1.33-1.06-1.11-1.06.11-2.53,2.81-7.02,2.96-9.94,4.96-1.24.27-2.07-.62-3.06-1.05.49-2.74,6.44-2.97,6.99-5.17.3-.06.7-.1,1-.06.66.09,1.38.17,2.02-.26.53-.35.86-1,.98-1.66,1.62-.82,3.29-1.56,5.1-1.8,2.1,1.2,5.76.61,7.47-1.43.83-.98.16-2.6.39-3.32.15-.45.1-.96.16-1.43,2.61.5,4.74-1.28,5.62-3.69.75.08,1.51-.17,2.25-.17,1.39,0,2.23-1.06,3.14-2.01l.91-.94c.41-.32.75-.72.99-1.18,1.24-1.48,2.78-2.9,4.21-4.71l5.69-7.18c1.29.07,2.58.05,3.86-.14Z" fill="#6b3711"/><path d="M249.67,60.67c-.04.41-.51.84,0,2.07,1.49-.81,2.85-1.36,4.74-1.33,1.76.02,2.54,1.03,2.86,2.17-1.61,2.88-5.16,3.84-8.52,2.67-.48-1.37-.95-3.06-.98-4.64-.02-1.02,1.4-1.02,1.9-.93Z" fill="#693714"/><path d="M256.28,72.77c-1.02,3.87-3.41,7.06-4.95,10.73-.31.28-.84.52-1.07.92-.31,0-.63-.08-.93-.04-.22-8.58,3.51-4.06,4.64-14.02,2.1.42,1.55,1.86,2.31,2.4Z" fill="#693714"/><path d="M241.62,35.48c-.08,1.69-.85,3.29-2.39,4.09-1.28.2-2.57.21-3.86.14.38-.48,3.52-8.02,5.09-8.14,1.02-2.63.96,4.26,1.16,3.91Z" fill="#693714"/><path d="M254.14,45.65c-.29,2.04-.36,4.2-1.61,5.92-1.46-2.18-.01-3.52-1.13-7.36-.28-2.16,2.28-2.23,2.1.02-.06,1.08-.07,1.93.65,1.42Z" fill="#693714"/><path d="M251.47,85.72c-.3-.45-1.14-.62-1.21-1.3.23-.4.76-.64,1.07-.92l.14,2.22Z" fill="#6b3711"/><path d="M250.29,43.66c-1.38,10.4-5.81,20.38-13.19,28.37-.83.9-.25,2.5.41,2.73,3.61,1.28,11.06-5.61,14.61-7.33,1.76,2.03-.4,3.21-.56,4.35-5.63,4.5-3.45,4.77-11.4,10.65-25.58,18.89-43.69,7.82-71.8,31.27-4.29,3.58-7.73,7.41-10.7,12.21l-3.08,4.98c-7.18,11.62-4.56,15.56-6.03,17.37-.65.79-1.59.17-2.22-.63-15.7-19.97-41.84-25.27-65.79-20.81l-20.06,3.74c-9.19,1.71-18.41.55-27.02-2.8-4.27-1.66-8.69-5.17-11.05-5.3-.84-1.45-3.19-1.88-2.93-4.95,1.52,1.99,17.78,6.17,17.67,1.67-.02-.73-.48-1.27-1.38-1.81-11.54-6.92-20.82-17.82-23.51-30.68.66-1.27-.13-2.87,1.23-4.45l9.26,9.15c11.79,11.65,24.52,16.25,41.14,16.66,14.27.35,36.8,1.49,49.59,7.83,9.35,4.63,17.56,10.66,25.7,17.04,1.13.89,1.33,2.43,2.53,2.73,1.95.48,1.79,2.5,5.51,1.81,1.92,1.14,3.27-10.15,6.94-17.07,6.56-12.38,8.16-15.32,18.16-24.83,5.75-5.46,20.73-14.41,28.26-17.99,9.49-4.5,18.47-9.52,26.58-16.1,2.48-2.01,10.3-12,11.65-14.24,3.32-5.51,5.67-11.08,8.5-17.1,3.78,2.03.7,12.12,2.99,13.56Z" fill="#f1ba3c"/><path d="M251.55,71.78c-.65,4.59-3.25,8.59-6.61,12.38-9.34,10.57-27.36,16.23-41.15,18.83-10.79,2.03-20.99,5.55-29.77,12.3-13.26,10.21-20.27,21.77-24.84,39.02-17.9-21.09-40.29-26.88-66.81-21.67l-15.02,2.95c-1.48.29-2.55,1.08-3.17,1.94-7.35-1.7-22.09.86-31.36-5.32l-8.42-5.61c-1.02-1.02-1.32-2.99-2.01-4.17,2.37.13,6.79,3.64,11.05,5.3,8.6,3.35,17.82,4.52,27.02,2.8l20.06-3.74c23.95-4.46,50.1.85,65.79,20.81.63.8,1.57,1.42,2.22.63,1.47-1.8-1.15-5.75,6.03-17.37l3.08-4.98c2.97-4.8,6.4-8.63,10.7-12.21,28.12-23.45,46.22-12.37,71.8-31.27,7.96-5.88,5.77-6.15,11.4-10.65Z" fill="#d29235"/><path d="M188.44,74.7c.98.43,1.82,1.32,3.06,1.05l-11.89,8.1c-17.98,12.25-28.99,32.94-32.41,53.59-3.72.7-3.56-1.32-5.51-1.81.06-2.5-8.42-9.97-10.98-12.26-9.27-8.32-19.96-13.91-32.15-16.85-19.45-4.7-41.05-3.71-43.02-4.15l-4.11-.91c-.14-.4.42-.82,1.07-.82l30.74.16c.91,0,1.63,3.09,3.09,2.04.99-.71,2.05-1.65,2.41-2.36,3.08.36,6.7.22,9.7,1.17,19.76,6.27,31.51,13.08,45.89,29.53,4.28-19.14,13.8-34.2,27.04-46.49,3.08-2.87,7.03-4.48,10.44-8.01-18.73-4.14-39.35-.67-56.33,3.74-1.81-1.82,11.18-3.92,11.82-4.08,2.66-.67,5.14-2.14,8.14-1.53,2.81.58,4.84-1.21,7.26-1.55,7.09-1,14.44-.97,21.57.02,3.12.43,5.67,2.13,9.25,1.25,1.65-.41,3.68-.38,4.92.17Z" fill="#6e360c"/><path d="M171.38,84.69c.13-.92,1.1-1.57.62-3.06-17.12-.71-34.23.78-49.82,7.72l-9.68,4.31-11.85,5.28c-1.34.6-2.23,1.58-2.2,2.72-3-.95-6.62-.81-9.7-1.17.47-.93.96-1.6,2.13-2.47,9.73-7.33,20.48-12.26,31.56-16.21.71-.25,2.3.05,2.09-1.15.3,0,.66-.15.96-.23,16.98-4.41,37.6-7.88,56.33-3.74-3.4,3.53-7.35,5.14-10.44,8.01Z" fill="#f5cd77"/><path d="M43.43,99.5c1.35.35,2.61,1.01,4,1.22.66.1,1.34.13,2,.17-.07.69.55.57,1,.57h1l4.11.91c1.97.44,23.57-.55,43.02,4.15,12.19,2.94,22.87,8.53,32.15,16.85,2.55,2.29,11.04,9.76,10.98,12.26-1.21-.3-1.4-1.85-2.53-2.73-8.15-6.38-16.35-12.4-25.7-17.04-12.79-6.34-35.31-7.48-49.59-7.83-16.61-.41-29.35-5.01-41.14-16.66l-9.26-9.15c-1.36,1.57-.57,3.18-1.23,4.45-.54-2.59-2.33-5.46-.49-9.2,9.81,9.59,18.57,18.58,31.68,22.03Z" fill="#f5cd77"/><path d="M47.43,100.72c-1.39-.21-2.65-.87-4-1.22.16-1.24,1.68-.76,2.51-.89,1.49-.23,1.74.87,1.49,2.11Z" fill="#6e360c"/><path d="M124.52,80.65c.21,1.2-1.37.89-2.09,1.15.04-1.1,1.2-1.21,2.09-1.15Z" fill="#6e360c"/><path d="M50.43,101.46c-.45,0-1.07.11-1-.57.43.02.99.01,1,.57Z" fill="#6e360c"/><path d="M250.29,43.66c-2.29-1.44.79-11.53-2.99-13.56-2.83,6.02-5.18,11.6-8.5,17.1-1.35,2.24-9.18,12.23-11.65,14.24-8.12,6.58-17.09,11.6-26.58,16.1-7.54,3.57-22.52,12.52-28.26,17.99-10,9.51-11.6,12.45-18.16,24.83-3.67,6.93-5.01,18.21-6.94,17.07,3.43-20.65,14.43-41.34,32.41-53.59l11.89-8.1c2.92-1.99,7.41-2.15,9.94-4.96.32-.1.75.03,1.06-.11,13.81-6.26,25.33-13.29,34.43-26.4,1.12-1.61,2.09-3.06,2.31-4.71,1.53-.8,2.3-2.39,2.39-4.09,2.46-1.44,4.33-10.28,6.15-9.3,2.3,1.24,3.29,14.52,2.51,17.48Z" fill="#f5cd77"/><circle cx="248.44" cy="58.65" r="1.11" fill="#693714"/><path d="M204.54,65.76c2.36-1.97,5.06-3.52,7.87-4.75-.24.72.43,2.34-.39,3.32-1.71,2.04-5.37,2.63-7.47,1.43Z" fill="#693714"/><path d="M64.41,146.84c-.1-1.07-14.09-.47-16.17-1.27.75-.78-.09-3.89,1.64-4.2,5.07-.68,10.04-.17,14.78-1.14,1.97-.4,4.06-.79,6.82-.44-1.88,3.09-4.89,4.85-7.07,7.05Z" fill="#d29235"/><path d="M235.39,98.63c.55.9.98,2.3,1.89,3.02-6.26,3.16-10.46,3.81-16.46,6.21-2.13-.89-4.5-1.26-6.44-2.79,5.76-1.87,10.93-3.17,16.12-5.64,1.66-.79,3.4-1.8,4.89-.8Z" fill="#d29235"/><path d="M171.38,84.69c-13.23,12.3-22.76,27.35-27.04,46.49-14.38-16.44-26.14-23.25-45.89-29.53-.02-1.13.86-2.12,2.2-2.72l11.85-5.28,9.68-4.31c15.59-6.95,32.71-8.44,49.82-7.72.48,1.49-.49,2.14-.62,3.06Z" fill="#f1ba3d"/><path d="M202.5,70.68c-.31.14-.74.01-1.06.11,0-1.22,1.15-1.44,1.06-.11Z" fill="#6e360c"/><path d="M168.43,202.66c-.7,2.5-2.72,4.73-3.02,7.83-2.17.38-3.53.19-5.02.16-6.09-3.5-8.16-7.66-15.96-10.86-.59-6.69,2.27-13.08,7.5-17.72,2.82-2.5,5.92-3.09,9.47-1.31,2.78,1.39,5.79,2.45,8.52,4.33,5.91,4.08-.21,13.05-1.49,17.58ZM167.54,188.57c0-1.67-1.35-3.02-3.02-3.02s-3.02,1.35-3.02,3.02,1.35,3.02,3.02,3.02,3.02-1.35,3.02-3.02Z" fill="#ef842a"/><path d="M145.34,204.68c9.38,5.7,18.04,17.83,22.57,10.57,5.74-9.18,5.15-13.54,8.65-17.67.66,4.91-4.93,23.41-11.1,24.59-4.18.8-19.92-12.21-20.11-17.5Z" fill="#d29235"/><path d="M169.43,202.66h-1c1.28-4.53,7.39-13.5,1.49-17.58-2.73-1.89-5.74-2.95-8.52-4.33-3.55-1.77-6.65-1.19-9.47,1.31-5.23,4.64-8.08,11.04-7.5,17.72-1.87-1.14-.98-3.62-.62-5.8.86-5.24,3.2-10.14,7.7-13.17,5.48-3.7,12.11-2.22,16.93,1.96,2.69,2.33,6.42,4.74,6.56,8.53-3.42,5.49-3.73,7.08-5.56,11.35Z" fill="#ebb453"/><path d="M160.39,210.65c1.49.03,2.86.22,5.02-.16.3-3.1,2.31-5.32,3.02-7.83h1l-3.92,9.14c-.56,1.31-2.18.93-3.41.78-.76-.1-1.25-1.16-1.72-1.94Z" fill="#d29235"/><circle cx="164.52" cy="188.57" r="3.02" fill="#f1ba3d"/><path d="M248.38,196.64c-.25-2.03,2.12-2.83,2.86-4.08.12.9.85,2.24.23,3.23-.69,1.09-2.3.68-3.09.86Z" fill="#6e360c"/><path d="M245.72,205.36c-.66.36-1.58.17-2.28.3-.04-.72-.24-1.63.5-2,.62-.31,1.02.04,1.52.47.41.36,1.21.71.27,1.23Z" fill="#6e360c"/><path d="M139.9,202.56c-13.05,19.23-39.51,26.29-59.32,15.03-13.94-7.93-22.24-22.21-22.82-38.42-.69-19.5,11.6-37.97,30.96-43.11,12.35-3.28,25.41-.52,36.77,4.4,16.09,6.97,21.18,19.98,25.29,19.22,2.86-.53,3.46-11.28,7.45-19.42,7.8-15.93,22.03-27.12,39.16-31.75,22.23-2.05,41.7,11.7,47.09,33.24,4.27,17.04-1.24,34.1-14.65,45.33-14.01,11.73-33.72,14.16-49.58,4.83-1.37-6.5-9.49-13.79-14.88-15.9-6.12-2.4-13.06-1.99-17.95,2.68-5.26,5.03-10.09,14.9-7.53,23.87ZM208.6,155.89c0-10.8-8.76-19.56-19.56-19.56s-19.56,8.76-19.56,19.56,8.76,19.56,19.56,19.56,19.56-8.76,19.56-19.56ZM137.6,174.11c0-12-9.73-21.73-21.73-21.73s-21.73,9.73-21.73,21.73,9.73,21.73,21.73,21.73,21.73-9.73,21.73-21.73Z" fill="#fbfcfb"/><path d="M137.6,174.11c0,12-9.73,21.73-21.73,21.73s-21.73-9.73-21.73-21.73,9.73-21.73,21.73-21.73,21.73,9.73,21.73,21.73ZM109.42,162.88c-1.99.13-4.46.13-6.03,1.52-2.83,2.51-.56,5-.53,8.3.05,5.02,2.2,9.79,6.13,12.21,4.83,2.98,10.52,2.77,15.12-.74,5.39-4.11,6.36-12.88,2.17-18.15-4.2-5.29-11.15-6.63-16.85-3.14Z" fill="#3eb8a2"/><path d="M102.85,172.7c3.26,1.78,7.68,2.01,9.31-1.76,1.73-4.03-.84-5.72-2.74-8.06,5.71-3.49,12.65-2.15,16.85,3.14,4.19,5.27,3.22,14.04-2.17,18.15-4.61,3.51-10.29,3.72-15.12.74-3.93-2.42-6.09-7.19-6.13-12.21Z" fill="#1f6056"/><path d="M109.42,162.88c1.9,2.34,4.47,4.02,2.74,8.06-1.62,3.77-6.04,3.55-9.31,1.76-.03-3.29-2.3-5.78.53-8.3,1.57-1.39,4.05-1.39,6.03-1.52Z" fill="#f4f5f5"/><path d="M208.6,155.89c0,10.8-8.76,19.56-19.56,19.56s-19.56-8.76-19.56-19.56,8.76-19.56,19.56-19.56,19.56,8.76,19.56,19.56ZM181.34,146.65c-1.56.18-3.43.6-4.48,2.26-1.13,1.78-.03,3.54-.28,5.87-.57,5.13,2.72,10.22,7.19,12,5.48,2.19,11.87.25,14.57-4.95,2.17-4.18,1.87-9.03-.8-12.57-4.02-5.32-11.38-6.13-16.19-2.61Z" fill="#3eb8a2"/><path d="M176.58,154.78c.85.41,1.7,1.18,3,1.43,3.14.62,5.69-1.32,6.07-4.04s-1.62-4.9-4.3-5.52c4.82-3.52,12.18-2.72,16.19,2.61,2.67,3.54,2.97,8.39.8,12.57-2.7,5.2-9.09,7.14-14.57,4.95-4.48-1.79-7.76-6.88-7.19-12Z" fill="#1f6056"/><path d="M181.34,146.65c2.69.62,4.7,2.71,4.3,5.52s-2.92,4.66-6.07,4.04c-1.3-.26-2.16-1.02-3-1.43.26-2.33-.84-4.09.28-5.87,1.05-1.66,2.92-2.07,4.48-2.26Z" fill="#f4f5f5"/></svg>