<?xml version="1.0" encoding="UTF-8"?><svg id="Layer_1" xmlns="http://www.w3.org/2000/svg" viewBox="0 0 311.81 311.81"><path d="M35.82,121.89c.84-.21,1.63-.84,1.46-1.78,1.23,1.2,2.99,2.11,3.75,3.75l-.4,2.15c-2.8.22-5.19,2.28-5.11,5.48,1.76,1.87,2.66,4.11,2.77,6.35.15,3.21-.55,6.52-1.43,10.03l-.04,24c2.67,16.13,6.59,34.12,15.91,47-.07.28.02.73.05,1,7.16,12.3,16.62,23.38,28.28,32.94,1.5.47,3.17-2.06,3.92-2.85.69.02,1.51-.13,2.22.17.95.4,1.07,1.62.94,2.56-.77,1.16-1.6,2.01-3.42,3.65,16.91,11.72,22.46,14.43,42.03,20.79,1.9.62,3.64.32,5.12.69,24.02,6.14,49.96,3.65,73.35-5.79,6.68-2.7,24.71-12.29,28.65-17.31,2.53-.66,4.09-3.27,5.83-3.85,1.91-.64,2.39-2.7,3.53-3.93,2.25-2.43,7.5-4.9,4.66-9.01l.3-2.74c.58.06,1.16.02,1.73-.12.71.28.9,1.1,2.37,1.97,9.44-9.59,17.43-25.08,22-37.95,13.01-36.56,6.48-79.76-16.63-110.89-1.92-2.59-6.35-8.55-8.65-9.4.53-2.58,1.19-5.32,1.24-7.96,16.87,13.57,31.09,42.88,34.74,64.76,2.48,14.86,3.51,26.65,1.18,41.64-2.81,18.14-6.28,28.23-14.87,44.36-7.21,13.54-18,25.07-29.26,35.42-3.53,3.24-7.5,5.85-11.47,8.55-17.55,11.94-32.66,17.35-53.66,21.09-26.21,2.21-45.23.73-69.32-9.47-5.26-2.23-18.73-9.41-22.56-12.56l-3.83-3.16c-1.72-1.42-3.46-2.31-5.08-3.82-4.35-4.03-9.04-7.46-12.68-12.23-1.62-2.13-3.1-4.2-5.36-5.77-26.71-34.96-34.81-75.99-22.28-117.77Z" fill="#7e431b"/><path d="M250.25,70.85c-.05,2.64-.71,5.38-1.24,7.96-.25,1.18-1.55,2.63-2.1,4.19-1.92,5.37-5.85,9.07-9.3,14.04,18.53,13.96,30.38,38.44,32.68,61.26,1.38,13.69-1.81,27.52-8.59,39.31-5.85,10.17-4.43,7.04-10.67,15.41-3.51,4.71-12.5,10.43-10.66,12.14,2.68,2.48,8.2,6.92,9.54,9.92-.56.14-1.15.18-1.73.12l-2.57-.26c-1.42-.4-2.37-1.6-2.8-2.99-.03-4.64-6.4-5.31-3.85-9.18,1.08-1.65,1.75-3.33,1.81-5.02,1.44-.97,1.81-3.6,4.08-3.86,1.42-.16,2.61-1.94,2.98-3.16.6-2.02,14.13-16.43,16.93-33.86.27-1.67.64-3.3.29-5,1.32-.29.81-2,.87-3,1.57-23.31-9.27-48.9-26.85-65.05-1.01-.93-2.06-1.46-3.05-1.76-.3-.58-.47-1.38-1.45-2.01-.45-.29-.87.46-.79.77-.29.14-.72.08-.98.26l-11.24,7.74c2.41,1.16,4.4.6,6.36.96.62.11,1.22.49,1.67.85-1.8,2.74-8,.89-10.51,1.42-1.64.35-10.87,3.38-10.19.88.32-.73.83-1.58,1.79-2.23l18.57-12.51c10.52-7.08,16.56-18.34,16.45-31.51.88-1.33-.64-2.67-1.01-.7-1.59.63-7.71,11.28-10.98,8.69-2.91-2.3,9.78-15.72,1.2-37.69-.67-1.72-1.24-3.07-2.33-4.08-1.15-1.06-.6-3.03-3.52-4.31-1.65,9.92-2.93,19.68-7.46,28.44-1.25-.07-2.53-.31-3.5-1.14l-.2-1.9c1.73-.76,2.93-5.01,1-6.22,6.53-.41,2.34-21.13,9.02-23.26,8.07-2.58,12.51,14.23,13.85,20.36,2.11,9.66-.75,14.33.73,14.79.78.24,3.56-1.5,5.3-.29,2.33,1.62,2.51,9.07,2.47,11.46Z" fill="#6b3711"/><path d="M218.89,47.79c1.93,1.21.73,5.46-1,6.22-1.83.35-2.87-1.67-4.62-2.38-5.41-2.19-10.23-4.58-15.88-6.45-28.08-9.29-58.71-8.45-86.14,2.99-13.58,5.67-23.35,11.94-34.61,21.56-4.82,4.12-8.66,9.14-13.03,13.85-4.98,5.35-7.83,11.89-11.76,17.58-1.2.66-2.57.44-3.64-.07-1.38-.66-2.26-1.68-2.18-3.13,9.96-18.69,28.55-37.84,47.59-48.26,5.75-3.15,11.21-6.21,17.44-8.56,26.22-9.89,54.72-11.41,81.65-4.1,9.6,2.6,18.28,5.77,26.17,10.73Z" fill="#7b421d"/><path d="M212.12,70.83c-.91,2.62-10.8,12.83-13.28,14.28l-4.02-.47c-.45-.55-1.14-1.25-2.22-1.46-34.7-6.57-72.09,4.66-98.66,26.63-1.82-.61-3.62.52-5.44,1.53-3.21,1.78-19.61-.57-18.59,1.46-14.31-2.77-28.41-8.8-38.07-19.62l-2.51-2.81c-.55-.62-2.24-.74-2.73.09-1.77,2.98-.35,6.01.57,8.87s1.24,5.93,1.53,8.65c-3.49-2.36-5.45-13.67-3.75-18.1,1.38-3.61,6.65-1.96,8.68.06,1.1,1.09,11.22,8.85,12.41,8.01-.07,1.44.8,2.47,2.18,3.13,1.06.51,2.43.73,3.64.07,2.7,6.33,29.68,10.23,35.78,8.66,2.56-.66,3.54-3.28,5.38-4.83,3.14-2.64,6.5-4.59,9.91-6.99,11.69-8.25,24.96-13.39,38.93-16.98,19.62-5.04,36.21-5.04,56.07-1.19,2.49-1.19,14.2-14.09,14.09-14.05.06.66-1.72,5.58.09,5.06Z" fill="#693714"/><path d="M31.83,93.19c-.94.12-1.7-1.17-2.74-1.46-1.75,2.07-.38,4.24-.05,5.95,1.86,9.72,9.7,18.96,17.49,25.57,3.61,3.07,7.93,4.76,12.12,6.83,1.02.5,2.7,2.94.98,3.49-6.62,2.13-13.03-2.49-18.78-1.54.39,1.31,1.6,1.47,2.31,1.94,2.91,5.09,8.35,8.09,14.04,10.67,32.12,14.56,62.02-16.26,106.98,6.22,1.17.58,2.21.92,2.64,1.82.98,2.29-9.94-2.41-7.65-1.06-6.32-3.72-25.03-7.68-31.36-6.79-10.13,1.43-16.63,6.39-20.91,5.42-1.51-.34-2.87-.92-5.01-.56l-16.37,2.76c-7.99,1.35-15.69.7-23.67-1.7-1.88,2.44-2.5,5.31-2.19,7.97-.27.24-.97.72-1.13,1.49l-2.44,11.65c-1.2,5.74-.3,11.55-.18,16.99.16,7.16,1.88,14.23,4.08,21-4.05.61,0-2.75-4.05-6.1l-.47-4.79c-.27-2.75-1.77-5.13-1.49-8.1-1.63-4.62-1.58-9.4-.02-14.02l-.06-11v-3c.56.46,3.19-5.8,1-5,.1-.78.3-1.55,1-2,1.39.3,1.77-1.22,2.7-2.22,1.92-2.06,1.88-4.55-.3-6.36-.81-.67-11.07-4.86-12.39-4.48-.9-.8-2.15-1.29-3.12-2.02h-1.01c-.56-1.53-1.77-2.95-3.49-2.96-.1-2.25-1-4.48-2.77-6.35-.08-3.2,2.31-5.26,5.11-5.48-.11.57-.16,2.32.69,2.58,2.57.79,3.77-1.48,4.18-3.99-1.39-.48-2.92-.84-4.47-.74-.76-1.65-2.52-2.55-3.75-3.75-.77-1.81-1-4.51-3.48-4.27-.43-.07-.54-.86-.87-.96.08-1.39-.67-2.68-2.03-3.09-1.07-1.15-2.03-2.13-2.21-3.8-.29-2.72-.58-5.72-1.53-8.65s-2.35-5.89-.57-8.87c.49-.82,2.18-.7,2.73-.09l2.51,2.81Z" fill="#6b3711"/><path d="M37.29,120.11c.17.93-.62,1.57-1.46,1.78.85-4.65-1.86-3.44-2.02-6.05,2.48-.24,2.71,2.46,3.48,4.27Z" fill="#693714"/><path d="M32.94,114.88c-1.42-.43-1.22-2.23-2.03-3.09,1.36.41,2.11,1.7,2.03,3.09Z" fill="#693714"/><path d="M226.68,241.88l7.19,12.85c-3.95,5.02-21.97,14.61-28.65,17.31-23.38,9.44-49.33,11.93-73.35,5.79.82-3.67,3.99-7.54,4.95-10.81.41.04.87-.55,1.28-.53,23.31,1.23,50.08-4.56,71.34-15.13,5.76-2.86,11.23-5.54,15.58-9.52.55-.1,1.11-.08,1.66.04Z" fill="#f6eed7"/><path d="M242.82,231.94l-7.21-4.07c-.68,3.38,6.81,14.31,7.61,19.07-1.14,1.23-1.62,3.3-3.53,3.93-.71-3.3-4.35-12.6-6.55-14.89-.89-.93-.39-4.23-2.56-4.63-3.23.84-6.12,3.34-8.51,5.5-.73.08-1.48.17-2.55.76-24.51,13.42-51.16,21.38-78.71,23.26-14.45.98-29.15-1.27-43.16-5.67-2.23-.7-4.86-1.98-6.61-2.18-.78-.09-2.02-1.68-2.91-.34.13-.94.01-2.16-.94-2.56-.71-.3-1.53-.15-2.22-.17,0-.33,0-.66-.03-.99-.24-2.5-3.62-2.04-3.11-7.16,6.96,4.83,14.37,8.75,22.99,11.26,21.03,6.1,46.37,3.91,67.69-1.44,23.04-5.78,44.42-15.39,63.2-29.88,1.94-1.49,3.38-2.88,5.06-4-.06,1.69-.72,3.37-1.81,5.02-2.55,3.88,3.82,4.55,3.85,9.18Z" fill="#6e360c"/><path d="M91.05,253.03c-.2.8-.7,1.51-.75,2.57l4.55,2.6c8.14,4.64,17.58,6.76,27.1,7.56l14.87,1.26c-.96,3.26-4.13,7.14-4.95,10.81-1.48-.38-3.22-.08-5.12-.69-19.57-6.37-25.12-9.07-42.03-20.79,1.81-1.64,2.64-2.49,3.42-3.65.9-1.34,2.13.25,2.91.34Z" fill="#f1ba3d"/><path d="M239.69,250.87c-1.74.58-3.29,3.19-5.83,3.85l-7.19-12.85c1.61-2.47,3.96-4.36,6.47-5.9,2.2,2.29,5.84,11.59,6.55,14.89Z" fill="#f1ba3d"/><path d="M242.82,231.94c.43,1.38,1.37,2.59,2.8,2.99.28,1.27.86,2.78,2.27,3,2.84,4.11-2.41,6.58-4.66,9.01-.8-4.75-8.3-15.69-7.61-19.07l7.21,4.07Z" fill="#ebb453"/><path d="M40.64,126.01l.4-2.15c1.56-.1,3.09.26,4.47.74-.42,2.51-1.61,4.78-4.18,3.99-.85-.26-.8-2.01-.69-2.58Z" fill="#693714"/><path d="M248.19,235.19l-.3,2.74c-1.4-.22-1.99-1.73-2.27-3l2.57.26Z" fill="#6e360c"/><path d="M232.56,32.92c1.09,1.01,1.66,2.36,2.33,4.08,8.58,21.97-4.1,35.39-1.2,37.69,3.27,2.59,9.39-8.05,10.98-8.69-.17,4.79-7.72,18.64-11.89,21.75l-5.15,3.85c-8.92,6.67-16.96,11.67-23.88,17.13-9.88,7.8-15.62,21.01-18.94,32.97-.87,3.13-3.74,16.51-.28,16.29-.24,1.1-.21,8.69-1.73,4.96.35-2.06-.51-4.18-2.86-5.1-3.6-5.09-8.57-8.2-13.99-10.99-18.4-9.49-36.2-12.54-56.88-9.59l-26.2,3.74c-11.84,1.69-23.46.16-33.97-5.13-1.8-1.54-3.82-2.15-5.75-1.9-.71-.48-1.92-.64-2.31-1.94,5.75-.95,12.15,3.66,18.78,1.54,1.72-.55.04-2.99-.98-3.49-4.19-2.07-8.51-3.76-12.12-6.83-7.79-6.61-15.63-15.85-17.49-25.57,1.13-1.21,3.21-.88,4.33.71,6.77,9.59,26.78,18.27,38.55,20.33l15,1.04c19.75,1.38,24.63-2.5,50.61,5.47,10.33,3.17,19.51,8.45,28.27,14.6,1.34,1.89,3.04,3,4.96,3.04.23.3.8.8,1.13,1,.7,2.3,2.73,4.04,5,4.72.93-.25,1.81-.68,2.78-.78.32,6.93,2.57-14.67,2.35-12.36,1.01-10.77,3.37-21.12,8.74-30.55,14.88-26.14,26.75-22.81,37.19-50.88,3.83-10.3,1.24-21.5,4.59-21.1Z" fill="#f1bb3c"/><path d="M264.76,176.87c-2.79,17.42-16.33,31.84-16.93,33.86-1.32.67-2.4,1.79-2.98,3.16-2.27.26-2.64,2.89-4.08,3.86-1.68,1.13-3.13,2.51-5.06,4-18.78,14.49-40.16,24.1-63.2,29.88-21.32,5.35-46.66,7.54-67.69,1.44-8.63-2.5-16.04-6.43-22.99-11.26-2.8-1.94-4.87-5.28-7.77-6.97.13-.46.03-.91-.17-1.33-.33-.69-1.31-.61-1.82-.88-.32-.51-.63-1.4-1.41-1.53-.44-1.79-1.76-3.21-2.91-4.99-3.82-5.92-4.64-9.55-7.53-14.23.19-.51-.05-1.49-.22-2-2.21-6.77-3.92-13.84-4.08-21,.51.65,1.74,1.28,1.96,2.13,1.5,5.69,4.72,10.72,7.94,16.06,5.6,9.29,12.54,17.17,21.75,23.14,12.82,8.31,26.89,13.3,42.32,14.54,25.34,2.04,51.35-3.16,74.34-13.49l7.75-3.48c8.71-3.91,16.24-9.43,24.03-14.84,2.47-1.71,4.11-3.79,6.26-5.74,9.87-8.94,19.29-21.4,20.56-34.36,1.91-.31.28,3.92,1.94,4.03Z" fill="#d29235"/><path d="M208.89,112.94c-2.13-.21-9.84,8.04-9.9,9.87-5.22,3.75-10.19,16.52-11.01,23.08-.13,1.06-1.97,2.44-1.05,3.93-1.08.32-1.95,6.19-2.38,8.17-3.46.21-.59-13.16.28-16.29,3.32-11.96,9.06-25.17,18.94-32.97,6.92-5.46,14.96-10.46,23.88-17.13l5.15-3.85c4.17-3.11,11.72-16.96,11.89-21.75.37-1.96,1.89-.62,1.01.7.11,13.16-5.93,24.42-16.45,31.51l-18.57,12.51c-.96.65-1.47,1.5-1.79,2.23Z" fill="#d29235"/><path d="M232.56,32.92c-3.35-.4-.76,10.8-4.59,21.1-10.44,28.07-22.31,24.74-37.19,50.88-5.37,9.43-7.74,19.78-8.74,30.55.22-2.31-2.04,19.29-2.35,12.36.2-15.58,1.08-28.53,7.32-43.76,3.37-8.24,8-12.46,11.84-18.93,2.47-1.45,12.37-11.66,13.28-14.28,3.2-.84,3.53-4.94,5.39-6.89,2.04-2.15,2.75-4.3,4.09-6.9,4.52-8.76,5.8-18.52,7.46-28.44,2.92,1.28,2.36,3.24,3.52,4.31Z" fill="#f5cd77"/><path d="M265.92,168.87c-1.38.17-1.08,2-.87,3,.35,1.7-.02,3.33-.29,5-1.65-.11-.03-4.34-1.94-4.03-.3.05-1.31-.34-1.5.11-1.02,2.52-4.08,9.36-5.66,9.84-.15-.62-.19-1.27-.11-1.91,2.12.04,6.35-12.78,5.59-15.02,1.9-3.01.75-21.9-2.18-25.02.49-2.34-1.39-3.95-2.21-5.87-1.24-2.92-2.29-6.44-5.05-8.22-.31-1.02-.63-2.39-1.78-2.8-.31-.24-.32-1.19-1.06-.99-.22.06-.49-.13-.72-.12,1.07-1.82-8.53-9-10.33-8.64-2.04-2.35-5.24-3.14-8.23-3.57-.45-.36-1.05-.74-1.67-.85,2.24-2.01,7.1-3.18,8.1-7.73.99.3,2.04.83,3.05,1.76,17.59,16.15,28.43,41.74,26.85,65.05Z" fill="#ebb453"/><path d="M236.02,102.06c-1,4.55-5.86,5.72-8.1,7.73-1.96-.36-3.95.2-6.36-.96l11.24-7.74c0,1.26,1.39.77.98-.26-.08-.31.34-1.06.79-.77.98.63,1.15,1.43,1.45,2.01Z" fill="#d29235"/><path d="M221.59,57.05c-1.34,2.6-2.05,4.75-4.09,6.9-1.61.04-3.14.62-4.7.98l5.29-9.02c.97.83,2.25,1.07,3.5,1.14Z" fill="#693714"/><path d="M265.05,171.87c-.2-1-.5-2.83.87-3-.07,1,.45,2.71-.87,3Z" fill="#d29235"/><path d="M244.86,213.88c.58-1.37,1.66-2.48,2.98-3.16-.36,1.22-1.56,2.99-2.98,3.16Z" fill="#6e360c"/><path d="M232.8,101.08c.26-.18.7-.12.98-.26.41,1.03-.98,1.52-.98.26Z" fill="#ebb453"/><path d="M198.84,85.12c-3.84,6.47-8.46,10.69-11.84,18.93-6.24,15.23-7.12,28.18-7.32,43.76-.97.1-1.85.53-2.78.78-1.38-1.83-3.03-3.54-5-4.72-.33-.2-.9-.7-1.13-1-2.51-3.57-6.57-6.43-10.48-9.37-9.39-7.05-19.74-11.84-31.15-14.82-24.72-6.46-41.19-2.38-55.07-5.06l-4.17-.81c-1.02-2.03,15.39.31,18.59-1.46,1.82-1.01,3.62-2.14,5.44-1.53.79.27,1.54.86,2.89.88l12.2.21c9.7.17,19.29,2.71,28.87,6.08,14.14,4.97,26.09,12.7,37.33,24.15,1.43-15.47,3.26-32.98,11.91-46.18.93-1.42,1.67-2.85,1.9-4.15l5.77-6.15,4.02.47Z" fill="#6e360c"/><path d="M31.83,93.19c9.66,10.82,23.76,16.85,38.07,19.62l4.17.81c13.88,2.69,30.35-1.39,55.07,5.06,11.41,2.98,21.76,7.77,31.15,14.82,3.92,2.94,7.97,5.8,10.48,9.37-1.92-.04-3.62-1.15-4.96-3.04-8.76-6.15-17.95-11.43-28.27-14.6-25.99-7.97-30.86-4.09-50.61-5.47l-15-1.04c-11.77-2.06-31.79-10.74-38.55-20.33-1.12-1.59-3.21-1.92-4.33-.71-.33-1.71-1.7-3.87.05-5.95,1.04.29,1.8,1.58,2.74,1.46Z" fill="#f5cd77"/><path d="M194.82,84.65l-5.77,6.15c-.1-.49-.23-2.43-1.38-2.56-5.86-.62-11.47-1.2-17.42-1.01-18.77.6-36.87,5.37-53.22,14.46-3.86,2.14-7.52,3.72-10.4,7.19.88,1.04,1.9,1.3,2.41,2.03l-12.2-.21c-1.36-.02-2.1-.61-2.89-.88,26.56-21.96,63.96-33.2,98.66-26.63,1.08.2,1.77.91,2.22,1.46Z" fill="#f5cd77"/><path d="M217.5,63.95c-1.86,1.95-2.18,6.04-5.39,6.89-1.81.52-.03-4.39-.09-5.06.28-.11.48-.71.77-.85,1.56-.36,3.09-.94,4.7-.98Z" fill="#6b3711"/><path d="M222.08,236.86c1.7,1.07,2.79,2.99,2.94,4.98-4.35,3.98-9.81,6.66-15.58,9.52-21.27,10.56-48.03,16.36-71.34,15.13.76-1.96,2.28-3.52,2.73-5.61,27.55-1.88,54.2-9.84,78.71-23.26,1.07-.59,1.82-.69,2.55-.76Z" fill="#d8c19d"/><path d="M140.82,260.88c-.45,2.09-1.97,3.66-2.73,5.61-.41-.02-.87.57-1.28.53l-14.87-1.26c-9.52-.8-18.96-2.92-27.1-7.56l-4.55-2.6c.06-1.06.55-1.77.75-2.57,1.75.2,4.38,1.48,6.61,2.18,14.01,4.4,28.71,6.66,43.16,5.67Z" fill="#d29235"/><path d="M233.14,235.98c-2.5,1.54-4.85,3.42-6.47,5.9-.55-.12-1.11-.14-1.66-.04-.14-1.99-1.24-3.91-2.94-4.98,2.38-2.17,5.28-4.66,8.51-5.5,2.17.4,1.67,3.7,2.56,4.63Z" fill="#d29235"/><path d="M59.99,209.87c.17.51.41,1.49.22,2-.75,1.99.33,4.37-1.34,6.03-.26.02-.55-.14-.8-.09.08-.79-.08-1.77-.98-1.94.03-.32-.02-.68-.05-1-.03-.34-.23-.66-.29-1-.11-.67-.57-1.35-.83-1.93.24-1.87-.96-3.55-1.39-5.66l-2.54-12.64-.05-21.73c0,.33,1.33-7.66,1.96-6.04l.06,11c-1.56,4.61-1.61,9.39.02,14.02-.28,2.97,1.22,5.34,1.49,8.1l.47,4.79c4.06,3.35,0,6.7,4.05,6.1Z" fill="#693714"/><path d="M70.66,231.1c.77.13,1.08,1.02,1.41,1.53-.09.41-.32,1.07-.1,1.68.26.74,1.51.43,2.1.53,2.9,1.69,4.97,5.03,7.77,6.97-.51,5.12,2.87,4.66,3.11,7.16-5.74-4.01-10.86-8.18-15.88-13.17-.46-.78-1.14-2.56-2.17-2.8-.2-.44-.24-1.62-.98-1.18-.22-1.07-.95-2.25-1.99-2.8-.15-.52-.5-.96-1.01-1.15-.35-.54-.35-1.62-.96-2,.2-.85-.06-1.89-1.04-2-.17-1.38-.93-2.64-1.01-4.03,3.22.49.2-.67,3.89,6.27,1.56,2.93,3.94,4.51,6.87,4.99Z" fill="#693714"/><path d="M70.66,231.1c-2.93-.49-5.31-2.06-6.87-4.99-3.69-6.94-.68-5.79-3.89-6.27-.62-.09-1.56-1.41-1.03-1.94,1.68-1.65.59-4.03,1.34-6.03,2.9,4.69,3.72,8.31,7.53,14.23,1.15,1.78,2.47,3.21,2.91,4.99Z" fill="#6b3711"/><path d="M55.91,155.87l.96-6.02c.26-1.61-2.91-1.66-3.98-2.03-.55-.38-1.09-.94-1.83-1.02.15-.65-.66-.92-1.15-1.08-.28-.09-.62.02-.92-.03-.88-1.11-2.04-1.93-3.09-2.87,1.32-.39,11.58,3.81,12.39,4.48,2.18,1.81,2.23,4.3.3,6.36-.93,1-1.31,2.52-2.7,2.22Z" fill="#693714"/><path d="M53.91,162.87v-3c0-.33.02-.67,0-1,.41-.15.94-.52,1-1,2.19-.8-.44,5.46-1,5Z" fill="#693714"/><path d="M182.82,162.95c-4.01-2.66-7.51-6.26-12.08-7.77-.99-.81-2.18-2.98-3.91-2.49-.43-.9-1.48-1.24-2.64-1.82-44.95-22.48-74.86,8.34-106.98-6.22-5.69-2.58-11.13-5.58-14.04-10.67,1.93-.25,3.95.36,5.75,1.9,10.51,5.28,22.14,6.82,33.97,5.13l26.2-3.74c20.68-2.95,38.48.1,56.88,9.59,5.42,2.8,10.39,5.9,13.99,10.99,2.36.92,3.21,3.04,2.86,5.1Z" fill="#d29235"/><path d="M180.31,165.84c-.41-.06-1.11-.63-1.35-.97-2.64-6.54-9.08-3.73-8.23-9.69,4.57,1.51,8.07,5.11,12.08,7.77,1.52,3.73,1.49-3.86,1.73-4.96.43-1.98,1.3-7.84,2.38-8.17,2.66-.74.76,7.17.24,9.23-.47,1.84.59,10.23-2.95,8.44-1.32-.67-2.81-1.49-3.9-1.65Z" fill="#6b3711"/><path d="M176.91,148.59c-2.27-.68-4.3-2.42-5-4.72,1.97,1.18,3.62,2.89,5,4.72Z" fill="#f5cd77"/><path d="M98.88,156.91c-1.17,1.55-1.96,3.37-2.91,5-.71.88-1.85,2.39-2.88,2.97-3.34,1.86-8.98,18.8-6.65,28.44,1.03,4.25.95,8.89,3.31,12.7,4.89,7.91-1.61,1.2,6.7,11.3.95,1.16,1.32,2.27,2.59,2.47,1.89.3,13.49,16.45,38.85,15.16,18.81-.96,32.4-9.26,43.2-25.55,4.76,7.57,12.65,11.48,20.88,8.34,1.37-.52,2.53-1.2,2.73-2.41,2.04-1.58,4.14,1.96,5.71,1.88,4.12-.2,6.52-15.2,5.37-19.34,8.74,2.64,18.03,1.36,25.92-2.93,12.33-6.7,11.91-11.51,13.97-12.15,1.57-.48,4.64-7.32,5.66-9.84.18-.45,1.19-.06,1.5-.11-1.27,12.96-10.69,25.41-20.56,34.36-2.15,1.95-3.79,4.02-6.26,5.74-7.79,5.41-15.32,10.92-24.03,14.84l-7.75,3.48c-22.99,10.33-48.99,15.53-74.34,13.49-15.44-1.24-29.5-6.23-42.32-14.54-9.21-5.97-16.16-13.86-21.75-23.14-3.22-5.34-6.44-10.37-7.94-16.06.5-6.1-2.85-7.84.17-16.13.03-4.48.18-13.61,3.88-14.9,1.9-.15,3.93.54,6.21.54,8.54.01,16.63-1.32,24.91-3.31,2.14-.51,4.09-.64,5.84-.29Z" fill="#f1bb3c"/><path d="M61.92,159.97c-3.7,1.28-3.85,10.41-3.88,14.9-3.02,8.29.33,10.03-.17,16.13-.23-.85-1.46-1.48-1.96-2.13-.12-5.44-1.02-11.25.18-16.99l2.44-11.65c.16-.77.86-1.25,1.13-1.49.6.49,1.39,1.31,2.25,1.24Z" fill="#ebb453"/><path d="M74.06,234.84c-.59-.1-1.84.21-2.1-.53-.22-.61.01-1.27.1-1.68.51.28,1.49.19,1.82.88.2.42.31.87.17,1.33Z" fill="#6e360c"/><path d="M187.97,145.89c.82-6.56,5.79-19.33,11.01-23.08.97.12,1.11,1.82.55,2.82l-5.32,9.48c-2.73,4.86-3.96,11.98-6.24,10.78Z" fill="#6b3711"/><path d="M261.15,165.87c-.57.24-1.2-.16-1.21-.99l-.1-10.97c-.04-4.08-4.49-9.48-.87-13.05,2.93,3.11,4.08,22,2.18,25.02Z" fill="#6b3711"/><path d="M248.15,122.85c-.28.33-.6.7-.96.84-.44.17-1-.01-1.52-.55-4.49-4.57-7.88-4.81-7.85-8.93,1.8-.37,11.4,6.82,10.33,8.64Z" fill="#6b3711"/><path d="M256.76,134.98c-.8-.21-2.65.39-3.34-.53-.97-1.17-4.09-8.71-1.71-7.69,2.76,1.78,3.81,5.3,5.05,8.22Z" fill="#6b3711"/><path d="M249.93,123.96c-.54-.1-1.57-.07-1.06-.99.74-.21.74.75,1.06.99Z" fill="#6b3711"/><path d="M189.05,90.8c-.24,1.3-.97,2.74-1.9,4.15-8.65,13.2-10.48,30.71-11.91,46.18-11.24-11.45-23.19-19.18-37.33-24.15-9.58-3.37-19.17-5.91-28.87-6.08-.5-.73-1.53-.99-2.41-2.03,2.87-3.47,6.54-5.04,10.4-7.19,16.36-9.09,34.46-13.85,53.22-14.46,5.95-.19,11.57.39,17.42,1.01,1.15.12,1.28,2.06,1.38,2.56Z" fill="#f1bb3c"/><path d="M106.91,150.26c-.65.73-1.56,1.1-2.66,1.78.2.86.44,1.49.65,2.08-3.2-1.82-3.56,1.94-6.02,2.79-1.74-.35-3.69-.22-5.84.29-8.29,1.99-16.38,3.32-24.91,3.31-2.28,0-4.31-.69-6.21-.54-.87.07-1.65-.75-2.25-1.24-.31-2.65.31-5.53,2.19-7.97,7.98,2.4,15.68,3.05,23.67,1.7l16.37-2.76c2.15-.36,3.51.22,5.01.56Z" fill="#d29235"/><path d="M99.04,219.79c-1.27-.2-1.64-1.31-2.59-2.47-8.31-10.1-1.81-3.39-6.7-11.3-2.36-3.81-2.28-8.45-3.31-12.7-2.33-9.64,3.31-26.59,6.65-28.44-7.08,15.86-7.75,31.64,1.2,47.57,1.56,2.77,3.62,4.81,4.75,7.34Z" fill="#ebb453"/><path d="M215.78,197.87c1.15,4.14-1.24,19.14-5.37,19.34-1.58.08-3.67-3.46-5.71-1.88l-4.79-.68c11.21-5.25-12.12-7.69-15.02-8.78.1-1.64-.36-3.22-.72-4.81,7.66,3.31,13.92,1.73,20.37,6.4.97.7,1.77,1.31,3.28,1.56.48.65.74,1.63,2.56,2.18,1.81-4.53,1.84-9.11,1.63-14.45,1.41-.18,2.54.74,3.78,1.12Z" fill="#6e360c"/><path d="M207.82,209.02c-1.51-.25-2.31-.86-3.28-1.56-6.45-4.67-12.7-3.09-20.37-6.4-.66-.28-1.04-.28-1.18-.33.35-.71-.75-.69-1.16-.86-1.09-7.48,1.97-14.98,8.1-17.93,4.49,1.1,9.74,1.79,13.26,5.7,4.33,4.82,7.45,14.82,6.61,20.62-.09.65-1.19.82-1.98.77Z" fill="#ef842a"/><path d="M212,196.75c.22,5.34.18,9.92-1.63,14.45-1.81-.55-2.07-1.53-2.56-2.18.8.06,1.89-.12,1.98-.77.84-5.8-2.28-15.8-6.61-20.62-3.52-3.91-8.76-4.6-13.26-5.7,1.18-.57,1.8-2.06,3.97-1.89,10.4.82,15.84,7.71,18.09,16.71Z" fill="#ebb453"/><path d="M199.91,214.65c-.31-.04-.69.09-1,.03-.66.04-1.33.16-2,.14-5.51-.12-10.61-3.58-12.02-8.95,2.9,1.09,26.23,3.52,15.02,8.78Z" fill="#ef842a"/><path d="M198.91,214.68c-.26.53-.79,1.21-1.47,1.19-.43-.01-.67-.66-.53-1.05.67.01,1.34-.1,2-.14Z" fill="#6e360c"/><path d="M182.99,200.73c-.12-.05-1.11-.5-1.16-.86.42.18,1.51.16,1.16.86Z" fill="#6e360c"/><path d="M237.82,114.21c-.03,4.12,3.36,4.36,7.85,8.93.53.53,1.08.72,1.52.55.36-.14.68-.51.96-.84.24,0,.5.18.72.12-.52.92.51.88,1.06.99,1.15.41,1.47,1.79,1.78,2.8-2.39-1.02.74,6.52,1.71,7.69.69.92,2.54.32,3.34.53.82,1.92,2.7,3.53,2.21,5.87-3.62,3.57.84,8.97.87,13.05l.1,10.97c0,.84.63,1.23,1.21.99.76,2.24-3.47,15.06-5.59,15.02-4.61-.08-2.85,3.21-6.72,4.04.22-1.14,1.22-1.97,2.04-3.12,12.31-17.23,7.63-44.1-6.57-58.23-11.16-11.1-29.64-14.89-40.22-1.51-9.76,12.34-14.32,25.3-15.62,40.36-1.1,1.65-.46,3.71-.6,5.57l-.11,1.44-2.66.5c-1.87-1-3.91-2.09-4.78-4.1,1.09.16,2.58.98,3.9,1.65,3.54,1.8,2.48-6.6,2.95-8.44.52-2.06,2.42-9.97-.24-9.23-.92-1.49.92-2.87,1.05-3.93,2.28,1.2,3.51-5.92,6.24-10.78l5.32-9.48c.56-1,.42-2.7-.55-2.82.06-1.83,7.78-10.08,9.9-9.87-.68,2.5,8.54-.53,10.19-.88,2.51-.53,8.71,1.32,10.51-1.42,2.99.43,6.19,1.22,8.23,3.57Z" fill="#6a3610"/><path d="M248.84,184.93c-.74.16-1.73.98-1.93,1.72-8.67,7.66-20.25,10.6-31.71,6.96-2.63-9.61-9.94-16.11-19.18-17.7-1.12-.78-2.74-1.29-4.28-2.1-.02-2.82-1.67-4.82-3.99-4.38l.11-1.44c1.42,1.3,1.21-4.95.6-5.57,1.3-15.06,5.87-28.02,15.62-40.36,10.57-13.38,29.06-9.58,40.22,1.51,14.21,14.13,18.89,40.99,6.57,58.23-.82,1.15-1.82,1.98-2.04,3.12ZM247.6,171.41c10.31-11.91,6.8-33.13-6.88-41.14-5.45-3.19-11.72-3.02-16.89.68-11.57,8.29-9.56,32.48,5.24,41.84,5.65,3.57,13.18,2.95,18.52-1.38Z" fill="#fafbf9"/><path d="M166.83,152.69c1.73-.49,2.92,1.68,3.91,2.49-.85,5.95,5.59,3.15,8.23,9.69-1.23-.04-1.89-1.13-3.05-2.02-10.87-8.42-23.48-13.49-37.25-15.67-4.78-.76-9.74-.37-14.61-.06-2.33.15-4.61,1.52-6.82,2.14-4.52,1.27-7.66,4.56-11.44,6.49-.3-.54-.69-1.04-.9-1.62s-.45-1.22-.65-2.08c1.1-.68,2.01-1.05,2.66-1.78,4.28.98,10.79-3.99,20.91-5.42,6.33-.89,25.03,3.07,31.36,6.79-2.29-1.35,8.63,3.34,7.65,1.06Z" fill="#6a3610"/><path d="M178.96,164.87c.24.34.94.91,1.35.97.87,2.01,2.91,3.1,4.78,4.1.93,2.51,1.92,5.12,1.97,7.82-10.8,5.94-7.86,18.28-10.29,27.65-4.36,16.85-25.73,25.61-41.41,25.61-17.42,0-31.1-9.08-38.38-22.44-8.11-14.86-6.65-32.09,2.85-45.62.87-1.24,1.91-2,2.06-3.23,1.92-.44,2.88-2.67,3.91-3.97,3.78-1.93,6.92-5.22,11.44-6.49,2.21-.62,4.48-1.99,6.82-2.14,4.87-.32,9.83-.7,14.61.06,13.76,2.19,26.37,7.26,37.25,15.67,1.15.89,1.82,1.98,3.05,2.02ZM172.76,183.21c0-13.54-10.98-24.51-24.51-24.51s-24.51,10.98-24.51,24.51,10.98,24.51,24.51,24.51,24.51-10.98,24.51-24.51Z" fill="#fafbf9"/><path d="M187.06,177.75c2.76-1.52,5.8-2.2,8.96-1.84,9.25,1.59,16.55,8.09,19.18,17.7,11.46,3.64,23.04.7,31.71-6.96-1.24,4.63-4.15,2.11-5.21,8.29-7.89,4.29-17.18,5.57-25.92,2.93-1.24-.38-2.38-1.3-3.78-1.12-2.25-9-7.69-15.89-18.09-16.71-2.18-.17-2.79,1.32-3.97,1.89-6.14,2.95-9.2,10.46-8.1,17.93.05.36,1.04.81,1.16.86.14.05.52.05,1.18.33.36,1.59.82,3.17.72,4.81,1.41,5.37,6.51,8.83,12.02,8.95-.14.39.1,1.04.53,1.05.68.02,1.21-.66,1.47-1.19.32.06.69-.08,1-.03l4.79.68c-.2,1.22-1.36,1.89-2.73,2.41-8.23,3.14-16.12-.77-20.88-8.34-10.8,16.29-24.39,24.59-43.2,25.55-25.37,1.29-36.97-14.87-38.85-15.16-1.14-2.53-3.2-4.57-4.75-7.34-8.95-15.93-8.27-31.7-1.2-47.57,1.03-.57,2.17-2.08,2.88-2.97-.33.99.97,1.46,1.81.87,1.6-1.11,2.47-2.7,4.11-3.07-.15,1.23-1.19,1.99-2.06,3.23-9.5,13.53-10.95,30.76-2.85,45.62,7.29,13.36,20.96,22.44,38.38,22.44,15.68,0,37.05-8.76,41.41-25.61,2.43-9.37-.51-21.71,10.29-27.65Z" fill="#6a3610"/><path d="M255.56,180.89c-.08.64-.04,1.28.11,1.91-2.07.64-1.64,5.44-13.97,12.15,1.06-6.19,3.97-3.66,5.21-8.29.2-.75,1.19-1.57,1.93-1.72,3.87-.82,2.11-4.11,6.72-4.04Z" fill="#6b3711"/><path d="M104.9,154.12c.21.58.6,1.09.9,1.62-1.03,1.29-1.99,3.52-3.91,3.97-1.64.38-2.51,1.96-4.11,3.07-.84.58-2.14.12-1.81-.87.95-1.63,1.74-3.45,2.91-5,2.46-.84,2.82-4.6,6.02-2.79Z" fill="#6b3711"/><path d="M187.75,169.43c2.32-.44,3.96,1.56,3.99,4.38,1.54.81,3.16,1.32,4.28,2.1-3.15-.36-6.2.32-8.96,1.84-.05-2.69-1.04-5.31-1.97-7.82l2.66-.5Z" fill="#f6eed7"/><path d="M187.86,167.99c.14-1.86-.49-3.92.6-5.57.61.62.82,6.87-.6,5.57Z" fill="#f6eed7"/><path d="M247.6,171.41c-5.35,4.34-12.87,4.96-18.52,1.38-14.8-9.36-16.81-33.55-5.24-41.84,5.16-3.7,11.44-3.87,16.89-.68,13.68,8.02,17.19,29.23,6.88,41.14ZM227.94,139.43c-1.86.1-3.64,1.03-4.71,2.7-1.88,2.92.77,5,.86,7.79.27,9.27,7.75,18.92,15.97,16.76,2.62-.69,5.24-2.75,6.53-6.21,3.1-8.33.46-18.26-7.27-22.9-3.96-2.38-9.73-2.13-11.37,1.86Z" fill="#3eb8a2"/><path d="M224.08,149.93c1.86.9,4.21,1.59,6.51.43,2.61-1.32,3.14-4.21,2.43-6.95-.53-2.02-2.5-4.07-5.08-3.97,1.65-3.99,7.41-4.24,11.37-1.86,7.73,4.64,10.37,14.57,7.27,22.9-1.29,3.46-3.91,5.53-6.53,6.21-8.22,2.16-15.7-7.5-15.97-16.76Z" fill="#1f6056"/><path d="M227.94,139.43c2.58-.1,4.55,1.96,5.08,3.97.71,2.73.19,5.63-2.43,6.95-2.3,1.16-4.65.48-6.51-.43-.08-2.8-2.73-4.87-.86-7.79,1.07-1.67,2.86-2.6,4.71-2.7Z" fill="#f4f5f5"/><path d="M172.76,183.21c0,13.54-10.98,24.51-24.51,24.51s-24.51-10.98-24.51-24.51,10.98-24.51,24.51-24.51,24.51,10.98,24.51,24.51ZM142.81,169.78c-2.21-.11-5,.13-6.65,2.26-2.45,3.16-1.41,7.22,1.67,9.92.77,5.33,3.34,10.65,8.74,13.2,5.75,2.72,12.91,1.22,16.81-3.76,4.11-5.25,4.3-12.11.86-17.91-4.45-7.51-15.47-9.76-21.44-3.71Z" fill="#3eb8a2"/><path d="M137.83,181.95c3.68,1.32,8.37.05,9.45-4.38.88-3.63-1.71-6.39-4.47-7.8,5.96-6.05,16.98-3.8,21.44,3.71,3.44,5.79,3.25,12.66-.86,17.91s-11.06,6.48-16.81,3.76c-5.4-2.55-7.97-7.87-8.74-13.2Z" fill="#1f6056"/><path d="M142.81,169.78c2.75,1.4,5.35,4.17,4.47,7.8-1.08,4.43-5.77,5.7-9.45,4.38-3.08-2.7-4.13-6.76-1.67-9.92,1.65-2.13,4.44-2.37,6.65-2.26Z" fill="#f4f5f5"/></svg>