<?xml version="1.0" encoding="UTF-8"?><svg id="Layer_1" xmlns="http://www.w3.org/2000/svg" viewBox="0 0 425.2 623.62"><path d="M171.94,73.57c-.08,1.05-1.41.52-2.08.58-.05-1.02,1.46-.71,2.08-.58Z" fill="#a89181"/><path d="M202.94,74.27l-1-.2c.29-.75.78-.37,1,.2Z" fill="#a89181"/><path d="M202.94,74.27l1.08.03c.1,1.24-.98,1.05-1.08-.03Z" fill="#70391a"/><path d="M79.94,139.22c.45,1.66-.5,2.92-1.75,4.36-9.47,10.9-19.53,27.91-21.52,41.69-1.38.69-2.23,9.58-2.31,11.18,2.97-3.21,4.23-6.32,6.27-9.37,14.8-22.25,38.92-36.94,64.47-40.96,3.77,3.71,12.33-2.47,17.11,3.86,3.79,5.02,8.7,4.51,13.83,4.14,1.54,1.15,4.25,1.46,5.92,2.36,3.36,3.25,7.16,6.11,10.93,8.84,1.09.86,1.45,2.37,3,2.93,10.03,12.94,15.17,22.03,17.91,39.24l.09,19.55-2.44,11.88c-.67,3.28-3.2,6.3-3.61,9.38-.51.5-.88,1.55-1.07,2.2-4.9,7.14-7.89,12.21-13.9,18.77-.39.11-.55.71-.88.87-3.34,1.58-5.6,4.77-9.15,6.81-1.59.92-3.24,1.63-3.89,3.05-.28-.02-.72-.01-1,.08-.45.15-1.44.34-1.08.99-.85-.09-1.26.78-1.88,1.03-12.41,4.92-24.72,8.42-39,6.91-17.14-1.8-22.76-6.52-26.04-6.99-.57-.08-1.16-1.3-2.07-.73-.85-1.88-3.02-2.66-4.91-3.18-.96-2.06-3.04-1.89-3.88-4.19.78-1.46.95-3.06,1.03-4.7,4.2.81,11.99,9.77,28.98,12.82,11.24,2.01,22.21,1.85,33.01-1.63,27.73-8.96,46.02-34.22,46.25-62.73.23-28.42-17.92-54.39-45.5-63.28-4.99-1.61-9.81-2.64-14.88-2.93-3.59-.2-6.95,1.3-10.36,2.19-19.72,5.11-37.51,16.23-49.45,32.85-4.91,6.83-9.67,13.97-12.83,21.92-2.1,5.29.12,11.77-.26,17.28,10.36,2.9,16.76,13.53,21.02,22.18,2.7,5.48,3.39,11.19,2.77,17.34-.16,1.57,1.31,2.8,1.26,4.01-1.31-.25-1.67-1.94-2.87-2.36-.32-1.43.25-3.84-1.11-5.13-1.21-1.15-3.38-1.46-4.77-1.6,5.15-3.26-5.22-18.27-8.03-22.24-1.05-1.48-2.74-1.87-3.61-2.84-5-5.51-8.27-3.31-14.08-.23-17.53,9.3-18.56,30.79-11.6,46.59-.53.37-.82.92-.79,1.37.2,2.35,4.93,1.81,6.4.67-1.02,1.87-1.67,4.19-3.57,5.85-4.73,4.15-14.5-16.92-10.86-36.07,2.38-12.52,11.49-21.91,23.59-26.2.59-25.06-2.33-30.55,2.91-56.22.5-2.46.68-4.97,2.05-6.65,3.23.1,1.53-8.49,6.97-8.07.77.06,1.78.33,2.14-.46.27-.6.15-1.3.23-1.75,2.15-1.97,7.52-11.8,9.84-12.6,4.01-1.39,4.24-4.42,7-2.09Z" fill="#6a3511"/><path d="M293.68,104.28c-1.62,1.55,1.43-4.33.01-5.85-.42-.46-1.48-.06-1.86-.07-.31-.83.14-2.21.15-3.1.03-1.86,1.39-3.45.63-6.14-3.72,2.41-6.93,4.36-10.43,6.02-.33-3.24-1.81-6.26-4.07-8.6.49-2.97,6.21-7.4,6.06-10.19,1.66-.65,1.88-2.75,2.93-4.09.18-.23-.02-.72.09-1,4.88-4.57,9.56-35.47,3.29-36.33-3.9-.54-19.83,36.53-68.66,53.23-9.56,3.27-18.94,5.16-29.01,6.82l-40.49,6.68c-25.99,4.29-52.01,17.65-69.85,37.09-.63.69-2.04.62-2.55.47-2.76-2.33-2.99.7-7,2.09.65-2.71,5.76-5.8,6.11-8.86,1.5-.05,2.36-1.3,3.64-2.51,13.64-12.9,29.54-22.27,47.42-28.39,12.1-4.14,24.19-6.23,36.86-8.28l29.94-4.84c.97-.16,1.62-.63,2.1-1.03,4.99.31,15.05-2.77,20.07-4.74-8.51-1.97-16.29-2.68-24.17-3.47.16-.75.63-2.93-.27-3.6-7.25-.91-14.23,0-21.76-.4-1.07-.06-1.18,1.1-.96,1.56.73,1.55,22.98-1.1,20.1,2.53l-10.02-.24c-1.98-.05-3.24.12-5.09.22-41.89,2.37-83.31,19.29-105.75,56.52-.28.46-2.11-.05-2.31-.52-.17-.41-1.22-1.43-1.55-.79-3.36,6.62-4.12,4.5-6.54,12.9,1.21.89,2.3.86,3.32,1.01-.32,1.77-.71,3.9-1.74,5.51-.83.43-2.25,1.08-1.62,2.21-5.44-.42-3.74,8.18-6.97,8.07,2.06-14.98,13.09-34.76,23.47-46.59,11.46-13.07,24.81-22.98,40.67-30.15,16.68-7.55,34.18-11.81,51.96-13.3.68-.06,2,.47,2.08-.58-.49-.11,26.67-.46,30,.49l1,.2c.1,1.08,1.18,1.27,1.08.03,8.36.2,16.49,2.51,25,5.05,20.91-9.35,38.45-23.85,51.35-42.69,1.26-1.84,2.73-3.23,4.12-4.91,2.65-3.19,7.81-3.83,10.77-.76,2.23,2.31,3.52,5.59,3.92,8.82,1.58,12.82-1.36,25.21-7.47,36.43-1.88,3.46-4.27,5.92-6,10.04,2.92-.97,4.26-3.05,7.23-3.25,3.4-.23,5.59,1.87,5.92,5.27.59,6.09-2.01,11.4-5.17,15.99ZM145.87,81.19c-.46-1.74-3.11-1.23-3.03.1.09,1.61,3.45,1.49,3.03-.1Z" fill="#67340d"/><path d="M324.7,246.27c.19,4.93-1.9,9.94-4.6,14-.46.08-1.41-.32-2,.22-.64,1.12.07,2.03,1.14,1.86-.14,8.23-8.34,11.13-7.38,16.91-.27.32-.46.71-.81.97-1.92-.39-2.21,1.56-3.18,3.02-1.54,2.32-4.39,3.63-5.48,6.24-.2,1.42,1.07,3.22.52,4.61-5.6,2.09-15.78,8.05-17.61,14.47-1.1,3.89-2.3,8-.2,11.38-.23.6-.15,1.7-.93,2.28-.46.34-1.35.24-2.04.03-.02-.29-.18-.58-.22-.87.64-4.57-2.19-2.43-4.18-5.37l.06-.76c.57-.02,1.86.08,2.22-.89.71-1.91,1.09-3.6.75-5.94-3.02,1.34-5.77,2.76-7.64,5.12-2.74-.22-5.43-1.33-7.16-3.5,1.44-1.73,3.86-2.18,6.06-3.49,6.1-3.61,12.11-7.09,17.6-11.63,16.51-13.65,26.77-29.94,31.93-50.81.27-1.08.64-1.76,1.37-1.96.93,1.06,1.43,2.8,1.78,4.1Z" fill="#71340c"/><path d="M297.24,119.74c-.12,1.53.57,3.02,2.07,4.15,2.78,3.96,5.3,7.79,8.56,11.39,1.86,4.68,4.97,7.69,6.17,13.01-1.81-.59-3.27-2.05-5.22-2.13v-.85c0-.55-.54-.75-.88-1.06-1.11-1.01-2.01-2.36-2.16-3.89-.11-1.14.69-2.55-.15-3.92-.48-.6-1.66.31-1.87.74-2.2-1.74-3.23-4.53-4.6-6.93.39-.21,1.06-.98.47-1.58-.91-.91-2-.98-2.74-1.47-2.57-1.67-4.13-4.47-5.98-6.87.63-3.11-2.92-3.56-1.36-7.1h1.52c2.92,1.07,4.08,4.59,6.18,6.48Z" fill="#6a3511"/><path d="M330.83,204.4c-.48.34-1.05.21-1.37-.13-.36-.39-.75-1.09-.63-1.93.72-5.17-1.34-13.98-2.67-19.3-.98-3.92-.97-8.05-3.35-10.95-.01-.57.37-1.27.19-1.83-1.07-3.43-2.08-6.92-3.95-10.01-.32-.53-.09-1.67-.87-1.99-.23-2.85-1.11-6.39-3.59-8.08.13-.7.1-1.5-.56-1.9-1.2-5.32-4.31-8.32-6.17-13.01-3.26-3.59-5.78-7.42-8.56-11.39-1.5-1.13-2.19-2.62-2.07-4.15,3.98,3.58,7.19,7.96,10.15,12.98,3.5,5.95,7.44,11.47,10.11,17.84s5.41,12.25,7.1,18.85l3.27,12.74c1.09,4.24,3.52,19.83,2.97,22.25Z" fill="#683519"/><path d="M311.86,279.26c-.96-5.77,7.24-8.67,7.38-16.91.68-.42.64-1.47.86-2.08,2.7-4.06,4.78-9.07,4.6-14,2.16.51,4.21-18.75,3.95-19.3s.18-1.43.14-2.03c-.37-6.56,1.65-2.96.9-12.92-.07-.95-.03-1.94.13-2.88.08-.47.5-1.32,1.07-.95l-.09,20.07c0,1.97-.74,3.92-.98,6-1.6,13.99-9.51,34.83-17.96,45Z" fill="#683519"/><path d="M330.83,204.4c-.27,1.17.06,2.59.06,3.79-.57-.37-.99.48-1.07.95-5.07-7.06-3.16-13.28-4.58-19.52-.48-2.12-2.05-3.73-1.44-6.47.24-1.08-1.5-1.08-1.99-.89-.15-.62-.06-1.32.04-1.93,4,.22-2.75-5.46.98-8.24,2.39,2.9,2.37,7.03,3.35,10.95,1.33,5.32,3.38,14.14,2.67,19.3-.12.84.27,1.54.63,1.93.32.35.88.47,1.37.13Z" fill="#6a3511"/><path d="M293.68,104.28c-.18.26-3.57,5.8-3.68,6.95-.04.38-.25.74-.33,1.11-3.77,1.29,4.35-11.47,2.16-13.98.38,0,1.44-.39,1.86.07,1.42,1.52-1.63,7.4-.01,5.85Z" fill="#6a3511"/><path d="M291.06,113.26h-1.52c.12-.26.06-.62.13-.91.08-.37.29-.73.33-1.11.8.33.94,1.32,1.07,2.02Z" fill="#683519"/><path d="M308.84,147.35c0,.29.14.58.13.87-.13,3.15,1.51,6.06,3.06,9.13,3.16,6.25,4.18,12.88,6.26,19.1-.97,24.48-7.96,50.14-21.87,71.13-9.39,14.16-26.52,30.52-41.65,38.41l-9.79,5.11c-39.32,20.52-109.21,25.39-150.46,7.79-6.59-2.81-21.36-8.49-24.61-13.69,6.4-7.87,6.5-13.55,9.17-11.24.84,2.29,2.92,2.13,3.88,4.19.82,1.76,2.9,4.42,4.91,3.18.91-.57,1.5.65,2.07.73-.11.48-.07,1.04.11,1.58.21.63,14.03,5.25,16.59,4.81,2.13,1.66,4.59,2.39,7.36,1.52,4.19,2.88,24.5.08,27.65-1.15,1.24-.49,16.64-5.42,13.33-6.69.62-.25,1.03-1.12,1.88-1.03.54.06,1.02-.51,1.08-.99.28-.1.72-.1,1-.08,1.28.5,2.37-.05,3.68-1.03l6.88-5.14c1.36-1.01,2.48-2.19,2.47-3.69.34-.16.5-.77.88-.87,2.8-.77,17.72-18.37,13.9-18.77.19-.65.56-1.71,1.07-2.2.47.09,1,.03,1.47-.16,1.04-.43,7.36-20.66,6.72-25.87-.58-4.66.59-9.29-.37-13.8l-2.36-11.02c-1.93-8.98-6.33-16.56-11.65-23.84-1.65-2.25-3.34-4.49-5.75-5.36-1.55-.56-1.91-2.07-3-2.93-.76-3.93-6.83-6.13-6.12-8.99,1.89-.36,3.85-.68,6.24-.7l37.95-.34c19.38-.17,36.8-3.36,54.01-11.91,9.88-4.91,16.81-12.75,23.04-21.26,2.17-.75,6.23,4.56,7.24,6.86,4.46,1.69,9.48,17.74,13.61,18.38Z" fill="#f3c13d"/><path d="M80.11,269.25c.06-1.21-1.42-2.44-1.26-4.01.62-6.14-.08-11.86-2.77-17.34-4.26-8.66-10.66-19.29-21.02-22.18.38-5.5-1.84-11.99.26-17.28,3.16-7.96,7.92-15.09,12.83-21.92,11.94-16.62,29.73-27.73,49.45-32.85,3.41-.88,6.77-2.39,10.36-2.19,5.07.29,9.89,1.32,14.88,2.93,27.59,8.88,45.73,34.86,45.5,63.28-.23,28.52-18.52,53.78-46.25,62.73-10.8,3.49-21.77,3.65-33.01,1.63-16.99-3.04-24.77-12.01-28.98-12.82ZM115.31,252.64c8.26-2.84,13.9-8.93,17.5-16.82,6.98-15.28,4.93-33.43-6.08-46.23-6.02-7-14.78-10.15-23.89-8.14-16.84,3.73-25.58,24.87-23.25,42.01,2.56,18.79,17.79,35.34,35.71,29.18Z" fill="#fbfcfa"/><path d="M287.19,71.27c-.66-1.59-.32-3.18,1.2-4.57.65-.6,5.57-20.27,2.78-23.69-11.85,9.26-8.48,13.23-22.91,25.61l-7.53,6.47c-14.75,12.66-34.04,20.99-53.15,24.72-.17.03-15.32,3.16-13.98,3.07-10.73.75-55.26,8.77-65.14,12.76l-7.94,3.21c-3.15,1.27-6.45,2.74-9.33,4.51l-13.71,8.44-7.8,6.19c-2.46,1.95-11.86,11.87-14.41,14.8-4.69,5.38-8.73,10.72-11.4,17.53-.53,1.36-1.36,3.09-.05,3.95-.17,1.38-1.28,2.28-2.28,3.54-2.78,3.51-3.24,7.34-4.86,7.47,1.99-13.78,12.05-30.79,21.52-41.69,1.25-1.44,2.2-2.69,1.75-4.36.51.15,1.92.22,2.55-.47,17.83-19.44,43.85-32.81,69.85-37.09l40.49-6.68c10.07-1.66,19.45-3.55,29.01-6.82,48.82-16.69,64.76-53.76,68.66-53.23,6.27.86,1.59,31.76-3.29,36.33Z" fill="#f8d47d"/><path d="M288.22,118.44c-.05,1.13.16,2.6-.23,3.67-6.23,8.52-13.16,16.35-23.04,21.26-17.21,8.55-34.62,11.74-54.01,11.91l-37.95.34c-2.38.02-4.35.35-6.24.7-1.53.29-3.28-.5-4.81.15-1.67-.9-4.38-1.2-5.92-2.36-2.88-2.15-6.15-3.69-10-5.21-1.27.47-2.57.42-1.58-.83,23.28-3.66,46.23-2.01,68.09-4.29,19.89-2.07,43.79-7.16,59.57-18.74,1.91-1.4,4.32-2.15,6.61-4.02l5.04-4.12c.6-.49,1.08-.86.33-1.32,1.87-.03,3.44,1.13,4.14,2.85Z" fill="#d89633"/><path d="M192.02,79.3c.91.02,1.95-.2,2.88-.1,7.88.79,15.66,1.51,24.17,3.47-5.02,1.97-15.08,5.05-20.07,4.74.24-.49.21-1.11-.11-1.38-.4-.34-1.07-.89-1.97-.87l-22.93.52-13.79,1.92c-23.68,3.3-46.74,12.52-65.19,27.67l-4.98,4.09-9.78,9.12c-.83.77-2.44.78-2.21,2.27.09.62.05,1.51,1,1.69-.35,3.06-5.46,6.14-6.11,8.86-2.32.8-7.69,10.63-9.84,12.6-.22-.52-.43-.29-.76,0,1.03-1.61,1.42-3.75,1.74-5.51.93-.27,6.07-11.21,6.01-11.55-.11-.57-.79-1.08-1.24-1.57.2.47,2.03.99,2.31.52,22.44-37.24,63.86-54.15,105.75-56.52,1.85-.1,3.11-.27,5.09-.22l10.02.24Z" fill="#f8d47d"/><path d="M269.09,121.33c1.8.36,3.25,1.82,3.02,3.72-15.78,11.59-39.69,16.68-59.57,18.74-21.86,2.27-44.81.63-68.09,4.29-.99,1.25.31,1.3,1.58.83,3.86,1.52,7.12,3.06,10,5.21-5.12.37-10.04.88-13.83-4.14-4.78-6.33-13.34-.14-17.11-3.86,1.59-1,3.66-1.35,5.99-1.77,19.23-3.49,38.23-4.6,57.83-5.11,24.58-.64,45.37-2.55,67.96-11.98,5.08-2.12,8.8-5.22,12.22-5.93Z" fill="#713206"/><path d="M187.84,248.31c.41-3.08,2.94-6.1,3.61-9.38l2.44-11.88-.09-19.55c-2.74-17.21-7.88-26.31-17.91-39.24,2.41.87,4.1,3.11,5.75,5.36,5.32,7.28,9.73,14.86,11.65,23.84l2.36,11.02c.97,4.51-.2,9.14.37,13.8.64,5.21-5.67,25.44-6.72,25.87-.47.19-1,.25-1.47.16Z" fill="#f0bc56"/><path d="M154.97,282.12c3.31,1.27-12.09,6.2-13.33,6.69-3.15,1.23-23.45,4.03-27.65,1.15-2.76.87-5.22.14-7.36-1.52-2.57.44-16.38-4.18-16.59-4.81-.19-.55-.22-1.11-.11-1.58,3.28.47,8.9,5.18,26.04,6.99,14.28,1.5,26.59-2,39-6.91Z" fill="#f0bc56"/><path d="M166.76,156.32c-.71,2.86,5.36,5.06,6.12,8.99-3.77-2.73-7.58-5.6-10.93-8.84,1.53-.65,3.27.14,4.81-.15Z" fill="#f0bc56"/><path d="M158.94,280.02c.66-1.42,2.3-2.13,3.89-3.05,3.55-2.04,5.8-5.24,9.15-6.81,0,1.5-1.12,2.67-2.47,3.69l-6.88,5.14c-1.32.98-2.4,1.54-3.68,1.03Z" fill="#f0bc56"/><path d="M87.87,281.32c-2.01,1.24-4.09-1.41-4.91-3.18,1.89.52,4.06,1.3,4.91,3.18Z" fill="#f0bc56"/><path d="M172.86,269.28c6.01-6.56,9-11.63,13.9-18.77,3.82.4-11.1,18-13.9,18.77Z" fill="#f0bc56"/><path d="M63.1,153.91c-.08.45.04,1.15-.23,1.75-.36.8-1.37.52-2.14.46-.64-1.13.79-1.78,1.62-2.21.33-.29.54-.53.76,0Z" fill="#a89181"/><path d="M290.04,99.1c-1.68,6.15-6.62,8.79-9.02,13.15-3.34,1.93-8.86,6.49-11.92,9.09-3.42.7-7.14,3.81-12.22,5.93-22.59,9.42-43.38,11.34-67.96,11.98-19.61.51-38.6,1.62-57.83,5.11-2.33.42-4.4.77-5.99,1.77-25.55,4.02-49.67,18.71-64.47,40.96-2.03,3.06-3.3,6.17-6.27,9.37.07-1.6.93-10.5,2.31-11.18,1.62-.13,2.08-3.96,4.86-7.47,1-1.26,2.1-2.16,2.28-3.54,1.99-1.53,3.07-3.98,4.94-6.13,51.42-59.31,137.66-22.75,199.12-52.74,4.2-2.05,8.63-4.13,11.83-7.39l5.92-6.03c1.36-1.39,2.32-3.51,4.42-2.86Z" fill="#d89633"/><path d="M156.85,281.1c-.36-.66.64-.84,1.08-.99-.07.49-.54,1.05-1.08.99Z" fill="#f0bc56"/><path d="M287.19,71.27c-.1.28.09.77-.09,1-2.07.6-3.04,2.07-2.93,4.09.15,2.78-5.57,7.21-6.06,10.19-6.05,4.87-5.68,5.98-13.31,11.55-1.04.76-1.55,2.25-1.21,3.14.23.6.69,1.56,1.42,1.88-.32,1.14.58,1.22,1.44,1.22s1.71-.1,1.5-1.2c.33,0,.68.01,1-.06,1.82-.42,4.43-.19,6.13-1.63,4.76-4.03,7.8-3.16,13.05-7.96.76-.7,2.21-.27,2.58.34.2.33.17.95.2,1.43.11,1.37-.51,2.57-.86,3.84-2.09-.66-3.06,1.47-4.42,2.86l-5.92,6.03c-3.2,3.26-7.63,5.34-11.83,7.39-61.46,30-147.69-6.57-199.12,52.74-1.87,2.15-2.96,4.6-4.94,6.13-1.31-.86-.48-2.59.05-3.95,2.67-6.81,6.7-12.16,11.4-17.53,2.55-2.92,11.95-12.85,14.41-14.8l7.8-6.19,13.71-8.44c2.88-1.78,6.18-3.24,9.33-4.51l7.94-3.21c9.88-3.99,54.4-12,65.14-12.76-1.34.09,13.81-3.03,13.98-3.07,19.11-3.73,38.4-12.06,53.15-24.72l7.53-6.47c14.43-12.38,11.06-16.36,22.91-25.61,2.8,3.42-2.13,23.09-2.78,23.69-1.52,1.39-1.86,2.98-1.2,4.57Z" fill="#f5c141"/><path d="M199.01,87.41c-.48.4-1.12.87-2.1,1.03l-29.94,4.84c-12.67,2.05-24.76,4.14-36.86,8.28-17.88,6.11-33.78,15.48-47.42,28.39-1.28,1.21-2.13,2.46-3.64,2.51-.95-.18-.91-1.07-1-1.69-.23-1.5,1.38-1.5,2.21-2.27l9.78-9.12,4.98-4.09c18.44-15.15,41.5-24.37,65.19-27.67l13.79-1.92,22.93-.52c.9-.02,1.57.53,1.97.87.32.27.35.9.11,1.38Z" fill="#f0bc56"/><path d="M282.18,95.14c-2.37,1.12-4.33,4.01-7.37,5.02-2.25.75-4.47,1.42-5.87,2.9-.32.07-.67.07-1,.06-.91-.01-2.06.37-2.94-.02-.72-.32-1.19-1.28-1.42-1.88-.34-.89.17-2.38,1.21-3.14,7.63-5.57,7.26-6.67,13.31-11.55,2.26,2.33,3.74,5.36,4.07,8.6Z" fill="#713206"/><path d="M291.83,98.37c2.18,2.51-5.93,15.27-2.16,13.98-.06.29,0,.65-.13.92-1.56,3.54,2,3.99,1.36,7.1-.65-.84-1.9-1.23-2.69-1.92-.7-1.72-2.26-2.88-4.14-2.85l-3.07-3.35c2.4-4.36,7.34-7,9.02-13.15.35-1.27.97-2.48.86-3.84h1.09c-.01.91-.46,2.28-.15,3.11Z" fill="#713206"/><path d="M68.85,135.28c.44.48,1.13,1,1.24,1.57.06.35-5.08,11.28-6.01,11.55-1.02-.15-2.11-.12-3.32-1.01,2.43-8.4,3.18-6.27,6.54-12.9.33-.64,1.38.38,1.55.79Z" fill="#6a3511"/><path d="M194.91,79.2c-.93-.09-1.97.12-2.88.1,2.88-3.63-19.38-.98-20.1-2.53-.22-.46-.11-1.62.96-1.56,7.52.39,14.51-.52,21.76.4.89.67.43,2.85.27,3.6Z" fill="#6a3511"/><path d="M291.99,95.26h-1.09c-.03-.5,0-1.11-.2-1.44-.37-.62-1.82-1.04-2.58-.34-5.25,4.8-8.29,3.92-13.05,7.96-1.7,1.44-4.31,1.2-6.13,1.63,1.41-1.48,3.62-2.15,5.87-2.9,3.04-1.01,5-3.9,7.37-5.02,3.51-1.66,6.72-3.61,10.43-6.02.77,2.7-.6,4.28-.63,6.14Z" fill="#f0bc56"/><path d="M145.87,81.19c.42,1.59-2.94,1.71-3.03.1-.07-1.32,2.57-1.83,3.03-.1Z" fill="#6a3511"/><path d="M284.17,76.36c-.11-2.02.86-3.49,2.93-4.09-1.05,1.34-1.27,3.43-2.93,4.09Z" fill="#f8d47d"/><path d="M102.04,315.3c-1.84,1.19-3.66,2.61-5.95,2.29-.94-2.04-3.51-1.86-5.45-3.02-2.07-1.25-3.57-3.05-5.91-3.97-1.61-.64-2.51-2.02-2.78-3.33.3-.97.64-1.94,1.06-2.86,1.29.23,2.37,1.23,3.78,2.05l15.25,8.85Z" fill="#71340c"/><path d="M102.04,315.3c.94-.06,1.95.62,2.8.87.22,1.39,1.14,2.62,1.12,4.05-9.58-2.3-7.87,4.15-10.54,2.09-1.51-1.17,1.21-3.08.67-4.71,2.28.32,4.11-1.1,5.95-2.29Z" fill="#6a3511"/><path d="M321.84,180.33c-.1.61-.18,1.32-.04,1.93.96,4.06,1.1,8.43,2.42,12.86.73,2.46.35,4.62.56,7.12,1.08,13.13.2,25.63-2.08,38.02-.1.53.11,1.4.22,1.9-.73.2-1.11.88-1.37,1.96-5.17,20.87-15.42,37.16-31.93,50.81-5.49,4.54-11.5,8.02-17.6,11.63-2.2,1.3-4.62,1.76-6.06,3.49l-4.02.51c-28.35-6.51-67.64-6.43-92.21,12.58-1.25.97-2.99,2.41-4.79,2.44-12.89.22-25.26-.99-37.89-3.25-7.91-1.42-14.99-4.06-22.21-6.18-.86-.25-1.87-.93-2.8-.87l-15.25-8.85c-1.41-.82-2.49-1.81-3.78-2.05-1.4-2.61-3.96-4.14-6.37-5.75-.9-3.3-8.47-8.45-7.8-12.72.07-.42.8-.4,1.07-.74,3.25,5.2,18.02,10.88,24.61,13.69,41.25,17.6,111.14,12.73,150.46-7.79l9.79-5.11c15.13-7.9,32.26-24.25,41.65-38.41,13.91-20.99,20.91-46.65,21.87-71.13l1.06-.13,2.49,4.02Z" fill="#d89633"/><path d="M328.65,226.97c.26.55-1.79,19.81-3.95,19.3-.34-1.3-.85-3.04-1.78-4.1-.11-.5-.32-1.37-.22-1.9.65-.2,2.51-.23,2.64-1.38l1.2-10.26c.12-1.06,1.33-2.26,2.11-1.66Z" fill="#6a3511"/><path d="M320.1,260.27c-.22.61-.18,1.66-.86,2.08-1.07.18-1.78-.74-1.14-1.86.59-.54,1.54-.14,2-.22Z" fill="#6a3511"/><path d="M314.04,148.28c.66.39.69,1.2.56,1.9-1.8-.27,2.01,10.54,3.59,8.08.78.32.55,1.46.87,1.99-1.16.67-1.23,2.22-2.16,3.07-1.33.4-6.17-15.21-7.93-15.11.01-.29-.13-.58-.13-.87l-.02-1.19c1.95.07,3.4,1.54,5.22,2.13Z" fill="#71340c"/><path d="M290.91,120.36c1.84,2.4,3.41,5.2,5.98,6.87.38,1.26,1.09,2.42,2.28,3.04,1.37,2.4,2.4,5.19,4.6,6.93.72,1.02.77,2.65,2.02,3.18.15,1.52,1.05,2.88,2.16,3.89-.05.58-.04,1.58.88,1.06v.85s.01,1.19.01,1.19c-4.13-.64-9.14-16.69-13.61-18.38-1.02-2.29-5.08-7.61-7.24-6.86.4-1.07.19-2.54.23-3.67.78.68,2.04,1.08,2.69,1.92Z" fill="#f0bc56"/><path d="M305.79,140.37c-1.25-.52-1.29-2.16-2.02-3.18.2-.44,1.38-1.34,1.87-.74.84,1.37.04,2.78.15,3.92Z" fill="#71340c"/><path d="M299.17,130.27c-1.19-.62-1.9-1.79-2.28-3.04.75.48,1.84.55,2.74,1.47.6.6-.07,1.37-.47,1.58Z" fill="#713206"/><path d="M308.83,145.31c-.92.52-.93-.47-.88-1.06.34.31.88.5.88,1.06Z" fill="#71340c"/><path d="M323.01,170.26c.18.56-.21,1.27-.19,1.83-3.73,2.78,3.02,8.46-.98,8.24l-2.49-4.02c-.55-3.75-1.12-7.5-2.54-11.03,4.78,1.08,1.16,6.17,6.2,4.98Z" fill="#71340c"/><path d="M323.01,170.26c-5.04,1.19-1.42-3.9-6.2-4.98-.19-.48-.02-1.49.09-1.96.93-.85,1-2.4,2.16-3.07,1.86,3.09,2.88,6.57,3.95,10.01Z" fill="#6a3511"/><path d="M318.2,158.26c-1.58,2.46-5.39-8.35-3.59-8.08,2.49,1.69,3.37,5.23,3.59,8.08Z" fill="#6a3511"/><path d="M329.82,209.14c-.16.94-.21,1.93-.13,2.88-2.88-1.16-2.09,10.78-2.66,13.13l1.76-.21c.03.6-.4,1.49-.14,2.03-.78-.6-1.98.6-2.11,1.66l-1.2,10.26c-.13,1.14-1.99,1.17-2.64,1.38,2.28-12.39,3.16-24.89,2.08-38.02-.21-2.51.17-4.66-.56-7.12-1.31-4.43-1.46-8.8-2.42-12.86.5-.2,2.23-.19,1.99.89-.61,2.73.95,4.35,1.44,6.47,1.42,6.24-.49,12.46,4.58,19.52Z" fill="#71340c"/><path d="M329.68,212.02c.75,9.96-1.26,6.35-.9,12.92l-1.76.21c.57-2.36-.23-14.3,2.66-13.13Z" fill="#6a3511"/><path d="M83.01,304.4c-.42.93-.75,1.89-1.06,2.86-3.13-1.91-6.27-3.81-8.13-7.04,1.1-.01,3.15-.02,2.82-1.57,2.4,1.61,4.97,3.14,6.37,5.75Z" fill="#6a3511"/><path d="M316.9,163.32c-.11.47-.28,1.48-.09,1.96,1.42,3.53,1.99,7.28,2.54,11.03l-1.06.13c-2.08-6.22-3.1-12.85-6.26-19.1-1.55-3.07-3.19-5.97-3.06-9.13,1.76-.1,6.6,15.5,7.93,15.11Z" fill="#f0bc56"/><path d="M284.09,115.59c.76.46.27.83-.33,1.32l-5.04,4.12c-2.29,1.87-4.7,2.62-6.61,4.02.23-1.89-1.22-3.36-3.02-3.72,3.06-2.6,8.58-7.16,11.92-9.09l3.07,3.35Z" fill="#67340d"/><path d="M77.24,266.89c.35.35-7.72,12.92-8.35,10.33,1.55-3.61,3.51-6.97,3.72-10.92-8.6,7.64-24.2,4.13-28.96,12.39,4.37,2.74,8.27,4.07,12.29,4.76,1.02-.23-6.78,1.79-6.03,1.45-.33.15-.91.47-.28,1.05-1.99-.64-4.26-.42-6.41-2.09-.69-.54-1.7-.55-2.28-.59-.37-.02-.99.06-1.3.22-1.47,1.14-6.2,1.68-6.4-.67-.04-.46.26-1.01.79-1.37,1.15-.28,1.01-1.84.81-2.03.19-.09.54-.15.86-.41,2.83-3.69,5.68-7.05,9.24-9.49.28.09.7-.06,1-.08.5-.04,1.04-.37,1-.91.3.02.72.01,1-.08,2.73-.93,6.83-1.36,6-1.85.3.09.7-.23,1-.12,1.41.53,2.81-.8,4-.86,2.72-.14,5.36-.65,8.03-2.47l4.38-2.98c1.39.14,3.56.45,4.77,1.6,1.36,1.29.8,3.71,1.11,5.13Z" fill="#713206"/><path d="M59.7,235.09c.87.96,2.57,1.36,3.61,2.84,2.81,3.97,13.18,18.98,8.03,22.24l-4.38,2.98c-2.67,1.81-5.31,2.33-8.03,2.47-1.31-.38-3.81-1.08-4,.86-.3-.11-.7.2-1,.12-2.16-.63-5-.38-6,1.85-.28.1-.7.1-1,.08-.62-.03-1.06.22-1,.91-.3.02-.72.17-1,.08-3.41-1.11-7.68,8.32-11.08,6.84-.23-7.62-1.05-16.61,2.63-24.37,4.44-9.37,13.01-16.99,23.22-16.9Z" fill="#f68c2f"/><path d="M59.7,235.09c-10.2-.1-18.77,7.52-23.22,16.9-3.68,7.76-2.85,16.74-2.63,24.37-.25,1.15.17,2.24.98,3.06.2.2.34,1.75-.81,2.03-6.96-15.8-5.93-37.3,11.6-46.59,5.8-3.08,9.07-5.27,14.08.23Z" fill="#f0bc56"/><path d="M80.11,269.25c-.07,1.63-.25,3.23-1.03,4.7-2.67-2.31-2.77,3.37-9.17,11.24-.27.34-1,.32-1.07.74-.67,4.27,6.9,9.43,7.8,12.72.33,1.55-1.72,1.56-2.82,1.57-2.7-.77-3.64-3.21-5.18-5.63s-3.83-4.26-4.78-7.23c-8.56-.16-7.19.87-14.24-1.41-.62-.58-.04-.9.28-1.05-.76.34,7.04-1.67,6.03-1.45,1.55-.34,3.42.63,5,.01.14,1.15.85.69,1-.27,4.45-1.55,4.13-3.63,6.95-5.96.62,2.58,8.7-9.98,8.35-10.33,1.2.42,1.57,2.11,2.87,2.36Z" fill="#71340c"/><path d="M68.89,277.22c-2.82,2.33-2.5,4.41-6.95,5.96-.33.11-.68.15-1,.27-1.58.62-3.45-.35-5-.01-4.02-.69-7.92-2.01-12.29-4.76,4.76-8.26,20.35-4.75,28.96-12.39-.21,3.95-2.16,7.31-3.72,10.92Z" fill="#f68c2f"/><path d="M44.94,269.51c-3.57,2.44-6.42,5.8-9.24,9.49-.32.27-.67.32-.86.41-.81-.82-1.23-1.91-.98-3.06,3.39,1.48,7.67-7.95,11.08-6.84Z" fill="#d89633"/><path d="M53.94,266.58c.83.5-3.27.92-6,1.85,1-2.23,3.84-2.48,6-1.85Z" fill="#d89633"/><path d="M58.94,265.6c-1.19.06-2.59,1.38-4,.86.19-1.94,2.69-1.24,4-.86Z" fill="#d89633"/><path d="M45.94,269.43c-.06-.7.38-.95,1-.91.04.55-.5.87-1,.91Z" fill="#d89633"/><path d="M60.94,283.46c.32-.12.67-.17,1-.27-.15.96-.86,1.42-1,.27Z" fill="#713206"/><path d="M267.94,103.12c.21,1.1-.62,1.2-1.5,1.2s-1.75-.08-1.44-1.22c.88.39,2.02,0,2.94.02Z" fill="#f0bc56"/><path d="M261.94,310.57l-2.17,1.7c-.83.76-1.67.73-3.18.52l-14.73-2.04c-3.83-.53-7.76.25-11.45-.78-3.15-.88-5.79-.19-8.86.05-9.54.75-13.77,1.33-23.03,3.9l-11.8,3.28c-5.12,1.42-14.46,8.48-18.86,12.09l-5.49,4.5c-1.77,1.45-3.81,2.98-5.27,4.74-2.5,3-2.93,8.04-6.38,10.45-2.81,1.96-4.31,8.62-5.01,12.34l-2.03,10.82c-2.22,11.85.43,26.6,4.09,38.19.87,2.75.29,5.22,3.08,7.27-.66-.49,6.52,9.78,5.15,9.42-1.28-.34-3.01.46-4.04-.81-2.56-3.23-4.3-6.55-6.12-10.82-10.47-24.48-8.21-51.44,5.06-73.98,1.87-1.58,6.13-6.74,8.54-9.86-8.92-.78-17.73-.72-26.33-2.2-6.47-1.11-13.17-2.26-19.12-4.85-.09-.59.11-1.22-.05-1.72-.17-.53-.9-.77-1.47-.51-.63.3-1.09,1.25-.56,1.88-2.08-.25-3.94-1.31-5.96-1.81l.02-2.13c.02-1.43-.9-2.65-1.12-4.05,7.22,2.11,14.3,4.76,22.21,6.18,12.62,2.26,25,3.47,37.89,3.25,1.8-.03,3.54-1.48,4.79-2.44,24.57-19.01,63.86-19.09,92.21-12.58Z" fill="#71340c"/><path d="M113.98,324.49c-.71-.02-1.38-.25-2.08-.34-.53-.63-.07-1.58.56-1.88.57-.27,1.29-.02,1.47.51.16.49-.04,1.13.05,1.72Z" fill="#6a3511"/><path d="M115.31,252.64c-17.93,6.16-33.16-10.39-35.71-29.18-2.33-17.14,6.41-38.28,23.25-42.01,9.11-2.02,17.87,1.14,23.89,8.14,11.01,12.8,13.06,30.96,6.08,46.23-3.61,7.89-9.25,13.98-17.5,16.82ZM94.87,196.01c-3.09-.24-6.04,1.73-7.03,5.11-.73,2.49-.69,5.01-.04,7.18-.4.08-1.2.4-1.34,1.27-1.71,10.38-.55,20.28,6.85,28.22,4.29,4.6,10.85,6.4,16.64,3.7,15.04-7,16.81-32.72,4.81-45.03-7.35-5.04-12.99-5.81-19.89-.43Z" fill="#35bfa2"/><path d="M87.8,208.3c.76,2.54,3,5.45,6.07,5.47,4.16.04,6.52-3.66,6.82-7.51.37-4.73-1.87-8.67-5.83-10.25,6.9-5.38,12.54-4.61,19.89.43,12,12.31,10.23,38.03-4.81,45.03-5.79,2.7-12.35.9-16.64-3.7-7.4-7.93-8.57-17.84-6.85-28.22.14-.86.94-1.19,1.34-1.27Z" fill="#1b5b53"/><path d="M94.87,196.01c3.96,1.58,6.19,5.52,5.83,10.25-.3,3.85-2.66,7.54-6.82,7.51-3.07-.03-5.31-2.93-6.07-5.47-.65-2.16-.69-4.69.04-7.18.99-3.38,3.94-5.35,7.03-5.11Z" fill="#f8f5f0"/><path d="M371.7,535.8c-.23-2.51-1.59-5.22-4.15-7.07-9.12-6.57-17.47-13.59-25.72-21.24l-12.53-11.63c-1.16-1.08-2.1-2.13-3.3-2.58-1.44-.54-2.51-1.68-3.01-3.13-.11-.33-.54-.77-.8-.96-2.59-1.87-.98,1.13-.26-5.06-2.03-1.63-10.57-2.05-13.99-4.76-2.11-1.67-3.33-4.12-5.69-4.91.72,2,.6,4.09,3.2,5.63.43.25.52,1.05.37,1.31-.19.32-.54.56-.86.76.17,1.08,1.36,1.54,2.06,2.12,2.36.35,4.43,1.63,6.3,3.64,8.46,9.09,16.9,17.57,26.46,25.52l25.11,20.87c1.09.91,1.37,2.22,1.01,3.24-.74,2.08-9.32,6.36-14.92,6.08-4.6-.24-8.85-.62-12.12-3.13-4.9.02-25.61-19.26-26.12-22.13-1.33-.6-2.1-1.86-2.91-3.02-.23-.33-.65-.67-.94-.98-5.55-5.82-8.04-12.1-12.08-10.19l-.78.11c-.37,2.69.79,4.94,2.68,7.2l9.59,11.42c5.37,6.39,11.44,11.96,18.1,16.84-.49,3.45-3.71,2.63-4.59,3.62-1.41,1.59-2.93,1.25-4.88,1.84-1.59.48-2.95,2.92-5.44,1.5-1.04-.6-2.06-1.32-1.66-2.44l-4-1.09c-3.65,2.5-12.59-3.41-11.97-7.49.09-.57.1-1.41,1.14-1.58-.3-1.77-1.71-3.28-3-4.81l-3.44-4.07c-2.6.15-5.27-1.31-6.76-3.95l-3.62-6.44c-1.04-1.85-1.72-5.96-4.23-6.14-2.8-.2-5.32.5-7.07-1.62-3.88,2.51-8.68,5.01-12.98,6.18,1,5.87-9.93,6.18-15.91,8.27-2.52.88-4.61,2.43-7.08,1.63-2.27,2.03-4.23,4.55-5.95,7.1.02.6-.35,1-.96.97-.02.31-.16.62-.2.93,2.72,3.22-6.8,5.54-9.95,4.94-1.96-.37-4.02,1.27-5.96,1.3-.02,2.27,2.05,3.14,2.07,5.39l.94.3c8.84-4.05.57,11.61,4.17,14.25,2.28,1.66,4.23,3.83,6.76,5.09,1.98.98,3.91,1.53,3.24,3.89,1.29.42,2.52,1.29,3.94,1.2,1.67-.1,3.25.63,4.91.69.02-1.16.86-.98,1.13.04.39.08.63.49.85.74,3.91.57,6.34,8.64,4.28,12.73-1.16,2.31-5.35,3.95-7.74,3.2-2.22-.69-18.7-4.63-19.52-4.65v.54c.22.03.22.05.77.28.19.08.28.12.35.14-.05-.04,0-.02.27.12-.12-.06-.17-.08-.27-.12.14.11,1.1.7,1.3.92.09.12.18.24.28.36,8.74,1.44,22.09,8.45,26.3-.93,2.88-6.42-2.16-14.03-6.51-16.67-4.7-2.85-9.62-4.52-14.92-6.09-5.37-1.59-3.32-12.97-3.16-18.19,6.83-2.75,11.73-7.09,16.2-12.75,1.1-1.39,2.18-4.33,4.07-4.97,7.87-2.7,15.76-4.34,23.38-7.85,4.37-2.01,8.21-4.63,12.84-6.17,7,14.56,18.09,33.47,32.9,39.41,8.95,3.59,18.59,1.73,24.92-5.55,11.62,7.16,26.33,8.2,36.49-.27,2.46-2.05,3.85-4.65,3.58-7.69Z" fill="#6a3511"/><path d="M311.05,280.23c.96.88-6.47,7.44-6.24,9.35,21.45-3.96,42.8-3.17,57.73,14.09,4.93,5.7,8.83,11.88,11.88,18.94,6.29,14.57,10.61,29.72,12.55,45.57.62,5.11-3.13,8.62-7.81,9.22-.25,2.45-.81,5.4.62,7.23,8.45,3.49,15.34,4.92,17.29,16.48,2.07,12.33,3.86,24.5,3.71,37.12-.29,24.72-18.46,19.47-20.74,25.38-5.03,12.99-17.76,20.46-31.12,22.39-1.64.24-3.12,1.67-4.92,1.32-2.96-.58-5.38.99-8.1.85l-12.95-.66c-.74-.04-.63,1.29-.75,1.69-2.59-1.87-.98,1.13-.26-5.06,1.1-.74,3.1.29,4.12-.02,0,.4-.1.99.12,1.43.19.38.92.54,1.73.56l12.01.2,12.49-2.47c.41-.84.34-1.97.39-2.56-.43.11,16.96-6.35,15.12-8.77.04-.36.62-.45,1.02-1.08,2.79,0,7.07-9.26,8.92-12.33,1.4-13.54,2.55-11.71,1.93-25.81-.12-2.7-1.41-5.12-.9-8.02.56-3.18-.78-6-.85-9.02l-.24-9.93c.03,1.35-2.85-24.75-2.93-23.02.72-16.11-5.48-10.75-4.36-19.32,1.91,2.02,3.14,3.81,4.8,6.04,1.53,2.05,5.43,3.59,7,.86,1.25-2.17.47-5.47-.21-7.75-.8-2.67-.81-5.05-1.44-7.65l-3.12-12.83c-.05-.21-3.08-7.33-3.77-6.38-.09-.31-.01-.68-.09-1-1.08-8.14-4.18-11.26-7.98-19.83-2.06-4.65-6.14-7.86-9.4-11.51-4.54-5.07-10.19-8.56-16.68-10.42s-17.01-3.13-23.92-1.54c.77-.18-13.61,2.43-12.79,2.12.55-1.39-.72-3.19-.52-4.61,1.09-2.61,3.93-3.92,5.48-6.24.97-1.46,1.26-3.41,3.18-3.02ZM382.93,418.09c-.03.72.05,1.46.11,2.18l.73,8.96c-1.56.98.43,2.89.22,5.12-.27,2.88.53,5.99-.13,8.84-.86,3.72-1.21,7.37-.79,12.02,9.73-2.28,12.51-9.12,11.98-18.07-.06-.93-.09-1.85-.08-2.78,0-.74.01-1.49-.02-2.24-.15-3.57,0-7.42-.93-10.86l-.15-3.08c-.26-5.31-1.34-10.72-2.4-16.34-1.06-5.57-5.01-9.28-10.59-10.51-.58,8.08,2.31,20.18,2.05,26.75Z" fill="#683519"/><path d="M49.63,285.95c7.05,2.28,5.68,1.25,14.24,1.41.96,2.97,3.23,4.78,4.78,7.23s2.48,4.87,5.18,5.63c1.86,3.23,4.99,5.13,8.13,7.04.27,1.3,1.17,2.69,2.78,3.33,2.34.93,3.84,2.72,5.91,3.97,1.93,1.17,4.5.98,5.45,3.02.55,1.64-2.18,3.54-.67,4.71,2.67,2.06.96-4.39,10.54-2.09l-.02,2.13c-1.61-.4-2.94-1.16-5.52-2.19l-7.37,10.99c-5,7.45-10.14,14.81-14.06,23.43-16.33,35.89-22.41,79.33-2.71,115.12,1.03,1.87,2.01,3.58,3.52,4.47.99,5.74,20.31,24.69,26.12,25.95,1.83,3.33,10.56,5.35,12.18,7.99.99,7.85,5.5,5.67,12.25,8.76,4.16,1.91,8.84,2.35,12.55.3.9-.5,2.12-.25,3.04.03.07.66.66.74,1.11,1,1.18.68,2.63.39,3.89.71l.98.25c.27.07.6.04.89,0l.44,3.02c7.06,3.76,14.69.28,20.41,6.53-1.08,8.36,4.46,14.13,1.58,18.9-1.17,1.42-3.58.24-5.05.98-6.9,3.48-11.65.76-19.22,1.84-3.23.46-6.16,1.21-9.09.91-.4-.31-.85-.81-1.48-.85-.82-.05-1.27.62-1.3,1.39-.95-.12-2.03-.25-3.01-.09-.67-3.81-8.41,2.01-7.77,1.75l-4.46,1.79c3.35-4.41,8.87-6.83,14.64-8.13,14.89-3.34,35.15,4.57,34.44-6.03l-.73-10.87c-.33-4.93-8.3-3.62-11.25-4.16l-9.49-1.74c-18.14-3.33-39.72-11.31-54.22-22.49-11.89-9.17-21.69-19.84-28.34-33.41-18.86-38.5-11.21-86.64,8.24-123.2,4.65-8.74,9.86-16.41,15.65-24.23.84-1.14,1.69-1.85,1.09-3.26-.34-.81-1.08-1.65-2.48-1.99-3.09-.76-5.14-2.8-7.59-4.58-8.38-6.08-15.46-13.12-20.88-21.97h-8.07c-5.38,0-10.18-2.89-13.94-6.02.58.04,1.59.05,2.28.59,2.15,1.67,4.42,1.45,6.41,2.09Z" fill="#683519"/><path d="M183.99,581.17c-7.87,1.3-35.63,11.28-38.86,5.11-.52-.35-1.42-.43-1.29-1.48.11-.88.12-1.75,1.24-1.54.08-.67.17-1.33.17-2-.27-.74-.51-1.6-.07-2.7l2.75-1.37c.2-.41.73-.7.86-1.17-.5-.97-.85-2.05-1.59-2.34-4.13-1.58-2.32,6.01-6.23,5.62-.65.6-1.45,1.01-2.26,1.35.03,1.26-1.28,1.52-2.78,1.4-1.96.58-2.6.34-1.84-1.73.16-1.43.27-3.25,1.58-3.14,0-.64-.18-1.29-.07-1.94-.72-.34-1.05-1.09-1.18-1.68-.53-2.27,3.02-1.55,2.42-3.8-.15-.55-.35-2.06-1.94-1.32-1.46.68-1.36,3.93-3.26,4.52-2.04.63-4.84.77-6.94.58-3.76-.34-3.23-8.52-2.06-9.05.42-.19,1-.23,1.5-.24-.06-.38.18-.87.05-1.23-1.6-4.31,7.81-10.56,11.94-11.24-.67-3.81-8.41,2.01-7.77,1.75l-4.46,1.79c-.2.27-.49.64-.75.84-.5,5.27-6.73,11.75-3.28,16.64,3.67,5.2,11.4-1.02,12.28,7.37.3,2.85,3.7,4.11,6.02,4.77,1.19.34,6.36,5.95,5.66,8.36.44.76,2.32,1,3.76,1.31,3.61-.86,7.64-.9,11.2-1.57.34-.06.68-.08,1.02-.09,2.08-.77,4.18-1.35,6.34-1.73.18-.07.36-.15.55-.21.72-.63,1.56-1.07,2.44-1.27.04-.05.08-.11.13-.15,3.05-.78,15.01-3.18,15.72-5.47-1.23-.44-1.09-1.89-.99-2.98Z" fill="#71340c"/><path d="M141.05,592.02c.38,0,.99.23,1.07.61.21.13.41.28.61.44.39.05.8.13,1.08.25.7-2.41-4.46-8.02-5.66-8.36-2.32-.66-5.72-1.92-6.02-4.77-.89-8.39-8.62-2.17-12.28-7.37-3.45-4.89,2.78-11.36,3.28-16.64-4.73,3.67-6.8,10.8-4.75,16.81,1.89,5.54,11.08,3.49,11.38,5.42,1.76,11.07,10.84,4.24,11.29,13.62Z" fill="#683519"/><path d="M326,493.28c-1.44-.54-2.51-1.68-3.01-3.13,1.33.65,2.42,1.76,3.01,3.13Z" fill="#683519"/><path d="M170.27,447.17c10.79,22.65,31.68,41.45,55.66,50.77,9.61,3.74,26.72,7.87,33.35-1.82,5.01-7.33.22-15.9-3.33-23.89l8.05-3.54c8.89-3.91,19.76-1.89,30.13-5.04.81,4.34,3.1,8.19,4.41,12.22-4.69,12.64-20.7,24.12-31.65,31.2-3.88,2.51-8.68,5.01-12.98,6.18l-9.57,2.6c-6.8,1.85-4.7-2.39-7.76-2-2.36.3-4.83,7.12-5.66,9.29-2.27,2.03-4.23,4.55-5.95,7.1-.23.34-.92.42-.96.97-.02.31-.16.62-.2.93-3.25.01-3.47,2.39-8.96,4.12-.67.21-1.38.23-.99.83-1.96-.37-4.02,1.27-5.96,1.3-.57,0-1.26.15-1.82.02-2.11-.49-4.24.16-6.33.1-6.89-.21-13.41-3.49-18.94-8.24-8.47-7.26-7.96-16.55-13.09-14.9-2.19.71-.89,4.51-2.27,5-2,.72-8.57-1.73-12.64-1.21-.29.04-.62.06-.89,0,.23-.92-.91-1.29-.98-.25-1.26-.32-2.71-.03-3.89-.71.45-.77-.61-.85-1.11-1-.91-.27-2.14-.52-3.04-.03-7.28-3.4-11.89-3.75-20.88-8.05-1.44-.69-2.72-1.1-3.93-1.01-1.63-2.65-10.35-4.66-12.18-7.99-.9-.87,9.56-6.97,10.12-5.81,17.16,9.71,60.7,16.95,79.69,14.65l9.12-1.11c2.09-.25,4.9-1.33,5.27-3.4-3.16-3.34-7.38-5.73-10.81-8.6-10.46-8.76-24.74-27.34-29.84-40.15-.4-1.01-5.85-13.01-3.49-11.64,1.34.53,3.56,1.6,4.28,3.12Z" fill="#d89633"/><path d="M286.94,372.27c-.41.14-.81.37-.93.69-.19.54-.02,1.32.46,1.31h1.47s0,10.99,0,10.99c0,.53.46,1.05,1,1v10c-.77.55-1.08,1.49-1.12,2.45-.07,1.48.8,1.81,2.12,1.55.06,2.67-.03,5.34-.16,8-1.33.55-2.35,1.77-1.88,3.79,1.26.47,2.11.29,2.87.35l.17,4.87c-1.05-1.07-1.63,4.44-.47,4.98.38.18,1.02.01,1.47.02-.22,2.22,1.73,7.57.97,13.03-3.2,7.8-.65,1.75-4.38,6.78-3.77.45-7.31,2.2-11.23,3.56-3.41,1.18-6.78,1.34-10.34,2.83.87,4.11-1.54,13.73-.47,14.69,2.7,2.44,25.98-1.69,27.51-4.97l2.85.26c1.05,1.14.69,2.94,1.31,4.67l4.09,11.34c.72,2,.6,4.09,3.2,5.63.43.25.52,1.05.37,1.31-.19.32-.54.56-.86.76-.22-.15-2.11-1.05-2.55-.34-3.84,6.26-8.7,11.16-13.3,16.4-1.97,1.15-7.75,5.82-9.96,7.9-1.07,1.28,10.8,20.73,9.42,19.09-2.6.15-5.27-1.31-6.76-3.95l-3.62-6.44c-1.04-1.85-1.72-5.96-4.23-6.14-2.8-.2-5.32.5-7.07-1.62,10.95-7.08,26.96-18.56,31.65-31.2-1.31-4.03-3.59-7.88-4.41-12.22-10.37,3.15-21.23,1.13-30.13,5.04l-8.05,3.54c3.55,7.99,8.34,16.56,3.33,23.89-6.63,9.69-23.73,5.56-33.35,1.82-23.99-9.32-44.87-28.12-55.66-50.77,1.84.21,3.52-.75,5.29-1.13,10.91,22.6,46.47,53.03,73.38,50.05,4.57-.51,7.4-4.09,6.73-8.69-.94-6.39-8.15-17.91-12.61-21.07-.71-2.72-3.02-4.66-5.11-6.95l-16.76-18.33c-1.24-1.36-1.81-2.81-.45-4.44.99-1.17,2.93-1.16,4.45.39,5.03,5.14,9.88,9.98,14.46,15.56.99,1.21,2.23,2.02,3.22,2.64,2.49,3.73,5.17,8.02,9.05,11.14,2.48,1.71,7.59-1.51,9.06-3.67,1.98-2.93,1.77-6.27,1.73-9.25-.1-8.19-3.98-14.04-7.56-19.92-3.47-5.69-5.88-12.15-10.9-17.58-.9-.98-1.78-3.03-1.67-4.27.16-1.65,1.86-2.1,2.86-2.05s2.6.57,3.21,1.88c1.11,2.37,3.15,3.92,4.25,5.77l7.95,13.41c13.99-4.96,3.67-39.72.37-49.79-.21-.63-.74-.89-1.12-.67.78-1.6-.84-2.63-.98-3.92-1.17-10.27-8.33-16.09-3.49-18.96,1.14-.68,2.91.12,3.61,1.67,5.22,11.56,9.02,23.28,11.82,35.29,1.98,8.49,3.12,17.36,2.24,26.35-.65,6.68-3.98,11.82-9.42,15.66.92,2.58,1.9,4.57,3.22,7.33,7.84-.95,15.29-2.96,22.21-7.12-1.66-11.82-2.84-22.66-3.73-34.2l-4.13-53.19c-.18-2.28-.41-4.33-1.56-5.81,1-.02,2-1.48,3.11-1.79,2.54,1.11,3.18,17.19,3.34,19.76.24,3.86,1.32,7.53.6,11.01Z" fill="#713206"/><path d="M373.68,335.27c-1.17-1.07-1.53-2.81-2.17-4.59-3.07-8.52-7.24-16.08-13-23.02-13.56-16.36-37.16-16.8-56.2-11.13-5.9,1.75-10.67,4.81-13.21,9.83-1.55,3.06-4.58,6.61-2.38,11.36,20.62-17.39,50.25-18.42,67.28,3.4,12.89,16.52,15.82,38.45,22,47.14.79,1.1,3.41,3.33,4.49,1.76,1.93-2.81-.67-12.16-1.55-11.75.54-.03-2.55-12.94-2.66-13.34l-2.51-8.66c.69-.96,3.72,6.17,3.77,6.38l3.12,12.83c.63,2.6.65,4.98,1.44,7.65.68,2.28,1.46,5.58.21,7.75-1.57,2.72-5.47,1.19-7-.86-1.66-2.23-2.89-4.02-4.8-6.04-1.12,8.57,5.08,3.21,4.36,19.32.08-1.73,2.96,24.37,2.93,23.02l.24,9.93c.07,3.02,1.41,5.84.85,9.02-.51,2.9.78,5.32.9,8.02.62,14.11-.53,12.28-1.93,25.81-1.85,3.07-6.12,12.33-8.92,12.33,2.48-3.92,5.93-7.6,6.06-13.07,1.34.43,2.91-8.93,2.91-9.13l-.08-24.96c0-2.66-1.59-5.14-.88-8.01.21-.86-1.49-15.71-1.76-18.08l-1.02-9c-.27-2.37-1.48-15.51-2.07-16.29-9.04-11.8-8.22-28.82-23.44-49.37-1.44-1.95-2.84-3.1-5.53-2.21-5.17,1.71-10.39,2.51-15.77,3.34.43-.07-12.88,1.41-10.61,1.37l-18.78.28c-1.38.02-2.53-1.28-4.21-1.05-1.92.26-4.43-1.16-6.29-.6-2.62.79-1.13,4.17-.93,5.96.71,6.31.04,12.26.42,18.62.08,1.39,1.06,2.65.96,4.01-.46,5.88,2.23,27.61,2.03,29-.4,2.89.87,5.31.93,8.03l.2,8.93c-.11-5.1,2.78,22.45,1.83,17.13l1.05,5.84c-.44-2.44,2.46,21.32,2.56,22.14,1.02,8.55,3.79,24.87,9.09,31.3,4.49,5.46,18.72,6.9,25.23,6.37,16.79-1.35,21.16-1,37.08-9.5,1.85,2.41-15.54,8.88-15.12,8.77-3.33.88-7.09,1.55-10.72,2.05-5.49.75-10.98-1.07-16.02.79-1.02.31-3.02-.72-4.12.02-2.03-1.63-10.57-2.05-13.99-4.76-2.11-1.67-3.33-4.12-5.69-4.91l-4.09-11.34c-.63-1.73-.27-3.53-1.31-4.67-.01-6.21-2.47-10.98-2.77-19.24-.06-1.77-.22-3.1-1.17-3.92.75-5.47-1.19-10.82-.97-13.03.17-1.72.41-3.79-1-5l-.17-4.87c-.05-1.51.67-3.27-.99-4.13.13-2.66.23-5.33.16-8-.03-1.33.59-3.44-1-4v-10c0-.53-.47-1.05-1-1v-11c0-.78.05-1.96-1-2,.72-3.48-.36-7.15-.6-11.01-.16-2.57-.8-18.66-3.34-19.76-1.12.31-2.11,1.77-3.11,1.79-3.14-1.39-6.48-2.74-9.1-4.98,6.07-3.69-15.27-9.13-17.94-9.12-1.01.05-1.88,1.5-1.15,2.18-3.6.58-5.93-1.16-9.75-1.13,2.41-.02-12.68-1.87-11.02-1.86-6.37-.04-12.53-.54-18.75.19-12.3,1.44-28.23,7.19-35.27,16.75-.4.3-.57.83-.93,1.15-6.07,5.57-9.68,13.34-12.18,21.65-.85,2.83-1.77,6.04-1.77,9.1l.02,25.05c0,2.79,1.75,5.51.83,8-2.96,8.03.86,16.04.17,20-.36-.05-.76.07-1.11,0-.47-3.41-1-7.04-2.81-10-5.16-28.82-7.75-61.14,16.99-82.73,4.16-3.63,8.12-6.8,13.23-8.96,27.36-11.59,62.27-5.57,88.21,7.3,4.9,2.43,2.04-10.95,2.12-14.19-19.08-6.78-43.17-11.23-62.95-9.04-15.52,1.72-25.29,3.75-38.66,11.67-40.21,23.8-38.26,75.7-24.44,93.98l2.22,2.94c1.13,4.14,3.95,5.64,3.94,7.98-1.61.05-2.33-1.83-3.8-2.22,1.37.36-5.81-9.91-5.15-9.42-2.79-2.05-2.21-4.52-3.08-7.27-3.67-11.59-6.31-26.33-4.09-38.19l2.03-10.82c.7-3.73,2.19-10.38,5.01-12.34,3.46-2.41,3.89-7.45,6.38-10.45,1.47-1.76,3.5-3.28,5.27-4.74l5.49-4.5c4.4-3.61,13.74-10.67,18.86-12.09l11.8-3.28c9.25-2.57,13.48-3.14,23.03-3.9,3.07-.24,5.71-.93,8.86-.05,3.69,1.03,7.61.25,11.45.78l14.73,2.04c1.51.21,2.34.24,3.18-.52,1.2-.55,2.15,1.71,3.33,1.8l5.77.43c2.25.17,3.93,2.32,6.07,1.77-1.41.05,6.78,5.12,6.98,5.13.04.29.2.58.22.87.02.36-.59,14.05,1.85,5.45-.17-1.88-.37-4.35,1.02-5,2.21-1.03,4.57.66,7.08-.26,1.07-.4,1.22-3.27.45-3.7-2.52-1.4-5.24.36-7.43,1.2-2.1-3.38-.9-7.49.2-11.38,1.82-6.42,12-12.38,17.61-14.47-.83.31,13.56-2.3,12.79-2.12,6.9-1.59,17.45-.31,23.92,1.54s12.14,5.35,16.68,10.42c3.26,3.65,7.34,6.85,9.4,11.51,3.8,8.56,6.9,11.69,7.98,19.83ZM339.42,315.95c-12.24-9.42-32.05-5.85-44.47,2.63,2.53,3.61,39.07,1.76,44.47-2.63Z" fill="#4f3b1e"/><path d="M209.97,543.78l.94.3c1.33,5.21-.96,8.15,1.57,15.88,1.75,5.33,7.82,5.79,12.6,7.34,1.29.42,2.52,1.29,3.94,1.2,3.13,2.87,4.4,2.79,7.88,6.83.23.57.32,1.18.28,1.78l-.43,3.08c-1.66,2.81-8.2.52-11.48-.41-9.15-2.58-18.63-4.35-27.37-1.81-2.41.7-5.56-.17-7.98,1.22-.37.21-.93.17-1,.74-1.87-.81-3.41.98-4.95,1.24-7.87,1.3-35.63,11.28-38.86,5.11-.14-1-.17-2.01-.05-3.02.08-.67.17-1.33.17-2,1.56-.76,1.98-2.59,2.68-4.07.2-.41.73-.7.86-1.17l5.77-3.02c6.05-3.16,17.68.07,18.72-3.33,2.55-8.36-29.47-5.17-32.31,9.62-.65.6-1.45,1.01-2.26,1.35-1.08.98-2-.42-2.6-1.19-.52-.67-.44-1.5-.45-2.28,0-.64-.18-1.29-.07-1.94,2.77-8.72,13.67-14.46,23.16-13.54l21.4,2.07c4.21.41,8.3-.31,12.1-2.05,7.91-3.61.38-17.78,5.69-17.55,4.36.19,8.3.43,12.04-.4Z" fill="#f68c2f"/><path d="M304.95,482.16c.17,1.08,1.36,1.54,2.06,2.12.8,2.58,3.07,4.57,5.49,6.45,5.92,11.11,11.88,11.58,18.94,20.99,1.43,1.9,2.91,2.83,4.61,4.39l8.29,7.6c4.11,3.77,8.82,6.51,12.43,10.94,1.1,2.86-.69,5.3-3.31,6.38-7.5,3.11-8.91-1.06-14.61-.55-4.9.02-25.61-19.26-26.12-22.13-.27-1.5-1.44-2.65-2.91-3.02-.23-.33-.65-.67-.94-.98.43-2.41-2.06-3.7-3.18-5.77-1.43-2.63-2.35-5.5-5.8-6.3-1.02-.24-2.18-.19-2.72.53-.24.31-.3.85-.39,1.35l-.78.11c-1.05.15-2.21.23-3.03.97-1.99-1.86-2.8-4.59-3.89-7.03,4.6-5.23,9.46-10.14,13.3-16.4.44-.72,2.33.19,2.55.34Z" fill="#f6c13f"/><path d="M199.74,538.5c-.5.9.34,1.53.91,1.67.78.2,4.26.47,5.27-.4.3-.26.53-.84.16-1.37.56.13,1.25-.01,1.82-.02-.02,2.27,2.05,3.14,2.07,5.39-3.74.83-7.68.59-12.04.4-5.32-.23,2.22,13.94-5.69,17.55-3.8,1.74-7.89,2.45-12.1,2.05l-21.4-2.07c-9.5-.92-20.39,4.82-23.16,13.54-.72-.34-1.05-1.09-1.18-1.68-.53-2.27,3.02-1.55,2.42-3.8-.15-.55-.35-2.06-1.94-1.32-1.46.68-1.36,3.93-3.26,4.52-2.04.63-4.84.77-6.94.58-3.76-.34-3.23-8.52-2.06-9.05.42-.19,1-.23,1.5-.24-.33,1.59-2.06,3.74-.83,5.78,1.44,2.39,5.92,2.31,7.85.56,1.78-1.61,2.14-3.97,3.74-5.58,15.25-15.43,35.14-5.84,51.5-7.35,6.81-.63,3.44-7.47,3.5-15.23-3.96-1.72-7.18-3.37-11.2-6.1-1.3,5.62,2.04,10.77-4.31,14.27-3.83,2.11-8.01,2.02-12.43,1.8-6.96-.36-13.54-.11-19.99-.07l-.06-1c2.93.3,5.86-.45,9.09-.91,7.57-1.08,12.32,1.64,19.22-1.84,1.47-.74,3.88.44,5.05-.98,2.88-4.77-2.66-10.54-1.58-18.9-5.72-6.25-13.36-2.77-20.41-6.53l-.44-3.02c4.07-.52,10.63,1.94,12.64,1.21,1.38-.5.08-4.29,2.27-5,5.12-1.66,4.61,7.64,13.09,14.9,5.54,4.74,12.06,8.03,18.94,8.24Z" fill="#713206"/><path d="M293,505.26c1.09,7.09,10.41,19.39,15.38,25.64,4.27,5.37,9.56,6.76,13.44,12.46-1.41,1.59-2.93,1.25-4.88,1.84-2.42.44-4.77-.3-7.1-.94l-4-1.09c-2.62-2.16-8.46-7.98-10.83-9.07-.3-1.77-1.71-3.28-3-4.81l-3.44-4.07c1.38,1.63-10.49-17.81-9.42-19.09,2.2-2.08,7.98-6.75,9.96-7.9,1.09,2.45,1.9,5.17,3.89,7.03Z" fill="#d89633"/><path d="M338.86,540.49c5.7-.52,7.11,3.66,14.61.55,2.62-1.08,4.41-3.52,3.31-6.38-3.61-4.43-8.32-7.17-12.43-10.94l-8.29-7.6c-1.7-1.56-3.18-2.49-4.61-4.39-7.07-9.41-13.02-9.88-18.94-20.99-2.42-1.88-4.69-3.87-5.49-6.45,2.36.35,4.43,1.63,6.3,3.64,8.46,9.09,16.9,17.57,26.46,25.52l25.11,20.87c1.09.91,1.37,2.22,1.01,3.24-.74,2.08-9.32,6.36-14.92,6.08-4.6-.24-8.85-.62-12.12-3.13Z" fill="#f8d47d"/><path d="M296.03,504.29c-.37,2.69.79,4.94,2.68,7.2l9.59,11.42c5.37,6.39,11.44,11.96,18.1,16.84-.49,3.45-3.71,2.63-4.59,3.62-3.88-5.7-9.17-7.1-13.44-12.46-4.97-6.26-14.29-18.56-15.38-25.64.83-.74,1.98-.81,3.03-.97Z" fill="#f0bc56"/><path d="M212.94,581.27l-12.83-.19c.05-.7.11-1.52-.26-2.2s-1.22-.83-1.93-.9c8.74-2.54,18.22-.77,27.37,1.81,3.28.93,9.82,3.22,11.48.41.49-.18,1.83.44,2.15-.43.22-.6.19-1.95-.43-2.35-.31-.2-.8-.21-1.29-.3.05-.61-.05-1.22-.28-1.78,2.54-1.27-1.74-2-1-5.36,3.91.57,6.34,8.64,4.28,12.73-1.16,2.31-5.35,3.95-7.74,3.2-2.22-.69-18.7-4.63-19.52-4.65Z" fill="#71340c"/><path d="M253.91,513.25c1,5.87-9.93,6.18-15.91,8.27-2.52.88-4.61,2.43-7.08,1.63.83-2.17,3.3-9,5.66-9.29,3.06-.38.96,3.85,7.76,2l9.57-2.6Z" fill="#713206"/><path d="M225.09,567.3c-4.77-1.55-10.85-2.01-12.6-7.34-2.54-7.73-.25-10.67-1.57-15.88,8.84-4.05.57,11.61,4.17,14.25,2.28,1.66,4.23,3.83,6.76,5.09,1.98.98,3.91,1.53,3.24,3.89Z" fill="#713206"/><path d="M305.84,543.18c-3.65,2.5-12.59-3.41-11.97-7.49.09-.57.1-1.41,1.14-1.58,2.37,1.1,8.21,6.92,10.83,9.07Z" fill="#713206"/><path d="M223.81,532.14c2.72,3.22-6.8,5.54-9.95,4.94-.39-.6.32-.62.99-.83,5.49-1.72,5.72-4.1,8.96-4.12Z" fill="#713206"/><path d="M308.89,514.37c-5.55-5.82-8.04-12.1-12.08-10.19.08-.5.15-1.04.39-1.35.54-.72,1.7-.77,2.72-.53,3.44.81,4.37,3.67,5.8,6.3,1.12,2.06,3.61,3.36,3.18,5.77Z" fill="#f0bc56"/><path d="M233.94,569.2l1.13.04c.39.08.63.49.85.74-.74,3.36,3.54,4.09,1,5.36-3.49-4.04-4.75-3.96-7.88-6.83,1.67-.1,3.25.63,4.91.69Z" fill="#713206"/><path d="M316.94,545.2c-1.59.48-2.95,2.92-5.44,1.5-1.04-.6-2.06-1.32-1.66-2.44,2.33.63,4.68,1.38,7.1.94Z" fill="#713206"/><path d="M312.74,518.36c-1.33-.6-2.1-1.86-2.91-3.02,1.47.36,2.64,1.51,2.91,3.02Z" fill="#f0bc56"/><path d="M224.01,531.21c.04-.55.73-.63.96-.97.02.6-.35,1-.96.97Z" fill="#713206"/><path d="M235.07,569.24l-1.13-.04c.02-1.16.86-.98,1.13.04Z" fill="#71340c"/><path d="M293.75,325.27l.38,2.14c2.89,16.47,1.74,33.87,4.53,51.04l3.22,19.81c.19,1.15-.92,2.45-.92,4l-.1,19.99c1.25,1.44,1.76,16.7,3.18,15.04l.03,1c-.16.92-.52,2.15,1.02,2.97,3.48,9.25,5.45,18.82,18.43,20.51,8.38,1.09,16.88,1.71,24.88-1.02l7.66-2.5c2.68,2.37-13.61,4.85-14.23,5.57,11.61,2.7,22.45-.52,32.26-5.46.27-.08.64.03.93-.02-.13,5.48-3.58,9.16-6.06,13.07-.4.63-.99.72-1.02,1.08-15.92,8.5-20.29,8.14-37.08,9.5-6.52.52-20.74-.92-25.23-6.37-5.3-6.44-8.07-22.76-9.09-31.3-.1-.82-3-24.58-2.56-22.14l-1.05-5.84c.95,5.32-1.95-22.23-1.83-17.13l-.2-8.93c-.06-2.71-1.34-5.14-.93-8.03.19-1.39-2.49-23.12-2.03-29,.11-1.36-.87-2.63-.96-4.01-.38-6.36.29-12.31-.42-18.62-.2-1.79-1.69-5.16.93-5.96,1.86-.56,4.37.86,6.29.6Z" fill="#279683"/><path d="M373.68,335.27c.08.32,0,.69.09,1l2.51,8.66c.12.4,3.21,13.31,2.66,13.34-.74,1.22-1.21.38-.97-.91-1.66-10.58-6.86-20.49-10.92-30.05-1.86-4.38-4.97-7.65-7.72-11.43-16.02-22.01-46.67-20.1-69.14-9.53-.45,1.03-1.36,1.09-1.09,0,2.54-5.02,7.32-8.08,13.21-9.83,19.04-5.67,42.64-5.23,56.2,11.13,5.76,6.94,9.93,14.5,13,23.02.64,1.78,1,3.52,2.17,4.59Z" fill="#7de5ce"/><path d="M393.87,418.19c-.96-.37-.95.96-.98,1.6-.04.69.57,1.17,1.13,1.48.93,3.45.78,7.29.93,10.86-.87-.46-1.25.82-1.02,1.62.13.45.45,1.02,1.04.62-.01.93.03,1.85.08,2.78-1.88,2.07-7.66,10.01-11.19,6.04.66-2.84-.14-5.96.13-8.84,1.21,1.52,1.55-6.46-.22-5.12l-.73-8.96c.88.15,1.16-.76.86-1.49-.21-.51-.38-1.05-.97-.69.26-6.56-2.63-18.67-2.05-26.75,5.58,1.23,9.53,4.94,10.59,10.51,1.07,5.62,2.14,11.03,2.4,16.34Z" fill="#9a47cf"/><path d="M383.86,443.19c3.54,3.96,9.31-3.97,11.19-6.04.53,8.95-2.25,15.79-11.98,18.07-.42-4.65-.07-8.31.79-12.02Z" fill="#8335b1"/><path d="M352.8,481.27c-.05.59.02,1.71-.39,2.56l-12.49,2.47-12.01-.2c-.81-.01-1.53-.17-1.73-.56-.22-.44-.12-1.03-.12-1.43,5.04-1.86,10.53-.04,16.02-.79,3.64-.5,7.39-1.16,10.72-2.05Z" fill="#6a3511"/><path d="M383.99,434.35c.21-2.23-1.78-4.14-.22-5.12,1.77-1.33,1.43,6.64.22,5.12Z" fill="#8335b1"/><path d="M394.02,421.27c-.57-.31-1.17-.79-1.13-1.48.04-.64.03-1.98.98-1.6l.15,3.08Z" fill="#8335b1"/><path d="M394.97,434.37c-.59.41-.91-.17-1.04-.62-.23-.8.15-2.08,1.02-1.62.03.74.03,1.49.02,2.24Z" fill="#8335b1"/><path d="M383.04,420.27c-.06-.72-.14-1.46-.11-2.18.59-.36.77.18.97.69.29.73.02,1.64-.86,1.49Z" fill="#8335b1"/><path d="M132.02,341.23l.07,3.95c-1.89-.91-1.48,14.14-.12,14.17.46,7.25.92,13.88,1.76,21.93l3.95,37.96c.93,8.98.56,17.8-.11,26.64-1.15,15.14-6.93,35.46-19.11,45.03-1,.78-2.19,1.17-2.35,2.25,1.53,1.2-14.42-1.63-32.02-16.98-1.4-1.22-2.67-2.04-4.29-2.02-1.51-.89-2.49-2.6-3.52-4.47-19.7-35.8-13.61-79.23,2.71-115.12,3.92-8.62,9.06-15.98,14.06-23.43,1.58-.26,2.89.89,4.6,1.49,13.51,4.76,20.84,6.37,34.38,8.6Z" fill="#f9f0da"/><path d="M105.94,322.35c2.02.5,3.88,1.55,5.96,1.81.7.08,1.37.32,2.08.34,5.95,2.58,12.65,3.73,19.12,4.85l-.22,11.72c-.29,0-.57.16-.86.18-13.54-2.24-20.87-3.84-34.38-8.6-1.71-.6-3.02-1.75-4.6-1.49l7.37-10.99c2.58,1.03,3.91,1.8,5.52,2.19Z" fill="#e1c7a0"/><path d="M116.1,493.16c.3.24.21.94-.06,1.14-.57-1.16-11.02,4.94-10.12,5.81-5.81-1.27-25.14-20.21-26.12-25.95,1.62-.02,2.89.8,4.29,2.02,17.6,15.35,33.55,18.19,32.02,16.98Z" fill="#e1c7a0"/><path d="M142.9,517.17c-3.71,2.06-8.39,1.61-12.55-.3-6.75-3.1-11.26-.91-12.25-8.76,1.21-.09,2.48.32,3.93,1.01,8.99,4.3,13.6,4.65,20.88,8.05Z" fill="#713206"/><path d="M147.05,518.19c-.45-.26-1.04-.34-1.11-1,.5.15,1.56.23,1.11,1Z" fill="#713206"/><path d="M151.92,519.15l-.98-.25c.07-1.04,1.21-.67.98.25Z" fill="#713206"/><path d="M265.96,310.05c1.73,2.17,4.42,3.28,7.16,3.5,1.62.39,3.19.96,4.67,1.71l-.06.76c-.93-.01-1.89,0-2.8.24-2.14.56-3.82-1.6-6.07-1.77l-5.77-.43c-1.18-.09-2.13-2.35-3.33-1.8l2.17-1.7,4.02-.51Z" fill="#67340d"/><path d="M277.79,315.27c-1.48-.75-3.05-1.33-4.67-1.71,1.87-2.36,4.62-3.79,7.64-5.12.34,2.35-.05,4.03-.75,5.94-.36.98-1.64.88-2.22.89Z" fill="#d89633"/><path d="M282.14,322.27c.69.21,1.59.31,2.04-.03.78-.59.7-1.68.93-2.28,2.19-.84,4.91-2.6,7.43-1.2.77.43.62,3.3-.45,3.7-2.51.93-4.87-.77-7.08.26-1.38.65-1.19,3.12-1.02,5-2.45,8.6-1.83-5.08-1.85-5.45Z" fill="#6a3511"/><path d="M277.73,316.03c2,2.94,4.82.8,4.18,5.37-.2-.01-8.39-5.08-6.98-5.13.91-.24,1.87-.25,2.8-.24Z" fill="#6a3511"/><path d="M136.1,551.8c.98-.16,2.06-.03,3.01.09l.05,1.07c-7.59,2.18-10.13,4.27-15,10.08-1.6-4.31,7.81-10.56,11.94-11.24Z" fill="#713206"/><path d="M141.88,551.35l.06,1c-.88,0-1.94.36-2.78.61l-.05-1.07c.03-.77.48-1.43,1.3-1.39.63.04,1.08.54,1.48.85Z" fill="#71340c"/><path d="M124.11,564.27c-.06-.38.18-.87.05-1.23,4.87-5.81,7.4-7.91,15-10.08.85-.24,1.9-.6,2.78-.61,6.45-.04,13.03-.29,19.99.07,4.41.23,8.6.31,12.43-1.8,6.36-3.5,3.02-8.65,4.31-14.27,4.01,2.73,7.23,4.38,11.2,6.1-.06,7.75,3.31,14.6-3.5,15.23-16.36,1.51-36.24-8.08-51.5,7.35-1.6,1.61-1.96,3.98-3.74,5.58-1.93,1.74-6.41,1.82-7.85-.56-1.23-2.04.5-4.19.83-5.78Z" fill="#f68c2f"/><path d="M135.65,577.19c0,.79-.08,1.61.45,2.28.6.77,1.52,2.17,2.6,1.19.03,1.26-1.28,1.52-2.78,1.4-1.96.58-2.6.34-1.84-1.73.16-1.43.27-3.25,1.58-3.14Z" fill="#713206"/><path d="M197.92,577.98c.71.07,1.57.25,1.93.9s.31,1.5.26,2.2c-1.73,1.06-4.43,1.07-6.76,1.62-3.05.72-5.57,2.29-8.37,1.46-1.23-.44-1.09-1.89-.99-2.98,1.54-.26,3.08-2.05,4.95-1.24.51.22,1.19-.09,1-.74,2.42-1.38,5.57-.51,7.98-1.22Z" fill="#6a3511"/><path d="M150.89,341.39c-13.27,22.54-15.52,49.49-5.06,73.98,1.82,4.27,3.56,7.59,6.12,10.82s4.2,7.75,7.88,9.93c.52,2.88,5.21,5.28,6.14,7.94-2.36-1.36,3.09,10.64,3.49,11.64,5.09,12.8,19.38,31.39,29.84,40.15,3.43,2.87,7.64,5.26,10.81,8.6-.37,2.06-3.18,3.15-5.27,3.4l-9.12,1.11c-18.99,2.3-62.54-4.94-79.69-14.65.27-.2.36-.91.06-1.14.16-1.08,1.35-1.47,2.35-2.25,12.18-9.57,17.96-29.89,19.11-45.03.67-8.85,1.05-17.66.11-26.64l-3.95-37.96c-.84-8.05-1.3-14.68-1.76-21.93.99,1.64,1.16-5.57,1.19-5.27,1.74-1.35,2.5,7.03,6.02,8.29,2.66-3.1,2.62-7.24,4.35-10.58,1.11-2.15,1.09-2.96-.22-5.11-1.89-3.12-5.69-4.85-8.96-2.05-.7.6-.09,2.58-1.15,2.72.09-.84-.41-1.73-1.11-2.16l-.07-3.95c.29-.02.57-.18.86-.18,6.01.02,12.02.79,18.01.34Z" fill="#f5c141"/><path d="M161.94,430.27c.35.07.76-.04,1.11,0-.18,1.01-.3,3.15,1.15,3.7,1.83.69,3.61-.66,4.78-1.54l6.57,13.61c-1.77.38-3.45,1.34-5.29,1.13-.72-1.52-2.94-2.59-4.28-3.12-.94-2.66-5.62-5.06-6.14-7.94.29-2.29-.06-4.6-.05-6.9.74-.02,1.42.91,2.14,1.05Z" fill="#71340c"/><path d="M206.08,538.4c.37.54.14,1.11-.16,1.37-1.01.87-4.48.6-5.27.4-.57-.14-1.4-.78-.91-1.67,2.09.06,4.23-.59,6.33-.1Z" fill="#6a3511"/><path d="M241.94,331.36c2.71.35,5.12,2.94,7.55,4.48,7.59,4.78,12.74,11.95,14.42,20.33-.62.32-1.1,1.52-1.85,1.74l-4.5-2.31c-1.43-.73-2.85.74-3.63,1.35-1.28,1.01-1.47,3.46-.9,5.11l3.67,10.59c.59,1.7.6,3.53,2.41,3.62.15,1.29,1.76,2.32.98,3.92-1.13,2.33,3.53,25.79-5.08,36.08-.61.73-1.48.91-2.12.97-1.1-1.85-3.14-3.4-4.25-5.77-.61-1.31-2.19-1.83-3.21-1.88s-2.7.4-2.86,2.05c-.12,1.24.76,3.29,1.67,4.27,5.02,5.43,7.43,11.89,10.9,17.58-2.64,1.65,1.09,10.48-4.46,17.59-2.01,2.58-5.22,3.11-7.82,4.12-.98-.62-2.23-1.43-3.22-2.64-4.57-5.58-9.43-10.42-14.46-15.56-1.52-1.56-3.47-1.56-4.45-.39-1.37,1.63-.8,3.08.45,4.44l16.76,18.33c2.09,2.29,4.4,4.23,5.11,6.95-2.61.5.92,8.87-4.53,11.36-8.7,3.96-24.73-4.75-32.23-9.92-5.09-3.51-9.68-7.41-14.08-11.76l-5.55-5.49c-4.56-4.5-15.04-20.32-17.08-27.02-.23-.75-.98-1.06-1.36-1.19.47-1.93-1.38-3.4-1.88-5.39-3.61-14.3-1.84-21.11-2.66-24.42-.9-3.62-1.22-6.85.07-10.46s-2.81-5.32,5.69-22.99c1.55-3.22,2.69-6.35,5.13-9.09.98-1.1,1.5-2.33,1.42-3.49.35-.32.53-.85.93-1.15,7.58-5.72,23.16-14.44,33.03-14.86,8.45-.36,16.63-1.07,24.97,0l7.02.9Z" fill="#f6c13f"/><path d="M251.69,331.37c3.37,2.47,8.81,2.98,15.19,5.87,1.38.63,2.78.92,3.9,1.07,2.63,2.23,5.97,3.59,9.1,4.98,1.15,1.49,1.38,3.54,1.56,5.81l4.13,53.19c.9,11.55,2.07,22.38,3.73,34.2-6.91,4.16-14.36,6.17-22.21,7.12-1.32-2.76-2.31-4.75-3.22-7.33,5.44-3.85,8.77-8.99,9.42-15.66.88-8.99-.26-17.86-2.24-26.35,1.99-1.74.71-4.67-.09-7.16-1.6-5-3-23.56-7.07-30.94-1.68-8.38-6.83-15.55-14.42-20.33-2.43-1.53-4.83-4.13-7.55-4.48v-1.12c3.82-.03,6.15,1.71,9.76,1.13Z" fill="#d89633"/><path d="M243.06,466.33c4.46,3.16,11.67,14.67,12.61,21.07.67,4.6-2.16,8.19-6.73,8.69-26.92,2.98-62.47-27.45-73.38-50.05l-6.57-13.61-1.67-8.13c.79-.32.84-1.24.9-1.98.39.13,1.13.43,1.36,1.19,2.04,6.69,12.52,22.51,17.08,27.02l5.55,5.49c4.4,4.35,8.99,8.25,14.08,11.76,7.5,5.17,23.53,13.89,32.23,9.92,5.45-2.48,1.92-10.86,4.53-11.36Z" fill="#d89633"/><path d="M252.9,417.23c.64-.06,1.51-.24,2.12-.97,8.61-10.29,3.95-33.74,5.08-36.08.38-.23.91.04,1.12.67,3.31,10.07,13.62,44.83-.37,49.79l-7.95-13.41Z" fill="#d89633"/><path d="M242.87,455.2c2.6-1,5.81-1.54,7.82-4.12,5.55-7.11,1.82-15.94,4.46-17.59,3.59,5.88,7.47,11.73,7.56,19.92.03,2.98.25,6.32-1.73,9.25-1.47,2.17-6.58,5.38-9.06,3.67-3.88-3.11-6.56-7.4-9.05-11.14Z" fill="#d89633"/><path d="M263.9,356.17c4.07,7.38,5.47,25.94,7.07,30.94.8,2.49,2.08,5.42.09,7.16-2.8-12-6.61-23.73-11.82-35.29-.7-1.56-2.47-2.35-3.61-1.67-4.84,2.87,2.31,8.69,3.49,18.96-1.81-.09-1.82-1.92-2.41-3.62l-3.67-10.59c-.57-1.65-.38-4.1.9-5.11.78-.62,2.2-2.09,3.63-1.35l4.5,2.31c.75-.22,1.22-1.42,1.85-1.74Z" fill="#f0bc56"/><path d="M288.53,442.08l.29,1.08c-5.39,2.52-11.09,4.21-17.34,5.65-5.33,1.23-1.23,4.32-3.97,14.06,4.66.61,20.87-3.25,25.64-5.22-1.49-5.2-2.26-9.64-2.82-14.18,2.12-2.33,4.13,13.85,3.67,14.73-1.54,3.27-24.82,7.4-27.51,4.97-1.07-.96,1.34-10.58.47-14.69,3.56-1.49,6.93-1.66,10.34-2.83,3.92-1.35,7.46-3.11,11.23-3.56Z" fill="#4f3b1e"/><path d="M296.85,458.46l-2.85-.26c.46-.88-1.55-17.06-3.67-14.73-.46.07-1.02-.32-1.51-.31l-.29-1.08c3.73-5.04,1.18,1.01,4.38-6.78.95.82,1.1,2.15,1.17,3.92.3,8.26,2.76,13.02,2.77,19.24Z" fill="#67340d"/><path d="M290.77,412.4c-.76-.06-1.61.12-2.87-.35-.47-2.02.55-3.24,1.88-3.79,1.66.86.94,2.62.99,4.13Z" fill="#683519"/><path d="M291.94,422.27c-.45-.01-1.09.15-1.47-.02-1.16-.53-.58-6.04.47-4.98,1.41,1.21,1.17,3.28,1,5Z" fill="#683519"/><path d="M289.94,400.27c-1.32.27-2.18-.07-2.12-1.55.04-.96.35-1.9,1.12-2.45,1.59.56.97,2.67,1,4Z" fill="#683519"/><path d="M287.94,374.27h-1.47c-.48,0-.65-.77-.46-1.31.12-.33.52-.55.93-.69,1.05.04,1,1.22,1,2Z" fill="#67340d"/><path d="M288.94,386.27c-.54.05-1-.47-1-1,.53-.05,1,.47,1,1Z" fill="#51260d"/><path d="M159.13,420.26c-.46.86-.18,1.96-.89,2.9l-2.38-1.92-2.22-2.94c-13.82-18.29-15.76-70.19,24.44-93.98,13.37-7.91,23.13-9.94,38.66-11.67,19.77-2.19,43.87,2.26,62.95,9.04-.08,3.24,2.79,16.63-2.12,14.19-25.94-12.87-60.85-18.89-88.21-7.3-5.11,2.17-9.08,5.33-13.23,8.96-24.74,21.6-22.15,53.91-16.99,82.73Z" fill="#43bba0"/><path d="M378.94,358.27c.87-.41,3.48,8.93,1.55,11.75-1.08,1.57-3.7-.66-4.49-1.76-6.18-8.69-9.11-30.62-22-47.14-17.03-21.82-46.65-20.78-67.28-3.4-2.19-4.75.84-8.3,2.38-11.36-.27,1.08.64,1.02,1.09,0,22.47-10.56,53.12-12.48,69.14,9.53,2.75,3.78,5.85,7.04,7.72,11.43,4.06,9.56,9.26,19.47,10.92,30.05-.24,1.29.23,2.13.97.91Z" fill="#43bba0"/><path d="M339.42,315.95c-5.4,4.4-41.94,6.24-44.47,2.63,12.42-8.48,32.24-12.05,44.47-2.63Z" fill="#1b5b53"/><path d="M374.99,458.36c-.29.04-.66-.07-.93.02l1.77-7.08v-31.01c0-2.66-1.63-5.14-.9-8.02.27-1.05-1.45-14.7-1.76-17.05l-1.04-8.02c-.59-4.59.34-9.77-2.17-13.91-1.59-2.62-2.9-5.02-3.99-7.92l-7.15-18.96c-1.83-4.85-3.75-9.59-6.09-14.06-.91-1.73-2.55-2.77-3.2-4.95-.49-1.63-2.54-2.92-3.93-3.82-1.98-1.28-17.45,3.62-22.56,3.57-8.28-.09-8.38,2.09-22.88.89-2.24-.18-4.14-1.3-6.03-.61l-.38-2.14c1.68-.23,2.83,1.07,4.21,1.05l18.78-.28c-2.28.03,11.03-1.44,10.61-1.37,5.38-.83,10.6-1.63,15.77-3.34,2.69-.89,4.08.26,5.53,2.21,15.22,20.54,14.4,37.57,23.44,49.37.6.78,1.81,13.92,2.07,16.29l1.02,9c.27,2.37,1.97,17.21,1.76,18.08-.71,2.87.87,5.36.88,8.01l.08,24.96c0,.2-1.57,9.56-2.91,9.13Z" fill="#43bba0"/><path d="M168.22,422.31c-.06.74-.11,1.67-.9,1.98.98,4.79-5.03-19.45-4.44-14.03.92-2.49-.83-5.21-.83-8l-.02-25.05c0-3.05.92-6.26,1.77-9.1,2.5-8.3,6.12-16.08,12.18-21.65.07,1.16-.44,2.39-1.42,3.49-2.45,2.74-3.58,5.87-5.13,9.09-8.5,17.68-4.36,19.25-5.69,22.99s-.98,6.84-.07,10.46c.83,3.31-.95,10.12,2.66,24.42.5,1.99,2.36,3.46,1.88,5.39Z" fill="#f0bc56"/><path d="M241.94,330.24v1.12s-7.03-.9-7.03-.9c-8.34-1.07-16.52-.36-24.97,0-9.87.42-25.46,9.14-33.03,14.86,7.04-9.56,22.96-15.31,35.27-16.75,6.21-.73,12.37-.23,18.75-.19-1.67-.01,13.43,1.84,11.02,1.86Z" fill="#f0bc56"/><path d="M167.32,424.3l1.67,8.13c-1.18.88-2.95,2.24-4.78,1.54-1.46-.55-1.33-2.69-1.15-3.7.69-3.96-3.13-11.97-.17-20-.59-5.42,5.42,18.82,4.44,14.03Z" fill="#713206"/><path d="M270.79,338.31c-1.12-.15-2.52-.44-3.9-1.07-6.37-2.89-11.82-3.4-15.19-5.87-.73-.68.15-2.13,1.15-2.18,2.67,0,24,5.43,17.94,9.12Z" fill="#71340c"/><path d="M161.94,430.27c-.71-.14-1.39-1.07-2.14-1.05.01-2.34-2.81-3.84-3.94-7.98l2.38,1.92c.71-.94.43-2.03.89-2.9,1.81,2.97,2.33,6.59,2.81,10Z" fill="#a89181"/><path d="M148.79,576.03c-.5-.97-.85-2.05-1.59-2.34-4.13-1.58-2.32,6.01-6.23,5.62,2.84-14.79,34.86-17.99,32.31-9.62-1.03,3.39-12.66.16-18.72,3.33l-5.77,3.02Z" fill="#713206"/><path d="M236.77,580.2l.43-3.08c.49.09.98.1,1.29.3.63.41.65,1.75.43,2.35-.31.87-1.66.25-2.15.43Z" fill="#713206"/><path d="M145.25,581.27c-.27-.74-.51-1.6-.07-2.7l2.75-1.37c-.71,1.47-1.12,3.31-2.68,4.07Z" fill="#713206"/><path d="M145.12,586.28c-.52-.35-1.42-.43-1.29-1.48.11-.88.12-1.75,1.24-1.54-.12,1-.08,2.02.05,3.02Z" fill="#713206"/><path d="M188.94,579.94c.07-.57.63-.53,1-.74.19.65-.49.96-1,.74Z" fill="#71340c"/><path d="M374.06,458.37c-9.81,4.94-20.65,8.16-32.26,5.46.62-.72,16.91-3.2,14.23-5.57,4.79-1.57,8.64-5.31,9.92-10.94,4.94,1.64,2.46-25.92,1.84-30.11l-1.64-11.02c-.36-2.44-1.01-4.16-1.74-6.37-.97-2.93-.71-6.49-3.45-8.58-3.21-2.45-12.24.81-16.08.94l-5.78.19c-2.26.08-4.06,1.04-6.22.05,5.83-6.6,8.31-14.13,11.54-21.71,2.48-5.82,2.51-18.14-2.54-18.47-.5-.47-.89-1.5-1.1-2.14-.25-.75-.22-1.71-1.17-2.5-7.37-6.15-17.64-5.74-24.84.41l-4.43,7.69c-1.7,2.95-.77,7.77-.13,11.38.75,4.27,3.92,7.52,5.8,11.12.97,1.86,2.52,2.72,3.78,4.21,2.18,2.6,3.67,5.42,6.57,7.47,1.02.72,2.11,3.21,1.17,3.61-6.58,2.28-22.38,1.31-25.67,4.79l-3.22-19.81c-2.79-17.17-1.64-34.57-4.53-51.04,1.9-.69,3.79.43,6.03.61,14.5,1.2,14.59-.98,22.88-.89,5.11.05,20.59-4.84,22.56-3.57,1.4.9,3.45,2.19,3.93,3.82.65,2.17,2.29,3.22,3.2,4.95,2.34,4.47,4.26,9.21,6.09,14.06l7.15,18.96c1.09,2.9,2.4,5.3,3.99,7.92,2.51,4.14,1.58,9.32,2.17,13.91l1.04,8.02c.3,2.36,2.02,16,1.76,17.05-.73,2.88.9,5.36.9,8.02v31.01s-1.77,7.08-1.77,7.08Z" fill="#33c1a5"/><path d="M365.96,447.32c-1.28,5.63-5.14,9.37-9.92,10.94l-7.66,2.5c-8,2.73-16.5,2.11-24.88,1.02-12.98-1.69-14.94-11.26-18.43-20.51-.18-.99.3-2.74-1.02-2.97l-.03-1c-.17-6.04-1.6-14.5-1.38-15.76.27-1.63-2.69-23.14,1.21-23.12,1.1,0,13-1.76,15.13-2.01l14.91-1.79c3.12-.37,5.95-.1,9-.54l7.93-1.15c3.09-.45,8.25-2.06,10.54.79,2.09,6.86,3.23,13.42,4.35,20.57l1.09,6.99.1,21.98c0,1.55-.68,2.96-.93,4.06ZM348.87,411.31c4.42-3.26,6.74-8.45,7.87-14.03l-32.74,3.82c-5.21.61-10.23,0-15.43,2.11,9.36,14.86,25.98,18.67,40.3,8.1ZM308.1,424.08c-.33,5.37,3.3,21.34,7.46,27.73,1.93,2.97,7.14,4.59,10.44,5.12,7.68,1.23,14.7-.27,22.14-1.24,5.29-.69,12.11-5.08,13.22-11.02,3.25-17.37-.07-8.91.5-18.48.09-1.59-1.13-3.24-.83-4.89l-.13-5.11c-.06-2.27-.43-4.77-2.02-7.38-7.32,8.36-8.87,11.25-20.64,13.77s-22.2-2.2-30.1-10.53c-1,4.65.19,8.32-.04,12.03Z" fill="#5e302a"/><path d="M340.8,350.1c-.7-.25-1.47-.74-2.21-1.45-6.08-5.87-16.72-4.42-21.05-.84-10,8.26-7.09,21.21.22,29.55,3.24,3.69,10.7,14,13.66,13.98.89,0,1.82-.94,2.41-2.09l6.19-11.92c1.02-1.96,1.83-3.46,2.41-5.67l1.86-7.13c1.07-4.09-.3-10.32-2.4-12.3,5.06.33,5.02,12.65,2.54,18.47-3.23,7.58-5.71,15.12-11.54,21.71,2.15,1,3.96.03,6.22-.05l5.78-.19c3.84-.13,12.87-3.39,16.08-.94,2.74,2.09,2.49,5.65,3.45,8.58.73,2.21,1.37,3.93,1.74,6.37l1.64,11.02c.62,4.19,3.1,31.74-1.84,30.11.25-1.1.94-2.52.93-4.06l-.1-21.98-1.09-6.99c-1.11-7.15-2.26-13.71-4.35-20.57-2.29-2.85-7.45-1.24-10.54-.79l-7.93,1.15c-3.04.44-5.88.17-9,.54l-14.91,1.79c-2.12.25-14.02,2.02-15.13,2.01-3.9-.02-.94,21.49-1.21,23.12-.21,1.26,1.21,9.72,1.38,15.76-1.42,1.66-1.93-13.6-3.18-15.04l.1-19.99c0-1.55,1.11-2.85.92-4,3.29-3.47,19.09-2.51,25.67-4.79.94-.4-.15-2.89-1.17-3.61-2.9-2.05-4.38-4.87-6.57-7.47-1.25-1.49-2.81-2.35-3.78-4.21-1.87-3.6-5.04-6.85-5.8-11.12-.64-3.61-1.56-8.43.13-11.38l4.43-7.69c7.19-6.15,17.47-6.56,24.84-.41.95.79.91,1.75,1.17,2.5Z" fill="#43bba0"/><path d="M305.07,441.27c-1.54-.82-1.18-2.05-1.02-2.97,1.32.23.84,1.98,1.02,2.97Z" fill="#43bba0"/><path d="M133.2,347.34c-.24,2.25-.27,4.49-.04,6.74-.03-.31-.2,6.91-1.19,5.27-1.36-.03-1.77-15.07.12-14.17.7.43,1.2,1.31,1.11,2.16Z" fill="#e1c7a0"/><path d="M150.89,341.39c-5.99.45-12-.32-18.01-.34l.22-11.72c8.61,1.48,17.42,1.42,26.33,2.2-2.4,3.12-6.66,8.28-8.54,9.86Z" fill="#d89633"/><path d="M133.16,354.09c-.22-2.25-.19-4.49.04-6.74,1.06-.14.45-2.11,1.15-2.72,3.26-2.8,7.07-1.07,8.96,2.05,1.3,2.16,1.33,2.96.22,5.11-1.73,3.34-1.69,7.48-4.35,10.58-3.51-1.26-4.28-9.64-6.02-8.29Z" fill="#f3c13d"/><path d="M156,427c1.46.38,2.18,2.26,3.8,2.22-.01,2.3.34,4.61.05,6.9-3.69-2.18-5.35-6.73-7.88-9.93,1.03,1.27,2.76.47,4.04.81Z" fill="#713206"/><path d="M290.33,443.47c.56,4.54,1.33,8.99,2.82,14.18-4.77,1.98-20.98,5.83-25.64,5.22,2.73-9.74-1.36-12.83,3.97-14.06,6.25-1.44,11.95-3.13,17.34-5.65.49-.02,1.05.38,1.51.31Z" fill="#43bba0"/><path d="M340.8,350.1c.22.64.61,1.67,1.1,2.14,2.09,1.98,3.46,8.21,2.4,12.3l-1.86,7.13c-.58,2.21-1.39,3.71-2.41,5.67l-6.19,11.92c-.6,1.15-1.52,2.09-2.41,2.09-2.96.02-10.43-10.29-13.66-13.98-7.31-8.34-10.22-21.29-.22-29.55,4.33-3.58,14.97-5.03,21.05.84.74.71,1.51,1.2,2.21,1.45ZM333.83,379.98c.02-.24.13-.5.09-.74.72.32,1.39-.15,1.76-1.12l1.69-4.48c1.68-4.47,3.62-9.1,3.03-13.92-.59-4.79-4.02-8.36-7.55-9.99-4.39-2.02-8.88-1.16-13,1.68-4.86,3.36-5.96,10.03-3.49,15.45,1.96,4.31,9.96,17.66,14.25,18.61,1.92-1.33,3.02-3.42,3.21-5.5Z" fill="#5e302a"/><path d="M360.9,416.19c-1.69,1.03-1.45,4,.13,5.11-.31,1.65.92,3.3.83,4.89-2.45-.26.81,12.27-2.01,15.12-7.75,7.86-23.18,9.67-33.58,7.53-3.65-.75-7.18-3.62-9.52-6.36-7.24-8.49-5.81-18.86-8.66-18.38.23-3.71-.96-7.39.04-12.03,7.91,8.33,18.83,12.95,30.1,10.53s13.32-5.41,20.64-13.77c1.59,2.61,1.96,5.11,2.02,7.38Z" fill="#9a47cf"/><path d="M348.87,411.31c-14.32,10.56-30.94,6.75-40.3-8.1,5.2-2.1,10.22-1.5,15.43-2.11l32.74-3.82c-1.13,5.58-3.45,10.77-7.87,14.03Z" fill="#9a47cf"/><path d="M361.85,426.18c-.57,9.58,2.74,1.12-.5,18.48-1.11,5.94-7.93,10.33-13.22,11.02-7.43.97-14.45,2.47-22.14,1.24-3.3-.53-8.51-2.15-10.44-5.12-4.16-6.39-7.79-22.36-7.46-27.73,2.84-.47,1.42,9.89,8.66,18.38,2.34,2.75,5.87,5.61,9.52,6.36,10.4,2.14,25.82.33,33.58-7.53,2.81-2.85-.45-15.38,2.01-15.12Z" fill="#8335b1"/><path d="M361.03,421.3c-1.58-1.11-1.82-4.08-.13-5.11l.13,5.11Z" fill="#8335b1"/><path d="M333.92,379.24c-.26-1.58.6-2.95,1.29-4.68l2.58-6.41c.96-2.38,1.74-4.9.56-7.29-1.8,1.22-1.41,2.85-2.59,3.5.04-2.46.25-5.07-1.45-7.31-3.04-4-7.74-4.69-11.43-2.11s-4.21,7.78-1.15,11.55c.86,1.06,1.89,1.74,2.19,2.79-.81.13-1.75.11-2.83.4-.75,3.36,7.64,14.67,10.35,12.13.89-.83,1.27-2.12,2.39-1.81-.19,2.08-1.29,4.17-3.21,5.5-4.29-.96-12.29-14.31-14.25-18.61-2.47-5.42-1.37-12.09,3.49-15.45,4.12-2.85,8.61-3.71,13-1.68,3.53,1.62,6.96,5.2,7.55,9.99.59,4.82-1.35,9.45-3.03,13.92l-1.69,4.48c-.37.98-1.04,1.45-1.76,1.12Z" fill="#8335b1"/><path d="M333.92,379.24c.04.23-.07.5-.09.74-1.13-.31-1.51.97-2.39,1.81-2.71,2.55-11.1-8.76-10.35-12.13,1.08-.29,2.02-.27,2.83-.4.29-.05.6.07.9.06-.46.89.15,1.71.76,1.86s4.51.54,5.37-.46c.3-.35.41-1.02.09-1.53l.83-.04c.55-.03,1.16-.2,1.05-.9.31-.34.65-.67,1.01-.96.51-.19.84-.67.98-1.19.16-.58.27-1.42.86-1.74,1.18-.64.79-2.28,2.59-3.5,1.18,2.4.4,4.91-.56,7.29l-2.58,6.41c-.69,1.72-1.55,3.1-1.29,4.68Z" fill="#9a47cf"/><path d="M335.76,364.36c-.59.32-.71,1.16-.86,1.74-.45.28-.76.71-.98,1.19-.36.3-.7.62-1.01.96-.48.11-.92.4-1.05.9l-.83.04-6.22.13c-.3,0-.61-.11-.9-.06-.3-1.05-1.33-1.72-2.19-2.79-3.06-3.77-2.55-8.96,1.15-11.55s8.39-1.88,11.43,2.11c1.71,2.24,1.49,4.86,1.45,7.31ZM332.58,361.52c0-2.65-2.15-4.8-4.8-4.8s-4.8,2.15-4.8,4.8,2.15,4.8,4.8,4.8,4.8-2.15,4.8-4.8Z" fill="#5e302a"/><path d="M331.02,369.19c.32.51.21,1.18-.09,1.53-.86,1-4.74.61-5.37.46s-1.22-.96-.76-1.86l6.22-.13Z" fill="#8335b1"/><path d="M331.86,369.15c.13-.5.57-.79,1.05-.9.11.7-.5.87-1.05.9Z" fill="#8335b1"/><path d="M333.92,367.28c.21-.48.52-.91.98-1.19-.14.52-.46.99-.98,1.19Z" fill="#8335b1"/><circle cx="327.78" cy="361.52" r="4.8" fill="#f8f5f0"/></svg>