<?xml version="1.0" encoding="UTF-8"?><svg id="Layer_1" xmlns="http://www.w3.org/2000/svg" viewBox="0 0 425.2 623.62"><path d="M376.2,351.09c-2.99.15-1.55-.92-4.8-6.32s-6.5-11.4-11.01-16.22c-1.62-1.73-3.44-3.15-3.36-5.49,3.75,3.45,6.77,7.73,9.77,12.33,1.74,2.67,9.42,14.13,9.4,15.7Z" fill="#683519"/><path d="M300.04,552.09c-1.33-.02-3.45.58-4-1,1.26-.12,3.46-.77,4,1Z" fill="#70391a"/><path d="M306.04,552.09c.15.97-.76,1.07-1.5,1.07s-1.65-.1-1.5-1.07c.98-.07,2.03.18,3,0Z" fill="#70391a"/><path d="M389.03,394.27c-.51.47-1,.12-1.42-.16-.33-.21-1.59-9.58-2.22-12.43l-1.63-7.39c-1.36-6.18-3.8-11.82-6.39-17.52-.78-1.72-1.76-3.06-1.09-4.68,1.69-.2,5.47,10.85,6.39,13.37,2.8,7.66,4.73,15.14,5.79,23.23.27,2.06,1,3.82.57,5.58Z" fill="#683519"/><path d="M366.44,268.87c-.22-1.12.16-2.3.89-3.55,2.77-4.78,6.98-19.7,7.69-25.18,1.12-8.57,2.21-13.91,1.54-23.7l-.69-10.01-3.68-18.37c-.45-2.23-1.63-3.97-1.15-5.97,1.05.33,1.98,1.3,2.24,2.81,1.42,8.15,3.59,15.86,4.51,24.15,1.71,15.41,1.24,30.59-4.32,44.81l-3.87,9.89c-.84,2.14-1.32,4.07-3.17,5.12Z" fill="#683519"/><path d="M343.03,297c-1.05,1.47-2.98,1.82-4.11,4.08,3.98,2.72,5.84,5.82,7.39,9.58s8.28,7.83,9.42,11.32c-10.04-5-10.07-13.58-17.48-20.58-.31-1.8,2.92-4.32,4.78-4.4Z" fill="#683519"/><path d="M355.97,284.14c-.1-1.47.74-2.73,2.19-3.05-.39,1.25-1.15,2.28-2.19,3.05Z" fill="#683519"/><path d="M328.85,575.3l-.97-7.22c-.82-6.11-5.84-10.8-11.43-12.36-2.24-.63-4.16-1.53-6.43-1.57l-9.93-.19c.43,0-13.8-2.08-13.84-1.72.1.91.35,1.47,1.82,1.95l4.97,1.62c4.06,1.33,18.6-1.71,16.01,2.38.53.02,1.51.38,2,.15,1.17-.55,1.31.41,2,.86,1.17.77,2.77.95,4,1.6.59-.55,1.65-1.1,2.43-.69.95.5.39,1.48.58,2.07.29.88,1.19,1.45,1.93,1.88.43.25.85.67.97,1.17.02.08,4.98,9.88.79,10.36-4.77.55-10.72.22-14.72-2.42l-4.75-6.25c-.67-.88-17.17-10.78-17.88-3.36-.44,4.58,18.63,3.53,18.52,17.5-.02,2.69-1.6,4.44-4.21,4.63-3.15.22-6.23-.65-9.01-2.26l-17-9.81c-14.78-8.53-25.44,3.21-28.44-2.73-4.1-8.11,10.41-10.78,14.08-16.88-1.07-.27-1.91-1.51-1.71-2.92.41-2.94-1.57-4.75-4.56-4.97-2.32-.17-4.63.36-6.7-.43-1.11-.43-1.03-2.19-1.32-2.81-.95-.55-1.45-.96-2.13-.94-3.69.33-7.41.38-10.94-.83-1,3.22-1.9,5.84-3.4,8.69-4.82,9.23-16.28,13.61-25.8,8.42-7.69-4.19-12.04-13.34-11.65-21.94.12-2.75,2.42-4.74,1.92-7.11-1.65.05-3.31-.04-4.96-.19-.54.53-1.17,1.26-1.6,2.43-2.71,7.35-10.14,16.16-18.55,11.45-1.9-1.07-2.66-5.35-.64-6.46,5.67-3.12,11.22-5.65,14.99-10.97,2.18-.13,3.89.09,5.6-.21-1.42-6.41,10.75-.63,12.16-4.4.22-.48-.41-.85-1.06-.79-6.12.54-11.79-.27-17.93-1.01-28.54-3.45-55.61-12.27-76.44-32.4-14.56-14.08-24.29-31.94-27.36-51.34-1.09-6.86-2.99-13.06-1.8-21.01,4.41-6.63,8.29-13.16,10.65-20.28-4.34-.78-7.83,7.8-9.63,11.78-.69,1.52-3.36,3.27-4.49,1.44-5.45-8.86,2.55-16.68-2.94-19.12-2.98,4.31-2.85,18.2-.47,24.46.1.26.99,14.49,1.64,18.51l1.12,6.83c.55,3.34,1.93,6.2,1.92,9.2,0,.31.22.71.13,1,.63-.66,4.12,9.57,3.86,10,5.54,9.55,8.07,15.57,15.88,25.05-20.36-5.2-24.36-18.64-29.9-31.91l-1.89-4.52-3.02-14.19c-.33-1.53-1.98-1.99-2.86-1.99-3.62.02-2.19,7.7-1.7,9.77,1.79,7.62,4.43,14.76,7.41,22.82-9.72-7.82-18.35-28.07-19.14-39.16-.14-1.99-1.26-3.83-1.02-5.87.25-2.12-1.26-4.01-.81-6.15.13-.59-.08-1.25-.09-1.86l-.06-2c-.83.05-.6,1.11-1.76,2.01-.69.32-.3-28.97,2.93-24.01.28-5.39,3.07-10.71,4-16.17-1.16-.91-.5-2.35-1.29-3.99-7.49,10.7-9.23,38.63-7.69,50.14l1.06,8c.95,7.16,6.71,23.96,10.4,29.36l5.72,8.37c2.79,4.09,8.05,7.31,8.61,10.21.2,1.01,1.11,1.64,1.98,2.01,1.54-.27,3.03.5,4.08,2.14l11.83,6.27c6.01,3.18,12.1,5.44,18.96,5.96,1.03.08.81,1.18.95,1.56.3.86,1.26,1.78,2.2,2.04,2.86-.06,4.1,3.03,6.43,4.6l12.6,8.52c1.37.92.39,3.31,1.08,4.64,2.12,4.12,3.41,8.47,5.99,12.17.56.81,5.91,6.99,5.94,8.09.02.47.65.8.93,1.05,2.3.2,5.92,2.1,5.95,4.9l.14,10.15c.03,1.88-1.02,2.65-2.2,2.92-9.28,5.27-24.42.29-35.83,7.24-5.79,3.53-9.93,9.24-10.47,15.93-.35,4.4,1.82,8.1,6.01,9.16,4.85,1.23,9.38.26,14.4-.6.61,4.59,3.65,7.7,2.56,8.9,2.6,2.16,5.43,4.07,8.7,4.16.33-.37.73-.76,1.28-.76.42,0,.76.24,1.05.51.03,0,.07-.01.1-.02,1.19-.3,2.33-.69,3.43-1.1.91-.8,1.84-1.55,2.85-1.98.4-.17.8-.3,1.2-.39.03-.09.07-.18.12-.27.2-.41.42-.92,1.13-1.33l16.88-9.9c4.41-2.59,9.09-3.25,14.07-1.66,6.08,1.94,12.71,2.6,16.27-2.87,2.03-3.13,1.85-6.85.08-10.34-4.85-9.58-15.02-8.84-15.85-14.95,7.58,2.34,13.63-.02,18.46-5.02l3.86,8.4c6.57,14.32,25.22,18.79,37.63,8.79,5.42-4.36,8.14-10.31,10.45-17.55,4.4,4.78,11.92,8.32,18.45,4.91,2.58,5.7-14.14,5.91-16.6,18.92-.9,4.78,1.66,9.16,6.28,10.55,9.58,2.88,13.19-5.12,23.8.17,5.52,2.76,10.68,5.66,15.82,9.15,1.22,1.05,4.13,1.01,4.03,2.59.28.19.56.41.83.67,1.76,1.74,6.34,1.6,8.69,1.41,2.93-.24,5.31-1.72,7.89-2.65-.04-.36-.12-.72-.03-1.05l1.7-6.09c.31-1.11.3-2.13.88-2.5,2.34-1.5,6.68,1.15,13.19.85,2.23-.1,6.01-2.58,5.67-5.05ZM134.05,521.04c-2.49-3.49-4.64-6.78-5.89-11.24,11.74,5.59,22.89,9.58,35.1,11.9l11.97,3.06c-11.32,11.1-31.24,10.24-41.18-3.72ZM168.67,558.22c3.05,1.83,5.92,3.24,8.38,5.89,1.64,1.77,3.19,5.09,1.14,7.06-5.03,4.82-13.81-6.12-28.6,2.62l-13.27,7.84c-3.25,1.92-13.35,7.48-15.53,1.87-1.81-4.65.34-9.69,4.18-12.46,7.53-5.42,12.35-2.79,13.05-7.56.87-5.86-14.85-1.09-20.42,6.91-1.83,2.63-2.92,4.72-6.72,4.93-3.13.17-7.48,1.93-10.64.08-2.39-3.94.59-9.27,4.04-12.01,4.55-3.61,9.83-5.04,15.67-5.37l11.11-.63c3.9-.22,7.47-.93,11.15-2.15,5.75-1.89,3.72-12.18,3.98-17.17-.02-.87.33-1.1.72-1.01,4.33,1.1,8.89,1.08,14.17,1.01,1.1,10.4-2.3,14.22,7.58,20.13Z" fill="#71340c"/><path d="M375.02,240.14c-.71,5.49-4.93,20.4-7.69,25.18-.73,1.25-1.11,2.43-.89,3.55l-.61,1.47c-.38-.15-.89-.23-1.52.11-1.18,5.39-5.31,5.24-5.27,9.73-.27.25-.49.82-.87.91-1.45.32-2.29,1.58-2.19,3.05-.35.26-.86.82-1.14,1.14-3.77-.11-2.68,2.83-8.5,7.09-1.31.96-1.97,2.18-2.27,3.4-.12.5-.73.85-1.02,1.24-1.86.08-5.09,2.6-4.78,4.4,7.41,7,7.44,15.58,17.48,20.58.5.25.89.7,1.3,1.08-.09,2.34,1.73,3.76,3.36,5.49,4.52,4.82,7.6,10.57,11.01,16.22s1.82,6.47,4.8,6.32c0,.3.19.73.08,1-.67,1.63.31,2.97,1.09,4.68,2.59,5.69,5.02,11.34,6.39,17.52l1.63,7.39c.63,2.86,1.89,12.22,2.22,12.43.42.27.91.62,1.42.16-.12.48-.03,1.22.04,1.69-.59-.44-.88.4-.9,1.15l-.42,17.73-2.01,12.07c-1.24,7.46-6.43,18.45-6.54,19-2.19-.6-.78-3.52-1.36-6.84-.05-.3-.04-.69.04-.98,1.15,0,1.22-1.27,1.13-2.16-.11-1.01.92-1.8,1.07-2.65.51,1.94,2.64.61,1.89-1.07l2.86-14.16.21-23.72c-.63-.42-1.77-.27-2.03-.23-2.95-27.6-16.41-54.35-36.73-74.29-1.68,3.39-.29,6.25-.94,9.04-.41,1.76-.22,3.33.49,5.46.84,2.48-.36,5.18.3,7.74s.83,5.17,1.21,7.82c1.36,9.35,3.77,18.05,5.63,27.26l1.69,8.34c.47,2.32.52,4.63.38,6.62-2.43,1.54.19,9.09-1.52,14.9-.41,1.41-3.41,1.79-4.59,1.11-2.85-1.64-4.09-4.42-5.49-7.18-1.12-2.2-8.63-17.56-8.8-18.25-.9-3.62-1.95-6.88-4.13-10.02-1.95-2.8-.66-6.22-3.47-5.56-.05-.26.04-.76.15-1,.53-1.04.92-2.2.88-3.33-.05-1.55-1.33-2.52-2.78-2.73.03-.65-.18-1.3-.25-1.93.58-.1,1.25-.91.99-1.49-.38-.84-1.4-.51-1.99-.51l.06-2.05c1.13-.57,2.15-2.03,1.76-3.75l-2.38-10.51c-.25-1.12-1.33-2.27-2.17-1.94l-.28-4.74,1.59-10.12c-.07.42-.42-8.91-1.2-9.84-.26-.32-1-.03-1.34-.26s-.56-.8-1.02-.89c-.36-1.59-1.27-3.13-1.2-4.77,6.48-4.54,13.58-7.98,20.04-13.24,14.91-12.15,26.22-27.64,30.96-45.87.15-1.33.18-2.66.16-4,.54-.09,1.04-.47,1.22-1,.09-.27.12-.64.1-.92,1.56-.72,2.84-2.17,4.66-2.03ZM350.14,405.09c.98-2.26.56-3.96.65-6.04-.58-6.77-1.76-13.03-3.3-19.62-4.62-19.74-9.76-44.18-7.06-64.37.63-4.68-2.38-9.44-7.22-9.67-2.74-.13-5.32,1.93-6.9,3.87-2.57,15.65,1.4,40.55,6.02,55.69,4.42,14.47,8.2,23.44,14.96,36.9.88,1.24,1.16,2.56,2.85,3.24Z" fill="#6a3511"/><path d="M99,302.99c.32-.07.96.21,1.25.33-.91.79,1.17,15.76,2.48,15.78.62,1.24-.38,10.19,1.31,8.99v2c-.23,0-1.54-.27-1.73.23-.43.68-.72,10.35.73,8.77.16.96-.64,2.24-.39,3.15-2.69-.09-3.36,6.12-1.73,7.81,1.03,5.62-7.54,31.49-10.33,35.51-.96,1.39-.25,3.76-1.75,5.03-1.28,1.09-1.37,2.31-1.73,3.39-4.34-.78-7.83,7.8-9.63,11.78-.69,1.52-3.36,3.27-4.49,1.44-5.45-8.86,2.55-16.68-2.94-19.12-.4-2.58.21-5.19.88-8.08l3-13,3.33-18.83c.59-3.36,1.78-16.82,1.6-19.15-.24-3.03,1.4-6.27-.3-9.84-13.49,13.29-23.91,29.11-30.51,46.99-.58,1.58-.83,2.94-1.84,3.74-1.16-.91-.5-2.35-1.29-3.99-7.49,10.7-9.23,38.63-7.69,50.14l1.06,8c.95,7.16,6.71,23.96,10.4,29.36l5.72,8.37c2.79,4.09,8.05,7.31,8.61,10.21-12.81-7.25-24.54-33.56-26.51-48.34-.33-2.5-1.23-5.07-1.32-7.61-.27-7.41-.32-14.52.02-21.95.12-2.61.96-5.18,1.4-7.87,3.5-21.28,12.44-40.88,25.7-57.74,4.86-6.17,10.05-11.2,15.42-16.78,1.29-1.34,2.49-8.67,7.24-9.7.96-.21,1.98-.29,2.8-.89,2.56,1.33,7.51,1.18,11.23,1.86ZM74.69,405.76c3.6-4.95,5.45-10.07,7.89-15.37,11.42-24.8,18.08-52.72,16.11-79.97-.14-1.87-6.45-7.72-11.54-3.2-2.3,2.04-3.67,4.55-3.04,7.9,2.96,15.57-2.47,43.96-6.05,59.92-1.47,6.54-6.48,25.91-3.37,30.73Z" fill="#67340d"/><path d="M355.04,392.09c1.89-.9.5,7.54,1.2,10.88.76,3.61-.55,6.29-1.25,9.52-.3,1.38-1.16,13.06-1.73,17.65-1.3,10.63-4.13,19.56-7.29,28.94-.63.47-1.46,1.17-1.89,2.27-3.3,8.29-8.33,14.9-14.2,21.58,15.79-1.96,27.22-18.43,30.22-31.91,2.87-5.26,3.7-11.34,4.6-17.64.28-1.98,2.13-3.64,4.03-2.71,1.72.84,1.72,3.02,1.51,4.43-1.4,9.73-4.01,19.14-7.92,28.17-2.55.98-3.7,3.52-5.61,5.53-2.21,2.32-3.28,4.53-2.71,7.57.09.5-.15,1.06-.09,1.57-.22.13-.5.14-.73.25l-2.15-.09c-.71-.04-1.5-.16-2.38.09-.73.2-.79,1.15-.62,1.91-.41.68-.72,1.42-.91,2.19-.25-.04-.59.19-.81.09-.88-.39-13.56,6.33-17.28,4.66-1.53-.17-3.12-1.61-5-1.32-2.52.38-4.78,5.75-6.26,3.38-.06-1.06.66-1.73,1.62-2.68,11.42-11.21,19.78-24.85,24.57-40.2.99-3.17,1.63-6.07,1.9-8.88l.31-3.24c.06-.65.3-1.35.19-2,1.58-3.38,1.83-7.27,1.66-11,1,.49.63,1.73,1.57,3.05.49-.19,1.46-9.18-1.3-8.26.1-1.48-.8-2.76-1.82-4.17-4.87-6.73-11.02-20.25-13.94-28.24l-2.13-5.81c-.29-.78-.74-1.34-1.16-1.57.08-.25.01-.74-.07-1-.81-2.64-1.62-5.29-2.15-8,2.81-.66,1.52,2.76,3.47,5.56,2.18,3.13,3.23,6.39,4.13,10.02.17.69,7.69,16.06,8.8,18.25,1.41,2.77,2.64,5.55,5.49,7.18,1.17.67,4.17.3,4.59-1.11,1.71-5.81-.9-13.36,1.52-14.9Z" fill="#713206"/><path d="M377.04,450.09c-1.24,7.8-9.64,12.36-9.99,17.08-.32.18-.81.68-1.09.91-3.84-.99-9.36,9.64-11.94,8.28-.58-3.04.5-5.25,2.71-7.57,1.91-2.01,3.06-4.55,5.61-5.53.48.21,1.15.13,1.57-.2.93-.73,2.64-.4,3.75-1.4,1.01-.91.2-2.75.4-3.68.32-.18.41-.81.81-.96,4.53-.38,2.18-6.65,8.18-6.94Z" fill="#6a3511"/><path d="M367.05,467.16c.35-4.72,8.75-9.28,9.99-17.08,1.45-.91,1.85-2.54,2.17-4.18.11-.55,5.3-11.54,6.54-19l2.01-12.07.42-17.73c.02-.75.31-1.59.9-1.15,2.7,4.9-.23,19.67-.13,23.18.16,5.88-5.95,22.82-8.74,29.19-1.15,2.64-2.42,4.44-4.06,6.94l-3.2,4.88c-1.76,2.68-3.29,5.51-5.9,7.02Z" fill="#683519"/><path d="M346.32,482.36c.18.15.42.66.08.87-6.77,4.28-14.12,6.35-22.17,6.69-5.23,5.4-10.87,9.35-17,13.35-1.29.84-3.51,1.8-3.91,3.46-5.13,20.87-18.25,26.06-18.73,27.96-.64,2.54-1.67,15.19,1.5,15.26,2.09.05,3.52,1.72,5.21,1.57l4.75-.44c.55,1.58,2.67.98,4,1,.99.02,2.01.07,3,0-.15.97.76,1.07,1.5,1.07s1.65-.1,1.5-1.07c1.38-.26,2.68.33,4.43.55,8.86,1.16,16.7,6.26,19.92,14.88,1.32,3.55,1.66,8.87-1.23,11.61-6.6,6.28-16.4-.21-18.13,2.51-1.51,2.38.58,4.78-3.61,6.44l1.7-6.09c.31-1.11.3-2.13.88-2.5,2.34-1.5,6.68,1.15,13.19.85,2.23-.1,6.01-2.58,5.67-5.05l-.97-7.22c-.82-6.11-5.84-10.8-11.43-12.36-2.24-.63-4.16-1.53-6.43-1.57l-9.93-.19c.43,0-13.8-2.08-13.84-1.72-.1-.86-1.28-1.55-2.16-2.16-3.57-2.44-1.25-6.78-2.06-12.98-.32-2.45,1.36-3.7,2.07-5.24.49.94,8.7-6.08,7.72-6.78,1.71.2,1.88-1.38,2.59-2.73l8.62-16.34c2.4-4.55,8.46-6.51,12.07-9.92,1.47-1.39,3.3-2.22,4.69-4.35,2.24-3.43,8.21-3.04,9.26-4.73,3.72,1.67,16.4-5.05,17.28-4.66Z" fill="#683519"/><path d="M100.84,489.95c-7.26-.3-14.52-1.79-21.08-5.86l-13.44-8.34c-.78-.48-1-1.37-1.31-1.74,1.54-.27,3.03.5,4.08,2.14l11.83,6.27c6.01,3.18,12.1,5.44,18.96,5.96,1.03.08.81,1.18.95,1.56Z" fill="#67340d"/><path d="M135.07,530.01c-3.14-.38-9.55-11.23-11-14.66s-2.2-6.94-4.17-10.14c-5.01-3.1-13.76-9.24-16.86-13.22,2.86-.06,4.1,3.03,6.43,4.6l12.6,8.52c1.37.92.39,3.31,1.08,4.64,2.12,4.12,3.41,8.47,5.99,12.17.56.81,5.91,6.99,5.94,8.09Z" fill="#67340d"/><path d="M139.9,549.03c.14-4.71.43-9.57-.09-14.67l-3.8-3.3c2.3.2,5.92,2.1,5.95,4.9l.14,10.15c.03,1.88-1.02,2.65-2.2,2.92Z" fill="#67340d"/><path d="M365.96,468.08c-2.73,4.37-7.6,7.26-12.03,9.85-.06-.51.18-1.07.09-1.57,2.58,1.36,8.1-9.28,11.94-8.28Z" fill="#683519"/><path d="M353.2,478.18c.07,2.75-3.3,1.55-6.07,4.1.2-.77.5-1.51.91-2.19,1.33,0,2.63-.67,3-2l2.15.09Z" fill="#683519"/><path d="M344.88,437.27l1,.06c-.27,2.81-.91,5.7-1.9,8.88-4.79,15.35-13.15,28.99-24.57,40.2-.96.95-1.69,1.62-1.62,2.68-.65.12-1.19.65-1.8.87-3.47,1.27-12.05,12.1-38.85,21.46-25.27,8.82-50.23,9.81-76.09,9.41.22-.48-.41-.85-1.06-.79-6.12.54-11.79-.27-17.93-1.01-28.54-3.45-55.61-12.27-76.44-32.4-14.56-14.08-24.29-31.94-27.36-51.34.28.37.57.65.85.13-.19,1.14,1.31,2.34,1.75,3.6,3.8,10.7,15.29,26.79,24.25,34.18l8.16,6.73c4.86,4.01,9.88,6.91,15.49,9.76,25.65,13.03,55.54,17.33,84.29,17.25,36.55-.1,70.64-6.46,100.27-28.51,8.62-6.42,15.04-14.21,21.34-22.76,4.32-5.86,7.16-12.21,10.23-18.39Z" fill="#d89633"/><path d="M74.25,447.09c0,.31.22.71.13,1-1.13,1.84,1.14,7.56-.24,7.02-4.87.95-6.12-4.04-9.91-3.88l-1.89-4.52-3.02-14.19c-.33-1.53-1.98-1.99-2.86-1.99-3.62.02-2.19,7.7-1.7,9.77-3.91.27-10.08-17.25-11.74-16.34-.14-1.99-1.26-3.83-1.02-5.87,1.21,1.09,1.62-5.04.51-6-.31-.26-.83-.44-1.32-.15.13-.59-.08-1.25-.09-1.86,1.02-.06,1.17-1.7.98-2.9-.78-4.91,2.7-20.6,4.46-26.27l1.68-5.41c3.23-10.4,18.45-38.94,27.78-44.35,2.39-.71-.31,16.39-.65,18.19l-3.29,17.76-4.72,22.21c-1.94,9.14-1.21,10.33-1.15,19.61,3.71,5.55.74,7.64,2.36,15.59.77,3.76,3.25,23.56,5.69,22.57Z" fill="#f5c141"/><path d="M146.2,538.09c.47-.11.73-.54.72-1.01,4.33,1.1,8.89,1.08,14.17,1.01,1.1,10.4-2.3,14.22,7.58,20.13,3.05,1.83,5.92,3.24,8.38,5.89,1.64,1.77,3.19,5.09,1.14,7.06-5.03,4.82-13.81-6.12-28.6,2.62l-13.27,7.84c-3.25,1.92-13.35,7.48-15.53,1.87-1.81-4.65.34-9.69,4.18-12.46,7.53-5.42,12.35-2.79,13.05-7.56.87-5.86-14.85-1.09-20.42,6.91-1.83,2.63-2.92,4.72-6.72,4.93-3.13.17-7.48,1.93-10.64.08-2.39-3.94.59-9.27,4.04-12.01,4.55-3.61,9.83-5.04,15.67-5.37l11.11-.63c3.9-.22,7.47-.93,11.15-2.15,5.75-1.89,3.72-12.18,3.98-17.17Z" fill="#f68c2f"/><path d="M315.98,489.96c-.28,2.06-1.17,4.04-.89,6.14-3.61,3.41-9.67,5.37-12.07,9.92l-8.62,16.34c-.71,1.35-.88,2.93-2.59,2.73-.01-.66-.31-1.31-.73-1.56-.72-.42-1.4-.42-2.02-.31,3.22-3.49,5.84-7.78,6.95-13.44-15.39,7.37-30.67,12.02-46.97,14.5,2.38,3.47,5.5,4.77,8.84,5.99,12.2,4.46,21.39,1.77,30.32-6.11-.66,6.28-1.39,1.88-4.1,7.72-.71,1.54-2.39,2.78-2.07,5.24.81,6.2-1.52,10.54,2.06,12.98.89.61,2.07,1.3,2.16,2.16.1.91.35,1.47,1.82,1.95l4.97,1.62c4.06,1.33,18.6-1.71,16.01,2.38l-7.96-.25c-2.45-.08-4.43-.81-7.06-.9-4.42-.15-9.43-.7-13.2-2.93-2.6-1.54-2.12-5.75-2.02-8.04.02-.43.17-1.12-.54-1,.14-2.47.33-4.88-.41-8.02-4.85,1.18-9.4,1.06-14.48.96.41,3.49.1,15.95-3.04,15.99-1.07-.27-1.91-1.51-1.71-2.92.41-2.94-1.57-4.75-4.56-4.97-2.32-.17-4.63.36-6.7-.43-1.11-.43-1.03-2.19-1.32-2.81,3.43,1.98,10.73,1.76,11.51-2.53,1.18-6.47-5.99-3.36-16.23-14.66-1.06-1.17-4.33-.44-5.37.4.8,6.34,4.85,11.08,7.96,15.85-3.69.33-7.41.38-10.94-.83.84-2.71-.25-5.73-1.25-8.58l-2.19-6.22c-11.19.51-22.05.33-33.35-.05-1.09-.04-1.46,2.06-2.13,2.92-1.65.05-3.31-.04-4.96-.19.11-1.24-.07-2.54-.2-3.77-1.42-6.41,10.75-.63,12.16-4.4,25.86.4,50.82-.59,76.09-9.41,26.8-9.35,35.38-20.19,38.85-21.46ZM194.04,526.59c0-.28-.22-.5-.5-.5s-.5.22-.5.5.22.5.5.5.5-.22.5-.5Z" fill="#713206"/><path d="M232.97,541.11c-1,3.22-1.9,5.84-3.4,8.69-4.82,9.23-16.28,13.61-25.8,8.42-7.69-4.19-12.04-13.34-11.65-21.94.12-2.75,2.42-4.74,1.92-7.11.67-.86,1.05-2.96,2.13-2.92,11.3.38,22.17.57,33.35.05l2.19,6.22c1,2.85,2.1,5.87,1.25,8.58Z" fill="#d89633"/><path d="M175.23,524.77c-11.32,11.1-31.24,10.24-41.18-3.72-2.49-3.49-4.64-6.78-5.89-11.24,11.74,5.59,22.89,9.58,35.1,11.9l11.97,3.06Z" fill="#d89633"/><path d="M78.85,329.03c-.65-.09-1.41-.11-1.97.3s-.71,1.21-.88,1.82c-9.33,5.42-24.55,33.95-27.78,44.35l-1.68,5.41c-1.76,5.67-5.24,21.36-4.46,26.27.19,1.2.04,2.84-.98,2.9l-.06-2v-10c-.2-1.57.71-3.23.81-5.17l.35-6.83c.28-5.39,3.07-10.71,4-16.17,1-.81,1.25-2.16,1.84-3.74,6.6-17.88,17.02-33.7,30.51-46.99,1.7,3.58.06,6.81.3,9.84Z" fill="#f8d47d"/><path d="M74.14,455.11c.34,1.98,2.15,3.16,4.11,2.98,5.54,9.55,8.07,15.57,15.88,25.05-20.36-5.2-24.36-18.64-29.9-31.91,3.78-.16,5.04,4.83,9.91,3.88Z" fill="#d89633"/><path d="M188.88,525.23c.13,1.23.32,2.53.2,3.77-.54.53-1.17,1.26-1.6,2.43-2.71,7.35-10.14,16.16-18.55,11.45-1.9-1.07-2.66-5.35-.64-6.46,5.67-3.12,11.22-5.65,14.99-10.97,2.18-.13,3.89.09,5.6-.21Z" fill="#d89633"/><path d="M246.04,542.88c-.95-.55-1.45-.96-2.13-.94-3.11-4.77-7.17-9.52-7.96-15.85,1.04-.84,4.31-1.57,5.37-.4,10.24,11.3,17.41,8.19,16.23,14.66-.78,4.29-8.08,4.52-11.51,2.53Z" fill="#d89633"/><path d="M78.85,329.03c.18,2.33-1.01,15.79-1.6,19.15l-3.33,18.83-3,13c-.67,2.89-1.28,5.49-.88,8.08-2.98,4.31-2.85,18.2-.47,24.46.1.26.99,14.49,1.64,18.51l1.12,6.83c.55,3.34,1.93,6.2,1.92,9.2-2.44.99-4.93-18.82-5.69-22.57-1.62-7.95,1.35-10.04-2.36-15.59-.07-9.29-.8-10.48,1.15-19.61l4.72-22.21,3.29-17.76c.33-1.8,3.03-18.9.65-18.19.17-.61.32-1.41.88-1.82s1.32-.39,1.97-.3Z" fill="#f0bc56"/><path d="M54.75,440.3c1.79,7.62,4.43,14.76,7.41,22.82-9.72-7.82-18.35-28.07-19.14-39.16,1.66-.91,7.82,16.6,11.74,16.34Z" fill="#d89633"/><path d="M107.38,324.48c-1.89,2.38-.96,5.43-1.49,8.54-1.18,6.93-.75,7.47-2.16,14.85l-2.08,10.88c-.46,2.43-.95,4.86-1.82,7.19l-3.34,8.86c-2.02,5.35-3.55,10.5-6.07,15.64-2.78,5.68-3.96,11.21-7.68,16.35-1.88,2.6-2.81,5.64-5.08,8.29l.66,13.81c.12,2.44,1.15,4.41.79,6.53-.28.52-.56.24-.85-.13-1.09-6.86-2.99-13.06-1.8-21.01,4.41-6.63,8.29-13.16,10.65-20.28.36-1.09.46-2.3,1.73-3.39,1.5-1.28.79-3.64,1.75-5.03,2.79-4.02,11.36-29.89,10.33-35.51,1.11.8,2.29-5.75,1.73-7.81-.25-.91.55-2.19.39-3.15.33-.37,1.07-.89,1.06-1.93l-.06-7.07v-2c1.64-1.21.83-3.27,1-5,.87.26,1.51,1.06,2.34,1.39Z" fill="#f0bc56"/><path d="M42.21,386.09l-.35,6.83c-.1,1.94-1.01,3.6-.81,5.17-.31.34-1.14.72-.94,1.37.16.49.43.79.94.63v8c-.83.05-.6,1.11-1.76,2.01-.69.32-.3-28.97,2.93-24.01Z" fill="#67340d"/><path d="M78.25,458.09c-1.96.18-3.77-1.01-4.11-2.98,1.39.54-.89-5.18.24-7.02.63-.66,4.12,9.57,3.86,10Z" fill="#f0bc56"/><path d="M42,418.09c.25-2.12-1.26-4.01-.81-6.15.49-.3,1.01-.12,1.32.15,1.11.96.7,7.09-.51,6Z" fill="#f8d47d"/><path d="M146.2,538.09c-.02-.87.33-1.1.72-1.01,0,.47-.25.89-.72,1.01Z" fill="#d89633"/><path d="M317.88,307.2c-.07,1.65.84,3.18,1.2,4.77-.88.74-2.12,1.85-3.61,2.5l-17.47,7.61c-28.32,12.33-96.86,13.53-131.34,8.44-14.07-2.07-27.38-5.08-40.49-9.16-7.07-2.2-13.66-6.05-21.53-8.95l-.46,6.67h-1.45c-1.31-.02-3.39-14.99-2.48-15.77,15.14,8.2,31.16,14.5,48.65,18.16,37.57,7.85,75.29,8.83,113.18,2.75,17.48-2.8,33.66-7.28,49.62-14.49,2.13-.96,4.37-1.98,6.18-2.53Z" fill="#71340c"/><path d="M350.14,405.09c-1.69-.68-1.97-2-2.85-3.24-6.76-13.46-10.54-22.43-14.96-36.9-4.63-15.14-8.59-40.04-6.02-55.69,1.59-1.93,4.17-4,6.9-3.87,4.85.23,7.85,4.99,7.22,9.67-2.7,20.19,2.44,44.63,7.06,64.37,1.54,6.59,2.72,12.85,3.3,19.62-.09,2.08.33,3.78-.65,6.04Z" fill="#43bba0"/><path d="M383.01,394.09c.25,2.3-.02,4.51.72,7.27,1.64,6.1-1.18,8.7-.27,15.56.23,1.77-1.6,3.54-1.49,5.16-.63.27-1.33-1.1-.99-1.94,2.08-5.15.9-17.06.51-23.02-.51-7.87-3.78-16.48-6.77-23.48s-8.21-19.84-12.67-25.68l-5.1-6.69c-3.01-3.95-5.09-8.39-8.85-11.16-.83-.61-1.4-1.75-2.75-1.28.65-2.79-.74-5.65.94-9.04,20.32,19.93,33.78,46.68,36.73,74.29Z" fill="#f8d47d"/><path d="M348.09,330.13c-.63-.4-1.51,1.08-1.21,1.98,1.24,3.76,1,7.12,1.34,10.95-.04-.51,2.33,15.79,2.11,14.81l4.06,18.02c.84,3.75,4.18,18.14,3.76,21.22-.6,4.5.51,9.33-1.04,13.53-1.45,3.93-.91,7.33-1.36,11.44l-.97,8.97c-1.22,11.31-1.5,10.08-4.5,20.34-.59,2.03-1.81,3.65-1.1,5.56l-3.22,2.14c3.16-9.38,5.99-18.3,7.29-28.94.56-4.6,1.42-16.27,1.73-17.65.71-3.24,2.02-5.91,1.25-9.52-.71-3.34.69-11.78-1.2-10.88.14-1.99.09-4.29-.38-6.62l-1.69-8.34c-1.86-9.21-4.28-17.92-5.63-27.26-.38-2.65-.52-5.15-1.21-7.82s.54-5.26-.3-7.74c-.72-2.13-.9-3.7-.49-5.46,1.35-.46,1.92.67,2.75,1.28Z" fill="#f0bc56"/><path d="M320.1,312.87l-.05,10.22c-.93-.04-1.75.46-2.23,1.24-4.82,2-10.68,4.09-14.95,6.82l-1.66-.25c-.04-2.64-3.15-5.5-3.2-8.82l17.47-7.61c1.48-.65,2.73-1.75,3.61-2.5.45.09.69.67,1.02.89Z" fill="#d89633"/><path d="M381.09,426.27c-.2,2.36-.59,4.68-1.01,7.01-.15.86-1.18,1.65-1.07,2.65-.97,0-.93,1.45-1.13,2.16-.08.29-.09.69-.04.98-.62.18-.75.84-1.05,1.66-2.81,7.68-5.14,10.04-7.94,16.3-.4.15-.49.77-.81.96-1.98,1.13-2.75,3.39-4.14,5.08-.42.33-1.1.41-1.57.2,3.9-9.03,6.51-18.43,7.92-28.17,1.1.9.44,2.27,1.16,4.31,2.02-1.11,2.8-2.57,3.66-4.32l3.61-7.35c.55-1.12,1.53-1.5,2.42-1.46Z" fill="#d89633"/><path d="M320.05,323.09l-.05,8.07c0,1.02.66,1.58,1.04,1.94l.28,4.74c.1,1.78.04,3.29.42,5.5l1.19,6.89c.28,1.6-.17,3.17,1.18,3.82l-.06,2.05c-.02.78-.02,1.99,1,2,.06.64.28,1.29.25,1.93-.02.38.76,7.13,1.91,6.07-.11.24-.2.74-.15,1,.53,2.71,1.34,5.36,2.15,8-2.55-1.2-5.24-10.71-5.98-14.2l-3.32-15.76c.56-2.54-.23-4.72-.89-7.04l.03-10.03c0-1.55-1-2.64-1.2-3.73.48-.78,1.3-1.28,2.23-1.24Z" fill="#f0bc56"/><path d="M380.08,433.27c.42-2.33.81-4.65,1.01-7.01.12-1.38.98-2.74.88-4.18-.12-1.62,1.72-3.39,1.49-5.16-.91-6.86,1.91-9.47.27-15.56-.74-2.77-.47-4.97-.72-7.27.27-.04,1.4-.19,2.03.23l-.21,23.72-2.86,14.16c.76,1.69-1.38,3.01-1.89,1.07Z" fill="#713206"/><path d="M321.04,333.09c-.39-.35-1.05-.92-1.04-1.94l.05-8.07.05-10.22c.34.23,1.07-.06,1.34.26.77.92,1.13,10.26,1.2,9.84l-1.59,10.12Z" fill="#71340c"/><path d="M324.1,354.04c-1.35-.65-.9-2.22-1.18-3.82l-1.19-6.89c-.38-2.22-.32-3.73-.42-5.5.84-.33,1.91.82,2.17,1.94l2.38,10.51c.39,1.72-.64,3.18-1.76,3.75Z" fill="#713206"/><path d="M379.21,445.91c-.32,1.64-.71,3.27-2.17,4.18-6.01.29-3.66,6.56-8.18,6.94,2.8-6.25,5.13-8.62,7.94-16.3.3-.82.43-1.48,1.05-1.66.58,3.32-.83,6.24,1.36,6.84Z" fill="#713206"/><path d="M327.19,366.09c-1.15,1.06-1.92-5.68-1.91-6.07,1.45.21,2.73,1.18,2.78,2.73.04,1.14-.35,2.3-.88,3.33Z" fill="#713206"/><path d="M325.04,358.09c-1.02,0-1.02-1.22-1-2,.59,0,1.61-.33,1.99.51.26.58-.41,1.38-.99,1.49Z" fill="#713206"/><path d="M377.89,438.09c.2-.71.15-2.16,1.13-2.16.1.89.03,2.16-1.13,2.16Z" fill="#713206"/><path d="M74.69,405.76c-3.11-4.81,1.9-24.18,3.37-30.73,3.58-15.95,9.01-44.34,6.05-59.92-.64-3.35.73-5.86,3.04-7.9,5.09-4.52,11.41,1.33,11.54,3.2,1.96,27.25-4.69,55.17-16.11,79.97-2.44,5.3-4.28,10.41-7.89,15.37Z" fill="#43bba0"/><path d="M102.65,342.24c.56,2.07-.63,8.61-1.73,7.81-1.63-1.7-.96-7.91,1.73-7.81Z" fill="#713206"/><path d="M104.04,330.09l.06,7.07c0,1.05-.73,1.56-1.06,1.93-1.46,1.58-1.17-8.09-.73-8.77.19-.5,1.5-.22,1.73-.23Z" fill="#713206"/><path d="M105.04,323.09c-.17,1.73.64,3.79-1,5-1.69,1.2-.69-7.75-1.31-8.99h1.45c.26,1.21.99,2.63.86,3.99Z" fill="#713206"/><path d="M121.94,330.33c-.03.6-.02,1.19.01,1.79-10.52,22.07-16.11,50.87-13.67,75.91l.89,9.11c.86,8.86,3.63,17.09,6.58,25.3,2.54,7.09,6.65,12.79,11.02,18.79,9.45,12.95,23.96,22.91,39.05,28.21,7.49,2.63,15.11,4.79,23.15,5.63l11.07,1.15c7.84.81,15.14.82,22.95.07l9.11-.87c19.29-1.83,40.47-9.17,54.8-22.42,2.1-1.95,4.59-3.31,6.37-5.72,2.95-4,6.27-7.61,8.88-11.92,21.8-35.99,17.13-82.77,1.79-120.3-.61-1.5-1.34-2.62-1.06-3.91,4.27-2.73,10.13-4.82,14.95-6.82.2,1.1,1.21,2.19,1.2,3.73l-.03,10.03c.66,2.32,1.45,4.49.89,7.04l3.32,15.76c.74,3.49,3.43,13,5.98,14.2.08.26.15.75.07,1-1.25,3.85,3.18,10.07,4.08,12.67,1.81,5.23,8.4,20.47,11.42,23.76,3.43,3.74.16,10.83,1.63,19.57.11.65-.13,1.35-.19,2-1.76.07-.82,2.21-1.31,3.18-3.08,6.18-5.91,12.52-10.23,18.39-6.3,8.55-12.71,16.34-21.34,22.76-29.63,22.06-63.72,28.41-100.27,28.51-28.75.08-58.64-4.22-84.29-17.25-5.61-2.85-10.63-5.75-15.49-9.76l-8.16-6.73c-8.96-7.39-20.45-23.48-24.25-34.18-.44-1.25-1.95-2.45-1.75-3.6.36-2.12-.67-4.09-.79-6.53l-.66-13.81c2.27-2.65,3.2-5.69,5.08-8.29,3.72-5.15,4.9-10.68,7.68-16.35,2.52-5.14,4.05-10.29,6.07-15.64l3.34-8.86c.88-2.33,1.36-4.76,1.82-7.19l2.08-10.88c1.41-7.38.98-7.92,2.16-14.85.53-3.11-.4-6.15,1.49-8.54,4.87,1.92,9.51,4.45,14.56,5.86Z" fill="#f5c141"/><path d="M381.97,422.09c.1,1.44-.76,2.79-.88,4.18-.89-.04-1.87.34-2.42,1.46l-3.61,7.35c-.86,1.75-1.64,3.21-3.66,4.32-.71-2.03-.05-3.41-1.16-4.31.21-1.41.22-3.59-1.51-4.43-1.9-.92-3.75.74-4.03,2.71-.91,6.29-1.73,12.38-4.6,17.64-1.88.32-3.75,1.21-5.39,2.73-1.77,1.63-3.89,2.12-5.52,3.2-.71-1.91.51-3.53,1.1-5.56,3-10.26,3.27-9.03,4.5-20.34l.97-8.97c.44-4.11-.09-7.51,1.36-11.44,1.55-4.2.44-9.04,1.04-13.53.41-3.08-2.92-17.47-3.76-21.22l-4.06-18.02c.22.98-2.16-15.32-2.11-14.81-.34-3.82-.1-7.19-1.34-10.95-.3-.91.58-2.38,1.21-1.98,3.77,2.77,5.84,7.21,8.85,11.16l5.1,6.69c4.46,5.85,9.72,18.76,12.67,25.68s6.25,15.6,6.77,23.48c.39,5.96,1.57,17.87-.51,23.02-.34.84.36,2.2.99,1.94Z" fill="#f5c141"/><path d="M348.31,415.87c-.28,1.72-.35,3.47-.27,5.22.17,3.73-.08,7.62-1.66,11-1.47-8.74,1.8-15.82-1.63-19.57-3.02-3.29-9.61-18.53-11.42-23.76-.9-2.6-5.33-8.82-4.08-12.67.42.23.87.78,1.16,1.57l2.13,5.81c2.92,7.99,9.07,21.5,13.94,28.24,1.02,1.41,1.92,2.69,1.82,4.17Z" fill="#f0bc56"/><path d="M329.04,487.02c-1.05,1.69-7.02,1.3-9.26,4.73-1.39,2.13-3.22,2.96-4.69,4.35-.27-2.1.61-4.08.89-6.14.6-.22,1.15-.75,1.8-.87,1.48,2.37,3.74-3,6.26-3.38,1.88-.29,3.47,1.15,5,1.32Z" fill="#6a3511"/><path d="M348.04,421.09c-.08-1.74-.01-3.49.27-5.22,2.76-.92,1.79,8.07,1.3,8.26-.94-1.32-.57-2.56-1.57-3.05Z" fill="#6a3511"/><path d="M351.04,478.09c-.37,1.33-1.67,2.01-3,2-.17-.76-.1-1.71.62-1.91.88-.25,1.67-.13,2.38-.09Z" fill="#6a3511"/><path d="M345.88,437.32l-1-.06c.49-.97-.45-3.11,1.31-3.18l-.31,3.24Z" fill="#f0bc56"/><path d="M360.1,451.02c-3,13.48-14.44,29.95-30.22,31.91,5.87-6.67,10.89-13.29,14.2-21.58.44-1.09,1.26-1.8,1.89-2.27l3.22-2.14c1.63-1.08,3.76-1.57,5.52-3.2,1.64-1.51,3.51-2.41,5.39-2.73Z" fill="#d89633"/><path d="M278.26,545.09c-.03.45-.15,1.17.54,1-.1,2.3-.58,6.51,2.02,8.04,3.77,2.23,8.78,2.78,13.2,2.93,2.63.09,4.61.82,7.06.9l7.96.25c.53.02,1.51.38,2,.15.28.83,1.26.81,2,.86,1.17.77,2.77.95,4,1.6.8.83,1.84,1.4,3.02,1.38.29.88,1.19,1.45,1.93,1.88.13.5.25,1.43.97,1.17.02.08,4.98,9.88.79,10.36-4.77.54-10.72.22-14.72-2.42l-4.75-6.25c-.67-.88-17.17-10.78-17.88-3.36-.44,4.58,18.63,3.53,18.52,17.5-.02,2.69-1.6,4.44-4.21,4.63-3.15.22-6.23-.65-9.01-2.26l-17-9.81c-14.78-8.53-25.44,3.21-28.44-2.73-4.1-8.11,10.41-10.78,14.08-16.88,3.14-.04,3.45-12.49,3.04-15.99,5.08.1,9.63.22,14.48-.96.75,3.15.56,5.55.41,8.02Z" fill="#f68c2f"/><path d="M320.06,562.19c-1.17.02-2.22-.54-3.02-1.38.59-.55,1.65-1.1,2.43-.69.95.5.39,1.48.58,2.07Z" fill="#713206"/><path d="M313.04,559.22c-.74-.05-1.72-.03-2-.86,1.17-.55,1.31.41,2,.86Z" fill="#713206"/><path d="M322.96,565.24c-.72.26-.84-.67-.97-1.17.43.25.85.67.97,1.17Z" fill="#713206"/><path d="M363.91,463.06c1.39-1.68,2.17-3.94,4.14-5.08-.19.93.61,2.77-.4,3.68-1.1,1-2.81.67-3.75,1.4Z" fill="#713206"/><path d="M291.81,525.09c.99.71-7.23,7.72-7.72,6.78,2.71-5.84,3.44-1.44,4.1-7.72l.87-.94c.62-.1,1.3-.1,2.02.31.43.25.72.9.73,1.56Z" fill="#71340c"/><path d="M289.06,523.21l-.87.94c-8.92,7.88-18.12,10.57-30.32,6.11-3.34-1.22-6.46-2.52-8.84-5.99,16.3-2.48,31.58-7.13,46.97-14.5-1.11,5.66-3.73,9.95-6.95,13.44Z" fill="#d89633"/><circle cx="193.54" cy="526.59" r=".5" fill="#71340c"/><path d="M278.8,546.09c-.68.17-.56-.55-.54-1,.71-.12.55.57.54,1Z" fill="#71340c"/><path d="M41.04,400.09c-.5.16-.78-.14-.94-.63-.21-.66.62-1.04.94-1.37v2Z" fill="#71340c"/><path d="M126.18,321.37c-.47,3.27-1.52,6.93-4.24,8.97-5.05-1.4-9.69-3.93-14.56-5.86-.82-.32-1.47-1.12-2.34-1.39.13-1.36-.6-2.79-.86-4l.46-6.67c7.87,2.9,14.46,6.74,21.53,8.95Z" fill="#d89633"/><path d="M298.01,322.08c.05,3.32,3.16,6.17,3.2,8.82-42.82,16.79-105.36,18.29-150.38,8.28-7.54-1.68-14.63-3.69-21.93-6.04-2.49-.8-4.66-1.89-6.96-1.02-.03-.6-.04-1.19-.01-1.79,2.72-2.03,3.77-5.69,4.24-8.97,13.11,4.09,26.43,7.09,40.49,9.16,34.48,5.08,103.02,3.89,131.34-8.44Z" fill="#e1c7a0"/><path d="M302.87,331.15c-.28,1.29.44,2.4,1.06,3.91,15.35,37.53,20.02,84.31-1.79,120.3-2.61,4.31-5.93,7.92-8.88,11.92-1.78,2.41-4.27,3.77-6.37,5.72-14.33,13.25-35.52,20.58-54.8,22.42l-9.11.87c-7.81.74-15.11.74-22.95-.07l-11.07-1.15c-8.04-.83-15.66-3-23.15-5.63-15.09-5.3-29.59-15.26-39.05-28.21-4.37-5.99-8.48-11.7-11.02-18.79-2.94-8.21-5.71-16.45-6.58-25.3l-.89-9.11c-2.44-25.04,3.15-53.84,13.67-75.91,2.3-.87,4.47.22,6.96,1.02,7.3,2.35,14.39,4.36,21.93,6.04,45.01,10.01,107.55,8.51,150.38-8.28l1.66.25Z" fill="#f9f0da"/><path d="M370.21,178.21c-2.98.7-1.77-5.47-5.12-7.3l-1.93,2.25c-.28-.55-7.37-12.77-7.31-15.15,1.72-2.45,1.73-5.75-.57-8.26-3.13-3.44-2.87-7.03-8.03-5.76-.91-.26-.9-1.27-1.35-1.86.79.13,1.63.39,2.85-.31-2.02-6.16,1.59-7.8-.6-10.73,10.21-5.13,26.5-19.41,27.94-31.15.2-1.62,2.52-3.09,1.08-5.29-4.78,3.51-20.22,14.21-24.12,11.33-.22-.25-.53-.74-.87-.9-1.15-4.76,5.92-6.2,6.12-8.94,3.78-3.15,7.54-7.32,8.73-12.05.21.28.46.31.65-.09,3.53-7.5,6.86-14.77,8.23-22.98,1.04-6.24,2-20.18-2.66-25.32-20.46,35.68-37.23,47.13-75.59,57.89-6.62,1.86-12.39,5.1-18.68,6.53-.54-1.61-1.07-3.24-1.07-4.95,1.3-.61,2.73-1.16,4.22-2.48-3.55-2.64-7.58-3.62-11.84-5.2-18.13-6.74-36.73-10.07-56.25-10.16-13.28-.05-26.01.66-38.81,3.81-11.77,2.89-23.41,5.74-33.37,11.57-.86-.43-1.81-.62-2.5-.71-.98-.13-2.45.72-2.31,1.95.17,1.6,1.2,2.68.96,3.89-7.37-3.08-15.01-5.27-23.1-7.72-15.37-4.64-29.35-11.81-41.16-22.75-8.54-7.92-14.91-17.08-20.92-26.99-.81-1.33-1.61-3.48-3.19-3.91-1.7.26-1.6,3.19-1.72,4.63-4.16,6.15.13,27.89,4.11,35.13.3.62.34,1.21.98.86l.07.81c.42,4.94,12.01,18.67,16.78,23.25,1.13,1.08,1.55,2.61.84,3.89s-2.15,1.8-3.98,1.17c-6.63-2.3-12.5-5.44-18.07-9.86-.77-.61-2.36-1.55-2.63-.51-.71,2.69,1.77,4.37,1.92,6.05.21,2.36,1.12,4.17,2.64,6.58,8.26,13.12,21.02,21.85,35.88,26.49,19.33,6.05,41.43,5.85,64.01,11.96,23.93,6.48,48.75,23.25,59.59,44.15l1.21,2.33c.26.49.64,2.67,1.33,1.47,7.87-13.71,13.95-21.77,26.1-31.08,9.27-7.1,19.17-12.37,30.43-15.49,2.48-.69,4.64-1.84,6.92-1.6.54.06,1.11.04,1-.7.63-.02,1.26.03,1.88.14.1,4.64,13.14.77,17.21-.97,2.7-1.16,5.14.46,5.78,3.09.7,2.88,5.6,2.22,6.09,1.23.19-.38.27-1.09.17-1.57,1.4.29,3.28.45,4.97,1.3l10.18,5.13,9.96,8.46c1.43,1.22,2.26,2.86,3.88,3.25.15.39.6.69.84.98,9.8,13.26,13.52,20.96,16.9,38.22.22,5.92.4,11.64-.09,17.58-2.18,16.44-8.78,31.65-20.79,43.11-12.78,12.2-23.35,17.29-40.85,20.31-17.79,3.07-42.47-2.84-55.11-15.23.85-.29,2.7.13,2.24-1.96-.28-1.28-.86-2.29-.83-3.28.54.14,1.23.37,1.93.93,32.03,25.51,79.45,16.29,99.63-20.01,16.13-29.01,8.32-65.44-18.78-85.01-8.97-6.48-20.03-11.93-31.34-11.91-11.14.02-21.99,4.52-32.06,8.8-21.4,9.1-32.94,24.14-43.43,43.77-.76,1.41-1.77,2.08-2.97,2.14-1.56.08-2.61-.91-3.51-2.51-5.36-9.49-10.58-18.67-18.48-26.38-12.29-11.99-27.65-19.75-44.34-23.7-4.37-1.03-8.69-2.82-13.07-2.43-20.23,1.83-39.55,15.22-49.6,33.31-11.19,20.16-11.19,44.15.61,65.05,20.26,35.87,69.49,44.56,100.57,17.33-6.07-13.91,6.03-28.5,17.37-33.92,13.7-6.54,27.28,1.56,35.1,12.6,4.26,6.02,6.24,15.37,2.12,20.2-2.34.38,3.52-10.98-4.07-12.03-2.26-2.06-1.2-2.9-4.01-6.14-4.85-5.59-13-13.19-22.07-10.9-7.02,1.77-12.94,6.15-16.12,12.1-2.95,2.7-4.28,6.96-3.77,10.9.2,1.53-1.55,2.26-2.48,3.5-1.4,1.86.71,3.48-4.66,9.62,1.01.58,1.82,1.07,2.63,1.17-.98,2.24-8.04,5.43-8.7,6.6-1.23-.05-2.23.88-3.58,1.53-9.39,4.51-26.25,7.96-36.31,6.47l-6.97-1.04c-5.85-.87-14.45-4.04-15.05-3.94-.31.05-.71-.19-1-.08-.13-.89-.99-1.2-2.04-1.61-9.68-3.81-11.77-7.11-19.03-12.24l-.91-.89-1.08-1.04c-.29-.28-.72-.6-.93-.93-2.86-4.52-7.08-8.18-9.78-13.15-8.08-14.86-11.81-30.28-9.44-47.03s9.91-31.56,22.23-42.8c3.02-2.75,6.33-4.59,8.84-7.29l15.51-7.96c-10.18-2.11-19.61-3.02-29.45-5.86-1.72-.49-4.03-1.9-5.89-1.09-2.57,1.12-3.7,4.18-4.43,6.31-3.76,3.89-6.77,8.69-8.54,13.81-1.04.2-.72,1.48-1.12,2.02-2.42,3.24-3.69,7.21-5.12,10.98-.1.27-.12.71-.1,1-.57-.06-.85.5-.88,1-.02.3-.19.73-.08,1-1.47,1.33-1.19,3.71-1.91,5.85-1,2.96-2.54,5.41-2.85,8.15-.95.01-1.14,1.24-1,2,.51,2.71-.73,5.16-1.3,7.79-.93,1.16-2.52,1.79-3.84,2.97-1.77,1.58-.72,4.29-.24,6.34,1.24,5.37-1.11,11.01,2.39,9.9.17,1.64,0,3.35,0,5-.72-2.27-1.96,9.42-1.96,9.41.16.7,1.27.42,1.96.59,1.35.33,1.07,1.98,1.01,3.04-.01.24.03.52.09.75-.51,0-1.14-.02-1.54.2-.53.29-.77,1.04-.54,1.96,1.95,7.83-.62,8.37,2.49,13.42-.55,4.7,5.31,14.55,9.43,14.58,2.79,2.37,4.2,6.02,6.09,9.04-.37.58-2.31,1.47-1.8,2.65,3.99,9.28,6.33,5.83,13.47,13.94,2.37,2.69,5.37,4.62,7.03,7.47-.82.61-1.84.68-2.8.89.64-1.52-.45-2.17-1.81-3.21-13.4-10.28-23.88-23.61-30.24-39.35-15.79-39.06-3.02-88.86,22.04-122.44-15.89-6.57-35.23-26.01-35.15-42.94.27-2.22,1.06-3.89,2.82-4.72,4.06-1.91,5.97.79,9.24,1.81.57.51.75,1.77,2.14,1.88-.38-1.56-1.47-2.14-1.94-3.14-4.07-8.62-8.61-17.04-10.46-26.95-1.43-7.63-2.13-15.11-.15-22.69.84-3.23,1.9-6.99,4.44-9.07,7.03-5.76,13.07,7.7,16.27,12.74,18.44,28.98,39.5,36.95,71.61,45.64,37.75-19.42,84.81-23.14,125.06-12.04,11.23,3.1,21.53,7.31,32.12,12.1l21.04-6.59c21.29-6.67,38.67-20.9,49.99-40.08,4.45-7.54,7.02-13.89,13.41-12.73s7.42,14.19,7.5,19.91c.19,14.63-4.79,27.98-12.32,40.46,2.39,1.56,6.07-4.25,10.47-.97,8.56,6.38-6.15,28.64-14.56,35.79-4.75,4.04-9.43,7.57-15.16,10.12-1.05.47-1.9,2.05-1.05,3.24,7.3,10.27,13.53,20.86,18.11,32.6.94,2.42,1.82,4.62,1.82,6.82Z" fill="#6a3511"/><path d="M370.21,178.21c0,.29.1.64.03.92-.29,1.07-.5,2.55.8,2.96-.48,1.99.7,3.74,1.15,5.97l3.68,18.37.69,10.01c.68,9.78-.42,15.13-1.54,23.7-1.82-.14-3.09,1.31-4.66,2.03-.04-.69-.22-1.38-.2-2.08l.06-1.92c2.2-2.1,2.07-24.46,1.66-27.06l-1.09-6.97c-.35-2.24-.55-4.6-1.07-6.83-.99-4.24-5.59-22.22-6.56-24.15l1.93-2.25c3.34,1.83,2.14,8,5.12,7.3Z" fill="#71340c"/><path d="M354.82,285.28c.02,1.48-9.32,10.73-10.78,10.48.3-1.22.96-2.44,2.27-3.4,5.82-4.25,4.73-7.19,8.5-7.09Z" fill="#683519"/><path d="M365.83,270.34c-1.51,3.64-3.86,7.19-6.79,9.84-.04-4.49,4.1-4.35,5.27-9.73.63-.33,1.14-.25,1.52-.11Z" fill="#683519"/><path d="M371.04,182.09c-1.3-.41-1.09-1.89-.8-2.96,1.19.04,1.01,2.1.8,2.96Z" fill="#6a3511"/><path d="M51.87,91.16l.2-1.26c.48,1.01,1.56,1.58,1.94,3.14-1.39-.11-1.57-1.37-2.14-1.88Z" fill="#e1c7a0"/><path d="M239.46,265.86c.02-.56-.08-1.23-.24-1.75,4.12-4.83,2.15-14.18-2.12-20.2-7.82-11.04-21.4-19.14-35.1-12.6-11.34,5.42-23.44,20.01-17.37,33.92-31.08,27.23-80.32,18.54-100.57-17.33-11.8-20.89-11.81-44.89-.61-65.05,10.05-18.09,29.36-31.48,49.6-33.31,4.38-.4,8.7,1.4,13.07,2.43,16.69,3.95,32.05,11.71,44.34,23.7,7.9,7.71,13.12,16.9,18.48,26.38.9,1.6,1.95,2.58,3.51,2.51,1.2-.06,2.21-.73,2.97-2.14,10.49-19.64,22.03-34.68,43.43-43.77,10.07-4.28,20.92-8.78,32.06-8.8,11.32-.02,22.37,5.43,31.34,11.91,27.11,19.57,34.91,55.99,18.78,85.01-20.18,36.31-67.6,45.52-99.63,20.01-.7-.56-1.39-.79-1.93-.93ZM181.33,215.15c0-20.09-16.29-36.38-36.38-36.38s-36.38,16.29-36.38,36.38,16.29,36.38,36.38,36.38,36.38-16.29,36.38-36.38ZM316.04,215.12c0-20.12-16.31-36.43-36.43-36.43s-36.43,16.31-36.43,36.43,16.31,36.43,36.43,36.43,36.43-16.31,36.43-36.43Z" fill="#fbfcfa"/><path d="M97.32,154.28c-.33,3.43-3.79,4.72-6.33,6.87-9.32,7.85-10.63,13.13-14.32,17.41-1.6,1.86-1.07,4.8-2.32,6.87-2.36,3.91-5.84,10.89-5.37,15.48-.91,1.98-1.08,3.95-.9,6.15-1.47,4.64-1.71,9.42.13,14.04-.95,9.47,5.74,25.64,11.43,33.4.26,1.97,1.7,2.81,3.19,3.81.16.11,1.96,4.72,6.23,6.81.21.34.64.65.93.93.23.46.61.83,1.08,1.04l.91.89c.24,3.92,18.01,15.05,21.06,13.85.29-.11.69.13,1,.08-1.98,2.16,8.74,5.07,10.71,4.17,3.08,2.68,6.83,1.51,10.3,2.09,5.29.88,9.8,1.45,15.12.08,1.03-.27,14.24-1.57,19.3-4.75,1.46-.92,2.43-2.33,4.3-2.75,1.19-.27,1.79-1.14,2.19-1.85.66-1.17,7.71-4.36,8.7-6.6.76-.02,2.11-.94,3.08.04,1.15,1.17,1.09,2.68,1.33,3.77-.62,2.14.48,4.1,1.61,6.26,4.39,8.38,9.52,16.13,16.67,22.25,3.02,2.59,6.43,2.77,9.45.07,10.76-9.63,9.84-10.17,15.96-21.83,1.28-2.44,2.32-4.47,2.47-6.87,1.43-.35,3.49-1.79,5.22-.6,7.21,4.96,14.66,9.33,23.45,10.9,2.07.37,4.28,1.43,6.33,1.53,7.97.41,15.75.47,23.8.03,3.91-.22,7.8-1.74,11.59-2.52,4.73-.97,8.42-4.16,12.75-5.9,3.55-1.43,8.53-5.16,11.17-7.82s6.32-4.22,8.41-7.51c1.6-2.51,7.45-8.43,8.79-11.14,5.6-11.28,3.05-9.5,6.7-16.43,1.11-2.11,1.91-5.13,2.26-7.6l1.14-7.9c1.3-9.07-1.28-15.33-.85-18.96.2-1.64-1.18-3.12-1.26-4.7-.35-6.61-3.39-11.6-6.53-16.44-2.3-3.55-7.05-13.89-10.21-13.87-.24-.29-.69-.59-.84-.98.4-2.09-.82-3.24-2.85-4.25-1.17-.58-7.34-6.39-6.52-7.72,6.65-.39,13.07-3.48,19.4-5.9,3.71,3.38,5.43,9.38,8.32,13.63,2.5,3.68,3.95,7.34,5.38,11.49,5.3,15.39,6.25,18.27,9.07,34.98l.29,29.84-.06,1.92c-2.39.04-1.7,2.61-2.27,4-10.01,24.18-32.66,44.03-57.09,54.54-21.29,9.16-36.41,12.66-59.76,15.4-33.13,3.88-65.64,2.95-98.32-3.4-31.94-6.21-66.29-20.66-85.51-47.77-4.47-6.3-8.65-12.46-11.08-19.94-.36-1.12-1.29-1.78-2.11-1.73l-.88-3.31c-.06-.23-.11-.51-.09-.75.64.52.93-.21.93-1.06-.05-2.62.57-5.31-.22-7.75-.67-2.08-.08-3.38,0-5.45l.46-13.72,2.36-13.65c.75-4.34,1.87-8.59,3.24-12.66.82-2.43,1.93-4.43,1-6.74-.11-.27.06-.7.08-1,.71.08.93-.37.88-1-.02-.29,0-.73.1-1-.09,1.4,9.36-13.47,5.12-10.98.4-.54.08-1.82,1.12-2.02,2.53-.49,2.76-3.59,4.28-5.69l4.56-6.31c1.67.27,3.26,1.27,5.21,1.83l15.16,4.37Z" fill="#f6c13f"/><path d="M367.04,84.1c-1.19,4.73-4.96,8.9-8.73,12.05-3.64-.13-7.93,6.72-7.23,8.3.15.34.65.42,1.11.64.33.16.64.65.87.9.24.27.11,1.23.66,1.58,4.67,2.94,16.17-7.83,19.45-6.58-3.26,11.09-20.12,19.51-30.82,23.55-12.6,4.76-25.51,6.46-38.89,7.93-39.2,4.31-70.77,16.45-88.58,53.61-2.83,5.91-1.41,9.05-3.62,7.34l-1.21-2.33c4.28.21-6.68-16.11-7.96-17.99-2.96-4.33-6.11-8.35-10-11.91l-5.81-5.31c-7.91-7.24-17.61-11.34-27.57-15.53-9.71-3.25-19.44-5.6-29.71-6.89l-20.56-2.58c-13.83-1.73-27.03-5.25-39.23-11.88-2.01-1.09-3.99-2.07-4.97-3.78.02-2.18-.77-5.12.78-6.98,1.77-.59,4.04.26,5.75-.84,1.47-.95,2.8-4.17,1.66-5.75-1.52-2.1-3.45-3.9-5.57-5.28-3.83-2.49-5.13-6.98-7.54-10.74l-3.78-5.91c-.7-1.1-1.51-1.82-2.47-1.8l-.07-.81-1.4-6.66c-.63-3-4.25-13.58-2.9-15.75,2.47-1.32,5.98-.13,8.48.55,5.69,8.32,8.84,11.33,15.7,18.96,4.13,4.6,8.88,7.73,13.89,11.22,9.24,6.43,19.38,10.42,30.23,13.56,16.75,4.85,28.03,9.17,43.35,17.71,5.49,3.06,10.22,6.96,15.23,10.87,5.39,4.2,9.97,9.34,14.61,14.32,3.38,3.63,5.48,7.9,8.41,11.69,2.35,3.04,4.44,5.78,5.57,9.58.07.22,4.38,8.23,5.93,6.99.26.23.68.49.86.77.18.28.23,1.26.97,1.24,3.15-.09,5-2.26,6.14-4.86,4.96-11.23,4.41-9.91,11.43-19.65,3.05-4.23,6.33-8.29,9.92-12.18,2.41-2.62,13.95-11.88,17.65-14.34l5.45-3.63c11.35-7.55,12.82-6.16,22.27-10.73,4.26-2.06,8.4-3.82,13.06-4.93,3.08-.73,21.81-6.8,24.09-7.84,6.48-2.97,27.37-14.49,29.54-21.4,3.69-1.1,5.01-4.24,7.02-6.91,4.16-5.54,8.17-10.64,10.87-17.15.58-1.39,2.74-3.76,4.17-3.28,3.61,1.21.63,10.93,1.57,14.85-1.87,6.41-5.1,12.04-6.7,18.38l-1.42,5.62Z" fill="#f6c13f"/><path d="M367.89,244.09c-.13,1.43-.26,3.05.99,4-4.73,18.24-16.05,33.72-30.96,45.87-6.46,5.26-13.56,8.7-20.04,13.24-1.81.55-4.05,1.57-6.18,2.53-15.95,7.21-32.14,11.69-49.62,14.49-37.89,6.07-75.61,5.1-113.18-2.75-17.49-3.66-33.51-9.95-48.65-18.16-.29-.12-.94-.4-1.25-.33-.41-.95-1.43-1.39-2.56-2.1-8.16-5.13-15.84-10.76-21.95-18.31-1.75-2.16-3.69-4-5.42-5.51-1.88-3.01-3.3-6.67-6.09-9.04-6.66-15.43-5.26-12.92-8.97-26.84.82-.05,1.74.61,2.11,1.73,2.43,7.47,6.61,13.64,11.08,19.94,19.22,27.11,53.56,41.56,85.51,47.77,32.68,6.35,65.19,7.28,98.32,3.4,23.35-2.74,38.47-6.24,59.76-15.4,24.42-10.51,47.08-30.35,57.09-54.54Z" fill="#d89633"/><path d="M64.24,115.23c.98,1.71,2.96,2.69,4.97,3.78,12.2,6.63,25.41,10.15,39.23,11.88l20.56,2.58c10.27,1.29,20,3.64,29.71,6.89,9.96,4.19,19.66,8.3,27.57,15.53l5.81,5.31c3.89,3.56,7.04,7.58,10,11.91,1.28,1.88,12.24,18.2,7.96,17.99-10.84-20.9-35.66-37.67-59.59-44.15-22.58-6.11-44.68-5.91-64.01-11.96-14.85-4.65-27.62-13.37-35.88-26.49-1.52-2.41-2.43-4.22-2.64-6.58,4.06.7,9.18,12.35,16.3,13.31Z" fill="#d89633"/><path d="M376.09,99.95c-1.44,11.74-17.72,26.02-27.94,31.15-16.36,8.22-48.57,9.7-67.12,14.09-.99.23-1.69.53-2.11,1-.62-.11-1.25-.16-1.88-.14-.47.02-1.14-.01-1,.7-2.28-.25-4.44.91-6.92,1.6-11.26,3.12-21.17,8.39-30.43,15.49-12.14,9.3-18.23,17.36-26.1,31.08-.69,1.2-1.07-.98-1.33-1.47,2.21,1.71.79-1.43,3.62-7.34,17.81-37.17,49.38-49.3,88.58-53.61,13.38-1.47,26.28-3.17,38.89-7.93,10.7-4.04,27.56-12.47,30.82-23.55.93-.27,1.92-.94,2.93-1.05Z" fill="#d89633"/><path d="M367.04,84.1l1.42-5.62c1.6-6.34,4.83-11.96,6.7-18.38-.94-3.92,2.04-13.64-1.57-14.85-1.43-.48-3.59,1.88-4.17,3.28-2.7,6.52-6.71,11.61-10.87,17.15-2.01,2.67-3.33,5.81-7.02,6.91-2.18,6.91-23.07,18.43-29.54,21.4-2.28,1.04-21,7.11-24.09,7.84-4.66,1.1-8.8,2.86-13.06,4.93-9.45,4.57-10.92,3.18-22.27,10.73l-5.45,3.63c-3.7,2.46-15.24,11.72-17.65,14.34-3.59,3.89-6.87,7.95-9.92,12.18-7.02,9.74-6.47,8.43-11.43,19.65-1.15,2.6-2.99,4.77-6.14,4.86-.74.02-.79-.96-.97-1.24,1.76.3,3.5-.77,4.2-2.78,2.59-7.48,6.32-13.73,10.42-20.5,12.14-20.04,29.52-35.72,50.45-45.45.43-.2,1.33-.29,1.09-.98.77-.02,1.34-.72,1.86-1.09,6.29-1.43,12.06-4.67,18.68-6.53,38.36-10.76,55.13-22.21,75.59-57.89,4.66,5.14,3.7,19.08,2.66,25.32-1.37,8.21-4.7,15.48-8.23,22.98-.19.4-.44.37-.65.09Z" fill="#f8d47d"/><path d="M277.91,95.18c-3.71,1.74-8.16,2.66-11.64,4.87.09-1.03.99-1.62,1.72-2.9-21.25-9.25-51.09-11.6-73.77-9.09-3.97.44-7.41,1.49-10.93,1.32-1.22-.06-2.69-.63-3.39.81-2.34.35-4.83.82-7.5,1.55l-9.56,2.58c-2.79.75-5.93,1.62-7.66,3.95-3.63-.14-5.7-2.45-9.03-3.19-.75-.94-1.96-1.14-3.12-1.17l-1.16-1.17c9.97-5.83,21.61-8.68,33.37-11.57,12.81-3.15,25.53-3.86,38.81-3.81,19.52.08,38.11,3.41,56.25,10.16,4.26,1.58,8.29,2.56,11.84,5.2-1.5,1.32-2.92,1.87-4.22,2.48Z" fill="#f8d47d"/><path d="M138.01,97.86c.29.12.63.12.93.22.28,1.3,2.1,1.12,3.15,1.07,25.72,12.18,43.58,26.2,58.37,51.61,3.77,6.48,7.33,12.69,9.65,19.39-1.55,1.24-5.86-6.76-5.93-6.99-1.13-3.8-3.22-6.54-5.57-9.58-2.93-3.79-5.03-8.06-8.41-11.69-4.65-4.98-9.23-10.11-14.61-14.32-5.01-3.91-9.75-7.81-15.23-10.87-15.32-8.54-26.61-12.86-43.35-17.71-10.85-3.14-20.99-7.13-30.23-13.56-5-3.48-9.75-6.61-13.89-11.22-6.86-7.64-10.01-10.64-15.7-18.96.16-.72-8.15-16.17-9.28-14.13.12-1.43.02-4.37,1.72-4.63,1.59.42,2.39,2.57,3.19,3.91,6.01,9.91,12.38,19.07,20.92,26.99,11.81,10.94,25.79,18.11,41.16,22.75,8.09,2.44,15.74,4.64,23.1,7.72Z" fill="#f8d47d"/><path d="M141.87,92.72l1.16,1.17c.42.42.37,1.45,1.29,2.03s1.84.05,1.82-.86c3.33.74,5.4,3.05,9.03,3.19-.58.74,10.08,6.88,10.8,6.69.05.48.85.73,1.04,1.07.28.89,1.09,1.34,2.01,1.18.29.3.61.58.95.82-.21.66.56,1.02,1.06,1.22.3.12.68,0,1,.07.74,1.57,2.53,2.12,3.95,2.95.34,1.63,2.01,2.27,3.42,3.52,13.8,12.19,24.31,26.85,32.47,44.02,16.34-29.85,26.92-42.3,54.38-59.75,3.48-2.21,7.94-3.13,11.64-4.87,0,1.71.53,3.34,1.07,4.95-.52.37-1.09,1.06-1.86,1.09-.53.01-.96.5-1.09.98-20.92,9.73-38.3,25.4-50.45,45.45-4.1,6.76-7.83,13.02-10.42,20.5-.7,2.01-2.44,3.08-4.2,2.78-.18-.27-.6-.54-.86-.77-2.32-6.7-5.88-12.91-9.65-19.39-14.79-25.42-32.64-39.43-58.37-51.61,0-.6.08-1.68-.62-2.01-.94-.45-2.06.18-2.53.95-.3-.1-.64-.1-.93-.22.25-1.22-.78-2.29-.96-3.89-.13-1.23,1.33-2.08,2.31-1.95.7.09,1.64.27,2.5.71Z" fill="#713206"/><path d="M348.15,131.09c2.2,2.93-1.42,4.57.6,10.73-1.22.7-2.06.44-2.85.31-.62-.83-2.03-1.99-3.29-2.84-10.95,3.45-21.9,5.75-33.62,7.01-1.34.42-1.53.72-.84,1.66.1.48.02,1.19-.17,1.57-.48.99-5.38,1.66-6.09-1.23-.64-2.63-3.07-4.24-5.78-3.09-4.07,1.74-17.11,5.61-17.21.97.42-.47,1.12-.77,2.11-1,18.56-4.39,50.76-5.87,67.12-14.09Z" fill="#71340c"/><path d="M345.91,142.13c.44.59.44,1.6,1.35,1.86.41.93.46,2.16.75,3.14-.32.33-.61.7-.83,1.1-6.33,2.41-12.75,5.5-19.4,5.9l-4.47.27-10.18-5.13c-1.69-.85-3.56-1.01-4.97-1.3-.69-.94-.5-1.24.84-1.66,11.71-1.26,22.67-3.56,33.62-7.01,1.26.84,2.67,2,3.29,2.84Z" fill="#d89633"/><path d="M100.91,154.88c-1.05-.73-2.42-.26-3.59-.6l-15.16-4.37c-1.95-.56-3.53-1.56-5.21-1.83l-.3-1.81c.74-2.13,1.87-5.19,4.43-6.31,1.86-.81,4.18.6,5.89,1.09,9.84,2.83,19.26,3.75,29.45,5.86l-15.51,7.96Z" fill="#d89633"/><path d="M235.23,276.01c.11-1.84.99-4.3,2.81-4.92,12.64,12.38,37.33,18.29,55.11,15.23,17.5-3.02,28.07-8.11,40.85-20.31,12.01-11.46,18.61-26.68,20.79-43.11.48-5.95.3-11.66.09-17.58-3.38-17.26-7.1-24.97-16.9-38.22,3.16-.02,7.91,10.31,10.21,13.87,3.13,4.84,6.18,9.83,6.53,16.44.08,1.58,1.46,3.05,1.26,4.7-.43,3.62,2.15,9.89.85,18.96l-1.14,7.9c-.36,2.47-1.15,5.49-2.26,7.6-3.65,6.93-1.09,5.15-6.7,16.43-1.35,2.71-7.19,8.63-8.79,11.14-2.1,3.29-5.75,4.83-8.41,7.51s-7.62,6.39-11.17,7.82c-4.33,1.74-8.02,4.93-12.75,5.9-3.79.78-7.69,2.31-11.59,2.52-8.05.45-15.83.39-23.8-.03-2.05-.11-4.25-1.16-6.33-1.53-8.79-1.57-16.23-5.95-23.45-10.9-1.72-1.18-3.78.25-5.22.6Z" fill="#f0bc56"/><path d="M64.24,115.23c-7.12-.96-12.24-12.61-16.3-13.31-.15-1.68-2.62-3.36-1.92-6.05.27-1.04,1.86-.1,2.63.51,5.56,4.42,11.43,7.57,18.07,9.86,1.83.63,3.28.1,3.98-1.17s.29-2.81-.84-3.89c-4.78-4.58-16.37-18.31-16.78-23.25.96-.01,1.77.71,2.47,1.8l3.78,5.91c2.41,3.76,3.71,8.24,7.54,10.74,2.12,1.38,4.05,3.18,5.57,5.28,1.15,1.58-.19,4.8-1.66,5.75-1.71,1.11-3.98.26-5.75.84-1.55,1.86-.77,4.79-.78,6.98Z" fill="#f0bc56"/><path d="M99,302.99c-3.72-.68-8.67-.53-11.23-1.86-1.66-2.86-4.66-4.78-7.03-7.47-7.15-8.11-9.48-4.66-13.47-13.94-.51-1.18,1.44-2.06,1.8-2.65,1.73,1.51,3.67,3.35,5.42,5.51,6.11,7.54,13.79,13.17,21.95,18.31,1.13.71,2.15,1.15,2.56,2.1Z" fill="#71340c"/><path d="M57.18,55.26c-2.49-.69-6.01-1.87-8.48-.55-1.35,2.18,2.27,12.75,2.9,15.75l1.4,6.66c-.64.35-.68-.24-.98-.86-3.98-7.24-8.27-28.98-4.11-35.13,1.12-2.03,9.44,13.42,9.28,14.13Z" fill="#f0bc56"/><path d="M100.91,154.88c-2.51,2.7-5.82,4.53-8.84,7.29-12.32,11.24-19.89,26.25-22.23,42.8s1.36,32.17,9.44,47.03c2.7,4.96,6.92,8.62,9.78,13.15-4.27-2.09-6.07-6.71-6.23-6.81-1.49-1-2.93-1.84-3.19-3.81-5.69-7.77-12.37-23.94-11.43-33.4-1.84-4.62-1.6-9.4-.13-14.04-.18-2.2-.01-4.18.9-6.15-.47-4.59,3.01-11.57,5.37-15.48,1.24-2.07.71-5.01,2.32-6.87,3.69-4.28,5-9.56,14.32-17.41,2.55-2.15,6-3.44,6.33-6.87,1.17.34,2.54-.13,3.59.6Z" fill="#f0bc56"/><path d="M175.96,278.91c-.39.7-1,1.58-2.19,1.85-1.88.42-2.85,1.84-4.3,2.75-5.06,3.19-18.28,4.49-19.3,4.75-5.31,1.38-9.82.8-15.12-.08-3.48-.58-7.23.59-10.3-2.09-1.97.9-12.68-2.01-10.71-4.17.6-.1,9.21,3.07,15.05,3.94l6.97,1.04c10.06,1.5,26.92-1.96,36.31-6.47,1.35-.65,2.35-1.58,3.58-1.53Z" fill="#f0bc56"/><path d="M53.14,237.88l.88,3.31c3.71,13.92,2.3,11.41,8.97,26.84-4.13-.03-9.98-9.88-9.43-14.58-3.11-5.04-.55-5.59-2.49-13.42-.23-.92,0-1.67.54-1.96.4-.22,1.03-.2,1.54-.2Z" fill="#71340c"/><path d="M53.05,237.13c.06-1.06.34-2.7-1.01-3.04v-10c0-1.65.17-3.36,0-5-.22-2.07,1.37-17.7,1.7-19.21.57-2.63,1.81-5.08,1.3-7.79,1.05-.11.91-1.22,1-2,.31-2.74,1.85-5.19,2.85-8.15.72-2.14.45-4.52,1.91-5.85.93,2.31-.17,4.31-1,6.74-1.38,4.08-2.49,8.32-3.24,12.66l-2.36,13.65-.46,13.72c-.07,2.06-.66,3.37,0,5.45.79,2.45.18,5.13.22,7.75,0,.85-.29,1.58-.93,1.06Z" fill="#f0bc56"/><path d="M355.86,158.02c-2.21-1.53-5.12-9.9-7.85-10.88-.29-.99-.34-2.21-.75-3.14,5.17-1.27,4.91,2.32,8.03,5.76,2.29,2.52,2.29,5.82.57,8.26Z" fill="#71340c"/><path d="M52.04,219.09c-3.5,1.11-1.15-4.53-2.39-9.9-.47-2.05-1.53-4.75.24-6.34,1.32-1.18,2.91-1.81,3.84-2.97-.33,1.51-1.91,17.14-1.7,19.21Z" fill="#71340c"/><path d="M376.09,99.95c-1.01.11-2,.78-2.93,1.05-3.28-1.25-14.78,9.52-19.45,6.58-.56-.35-.43-1.31-.66-1.58,3.9,2.87,19.34-7.82,24.12-11.33,1.44,2.2-.88,3.67-1.08,5.29Z" fill="#f0bc56"/><path d="M327.77,154.13c-.82,1.34,5.35,7.14,6.52,7.72,2.04,1.01,3.25,2.16,2.85,4.25-1.62-.38-2.45-2.03-3.88-3.25l-9.96-8.46,4.47-.27Z" fill="#f0bc56"/><path d="M76.95,148.09l-4.56,6.31c-1.52,2.1-1.75,5.2-4.28,5.69,1.78-5.11,4.78-9.92,8.54-13.81l.3,1.81Z" fill="#f0bc56"/><path d="M113.04,281.85c-3.06,1.19-20.83-9.93-21.06-13.85,7.26,5.13,9.35,8.44,19.03,12.24,1.05.41,1.91.72,2.04,1.61Z" fill="#f0bc56"/><path d="M52.04,234.09c-.69-.17-1.8.11-1.96-.59,0,0,1.23-11.68,1.96-9.41v10Z" fill="#71340c"/><path d="M61.86,173.09c1.44-3.77,2.7-7.75,5.12-10.98,4.23-2.49-5.22,12.39-5.12,10.98Z" fill="#f0bc56"/><path d="M358.3,96.15c-.19,2.73-7.27,4.17-6.12,8.94-.46-.22-.96-.3-1.11-.64-.71-1.58,3.59-8.43,7.23-8.3Z" fill="#f0bc56"/><path d="M55.04,192.09c-.14-.76.05-1.99,1-2-.09.78.05,1.89-1,2Z" fill="#71340c"/><path d="M276.04,146.74c-.14-.71.53-.68,1-.7.11.74-.46.76-1,.7Z" fill="#71340c"/><path d="M60.88,175.09c.03-.5.31-1.06.88-1,.05.63-.17,1.08-.88,1Z" fill="#f0bc56"/><path d="M91.07,267.11c-.47-.21-.85-.58-1.08-1.04l1.08,1.04Z" fill="#f0bc56"/><path d="M370.36,242.17c.02.28-.01.65-.1.92-.62-.14-1.23.36-1.22,1,.02,1.34,0,2.67-.16,4-1.25-.95-1.12-2.57-.99-4,.57-1.39-.11-3.96,2.27-4-.02.7.15,1.39.2,2.08Z" fill="#f0bc56"/><path d="M369.04,244.09c-.01-.64.6-1.14,1.22-1-.18.53-.68.91-1.22,1Z" fill="#71340c"/><path d="M355.86,158.02c-.06,2.38,7.03,14.59,7.31,15.15.97,1.93,5.57,19.91,6.56,24.15.52,2.23.72,4.59,1.07,6.83l1.09,6.97c.41,2.6.54,24.97-1.66,27.06l-.29-29.84c-2.82-16.71-3.77-19.59-9.07-34.98-1.43-4.14-2.87-7.8-5.38-11.49-2.89-4.26-4.61-10.25-8.32-13.63.23-.4.51-.77.83-1.1,2.73.98,5.64,9.35,7.85,10.88Z" fill="#f0bc56"/><path d="M276.04,102.19c.13-.48.56-.96,1.09-.98.24.69-.65.78-1.09.98Z" fill="#6a3511"/><path d="M266.27,100.05c-27.46,17.45-38.04,29.89-54.38,59.75-8.17-17.16-18.68-31.83-32.47-44.02-1.41-1.25-3.08-1.89-3.42-3.52-.39-1.86-2.25-2.55-3.95-2.95-.32-.07-.7.06-1-.07-.24-.5-.61-.91-1.06-1.22-.34-.24-.66-.51-.95-.82-.31-.84-1.14-1.25-2.01-1.18-.19-.34-.99-.59-1.04-1.07-.26-2.43-2.9-3.45-4.79-5.37-.26-1.62,1.8-3.65,1.64-5.27l9.56-2.58c2.67-.72,5.16-1.19,7.5-1.55-.04,1.19,1.57,1.09,2.56.86.53-.12,1.38-.94.83-1.67,3.52.17,6.96-.88,10.93-1.32,22.68-2.52,52.52-.16,73.77,9.09-.73,1.28-1.63,1.88-1.72,2.9Z" fill="#f5c141"/><path d="M162.84,94.3c.15,1.62-1.91,3.64-1.64,5.27,1.89,1.92,4.52,2.94,4.79,5.37-.73.2-11.38-5.94-10.8-6.69,1.74-2.33,4.87-3.2,7.66-3.95Z" fill="#f0bc56"/><path d="M183.29,89.37c.55.72-.31,1.55-.83,1.67-.99.23-2.6.33-2.56-.86.7-1.43,2.17-.87,3.39-.81Z" fill="#f0bc56"/><path d="M146.15,95.06c.02.91-.91,1.43-1.82.86s-.88-1.61-1.29-2.03c1.15.03,2.36.23,3.12,1.17Z" fill="#6a3511"/><path d="M142.09,99.15c-1.05.05-2.86.24-3.15-1.07.47-.77,1.59-1.4,2.53-.95.7.34.62,1.41.62,2.01Z" fill="#6a3511"/><path d="M169.03,107.2c-.92.16-1.73-.3-2.01-1.18.87-.07,1.7.35,2.01,1.18Z" fill="#f0bc56"/><path d="M175.99,112.25c-1.43-.83-3.21-1.38-3.95-2.95,1.71.4,3.56,1.1,3.95,2.95Z" fill="#f0bc56"/><path d="M171.04,109.24c-.5-.21-1.27-.57-1.06-1.22.45.31.82.73,1.06,1.22Z" fill="#f0bc56"/><path d="M231.13,245.93c2.81,3.24,1.75,4.08,4.01,6.14-.11,1.55,1.17,3.65.09,5.38-1.38,2.21-4.12,3.03-5.89,4.93-4.24,4.55-8.44,8.83-12.98,13.06-5.78,5.38-12.02-3.29-15.58-7.11-2.19-2.36-9.54-10.28-11.62-10.29-.51-3.94.82-8.2,3.77-10.9l9.11-5.29c7.48-4.34,13.29-1.97,19.37-.32,7.08,1.92,9.7,8.06,9.71,4.42ZM223.86,257.58c1.33-3.59,1.23-6.84-.56-9.64-2.05-1.22-4.57-.54-5.57,1.72s-.92,4.64.07,6.8c1.1,2.4,4.04,3.05,6.06,1.12Z" fill="#f68c2f"/><path d="M239.21,264.1c.16.52.26,1.19.24,1.75-.03.99.55,1.99.83,3.28.46,2.09-1.39,1.67-2.24,1.96-1.81.62-2.7,3.08-2.81,4.92-2.73.67-8.43,14.78-18.76,20.33-11.01,5.91-22.15-14.74-27.4-20.2-.24-1.1-.18-2.6-1.33-3.77-.97-.98-2.32-.06-3.08-.04-.81-.1-1.63-.6-2.63-1.17,5.37-6.14,3.25-7.76,4.66-9.62.93-1.23,2.68-1.97,2.48-3.5,2.08.01,9.43,7.94,11.62,10.29,3.56,3.83,9.8,12.5,15.58,7.11,4.55-4.23,8.74-8.51,12.98-13.06,1.77-1.9,4.51-2.71,5.89-4.93,1.08-1.73-.2-3.82-.09-5.38,7.59,1.05,1.73,12.41,4.07,12.03ZM193.94,271.53c4.16,6.15,15.2,25.79,22.75,18.04,5.42-5.56,11.18-12.78,14.38-20.44-6.77,5.9-16.1,20.75-26.7,10.56-3.01-2.9-5.97-5.57-9.23-8.34-.08-1.71-1.21-1.37-1.21.18Z" fill="#713206"/><path d="M231.13,245.93c-.01,3.64-2.64-2.49-9.71-4.42-6.08-1.65-11.89-4.02-19.37.32l-9.11,5.29c3.18-5.95,9.1-10.33,16.12-12.1,9.07-2.29,17.22,5.32,22.07,10.9Z" fill="#f0bc56"/><path d="M235.23,276.01c-.14,2.4-1.18,4.43-2.47,6.87-6.12,11.66-5.2,12.2-15.96,21.83-3.02,2.7-6.43,2.52-9.45-.07-7.15-6.13-12.28-13.87-16.67-22.25-1.13-2.16-2.23-4.12-1.61-6.26,5.25,5.46,16.39,26.12,27.4,20.2,10.33-5.55,16.03-19.66,18.76-20.33Z" fill="#d89633"/><path d="M223.86,257.58c-2.03,1.94-4.96,1.28-6.06-1.12-.99-2.17-1.03-4.63-.07-6.8s3.52-2.94,5.57-1.72c1.79,2.81,1.9,6.06.56,9.64Z" fill="#f0bc56"/><path d="M193.94,271.53c0-1.55,1.13-1.89,1.21-.18,3.26,2.77,6.21,5.44,9.23,8.34,10.59,10.19,19.93-4.66,26.7-10.56-3.2,7.66-8.96,14.89-14.38,20.44-7.56,7.75-18.6-11.89-22.75-18.04Z" fill="#f68c2f"/><path d="M316.04,215.12c0,20.12-16.31,36.43-36.43,36.43s-36.43-16.31-36.43-36.43,16.31-36.43,36.43-36.43,36.43,16.31,36.43,36.43ZM257.28,207.03c-2.41,9.31-.67,19.95,7.23,26.37,11.25,9.14,27.83,6.48,35.01-5.96,5.24-9.08,4.52-20.64-2.35-28.19-6.47-7.12-15.64-9.49-25.08-6.73l-6-1.13c-3.77-.71-6.72,2.45-8.32,4.92-2.09,3.24-1.44,6.7-.49,10.73Z" fill="#35bfa2"/><path d="M257.28,207.03c4.72,4.5,10.55,6.52,15.88,1.73s3.26-11.34-1.07-16.24c9.44-2.76,18.61-.38,25.08,6.73,6.86,7.55,7.58,19.11,2.35,28.19-7.17,12.44-23.76,15.1-35.01,5.96-7.9-6.42-9.64-17.06-7.23-26.37ZM295.18,227.84c0-2.45-1.99-4.43-4.43-4.43s-4.43,1.99-4.43,4.43,1.99,4.43,4.43,4.43,4.43-1.99,4.43-4.43Z" fill="#1b5b53"/><path d="M272.09,192.51c4.33,4.9,6.57,11.29,1.07,16.24s-11.16,2.77-15.88-1.73c-.95-4.03-1.6-7.49.49-10.73,1.6-2.47,4.55-5.64,8.32-4.92l6,1.13Z" fill="#fbfcfa"/><circle cx="290.74" cy="227.84" r="4.43" fill="#f8f5f0"/><path d="M181.33,215.15c0,20.09-16.29,36.38-36.38,36.38s-36.38-16.29-36.38-36.38,16.29-36.38,36.38-36.38,36.38,16.29,36.38,36.38ZM122.48,207.13c-2.44,9.48-.62,19.45,7.37,26.24,9.24,7.85,23.48,7.26,31.75-1.74,9-9.81,8.67-24.19-.45-33.79-5.63-5.93-17.52-8.55-23.13-4.61-5.11-1.53-7.48-3.29-12.83.51-2.5,1.77-4.19,5.12-3.61,8.39l.89,5.01Z" fill="#35bfa2"/><path d="M122.48,207.13c1.11.37,1.81,1.54,2.95,2.35,4.84,3.41,11.1,2.52,14.38-2.03s1.9-9.95-1.78-14.22c5.61-3.94,17.5-1.32,23.13,4.61,9.12,9.6,9.45,23.99.45,33.79-8.27,9.01-22.51,9.6-31.75,1.74-7.99-6.79-9.82-16.76-7.37-26.24ZM160.6,227.93c0-2.41-1.95-4.36-4.36-4.36s-4.36,1.95-4.36,4.36,1.95,4.36,4.36,4.36,4.36-1.95,4.36-4.36Z" fill="#1b5b53"/><path d="M138.03,193.22c3.68,4.27,5.08,9.63,1.78,14.22s-9.54,5.44-14.38,2.03c-1.14-.8-1.84-1.98-2.95-2.35l-.89-5.01c-.58-3.27,1.11-6.61,3.61-8.39,5.34-3.79,7.72-2.04,12.83-.51Z" fill="#fbfcfa"/><circle cx="156.24" cy="227.93" r="4.36" fill="#f8f5f0"/></svg>