<?xml version="1.0" encoding="UTF-8"?><svg id="Layer_1" xmlns="http://www.w3.org/2000/svg" viewBox="0 0 425.2 623.62"><path d="M123.58,551.18v1c-.31.48-.92,1.03-1.95,1.03l-6.05-.03v-2c2.57-.42,5.39.15,8,0Z" fill="#67340d"/><path d="M141.52,545.91c-.27,2.67-8.04-.2-12.64,3.53-1.78,1.44-2.96,3.45-5.3,2.74v-1c5.95-.33,6.25-8.73,17.94-5.27Z" fill="#51260d"/><path d="M365.88,272.25c-4.99,2.39-4.25,6.41-8.37,9.96-1.35,1.16-3.11,2.32-3.72,3.77-1.8.16.27-4.01-1.01-3.56,9.75-13.12,16.97-27.95,18.81-44.24.15-1.34-.03-2.76.02-4.09l.12-2.91c-.03.66,1.73-8.71.7-14.97-.97-5.87-1.86-20.26-4.85-24.04.27-2.24-.37-4.41-1.13-6.92-16.29-53.09-64.93-91.66-118.52-102.39-56.54-11.32-115.89,4.71-156.09,46.53-15.13,15.74-26.54,34.33-32.35,54.74-1.16,4.09-3.26,8.03-3.8,13.01-.04.34-2.44,10.87-2.92,17.05-.38,4.9-.24,9.53-.18,13.98.24,16.84,5.5,33.48,15.16,47.73,4.41,6.51,12.1,15.08,18.48,19.76.94.69,1.62,1.41,1.58,2.31-1.87,2.26-4.56.23-6.96,0-.45-.21-.83-.51-1.23-.79-1.21-2.43-3.61-4.11-5.34-6.6-1.4-2.01-2.34-4.14-4.88-5.15-1.48-3.39-3.78-6.13-6.89-7.37-29.05-40.67-15.48-99.89,13.06-139.18-9.22-4.4-16.45-9.76-22.78-16.9-12.53-14.13-16.68-33.85-5.2-30.81l3.87,1.03c.69.36,1.51,2.09,2.72,1.61.59-1.46-1.31-2.06-1.69-2.8-8.29-14.71-15.4-37.66-8.1-54.24,1.06-2.42,2.94-4.2,4.82-4.47,4.58-.66,7.44,2.93,9.83,7.27,3.31,6.02,7.1,11.25,11.41,16.68,16.59,20.89,37.94,28.4,63.17,35.6,48.58-24.76,109.44-24.54,157.77-.18l19.66-6.16c19.05-5.97,37.67-18.55,48.52-35.54l9.27-14.53c1.45-2.27,3.73-3.53,6.22-3.37,6.9.44,8.72,12.59,8.89,18.54.44,15.22-4.6,29.43-12.47,42.25,1.93,1.17,9.02-6.02,12.35.74,1.2,2.44.95,5.58.22,8.21-4.55,16.64-18.35,29.44-34.35,37.13,4.7,7.46,9.29,13.42,13,20.91,16.55,33.42,24.31,80.24,3.2,112.37ZM75.92,132.31c2.35,1.82,4.57,1.16,6.09-.7,11.44-13.91,27.2-26.5,43.77-35.8-20.41-6.59-34.72-11.4-50.78-25.99-6.63-6.68-12.59-13.37-17.53-21.38-1.98-3.2-3.67-6.89-6.27-9.73-1.13-.07-2.02,1.48-2.4,2.82-4.77,16.76,1.65,35.28,11,49.25,3.28,4.9,6.74,9.06,11.23,12.82,1.14.95,1.16,3.03.46,3.82-3.71,4.23-19.33-8.29-24.98-10.46,2.82,15.68,15.88,28.36,29.4,35.36ZM378.31,97.18c-5.35,2.55-22.61,15.59-24.89,9.5-.47-1.27.03-2.47,1.21-3.51,31.78-27.84,23.71-71.79,18.38-63.38l-7.37,11.64c-10.08,15.91-24.59,28.09-41.96,35.52-7.85,3.79-15.55,5.41-24.6,8.65,17.96,10.14,33.11,22.96,46.44,38.51,13.05-5.37,23.7-14.67,30.16-26.87,1.68-3.17,3.54-6.26,2.63-10.06Z" fill="#6a3511"/><path d="M79.6,297.2c-7.14-4.94-12.17-12.2-17.12-19.12,3.11,1.24,5.41,3.98,6.89,7.37,2.54,1.01,3.49,3.14,4.88,5.15,1.73,2.49,4.13,4.16,5.34,6.6Z" fill="#67340d"/><path d="M51.43,92.21l1.03-1.19c.39.74,2.28,1.34,1.69,2.8-1.22.48-2.03-1.26-2.72-1.61Z" fill="#e1c7a0"/><path d="M366.58,192.18c.69,2.6,3.8,19.42,3.84,22.02l.22,15.97c.01.8.53,1.24,1.09,1.01l-.12,2.91c-.31-.07-.63-.09-.95-.05-5.02,10.91-10.61,20.88-19.77,29.5-14.19,13.36-30.41,23.62-48.93,29.89l-17.3,5.86c-.31-1.43-1.98-1.16-3.07-.82l-1-.11c.04-.3.2-1.53-.19-1.85-2.34-.13-4.23-.97-6.43-1.37l-15.49-2.81c-2.69-.49-7.19.4-9.19-2.07-1.39-6.12-2.26-12.46-6.77-17.03l-5.89-5.97c-5.6-5.68-11.95-7.08-19.82-8.45-4.01-.7-13.37.52-16.95,1.87l-5.67,2.14c-2.13.8-2.29,3.86-5.61,3.69-1.23-.06-1.45,2.62-2.33,3.28-2.94,2.19-5.2,4.92-5.36,8.26-.02.37-.09.75-.14,1.13-4.49-.94-2.25,8.48-5.44,10.65-3.92,2.67-9.11,2.13-13.59,2.71-1.91.25-3.46,1.47-5.26,1.44-3.02-.05-5.36.77-8.09,1.77-3.09,1.14-6.55.5-8.86,2.47-15.57-3.68-30.75-9.61-44.57-18.37-11.62-7.37-17.52-12.18-26.41-22.7-7.29-8.63-13.02-18.18-14.95-28.96-.29-1.61.74-3.24.81-5.19l.37-10.75c.04-1.3,1.84-15.61,2.52-16.95,1.82-3.56,1.83-6.91,3.04-10.02,1.36-3.51,9.15-20.39,11.19-23.07l7.76-10.19c9.67-12.69,10.69-12.36,21.94-22.33l5.86-5.2c8.02-7.11,33.84-20.7,44.69-24.28,7.38-2.44,14.76-4.56,22.45-6.49,15.06-3.79,38.68-4.51,54.26-3.44,3.41.23,6.55.99,10.08,1.04,3.87.06,28.96,6.61,33.59,8.44l7.06,2.8c10.79,4.28,28.92,14.26,37.76,21.21l10.04,7.9c2.31,1.82,4.51,3.48,6.42,5.69l5.52,6.4c2.81,3.25,5.35,5.89,7.86,9.37,10.96,15.19,14.86,20.46,19.78,39.06Z" fill="#f3c13d"/><path d="M139.51,298.22c.64.45,1.04,1.14,1.17,1.91-5.22,5.38-5.61,4.41-9.37,13.19-7.33-4.07-14.54-7.62-22.58-10.09-9.59-2.95-14.56-.76-17.53-3.62-.93-.9-2.32-1.97-3.4-1.62.04-.89-.64-1.62-1.58-2.31-6.37-4.68-14.07-13.25-18.48-19.76-9.65-14.25-14.92-30.89-15.16-47.73h1c1.94,10.77,7.66,20.33,14.95,28.96,8.89,10.52,14.79,15.34,26.41,22.7,13.82,8.76,29,14.69,44.57,18.37Z" fill="#d89633"/><path d="M371.58,238.18c-1.84,16.29-9.06,31.12-18.81,44.24-1.56,2.1-4.64,4.37-6,6.68-.78,1.34-3.9,2.37-4.42,4.22-3.66,2-7.23,5.31-10.66,7.83-12.42-.69-26.52,5.49-37.83,12.4-2.09-6.71-5.7-10.76-10.37-14.11.37-.09.79-.03,1.14-.15l17.3-5.86c18.52-6.27,34.75-16.53,48.93-29.89,9.16-8.63,14.75-18.6,19.77-29.5,0,1.37-.73,3.56.93,4.14Z" fill="#d89633"/><path d="M180.75,279.18c-.22,1.71-1.78,3.12-2.18,5.14l-1.61,8.14-14.62,2.27c-7.68,1.19-14.7,3.21-21.66,5.38-.13-.77-.52-1.46-1.17-1.91,2.32-1.96,5.77-1.33,8.86-2.47,2.72-1,5.07-1.83,8.09-1.77,1.8.03,3.35-1.19,5.26-1.44,4.48-.58,9.67-.03,13.59-2.71,3.19-2.17.94-11.59,5.44-10.65Z" fill="#f0bc56"/><path d="M341.41,313.19c-8.7-13.45-31.25-1.75-42.5,4.26-1.57.84-2.67,2.15-4.22,2.05.68-4.57,17.73-10.2,21.54-11.73,2.39-.96,4.89-.93,7.24-1.66,6.8-2.1,12.92-.97,17.58,4.81.37.46,2.11.48,1.47,1.55-.21.35-.72.61-1.1.71Z" fill="#4f3b1e"/><path d="M280.58,298.37l-15.06-3.2-8.71-1.33c-2.96-.45-5.52-1.48-8.76-1.2-1.22-16.59-13.21-29.95-29.91-32.22-17.81-1.37-27.53,3.83-37.25,17.63.16-3.34,2.42-6.07,5.36-8.26.89-.66,1.1-3.35,2.33-3.28,3.32.17,3.48-2.88,5.61-3.69l5.67-2.14c3.58-1.35,12.94-2.57,16.95-1.87,7.87,1.36,14.22,2.77,19.82,8.45l5.89,5.97c4.51,4.57,5.38,10.91,6.77,17.03,2,2.47,6.5,1.58,9.19,2.07l15.49,2.81c2.2.4,4.09,1.25,6.43,1.37.39.33.23,1.56.19,1.85Z" fill="#f0bc56"/><path d="M351.52,289.31c-.55,2.22-6.73,8.28-9.75,7.06.54-.81.42-2.11.59-3.04.52-1.85,3.64-2.88,4.42-4.22,1.58.13,3.16.23,4.75.2Z" fill="#6a3511"/><path d="M342.36,293.33c-.16.92-.05,2.23-.59,3.04-2.93,2.16-4.06,6.96-7.53,6.52-.86-.11-1.9-.84-2.54-1.72,3.42-2.52,6.99-5.84,10.66-7.83Z" fill="#713206"/><path d="M284.65,299.29c-.36.12-.78.06-1.14.15-.51-.37-1.78.03-1.92-.97,1.09-.34,2.76-.61,3.07.82Z" fill="#f0bc56"/><path d="M378.31,97.18c.91,3.81-.95,6.89-2.63,10.06-6.46,12.2-17.11,21.5-30.16,26.87-13.32-15.55-28.47-28.37-46.44-38.51,9.05-3.24,16.75-4.86,24.6-8.65,17.37-7.43,31.88-19.61,41.96-35.52l7.37-11.64c5.33-8.42,13.41,35.54-18.38,63.38-1.19,1.04-1.69,2.24-1.21,3.51,2.27,6.09,19.54-6.95,24.89-9.5Z" fill="#d89633"/><path d="M75.92,132.31c-13.52-7-26.58-19.68-29.4-35.36,5.65,2.17,21.27,14.69,24.98,10.46.69-.79.67-2.87-.46-3.82-4.49-3.75-7.95-7.92-11.23-12.82-9.35-13.97-15.77-32.49-11-49.25.38-1.34,1.27-2.89,2.4-2.82,2.6,2.84,4.29,6.53,6.27,9.73,4.94,8.01,10.9,14.7,17.53,21.38,16.07,14.6,30.37,19.41,50.78,25.99-16.57,9.3-32.33,21.9-43.77,35.8-1.53,1.86-3.75,2.52-6.09.7Z" fill="#d89633"/><path d="M367.58,192.18h-1c-4.92-18.6-8.82-23.87-19.78-39.06-2.51-3.48-5.05-6.11-7.86-9.37l-5.52-6.4c-1.91-2.21-4.11-3.88-6.42-5.69l-10.04-7.9c-8.84-6.96-26.97-16.94-37.76-21.21l-7.06-2.8c-4.63-1.83-29.72-8.38-33.59-8.44-3.53-.05-6.67-.8-10.08-1.04-15.58-1.07-39.2-.35-54.26,3.44-7.69,1.94-15.06,4.05-22.45,6.49-10.85,3.58-36.67,17.17-44.69,24.28l-5.86,5.2c-11.25,9.97-12.27,9.64-21.94,22.33l-7.76,10.19c-2.04,2.68-9.82,19.57-11.19,23.07-.72.24-.79-.63-.84-1.14,5.81-20.41,17.23-39,32.35-54.74,40.2-41.82,99.55-57.84,156.09-46.53,53.59,10.72,102.23,49.29,118.52,102.39.77,2.51,1.41,4.68,1.13,6.92Z" fill="#f8d47d"/><path d="M60.32,185.28c-1.21,3.11-1.22,6.46-3.04,10.02-.69,1.34-2.48,15.65-2.52,16.95l-.37,10.75c-.07,1.95-1.1,3.58-.81,5.19h-1c-.06-4.45-.2-9.08.18-13.98.48-6.19,2.89-16.71,2.92-17.05.54-4.98,2.64-8.92,3.8-13.01.04.51.12,1.38.84,1.14Z" fill="#f0bc56"/><path d="M371.73,231.18c-.56.22-1.08-.22-1.09-1.01l-.22-15.97c-.04-2.6-3.15-19.42-3.84-22.02h1c2.99,3.78,3.87,18.16,4.85,24.04,1.03,6.25-.73,15.62-.7,14.97Z" fill="#f0bc56"/><path d="M353.79,285.98c-.55,1.31-.15,3.31-2.26,3.32-1.59.04-3.17-.06-4.75-.2,1.35-2.32,4.44-4.59,6-6.68,1.28-.45-.79,3.72,1.01,3.56Z" fill="#713206"/><path d="M371.58,238.18c-1.66-.58-.93-2.77-.93-4.14.32-.04.64-.02.95.05-.06,1.34.13,2.75-.02,4.09Z" fill="#f0bc56"/><path d="M280.58,298.37l1,.11c.15,1,1.41.6,1.92.97,4.66,3.35,8.28,7.39,10.37,14.11,11.31-6.9,25.41-13.08,37.83-12.4.65.88,1.69,1.61,2.54,1.72,3.46.44,4.6-4.36,7.53-6.52,3.03,1.23,9.2-4.84,9.75-7.06,2.11-.01,1.71-2.02,2.26-3.32.61-1.45,2.37-2.61,3.72-3.77,4.13-3.55,3.38-7.57,8.37-9.96-3.56,10.1-17.68,24.16-26.78,30.84,10.52,7.44,6.68,10.36,12.27,15.31,5.56,4.92,9.94,10.54,14.29,16.55,26.1,36.03,34.43,89.82,7.95,127.28-2.48,3.5-4.93,6.76-8.15,8.89.06-.46.78-7.92-.57-6.77.53-1.44,1.5-2.8,2.73-4.19,6.64-7.53,13.17-22.77,13.9-32.26.12-1.52,1.23-3.08,1.03-4.64s.97-3.17.98-5.07l.14-17.08c.25-31.15-16.41-59.87-38.96-81.12-3.33-.63-5.47.71-7.9,1.21-3,.62-5.77,1.79-8.91,3.33l-6.03,2.96c-9.52,4.68-17.24,11.78-24.59,19.47,1.54,2.17,1.99,15.62,2.29,17.29l1.06,5.86c.56,3.12.57,5.99.84,9.11l.98,11.28c4.41.57,9.04,1.12,12.62,4.08,5.37,4.45,4.59,12.97,5.57,17.56l.87,4.08c.94,4.38,1.13,13.67,2.2,19.15,8.96-1.58,17.08-4.4,24.39-9.65.73-12.25-.99-32.83-4.66-44.38-1.04-3.26-1.96-6.68-2.53-10.1-.33-1.95,2.08-2.3,3.16-2.15,1.27.17,2.43.99,2.88,2.73,2.13,8.19,4.02,16.12,5.27,24.59l1.15,7.79.28,21.93c.04,3.38,5.07,10.47-3.82,24.04.25-.39-4.25,10.08-3.5,9.9-.22-.08-.49.05-.72,0-.79-1.87-2.97-2.14-4.82-1.89.92-3.5-8.22,1-8.15,1.85-21.16,2.81-10.07,5.41-28.06,12.92-.3-.1-.69.12-1,.07-2.35,1.73-3.69,4.61-5.02,7.17-.77.49-1.77.89-1.97,1.92-12.63,7.68-22.15,10.23-37.48,12.78,1.05,2.75,1.3,5.47,2.53,7.29-3.01-1.26-1.86-2.96-6.01-1.08l-3.09-5.42c-26.84,2.64-53.01,2.51-79.81-.18-2.1,2.75-2.71,6.06-4.16,8.79l-2.13,4.01c-.88-.23-1.89-.37-2.75-.91-1.03-.64-.97-2.09-1-3.23l-.04-1.1c1.02-2.49,2.57-4.74,3.48-8.31-11.01-2.04-21.33-4.31-31.18-9.02-5.32-2.54-8.97-6.34-11.49-11.66-.65-1.38-2.87-1.29-4.1-1.79-5.22-2.13-9.58-5.36-13.35-9.53-4.91-1.04-9.5-2.05-14.62-3.62-2.25-.69-4.23-2.67-6.98-2.18l2.07,6.29c-2.56,4.61,5.33,7.15-.65,8.9-2.89-2.25-4.66-9.72-7.22-11.85.4-.41-3.66-11.35-3.72-11.42-7.02-9.65-3.57-18.03-3.52-22.71l.23-19.95.94-4.05c.58-2.51-.17-4.84.2-6.98.06-.33.02-.68.1-1,1.83-7.53,2.79-15.52,5.91-23.91.98-.36,1.7-1.72,2.81-1.94,1.2.32,3.5,1.83,2.92,3.64-2.74,8.49-7,27.72-7.01,36.18,0,6.49-2.55,21.1,4.09,20.18.67,1.6,2.82,1.28,3.92,2.02,4.45,3,10.05,3.68,16,4.99l1.36-12.97c.62-5.88,2.37-14.97,3.57-21.19,1.71-8.88,8.8-9.38,15.67-10.43,2.06-1.13,1.17-4.51,1.38-6.48,1.45-13.62,2.48-24.5,3.6-37.83-4.93-6.13-11.19-10.61-17.55-15.21-2-1.44-3.71-3.11-5.94-3.17-.26-.75-1.3-.89-1.92-1.08-.34-.26-.61-.85-1.09-.97-.29-.07-.7-.1-1-.09-.35-1.41-1.82-1.54-3-1.87-.95-.27-1.83-1.12-2.91-.99-.17-.84-10.78-3.85-13.33-3.02-18.28,18.33-32.02,40.61-36.96,66.35-.44,2.3-.81,4.04-1.48,5.78-.74-.19-3.99-.61-4.07,1.02-.47,9.15-.31,17.85-.12,26.97.08,3.78,3.16,14.26,3.91,17.99.37,1.81,1.64,2.96,3.17,3.73,2.1,1.07,1.99,4.92,3.83,3.56.03.26.07.53.08.79.02.61.41.98,1.03.95.74.86.8,2.21,1.07,3.2-3.44,7.28.97,8.6,2.8,11.68,6.01,10.09,10.19,5.7,12.15,7.87,1.32,1.46,2.44,3.64,4.85,3.25,1.08-.18,1.81-1.38,2.68-1.36,1.39,2.05,4.53,3.17,3.48,6.6-.85,2.79.57,4.22,2.91,5.64,11.05,6.74,17.3,4.47,21.45,6.79,14.56,8.13,9.95,10.26,15.42,12.37,2.04.79,4.07,2.37,4.81,4.19-2.46-.26-10.94-6.93-13.86-9.25-2.38-1.89-4.24-4.87-7.32-5.75-4.53-1.29-9.31-1.28-13.64-3.31-6.91-3.25-13.42-6.83-19.57-11.38-13.58-10.05-22.44-24.36-27.2-40.53-4.22-14.3-5-23.77-3.98-39.02,1.13-16.86,6.2-32.23,13.78-47.05,6.92-13.53,16.45-24.24,26.3-35.51,3.35-3.83,3.81-10.5,10.37-11.76-2.93-3-4.28-3.67-5.4-5.87,2.4.23,5.09,2.26,6.96,0,1.09-.36,2.47.72,3.4,1.62,2.97,2.87,7.94.68,17.53,3.62,8.04,2.47,15.25,6.02,22.58,10.09,3.76-8.78,4.15-7.81,9.37-13.19,6.97-2.17,13.98-4.19,21.66-5.38l14.62-2.27,1.61-8.14c.4-2.02,1.96-3.43,2.18-5.14.05-.37.12-.75.14-1.13,9.72-13.81,19.44-19.01,37.25-17.63,16.7,2.27,28.69,15.63,29.91,32.22,3.24-.28,5.8.75,8.76,1.2l8.71,1.33,15.06,3.2ZM228.51,280.22c3.06,2.72,3.53,6.73,5.14,10.26,1.73,2.13,5.87,1.28,8.53,1.05-.9-8.37-5.36-16.39-12.79-20.85-11.18-6.71-26.87-6.1-36.4,2.04-5.42,4.63-8.79,11.19-9.7,18.66,3.06.71,5.85.29,8.8-.5.44-4.59,2.18-8.7,5.68-11.51,7.88-6.33,22.69-6.33,30.74.85ZM227.28,290.76c-1.01-11.68-15.99-11.57-23.06-8.82-3.74,1.45-6.28,5.25-6.08,9.07l29.13-.25ZM125.59,396.27c-4.61-1.35-9.31-1.47-13.57,2.34-2.1,1.88-2.14,4.84-2.58,7.46l-1.15,6.88c-.25,1.51-1.93,10.09.36,9.31.1.35-.28.83-.16,1.76-3.01-2.39-2.83,16.53-3.02,19.14-.22,2.95.62,5.34,1.05,8,.99,6.06,3.46,10.94,8.71,14.41,1.91,1.26,4.62,2.6,6.83,1.03,1.3-2.32-.48-7.64,1.82-8.42.27-.12.5-.08.52.26.53,10.92,3.55,19.23,13.46,24.38,4.38,2.27,13.77,4.87,18.77,5.56,6.09.84,11.76,3.26,17.99,3.33,4.46.05,8.6.95,13.02,1.1l14.92.5c5.64.19,10.75.45,16.31.24l20.67-.79c5.13-.2,20.23-2.06,25.45-3.23l8.21-1.84c9.93-2.23,23.89-7.53,25.82-18.9.44-2.58.93-4.73,1.94-6.73,1.85-.04,1.72,4,2.69,4.59,4.98,3.04,11.67-5.82,14.34-10.84,5.31-9.96,2.06-20.58,1.76-28.71l-.36-9.76c-.21-5.61-2.78-11.09-4.84-16.54-1.75-4.62-9.57-8.21-14.93-4.52-1.52-1.48-2.49-14.64-2.73-17.94l-.66-9.04c.04.6-2.13-18.05-2.22-18.78-.3-2.19-1.18-11.15-2.98-11.35-4.21-.47-1.82,5.37-6.91,10.92-.04-2.91.65-5.16,1.28-7.71l3.57-14.41c.07-.29,1.88-16.54-1.55-15.8.04-.31-.19-.71-.07-1,.79-1.94-1.48-2.74-2.43-4.24-3.21-5.07-10.5-4.88-11.34-4.53-.28.11-.7-.08-1-.07-1.77-2.35-5.26-2.15-8-2.15-.66,0-1.34-.01-2,.07,2.43-1.82-31.62-5.67-29-3.23-.55-.13-1.27-.15-1.82-.04,1.54-3.19-7.35-1.15-11.13-1.94-10.62-2.22-14.28-.03-17.09.04l-8.93.19c-3.04.07-5.83,1.38-9.03.87-1.24-.2-23.47,2.81-22.64,2.38-5.32,2.73-10.73.33-19.95,6.1-10.98,6.86-6.99,15.11-5.41,26.6.87,6.28,2.1,11.78,4.32,18.3-4.93-.31-2.92-10.06-6.8-10.34-1.18-.09-2.68.51-2.98,2.37l-2.17,13.66-.94,12.04-.99,11.89-1.1,11.03c-.22,2.26-.64,4.49-1.32,6.09ZM294.68,319.5l-.09.61c-3.48-.18-1.43,2.09-.89,10.07.1,1.48,1.85,9.23,3.59,9.65,2.26.55,8.89-6.72,8.2-7.81.36-.18.83-.59,1.13-.86,2.33.29,4.07-1.51,6.15-2.87,7.23-4.71,20.1-12.21,28.56-12.23.37-.78.09-1.65,0-2.06-.05-.26.09-.56.07-.82.37-.11.89-.36,1.1-.71.65-1.07-1.1-1.09-1.47-1.55-4.66-5.78-10.78-6.91-17.58-4.81-2.35.73-4.85.7-7.24,1.66-3.81,1.53-20.86,7.16-21.54,11.73ZM127.94,338.79c.89-4.12,3.03-15.9,2.19-19.21-10.15-6.14-39.04-21.46-45.83-5.86l11.91,3.69c10.78,3.34,22.74,13.67,31.73,21.39ZM324.68,455.76c14.52-4.72,24.55-6.67,24.82-23.31-2.57.09-3.94,1.81-5.98,2.77-6.32,2.98-12.7,4.63-19.8,6.06.78,2.11-3.79,18.47.96,14.49ZM100.98,440.92c-5.24-1.17-19.52-4.52-22.71-7.26-4.18-3.58-1.85,8.15,2.03,12.96,3.63,4.49,15.34,7.58,21.42,9.09,1.73.43.01-13.61-.73-14.79Z" fill="#67340d"/><path d="M172.95,591.02c.69-.4,1.51-.59,2.45-.49.1-.13.18-.26.21-.38.47-2.02,2.25-3.56,3.2-5.69,2.45-5.5.55-11.63-4.05-15.42-1.87-1.54-3.56-2.93-4.1-4.99-.05-.21.06-.46.04-.68-.51-.07-1.16.2-2.19-.58,3.66-3.72,8.25-3.74,11.61-6.98,1.28-1.23,2.81-1.39,4.18-1.24.25.03.67-.02.88-.11.78-.31,2.89-.11,3.2-1.31.71-2.72-.45-5.19.5-7.71.21-.55,1.48-.23,1.71-.25-.42-2.93.51-5.76.84-9.06l.64-6.38,2.22-11.78c.6-3.17.79-6.65,2.12-8.87.47-.95.17-3.35-.42-4.51-.88-1.74-3.89-1.54-4.58.15-.59,1.44-.85,2.59-1.71,3.33.22,4.98-2.69,17.88-3.93,23.09-.1,10.31-1.13,20.88-13.29,24.9-6.74,2.23-13.84-1.37-15.37-8.17-1.07-4.73-.16-9.23.51-13.53.65-4.13,7.81-24.13,8.83-26.04-.88-.23-1.89-.37-2.75-.91-1.03-.64-.97-2.09-1-3.23l-5.63,12.14c-19.82-5.91-34.48-12.28-49.94-26.6-4.49-4.16-8.75-7.89-12.08-13.1l-8.55-13.37c-2.56,4.61,5.33,7.15-.65,8.9.35,1.55,1.05,3.15,2.23,4.67l6.2,8.05c-8.59-.09-13.37-7.73-17.52-6.45-.85,2.79.57,4.22,2.91,5.64,11.05,6.74,17.3,4.47,21.45,6.79,14.56,8.13,9.95,10.26,15.42,12.37,2.04.79,4.07,2.37,4.81,4.19.1.25.03.58.07.85,3.13-1.48,2.13,5.51,5.11,7.96,1.69,1.39,3.08,2.27,3.7,4.48l1.78,6.34c1.24,4.41,11.28,8.71,12.13,10.58.12.26,1.68,11.23-1.77,8.22l-.86.08c-.27,2.67-8.04-.2-12.64,3.53-1.78,1.44-2.96,3.45-5.3,2.74-.31.48-.92,1.03-1.95,1.03l-6.05-.03c-4.88-.02-11.62,5.28-13.54,9.77-1.35,3.15-.76,8.38,2.29,10.33,8.46,5.4,31.23,2.21,42.26,7.94,3.31,1.72,6.8,3.05,9.9,5.09,2.24,1.47,4.02,1.92,6.84,2.28.45.12.85.52,1.2,1.03.21.03.42.07.62.13,2.41.66,4.79,1.06,7.22,1.27.19,0,.38,0,.57.01ZM129.02,512.59c9.26,2.61,14.36,6.55,26.03,8.87l-3.63,12.91c-10.44-.6-19.07-12.65-22.4-21.78ZM162.44,584.13l-8.33-4.74c-1.34-.76-2.94-.76-3.53-2-.3.05-.71.02-1-.06l-9.43-2.63c-9.78-2.73-31.04-1.12-33.9-5.75-2.37-3.83,4.58-9.58,3.3-7.88,7.28-9.62,26.68,2.28,28.35-.94.67-1.3.74-2.82-.42-3.83-1.54-1.34-3.51-1.29-5.23-3.29,3.14-1.86,6.41-1.8,9.82-1.27,1.08,1.98.57,8.52,3.86,7.84,4.19-.87,2.58-8.58,2.66-13.29.04-2.07-.58-4.17.65-6.62,2.21,1.23,1.29,3.17,1.33,4.54.22,7.19,4.97,15.81,11.91,17.01,2.69.47,1.56,2.95,2.27,3.94,4.05,5.65,10.91,8.34,11.08,14.99.09,3.44-2.09,5.53-5.31,5.65-3.04.11-5.5-.18-8.09-1.65Z" fill="#71340c"/><path d="M318.44,557.14c-10.89-8.37-18.54-.07-19.86-7.02-.28-.33-.6-.61-.96-.85-2.37.07-4.54-1.26-7.17-1.98-2.46-.67-5.34.72-7.6-.51-1.83-1-1.7-4.08-2.51-5.59-2.07-1.69-3.1-4.42-3.97-6.9-1.12.59-2.96.42-3.24-.73-.99-4.13-2.33-7.77-2.77-11.79,9.54-2.16,17.4-5.75,25.78-9.94.9,2.29-.64,3.13-.44,4.28,1.33.02,1.91,1.32,2.77,2.14.38-1.64,1.83-3.53,3.27-4.18l.03-.92.21-4.46c.03-.7,1.25-.39,1.69-.55.35-.12.99-.69,1.02-1.06-1.31-3.01,11.36-6.04,3.8-8.32-1.81-.1-3.19,1.19-4.93,2.32-10.16,6.61-21.13,10.91-32.6,14.7-1.57.52-3.24.57-3.87-1.34-.75-2.28-1.85-4.28-2.29-6.29-.52-2.37-1.86-4.07-3.15-5.98-3.01-1.26-1.86-2.96-6.01-1.08-1.81-3.17,5.88,15.48,6.13,16.06-.03.31.19.7.1,1,1.66.49,1.78,2.48,1.71,4,1.36,1.13,1.45,3.04,2,5.01,2.44,8.66,6.4,21.57-1.31,27.29-7.38,5.48-15.47.93-21.18-5.75-1.89-2.21-3.11-4.75-2.96-7.77.16-3.16-.77-5.92-1.28-9-.98-5.89-1.07-10.6-1.49-13.79l-.13-1c-.4-2.96-1.32-6.04-1.86-9.03-.54-1.18-1.25-3.22-2.37-4.16-1.19-1-2.65.1-3.32.69-.68.61-.51,1.92-1.05,2.49.09,2.02,1.13,4.03,1.54,6.37l2.2,12.7,1.01,6.96c.41,2.81.41,5.25,1.07,8.02.6,2.51-.12,4.97.13,7.12.58,5.02-.97,9.89-2.1,14.75.34.18.96.23,1.17.85-1.13.46-1.64.2-2.16.24-.37.93-.59,1.92-.77,2.91l2.14,3.55c2.81-4.66,4.78-9.14,5.69-14.49.15-.9.62-.94,1.18-.96,1.2-.05,2.12.68,3.18,1.65,3.44,3.13,7.52,4.37,11.96,6.07-5.24,5.93-11.1,9.07-11.08,17.3.01,5,2.87,9.21,7.23,11.04-.02.06-.04.11-.07.16.52-.1,1.06-.13,1.62-.05,1.4-.1,2.7.17,4.08.19.03,0,.06,0,.09,0,.15,0,.3,0,.46-.02.05-.01.1-.02.15-.03,1.04-.41,2.07-.85,3.12-1.24.51-.8,1.56-1.16,2.51-1.62,8.67-4.21,16.95-8.8,26.67-10.26l7.01-1.05c10.1-1.51,23.23.31,26.52-6.27,2.3-4.61-1.24-11.22-4.73-13.9ZM302.81,572.51c-2.5.46-4.66.66-7.31.75-5.06.16-9.74,1.62-14.8,2.23-5.98.72-17.61,11.42-26.68,10.08-3.36-.5-4.67-3.2-4.3-6.3.75-6.26,6.65-8.02,10.68-13.28l.03-.8c.03-.71-.02-1.5.27-2.36.23-.68,1.13-.84,1.88-.81.33,0,.67-.13,1-.09l6.04-3.78c.68-1.57,2-2.85,3.09-4.06,1.95-3.42,1.82-13.68,2.37-13.9,2.98-1.23,1.34,14.49,1.69,17.08.43.4.87,1.14.96,1.72,1.25.13,2.51.11,3.76.03l.81-.05c.1-2.03-.15-5.04,1-6.93,3.15-1.18,6.92-1.02,9.71.93-1.81,2.39-6.94,2.48-6.16,6.24.06.29.04.64,0,.93.76-.37.89.46.82.99l.85.06c1.44-.2,2.93-.87,4.7-1.28l6.4-1.47c7.62-1.75,15.6-.97,19.47,6.14,4.38,8.05-11.89,7.14-16.25,7.95Z" fill="#71340c"/><path d="M370.52,439.11c-1.55,8.39-3.65,18.05-8.15,25.79,1.35.49,1.88-.42,2.52-.55,1.36-1.14.63,6.32.57,6.77-.38.25-.92.87-1.17,1.25-1.11-.25-2.25.17-3.08,1.37-.93,1.34-2.52,1.48-3.76,2.37-4.37,3.14-16.49,13.67-18.89,7.05,7.39-5.44,6.27-2.89,12.41-10.64,3.48-4.39,5.92-8.94,8.23-14.02.85-1.86.78-3.72,1.34-5.2,2.21-5.82,4.07-11.67,4.85-18.28.19-1.66,1.53-2.45,2.72-2.39s2.29.62,2.59,2.51c.25,1.6.03,2.83-.18,3.95Z" fill="#71340c"/><path d="M364.29,472.38c-2.49,3.8-6.91,5.83-10.73,8.69-8.62,6.46-18.11,9.8-28.71,11.52-7.74,5.81-11.38,10.09-20.17,14.53-1.31-3.01,11.36-6.04,3.8-8.32.19-.41.35-1.14,1-1.61,10.37-7.65,12.75-11.78,21.06-19.99l4.02,2.04c.5.62-4.51,6.51-.08,5.14,1.68-.52,2.87-1.2,4.08-1.19,2.39,6.62,14.51-3.91,18.89-7.05,1.24-.89,2.84-1.03,3.76-2.37.83-1.2,1.97-1.62,3.08-1.37Z" fill="#67340d"/><path d="M142.37,545.84c.2-2.22,1.22-5.02.02-7.49-1.47-3.04-13.19-5.54-19.56-26.31-.46-1.49-1.22-2.6-1.4-3.78,3.13-1.48,2.13,5.51,5.11,7.96,1.69,1.39,3.08,2.27,3.7,4.48l1.78,6.34c1.24,4.41,11.28,8.71,12.13,10.58.12.26,1.68,11.23-1.77,8.22Z" fill="#67340d"/><path d="M297.63,549.27c-2.37.07-4.54-1.26-7.17-1.98-2.46-.67-5.34.72-7.6-.51-1.83-1-1.7-4.08-2.51-5.59,1.54.51,1.16-3.66,2.24-5.28,1.97.07,3.79-2.67,6.2-3.96,1.59-.85,8.6-8.95,9.68-13.69.38-1.64,1.83-3.53,3.27-4.18-.05,1.67-.78,3.25-1.53,4.99-3.46,8.01-9.37,13.62-16.62,18.43-1.7,1.37-.75,5.94.21,7.54,3.96-.08,12.28.32,13.84,4.22Z" fill="#683519"/><path d="M303.66,508.17c.08,1.85.24,4.45-1.9,5.01l.21-4.46c.03-.7,1.25-.39,1.69-.55Z" fill="#683519"/><path d="M382.55,423.26c.19,1.55-.92,3.11-1.03,4.64-1.59-2.6-5.58,11.37-8.55,12.2-.87.24-1.72-.54-2.44-.98.21-1.12.43-2.35.18-3.95-.3-1.89-1.35-2.45-2.59-2.51s-2.53.74-2.72,2.39c-.77,6.61-2.64,12.46-4.85,18.28-4.73,1.38-4.19,3.26-11.07,5.71-1.18-3.25,2.63-10.63,4.66-14.28,4.64-8.28,1.72-14.25,1.63-18.6l-.43-21.93-2.31-13.65-1.99-10.01-1.95-8.13c-.42-1.76-2.6-3.54-3.93-4.91-1.06-1.09-4.4-.1-5.01,1-1.87,3.33.4,6.55,1.06,9.79,1.73,8.45,1.95,5.36,3.14,14.9l.9,7.19,1.52,18.68c.4,4.94-2.33,8.53-6.82,9.66s-11.51,5.75-14.64,3.75c-.49-.59-1.74-15.22-1.77-15.36l-1.8-10c-.65-3.64-.65-8.86-4.64-12.62-7.7-7.27-13.1-.82-13.89-11.47l-.8-10.85c-.19-2.63-1.57-5.16-.83-8.01s-.56-5.39-.82-8.02l-.87-8.86c-.34-3.48,4.48-4.62,6.12-6.52,1.83-2.12,3.55-3.07,5.66-4.61l5.69-4.16c6.26-4.57,6.65-3.91,12.54-6.59l6.98-3.18c1.02-2.15,14.3,13.13,14.89,13.91,4.15,5.61,8.78,10.61,12.27,16.7l5.12,8.93c2.42,4.23,3.85,8.79,5.83,13.23,2.16,4.86,3.38,9.55,4.37,14.71.41,2.14,1.31,4.03,1.62,6.42l1.25,9.68c.43,3.34.69,6.24-.43,9.57-.46,1.35-.56,9.28.73,7.86Z" fill="#f6c13f"/><path d="M93.67,323.06c1.08-.13,1.96.72,2.91.99-.08.72-.27,1.82.59,2.08s1.67-.08,2.41-.2c.3,0,.71.02,1,.09.07.6.29,1.36,1.09.97.62.2,1.66.34,1.92,1.08-.02-.06,6.95,5.6,8.3,6.76l6.48,5.59c11.08,9.55,6.58,8.8,6.47,12.85,0-.26-1.78,15.5-1.96,17.01l-1.05,8.87c-.39,3.26.81,6.78-.7,9.58-1.33,2.47-5.93-.53-13.11,5.91-2.35,2.11-4.29,10.86-4.78,14.31l-.86,6.16-1.05,8.04c-.36,2.76-.21,6.31-1.47,8.52-1.53,2.69-11.28-1.51-14.36-1.32-1.11-.75-3.26-.43-3.92-2.02-1.08-1.41-3.19-2.66-3.05-5.11.91-16.15.43-24.06,4.85-40.06,2.13-7.72,4.53-12.91-1.33-15.85-.26-.13-.27.94-.47,1.01-1.11.23-1.83,1.58-2.81,1.94-1.38.51-2.35,1.33-2.84,3.31l-2.18,8.77c.62-2.48-2.19,14.22-.88,11.83-.08.32-.04.67-.1,1-4.18,3.28-3.05,26.44-3.14,32.98-3.58,8.22,2.77,17.2-1.19,19.22-.92.47-3.53,1.59-3.92.06l-3.46-13.85c-.25-1.01-1.89-1.02-2.44-1.32l-.86-.02c-.1-3.61-5.2,2.11-7.63,1.85-4.04-9.54-2.61-1.63-4.93-9.93-3.41-12.19.09-10.29-2.61-15,.63-2.52,1.4-5.43,1-8,.86.16,1.29-.67.98-1.48-.17-.45-.36-.92-.95-.73.04-.84.15-1.76.11-2.61.79.59,1.56-.17,1.75-.81s-.17-1.15-.1-1.6c.25-1.59-.44-3.67.37-5.54,1.31-2.99,1.81-6,2.96-9.02,2.21-5.84,4.17-11.56,6.87-17.18,2.52-5.24,12-19.07,16.18-23.82l4.2-4.77c3.6-4.09,7.47-7.78,11.31-11.4,2.3.33,4.6,1.05,6.4.83Z" fill="#f6c13f"/><path d="M231.76,296.98c-1.26.25-2.57-.78-4.2-.77l-27.97.1c-2.66,0-5.14,1.54-8.01.92-2.05-.44-14.03,1.29-17.06,1.74l-7,1.03-6.18.85c-6.13.84-12.13,1.75-17.79,4.32-2.38,1.08-3.83,3.66-5.19,5.82-1.85,2.94-.59,6.42-.72,9.29-.14,3.09.54,5.93,1.32,9.28,2.23,9.61,5.16,25.94,13.96,31.43,6.07,3.78,12.37,5.88,19.51,6.58,3.55.35,12.21,4.69,13.44-1.36,1.73-8.56,7.61-15.13,14.02-18.44,8.51-4.39,17.08-3.77,25.18.08,13.99,6.63,13.24,18.4,15.91,20.86,2.2,2.02,16.6-1.86,19.95-2.94l5.96-1.92c5.26-1.7,8.91-4.43,11.32-9.31,4.28-8.66,8.83-20.39,8.36-29.35.78.09,1.01-.88,1.11-1.97l.53-6.06c.16-1.81-.98-3.4-.79-4.98,3.43-.74,1.62,15.51,1.55,15.8l-3.57,14.41c-.63,2.55-1.32,4.8-1.28,7.71,5.09-5.55,2.7-11.39,6.91-10.92,1.79.2,2.68,9.16,2.98,11.35.1.73,2.27,19.38,2.22,18.78l.66,9.04c.24,3.29,1.21,16.45,2.73,17.94-1.08,3.97-.15,8.14.17,12.52l1.35,18.34c.49,6.61.67,23.58.18,29.83-.14,1.81-.81,3.67-.38,5.07-1,2-1.5,4.15-1.94,6.73-1.93,11.36-15.89,16.67-25.82,18.9l-8.21,1.84c-5.22,1.17-20.32,3.03-25.45,3.23l-20.67.79c-5.56.21-10.67-.05-16.31-.24l-14.92-.5c-4.42-.15-8.56-1.05-13.02-1.1-6.22-.07-11.89-2.49-17.99-3.33-4.99-.68-14.39-3.28-18.77-5.56-9.91-5.14-12.92-13.46-13.46-24.38-.02-.34-.24-.38-.52-.26-1.26-21.85,1-40.53,1.7-61.91.68-1.6,1.1-3.83,1.32-6.09l1.1-11.03.99-11.89.94-12.04,2.17-13.66c.3-1.86,1.8-2.46,2.98-2.37,3.88.28,1.87,10.03,6.8,10.34-2.22-6.53-3.45-12.02-4.32-18.3-1.59-11.49-5.57-19.74,5.41-26.6,9.23-5.77,14.63-3.37,19.95-6.1-.83.43,21.4-2.58,22.64-2.38,3.19.51,5.99-.8,9.03-.87l8.93-.19c2.81-.06,6.47-2.25,17.09-.04,3.78.79,12.67-1.25,11.13,1.94ZM125.76,430.18c-.11,1.67-.19,3.32-.18,5l.03,19.92c0,.69-.23,2.32.86,2.17-.26,1.25.65,2.76.32,3.96-1.29,4.68,2.8,14.8,9.4,18.53,14.07,7.95,43.25,11.6,59.42,11.49,7.77-.05,15.21,1.45,22.95.76,3.03-.27,5.81-1.26,9.05-.91,7.16.78,25.99-1.18,33.23-2.59,8.18-1.6,15.9-3.45,23.74-6.33,9.04-3.31,14.06-11.85,13.83-21.04-.03-1.27.99-2.53,1.03-4.11.23-9,.6-17.73.04-26.8l-.74-12.06-1.7-23.96c-.19-2.62-.92-4.81-1.11-7.21l-.9-11.83c-.22-2.85-.85-5.38-1.07-8.16l-.65-8.22c-.48-6.05-.36-11.89-2.26-17.88-2.19-.93-4.78,14.23-4.71,13.28-.85,0-1.48.61-2.05,1.67-2.96,5.49-7.11,10.44-12.98,12.8-8.96,3.6-17.86,5.7-27.37,6.86-1.19.15-3.09.23-3.87,1.14-1.54,1.82-1.45,4.3-1.58,6.21-2.79.85-3.46,10.22-7.2,10.48-.51-.28-1.36-1.37-2.18-.88-1.35.81-2.15,1.91-3.43,1.93,5.43-11.53,11.24-17.66,7.13-31.27,1.19.26,2.13,1.72,3.82.86-2.04-6.96-7.47-11.81-13.77-15.28-3.18-1.75-6.62-1.73-10.27-1.89-13.49-.59-24.22,11.27-25.66,23.56-.92.71-2.92,1.17-3.19,3.07,5.78,4.17,4.12,7.53,9.42,17.03.84,1.51,1.66,3.6.7,5.15-.54.87-1.92.91-2.26,1.61-1.28-.29-2.6-.05-3.88-.04l-15.14.07c-1.71,0-3.12,1.06-5.03.78-3.66-.53-7.63.34-10.12,3.15-2.22,2.51-3.24,12.24-.8,13.91-.12,1.36-.08,2.73-.07,4.09-.47-.16-2.05-.23-2.05.95l.04,25.02c0,5.4,1.47,13.01,4.39,17.42,11.29,11.32,32.17,8.57,38.66,9.98,2.27.49,4.23.28,5.96-.26,1.23-.39,2.74-.02,4-.22.19.33.42.85.74.99.51.23,1.07.1,1.28-.38s.43-.89.13-1.33c2.94-.39,5.79.5,8.7.71l9.3.67c4.23.31,8.5-.11,12.81-.78l12.09-1.86c4.96-.76,9.47-3.6,12.77-7.02,2.1-2.17,1.83-4.85,1.75-7.24l-.02-.73c.49,0,1.17.13,1.83-.07.98-.3,3.07-16.23.62-15.84v-4c1.5.31,2.02-.18,2.07-1.49.06-1.8-.11-2.99-2.07-2.51-.8-5.73,1.87-7.51.68-14.08.59-.96.89-2.27.61-3.86l-1.67-9.43c-1.11-6.3-11.29-6.17-12.62-4.62h-5c-.02-.45.21-1.18-.04-1.49-.68-.83-8.9-1.04-8.96.49h-2c.03-.6-.44-.96-1-1-.7-.05-1.4-.06-2.09.02-2.11-1.26-5.59-.46-6.04-2.66,3.23-.17,6.52.27,10.17.45l14.79.72c5.93.29,12.76,1.39,14.44,7.07,2.79,9.43,3.49,48.3-1.18,57.74-3.06,6.17-9.05,9.55-15.64,10.82-4.9.94-9.51,2.25-14.52,2.61l-9.12.65c-17.71,1.26-47.16.95-63.7-4.77-12.25-4.23-13.53-15.04-13.94-27.7-.4-12.2-.47-26.7,1.6-38.28.66-3.71,3.21-6.2,6.87-6.92,8.05-1.57,16.05-1.62,24.36-1.76,2.5-.04,4.87-.23,6.66-1.71l-3.36-7.39c-.74-1.62-1.19-3.12-2.41-3.95.16-1.94.14-5.24-2.34-6.28-2.66-1.11-5.88-1-8.85-1.43-9-1.32-17.41-3.42-25.45-7.63-4.74-3.81-8.23-8.61-10.53-14.27-.33-.81-1.13-1.13-1.56-1.31.26-2.55-1.6-6.25-2.39-10.08-1.15.55-1.55,1.6-1.75,3.15-3.67,28.91-5.89,57.38-7.84,85.93ZM283.69,353.18c0-.62-.5-1.12-1.12-1.12s-1.12.5-1.12,1.12.5,1.12,1.12,1.12,1.12-.5,1.12-1.12ZM180.51,372.1c-.46-1.74-3.11-1.22-3.03.1.09,1.61,3.45,1.49,3.03-.1Z" fill="#4f3b1e"/><path d="M231.76,296.98c.55-.11,1.28-.09,1.82.04-1.84-.42,12.5,1.25,12.96,1.32l6.98,1.05c3.26.49,6.13,1.21,9.06.86.66-.08,1.34-.07,2-.07-.91.99,7.53,2.16,8,2.15.3,0,.72.19,1,.07,5.6,2.19,10.08,2.69,13.77,8.77-.12.29.11.69.07,1-.2,1.58.94,3.17.79,4.98l-.53,6.06c-.09,1.09-.32,2.06-1.11,1.97l-.35-6.73c-.54-10.28-53.18-13.49-62.06-13.85-21.75-.89-59.57.98-79.71,8.53-7.02,2.63-4.92,7.61-6.81,7.16.13-2.87-1.13-6.35.72-9.29,1.36-2.16,2.81-4.74,5.19-5.82,5.66-2.57,11.66-3.48,17.79-4.32l6.18-.85,7-1.03c3.03-.45,15.02-2.19,17.06-1.74,2.87.62,5.35-.91,8.01-.92l27.97-.1c1.63,0,2.94,1.02,4.2.77Z" fill="#7de5ce"/><path d="M91.41,459.13c.47,1.52,1.53,2.94,2.75,4.44,17.06,21.03,42.64,34.53,68.5,39.5l.04,1.1-5.63,12.14c-19.82-5.91-34.48-12.28-49.94-26.6-4.49-4.16-8.75-7.89-12.08-13.1l-8.55-13.37-2.07-6.29c2.75-.49,4.72,1.49,6.98,2.18Z" fill="#d89633"/><path d="M340.79,458.2l-10.25,18.98c-8.32,8.21-10.69,12.34-21.06,19.99-.64.48-.81,1.2-1,1.61-1.81-.1-3.19,1.19-4.93,2.32-10.16,6.61-21.13,10.91-32.6,14.7-1.57.52-3.24.57-3.87-1.34-.75-2.28-1.85-4.28-2.29-6.29,1.76.48-.75-3.98-.21-5.18,22.78-4.48,47.51-17.69,63.22-35.64.64-.73.86-1.47.99-2.08,1.89-1.2,3.6-2.94,3.85-5.23-.07-.85,9.07-5.35,8.15-1.85Z" fill="#d89633"/><path d="M255.63,501.12c-1.87-3.28,6.42,16.79,6.13,16.06-3.32-3.31-4.37-8.09-6.56-12.88-6.09,2.2-12.33,3.34-18.48,4.03-.44.05-.91-.2-1.35-.18-.54-1.18-1.25-3.22-2.37-4.16-1.19-1-2.65.1-3.32.69s-.51,1.92-1.05,2.49c-.68.72-1.75,1.58-1.21,2.8-9.96.58-19.89.56-29.85-.09-.12-.63-.51-.86-1.18-.79.47-.95.17-3.35-.42-4.51-.88-1.74-3.89-1.54-4.58.15-.59,1.44-.85,2.59-1.71,3.33-2.55.75-5.27.1-8.13-.67l-11.98-3.23c-.31-.08-.68.14-1.01.13,1.45-2.73,2.06-6.04,4.16-8.79,26.8,2.69,52.97,2.83,79.81.18l3.09,5.42Z" fill="#d89633"/><path d="M162.66,503.07c-25.85-4.96-51.44-18.47-68.5-39.5-1.22-1.51-2.28-2.92-2.75-4.44,5.13,1.57,9.72,2.58,14.62,3.62,3.77,4.17,8.13,7.4,13.35,9.53,1.22.5,3.44.41,4.1,1.79,2.52,5.33,6.17,9.12,11.49,11.66,9.84,4.71,20.17,6.97,31.18,9.02-.91,3.57-2.46,5.82-3.48,8.31Z" fill="#f5c141"/><path d="M228.51,280.22c-8.06-7.18-22.86-7.18-30.74-.85-3.5,2.81-5.24,6.92-5.68,11.51-2.95.8-5.74,1.21-8.8.5.91-7.47,4.28-14.03,9.7-18.66,9.53-8.14,25.22-8.75,36.4-2.04,7.42,4.46,11.88,12.47,12.79,20.85-2.66.23-6.81,1.07-8.53-1.05-1.61-3.53-2.08-7.53-5.14-10.26Z" fill="#43bba0"/><path d="M127.94,338.79c-8.99-7.71-20.95-18.05-31.73-21.39l-11.91-3.69c6.79-15.59,35.68-.27,45.83,5.86.84,3.31-1.3,15.09-2.19,19.21Z" fill="#43bba0"/><path d="M341.41,313.19c.02.26-.12.56-.07.82-10.98,1.42-26.4,9.63-34.72,17.15-.31.28-.77.68-1.13.86-2.93,1.49-4.54,4.52-7.97,6.51-1.85-3.92-2.52-14.49-2.94-18.41l.09-.61c1.56.1,2.65-1.21,4.22-2.05,11.25-6.02,33.81-17.71,42.5-4.26Z" fill="#43bba0"/><path d="M119.59,454.14c-6.46-.85-8.96-5.67-11.91-10.03.11-4.54-.67-8.39.19-12.52.56-2.69.91-5.18.62-7.57-.11-.93.26-1.41.16-1.76,1.6-5.4,1.49-18.34,5.17-22.87,1.95-2.4,6.38-2.66,8.82-1.79l-1.28,14.5c-.3,3.38-1.45,17.76-1.49,20.13l-.29,21.91Z" fill="#9a47cf"/><path d="M328.79,465.29c-.14.61-.36,1.35-.99,2.08-15.71,17.95-40.44,31.16-63.22,35.64-1.74-1.34-3.44-3.86-2.65-6.38.28-.9,9.57-2.24,14.4-3.67l7.11-2.11c3-.89,5.22-3.53,8.22-4.45,2.59-.8,4.45-1.78,4.93-4.27.2-1.03,1.2-1.43,1.97-1.92,2.49-1.57,3.75-4.6,5.02-7.17.31.05.7-.16,1-.07,2.94.95,13.68-5.41,16.22-8.78,2.67-.34,4.88-1.05,7.45-.99.48.57.46,1.65.54,2.08Z" fill="#f5c141"/><path d="M300.94,462.06c-.43-1.4.23-3.26.38-5.07.5-6.26.31-23.22-.18-29.83l-1.35-18.34c-.32-4.39-1.26-8.55-.17-12.52,5.36-3.68,13.18-.1,14.93,4.52,2.06,5.44,4.64,10.92,4.84,16.54l.36,9.76c.3,8.13,3.55,18.74-1.76,28.71-2.68,5.02-9.36,13.88-14.34,10.84-.97-.6-.85-4.64-2.69-4.59ZM305.51,431.13c.08,1.43.06,2.86.05,5.18l-.03,16.79c0,3.87-1.68,7.72-.56,12.08,8.77-1.48,11.54-9.66,12.34-17.85.59-6.01.54-12.13-.22-18.55-.58-4.88-2.56-24.73-4.27-27.69s-5.68-4.23-8.83-3.72c-1.31,4.81.14,9.16.32,13.87l.53,13.76c.08,2.01.77,3.72.67,6.14Z" fill="#5e302a"/><path d="M382.55,423.26c-1.29,1.42-1.19-6.5-.73-7.86,1.12-3.33.86-6.23.43-9.57l-1.25-9.68c-.31-2.39-1.21-4.28-1.62-6.42-.99-5.16-2.21-9.85-4.37-14.71-1.97-4.43-3.4-9-5.83-13.23l-5.12-8.93c-3.49-6.09-8.12-11.09-12.27-16.7-.58-.79-13.87-16.07-14.89-13.91l-.08-1.05c2.43-.5,4.57-1.84,7.9-1.21,22.55,21.26,39.2,49.97,38.96,81.12l-.14,17.08c-.02,1.9-1.18,3.49-.98,5.07Z" fill="#f8d47d"/><path d="M93.67,323.06c-1.8.22-4.1-.5-6.4-.83-3.85,3.62-7.71,7.31-11.31,11.4l-4.2,4.77c-4.18,4.76-13.65,18.58-16.18,23.82-2.7,5.62-4.66,11.34-6.87,17.18-1.14,3.02-1.65,6.03-2.96,9.02-.82,1.86-.12,3.95-.37,5.54-.55-.56-.96-.23-1.32.2-.61.74-.37,1.51-.33,2.2.04.85-.08,1.77-.11,2.61-.09.26-.65.48-.83.9-.24.56.45.98.79,1.31.4,2.57-.37,5.48-1,8h-1v-9c.23-.57-.25-1.49.09-1.99,1.18-1.76-.41-4.34.23-6.01s1.04-3.49,1.48-5.78c4.94-25.74,18.69-48.03,36.96-66.35,2.55-.83,13.16,2.18,13.33,3.02Z" fill="#f8d47d"/><path d="M125.59,396.27c-.7,21.38-2.95,40.06-1.7,61.91-2.3.78-.51,6.1-1.82,8.42-2.21,1.57-4.92.23-6.83-1.03-5.25-3.46-7.73-8.34-8.71-14.41-.43-2.66-1.27-5.05-1.05-8,.19-2.6.01-21.53,3.02-19.14.29,2.39-.06,4.87-.62,7.57-.86,4.12-.09,7.97-.19,12.52-.19,8.16,3.36,20.15,12.79,21.51.02-3.05.54-10.75-.88-11.48l.29-21.91c.03-2.37,1.19-16.75,1.49-20.13l1.28-14.5c-2.45-.87-6.88-.61-8.82,1.79-3.68,4.53-3.56,17.47-5.17,22.87-2.29.78-.62-7.8-.36-9.31l1.15-6.88c.44-2.62.48-5.58,2.58-7.46,4.26-3.81,8.95-3.7,13.57-2.34Z" fill="#5e302a"/><path d="M324.68,455.76c-4.75,3.98-.18-12.37-.96-14.49,7.11-1.43,13.48-3.08,19.8-6.06,2.04-.96,3.4-2.68,5.98-2.77-.27,16.64-10.3,18.59-24.82,23.31Z" fill="#43bba0"/><path d="M57.75,432.26l.86.02c1.03,1.89,2.03,4.15,2.19,6.71.35,5.39,2.55,9.68,3.93,14.13,2.03,6.54,4.66,12.94,8.55,18.7-.87-.02-1.6,1.18-2.68,1.36-2.41.4-3.52-1.79-4.85-3.25-1.97-2.16-6.14,2.22-12.15-7.87-1.83-3.08-6.25-4.4-2.8-11.68,4.23,4.5,6.12,10.63,11.59,14.72-3-7.96-5.98-15.18-7.09-22.93l-.71-4.95c-.41-2.84.9-4.56,3.16-4.96Z" fill="#71340c"/><path d="M78.63,460.29c2.56,2.13,4.33,9.6,7.22,11.85.35,1.55,1.05,3.15,2.23,4.67l6.2,8.05c-8.59-.09-13.37-7.73-17.52-6.45,1.05-3.43-2.09-4.55-3.48-6.6-3.9-5.76-6.52-12.16-8.55-18.7,2.55-.74,10.59,6.85,13.89,7.17Z" fill="#d89633"/><path d="M360.54,453.32c-.56,1.48-.49,3.34-1.34,5.2-2.32,5.08-4.75,9.63-8.23,14.02-6.14,7.75-5.02,5.2-12.41,10.64-1.21-.01-2.39.67-4.08,1.19-4.43,1.38.58-4.51.08-5.14,5.58-4.82,8.63-12.19,11.06-19.13.23.04.5-.08.72,0,1.29.45,2.13-.7,3.14-1.06,6.87-2.44,6.34-4.33,11.07-5.71Z" fill="#d89633"/><path d="M227.28,290.76l-29.13.25c-.2-3.82,2.34-7.62,6.08-9.07,7.07-2.74,22.04-2.85,23.06,8.82Z" fill="#f0bc56"/><path d="M78.63,460.29c-3.31-.32-11.34-7.91-13.89-7.17-1.38-4.45-3.59-8.74-3.93-14.13-.16-2.56-1.16-4.82-2.19-6.71.55.3,2.19.31,2.44,1.32l3.46,13.85c.38,1.53,3,.41,3.92-.06,3.96-2.02-2.38-11,1.19-19.22.09-6.54-1.04-29.7,3.14-32.98-.38,2.13.38,4.47-.2,6.98l-.94,4.05-.23,19.95c-.05,4.67-3.5,13.05,3.52,22.71.05.07,4.12,11.01,3.72,11.42Z" fill="#f0bc56"/><path d="M41.9,392.18c-.64,1.67.94,4.25-.23,6.01-3.57-3.43-1.9,14.67-1.64,15.09,1.59-3.1-.76-12.36,1.55-13.09v9c0,6.13.75,12.06,1.91,18.02.91,4.67,1.44,9.4,3.98,14.15.74,1.38,1,2.89,1.14,4.1-1.84,1.36-1.73-2.49-3.83-3.56-1.52-.77-2.8-1.92-3.17-3.73-.76-3.74-3.84-14.21-3.91-17.99-.19-9.12-.34-17.82.12-26.97.08-1.63,3.33-1.21,4.07-1.02Z" fill="#71340c"/><path d="M381.51,427.9c-.73,9.49-7.25,24.73-13.9,32.26-1.23,1.4-2.2,2.75-2.73,4.19-.64.13-1.17,1.04-2.52.55,4.51-7.74,6.6-17.4,8.15-25.79.72.44,1.58,1.23,2.44.98,2.97-.83,6.97-14.79,8.55-12.2Z" fill="#d89633"/><path d="M55.3,442.18c1.12,7.74,4.1,14.97,7.09,22.93-5.47-4.09-7.36-10.23-11.59-14.72-.28-.98-.33-2.34-1.07-3.2-.31-.36-.41-.94-1.03-.95,0-.26-.05-.53-.08-.79-.14-1.21-.4-2.72-1.14-4.1-2.55-4.75-3.08-9.47-3.98-14.15,1.89-.33,8.55,17.83,11.81,14.98Z" fill="#d89633"/><path d="M85.5,430.35c3.08-.19,12.83,4.01,14.36,1.32,1.26-2.21,1.11-5.76,1.47-8.52l1.05-8.04.86-6.16c.48-3.45,2.42-12.2,4.78-14.31,7.18-6.44,11.78-3.44,13.11-5.91,1.51-2.8.31-6.33.7-9.58l1.05-8.87c.18-1.51,1.97-17.26,1.96-17.01.11-4.05,4.61-3.3-6.47-12.85l-6.48-5.59c-1.35-1.16-8.32-6.82-8.3-6.76,2.23.06,3.95,1.73,5.94,3.17,6.36,4.6,12.63,9.09,17.55,15.21-1.12,13.33-2.15,24.21-3.6,37.83-.21,1.97.67,5.34-1.38,6.48-6.87,1.05-13.96,1.55-15.67,10.43-1.2,6.22-2.95,15.31-3.57,21.19l-1.36,12.97c-5.95-1.31-11.55-1.99-16-4.99Z" fill="#f0bc56"/><path d="M100.98,440.92c.75,1.18,2.46,15.22.73,14.79-6.08-1.51-17.79-4.6-21.42-9.09-3.88-4.81-6.21-16.55-2.03-12.96,3.19,2.74,17.47,6.09,22.71,7.26ZM99.1,442.27c-4.68-1.17-8.4-1.93-12.42-3.16-2.88-.88-4.72-2.92-8.65-3.27-.62,11.28,11.41,15.51,22.07,17.78,1.03-3.85.65-7.64-1-11.35Z" fill="#43bba0"/><path d="M336.81,321.19l.08,1.05-6.98,3.18c-5.89,2.68-6.28,2.01-12.54,6.59l-5.69,4.16c-2.11,1.54-3.84,2.49-5.66,4.61-1.64,1.9-6.46,3.03-6.12,6.52l.87,8.86c.26,2.63,1.55,5.16.82,8.02s.64,5.38.83,8.01l.8,10.85c.79,10.65,6.18,4.19,13.89,11.47,3.99,3.77,3.99,8.99,4.64,12.62l1.8,10c.03.14,1.28,14.77,1.77,15.36,3.13,2,10.28-2.65,14.64-3.75s7.22-4.73,6.82-9.66l-1.52-18.68-.9-7.19c-1.19-9.54-1.41-6.45-3.14-14.9-.66-3.24-2.93-6.46-1.06-9.79.61-1.09,3.95-2.08,5.01-1,1.33,1.37,3.51,3.15,3.93,4.91l1.95,8.13,1.99,10.01,2.31,13.65.43,21.93c.09,4.35,3,10.31-1.63,18.6-2.04,3.64-5.84,11.03-4.66,14.28-1.01.36-1.85,1.5-3.14,1.06-.75.19,3.76-10.28,3.5-9.9,8.9-13.57,3.87-20.67,3.82-24.04l-.28-21.93-1.15-7.79c-1.25-8.47-3.14-16.4-5.27-24.59-.45-1.74-1.61-2.56-2.88-2.73-1.08-.15-3.49.19-3.16,2.15.57,3.42,1.5,6.85,2.53,10.1,3.67,11.54,5.39,32.12,4.66,44.38-7.31,5.25-15.43,8.07-24.39,9.65-1.07-5.48-1.26-14.77-2.2-19.15l-.87-4.08c-.98-4.59-.2-13.11-5.57-17.56-3.58-2.96-8.21-3.51-12.62-4.08l-.98-11.28c-.27-3.12-.28-5.99-.84-9.11l-1.06-5.86c-.3-1.67-.75-15.12-2.29-17.29,7.35-7.69,15.08-14.79,24.59-19.47l6.03-2.96c3.14-1.54,5.91-2.72,8.91-3.33Z" fill="#f0bc56"/><path d="M345.62,460.09c-2.43,6.94-5.48,14.31-11.06,19.13l-4.02-2.04,10.25-18.98c1.85-.25,4.03.02,4.82,1.89Z" fill="#713206"/><path d="M81.57,428.32c-6.64.92-4.1-13.7-4.09-20.18.01-8.46,4.27-27.69,7.01-36.18.58-1.81-1.72-3.32-2.92-3.64.2-.07.21-1.14.47-1.01,5.86,2.93,3.46,8.13,1.33,15.85-4.42,16-3.93,23.91-4.85,40.06-.14,2.44,1.97,3.7,3.05,5.11Z" fill="#f0bc56"/><path d="M341.34,314.01c.08.41.36,1.27,0,2.06-8.45.02-21.32,7.51-28.56,12.23-2.08,1.36-3.82,3.16-6.15,2.87,8.31-7.52,23.74-15.73,34.72-17.15Z" fill="#4f3b1e"/><path d="M264.58,503.01c-.54,1.2,1.97,5.65.21,5.18-.52-2.37-1.86-4.07-3.15-5.98s-1.48-4.54-2.53-7.29c15.33-2.55,24.85-5.1,37.48-12.78-.48,2.48-2.34,3.47-4.93,4.27-3,.92-5.22,3.56-8.22,4.45l-7.11,2.11c-4.83,1.43-14.12,2.77-14.4,3.67-.79,2.52.91,5.04,2.65,6.38Z" fill="#f0bc56"/><path d="M159.24,534.49c-.54.14-1.11.1-1.62-.13.65-4.13,7.81-24.13,8.83-26.04l2.13-4.01c.33.01.7-.22,1.01-.13.49,1.86-.7,3.42-1.46,5.35l-2.9,7.41c-2.67,6.83-5.28,11.02-5.99,17.55Z" fill="#f0bc56"/><path d="M332.64,460.05c-.25,2.29-1.96,4.04-3.85,5.23-.08-.43-.07-1.51-.54-2.08-2.57-.06-4.78.65-7.45.99-2.54,3.37-13.27,9.73-16.22,8.78,17.99-7.51,6.9-10.11,28.06-12.92Z" fill="#f0bc56"/><path d="M262.58,300.25c-2.93.35-5.81-.37-9.06-.86l-6.98-1.05c-.45-.07-14.8-1.75-12.96-1.32-2.62-2.44,31.43,1.41,29,3.23Z" fill="#4f3b1e"/><path d="M294.59,320.12c.42,3.92,1.09,14.49,2.94,18.41,3.42-1.99,5.04-5.02,7.97-6.51.68,1.1-5.94,8.36-8.2,7.81-1.74-.42-3.49-8.17-3.59-9.65-.54-7.98-2.59-10.24.89-10.07Z" fill="#4f3b1e"/><path d="M72.86,394.18c-1.31,2.39,1.5-14.31.88-11.83l2.18-8.77c.49-1.98,1.46-2.8,2.84-3.31-3.11,8.4-4.08,16.39-5.91,23.91Z" fill="#f0bc56"/><path d="M287.35,311.18c-3.69-6.08-8.18-6.58-13.77-8.77.84-.35,8.13-.53,11.34,4.53.95,1.5,3.22,2.3,2.43,4.24Z" fill="#4f3b1e"/><path d="M272.58,302.34c-.47,0-8.91-1.16-8-2.15,2.74,0,6.23-.19,8,2.15Z" fill="#4f3b1e"/><path d="M99.58,325.92c-.74.12-1.6.45-2.41.2-.86-.26-.67-1.35-.59-2.08,1.18.34,2.65.47,3,1.87Z" fill="#f8d47d"/><path d="M298.56,480.21c1.34-2.56,2.67-5.44,5.02-7.17-1.28,2.58-2.54,5.6-5.02,7.17Z" fill="#f0bc56"/><path d="M101.67,326.98c-.8.39-1.02-.37-1.09-.97.48.12.75.71,1.09.97Z" fill="#f8d47d"/><path d="M49.73,447.18c-.62.03-1.01-.34-1.03-.95.62,0,.72.59,1.03.95Z" fill="#71340c"/><path d="M164.76,565.13c-.42,1.25.2,2.37,1.31,3.51l4.49,4.62c2.19,2.25,4.44,5.26,3.62,8.58-.68,2.76-4.34,3.79-6.69,2.66l-11.55-5.59c-1.88-.91-3.6-1.82-5.37-1.52-.3.05-.71.02-1-.06.06-.45.16-1.09-.08-1.56s-1.01-.49-1.83-.68l-12.14-2.77c-2.44-.56-4.69-.36-7.2-.81l-6.79-1.21-9.82-.27c-1.62-.04-3.18-1.04-3.7-1.92-1.57-2.6.16-5.03,1.54-7.06,7.28-9.62,26.68,2.28,28.35-.94.67-1.3.74-2.82-.42-3.83-1.54-1.34-3.51-1.29-5.23-3.29,3.14-1.86,6.41-1.8,9.82-1.27,1.08,1.98.57,8.52,3.86,7.84,4.19-.87,2.58-8.58,2.66-13.29l1.98-2.08c.22,7.19,4.97,15.81,11.91,17.01,2.69.47,1.56,2.95,2.27,3.94Z" fill="#f68c2f"/><path d="M189.7,508.07c.22,4.98-2.69,17.88-3.93,23.09-.71.54-1.32,1.41-1.29,2.92.16,6.77-3.47,12.14-9.46,14.75-4.63,2.02-10.69,2.34-13.76-2.3-2.33-3.52-2.44-8.31-2.03-12.04.71-6.54,3.32-10.73,5.99-17.55l2.9-7.41c.75-1.93,1.95-3.49,1.46-5.35l11.98,3.23c2.86.77,5.58,1.41,8.13.67Z" fill="#f6c13f"/><path d="M190.58,545.18c.05.32.03.68,0,1-1.03,10.75,2.23,21.43,11.77,28.23,6.28,4.47,14.15,4.38,20.51.12,3.22-2.16,5.29-5.07,7.87-7.44l2.14,3.55c2.81-4.66,4.78-9.14,5.69-14.49.15-.9.62-.94,1.18-.96-.56,10.77-6.54,21.16-16.8,26.11-9.74,4.69-21.3,1.89-28.61-5.82-5.6-5.92-8.57-13.39-9.15-21.01.78-.31,2.89-.11,3.2-1.31.71-2.72-.45-5.19.5-7.71.21-.55,1.48-.23,1.71-.25Z" fill="#683519"/><path d="M155.05,521.46l-3.63,12.91c-10.44-.6-19.07-12.65-22.4-21.78,9.26,2.61,14.36,6.55,26.03,8.87Z" fill="#d89633"/><path d="M157.61,534.36c.51.23,1.08.27,1.62.13-.41,3.73-.3,8.52,2.03,12.04,3.07,4.64,9.13,4.32,13.76,2.3,5.99-2.61,9.61-7.99,9.46-14.75-.03-1.51.58-2.39,1.29-2.92-.1,10.31-1.13,20.88-13.29,24.9-6.74,2.23-13.84-1.37-15.37-8.17-1.07-4.73-.16-9.23.51-13.53Z" fill="#f8d47d"/><path d="M149.58,577.32l-9.43-2.63c-9.78-2.73-31.04-1.12-33.9-5.75-2.37-3.83,4.58-9.58,3.3-7.88-1.39,2.03-3.11,4.46-1.54,7.06.53.87,2.08,1.87,3.7,1.92l9.82.27,6.79,1.21c2.51.45,4.76.25,7.2.81l12.14,2.77c.83.19,1.59.19,1.83.68s.13,1.11.08,1.56Z" fill="#d89633"/><path d="M150.58,577.39c1.77-.3,3.48.61,5.37,1.52l11.55,5.59c2.35,1.14,6.01.1,6.69-2.66.81-3.32-1.43-6.33-3.62-8.58l-4.49-4.62c-1.11-1.14-1.73-2.26-1.31-3.51,4.05,5.65,10.91,8.34,11.08,14.99.09,3.44-2.09,5.53-5.31,5.65-3.04.11-5.5-.18-8.09-1.65l-8.33-4.74c-1.34-.76-2.94-.76-3.53-2Z" fill="#d89633"/><path d="M197.58,509.89c.24,1.3-3.5,14.87-3.86,20.25-.11,1.69-1.23,16.7-2.02,16.04h-1.12c.03-.32.05-.68,0-1-.42-2.93.51-5.76.84-9.06l.64-6.38,2.22-11.78c.6-3.17.79-6.65,2.12-8.87.67-.07,1.06.16,1.18.79Z" fill="#f0bc56"/><path d="M175.61,590.15c.47-2.02,2.25-3.56,3.2-5.69,2.45-5.5.55-11.63-4.05-15.42-1.87-1.54-3.56-2.93-4.1-4.99,6.97,4.6,13.51,12.33,9.7,21.75-.92,2.27-2.69,4.02-4.75,4.36Z" fill="#683519"/><path d="M184.29,554.56c-3.98,5.99-12.09,6.18-13.6,8.81-.51-.07-1.16.2-2.19-.58,3.66-3.72,8.25-3.74,11.61-6.98,1.28-1.23,2.81-1.39,4.18-1.24Z" fill="#683519"/><path d="M150.58,544.18l-1.98,2.08c.04-2.07-.58-4.17.65-6.62,2.21,1.23,1.29,3.17,1.33,4.54Z" fill="#d89633"/><path d="M261.76,517.18c-.03.31.19.7.1,1-.57,1.89.06,3.89,1.71,5,.4,8.08,7.59,24.44-6.45,26.72-4.9.8-8.58-2.13-12-5.24s-3.99-5.9-4.64-10.59l-1.21-8.69c-.07-.53-1.29-10.95-1.91-7.21l-.13-1c.46-1.35.56-2.88-.02-4.63-.6-1.58-.7-2.95-.49-4.21,6.15-.69,12.39-1.83,18.48-4.03,2.18,4.79,3.23,9.57,6.56,12.88Z" fill="#f5c141"/><path d="M276.77,557.25c.43.4.87,1.14.96,1.72.19,1.24.89,2.57,3.02,2.26,1.2-.18.88-1.51.74-2.23l.81-.05c1.5.3,3.03.39,4.55.24.06.29.04.64,0,.93-.09.59.24.95.82.99l.85.06c2.17,4.04,10.17-3.92,22.76-1.74.89.15,8.01,4,6.27,8.05-1.23,2.86-10.48,2.72-11.91,2.87-4.63.48-26.01,3.72-29.55,5.37l-4.79,2.23-12.82,6.09c-2.58,1.22-6.16.02-7.07-2.99-.53-1.75-.06-5.55,1.56-6.42,3.78-2.05,7.3-4.48,7.45-8.64l.03-.8c1.58-.19,2.33-1.69,2.15-3.18.33,0,.67-.13,1-.09,2.52.24,5.04-1.46,6.04-3.78.68-1.57,2-2.85,3.09-4.06.42-.18.95-.33,1.37-.21,1.25.35.42,1.29,2.69,3.39Z" fill="#f68c2f"/><path d="M232.82,548.4c.59.05,1.18.03,1.76-.06.58,5.02-.97,9.89-2.1,14.75-.66-.34-.81.65-.98,1.08-.37.93-.59,1.92-.77,2.91-2.58,2.38-4.65,5.29-7.87,7.44-6.35,4.25-14.22,4.35-20.51-.12-9.54-6.8-12.8-17.48-11.77-28.23h1.12c.27,5.79,3.82,10.66,6.96,15.65,4.7,7.49,14.97,10.26,23.26,4.7,5.61-3.76,11.03-14.55,10.9-18.13Z" fill="#f8d47d"/><path d="M295.7,516.12l-4.89,7.3c-1.09,1.72-2.68,3.06-3.26,4.66-2.44,1.48-5.27,2.75-7.04,5.05-1.49-.07-2.84.49-4.13,1.17-1.12.59-2.96.42-3.24-.73-.99-4.13-2.33-7.77-2.77-11.79,9.54-2.16,17.4-5.75,25.78-9.94.9,2.29-.64,3.13-.44,4.28Z" fill="#d89633"/><path d="M263.58,523.18v-1c1.36,1.13,1.45,3.04,2,5.01,2.44,8.66,6.4,21.57-1.31,27.29-7.38,5.48-15.47.93-21.18-5.75-1.89-2.21-3.11-4.75-2.96-7.77.16-3.16-.77-5.92-1.28-9-.98-5.89-1.07-10.6-1.49-13.79.61-3.74,1.83,6.67,1.91,7.21l1.21,8.69c.65,4.69,1.34,7.58,4.64,10.59s7.1,6.04,12,5.24c14.04-2.28,6.85-18.65,6.45-26.72Z" fill="#f8d47d"/><path d="M234.58,548.34c-.58.09-1.18.11-1.76.06l-.37-10.19c-.09-2.38-.62-4.58-1.06-6.96l-2.64-14.15c-.49-2.64-.37-5-1.32-7.13-.54-1.22.53-2.08,1.21-2.8.09,2.02,1.13,4.03,1.54,6.37l2.2,12.7,1.01,6.96c.41,2.81.41,5.25,1.07,8.02.6,2.51-.12,4.97.13,7.12Z" fill="#f0bc56"/><path d="M260.4,565.98c-.15,4.16-3.67,6.59-7.45,8.64-1.62.88-2.09,4.68-1.56,6.42.92,3.01,4.5,4.21,7.07,2.99l12.82-6.09,4.79-2.23c3.54-1.65,24.92-4.89,29.55-5.37,1.43-.15,10.68,0,11.91-2.87,1.74-4.06-5.39-7.9-6.27-8.05-12.59-2.18-20.59,5.78-22.76,1.74,1.44-.2,2.93-.87,4.7-1.28l6.4-1.47c7.62-1.75,15.6-.97,19.47,6.14,4.38,8.05-11.89,7.14-16.25,7.95-2.5.46-4.66.66-7.31.75-5.06.16-9.74,1.62-14.8,2.23-5.98.72-17.61,11.42-26.68,10.08-3.36-.5-4.67-3.2-4.3-6.3.75-6.26,6.65-8.02,10.68-13.28Z" fill="#d89633"/><path d="M298.47,518.26c-1.09,4.75-8.1,12.84-9.68,13.69-.06-1.38-.45-2.73-1.25-3.88.58-1.59,2.17-2.93,3.26-4.66l4.89-7.3c1.33.02,1.91,1.32,2.77,2.14Z" fill="#67340d"/><path d="M286.83,559.19c-1.52.15-3.05.06-4.55-.24.1-2.03-.15-5.04,1-6.93,3.15-1.18,6.92-1.02,9.71.93-1.81,2.39-6.94,2.48-6.16,6.24Z" fill="#d89633"/><path d="M276.77,557.25c-2.26-2.1-1.43-3.04-2.69-3.39-.42-.11-.95.04-1.37.21,1.95-3.42,1.82-13.68,2.37-13.9,2.98-1.23,1.34,14.49,1.69,17.08Z" fill="#d89633"/><path d="M280.5,533.13c-.17,1.37.65,2.69,2.09,2.78-1.08,1.62-.7,5.78-2.24,5.28-2.07-1.69-3.1-4.42-3.97-6.9,1.29-.68,2.64-1.24,4.13-1.17Z" fill="#67340d"/><path d="M281.48,559c.15.72.46,2.05-.74,2.23-2.13.32-2.83-1.02-3.02-2.26,1.25.13,2.51.11,3.76.03Z" fill="#d89633"/><path d="M263.58,522.18v1c-1.65-1.11-2.28-3.11-1.71-5,1.66.49,1.78,2.48,1.71,4Z" fill="#d89633"/><path d="M237.23,517.18c-.4-2.96-1.32-6.04-1.86-9.03.44-.02.91.23,1.35.18-.21,1.26-.11,2.64.49,4.21.58,1.75.48,3.28.02,4.63Z" fill="#f8d47d"/><path d="M262.58,562.01c.18,1.48-.57,2.99-2.15,3.18.03-.71-.02-1.5.27-2.36.23-.68,1.13-.84,1.88-.81Z" fill="#d89633"/><path d="M263.58,561.91l6.04-3.78c-1.01,2.33-3.52,4.02-6.04,3.78Z" fill="#d89633"/><path d="M231.5,564.18c.17-.43.32-1.42.98-1.08.34.18.96.23,1.17.85-1.13.46-1.64.2-2.16.24Z" fill="#683519"/><path d="M287.65,561.1c-.58-.04-.91-.39-.82-.99.76-.37.89.46.82.99Z" fill="#d89633"/><path d="M287.54,528.08c.79,1.14,1.19,2.49,1.25,3.88-2.41,1.29-4.23,4.02-6.2,3.96-1.43-.1-2.26-1.41-2.09-2.78,1.78-2.3,4.61-3.57,7.04-5.05Z" fill="#71340c"/><path d="M57.75,432.26c-2.26.4-3.57,2.12-3.16,4.96l.71,4.95c-3.26,2.85-9.92-15.3-11.81-14.98-1.16-5.96-1.91-11.89-1.91-18.02h1c2.7,4.71-.79,2.8,2.61,15,2.32,8.3.89.39,4.93,9.93,2.43.26,7.53-5.46,7.63-1.85Z" fill="#f0bc56"/><path d="M43.58,401.18c-.34-.33-1.03-.76-.79-1.31.18-.42.74-.64.83-.9.59-.19.78.28.95.73.31.81-.12,1.64-.98,1.48Z" fill="#f0bc56"/><path d="M45.38,393.96c-.07.45.29.98.1,1.6s-.96,1.4-1.75.81c-.03-.7-.28-1.47.33-2.2.35-.43.77-.76,1.32-.2Z" fill="#f0bc56"/><path d="M137.74,351.18c-.21,2.07,1.05,3.84,1.71,6.12,1.93,6.68,5.06,13.06,11.15,16.85,8.89,5.54,26.37,9.37,35.87,7.95,1.21.82,1.67,2.33,2.41,3.95l3.36,7.39c-1.78,1.49-4.15,1.67-6.66,1.71-8.31.14-16.31.18-24.36,1.76-3.66.71-6.21,3.21-6.87,6.92-2.07,11.58-2,26.09-1.6,38.28.41,12.67,1.69,23.47,13.94,27.7,16.55,5.72,45.99,6.04,63.7,4.77l9.12-.65c5.01-.36,9.62-1.66,14.52-2.61,6.59-1.27,12.58-4.64,15.64-10.82,4.68-9.44,3.97-48.31,1.18-57.74-1.68-5.68-8.51-6.78-14.44-7.07l-14.79-.72c-3.65-.18-6.94-.62-10.17-.45-.39-.43-.82-.69-.15-1.19,3.74-.26,4.4-9.63,7.2-10.48,11.23.06,33.05-3.4,41.23-12.53,3.99-4.46,6.21-10.6,6.61-16.15-.07.95,2.51-14.21,4.71-13.28,1.91,5.99,1.79,11.83,2.26,17.88l.65,8.22c.22,2.78.85,5.31,1.07,8.16l.9,11.83c.18,2.4.92,4.59,1.11,7.21l1.7,23.96.74,12.06c.55,9.07.19,17.8-.04,26.8-.04,1.58-1.06,2.84-1.03,4.11-1.06.05-2.27.45-3.33,1.45-8.09,7.56-18.66,10.99-29.72,13.19-30.49,6.06-77.93,6.91-108.15-1.09-9.22-1.43-17.59-4.87-25.44-9.72-1.46-1.82-2.95-3.48-4.98-3.72.33-1.19-.58-2.7-.32-3.96.14-.65.11-2.27-.86-2.17l-.03-19.92c1.66-.82,1.55-3.95.18-5,1.96-28.55,4.17-57.03,7.84-85.93.2-1.54.6-2.59,1.75-3.15.78,3.83,2.64,7.53,2.39,10.08Z" fill="#35bfa2"/><path d="M286.58,325.18c.47,8.96-4.08,20.69-8.36,29.35-2.41,4.88-6.06,7.62-11.32,9.31l-5.96,1.92c-3.35,1.08-17.75,4.96-19.95,2.94-2.67-2.46-1.93-14.22-15.91-20.86-8.11-3.84-16.67-4.47-25.18-.08-6.41,3.3-12.28,9.88-14.02,18.44-1.23,6.05-9.89,1.71-13.44,1.36-7.14-.7-13.44-2.8-19.51-6.58-8.79-5.48-11.73-21.82-13.96-31.43-.78-3.35-1.46-6.19-1.32-9.28,1.9.45-.21-4.53,6.81-7.16,20.14-7.55,57.97-9.42,79.71-8.53,8.88.36,61.52,3.58,62.06,13.85l.35,6.73Z" fill="#33c1a5"/><path d="M298.4,461.13c.23,9.2-4.79,17.73-13.83,21.04-7.85,2.88-15.56,4.73-23.74,6.33-7.23,1.42-26.07,3.37-33.23,2.59-3.24-.35-6.02.64-9.05.91-7.74.69-15.18-.81-22.95-.76-16.17.11-45.35-3.54-59.42-11.49-6.6-3.73-10.69-13.85-9.4-18.53,2.03.24,3.52,1.9,4.98,3.72,7.85,4.85,16.22,8.29,25.44,9.72,30.22,8,77.66,7.15,108.15,1.09,11.06-2.2,21.63-5.63,29.72-13.19,1.06-.99,2.27-1.4,3.33-1.45Z" fill="#279683"/><path d="M210.58,350.26c.31-.09.67-.04,1-.04h2c7,0,7.16,2.36,11.98,4.08.53.57,1.02,1.68,1.99,1.81.25,1.05,1.05,1.85,2.1,2.1.46,1.87,2.56,3.19,3.17,4.91,4.11,13.61-1.7,19.74-7.13,31.27-.11.24-.06.57-.12.83-.51.12-.92.48-1.13.96-.37.63-.66,1.3-.85,2.01-.61-.49-.93.54-1.12.99-.13.29.06.69,0,1-2.61,2.95-4.7,6.32-6.76,9.68-1.24.68-2.23,2.26-3.8,2.4l-8.1-10.15c-3.93-7.89-7.94-13.39-11.2-21.93v-1l-1.01-2c-.06-.32.09-.69,0-1-.76-2.63-1.5-5.29-.81-8,1.47-1.45,1.49-4.16,2.06-6,.57-.07.8-.52.71-1.05l6.13-6.74c.96-.68,2.12-1.07,2.9-1.98.28.05.74-.03,1-.08,1.53-.97,3.31-1.43,5-2.06.58-.21,1.39.17,2,0ZM225.86,371.59c0-7.33-5.94-13.27-13.27-13.27s-13.27,5.94-13.27,13.27,5.94,13.27,13.27,13.27,13.27-5.94,13.27-13.27Z" fill="#f9f0da"/><path d="M232.82,363.12c-.61-1.72-2.71-3.04-3.17-4.91-.1-.39.01-.96-.24-1.41-.38-.67-1.19-.6-1.86-.69-.97-.13-1.45-1.24-1.99-1.81-.52-2.08-12.12-7.51-11.98-4.08h-2c.05-1.28-1.1-1.2-1,.04-.61.18-1.42-.21-2,0,.16-1.01-.52-1.25-1.35-.49-1.73.51-3.54.86-3.65,2.55-.26.05-.72.13-1,.08-.68-.12-1.35-.16-2.03.19s-.48,1.37-.86,1.79l-6.13,6.74c-.32.36-.56.56-.71,1.05-.57,1.84-.59,4.55-2.06,6-2.1,2.08-1.28,6.93-1.13,7.4.2.67,1.09.79,1.95.6.09.31-.06.68,0,1-.35.1-.82.36-.95.71-.21.56.09.94.51,1.08.44.15.91.17,1.45.21v1c-2.13,2.2,3.31,10.07,3.15,9.72,2.93,6.24,4.18,7.37,8.05,12.2l8.1,10.15c1.57-.13,2.57-1.72,3.8-2.4,2.46-1.35,3.84-4.16,5.99-6.42.89-.94.57-2.42.76-3.26.07-.31-.12-.71,0-1,.52-.12.93-.49,1.12-.99.19-.7.48-1.37.85-2.01.56-.04,1-.42,1.13-.96.06-.26,0-.59.12-.83,1.28-.02,2.08-1.12,3.43-1.93.82-.49,1.66.61,2.18.88-.67.5-.24.76.15,1.19.45,2.2,3.92,1.4,6.04,2.66-1.62,2.81-7.32-1.58-10.6,3.41l-5.92,9c-2.1,3.19-4.62,7.01-8.39,8.29-3.08.3-12.15-14.48-14.13-15.68-.93-.56-1.87-1.35-2.75-1.99s1.27-.45-4.1-3.01c.35-.7,1.73-.73,2.26-1.61.95-1.55.14-3.64-.7-5.15-5.3-9.5-3.64-12.86-9.42-17.03.28-1.9,2.28-2.36,3.19-3.07,1.43-12.29,12.17-24.15,25.66-23.56,3.66.16,7.09.14,10.27,1.89,6.3,3.47,11.73,8.32,13.77,15.28-1.69.85-2.63-.6-3.82-.86Z" fill="#683519"/><path d="M286.34,354.18c-.4,5.55-2.62,11.69-6.61,16.15-8.19,9.14-30,12.59-41.23,12.53.13-1.91.03-4.39,1.58-6.21.78-.91,2.67-.99,3.87-1.14,9.52-1.17,18.41-3.27,27.37-6.86,5.87-2.36,10.02-7.31,12.98-12.8.57-1.06,1.2-1.67,2.05-1.67Z" fill="#279683"/><path d="M186.47,382.1c-9.51,1.43-26.98-2.4-35.87-7.95-6.09-3.8-9.22-10.17-11.15-16.85-.66-2.28-1.92-4.05-1.71-6.12.44.17,1.23.5,1.56,1.31,2.3,5.66,5.78,10.46,10.53,14.27,8.04,4.21,16.46,6.31,25.45,7.63,2.96.43,6.18.32,8.85,1.43,2.48,1.04,2.5,4.34,2.34,6.28Z" fill="#279683"/><path d="M180.51,372.1c.42,1.59-2.94,1.71-3.03.1-.07-1.32,2.57-1.83,3.03-.1Z" fill="#683519"/><path d="M125.58,435.18c0-1.68.07-3.33.18-5,1.37,1.05,1.48,4.18-.18,5Z" fill="#1b5b53"/><circle cx="282.58" cy="353.18" r="1.12" fill="#67340d"/><path d="M126.46,457.27c-1.08.15-.85-1.48-.86-2.17.96-.1.99,1.51.86,2.17Z" fill="#1b5b53"/><path d="M227.43,509.98c.94,2.13.82,4.49,1.32,7.13l2.64,14.15c.44,2.38.97,4.58,1.06,6.96l.37,10.19c.13,3.59-5.29,14.37-10.9,18.13-8.29,5.56-18.56,2.79-23.26-4.7-3.13-4.99-6.69-9.87-6.96-15.65.79.66,1.91-14.35,2.02-16.04.36-5.38,4.1-18.95,3.86-20.25,9.96.65,19.89.67,29.85.09Z" fill="#f6c13f"/><path d="M119.59,454.14c1.42.72.9,8.42.88,11.48-9.43-1.36-12.98-13.35-12.79-21.51,2.95,4.36,5.45,9.18,11.91,10.03Z" fill="#8335b1"/><path d="M317.31,447.33c-2.12.06-6.6,9.03-11.77,5.77l.03-16.79c1.31,1.44,1.59-6.38-.05-5.18.1-2.43-.59-4.13-.67-6.14l-.53-13.76c-.18-4.71-1.64-9.06-.32-13.87,3.15-.51,7.09.73,8.83,3.72s3.7,22.82,4.27,27.69c.76,6.42.81,12.54.22,18.55Z" fill="#9a47cf"/><path d="M317.31,447.33c-.8,8.19-3.57,16.37-12.34,17.85-1.11-4.36.56-8.21.56-12.08,5.17,3.26,9.66-5.71,11.77-5.77Z" fill="#8335b1"/><path d="M305.56,436.31c0-2.32.03-3.75-.05-5.18,1.64-1.2,1.36,6.62.05,5.18Z" fill="#8335b1"/><path d="M41.67,398.19c-.34.51.14,1.43-.09,1.99-2.3.73.05,9.99-1.55,13.09-.26-.41-1.93-18.52,1.64-15.09Z" fill="#67340d"/><path d="M99.1,442.27c1.64,3.7,2.03,7.5,1,11.35-10.66-2.27-22.69-6.5-22.07-17.78,3.93.35,5.77,2.39,8.65,3.27,4.02,1.23,7.74,1.99,12.42,3.16Z" fill="#33c1a5"/><path d="M225.86,371.59c0,7.33-5.94,13.27-13.27,13.27s-13.27-5.94-13.27-13.27,5.94-13.27,13.27-13.27,13.27,5.94,13.27,13.27ZM221.03,371.64c0-4.57-3.71-8.28-8.28-8.28s-8.28,3.71-8.28,8.28,3.71,8.28,8.28,8.28,8.28-3.71,8.28-8.28Z" fill="#8335b1"/><path d="M215.7,409.86c2.06-3.35,4.15-6.73,6.76-9.68-.19.83.13,2.32-.76,3.26-2.15,2.26-3.54,5.07-5.99,6.42Z" fill="#4f3b1e"/><path d="M203.8,402.11c-3.86-4.84-5.12-5.96-8.05-12.2.16.35-5.28-7.52-3.15-9.72,3.26,8.54,7.26,14.04,11.2,21.93Z" fill="#4f3b1e"/><path d="M191.59,376.18c-.86.19-1.75.07-1.95-.6-.14-.47-.96-5.33,1.13-7.4-.69,2.71.05,5.37.81,8Z" fill="#4f3b1e"/><path d="M225.56,354.31c-4.82-1.72-4.98-4.08-11.98-4.08-.13-3.43,11.47,2,11.98,4.08Z" fill="#4f3b1e"/><path d="M208.58,350.27c-1.69.63-3.47,1.09-5,2.06.11-1.69,1.92-2.04,3.65-2.55.83-.76,1.51-.52,1.35.49Z" fill="#4f3b1e"/><path d="M229.65,358.21c-1.05-.25-1.85-1.05-2.1-2.1.67.09,1.48.02,1.86.69.25.45.14,1.01.24,1.41Z" fill="#4f3b1e"/><path d="M192.6,379.18c-.54-.04-1.01-.06-1.45-.21-.42-.14-.72-.52-.51-1.08.13-.35.6-.61.95-.71l1.01,2Z" fill="#4f3b1e"/><path d="M202.58,352.41c-.77.91-1.94,1.3-2.9,1.98.38-.42.21-1.46.86-1.79s1.36-.31,2.03-.19Z" fill="#4f3b1e"/><path d="M192.84,362.18c.15-.49.39-.69.71-1.05.08.53-.14.98-.71,1.05Z" fill="#4f3b1e"/><path d="M211.58,350.23c-.33,0-.69-.05-1,.04-.1-1.24,1.05-1.31,1-.04Z" fill="#4f3b1e"/><path d="M224.43,396.18c.21-.48.61-.84,1.13-.96-.13.54-.57.92-1.13.96Z" fill="#4f3b1e"/><path d="M222.47,399.18c.2-.45.51-1.48,1.12-.99-.19.5-.6.87-1.12.99Z" fill="#4f3b1e"/><path d="M195.71,400.23c.88.64,1.82,1.43,2.75,1.99-.13,1.24.28,2.54,1.24,3.78l9.13,11.92c.96,1.25,2.07,2.18,3.23,2.26,5.08.34,13.22-15.26,16.68-19.86,4.43-.75,8.54.39,12.9.54l13.92.46c2.87.09,5.4,1.25,7.94,1.02.43.44.59,1.18.8,1.76-1.44.22-1.35,2.22-2.12,3.54l-5.52,9.38c-1.33.63-2.61,2.18-3.42,3.38-7.99,4.53-21.67,6.04-31.67,5.9l-26.77-.36c-2.09-.03-3.97-.92-6.18-.87-6.3.13-11.75-2.32-16.91-4.78-.45-1.38-2.06-2.64-3.31-3.33-2.39-4.51-4.56-7.81-6.91-12.71.1-.26-.13-.81.03-1,2.31-1.14,5.04-1.66,8.02-2.14,10.23.6,17.1-.71,26.16-.86Z" fill="#9a47cf"/><path d="M239.58,397.18c-.02.57.44,1,1,1h2c-.19.51.29.94,1.02.94l7.98.06h5c-.47,2.36,6.67-.87,6.92,3.16-2.54.22-5.07-.93-7.94-1.02l-13.92-.46c-4.36-.14-8.48-1.28-12.9-.54-3.45,4.6-11.59,20.2-16.68,19.86-1.15-.08-2.27-1.01-3.23-2.26l-9.13-11.92c-.96-1.25-1.36-2.55-1.24-3.78,1.98,1.2,11.05,15.98,14.13,15.68,3.76-1.28,6.29-5.1,8.39-8.29l5.92-9c3.28-4.99,8.98-.61,10.6-3.41.7-.08,1.39-.06,2.09-.02Z" fill="#5e302a"/><path d="M191.61,397.23c5.37,2.55,3.19,2.35,4.1,3.01-9.06.15-15.94,1.46-26.16.86-2.99.48-5.72,1-8.02,2.14,1.81-4.28.81-2.36,11.1-3.87,5.42-.8,17.59,1.28,15.11-2.18,1.28,0,2.61-.25,3.88.04Z" fill="#5e302a"/><path d="M187.73,397.18c2.47,3.46-9.69,1.38-15.11,2.18-10.29,1.52-9.29-.4-11.1,3.87-.16.19.07.74-.03,1-3.41,1.81,3.67,7.18,3.23,10.68-1.3-.37-2.88-.04-4.15-.69-.41-.08-1.01-.1-.85-.67.01-1.49-1.36-1.71-.91-.01.27.52-.2.98-.23,1.46l-1.93.09c-2.44-1.66-1.42-11.4.8-13.91,2.49-2.81,6.46-3.68,10.12-3.15,1.91.28,3.32-.78,5.03-.78l15.14-.07Z" fill="#683519"/><path d="M270.26,417.1c-2.1.15-1.3-5.76-3.63-5.57-2.64.22-3.06,3.5-4.66,4.97-5.41,4.99-5.74,10.49-20.87,12.65-7.74,1.1-8.66-.35-7.67,2.03-.86.16-1.86-.13-2.7.12.3-.55-.45-.96-1.19-1.11h-34.92c-.74.18-1.53.5-1.21,1.07-.82-.06-1.76-.18-2.59-.09.38-3.55-2.49-.76-8.47-2.9-1.33-.48-2.44.24-2.95,1.01l-1.65-.11c.54-3.65-5.92-.8-11.79-10.4-.91-1.49-1.41-2.37-1.23-3.85l3.68,2.03c1.25.69,2.87,1.95,3.31,3.33,1.13,3.48,6.06,5,9.1,5.2-.96-.06,14.19,2.52,15.78,2.53l25.99.13c2.32.01,4.69-.32,6.95-.59l13.93-1.68,7.27-2.72c1.76-.66,1.92-1.89,2.51-2.76.81-1.2,2.09-2.75,3.42-3.38,1.04-.49,1.95-.38,2.77-1.97,2.21-4.29,5.91-8.16,4.87-10.94-.22-.58-.37-1.32-.8-1.76-.25-4.04-7.38-.8-6.92-3.16,1.33-1.55,11.51-1.68,12.62,4.62l1.67,9.43c.28,1.59-.02,2.91-.61,3.86Z" fill="#683519"/><path d="M156.58,419.18l.09,26.78c.49.47,1.73.52,2.14.45.07,1.2-.23,2.4-.12,3.61-1.57.46-.4,7.17,1.82,10.08,4.88,6.41,8.92,5.78,16.89,8.02,3.07.87,20.01,3.74,21.26,1.11,1.54-.1,3.35.05,4.93.03v3.03c-1.73.55-3.7.76-5.97.26-6.49-1.41-27.37,1.34-38.66-9.98-2.92-4.41-4.38-12.01-4.39-17.42l-.04-25.02c0-1.18,1.58-1.11,2.05-.95Z" fill="#683519"/><path d="M261.62,462.15c1.52,4.03-18.22,7.67-20.31,7.72l-21.64.49c-1.03.02-1.8.77-1.25,1.7-2.91-.21-5.76-1.09-8.7-.71-.72.1-2.07-.43-2.15.72-1.26.2-2.77-.18-4,.22v-3.03c8.45-.12,16.95.34,25.81-.26,1.71-.11,3.24-1.26,5.15-.82,2.9.67,5.46-.31,8.23-.59,9.44-.94,11.04-1.81,18.85-5.44Z" fill="#5e302a"/><path d="M218.43,472.06c-.55-.93.21-1.68,1.25-1.7l21.64-.49c2.09-.05,21.83-3.7,20.31-7.72l.91-.93c.42,0,1.04.12,1.49-.11.72-.39.6-1.37.48-2.04-.03-.22.08-.48.09-.71,1.61,1.41,1.56-3.87,2.54-2.51.08,2.39.34,5.07-1.75,7.24-3.3,3.42-7.8,6.26-12.77,7.02l-12.09,1.86c-4.31.66-8.58,1.08-12.81.78l-9.3-.67Z" fill="#683519"/><path d="M270.26,417.1c1.19,6.57-1.47,8.35-.68,14.08.18,1.3,0,2.68,0,4v4c-2.66,1.19.99,10.54-2.83,9.19-.08-.75-.12-1.53-.29-2.26-.44-1.95.66-3.87.9-6.12.13-1.23,1.17-25.46-1.87-25.1-2.04,2.8-4.95,5.17-5.84,8.24-2.41,1.16-6.5,4.86-10.26,5.69l-8.95,1.99c-2.5.55-4.89-.02-6.99.38-.98-2.37-.06-.93,7.67-2.03,15.13-2.15,15.45-7.66,20.87-12.65,1.6-1.48,2.02-4.75,4.66-4.97,2.32-.19,1.53,5.72,3.63,5.57Z" fill="#5e302a"/><path d="M158.58,415c-.16,2.14.45,4.5-.2,6.99-.55,2.11-1.86,8.26.21,8.19v6c-1.62,1.55-1.64,4.46,0,6l.23,4.23c-.41.07-1.65.03-2.14-.45l-.09-26.78c0-1.36-.05-2.73.07-4.09l1.93-.09Z" fill="#5e302a"/><path d="M267.12,455.1l-.56-4.88c.07-.6.25-1.24.18-1.84,3.82,1.34.18-8,2.83-9.19,2.45-.39.36,15.55-.62,15.84-.67.2-1.34.08-1.83.07Z" fill="#683519"/><path d="M251.58,399.18l-7.98-.06c-.73,0-1.21-.43-1.02-.94.05-1.53,8.28-1.32,8.96-.49.25.31.02,1.04.04,1.49Z" fill="#683519"/><path d="M267.12,455.1l.02.73c-.99-1.36-.93,3.92-2.54,2.51.17-2.81,1.63-5.33,1.96-8.13l.56,4.88Z" fill="#5e302a"/><path d="M269.58,435.18c0-1.32.18-2.7,0-4,1.96-.48,2.13.71,2.07,2.51-.04,1.32-.56,1.8-2.07,1.49Z" fill="#683519"/><path d="M209.73,471.35c.3.44.09.84-.13,1.33s-.77.61-1.28.38c-.33-.15-.55-.66-.74-.99.07-1.15,1.42-.63,2.15-.72Z" fill="#683519"/><path d="M240.58,398.18c-.56,0-1.02-.43-1-1,.56.04,1.03.4,1,1Z" fill="#683519"/><circle cx="212.76" cy="371.64" r="8.28" fill="#9a47cf"/><path d="M253.24,420.39c-.58.87-.75,2.1-2.51,2.76l-7.27,2.72-13.93,1.68c-2.26.27-4.62.6-6.95.59l-25.99-.13c-1.59,0-16.74-2.59-15.78-2.53-3.05-.2-7.98-1.72-9.1-5.2,5.16,2.45,10.61,4.91,16.91,4.78,2.21-.05,4.09.84,6.18.87l26.77.36c10.01.14,23.69-1.37,31.67-5.9Z" fill="#5e302a"/><path d="M256.66,417.01l5.52-9.38c.77-1.31.68-3.32,2.12-3.54,1.04,2.78-2.67,6.65-4.87,10.94-.82,1.6-1.73,1.48-2.77,1.97Z" fill="#5e302a"/><path d="M168.4,416.94l-3.68-2.03c.44-3.5-6.65-8.86-3.23-10.68,2.35,4.9,4.52,8.19,6.91,12.71Z" fill="#5e302a"/><path d="M164.72,414.91c-.19,1.49.31,2.36,1.23,3.85,5.88,9.6,12.33,6.75,11.79,10.4-7.71-.53-14.12-7.71-17.17-14.94,1.28.65,2.85.32,4.15.69Z" fill="#5e302a"/><path d="M160.57,414.23c3.06,7.23,9.46,14.41,17.17,14.94l1.65.11c-.07,1.06,9.46,2.09,11.42,1.89.82-.09,1.77.03,2.59.09.45.26,1.05.96,2.13.96h33.11c1.1.02,1.59-.77,2.1-.92.84-.25,1.84.04,2.7-.12,2.1-.4,4.5.17,6.99-.38l8.95-1.99c3.76-.83,7.85-4.53,10.26-5.69-.66,2.25-.66,3.45-3.05,5.25-4.72,3.55-9.72,5.74-15.65,7.24-12.99,3.28-45.87,3.8-58.25-.58-4.14-1.46-8.43-2.37-11.9-5.03-4.35-3.33-7.58-6.9-10.74-11.95l-.49,9.24c-.07,1.35-.41,2.31-.99,2.88-2.07.08-.76-6.08-.21-8.19.65-2.49.04-4.85.2-6.99.04-.48.5-.94.23-1.46.35.52.68.74.91.01-.16.57.44.59.85.67Z" fill="#8335b1"/><path d="M230.73,431.3c-.51.15-.99.94-2.1.94h-33.11c-1.08-.02-1.67-.71-2.13-.98-.31-.57.47-.89,1.21-1.07h34.92c.74.15,1.49.56,1.19,1.11Z" fill="#5e302a"/><path d="M190.81,431.17c-1.96.21-11.5-.83-11.42-1.89.51-.77,1.62-1.48,2.95-1.01,5.99,2.14,8.85-.65,8.47,2.9Z" fill="#5e302a"/><path d="M266.46,446.11c.17.73.21,1.52.29,2.26.07.6-.11,1.25-.18,1.84-.33,2.8-1.79,5.32-1.96,8.13-.01.23-.12.49-.09.71-.74-.39-1.49,0-1.8.71-.19.44-.12.97-.17,1.45l-.91.93c-7.8,3.63-9.41,4.51-18.85,5.44-2.77.27-5.33,1.26-8.23.59-1.91-.44-3.44.71-5.15.82-8.86.59-17.36.14-25.8.26-1.58.02-3.39-.13-4.93-.03-7.91-2.1-8.6.19-15.08-2.21-3.12.83-5.67-.22-8.59-1.04-11.89-3.33-13.86-3.05-15.87-15.63.04-.49-.11-.56-.43-.34-.11-1.2.19-2.41.12-3.61,3.75-.68.83,6,10.39,9.3,18.68,6.46,50.38,5.96,70.3,3.79,8.74-.95,20.42-2.46,24.64-10.89.63-1.27.98-2.63,2.31-2.5Z" fill="#8335b1"/><path d="M198.66,469.23c-1.25,2.63-18.19-.25-21.26-1.11-7.97-2.24-12.01-1.61-16.89-8.02-2.22-2.91-3.39-9.62-1.82-10.08.33-.22.47-.15.43.34,2.01,12.57,3.97,12.3,15.87,15.63,2.92.82,5.46,1.87,8.59,1.04,6.48,2.4,7.17.11,15.08,2.21Z" fill="#5e302a"/><path d="M159.72,413.55c-.23.73-.56.51-.91-.01-.45-1.7.92-1.48.91.01Z" fill="#5e302a"/><path d="M264.51,459.06c.12.67.24,1.65-.48,2.04-.44.24-1.07.12-1.49.11.06-.48-.01-1.01.17-1.45.31-.72,1.06-1.1,1.8-.71Z" fill="#5e302a"/><path d="M266.46,446.11c-1.33-.13-1.68,1.23-2.31,2.5-4.22,8.43-15.9,9.94-24.64,10.89-19.92,2.18-51.62,2.67-70.3-3.79-9.56-3.31-6.64-9.98-10.39-9.3l-.23-4.23c1.46,1.16,1.46-7.16,0-6v-6c.58-.58.92-1.53.99-2.88l.49-9.24c3.16,5.06,6.39,8.62,10.74,11.95,3.47,2.66,7.76,3.57,11.9,5.03,12.38,4.37,45.26,3.85,58.25.58,5.92-1.49,10.93-3.69,15.65-7.24,2.39-1.8,2.39-3,3.05-5.25.89-3.07,3.8-5.44,5.84-8.24,3.04-.36,2,23.88,1.87,25.1-.24,2.25-1.34,4.17-.9,6.12Z" fill="#9a47cf"/><path d="M158.58,442.18c-1.64-1.54-1.62-4.45,0-6,1.46-1.16,1.46,7.16,0,6Z" fill="#8335b1"/></svg>