<?xml version="1.0" encoding="UTF-8"?><svg id="Layer_1" xmlns="http://www.w3.org/2000/svg" viewBox="0 0 340.16 255.12"><path d="M31.45,56c-.39-.17-.9-.18-1.31-.25-.1-.73.8-.69,1.31-.7.63.3.6.62,0,.95Z" fill="#dec6a3"/><path d="M28.3,55.79l-1.07.19c0-.94.72-1.08,1.07-.19Z" fill="#dec6a3"/><path d="M242.36,92.03c-.15.67-.39,1.93-1.31,2-1.45-.7-1.29-3.38-2.59-4.47-1.39-1.16-4.31.31-5.51,1.17-.35-.14-8.35-1.39-6.03-2.56,6.98-.78,20.82-2.97,21.43-13.27-2.52.61-3.4,2.79-6.35,2.04,3.79-8.23,4.29-4.73,5.23-12.89.23-1.95,2.18-4.08.33-7.16-9.38,20.5-26.2,13.38-38.51,32.22-.55.84-.84,1.34-.62,2.04-2.15.3-2.53,3.88-4.56,5.41-1.64-2.41-2.81-4.79-3.62-7.48-.68-2.25-2.22-3.5-3.1-5.05-3.22-5.69-8.17-10.17-14.06-13.89-13.9-8.78-25.72-6.72-38.34-23.64-.94-1.26-.68-3.02-2.44-3.53l-.13,4.05c-.31,9.34.56,4.02,2.78,12.41-.32,1.39-1.7,2.14-2.83,2.87-.25.16-.98,0-1.3.36.31,2.6,1.9,4.58,3.46,6.39.75.87,1.36,1.87,1.8,2.93-.41.62-.73,1.31-.78,2.05-4.25-3.16-7.39-8.07-7.84-13.91l3.91-2.02c-3.28-4.87-3.92-17.93.52-18.41,3.13-.34,5.69,6.64,10.45,11.16,4.01,3.8,8.69,6.25,14.03,8.58,19.59-5.49,45.23-2.4,60.72,11.87,8.3-2.6,14.13-7.97,18-15.49.53-1.04,3.16-3.31,4.09-1.81,3.15,5.06,1.79,11.45-.07,16.81,8.1,3.32-2.22,13.38-6.6,16.63-1.3.96.12,3.55-.13,4.61ZM181.19,65.13c12.51,8.9,15.09,10.55,23.15,25.68,3.91-6.06,7.68-11.28,13.72-14.73l6.26-3.57c-13.36-11.04-34.41-15.35-52.29-11.15,2.82,1.66,5.66,2.55,9.16,3.77Z" fill="#653511"/><path d="M131.14,177.02v1c-2.81,2.03-6.58,2.54-10,3-2.87.39-5.6-.75-9.28-1.05.03,1.94.78,3.45.54,5.03-.76-.3-1.5-.67-2.22-1.06-.21-1.08-.81-2.15-1.25-3.59-2.09,0-3.32,1.83-4.86,2.35-10.31,3.49-20.86,6-31.96,8.38-2.07.44-5.07.7-6.2,2.22-1.31,1.77,1.53,1.99,2.2,2.66,4.86,4.84,18.02,1.24,24.03-.97,4.47-1.65,8.99-3.24,13.61-4.39-1.16,1.88-2.91,2.34-4.46,3.35l-3.11,2.02c-6.97,2.56-15.76,4.95-22.19,8.54,1.22,2.18,3.14,1.4,4.17,1.77,7.16,4.9,21.45-5.68,29.14-8.84,2.72,2.4-14.24,10.26-16.68,12.36,9.04,4.96,18.37-5.82,23.35-9.91.05.45.78,1.27,1.24,1.27l.11,2.78c.02.45.22,1.51.87,1.15,2.85,10.95-12.15,10.02-4.13,14.86,1.55.94.06,1.23,6.27.84.28-.02.57.09.86.1.47,1.51,4.07,1.64,4.75.56.28-.44,0-1.16.2-1.55,1.12-2.23,3.93-5.98,2.11-8.7-.04-.8.3-1.76.16-2.6,1.89.4,3.82-.04,5.74.17l9.99,1.05c.72,1.41,1.79,2.73,3.27,3.39.13.55.04,1.2,0,1.73l-.26,1.13c-.33,3.46-4.64,3.92-4.94,5.42-.1.51.84,1.67,1.6,1.93,6.09,2.09,8.82-6.95,10.34-3.82-1.56,2.07-2.68,3.23-3.01,5.46,4.74-.41,7.22-3.99,7.9-7.97,1.77.08,1.64-2.57,2.99-3.22l5.2-2.49c-1.58-.23-2.45-.78-2.94-1.38l.23-.97c2.79.01,6.01.02,8.73-.91.25,1.8-4.82,2.51-3.54,3.73-3.39,3.22-7.91,2.52-8.49,6.87-.54,4.01-3.53,8.61-8.07,8.83-3.56.17-7.02-.98-10.32-1.52-2.05-.34-3.16-2.33-3.27-3.62-.41-4.84,5.99-5.03,5.73-9.38-4.77-3.33-11.7-3.46-13.34-.21-.4.8-2.93,13.57-11.59,10.73-5.55-1.82-8.5.16-10.94-4.14-.78-1.38-1.02-3.42.24-4.94,1.07-1.29,2.66-1.86,3.97-2.9,2.28-1.8,2.99-4.74.89-6.7-5.76,6.31-17.35,12.15-23.61,7.45-1.95-1.46-2.46-2.85-5.48-2.23-4.76.97-13.59-2.09-12.53-6.15.32-1.22,1.54-1.53,2.38-2.74-6.27-.87-14.39-2.93-12.68-9.38.31-1.16,1.93-2.04,3.76-2.45,10.84-2.46,21.33-4.65,32.01-7.77,1.47-.43,2.23-1.55,1.9-2.65,2.34-1.64,2.91,2.13,10.08-.93,3.65,1.14,16.77,2.12,17.84-1.19.3-.09.73-.25,1.04-.19l1.94.38Z" fill="#653511"/><path d="M301.21,112.45l-3.48,4.38c2.81,1.87,7.32-2,10.27.92s-2.11,8.86-4.64,11.5c-6.38,6.65-14.25,10.51-23.45,14.02,1.96,1.32,4.15.96,6.3,1.93s3.3,2.92,2.03,5.21c-3.4,6.16-18.08,8.09-25.16,8.45.63,2.29,4.12,2.5,3.85,5.65-.07.84-.56,1.88-1.64,2.57-7.39,4.73-14.57,1.89-16.57,3.03-1.13.64-.14,4.48-3.92,5.28-4.7.99-9.18.23-13.61-1.39-5.28,6.31-10.5,2.91-16.11.84,1.17-3.51,2.94-12.17,4.94-16.42.16.61.43.52.74.04-.28,1.37.76,2.45,1.48,3.53.35.51-.18,1.39-.19,2.04-.6.08-1.51-.1-2.11.21-.79.4-2.64,6.05-2.97,7.8,3.2,1.94,6.6,3.27,10.39,2.11-.51-2.78-3.48-2.98-3.3-6.27,5.26,2.8,15.72,7.31,21.19,4.03.23-2.02-8.16-7.8-5.32-7.33-3.16-.53,17.21,3.63,11.22,1.74,4.43,1.4,8.82.74,13.06-1.9-1-.69-1.59-.34-2.06-.38v-1c0-1.8-1.95-1.49-2.92-2.11-2.02-1.3-3.84-3-6.03-4.04.09-.3.31-1.3.96-1.28l11.03.22c4.77.1,17.33-2,18.83-5.93.23-.6,1.08-.42,2.18-1.29-1.22-1.14-2.92-1.54-4.83-1.94l-12.27-2.51c4.29-4.21,16.76-2.11,32.5-16.61,1.59-1.46,2.2-3.2,2.8-4.65.38-.92,2.96-1.87,1.39-3.61-7.51.52-16.8,3.66-23.81,5.81-.32-.04-.87-.37-.62-.7,6.66-4.38,13.12-8.42,18.89-13.32-.02.64.37,1.19.97,1.4Z" fill="#653511"/><path d="M301.21,112.45c-.6-.21-.99-.76-.97-1.4,3.21-2.72,12.35-13.13,11.98-19.18-.05-.74.35-3.13-.88-2.89-6.95,3.75-12.55,8.23-18.85,12.31-1.17.76-2.01,1.63-2.45,2.57-1.14.06-2.57.93-2.93,2.06-.33-.16-.92.12-1.26-.02-.82-.33-.32-1.32.33-1.93,10.35-9.83,22.4-23.27,22.01-39.01-.03-1.19,0-1.88-1.05-1.93-2.07-.29-4.02.52-5.5,2.55-10.51,14.44-23.94,25.59-39.78,33.93-4.48,2.36-8.78,4.57-12.95,7.11-2.48,1.51-2.6,2.96-2.6,5.25-.54.6-1.55.76-2.19,1.24-.39-.94-.93-2.01-.91-3.45.11-5.44-1.67-10.63-2.16-15.62.92-.07,1.16-1.32,1.31-2,1.96,1,2.66,9.6,3.83,13.22,3.52-2.62,6.9-4.46,10.67-6.28,12.96-6.25,27.32-16.59,36.58-27.61,3.11-3.7,5.88-7.21,9.28-10.76,1.37-1.43,5.04-2.61,6.36-.51,4.96,7.85-1.96,21.68-6.21,29.73,1.97,1.1,10.77-7.82,12.45-2.37.84,2.74-.03,5.54-.9,8.09-3.91,11.47-15.73,20.05-13.21,16.9Z" fill="#5e3110"/><path d="M217.14,148.02c.8.94,1.55,2.19,2.94,1.89.03,2.83.21,5.67-.07,8.49-2.01,4.25-3.77,12.91-4.94,16.42-1.5,4.49-4.96,8.08-9.09,11.18-8.31,13.38-21.23,22.76-36.29,25.87-1.28-1.22,3.79-1.93,3.54-3.73,7.44-2.53,15.07-5.96,19.93-12.16,6.84-3.62,15.04-18.96,16.27-26.55.3.34.58.38.81-.04-.11,4.08,3.58-8.46,1.09-9.36-.19-1.28.33-3.26.27-4.46,2.31-.25-.73.57,2.35-3.83.69,3.96.26,8.11-.61,12.43-.24,3.82-1.28,7.05-2.22,10.93,3.08-1.18,3.14-4.11,4.2-6.67,2.5-5.97,3.47-11.8,2.65-18.31-1.17-.21-2.04,0-2.87-.03.21-.53-.01-1.49.69-1.81.43-.19.92-.24,1.34-.26Z" fill="#5a341b"/><path d="M227.14,205.68c-8.16.77-9.93,5.11-11.48,2.67-1.42-2.23,5.04-3.34,5.76-5.09,2.42-5.83,5.92-10.3,11.65-13.17,2.93-1.47,15.38-7.49,17.02-5.58,2.62,3.05-4.41,19.43-22.95,21.17ZM233.76,196.99c-.79,2.84-3.83,2.4-3.54,5.51,8.16-1.83,15.59-6.82,17.32-15.53-10,3.7-17,5.32-22.49,14.03,3.66-.8,5.16-3.69,8.71-4.01ZM229.14,202.52c0-.28-.22-.5-.5-.5s-.5.22-.5.5.22.5.5.5.5-.22.5-.5Z" fill="#623920"/><path d="M66.44,171.53l-8.3.16c-8.17.16-16.54,1.39-23.5-3.26-5.35-3.58-12.51-12.75-9.38-15.74,3.18-3.03,16.8,2.6,21.1,4.38,5.52,2.29,9.41,6.1,13.35,10.46,1.32,1.46,7.43,1.34,7.85,2.26.21.46.08,1.71-1.12,1.73ZM41.14,168.88c-.17.71.37,1.04,1,.94,1.31-.19,2.6.14,3.91.17,1.02,1.81,3.48,1.01,5.18.71.57-.1,1.33-.31,1.91-.19,1.69.33,3.97.93,4.95-1.48-.43-1.14-2.05-1.65-2.81-2.09-2.76-5.7-20.71-12.62-28.5-13,2.15,7.67,8.01,12.32,14.37,14.95Z" fill="#693f25"/><path d="M30.01,221.67c-1.13-.72-1.59-1.73-1.76-2.27-.24-.8.38-2.18,1.53-2.63l12.11-4.74c10.76-4.21,13.86-1.27,18.5-3.56.54-.26,1.45,0,1.8.15.29.13.22.41.38,1.29-1.35,1.3-2.41,2.66-3.38,4.46-5.65,10.52-18.89,13.84-29.18,7.3ZM36.91,220.93c6.31,3.1,14.49-.41,18.81-6.43-1.4-1.2-5.5,2.42-6.58.43,1.84-.56,4.01-.47,5.1-2.87-2.84.26-5.42.17-7.89,1.16l-14.43,5.8c1.22,2.39,3.54,1.2,4.99,1.91Z" fill="#653511"/><path d="M174.17,81.98c-.94,2.41-3.82,1.87-6.02,2.06.12-.72.15-1.68-.59-1.92-.57-.19-1.13.02-1.57.02-9.45-.12-14.04-5.46-19.74-5.15-.24-.61-.29-1.55-1.04-1.71l.09-1.25c.05-.74.38-1.43.78-2.05,10.41,5.94,14.01,6.48,26.29,8.83.92.18,1.5.74,1.8,1.17Z" fill="#6f3608"/><path d="M146.25,76.98c-.23,1.27-1.14,2.18-2.16,2.89-.38.26-.83.83-.93,1.28-.8,3.53-5.37,7.65-5.27,13-1.1.94-1.42,2.39-1.76,3.75-3.46,0-.89,3.97-2.99,5.12.02-10.26,4.4-20.91,12.07-27.75.76.16.81,1.1,1.04,1.71Z" fill="#653511"/><path d="M128.95,103.03c-.55.78.4,1.45,1.01,1.8s1.43.28,2.18.19c.16.45.52.75.84,1.08.35.36.66.75,1.16.92.18,2.09-.39,4.39.18,6.86.9,3.95,4.24,9.83,1.72,9.1-3.85-6.46-2.27-11-3.82-13.86-.38-.7.92-2.95-1.04-2.98l-9.08-.14c0-1.06.49-1.59,1.98-1.48.75.06,1.51.15,1.96-.16.3-.2.16-.97.1-1.33.93.05,1.87,0,2.81-.01Z" fill="#493d24"/><path d="M133.14,103.02c.04.81-.17,1.71-1,2-.75.09-1.56.17-2.18-.19s-1.56-1.02-1.01-1.8h4.19Z" fill="#5e3110"/><path d="M197.05,91.97c.27,1.51,5.24,8.69,6.74,10.8l6.24-7.85c7.09-3.89,8.22-5.78,16.88-6.75-2.32,1.17,5.68,2.43,6.03,2.56,9.58,6.72,10.68,24.1,5.16,33.29-3.47,5.79-8.65,10.09-14.97,11.08-1,.07-2,.07-3,.02-2.92.26-5.52-1.01-8.49-3.04-.68.8-1.01,1.97-1.64,2.89-.26.38-.95.55-1.13,1.02l-2.66-.8c-.73.57-.91,1.24-1.07,1.85-.68-.15-1.37-.22-2.06-.22l-1.22-4.62c1.67-.48,3.61-.06,5.26-.15,2.67-1.43,3.02-5.17,2.58-8.03-.38-2.49-2.21-5.17-5.03-6.36-3.63-1.53-8.21.74-8.78,4.31-1.45.83-1.11,2.75-.95,4.17.19.98-.05,1.7-1.08,1.3-.86-.33-1.46-.39-2.03-.27-.79.16-.75,1.36-1.07,1.86-3.96,1.14-4.42,3.61-9.64,3.03h-10c-.33,0-.67-.04-1,0,.12-.71.37-1.39.78-1.98,4.64,2.41,18.2-.97,20.31-5.71,2.26-5.08,5.35-10.2,11.83-9.79,10.99.71,8.55,14.23,10.85,15.74,6.27,4.1,14.18,2.17,19.05-3.56,7.49-8.81,8.02-22.14.96-31.32-2.48-3.22-6.51-5.12-10.34-4.13-14.79,3.82-17.18,15.7-19.96,16.3-.67.14-1.32-.27-1.74-1.29-3.95-9.64-11.58-18.15-22.09-20.94-7.96-2.11-16.61,1.63-21.45,7.47s-7.27,14.78-4.21,22.96c-.91-.52-1.95-.72-2.99-.73v-3c1.51.62-.28-5.1-.17-10.18.12-5.64,7.51-15.55,15.17-17.76.61-.18,1.38,0,2.01-.05,2.2-.19,5.08.35,6.02-2.06,7.59.1,14.96,3.95,20.92,9.15.75.65,1.25,1.51,1.96.84Z" fill="#5e3110"/><path d="M197.07,85.09c1.16,1.94,1.13,4.21,1.86,6.41-1.13-.12-1.47.07-1.89.47-.56-3.15-3.26-5.73-6.29-7.52-16.14-9.54-28.15-7.68-38.33-12.84-1.83-.93-3.23-1.97-4.14-3.36.7.17.93-.27.94-.72l.02-1.59c.04-2.83-2.6-4.55-4.29-6.5-2.23-8.39-3.09-3.06-2.78-12.41,3.82.51,2.63,3.81,9.88,10.12,12.28,10.69,21.78,7.49,33.01,16.88,4.38,3.66,8.51,7.03,12.01,11.07Z" fill="#f2bd41"/><path d="M218.06,76.08c-6.04,3.45-9.81,8.67-13.72,14.73-8.07-15.13-10.64-16.78-23.15-25.68-.07-.7-.77-1.02-1.07-2.02l10.04-.1c12.45,2.93,17.91,3.08,29.25,9.77-.47,1.71-.97,2.42-1.35,3.3Z" fill="#f2bd41"/><path d="M247.23,64.04c-.94,8.16-1.44,4.66-5.23,12.89,2.96.76,3.83-1.42,6.35-2.04-.61,10.3-14.46,12.49-21.43,13.27-8.66.96-9.79,2.86-16.88,6.75-1.47-.66-1.2-2.43-1.62-3.77,1.48-.2,1.89-1.72,2.91-2.95,8.06-9.69,18.28-10.12,27.94-17.17,3.03-2.21,6.05-7.08,7.96-6.98Z" fill="#efba47"/><path d="M148.29,68.24c.91,1.39,2.31,2.44,4.14,3.36,10.18,5.16,22.19,3.3,38.33,12.84,3.03,1.79,5.73,4.37,6.29,7.52-.71.67-1.21-.19-1.96-.84-5.96-5.2-13.34-9.05-20.92-9.15-.3-.44-.88-1-1.8-1.17-12.28-2.35-15.88-2.89-26.29-8.83-.44-1.06-1.04-2.06-1.8-2.93,1.02-.65,2.86-1.55,4.01-.81Z" fill="#d49438"/><path d="M218.06,76.08c.38-.88.88-1.59,1.35-3.3-11.34-6.69-16.8-6.84-29.25-9.77l-10.04.1c.3,1,1,1.32,1.07,2.02-3.49-1.22-6.33-2.11-9.16-3.77,17.88-4.21,38.92.1,52.29,11.15l-6.26,3.57Z" fill="#f1cc79"/><path d="M241.05,94.03c.49,4.99,2.27,10.18,2.16,15.62-.03,1.44.52,2.52.91,3.45-3.33,6.44-3.05,17.54-11.11,22.92l-2.97.11c-1.96-2.27-5.28,1.43-6.9-1.04,6.32-.99,11.5-5.29,14.97-11.08,5.52-9.19,4.42-26.57-5.16-33.29,1.2-.86,4.12-2.33,5.51-1.17,1.31,1.09,1.14,3.77,2.59,4.47Z" fill="#eab957"/><path d="M197.14,84.02l-.07,1.07c-3.5-4.05-7.64-7.41-12.01-11.07-11.24-9.39-20.74-6.19-33.01-16.88-7.25-6.31-6.06-9.61-9.88-10.12l.13-4.05c1.75.51,1.5,2.27,2.44,3.53,12.62,16.92,24.43,14.85,38.34,23.64,5.89,3.72,10.84,8.21,14.06,13.89Z" fill="#f1cc79"/><path d="M247.23,64.04c-1.91-.1-4.93,4.77-7.96,6.98-9.66,7.05-19.88,7.48-27.94,17.17-1.02,1.22-1.42,2.74-2.91,2.95-.22-.7.07-1.2.62-2.04,12.32-18.84,29.13-11.71,38.51-32.22,1.86,3.08-.1,5.21-.33,7.16Z" fill="#f1cc79"/><path d="M208.42,91.14c.41,1.34.15,3.1,1.62,3.77l-6.24,7.85c-1.51-2.11-6.48-9.28-6.74-10.8.42-.4.76-.59,1.89-.47-.74-2.2-.7-4.47-1.86-6.41l.07-1.07c.88,1.55,2.41,2.8,3.1,5.05.82,2.69,1.98,5.07,3.62,7.48,2.03-1.53,2.41-5.11,4.56-5.41Z" fill="#eab957"/><path d="M142.12,62.29c1.94,1.87,4.37,3.55,7.13,3.64l-.02,1.59c0,.46-.24.89-.94.72-1.15-.74-2.98.15-4.01.81-1.56-1.81-3.15-3.79-3.46-6.39.32-.36,1.05-.2,1.3-.36Z" fill="#eab957"/><path d="M149.24,65.93c-2.75-.08-5.19-1.76-7.13-3.64,1.13-.73,2.51-1.48,2.83-2.87,1.69,1.95,4.33,3.68,4.29,6.5Z" fill="#6f3608"/><path d="M121.14,181.02c1.15,2.65,2.61,5.37,5.01,7.13,1.78,1.31,3.65,2.5,5.25,4.62,1.29,1.71,13.14,6.91,10.74,5.17,1.89,1.37,4,1,6.04,1.91,1.85.83,4.25,2.27,5.98,3.17,1.53,3.47,10.68,3.06,10.33,6.02l-.23.97-9.1.11c-2.37.03-4.23-.42-6.04-.19-.66.08-1.34-.1-2-.08-.96-.47-2.04-.53-3.06-.8-1.09-.28-2.28-.61-3.03-1.69,1.27-1.14,2.28-1.7,1.76-3.21-2.83,1.58-6.84,3.42-8.67,4.61-1.92-.2-3.85.24-5.74-.17-1.63-.35-2.98-1.43-4.27-2.42-3.99-6.62.37-8.6-1.07-12.34-1.53.03-1.77,1.61-3.01,2.36-3.71-3.03-6.14-10.62-7.65-11.22.24-1.58-.51-3.09-.54-5.03,3.68.31,6.41,1.44,9.28,1.05Z" fill="#d49438"/><path d="M110.18,183.94c.92,4.81,3.44,9.17,6.56,13.25-.28,1.05-.85,1.99-.78,2.7-4.98,4.09-14.31,14.87-23.35,9.91,2.44-2.11,19.4-9.96,16.68-12.36-7.69,3.16-21.99,13.74-29.14,8.84.2-.64.78-1.21,1.79-1.38,4.78-.8,15.53-4.25,16.23-8.93l3.11-2.02c1.56-1.01,3.3-1.47,4.46-3.35-4.62,1.15-9.14,2.74-13.61,4.39-1.67-2.32.75-3.06-1.87-5.13,1.58-1.6,13.19-3.24,13.79-7.17,1.54-.52,2.78-2.35,4.86-2.35.45,1.44,1.05,2.52,1.25,3.59Z" fill="#d49438"/><path d="M121.99,206.84c.57,2.95,3.45,4.05,6.26,4.36,1.82,2.72-.99,6.47-2.11,8.7-1.67.32-3.22,1.37-4.95.98-.28,0-.57-.12-.86-.1.88-1.98,3.19-3.01,3.69-5.86-1.13-2.14-3.74,5.62-9.96,5.02-8.02-4.84,6.98-3.9,4.13-14.86-.11-.44-.17-1.51-.87-1.15l-.11-2.78c3.64-.16,1.85,3.62,4.78,5.67Z" fill="#d49438"/><path d="M156.23,143.23c.02,1.97.23,3.92.02,5.88-1.23,11.51-8.32,21.35-18.74,27.18-2.18,1.22-4.13,2.19-6.37,1.74v-1c0-.68-.11-1.36-.1-2.04,2.18.5,4.34-.19,6.53-1.6,11-7.1,18.89-19.8,15.46-32.34l3.19,2.19Z" fill="#5a341b"/><path d="M90.27,189.86c2.61,2.07.2,2.81,1.87,5.13-6,2.21-19.17,5.81-24.03.97.54-1.01,1.73-1.74,3.25-2,8.63-1.47,12.37-3.59,18.91-4.1Z" fill="#efba47"/><path d="M104.07,182.69c-.6,3.93-12.21,5.57-13.79,7.17-6.54.51-10.28,2.63-18.91,4.1-1.53.26-2.72.99-3.25,2-.68-.67-3.51-.89-2.2-2.66,1.13-1.53,4.12-1.78,6.2-2.22,11.1-2.38,21.64-4.88,31.96-8.38Z" fill="#f1cc79"/><path d="M112.4,184.99c1.51.6,3.95,8.19,7.65,11.22,1.23-.75,1.47-2.33,3.01-2.36,1.44,3.74-2.92,5.72,1.07,12.34-.3-.23-.96-.09-1.55-.17-.31-.05-.71.22-.59.82-2.93-2.06-1.13-5.83-4.78-5.67-.46,0-1.19-.82-1.24-1.27-.08-.7.5-1.64.78-2.7-3.12-4.08-5.64-8.44-6.56-13.25.72.39,1.46.75,2.22,1.06Z" fill="#6f3608"/><path d="M98.18,195.96c-.7,4.68-11.45,8.13-16.23,8.93-1.01.17-1.59.74-1.79,1.38-1.04-.37-2.95.41-4.17-1.77,6.44-3.59,15.23-5.98,22.19-8.54Z" fill="#eab957"/><path d="M169.14,152.03c-.66.67-1.31,1.85-1.26,2.81-8.94,2.87-18.25,15.92-21.19,24.71-3.07,9.16-.7,12.84,1.5,20.31-2.05-.91-4.15-.54-6.04-1.91,4-1.09.79-8.39,2.58-18.34.23-1.29.11-4.18-1.42-4.08-3.72.23-6.57,2.4-9.64,3.97-.81.42-9,2.82-9.93,3.32,1.5,2.05,2.41,3.56,2.42,5.33-2.4-1.76-3.86-4.48-5.01-7.13,3.42-.46,7.19-.97,10-3,2.24.45,4.19-.52,6.37-1.74,10.42-5.83,17.5-15.67,18.74-27.18.42-.41.7-.94,1.36-2.09,5.04,3.49,6.97,2.68,11.53,5.02Z" fill="#eab957"/><path d="M120.33,220.78c-6.21.39-4.71.1-6.27-.84,6.21.6,8.82-7.17,9.96-5.02-.5,2.85-2.81,3.88-3.69,5.86Z" fill="#5e3110"/><path d="M126.13,219.9c-.19.39.08,1.1-.2,1.55-.68,1.08-4.28.95-4.75-.56,1.73.39,3.28-.66,4.95-.98Z" fill="#5e3110"/><path d="M118.19,205.09c-.66.36-.85-.7-.87-1.15.7-.36.76.71.87,1.15Z" fill="#6f3608"/><path d="M287.11,105.92c-1.76,5.5-7.54,8.11-8.07,13.43,5.87-1.12,9.97-4.77,14.7-7.77,5.4-3.43,9.71-7.45,13.12-12.87,1.27-2.01,3.37-3.45,3.24-5.8.65-.32,1.12-1.39,2.12-1.03.37,6.05-8.77,16.46-11.98,19.18-5.77,4.89-12.22,8.94-18.89,13.32-.25.33.3.65.62.7l-.02.99c-3.84,5.89-7.63,6.47-9.82,11.57,6.24-.77,12.45-2.4,17.83-5.77l9.79-6.14c1.18-.74,1.24-2.2,1.38-3.08.99-.14,2.49-.9,3.24.22-.59,1.45-1.21,3.19-2.8,4.65-15.74,14.5-28.21,12.41-32.5,16.61l-3.48,3.41c-2.01,1.97-4.62,3.15-7.21,4.71-1.66-.36-1.22,1.44-.04-.28,7.47,2.96,18.64-2.07,25.65-2.11-1.5,3.94-14.07,6.03-18.83,5.93l-11.03-.22c-.66-.01-.87.98-.96,1.28-6.29,2.07-1.71,2.41-9.19,4.91l7.96.77c2.95.28,5.52,1.44,8.18.6.62-.2,1.37.02,2.01-.12v1c.13,1.64-9.93,2.16-11,2.28,5.99,1.9-14.38-2.26-11.22-1.74-2.84-.47,5.55,5.31,5.32,7.33-5.47,3.28-15.94-1.23-21.19-4.03-.17,3.28,2.79,3.49,3.3,6.27-3.79,1.15-7.19-.17-10.39-2.11.33-1.75,2.18-7.4,2.97-7.8.6-.31,1.51-.13,2.11-.21,3.06,1.68,6.74.98,9.94-.05,1.23-.4,1.56-1.31,2.66-2.48,1.48-1.57,6.73,1.02,7.5-1.63l3.84-2.02c1.24-.65,1.63-2.03,1.54-3.09-.09-.97-1.07-1.43-1.41-2.79,5.71-.06,18.68-4.23,17.57-9.97-.22-1.13-1.56-1.58-2.72-3.12,5.15-1.48,19.91-11.68,15.48-16.73-1.19-1.36-3.22-1.63-5.28-1.4,4.26-3.09,12.16-12.22,9.19-17.91,2.86-2.77,6.7-4.78,9.43-8.12l6.27-7.69c1.52-1.86,8.26-12.14,7.31-14.05,2.45-2.14,2.93-5.7,3.54-8.77l.23-1.17c1.04.05,1.02.75,1.05,1.93.39,15.75-11.66,29.19-22.01,39.01-.64.61-1.15,1.6-.33,1.93.34.14.93-.14,1.26.02Z" fill="#d49438"/><path d="M284.01,149.87c-7.01.03-18.18,5.06-25.65,2.11-1.18,1.71-1.62-.08.04.28,2.59-1.56,5.2-2.74,7.21-4.71l3.48-3.41,12.27,2.51c1.92.39,3.61.8,4.83,1.94-1.09.87-1.95.69-2.18,1.29Z" fill="#efba47"/><path d="M253.19,156.87c2.19,1.04,4.01,2.74,6.03,4.04l.92,2.24c-2.66.84-5.23-.31-8.18-.6l-7.96-.77c7.48-2.5,2.91-2.84,9.19-4.91Z" fill="#efba47"/><path d="M304.38,122.87c-.75-1.12-2.25-.36-3.24-.22-2.09-1.26-4.89-.07-7.33,1.05-1.97.9-4.46-.4-6.18.75-1.94,1.29-3.65,2.06-5.67,1.61l.02-.99c7-2.16,16.3-5.29,23.81-5.81,1.56,1.74-1.02,2.69-1.39,3.61Z" fill="#eab957"/><path d="M251.14,166.31c1.07-.12,11.13-.64,11-2.28.47.04,1.06-.31,2.06.38-4.24,2.64-8.63,3.3-13.06,1.9Z" fill="#cc903e"/><path d="M262.14,163.02c-.64.14-1.38-.07-2.01.12l-.92-2.24c.97.62,2.92.31,2.92,2.11Z" fill="#cc903e"/><path d="M280.35,102.83c2.97,5.69-4.93,14.82-9.19,17.91,2.06-.23,4.09.04,5.28,1.4,4.43,5.05-10.34,15.25-15.48,16.73,1.17,1.54,2.5,1.99,2.72,3.12,1.1,5.74-11.87,9.92-17.57,9.97.33,1.36,1.32,1.81,1.41,2.79.09,1.06-.3,2.43-1.54,3.09l-3.84,2.02-8.64.42c-.71,1.1-.81,2.94-1.53,3.69-3.2,1.04-6.88,1.73-9.94.05.02-.65.54-1.52.19-2.04l4.93.12c1.15.03,3.59-.98,2.77-1.78l-3.7-3.61c2.45-2.01,12.3,3.41,18.33-1.24-1.22-3.39-7.6-4.42-5.32-6.27,7.34-.21,13.3.24,20.44-4.51,5.24-3.49-8.92-4.42-9.42-4.69.15-.26-.07-1.2.33-1.34,7.89-2.64,19.56-4.7,23.97-14.57-5.3-1.48-9.25,1.28-14.66.67,4.7-2.92,19.84-13.01,17.97-19.4-.22-.76-1.37-.47-1.68-.51-2.11-.28-6.03,1.45-8.31,2.82-30.97,18.56-25.25,28.22-37.64,35.08.23-.76-.16-1.54-.96-1.71,1.33-1.38,2.87-3.29,3.72-5.02,8.05-5.37,7.78-16.48,11.11-22.92.64-.47,1.65-.63,2.19-1.24,0,2.84-2,5.56-.84,9.56,4.63-4.84,9.11-8.85,14.91-12.1,1.54-.86,3.03-1.74,3.73-3.04.92-.05,2-.29,3.05-1.04l13.09-9.38c2.77.46-3.67,4.52-4.14,5.76l4.26,1.21Z" fill="#6f3608"/><path d="M310.1,92.9c.14,2.35-1.97,3.79-3.24,5.8-3.41,5.42-7.72,9.44-13.12,12.87-4.73,3-8.82,6.65-14.7,7.77.53-5.32,6.32-7.93,8.07-13.43.36-1.13,1.79-2,2.93-2.06,2.62-.13,3.97-2.26,6.32-3.59l5.87-3.31c2.73-1.54,5.37-2.85,7.87-4.06Z" fill="#efba47"/><path d="M307.14,63.02l-.23,1.17c-3.1-.47-4.97,3.27-6.77,5.95-1.74,1.92-3.05,3.85-3.92,5.92-5.45,3.79-5.33,6.16-9.11,8.92-3.87.6-7.27,6.9-12.93,10.12-4.44,2.52-8.68,5.72-12.98,7.84-5.19,2.56-10.82,4.38-14.89,8.93,0-2.29.11-3.74,2.6-5.25,4.17-2.54,8.47-4.76,12.95-7.11,15.84-8.34,29.27-19.48,39.78-33.93,1.48-2.04,3.43-2.84,5.5-2.55Z" fill="#f1cc79"/><path d="M312.22,91.87c-1-.36-1.47.71-2.12,1.03-2.5,1.22-5.14,2.52-7.87,4.06l-5.87,3.31c-2.34,1.32-3.69,3.45-6.32,3.59.43-.93,1.28-1.81,2.45-2.57,6.3-4.08,11.89-8.56,18.85-12.31,1.23-.24.84,2.15.88,2.89Z" fill="#f1cc79"/><path d="M136.13,97.9c-.42,8.28-2.1,3.99-.3,14.36.92,5.29,2.41,10.08,5.72,14.42,2.83,3.71,6,7.32,9.99,10.02,19.13,12.93,44.06,16.18,65.68,10.3l-.08,1.02c-.42.03-.91.07-1.34.26-.71.32-.48,1.27-.69,1.81l-1.15,1.64c-3.08,4.39-.04,3.58-2.35,3.83-.05-.97.12-3.95-1.21-3.78-18.58,2.49-21.49.38-38.21-1.73-1.05-1.16-2.93-1.71-4.81-2.45l-11.15-4.37-3.19-2.19c-1.22-.84-3.08-1.45-3.88-2.79-.6-1.01-1.21-2.32-3.18-1.63.35.89-.65,2.37-.63,3.4-1.96.04-1.03-4.31-3.33-6.95-1.48-1.7-3.32-2.58-4.79-3.77s-3.01-2.75-3.95-4.36c.35-.29.64-.63.87-1.01.74,0,1.36-.57,1.87-.95,2.52.73-.81-5.16-1.72-9.1-.56-2.47,0-4.76-.18-6.86-.05-.62-.43-1.23-1.16-.92-.32-.33-.68-.63-.84-1.08.83-.29,1.04-1.19,1-2,2.1-1.15-.46-5.12,2.99-5.12Z" fill="#6f3608"/><path d="M132.21,109.13c1.55,2.86-.03,7.4,3.82,13.86-.5.38-1.13.95-1.87.95-.19-.38-.27-1.48-.95-1.81-2.73-1.29-3.36-3.99-5.27-5.88-2.39-2.38-4.24-5-4.62-8.1,3.01-.48,5.9.61,8.88.98Z" fill="#52ae90"/><path d="M132.21,109.13c-2.98-.37-5.87-1.46-8.88-.98-.81-.48-1.24-1.16-1.23-2.13l9.08.14c1.96.03.66,2.28,1.04,2.98Z" fill="#95918e"/><path d="M149.16,138.25c.8,1.33,2.66,1.95,3.88,2.79,3.43,12.54-4.47,25.25-15.46,32.34-2.19,1.41-4.36,2.1-6.53,1.6-.53-.65-2.45-3.27-1.21-4.04,23.03-14.07,15.62-31.05,18.05-32.39.34-.19.87-.19,1.27-.3Z" fill="#52ae90"/><path d="M209.44,169.43c-1.24,7.6-9.43,22.93-16.27,26.55-1.64-.23-3.01.7-4.76,1.47-9.79,4.33-20.36,6.45-31.12,5.25-1.3-.14-2.71-.87-3.12.33-1.73-.9-4.13-2.34-5.98-3.17-2.2-7.47-4.56-11.15-1.5-20.31,2.94-8.79,12.25-21.84,21.19-24.71,2.02-.65,3.91-1.16,6.38-.21,6.85,2.64,22.75,3.36,29.93,2.15,2.13-.36,3.21.99,3.55,2.89l1.7,9.76ZM180.37,192.49c9.76-7.6,21.97-16.31,16.28-27.44-1.95-3.82-6.92-7.2-12.09-6.4-6.7,1.03-10.97,6.6-10.38,13.4s2.29,13.86,6.18,20.44Z" fill="#f7efd8"/><path d="M211.6,155.56c.06,1.21-.46,3.18-.27,4.46-.11,4.04-1.87,4.9-1.09,9.36-.23.43-.51.38-.81.04l-1.7-9.76c-.33-1.89-1.42-3.25-3.55-2.89-7.17,1.21-23.08.49-29.93-2.15-2.47-.95-4.37-.44-6.38.21-.05-.96.59-2.14,1.26-2.81,1.18-.36,2.84-.5,3.05-1.99,16.72,2.11,19.63,4.22,38.21,1.73,1.32-.18,1.16,2.81,1.21,3.78Z" fill="#dec6a3"/><path d="M193.17,195.98c-4.86,6.2-12.49,9.63-19.93,12.16-2.72.93-5.93.92-8.73.91.35-2.96-8.8-2.55-10.33-6.02.41-1.2,1.82-.47,3.12-.33,10.76,1.2,21.32-.92,31.12-5.25,1.74-.77,3.12-1.7,4.76-1.47Z" fill="#dec6a3"/><path d="M213.96,151.73l1.15-1.64c.83.03,1.7-.18,2.87.03.82,6.51-.15,12.34-2.65,18.31-1.07,2.55-1.12,5.48-4.2,6.67.94-3.88,1.98-7.11,2.22-10.93.87-4.32,1.3-8.48.61-12.43Z" fill="#52ae90"/><path d="M210.25,169.38c-.78-4.46.98-5.32,1.09-9.36,2.49.9-1.2,13.44-1.09,9.36Z" fill="#6f3608"/><path d="M233.76,196.99c-3.55.31-5.05,3.2-8.71,4.01,5.49-8.7,12.49-10.33,22.49-14.03-1.73,8.71-9.16,13.7-17.32,15.53-.29-3.1,2.75-2.66,3.54-5.51Z" fill="#eab957"/><circle cx="228.64" cy="202.52" r=".5" fill="#eab957"/><path d="M55.27,166.93c-3.58.5-8.34-3.08-13.22-3.71,2.26,3.42,10.89,5.54,11.08,7.28-.58-.11-1.34.09-1.91.19.41-.7-.39-.61-1.16-.62l-4.02-.08c-1.3-.03-2.59-.35-3.91-.17-.17-.46-.56-.76-1-.94-6.36-2.62-12.22-7.27-14.37-14.95,7.8.38,25.75,7.3,28.5,13Z" fill="#eab957"/><path d="M55.27,166.93c.76.44,2.38.95,2.81,2.09-.97,2.41-3.26,1.81-4.95,1.48-.19-1.74-8.82-3.86-11.08-7.28,4.87.64,9.64,4.21,13.22,3.71Z" fill="#6f3608"/><path d="M51.23,170.69c-1.7.31-4.16,1.11-5.18-.71l4.02.08c.78.02,1.58-.08,1.16.62Z" fill="#6f3608"/><path d="M42.14,169.82c-.63.09-1.17-.23-1-.94.44.18.83.48,1,.94Z" fill="#6f3608"/><path d="M159.02,217.1c-.68,3.98-3.16,7.56-7.9,7.97.34-2.23,1.45-3.39,3.01-5.46-1.52-3.13-4.25,5.91-10.34,3.82-.76-.26-1.7-1.42-1.6-1.93.3-1.5,4.61-1.96,4.94-5.42.64-.23.85-.72.26-1.13.04-.54.13-1.18,0-1.73,3.81,1.69,7.4,3.72,11.62,3.9Z" fill="#d49438"/><path d="M147.14,209.85c.28,1.44,2.03,1.72,2,.08,1.8-.23,3.67.22,6.04.19l9.1-.11c.5.6,1.36,1.16,2.94,1.38l-5.2,2.49c-1.35.65-1.22,3.3-2.99,3.22-4.23-.18-7.81-2.21-11.62-3.9-1.48-.65-2.54-1.98-3.27-3.39-.11-.21.01-.53-.05-.77,1.02.26,2.09.33,3.06.8ZM160.11,213.65c-4.33-.64-7.46-2.5-7.91-1.2-.69,2,7.75,1.92,7.91,1.2Z" fill="#6f3608"/><path d="M144.08,209.05c.06.23-.06.56.05.77l-9.99-1.05c1.83-1.2,5.83-3.04,8.67-4.61.52,1.51-.48,2.07-1.76,3.21.74,1.08,1.94,1.4,3.03,1.69Z" fill="#5e3110"/><path d="M124.14,206.19c1.29.99,2.64,2.07,4.27,2.42.14.83-.2,1.8-.16,2.6-2.8-.31-5.69-1.41-6.26-4.36-.12-.6.29-.87.59-.82.59.09,1.25-.06,1.55.17Z" fill="#5e3110"/><path d="M147.14,216.07l.26-1.13c.58.41.38.9-.26,1.13Z" fill="#6f3608"/><path d="M36.91,220.93c-.42-.21-1.12-1.89-.14-2.13,4.38-1.06,8.36-2.49,12.37-3.87,1.08,1.99,5.18-1.63,6.58-.43-4.32,6.03-12.5,9.53-18.81,6.43Z" fill="#eab957"/><path d="M49.14,214.92c-4.01,1.38-7.99,2.81-12.37,3.87-.98.24-.28,1.92.14,2.13-1.45-.71-3.76.48-4.99-1.91l14.43-5.8c2.47-.99,5.05-.9,7.89-1.16-1.09,2.39-3.26,2.31-5.1,2.87Z" fill="#f1cc79"/><path d="M165.99,82.13l.15,1.96c-7.65,2.21-15.05,12.12-15.17,17.76-.31-.25-.61-.25-.88.05-1.53-1.29-.88,10.18-.89,10.13,1.35,7.05,5.49,13.14,10.94,16.99.31.06.7-.1,1,0,.19,1,.96,1.75,2,1.64.28-.03.74.03,1,.14,1.05,2.38,3.06,3.03,5.73,3.61,12.4,2.7,16.57-3.58,19.68-2.32,1.71.69-.51,4.29,6.22,9.47,1,.77.39,2.56.46,3.34-22.36-.34-49.15-10.2-56-34.07-2.07-7.22-.99-11.82-2.35-16.67-.11-5.35,4.47-9.47,5.27-13,.77.37.74-.83.93-1.28,1.02-.71,1.93-1.62,2.16-2.89,5.7-.31,10.29,5.02,19.74,5.15Z" fill="#f3be3f"/><path d="M168.15,84.04c-.63.05-1.4-.13-2.01.05l-.15-1.96c.44,0,.99-.21,1.57-.02.74.25.71,1.2.59,1.92Z" fill="#653511"/><path d="M196.23,144.89l7.89.12c7.64.12,20.39-3.65,25.91-8.89l2.97-.11c-.85,1.73-2.39,3.63-3.72,5.02-4.15,1.49-7.81,4.81-12.07,5.97-21.62,5.88-46.55,2.63-65.68-10.3-3.99-2.7-7.16-6.31-9.99-10.02-3.31-4.34-4.8-9.13-5.72-14.42-1.79-10.37-.12-6.08.3-14.36.33-1.36.66-2.81,1.76-3.75,1.35,4.85.27,9.45,2.35,16.67,6.85,23.87,33.64,33.73,56,34.07Z" fill="#d49438"/><path d="M143.15,81.15c.1-.45.56-1.02.93-1.28-.19.45-.16,1.66-.93,1.28Z" fill="#6f3608"/><path d="M170.92,130.04c-7.47-2.14-14.14-7.19-16.79-14.28-3.06-8.18-.82-16.91,4.21-22.96s13.49-9.58,21.45-7.47c10.52,2.79,18.15,11.3,22.09,20.94.42,1.02,1.07,1.43,1.74,1.29,2.77-.59,5.17-12.48,19.96-16.3,3.83-.99,7.86.91,10.34,4.13,7.06,9.18,6.53,22.51-.96,31.32-4.87,5.73-12.78,7.66-19.05,3.56-2.3-1.5.14-15.03-10.85-15.74-6.47-.42-9.57,4.71-11.83,9.79-2.11,4.75-15.67,8.13-20.31,5.71ZM192.24,109.01c0-6.84-5.55-12.39-12.39-12.39s-12.39,5.55-12.39,12.39,5.55,12.39,12.39,12.39,12.39-5.55,12.39-12.39ZM224.14,123.44c4.37-1.68,6.73-5.76,7.14-9.03.56-4.49-.4-8.68-3.92-11.51s-8.21-2.79-11.94-.38c-6.41,4.14-6.24,14.9-1.14,18.86,2.72,2.11,6.01,3.54,9.86,2.06Z" fill="#f7f9f5"/><path d="M220.14,135.1c1,.06,2,.05,3-.02,1.62,2.47,4.93-1.23,6.9,1.04-5.53,5.24-18.27,9-25.91,8.89-.42-4.55,4.17-7.44,4.76-9.04.18-.47.86-.63,1.13-1.02,4.72-3.15,6.52,3.7,10.13.14Z" fill="#f3be3f"/><path d="M207.16,129.93l-.02,2.09c-1.66.09-3.6-.33-5.26.15l-3.98-1.62c-.96,3.13,4.11,3.01,3.11,4.89s-5.61-1.66-6.34-4.47c-1.02,3.18,2.68,9.2,6.17,8.6,1.11-.58,1.55-2.13,2.27-2.78.69,0,1.38.07,2.06.22-.19,1.73-1.18,3.43-2.39,4.22-1.6,1.04-3.99,1.22-5.74.05-4.21-2.83-5.97-7.7-6.25-12.29.32-.5.28-1.7,1.07-1.86.57-.11,1.18-.06,2.03.27,1.03.4,1.27-.32,1.08-1.3l7.1,2.92c1.85.76,3.44,1.53,5.1.9Z" fill="#6f3608"/><path d="M207.16,129.93c-1.65.64-3.25-.13-5.1-.9l-7.1-2.92c-.16-1.41-.5-3.33.95-4.17,2.69-1.54,1.15-4.39,7.61-3.02,1.94.41,7.04,9.69,3.64,11.01Z" fill="#d49438"/><path d="M154.13,115.75c2.66,7.09,9.33,12.14,16.79,14.28-.41.59-.66,1.27-.78,1.98-2.09.28-4.08-.43-6-1.22-.26-.11-.72-.17-1-.14-.31-.87-1.16-1.34-2-1.64-.3-.1-.69.06-1,0-3.48-4.42-9-8.36-9-14,1.04.01,2.08.22,2.99.73Z" fill="#653511"/><path d="M190.77,128.99c.28,4.59,2.04,9.46,6.25,12.29,1.75,1.18,4.14,1,5.74-.05,1.21-.79,2.21-2.49,2.39-4.22.16-.61.34-1.28,1.07-1.85l2.66.8c-.59,1.6-5.18,4.49-4.76,9.04l-7.89-.12c-.07-.77.54-2.56-.46-3.34-6.73-5.18-4.51-8.77-6.22-9.47-3.11-1.26-7.29,5.02-19.68,2.32-2.67-.58-4.68-1.23-5.73-3.61,1.92.8,3.91,1.5,6,1.22.33-.04.67,0,1,0-1.93,1.43,10.76,1.55,10,0,5.21.58,5.67-1.89,9.64-3.03Z" fill="#eab957"/><path d="M207.14,132.02l.02-2.09c3.4-1.32-1.7-10.6-3.64-11.01-6.46-1.36-4.92,1.48-7.61,3.02.57-3.57,5.15-5.84,8.78-4.31,2.82,1.19,4.65,3.87,5.03,6.36.44,2.86.09,6.6-2.58,8.03Z" fill="#eab957"/><path d="M201.88,132.17l1.22,4.62c-.72.65-1.16,2.21-2.27,2.78-3.49.6-7.19-5.42-6.17-8.6.73,2.81,5.38,6.28,6.34,4.47s-4.06-1.77-3.11-4.89l3.98,1.62Z" fill="#cc903e"/><path d="M151.14,112.02v3c0,5.64,5.52,9.58,9,14-5.45-3.85-9.59-9.94-10.94-16.99,0,.05-.64-11.42.89-10.13l.1,9.1c0,.73.44,1.22.94,1.02Z" fill="#eab957"/><path d="M151.14,112.02c-.51.19-.94-.3-.94-1.02l-.1-9.1c.27-.3.57-.3.88-.05-.11,5.08,1.68,10.79.17,10.18Z" fill="#653511"/><path d="M181.14,132.02c.76,1.55-11.93,1.43-10,0h10Z" fill="#653511"/><path d="M220.14,135.1c-3.61,3.55-5.41-3.3-10.13-.14.63-.92.95-2.1,1.64-2.89,2.97,2.03,5.57,3.29,8.49,3.04Z" fill="#eab957"/><path d="M142.14,197.95c2.39,1.74-9.45-3.46-10.74-5.17-1.6-2.11-3.47-3.31-5.25-4.62,0-1.77-.92-3.28-2.42-5.33.93-.5,9.12-2.91,9.93-3.32,3.08-1.57,5.93-3.74,9.64-3.97,1.53-.09,1.65,2.79,1.42,4.08-1.79,9.95,1.42,17.25-2.58,18.34Z" fill="#f3be3f"/><path d="M149.14,209.93c.03,1.64-1.72,1.36-2-.08.66-.02,1.34.17,2,.08Z" fill="#5e3110"/><path d="M172.18,150.05c-.21,1.49-1.86,1.63-3.05,1.99-4.56-2.34-6.49-1.53-11.53-5.02-.66,1.15-.94,1.69-1.36,2.09.21-1.96,0-3.9-.02-5.88l11.15,4.37c1.88.74,3.75,1.29,4.81,2.45Z" fill="#cc903e"/><path d="M303.37,72.97c.94,1.92-5.8,12.19-7.31,14.05l-6.27,7.69c-2.73,3.34-6.56,5.35-9.43,8.12l-4.26-1.21c.48-1.24,6.91-5.3,4.14-5.76l-.8-3.37c3.57-1.78,6.64-4.13,7.66-7.51,3.79-2.75,3.67-5.12,9.11-8.92,4.38.71,4.45-6.8,7.16-3.09Z" fill="#f2bd41"/><path d="M301.14,122.64c-.14.88-.2,2.34-1.38,3.08l-9.79,6.14c-5.38,3.38-11.59,5-17.83,5.77,2.19-5.11,5.98-5.68,9.82-11.57,2.02.45,3.73-.33,5.67-1.61,1.73-1.15,4.22.15,6.18-.75,2.44-1.12,5.24-2.31,7.33-1.05Z" fill="#f2bd41"/><path d="M306.91,64.2c-.61,3.08-1.09,6.63-3.54,8.77-2.71-3.71-2.77,3.81-7.16,3.09.87-2.07,2.18-4.01,3.92-5.92,1.8-2.68,3.68-6.41,6.77-5.95Z" fill="#eab957"/><path d="M242.14,159.85c-.77,2.65-6.03.06-7.5,1.63-1.1,1.17-1.43,2.08-2.66,2.48.72-.75.82-2.59,1.53-3.69l8.64-.42Z" fill="#cc903e"/><path d="M230.24,142.74c-2.29,1.27-4.2,3.53-7.35,4.31-1.5.37-2.1,1.7-1.94,2.82-.29.04-.59-.02-.87.04-1.39.3-2.14-.96-2.94-1.89l.08-1.02c4.26-1.16,7.93-4.48,12.07-5.97.8.17,1.19.95.96,1.71Z" fill="#5e3110"/><path d="M221.22,156.1c.05.81-.02,1.64-.47,2.35-.31.48-.58.58-.74-.04.28-2.82.1-5.66.07-8.49.28-.06.58,0,.87-.04.29,2.06.15,4.15.27,6.23Z" fill="#6f3608"/><path d="M250.27,140c-.19.34-.38,1.47.08,1.79,2.32.27,5.16-.53,6.9,1.03,1.15,5.49-20.62,4.34-18,6.38-2.28,1.85,4.1,2.87,5.32,6.27-6.03,4.65-15.88-.78-18.33,1.24l3.7,3.61c.82.8-1.62,1.8-2.77,1.78l-4.93-.12c-.73-1.08-1.76-2.16-1.48-3.53.45-.7.52-1.53.47-2.35,1.51-.47,1.31-2.31,1.19-4.02,2.1,5.57,10.63-4.08,12.4-6.31l4.4-5.54c7.04-8.87,26.71-31.3,37.89-33.56-.4-.76-.86-1.19-.91-1.82.31.04,1.45-.25,1.68.51,1.87,6.39-13.27,16.48-17.97,19.4,5.41.61,9.36-2.15,14.66-.67-4.41,9.87-16.08,11.92-23.97,14.57-.4.13-.18,1.07-.33,1.34Z" fill="#efba47"/><path d="M276.2,104.85c.05.62.52,1.06.91,1.82-11.18,2.27-30.85,24.7-37.89,33.56l-4.4,5.54c-1.77,2.23-10.3,11.88-12.4,6.31.12,1.71.31,3.55-1.19,4.02-.12-2.07.02-4.17-.27-6.23-.16-1.12.44-2.45,1.94-2.82,3.15-.78,5.06-3.04,7.35-4.31,12.4-6.86,6.67-16.51,37.64-35.08,2.28-1.36,6.2-3.1,8.31-2.82Z" fill="#d49438"/><path d="M261.19,102.94c1.34,1.47,3.06.8,2.91,3.35-.7,1.3-2.19,2.18-3.73,3.04-5.79,3.24-10.28,7.26-14.91,12.1-1.16-4,.84-6.72.84-9.56,4.08-4.55,9.7-6.37,14.89-8.93Z" fill="#efba47"/><path d="M280.24,95.86l-13.09,9.38c-1.05.76-2.13.99-3.05,1.04.15-2.55-1.57-1.88-2.91-3.35,4.3-2.12,8.53-5.32,12.98-7.84,5.66-3.21,9.05-9.52,12.93-10.12-1.02,3.39-4.09,5.73-7.66,7.51l.8,3.37Z" fill="#eab957"/><path d="M239.24,149.2c-2.62-2.03,19.15-.89,18-6.38-1.74-1.56-4.58-.77-6.9-1.03-.46-.33-.27-1.46-.08-1.79.5.27,14.66,1.2,9.42,4.69-7.14,4.75-13.1,4.3-20.44,4.51Z" fill="#eab957"/><path d="M55.13,76.95c-.33.33-.68.64-1.05.92-4.42-3.58-18.95-17.8-24.31-19.1-.99-.24-.45,1.56-.65,2.08-2.63,6.81,6.64,19.18,11.7,24.5,5.48,5.77,11.42,10.63,17.96,15.17.94.65,1.63,1.46,1.94,2.23-.82-.21-1.68-.19-2.5,0-2.11-1.96-25.34-11.92-26.99-9.89-.23.28,0,.9,0,1.22.11,1.87.99,3.7,2.24,5.56,7.95,11.82,19.75,17.53,32.59,22.55,1.51.59,2.51,1.29,2.87,2.4.02-.27-25.96.41-19.09,3.51.18,1.96,2.16,3.19,4.09,4.21,8.08,4.28,16.92,5.86,26.15,6.47,1.42.09,2.81.66,2.82,1.77-2.97.59-5.98,1.8-8.42,3.56-1.8-.03-5.25.24-5.46,2.56,2.67,3.12,7.01,3.46,10.1,4.27.31.36.64,1.19,1.42,1.07.37-.06.71-.42.58-.88l4.18.1c.43,1.68.37,3.49,1.57,4.8.66.73,1.04,1.78,2.29,1.66-.25,1.43,1,1.66,1.06.17,3.85.6,7.99,1.6,11.93,1.05.45,1.16,2.27,1.26,3.21,2.07-.06.31.08.68-.02.98l-6.37-1.59c-2.63-.66-5.68-.1-7.74.78-.83-.15-2.08.17-2.91-.03-1.52-.37-3.35-1.2-4.47-2.73-.92-1.25.25-2.6.25-4.38-4.57.66-21.86-3.25-17.96-9.13,1.27-1.92,3.56-2.06,5.26-3.77-7.72-1.46-22.32-5.77-25.86-12.42-1.18-2.22-.2-4.65,2.01-5.09l9.87-1.96c-9.96-4.54-19.06-10.26-25.6-19.1-1.91-2.58-5.71-9.46-2.89-12.28s9.18,1.78,13.45,1.62l-8.63-10.38c-4.43-5.32-10.8-19.19-6.53-25.55l1.07-.19c.6-.07,1.23-.15,1.84-.04.42.08.93.08,1.31.25,4.09,1.77,7.18,4.97,10.58,7.77-.75-4.8-2.54-7.96-4.55-10.82.32-.95.28-1.98-.08-2.92,2.85-3.75-2.48-7.81.91-9.1.65-.4.74.41.72,1.16.11,12.92,9.67,25.44,16.1,34.87Z" fill="#653511"/><path d="M126.14,103.04c.06.36.2,1.13-.1,1.33-.45.3-1.21.21-1.96.16-1.49-.11-1.98.42-1.98,1.48,0,.98.43,1.66,1.23,2.13.38,3.1,2.23,5.73,4.62,8.1,1.9,1.89,2.54,4.58,5.27,5.88.68.32.76,1.43.95,1.81-.23.39-.52.73-.87,1.01-6.97-3.05-13.19-16.57-16.98-23.95-3.5-6.82-8.68-12.13-15.4-15.91-18.29-10.3-37.17-25.25-49.07-42.7-1.78-2.61-9.88-16.37-10.69-10.51-.78.53-1.77,1.1-1.91,2.14-1.08-.19-1.04.88-.16,1.23-.52,1.8-.55,3.86-.77,5.67-3.38,1.3,1.94,5.35-.91,9.1-2.41-4.93-2.53-21.73,4.44-22.47,1.44-.15,2.76.48,3.99,1.75,4.25,4.39,9,13.42,14.88,20.08,12.17,13.8,26.53,24.65,42.47,33.67s15.23,19.75,19.15,20.3c1.42.2,2.66-.38,3.8-.32Z" fill="#5e3110"/><path d="M149.16,138.25c-.4.11-.93.11-1.27.3-2.44,1.35,4.97,18.32-18.05,32.39-1.25.76.67,3.38,1.21,4.04,0,.68.1,1.36.1,2.04l-1.94-.38c0-1.21-.41-4.27-1.8-4.59-5.91,1.43-11.23.74-17.02,1.24-1.03.4.34,2.86,1.35,3.26,5.55,2.16,11.11,1.86,16.42.28-1.08,3.3-14.2,2.33-17.84,1.19-7.17,3.06-7.74-.71-10.08.93-8.53-2.36-13.86-8.51-11.9-17.83.83.2,2.08-.12,2.91.03-.15,2.86-1.29,6.37.71,9.16,3.49,4.86,9.22,7.35,15.21,7.52-.97-7.35,2.7-8.2,2.8-10.37.02-.53-1.01-1.5-1.8-1.42-3.23.32-4.47-1.95-6.59-3.36-2.65-1.76-6.65-.31-10.33-1.54,2.06-.88,5.11-1.44,7.74-.78l6.37,1.59c-.93,2.74,4.91,2.74,7.73,4.31-.11.84-.42,2.39.31,3.26,2.14,2.58,4.85.58,6.75.65,2.02.08,3.23-.62,4.96-1.04,3.92-.96,7.13-2.75,10.44-5.77,7.31-6.7,9.99-14.05,9.81-23.35-.02-1.03.98-2.51.63-3.4,1.97-.7,2.57.62,3.18,1.63Z" fill="#493d24"/><path d="M31.45,56c.59-.33.63-.65,0-.95l2.68-.04c1.76-.03,2.85-.88,3.36-2.07,2.01,2.87,3.8,6.02,4.55,10.82-3.4-2.8-6.49-5.99-10.58-7.77Z" fill="#f7efd8"/><path d="M67.22,79.11c-3.79,7.68,2.43,14.03,7.38,20.6-2.99.46-5.33-1.33-7.41.4-5.75,4.79,8.61,18.46,14.39,20.62-1.48,1.61-3.99,1.41-4.34,3.34-1.28,7.14,12.89,12.71,17.97,13.31-2.57,2.48-2.1,4.89-.2,6.89,3.15,3.31,7.6,3.44,12.13,3.81,1.57.13,1.33,2.93,2.23,3.7,5.95,5.07,12.41,2.04,17.69.45,1.33.42,2.72.95,2.94,2.3.29,1.76-1.18,2.47-1.89,3.6l-10.93,3.96c-4.2,1.52-8.02.82-11.82-.13.1-.3-.04-.67.02-.98,1.64-.91,3.63-1.94,4.95-4.12-3.19-.67-5.56,1.68-8.16,2.05-3.95.56-8.08-.44-11.93-1.05-2.83-5.68,13.47-2.13,13.94-5.6.26-1.94-5.66-2.08-6.99-2.19-4.37-.35-6.43,1.3-11.86,1.16l-4.18-.1-2-.19c-3.08-.81-7.43-1.15-10.1-4.27.21-2.32,3.66-2.6,5.46-2.56.54.74,1.42,1.49,2.72,1.66l11.6,1.58c.97.13,2.36.59,3.01-1.02.77-1.92-1.47-4.96-3.78-5.29-1.86-.26-3.79-.76-5.13-.49-.01-1.11-1.4-1.67-2.82-1.77-9.23-.62-18.07-2.2-26.15-6.47-1.93-1.02-3.91-2.25-4.09-4.21.85-2.8,2.07.79,4.62,1.61,8.79,2.81,17.32,5.09,27.1,5.81-1.69-1.61-10.33-10.3-12.64-10.93-.36-1.11-1.36-1.81-2.87-2.4-12.84-5.02-24.64-10.72-32.59-22.55-1.25-1.85-2.13-3.69-2.24-5.56,1.07.44,3.04,1,3.68,2.14,3.26,5.87,8.84,9.74,14.79,13.37,4.32,2.64,8.33,5.17,13.31,6.69,2.96.9,5.43,2.98,9.1,2.5-4.8-5.08-8.99-9.96-11.4-16.05-.31-.77-1-1.58-1.94-2.23-6.54-4.54-12.48-9.41-17.96-15.17-5.06-5.32-14.33-17.69-11.7-24.5.59.1,1.31-.08,1.88.15-1.26,8.95,9.31,19.15,15.82,25.38,2.38,2.28,16.95,13.63,18.3,10.85,1.01-2.07-4.19-9.89-4.98-14.31.89-.27.6-1.09-.46-1.4-.86-2.31-3.42-3.22-4.57-4.57-6.42-9.43-15.99-21.96-16.1-34.87.02-.74-.07-1.55-.72-1.16.22-1.81.25-3.87.77-5.67.62.08,1.78.63,1.84,1.77.22,4.93,1.86,9.11,3.53,13.59,2.81,7.54,6.9,14,12.25,19.94,2.09,2.32,8.7,8.92,10.51,8.56ZM74.28,120.02c0-.36-.29-.65-.65-.65s-.65.29-.65.65.29.65.65.65.65-.29.65-.65Z" fill="#d49438"/><path d="M58.23,102.77c.82-.19,1.69-.22,2.5,0,2.41,6.09,6.59,10.97,11.4,16.05-3.67.48-6.14-1.6-9.1-2.5-4.98-1.52-9-4.05-13.31-6.69-5.95-3.63-11.52-7.5-14.79-13.37,1.5-1.79,6.35-.27,9.24,1.73,2.47,1.71,5.59,1.59,8.33,2.7,2.1.84,3.69,2.58,5.73,2.09Z" fill="#f3be3f"/><path d="M68.94,124.61c2.31.62,10.95,9.31,12.64,10.93-9.79-.72-18.32-3-27.1-5.81-2.55-.81-3.78-4.41-4.62-1.61-6.87-3.1,19.11-3.78,19.09-3.51Z" fill="#efba47"/><path d="M82.92,140.57c1.34-.27,3.28.23,5.13.49,2.31.33,4.55,3.37,3.78,5.29-.64,1.61-2.04,1.15-3.01,1.02l-11.6-1.58c-1.31-.18-2.18-.92-2.72-1.66,2.44-1.76,5.44-2.97,8.42-3.56Z" fill="#efba47"/><path d="M54.08,77.87c.51.54.63,1.54,1.06,2.15-3.3-2.02-6.06-5.48-11.94-9.1-7.72-4.76-8.13-8.31-12.2-9.92-.57-.23-1.29-.05-1.88-.15.2-.52-.34-2.32.65-2.08,5.36,1.3,19.89,15.51,24.31,19.1Z" fill="#f1cc79"/><path d="M97.18,150.09c-.8,1.43-8.05,4.19-10.29,5.96-1.2-1.31-1.15-3.12-1.57-4.8,5.43.13,7.49-1.51,11.86-1.16Z" fill="#6f3608"/><path d="M58.23,102.77c-2.04.49-3.63-1.25-5.73-2.09-2.75-1.1-5.87-.99-8.33-2.7-2.89-2-7.74-3.53-9.24-1.73-.64-1.15-2.61-1.7-3.68-2.14-.02-.32-.24-.94,0-1.22,1.65-2.03,24.88,7.93,26.99,9.89Z" fill="#eab957"/><path d="M105.38,160.99c-.94-.81-2.76-.91-3.21-2.07,2.59-.37,4.96-2.72,8.16-2.05-1.32,2.18-3.31,3.21-4.95,4.12Z" fill="#6f3608"/><path d="M60.15,82.92c-1.77-.82-3.37-1.89-5.02-2.9-.43-.62-.55-1.61-1.06-2.15.37-.28.72-.59,1.05-.92,1.15,1.35,3.71,2.25,4.57,4.57,1.05.31,1.35,1.13.46,1.4Z" fill="#6f3608"/><path d="M90.23,157.87l-1.06-.17c-1.25.12-1.62-.93-2.29-1.66,2.24-1.77,9.49-4.53,10.29-5.96,1.33.11,7.26.24,6.99,2.19-.47,3.46-16.77-.09-13.94,5.6Z" fill="#efba47"/><path d="M81.14,151.15c.13.47-.21.83-.58.88-.78.12-1.11-.71-1.42-1.07l2,.19Z" fill="#6f3608"/><path d="M89.17,157.7l1.06.17c-.06,1.5-1.31,1.27-1.06-.17Z" fill="#6f3608"/><path d="M129.2,176.64c-.31-.06-.74.1-1.04.19-5.31,1.59-10.87,1.89-16.42-.28-1.01-.39-2.38-2.85-1.35-3.26,5.79-.51,11.11.18,17.02-1.24,1.39.31,1.79,3.37,1.8,4.59Z" fill="#52ae90"/><path d="M136.9,130.19c-.16,1.94,2.79,1.99,3.71,3.51,3.91,6.45,3.25,15.12.25,21.87-1.09,2.45-3.12,3.7-4.58,5.54-5.53,6.96-8.55,4.82-11.17,8.04-1.73.42-2.94,1.12-4.96,1.04.34-1.44.84-2.9,1.78-4.46.64-.98.95-1.86,1.05-2.71,2.23-.55,4.06-3.18,5.13-4.88.7-1.13,2.17-1.84,1.89-3.6-.22-1.35-1.61-1.88-2.94-2.3-.11-1.54-4.89-.55-5.92-.33-.95-1.73-3.39-.77-5-.59-1.02-.55-4.11.12-3.79-2.1l4.44-3.38c.14-.76-1.13-.72-1.58-.79-.69-2.02-7.64.08-14.55-3.02-7.64-2.05,2.92-1.07,3.38-4.22.1-.67,1.02-.78,1.08-1.66-6.46-.49-22.59-3.65-24.49-10.54,1.73-2.69,10.62-.84,13.36-2.45-4.52-2.78-9.05-4.01-13.52-6.36-9-4.74-14.77-15.84-9.59-14.48l12.39,3.25c.85.22,1.47.07,1.61-.62.53-2.53-5.4-3.94-10.26-12.39-.32-.56-1.49-.61-1.42-1.11.42-3.04.8-1.64,2.98-3.6,3.9.03,22.31,18.78,24.36,21.56,6.64,8.96,7.97,17.53,18.32,26.91,4.89,4.43,12.58,11.71,19.15,6.67,3.72-.43-1.52-3.06-5.14-5.71-18.74-13.68-19.22-27.89-29.25-37.68-8.51-8.31-24.91-16.89-34.22-26.72.26,2.89,2.45,3.8,3.83,5.95-2.72.27-4.31-.06-6.03.29-1.81.37-8.42-6.24-10.51-8.56-5.35-5.94-9.44-12.4-12.25-19.94-1.67-4.48-3.3-8.66-3.53-13.59-.05-1.14-1.21-1.69-1.84-1.77l.16-1.23c.14-1.04,1.13-1.61,1.91-2.14,1.47-.06,2.65,1.34,3.31,2.93,2.81,6.77,8.96,16.1,13.92,20.99l5.52,5.44c4.78,4.7,9.43,9.09,15.05,12.85l15.56,10.4c23.68,15.83,17.63,20.49,30.88,35.29,2.5,2.8,7.97,10.27,11.5,10.4Z" fill="#f2bd41"/><path d="M133.3,124.95c.94,1.61,2.45,3.15,3.95,4.36l-.35.88c-3.53-.12-8.99-7.6-11.5-10.4-13.25-14.8-7.2-19.46-30.88-35.29l-15.56-10.4c-5.62-3.76-10.28-8.15-15.05-12.85l-5.52-5.44c-4.96-4.89-11.12-14.22-13.92-20.99-.66-1.59-1.84-3-3.31-2.93.82-5.86,8.92,7.9,10.69,10.51,11.89,17.45,30.77,32.4,49.07,42.7,6.71,3.78,11.89,9.09,15.4,15.91,3.79,7.38,10.01,20.9,16.98,23.95Z" fill="#f1cc79"/><path d="M39.09,35.25c-.87-.36-.92-1.42.16-1.23l-.16,1.23Z" fill="#653511"/><path d="M91.25,161.16c3.67,1.23,7.68-.23,10.33,1.54,2.12,1.41,3.36,3.68,6.59,3.36.79-.08,1.82.89,1.8,1.42-.09,2.17-3.76,3.03-2.8,10.37-5.99-.18-11.72-2.66-15.21-7.52-2.01-2.79-.86-6.3-.71-9.16Z" fill="#368e7a"/><path d="M128.11,158.14c-1.06,1.71-2.9,4.33-5.13,4.88-3.36.83-6.62,1.97-9.9,3.25-2.82-1.57-8.66-1.57-7.73-4.31,3.8.95,7.63,1.65,11.82.13l10.93-3.96Z" fill="#6f3608"/><path d="M122.98,163.02c-.1.84-.41,1.73-1.05,2.71-.95,1.56-1.44,3.02-1.78,4.46-1.9-.07-4.6,1.92-6.75-.65-.73-.87-.42-2.42-.31-3.26,3.27-1.28,6.53-2.42,9.9-3.25Z" fill="#cc903e"/><path d="M145.36,140.02c.17,9.3-2.5,16.66-9.81,23.35-3.3,3.03-6.52,4.82-10.44,5.77,2.62-3.22,5.65-1.07,11.17-8.04,1.46-1.84,3.49-3.09,4.58-5.54,3-6.75,3.65-15.42-.25-21.87-.92-1.52-3.87-1.57-3.71-3.51l.35-.88c1.46,1.18,3.31,2.07,4.79,3.77,2.3,2.64,1.36,6.99,3.33,6.95Z" fill="#eab957"/><path d="M138.02,142.99c-.4-1.64-2.07-2.32-3.78-3.2-9.53-4.91-16.65-12.69-21.89-21.92-8.3-14.62-7.59-14.34-20.9-24.21-5.43-4.02-13.7-10.19-19.39-11.44-11.84-2.6,9.61,21.49,12.82,22.73-.15.69-.76.84-1.61.62l-12.39-3.25c-5.18-1.36.59,9.74,9.59,14.48,4.48,2.36,9,3.58,13.52,6.36-2.73,1.61-11.63-.24-13.36,2.45,1.9,6.89,18.03,10.05,24.49,10.54-.06.88-.98.99-1.08,1.66-2.37.73-4.74,1.5-7.36,2.9,3.38,6.36,13.6,3.75,18.53,4.33.45.07,1.72.03,1.58.79l-4.44,3.38c-.32,2.22,2.77,1.55,3.79,2.1,1.57.84,3.16.98,5,.59,1.04-.22,5.81-1.21,5.92.33-5.27,1.59-11.74,4.62-17.69-.45-.9-.77-.66-3.57-2.23-3.7-4.53-.37-8.98-.5-12.13-3.81-1.9-2-2.37-4.42.2-6.89-5.09-.6-19.25-6.18-17.97-13.31.35-1.93,2.86-1.73,4.34-3.34-5.78-2.16-20.14-15.83-14.39-20.62,2.07-1.73,4.41.06,7.41-.4-4.96-6.57-11.18-12.92-7.38-20.6,1.72-.35,3.31-.02,6.03-.29-1.38-2.14-3.57-3.06-3.83-5.95,9.3,9.83,25.7,18.42,34.22,26.72,10.03,9.79,10.5,24,29.25,37.68,3.62,2.65,8.86,5.28,5.14,5.71Z" fill="#6f3608"/><path d="M55.14,80.02c1.64,1.01,3.24,2.08,5.02,2.9.79,4.42,5.99,12.24,4.98,14.31-1.35,2.78-15.92-8.57-18.3-10.85-6.51-6.23-17.09-16.44-15.82-25.38,4.06,1.62,4.47,5.17,12.2,9.92,5.87,3.62,8.63,7.07,11.94,9.1Z" fill="#f3be3f"/><circle cx="73.64" cy="120.02" r=".65" fill="#f3be3f"/><path d="M138.02,142.99c-6.57,5.04-14.26-2.25-19.15-6.67-10.35-9.37-11.69-17.94-18.32-26.91-2.05-2.77-20.46-21.52-24.36-21.56-1.01-3.4-5.89-2.73-4.13-5.63,5.69,1.25,13.96,7.42,19.39,11.44,13.31,9.86,12.61,9.59,20.9,24.21,5.24,9.23,12.35,17.01,21.89,21.92,1.7.88,3.38,1.56,3.78,3.2Z" fill="#d49438"/><path d="M72.07,82.22c-1.76,2.9,3.12,2.23,4.13,5.63-2.18,1.96-2.56.56-2.98,3.6-.07.51,1.09.55,1.42,1.11,4.85,8.45,10.79,9.87,10.26,12.39-3.2-1.24-24.66-25.34-12.82-22.73Z" fill="#eab957"/><path d="M104.04,137.82c-.46,3.15-11.03,2.16-3.38,4.22,6.91,3.1,13.87,1,14.55,3.02-4.93-.58-15.15,2.03-18.53-4.33,2.63-1.4,4.99-2.18,7.36-2.9Z" fill="#eab957"/><path d="M121.14,151.91c-1.84.39-3.43.25-5-.59,1.61-.18,4.05-1.14,5,.59Z" fill="#cc903e"/><path d="M134.14,107.02c-.49-.16-.81-.56-1.16-.92.73-.31,1.1.29,1.16.92Z" fill="#653511"/><path d="M180.37,192.49c-3.89-6.58-5.56-13.35-6.18-20.44s3.67-12.36,10.38-13.4c5.17-.8,10.14,2.59,12.09,6.4,5.69,11.12-6.52,19.84-16.28,27.44ZM181.36,189.1c7.69-6.31,17.47-13.22,14.42-22.04-.76-2.18-2.98-4.93-5.98-5.85-3.8-1.17-7.14-.54-9.98,1.75-5.87,4.74-3.54,11.49-2.03,17.21.84,3.17,1.26,6.14,3.57,8.92Z" fill="#623920"/><path d="M160.11,213.65c-.15.72-8.6.8-7.91-1.2.45-1.3,3.57.56,7.91,1.2Z" fill="#cc903e"/><path d="M163.14,130.66c-1.04.11-1.81-.63-2-1.64.84.29,1.69.77,2,1.64Z" fill="#eab957"/><path d="M192.24,109.01c0,6.84-5.55,12.39-12.39,12.39s-12.39-5.55-12.39-12.39,5.55-12.39,12.39-12.39,12.39,5.55,12.39,12.39ZM173.2,106.05c-1.97,3.05-.77,7.1,1.88,9.54,2.41,2.21,7.43,3.45,9.96.23,2.96-1.57,3.56-5.77,2.5-8.88s-4.08-5.77-8.28-5.09c-1.11-1.04-2.71-.72-4.08-.07-1.25.59-1.79,2.09-1.98,4.28Z" fill="#48b5a0"/><path d="M224.14,123.44c-3.85,1.48-7.14.05-9.86-2.06-5.1-3.96-5.27-14.71,1.14-18.86,3.73-2.41,8.51-2.38,11.94.38s4.47,7.02,3.92,11.51c-.4,3.27-2.77,7.35-7.14,9.03ZM215.14,110.08c-1.74,2.97-.14,8.09,3.62,9.98,1.81.91,3.78.54,6.39-.46-.64-.54-1.49-.42-2.1-1.43,3.14.14,4.61-1.52,4.91-4.28.25-2.3-.21-4.17-1.5-5.71-1.4-1.67-3.27-2.86-6.39-2-.95.26-2.34-.73-3.78-.01-1.29.64-1.3,2.14-1.13,3.91Z" fill="#48b5a0"/><path d="M181.36,189.1c-2.31-2.78-2.73-5.75-3.57-8.92-1.51-5.72-3.84-12.47,2.03-17.21,2.84-2.3,6.18-2.92,9.98-1.75,3,.92,5.22,3.67,5.98,5.85,3.05,8.81-6.73,15.73-14.42,22.04ZM191.52,173.27c.99-3.16-.35-5.85-1.95-7.15-2.01-1.64-4.85-1.4-6.89.05-1.74,1.23-3.07,3.92-1.9,6.44.97,2.09,3.18,3.4,4.89,3.37,2.01-.03,5.07-.25,5.85-2.72Z" fill="#944caa"/><path d="M185.04,115.81c-.27-.37-.19-.89-.37-1.74-.17-.8-1.13-.54-1.47-.29-.41.3-.64,1.07-.38,1.44.35.51,1.16.38,2.23.59-2.53,3.22-7.55,1.98-9.96-.23-2.66-2.44-3.85-6.48-1.88-9.54,1.29,1.18,3.31,2.52,5.25,1.2,1.94-1.32,1.51-3.77.81-5.41,4.19-.68,7.21,1.96,8.28,5.09s.46,7.31-2.5,8.88Z" fill="#1b6056"/><path d="M179.26,101.84c.7,1.64,1.12,4.09-.81,5.41-1.93,1.32-3.96-.02-5.25-1.2.2-2.2.74-3.7,1.98-4.28,1.37-.64,2.97-.96,4.08.07Z" fill="#f6f2eb"/><path d="M215.14,110.08c1.15.62,2.71,2.05,4.32,1.17,2.07-1.13,1.18-3.53.6-5.07,3.12-.85,4.99.34,6.39,2,1.3,1.54,1.75,3.41,1.5,5.71-.3,2.75-1.77,4.42-4.91,4.28.62,1.02,1.46.89,2.1,1.43-2.61,1-4.58,1.37-6.39.46-3.75-1.89-5.36-7.01-3.62-9.98Z" fill="#1b6056"/><path d="M220.06,106.18c.58,1.55,1.48,3.94-.6,5.07-1.61.88-3.16-.56-4.32-1.17-.16-1.78-.16-3.27,1.13-3.91,1.44-.72,2.83.27,3.78.01Z" fill="#f5eee6"/><path d="M191.52,173.27c-.78,2.47-3.84,2.69-5.85,2.72-1.71.02-3.93-1.28-4.89-3.37-1.16-2.52.17-5.21,1.9-6.44,2.04-1.45,4.88-1.68,6.89-.05,1.59,1.3,2.94,3.98,1.95,7.15ZM190.24,170.55c0-2.21-1.79-3.99-3.99-3.99s-3.99,1.79-3.99,3.99,1.79,3.99,3.99,3.99,3.99-1.79,3.99-3.99Z" fill="#693f25"/><path d="M185.04,115.81c-1.07-.21-1.87-.08-2.23-.59-.26-.37-.03-1.14.38-1.44.35-.25,1.3-.51,1.47.29.18.85.1,1.37.37,1.74Z" fill="#c5d4d4"/><circle cx="186.24" cy="170.55" r="3.99" fill="#f5eee6"/></svg>