<?xml version="1.0" encoding="UTF-8"?><svg id="Layer_1" xmlns="http://www.w3.org/2000/svg" viewBox="0 0 255.12 255.12"><path d="M161.88,168.88c3.05,3.06,2.39,6.97,6.12,7.14.48,3.53,3.76,22.14,6.71,23.05l.13,1.99-2.81,16.06c-4.86.13-9.85.86-15.23.39-3.68-.32-7.2.52-10.93.5l-43.95-.22c-5.73-.03-10.98-.07-16.12-.6l-1.98-12.17c-.37-2.28-.35-4.3-.97-6.09,9.13-3.96,22.8-16.97,27.24-26.77,2.62-1.19,6.22.26,8.98.54,14.75,1.48,28.95-.34,42.82-3.81Z" fill="#f7efd8"/><path d="M158.99,163.83c.96,1.46,1.67,3.08,2.9,4.34l-.02.71c-13.87,3.47-28.07,5.3-42.82,3.81-2.76-.28-6.36-1.73-8.98-.54-4.44,9.8-18.11,22.8-27.24,26.77-.17-.48-.12-1.01-.08-1.5,2.62-2.56,1.77-7.58,4.22-10.35,4.58-5.17,14.97-13.21,16.94-19.18.97-.75,1.96-1.77,3.24-3.29,17.53,3.4,34.72,2.1,51.83-.77Z" fill="#dec6a3"/><path d="M135.89,54.21c.11.56-.24.79-.58.86-.65.14-2.1-.24-1.51-1.06l2.09.2Z" fill="#693f25"/><path d="M167.99,176.02c-3.72-.17-3.07-4.08-6.12-7.14l.02-.71c2.4.75,4.56-.33,6.17-2.14,1.05,3.18-.5,6.83-.07,9.99Z" fill="#eab957"/><path d="M182.92,205.12c-.5.46-.46.89-1.41.86-8.05-13.69-10.96-21.72-10.53-38.71.68-2.55.97-4.84.62-7.02l.31-1.01c1.68.34,6.73-5.07,8.68-3.65-4.44,19.76.46,30.99,2.33,49.53Z" fill="#52ae90"/><path d="M182.89,169.06c0-.39-.32-11.14,2.11-8.47,4.82,5.29,13.1,17.45,15.59,24.95,4.42,13.32,4.03,15.92,3.36,28.73.72-.23,1.44-.48,2.15-.76,2.34-21.22-5.23-42.19-20.79-56.85-.58-.55-1.36-.55-1.69-.46-.3.08-.5.52-.64.87-.21.64.16,2.11-.83,2.1.36,1.3.08,2.54-.13,3.83-.26,1.67-.13,3.39-.13,5.07v1h1Z" fill="#f1cc79"/><path d="M82.39,217.1s.03-.01.04-.01c1.02-.33,2.02-.25,2.92.1.15-.02.3-.02.45,0l-1.98-12.17c-.37-2.28-.35-4.3-.97-6.09l-6.2,9.81c-2.06,3.26-5.01,5.45-8.77,7.62.05.21.14.39.25.55,3.91-.09,8.2-.49,12.03.38.74-.16,1.49-.21,2.23-.17Z" fill="#eab957"/><path d="M184.14,198.06c2.52,4.86,1.76,10.64,2.57,16l.05,1c-.12,1.34.59,2.46,1.66,2.51,1.73.09,2.75-.52,2.91-2.47.15-1.85-.33-4.36,1.44-5.23,2.37,1.01.15,5.59,1.72,7.01.92-.27,1.84-.52,2.76-.76-.39-.04-.78-.1-1.18-.2-1.21-2.65.21-5.67-1.11-7.9-.82-1.39-3.37-.35-4.23.37-.97.81-.58,2.3-1.93,3.62l-3.51-20.54c-1.36-7.95-2.44-15.08-2.39-22.42h-1v11l.83,6.09c.58,4.22,1.78,8.09,1.41,11.91Z" fill="#eab957"/><path d="M171.61,160.24c.34,2.18.05,4.47-.62,7.02-.43,16.99,2.48,25.03,10.53,38.71-1.22-.03-2.42-.17-3.45-.92-.13-.25-.21-.73-.22-1,.49-2.31-.94-4.3-3.14-4.99-2.95-.92-6.23-19.52-6.71-23.05-.43-3.16,1.12-6.81.07-9.99.61-.3.37-1.54.78-1.85,1.38-1.06,1.01-3.3,2.77-3.94Z" fill="#493d24"/><path d="M177.85,204.06c0,.27.08.75.22,1l5.02,6.64c1.06,1.39.82,4.22.11,5.44-3.63,1.77-7.9-.11-11.17-.02l2.81-16.06c1.27.77,1.48,2.58,3.02,3Z" fill="#eab957"/><path d="M179.89,152.28l.86,2.07c.38.92.41,1.87,1.11.99.01.57-.05,1.15.03,1.72.1.69.07,1.42.26,2.1.36,1.3.08,2.54-.13,3.83-1.34-1.49-1.83,5.96-.13,5.07v5c-2.9.25.55,10.98,0,7l.83,6.09c.58,4.22,1.78,8.09,1.41,11.91-.81,2.32.84,5.17-1.22,7.06-1.87-18.54-6.76-29.77-2.33-49.53-1.95-1.42-7,3.99-8.68,3.65,1.85-3.22,6.08-3.66,6.17-6.06.44-.48,1.24-.61,1.8-.89Z" fill="#493d24"/><path d="M184.97,151.13l-.07.97c-1.58.51-1.85,2.3-3.04,3.23-.7.88-.73-.06-1.11-.99l-.86-2.07c.94-2.25,3.61-2.54,5.31-3.82.39-.65.72-.23.61.45-.81.88-.79,1.59-.84,2.21Z" fill="#6f3608"/><path d="M182.15,159.15c-.19-.67-.16-1.41-.26-2.1h1.09c-.21.63.16,2.1-.83,2.1Z" fill="#6f3608"/><path d="M186.76,215.06c-.6-.23-.62-.7-.05-1l.05,1Z" fill="#6f3608"/><path d="M133.8,54.02c-.59.82.86,1.2,1.51,1.06.34-.07.69-.31.58-.86,9.92.93,19.42,3.74,29.04,7.44,6.97-1.17,14.34-5.11,19.99-9.41,7.28-5.54,11.69-15.42,14.47-15.04,6.59.89,3.11,18.45-.48,23.54-1.35.45-1.17,1.12.1,1.51,1.34-.8,2.73-.88,3.5-.2,4.33,3.81-6.16,16.95-13.67,19.36,15.65,19.53,18.79,50.51-1.49,68.23-.89.78-1.43,1.61-2.37,1.49.05-.61.03-1.33.84-2.21.11-.68-.22-1.1-.61-.45,8.4-10.66,6.51-5.99,10.72-17.52,4.71-12.89,2.73-27.21-4.25-39.56-1.17-2.07-2.02-4.15-3.72-5.33-.17-.86-.43-2.02-1.14-2.44s-2.23-1.05-2.96-.6c-.65-.42-.76-1.23-.81-1.94,5.4-3.06,11.42-4.51,14.81-10.81.67-1.25,1.95-2.28,2.04-4.27-2.53-.51-8.23,4.2-9.42,2.28-1.37-2.2,7.15-6.56,8.68-17.19.42-2.96,2.26-6.24.16-10.64-17.83,26.16-31.39,19.41-50.78,33.03-10.4,7.31-13.48,13.66-18.63,24.11-.91-.61-2.19-1.22-2.61-2.78-.65-2.42-2.55-3.86-3.41-5.62-7.03-14.41-21.71-21.41-36.88-26.33-11.95-3.88-21.01-11.42-27.98-22.54-2.37,3.27.54,17.74,2.84,17.93.91,4.58,7.2,8.61,6.29,10-1.31,1.99-6.58-1.75-8.5-2.26-1.68.59-.31,2.43.24,3.28,1.04,1.62,1.81,3.7,3.81,5.08,2.94,2.02,5.82,4.5,8.96,5.57-1.57.79-1.97,2.39-1.68,4.01.15.85-.79,1.96-1.4,2.88-9.69,14.43-13.9,31.12-6.72,47.53,2.34-3.14,2.98-6.75,3.06-10.2.59.41.86-.36.87-1.11l.16-8.9c.02-1.03,1.61-1.08,2.13-1.1-.55,10.06,1.39,15.18-4.25,25.09-7.69,13.52-13.68,20.59-12.93,36.12.05,1,.15,2.01.26,3.01,1,8.97,3.82,11.48,8.66,17.89-1.28-.52-2.62-.91-3.94-1.3-.32-.09-.71.08-1.04.02.06-1.55-1.12-2.06-2.01-2.83-7.4-12.65-6.66-27.38.48-40.64,2.26-4.2,4.87-7.78,6.92-12.12-9.3-18.42-4.25-40.08,8.02-56.51-6.45-3.9-12.13-8.37-14.2-15.68-.43-1.51-.22-3.35.89-4.16.9-.65,2.35-.16,3.98.02-4.04-6.76-6.12-14.28-4.16-21.98.41-1.61,2.18-3.63,3.87-2.52,2.77,1.82,4.39,4.89,6.43,7.45,6.82,8.55,15.99,13.91,26.88,16.52,13.19-5.72,27.04-8.69,40.86-7.39ZM122.89,57.08c-8.61.32-17.37,2.08-25.24,5.92,3.07,2.48,6.46,2.88,9,4.19,7.95,5.49,14.61,11.98,20.09,19.95.88,1.28.78,3.26,2.5,4.71,4.19-7.2,6.09-10.9,11.8-16.73.88-.37,11.33-8.03,13.76-9.04l6.19-2.58c-8.56-3.91-17.78-5.99-27.11-6.43.11-1.07-.95-1.32-1-.13-2,.03-4-.08-6,0-.13-1.14-1.53-.95-2.48-.93-.61.01-1.67.1-1.52,1.08Z" fill="#653511"/><path d="M124.83,99.99c.67,2.47,2.6,4.36,4.4,7.34,1.75-4.36,6.75-8.14,6.84-10.14,2.01-.52,3.26-2.3,5.12-3.76,13.45-10.59,26.33-8.47,41.84-12.37.05.72.16,1.53.81,1.94-2.42,1.47-5.09,1.79-8.31,2.81,1.33,2.24,3.09,2.7,4.66,3.34l1.78,2.85c-.52.5-.91,1.11-1.12,1.8-9.87-7.04-16.26-9.37-28.6-3.42-15.04,7.25-8.05,5.52-15.67,11.33-1.36,1.04-1.31,2.22-1.7,3.33-2.9.7-3.1,6.39-5.53,6.66-.98.11-1.61-.86-2.3-1.76-3.31-6.64-7.4-12.4-14.26-15.98,1.63,5.16,2.59,9.22,1.66,14.07-.09,1.6-.63,3.03-.13,4.54,8.37,1.51,16.48.46,24.56.46-.19.78.02,1.62.8,1.89.74.25,1.51.19,2.2.11l-.06,1.18c-8.19-.31-10.88,1.49-22.29-.29l1,8.74c.17.42,1.3.17,1.71.11.66-.09,1.8.42,2.53.27-2.46,2.45-5.1,5.88-4.88,10.07,15.5,8.57,5.49,1.62,19.34.63,1.85.53,3.76,2.13,3.33,4.18-.05.23.04.49.01.73-.49-.47-.97-.56-1.4-.65-1.14-.23-3.55,4.58-4.39,5.95-.44.08-.66.77-.95.98-.92.35-1.66,1.02-1.92,1.99-.29.04-.58.12-.88.12-4.02.02-3.38,2.64-10.19-2.85-.88-2.12-2.72-3.82-4.21-6.58-2.9,7.67-5.45,14.07-9.63,21.95,20.15,4.27,46.71,2.32,64.93-6.52,1.56-.76,2.69-1.85,4.13-1.9-.09,2.4-4.31,2.84-6.17,6.06l-.31,1.01c-1.76.64-1.39,2.88-2.77,3.94v-3.16c-3.81-.31-6.81,2.31-9.84,2.82-17.11,2.86-34.31,4.17-51.83.77-1.28,1.52-2.27,2.54-3.24,3.29-.53-.37-1.14-.66-1.8-.66.39-1.02.73-2.23,1.57-3.45,7.66-11.16,12.27-23.67,13.94-37.15.18-1.47-.3-2.6-.55-3.55-.06-1.25.57-4.03-1.41-4.83-4.71,1.21-9.28,12.54-13.37,15.19l1.87-7.23c5.58-2.9,10.48-25.01,5.74-29.55-2.93-.24-5.28,3.21-6.08,5.34-1.26.33-1.57,2.17-2.15,2.98-3.92,3.77-9.95,13.89-12.93,18.86-.37,0-.97.34-2.2-.04,1.46-4.9,4.68-6.24,4.29-10.75,3.95.59,3.8-13.29,3.52-16.45-.12-1.33-1.17-1.75-1.57-2.35-3.58-5.39-16,26.07-18.07,27.41-1.7-3.18.62-5.39.74-7.96.12-2.42-1.81-4.4-4.16-4.71l-2.21,4.03c-.53.02-2.11.08-2.13,1.1l-.16,8.9c-.01.74-.28,1.52-.87,1.11.09-4.16-.2-8.42.26-13.07,1.04-10.68,7.13-20.03,16.82-25.01-2.68-1.08-10.92-4.54-12.01-2.13-.28-1.61.12-3.22,1.68-4.01,17.6,6.02,32.8.97,49.36,17.99.99,1.02,1.69,1.95,2.82,2.09ZM75.19,97.15c-1.76,2.71-4.9,5.02-4.67,8.8,3-.17,4.86,1.01,6.91,2.93,1.16-1.59,3.42-4.15,2.85-6.49-.39-1.59-3.17-2.36-3.12-4.13,1.7.16,3.4,1.08,5.52.78,2.34-2.8,4.05-6.07,6.93-8.09s6.27.04,7.31,3.08c1.01,2.98.7,5.53,1.14,9.13,2.47-1.55,3.31-4.29,4.74-6.14,2.32-1.36,4.01-3.72,7.82-4.48-11.28-6.51-26.18-9.66-35.41,4.59ZM129.7,146.39c3.7-.81,5.83-4.19,7.48-7.08-3.76-.83-5.05,2.3-7.6,3.12s-4.34-1.57-6.62-2.22c1.02,2.5,3.35,6.92,6.74,6.19Z" fill="#6f3608"/><path d="M117.08,123.08c.25.94.73,2.07.55,3.55-1.67,13.49-6.28,25.99-13.94,37.15-.84,1.22-1.17,2.42-1.57,3.45-3.96,3.18-6.61,7.72-10.58,11.49-6.77,6.44-14.48,11.17-22.59,14.77,4.85,1.52-.37,7.03-1.72,8.62-.1-4.65-2.21-5.28-6.42-6.99-4.84-6.41-7.66-8.91-8.66-17.89,1.95.34,3.13,2.43,5.18,3.34,18.24,8.14,38.93-15.39,47.42-29.47,5.91-9.81,9.25-20.24,10.29-31.06,1.39,1.4,1.02,2.74,2.04,3.02Z" fill="#d49438"/><path d="M55.83,193.85c.33.06.72-.12,1.04-.02.61,1.45,2.23,2.39,3.86,3.21,7.9,3.98-.37,10.1,3.05,19.78-2.04.58-4.19,1.4-5.82.3-3.64-2.46-2.31-18.99-2.14-23.27Z" fill="#52ae90"/><path d="M79.68,198.97c-.34.98-1.39,1.32-1.02,2.09-3.13,4.12-6.21,9.76-11.67,12.1-3.94-5.88,2.31-4.45,6.95-18.12.56-1.64,6.8-5.35,7.77-3.35.61,1.27-1.1,4.6-2.02,7.29Z" fill="#52ae90"/><path d="M177.85,204.06c-1.54-.42-1.75-2.23-3.02-3l-.13-1.99c2.2.68,3.63,2.67,3.14,4.99Z" fill="#5e3110"/><path d="M185.28,191.48l3.51,20.54c1.35-1.31.96-2.81,1.93-3.62.86-.72,3.4-1.76,4.23-.37,1.32,2.22-.1,5.25,1.11,7.9.4.1.79.16,1.18.2,2.24-.58,4.5-1.14,6.7-1.85.67-12.8,1.06-15.4-3.36-28.73-2.49-7.5-10.77-19.66-15.59-24.95-2.43-2.67-2.11,8.08-2.11,8.47-.05,7.34,1.03,14.47,2.39,22.42Z" fill="#f3be3f"/><path d="M181.89,168.06c-1.69.88-1.21-6.57.13-5.07-.26,1.67-.13,3.39-.13,5.07Z" fill="#6f3608"/><path d="M181.89,180.06c.55,3.98-2.9-6.75,0-7v7Z" fill="#6f3608"/><path d="M168.84,164.18c-.41.31-.17,1.56-.78,1.85-1.61,1.81-3.77,2.89-6.17,2.14-1.23-1.26-1.94-2.88-2.9-4.34,3.03-.51,6.04-3.13,9.84-2.82v3.16Z" fill="#cc903e"/><path d="M195.92,130.95c-4.21,11.53-2.31,6.86-10.72,17.52-1.7,1.28-4.37,1.57-5.31,3.82-.56.28-1.37.41-1.8.89-1.45.06-2.58,1.15-4.13,1.9-18.22,8.85-44.78,10.79-64.93,6.52,4.18-7.88,6.73-14.28,9.63-21.95,1.49,2.75,3.32,4.45,4.21,6.58-.38-3.19-5.03,10.4-4.21,11,9.98,2.91,33.47-.19,43.81-2.81,11.06-2.8,25.24-10.25,30.68-21.05.71-1.42,1.41-2.55,2.78-2.41Z" fill="#d49438"/><path d="M90.71,97.8c.98,4.47-.31,10.42.11,15.26.39,4.52-2.83,5.86-4.29,10.75,1.23.38,1.83.04,2.2.04.33,0,1.2.17,1.63-.38,2.75-3.54,11.39-15.06,11.3-18.48.58-.81.89-2.64,2.15-2.98.94.13,2.01-2.09,2.95-1.82,4.23,1.2-.62,17.84-1.76,21.18-.63,1.83-.48,3.43-.85,4.85l-1.87,7.23c4.1-2.65,8.67-13.99,13.37-15.19,1.97.8,1.34,3.58,1.41,4.83-1.03-.29-.65-1.63-2.04-3.02-1.03,10.82-4.37,21.25-10.29,31.06-8.49,14.08-29.18,37.61-47.42,29.47-2.05-.91-3.23-3.01-5.18-3.34-.11-1-.21-2.01-.26-3.01.48.44.97.19,1.45-.14.58-.39.41-.98.36-1.94-.8-16.25,13.87-27.24,18.62-43.59.85-2.92,4-4.21,5.28-6.73l5.32-10.49c2.45-4.83,5.09-14.63,7.79-13.55Z" fill="#f3be3f"/><path d="M187.94,86.06c1.7,1.18,2.55,3.27,3.72,5.33,6.99,12.35,8.96,26.66,4.25,39.56-1.37-.14-2.07.99-2.78,2.41-5.44,10.8-19.62,18.25-30.68,21.05-10.34,2.62-33.83,5.73-43.81,2.81-.82-.59,3.83-14.19,4.21-11,.82,1.97.9,4.04,2.63,4.92,2.16,1.11,3.93,1.6,6.11.52,1.18-.58,1.72-1.64,1.45-2.59.29,0,.59-.08.88-.12,1.03-.15,1.74-.98,1.92-1.99.3-.21.51-.9.95-.98,1.95-.36,3.12-1.65,4.45-4.13,1.56,2.59,9.16,4.88,11.99,5.85,6.66,2.27,12.76,1.6,19.16-1.17,2.4-1.04,4.8-.88,6.67-3.43.88-1.2,2.7-1.66,2.75-3.28.03-.79.94-1.36,1.68-2.16,12.05-13.08,11.95-34.47-1.53-45.65l-1.78-2.85c2.11-1.83,5.04-2.62,7.75-3.11Z" fill="#f2bd41"/><path d="M199.13,51.08c-1.52,10.63-10.05,14.99-8.68,17.19,1.19,1.92,6.89-2.8,9.42-2.28-.09,1.99-1.37,3.02-2.04,4.27-1.22-.19-2.28.47-3.47,1.3-15.38,10.75-29.93,4.73-48.1,14.93-3.58,2.01-6.62,4.44-10.15,5.77-1.64-2.81,2.95-7.06,4.87-9.13,4.84-5.2,10.03-9.6,16.56-12.62,11.11-5.14,10.44-.34,29.81-13.03,7.46-4.89,8.8-13.8,11.25-11.66.49,2.24,0,3.81.51,5.26Z" fill="#f2bd41"/><path d="M122.88,90.17c.07.68.14,1.46-.18,2-.39.67-1.19.82-1.85.82-1.7-.94-3.02-2.63-4.78-4.07-8.72-7.11-22.34-8.89-33.4-10.45s-14.14-5.58-22.79-9.21c-.55-.85-1.92-2.69-.24-3.28,1.91.52,7.19,4.26,8.5,2.26.91-1.39-5.38-5.42-6.29-10-1.14-5.72-2.36-6.72-2.01-11.27,2.54.38,2.49,2.89,4,4.28,5.17,4.76,10.89,9.06,17.23,12.22,2.84,1.41,5.99,2.09,8.97,3.12l8.17,2.83c8.78,3.04,21.03,12.89,24.67,20.74Z" fill="#f2bd41"/><path d="M154.81,66.08c-2.43,1.01-12.89,8.67-13.76,9.04-3.51,1.48-8.84,9.16-10.92,13.05-1.61-.23-2.48-.67-3.38-1.04-5.48-7.97-12.14-14.46-20.09-19.95l-.74-2.39c7.98-3.5,24.97-4.35,33.98-2.88l13.02,2.12c1.45.24,2.04.92,1.9,2.04Z" fill="#f3be3f"/><path d="M65.9,124.14c-.08,3.44-.72,7.06-3.06,10.2-7.18-16.41-2.97-33.11,6.72-47.53.62-.92,1.55-2.03,1.4-2.88,1.09-2.42,9.33,1.04,12.01,2.13-9.69,4.98-15.78,14.33-16.82,25.01-.45,4.65-.17,8.91-.26,13.07Z" fill="#efba47"/><path d="M92.77,94.25c-1.26.77-2.21,2.01-2.06,3.54-2.7-1.08-5.34,8.72-7.79,13.55l-5.32,10.49c-1.28,2.53-4.43,3.82-5.28,6.73-4.75,16.35-19.42,27.34-18.62,43.59.05.96.22,1.55-.36,1.94-.48.32-.98.58-1.45.14-.75-15.52,5.24-22.6,12.93-36.12,5.63-9.91,3.69-15.02,4.25-25.09l2.21-4.03c2.35.31,4.28,2.29,4.16,4.71-.12,2.57-2.44,4.78-.74,7.96,2.07-1.35,14.5-32.8,18.07-27.41Z" fill="#f1cc79"/><path d="M122.89,57.08l4-.15c2-.07,4,.04,6,0,.33,0,.67.12,1,.13,9.33.44,18.55,2.52,27.11,6.43l-6.19,2.58c.14-1.12-.45-1.8-1.9-2.04l-13.02-2.12c-9.02-1.47-26-.62-33.98,2.88l.74,2.39c-2.54-1.31-5.93-1.71-9-4.19,7.87-3.84,16.63-5.6,25.24-5.92Z" fill="#f1cc79"/><path d="M120.85,92.99c2.34,5.3,2.14.23,3.98,7-1.13-.14-1.83-1.07-2.82-2.09-16.56-17.02-31.76-11.97-49.36-17.99-3.13-1.07-6.02-3.55-8.96-5.57-2-1.38-2.77-3.46-3.81-5.08,8.65,3.63,11.73,7.66,22.79,9.21s24.68,3.34,33.4,10.45c1.76,1.44,3.08,3.13,4.78,4.07Z" fill="#d49438"/><path d="M197.83,70.26c-3.39,6.3-9.41,7.74-14.81,10.81-15.5,3.9-28.38,1.77-41.84,12.37-1.86,1.46-3.11,3.24-5.12,3.76.06-1.35-.1-2.71.24-4.04,0-.23-.06-.69-.19-.9,3.53-1.33,6.56-3.76,10.15-5.77,18.17-10.2,32.73-4.17,48.1-14.93,1.19-.83,2.25-1.5,3.47-1.3Z" fill="#d49438"/><path d="M199.13,51.08c-.52-1.45-.03-3.02-.51-5.26-2.45-2.15-3.8,6.77-11.25,11.66-19.37,12.69-18.69,7.9-29.81,13.03-6.53,3.02-11.72,7.42-16.56,12.62-1.93,2.07-6.52,6.31-4.87,9.13.12.21.2.67.19.9-4.21-1.1-3.8,6.19-6.42,4.44,5.14-10.46,8.23-16.81,18.63-24.11,19.39-13.63,32.95-6.87,50.78-33.03,2.1,4.39.26,7.68-.16,10.64Z" fill="#f1cc79"/><path d="M123.88,89.19c-.27.38-.61.72-1,.98-3.64-7.85-15.89-17.7-24.67-20.74l-8.17-2.83c-2.98-1.03-6.13-1.71-8.97-3.12-6.34-3.15-12.06-7.46-17.23-12.22-1.51-1.39-1.46-3.91-4-4.28-.35,4.55.87,5.55,2.01,11.27-2.3-.19-5.2-14.66-2.84-17.93,6.97,11.12,16.03,18.66,27.98,22.54,15.17,4.92,29.86,11.93,36.88,26.33Z" fill="#f1cc79"/><path d="M129.89,97.59c2.62,1.75,2.21-5.54,6.42-4.44-.34,1.33-.18,2.69-.24,4.04-.09,1.99-5.09,5.78-6.84,10.14-1.8-2.98-3.72-4.86-4.4-7.34-1.85-6.77-1.64-1.7-3.98-7,.66,0,1.45-.14,1.85-.82.32-.55.24-1.33.18-2,.39-.27.72-.6,1-.98.86,1.76,2.76,3.2,3.41,5.62.42,1.56,1.69,2.17,2.61,2.78Z" fill="#eab957"/><path d="M187.94,86.06c-2.72.5-5.64,1.28-7.75,3.11-1.57-.64-3.33-1.11-4.66-3.34,3.22-1.02,5.89-1.34,8.31-2.81.73-.44,2.21.16,2.96.6s.97,1.58,1.14,2.44Z" fill="#cc903e"/><path d="M126.74,87.14c.9.37,1.76.81,3.38,1.04,2.09-3.9,7.41-11.57,10.92-13.05-5.71,5.83-7.61,9.53-11.8,16.73-1.72-1.46-1.62-3.44-2.5-4.71Z" fill="#eab957"/><path d="M126.89,56.94l-4,.15c-.15-.98.91-1.07,1.52-1.08.94-.02,2.35-.21,2.48.93Z" fill="#693f25"/><path d="M133.89,57.08c-.33-.02-.67-.14-1-.13.05-1.19,1.11-.93,1,.13Z" fill="#693f25"/><path d="M181.82,139.83c-1.41-.4-1.7,1.67-2.98,2.2-8.39,3.48-7.34,6.57-22.71,4.74-5.38-.64-10.05-2.77-13.56-6.08.02-.24-.06-.5-.01-.73l2.17-.1c.7-.03,1.55.3,2.51.85,11.84,6.75,26.38,4.3,35.25-6.26,8.8-10.47,9.27-25.82,1.24-36.38-.97-1.28-1.8-3.08-2.88-4.24.21-.69.6-1.3,1.12-1.8,13.48,11.19,13.58,32.58,1.53,45.65-.74.8-1.65,1.37-1.68,2.16Z" fill="#653511"/><path d="M134.89,105.06l-2.28,6.4c7.41,1.94,18.06-.8,25.43-4.2,2.59-1.2,5.62-1.38,7.77-3.31,1.36-1.23,2.48-2.56,4.18-1.67-3.6,3.92-21.14,10.79-26.08,10.79h-5c-8.08,0-16.19,1.04-24.56-.46-.49-1.51.05-2.94.13-4.54.93-4.85-.03-8.92-1.66-14.07,6.85,3.58,10.95,9.34,14.26,15.98.69.9,1.32,1.87,2.3,1.76,2.44-.28,2.64-5.97,5.53-6.66Z" fill="#efba47"/><path d="M139.24,135.78c-13.86.99-3.84,7.94-19.34-.63-.21-4.18,2.43-7.62,4.88-10.07l4.91-.97c5.47-1.08,10.2,6.18,9.55,11.67Z" fill="#d49438"/><path d="M180.82,98.31c.19,2.12-6.17,5.57-8.23,6.91-2.34,1.52-4.32,2.01-4.91,3.8-2.58.05-5.02,1.19-6.72,3.08-1.47-.16-2.9.67-4.47,1.5-2.62,1.37-5.45,1.38-7.87,2.43-1.62.7-3.89-.1-5.58.25-.38.08-.82-.02-1.21-.04l.06-1.18v-1c.39-.03.84.09,1.41-.04.37-.08.74-.41.59-.96,4.95,0,22.49-6.87,26.08-10.79.64-.11,1.51-.56,1.92-1.07,6.11-1.01,1.78-2.3,8.92-2.89Z" fill="#5e3110"/><path d="M141.83,116.23c.39.01.83.12,1.21.04v.82c-1,.31-1.47,1.97-2.56,2.46-2.69.44-3.96,1.92-3.76,4.27l-4.68-1.86c-3.55-1.42-7.97-.25-9.8,2.85-.41.05-1.53.3-1.71-.11l-1-8.74c11.41,1.78,14.11-.02,22.29.29Z" fill="#f7efd8"/><path d="M102.78,97.04c.3-2.16,2.95-3.07,3.21-4.47.32-1.72-8.53-4.28-9.97-2.87,4.21,5.03,1.55,8.49,6.76,7.35-1.43,1.85-2.27,4.6-4.74,6.14-.43-3.61-.13-6.15-1.14-9.13-1.03-3.05-4.36-5.15-7.31-3.08s-4.59,5.28-6.93,8.09c-2.12.3-3.82-.62-5.52-.78-.29-.54-1.38-.96-1.97-1.12,9.24-14.24,24.13-11.1,35.41-4.59-3.81.75-5.5,3.11-7.82,4.48Z" fill="#eab957"/><path d="M104.16,126.21c.37-1.42.22-3.02.85-4.85,1.14-3.34,5.99-19.98,1.76-21.18-.95-.27-2.01,1.95-2.95,1.82.8-2.13,3.15-5.58,6.08-5.34,4.74,4.54-.16,26.65-5.74,29.55Z" fill="#d49438"/><path d="M136.73,123.82c8.88,9.92,2.78,10.71,8.01,16.03l-2.17.1c.43-2.05-1.48-3.66-3.33-4.18.65-5.48-4.08-12.74-9.55-11.67l-4.91.97c-.73.14-1.87-.36-2.53-.27,1.83-3.1,6.25-4.26,9.8-2.85l4.68,1.86Z" fill="#5e3110"/><path d="M180.86,93.83c1.08,1.16,1.91,2.96,2.88,4.24l-2.92.24c-7.14.6-2.81,1.88-8.92,2.89-.74-1.2,7.77-4.35,5.73-6.79-7.83-9.37-25.58-4.67-33.02,1.41-1.27,1.04-2.84,1.53-4.08,2.92l-5.65,6.32c.4-1.11.34-2.29,1.7-3.33,7.62-5.8.63-4.08,15.67-11.33,12.34-5.95,18.73-3.62,28.6,3.42Z" fill="#eab957"/><path d="M77.15,98.27c-.05,1.76,2.74,2.54,3.12,4.13.57,2.34-1.7,4.9-2.85,6.49-2.05-1.92-3.91-3.1-6.91-2.93-.23-3.79,2.91-6.09,4.67-8.8.59.16,1.68.58,1.97,1.12Z" fill="#f7efd8"/><path d="M90.82,113.05c-.42-4.84.87-10.78-.11-15.26-.15-1.53.8-2.77,2.06-3.54.4.6,1.46,1.02,1.57,2.35.27,3.16.43,17.04-3.52,16.45Z" fill="#d49438"/><path d="M129.7,146.39c-3.39.74-5.72-3.69-6.74-6.19,2.28.65,4.09,3.03,6.62,2.22s3.84-3.95,7.6-3.12c-1.65,2.89-3.77,6.28-7.48,7.08Z" fill="#d49438"/><path d="M88.73,123.84c2.98-4.98,9.01-15.1,12.93-18.86.09,3.42-8.55,14.94-11.3,18.48-.43.56-1.3.38-1.63.38Z" fill="#f1cc79"/><path d="M133.05,149.07c.27.96-.28,2.01-1.45,2.59-2.19,1.08-3.95.59-6.11-.52-1.72-.88-1.81-2.96-2.63-4.92,6.81,5.49,6.17,2.87,10.19,2.85Z" fill="#cc903e"/><path d="M142.58,140.69c3.51,3.31,8.18,5.44,13.56,6.08,15.37,1.84,14.32-1.26,22.71-4.74,1.27-.53,1.57-2.6,2.98-2.2-.05,1.62-1.87,2.08-2.75,3.28-1.87,2.55-4.27,2.39-6.67,3.43-6.4,2.76-12.51,3.43-19.16,1.17-2.84-.97-10.43-3.26-11.99-5.85-1.33,2.49-2.5,3.77-4.45,4.13.84-1.38,3.25-6.19,4.39-5.95.44.09.91.19,1.4.65Z" fill="#eab957"/><path d="M140.89,113.06c-.14.69.37,1.04,1,1v1c-.69.08-1.47.14-2.2-.11-.78-.27-.99-1.11-.8-1.89h2Z" fill="#cc903e"/><path d="M133.93,148.96c.26-.97,1-1.64,1.92-1.99-.17,1-.88,1.84-1.92,1.99Z" fill="#eab957"/><path d="M76.89,205.06c.18-.47.53-.82,1-1-.26.37-.71.7-1,1Z" fill="#eab957"/><path d="M183.74,98.06c8.03,10.57,7.56,25.92-1.24,36.38-8.88,10.56-23.42,13.01-35.25,6.26-.96-.55-1.81-.89-2.51-.85-5.23-5.32.87-6.11-8.01-16.03-.2-2.36,1.07-3.83,3.76-4.27,1.09-.49,1.56-2.15,2.57-2.46,1.12,2.28,1.04,5.73,2.94,7.87,6.36,7.14,18.52,8.55,25.45-.01,3.9-4.82,4.73-11.25,2.17-16.83-.52-1.14-1.42-1.87-1.03-2.9,2.06-1.33,8.42-4.79,8.23-6.91l2.92-.24Z" fill="#f7f9f5"/><path d="M171.9,101.2c-.42.51-1.28.96-1.92,1.07-1.69-.89-2.81.44-4.18,1.67-2.14,1.93-5.18,2.12-7.77,3.31-7.37,3.4-18.01,6.14-25.43,4.2l2.28-6.4,5.65-6.32c1.24-1.39,2.81-1.88,4.08-2.92,7.44-6.08,25.19-10.78,33.02-1.41,2.04,2.44-6.47,5.6-5.73,6.79Z" fill="#f2bd41"/><path d="M143.89,113.06c.16.54-.22.87-.59.96-.57.13-1.02.02-1.41.04-.63.04-1.14-.31-1-1h3Z" fill="#6f3608"/><path d="M143.05,117.09v-.82c1.68-.35,3.95.45,5.57-.25-.39,1.93-.03,4.37,2.31,4.36.35.79.77,1.57,1.02,2.4.3.96,1.16,1.59,2.32,2.06,5.16,2.09,10.14.24,13.22-4.05,1.34-1.87,1.15-3.13,1.18-4.89.04-2.37.42-4.75-1.01-6.88.59-1.79,2.56-2.29,4.91-3.8-.39,1.02.5,1.76,1.03,2.9,2.56,5.57,1.73,12.01-2.17,16.83-6.94,8.57-19.09,7.15-25.45.01-1.9-2.13-1.82-5.58-2.94-7.87Z" fill="#48b5a0"/><path d="M160.97,112.1c.11,1.8.72,3.99,3,4.68,1.83.56,3.4-.34,4.72-.89-.03,1.77.16,3.03-1.18,4.89-3.08,4.3-8.06,6.15-13.22,4.05-1.17-.47-2.03-1.09-2.32-2.06.63.08,1.67-.24,2.09-.86.23-.34.52-1.14-.28-1.75-1.05-.79-2.1.04-2.83.21-2.34,0-2.7-2.43-2.31-4.36,2.42-1.04,5.25-1.05,7.87-2.43,1.57-.83,3-1.66,4.47-1.5Z" fill="#1b6056"/><path d="M167.68,109.02c1.42,2.13,1.05,4.51,1.01,6.88-1.33.54-2.89,1.44-4.72.89-2.28-.69-2.89-2.89-3-4.68,1.7-1.89,4.14-3.04,6.72-3.08Z" fill="#f5eee6"/><path d="M102.78,97.04c-5.21,1.14-2.55-2.31-6.76-7.35,1.44-1.41,10.29,1.15,9.97,2.87-.26,1.41-2.91,2.32-3.21,4.47Z" fill="#f3be3f"/><path d="M151.96,122.79c-.26-.83-.67-1.61-1.02-2.4.73-.17,1.78-1,2.83-.21.81.61.51,1.41.28,1.75-.42.62-1.46.95-2.09.86Z" fill="#c5d4d4"/></svg>