<?xml version="1.0" encoding="UTF-8"?><svg id="Layer_1" xmlns="http://www.w3.org/2000/svg" viewBox="0 0 255.12 255.12"><path d="M189.98,43.41c-6.96-5.47-4.21-3.44-12.06-2.5,0-2.39,2-3.86,2.31-6.1s-1.89-3.53-2.75-5.97c8.15-1.6,4.21,1.89,11.04-4.9l2.14,5.39c.91,2.29,4.1,2.27,6.34,3.78-1.81,1.89-5.01,1.73-5.49,3.75l-1.54,6.54Z" fill="#eab957"/><path d="M162.58,36.31c-.77.98-1.63,2.93.13,3.67.83.35,1.65-.75,2.06-.86-.75,2.63,1.9,5.77,2.53,11.12,8.41-.23,15.1,5.9,15.65,13.54.63,8.78-6.36,15.78-15.26,15.63-6.99-.13-2.8,5.86-16.96,4.83-1.4.15-3.37,3.94-2.41,4.93,1.08,1.1,3.04.6,3.4,1.83-3.47.51-7.13-2.86-5.52.98l-2.45,7.28c-.58,1.57-1.86,1.17-3.17,1.59,1.64-6.87,4.06-14.95,8.98-20.25,13.68,3.41,10.09-4.72,17.11-4.1,6.7.59,12.26-3.81,13.47-10.23.4-2.11-.87-3.1-1.03-4.17-.98-6.46-7.06-9.94-14.87-8.78.82-10.28-7.04-19.57-16.98-20.23-5.01-.33-9.59,1.74-13.55,6.04-3.52-5.56-8.45-9.12-14.27-9.63-8.07-.7-12.77,3.01-17.87,8.42-.44-.57-.78-1.2-1.02-1.87,2.71-6,9.75-9.17,15.76-9.6,7.08-.51,13.06,2.34,17.66,8.06,16.54-11.12,24.92,2,28.64,1.81Z" fill="#5a341b"/><path d="M72.66,229.59c.74.05,1.46.14,2.19.25-.23-.32-.25-.79-.15-1.15.09-.35.49-.49.92-.65,1.61-1.9,1.11-5.16,2.08-6.96-1.37-.52-3.04,6.97-5.42,8.51.13,0,.25,0,.39,0Z" fill="#653511"/><path d="M64.14,229.89c1.43.23,2.85.55,4.27.91.2.05.41.1.61.16.45-.51,1.03-.9,1.73-1.14-1.04-.09-1.92-.39-2.91-.74-3.36-1.19,1.88-6.01-.94-6.93-.46,1.74-1.26,4.48-2,6,.16.9-.17,1.43-.77,1.75Z" fill="#653511"/><path d="M53.72,228.79s.05.02.08.03c-.13-.32.17-.7.31-1.33,2.44-11.37,8.03-21.25,15.92-29.3.24,1.99.19,12.73-1.36,10.95.45,7.25-.2,4.99-.95,11.07,3.11-2.83,2.27-15.93,4.98-16.15.15-1.58-.22-3.25.08-4.82-1.41,1.95-.22-5.25-2.92-4.26-9.91,8.13-16.21,19.98-18.82,32.81.9.34,1.8.68,2.7,1Z" fill="#653511"/><path d="M179.1,62.08c-1.88,3.72-4.95,7.35-9.54,7.94-5.15.65-9.42-1.18-11.92-6.42-5.53,7.92-14.7,8.91-21.49,3.13-.72-.61-1.28-1.28-2.05-1.4-.93-.14-1.82.71-2.54,1.59-6.62,8.06-18.38,7.62-24.5.27-.69-.83-2.26-2.55-2.98-1.84-2.72,2.68-5.74,2.59-8.83,3.71-2.86,1.04-5.05,2.57-8.52,2.14-9.66-1.21-6.76-3.61-12.08-5.96,1.07-7.68,4.87-9.63,12.73-10.89-.92-3.57-.29-6.64,1.74-8.41,5.15-4.5,9.98,1.12,10.78-.97.18-.47.17-1.11.29-1.59.17-.72.26-1.46.53-2.16l.06-1.08c.66-.53.75-1.43.78-2.24,5.1-5.41,9.8-9.12,17.87-8.42,5.82.5,10.76,4.07,14.27,9.63,3.96-4.3,8.54-6.37,13.55-6.04,9.94.66,17.8,9.95,16.98,20.23,7.81-1.16,13.89,2.32,14.87,8.78Z" fill="#fcfaf8"/><path d="M97.79,41.12c.03.62.19,1.28.7,1.79.39.39,1.07.52,1.69.47-.12.49-.11,1.12-.29,1.59-.81,2.1-5.63-3.53-10.78.97-2.03,1.77-2.66,4.85-1.74,8.41-7.85,1.26-11.66,3.21-12.73,10.89-.5,3.58.51,6.74,3.67,9.36,9.32,7.72,13.97-1.85,17.39,3.43,1.72,2.67,4.74,4.35,8.09,3.47,1.13-.3.98-1.89,1.03-2.44,2.84,2.14,4.44,5.88,5.16,9.22-.38.14-.73.33-1.02.61-.32-.67-.49-.43-.97-.09-.4-1.18-1.38-4.05-2.83-4.13-5.18.54-9.48-1.06-12.51-5.54-5.29,2.08-10.6,1.78-15.02-1.4-3.89-2.8-6.77-7.74-6.15-13.23.73-6.44,5.62-11.21,12.22-12.46.34-4.83,2.44-9.18,7.11-10.55,2.43-.71,4.87-.17,6.96-.38Z" fill="#5a341b"/><path d="M74.77,44.05c-7.53-.32-3.46-2.73-10.64,2.75-1.37-7.95,1.01-4.8-5.65-9.41,7.04-2.91,4.65-1.21,7.13-8.29,4.57,5.62,3.31,4.66,9.9,4.37-3.03,6.49-3.57,2.89-.74,10.57Z" fill="#eab957"/><path d="M100.77,40.15l-.06,1.08c-.73.02-1.61.16-2.08-.76,1.08-.59,1.64-.28,2.14-.32Z" fill="#5a341b"/><path d="M185.7,189.94c-.56.16-1.53.15-1.8.8-.2.47-.23.97-.18,1.41l-4.59-.3-4.74,2.39c-.71.38-.59-.67-.67-1.09,5.04-2.22,10.03-5.9,14.25-9.61,4.79-4.22,7.7-8.95,9.66-14.36,2.52-6.97,3.66-14.21,2.4-22.14-1.64-10.33-4.91-20.77-12.11-27.83-.05-3.18-4.71-.58-8.24.26,1.03,2.2,3.58,2.76,5.21,3.86,14.18,15.09,14.74,38.51-1.52,52.38-1.55,1.32-2.77,1.94-3.64,3.44-2.03.19-3.45,1.57-5.71,2.28-11.66,3.64-16.11,3.46-27.98-1.58-2.06-.88-3.26-2.86-5.26-2.89-.09-1.16-.81-2.61-2.07-2.97-.57-8.72-4.86-11.16-5.05-11.52-.93-1.76-2.64-3.01-4.5-3.3-2.05-.32-4.38-.25-5.43,1.63-3.74.01-5.63,6.78-6.85,9.26-2.92,5.96-.29.29-2.45,7.08-5.68,1.08-7.68,6.13-17.52,6.1-2.16.98-4.34,1.27-6.57.37-9.39-.86-10.46-3.12-17.65-6.47-.19-.39-.72-.56-.94-.91-.26-.42-.89-.68-1.12-1.09-.65-1.27-1.58-2.31-2.86-2.95-.33-.28-.51-.95-1.01-1.11-.7-2.43-2.69-4.26-3.84-6.94-4.92-11.42-4.1-24.52,2.7-34.93,1.85-2.83,4.6-4.43,5.99-7.06,1.09-.47,2.44-.97,3.58-2.24-2.21-.92-4.46-2.35-7.44-2.61-.86-.08-1.01,1.7-1.03,2.09-10.36,11.75-15.14,32.49-10.11,47.74,3.08,9.34,9.99,17.26,18.89,22.31,2.51,1.43,4.8,2.97,7.12,3.94.12.97.36,1.92.82,2.79-2.13.64-1.82,3.29-1.54,5.16.57,3.84-1.08,7.27-1.87,10.82-1.71-3.96,2.51-11.83.23-16.62-1.55-3.26-5.73-3.75-8.56-4.41-.62-.83-1.47-1.63-2.59-2.42-23.54-16.85-21.13-50.3-5.81-69.92,1.09-1.39,1.11-2.34.53-3.63-1.13-2.53-3.66-3.41-6.14-5-1.54-.99-2.12-3.49-4.12-3.01.02-.35-.07-.71-.03-1.05.11-.96.28-1.93.34-2.9,3.76,3.92,4.2,5.43,9.78,9.07,5.02,1.78,13.67,6.03,18.48,4.47,13.63-4.4,28.9.71,37.87,11.19.6.7,1.3,1.01,1.86,1.24.27,1.8,4.15,8.55,5.97,11.34,2.62-6.14,5.46-11.55,10.12-15.62,5.04-4.4,10.98-7.67,17.84-9.36,14.62-3.62,15.88,8.03,38.04-5.14,4.11-2.44,7.17-6.21,7.97-10.25.44-2.19-5.97,1.37-7.1,2.07-.75.46-3.31-.28-2.74-1,5.6-7.05,11.62-15.22,10.21-24.15-.27-1.7.92-3.82-1.28-5.18-8.49,13.36-14.21,18.89-28.81,23.72l-16.46,5.45c-.81-.26-.97-1.15-.97-1.9,1.06-1.28,2.67-1.5,4.22-2.62l-12.65-4.58c-1.61-3.84,2.05-.47,5.52-.98,4.08-.6,7.8,3.87,11.96,3.64,6.44-.35,13-3.62,18.58-6.75,12.96-7.28,15.16-20.31,19.77-19.13.92.24,1.88,1.33,2.33,2.73,2.55,8.09.1,15.93-3.81,23.31,1.84.27,3.27-.35,4.09.19,3.53,2.32-1.62,11.03-5.33,14.77-2.6,2.62-5.54,4.15-8.86,6.54,15.23,20.18,19.42,51.56-.81,69.79-1.52,1.37-3.18,2.31-3.95,3.88ZM65.09,161.36c2.68,8.09,10.06,14.51,16.32,16.98,10.76,4.24,20.23,2.49,28.57-2.73.99-.62.97-1.76,1.88-2.46,4.78-3.67.66-10.78,13.62-17.58,2.12-15.14-7.22-29.96-21.8-35.56s-31.81,1.15-38.21,15.92c-3.55,8.19-3.61,16.91-.38,25.43ZM144.66,174.29c.42,1.34,1.59,2.21,3.1,2.98,11.13,5.73,23.96,4.28,33.53-3.74,2.73-2.29,5.45-4.59,6.54-8.49,7.87-10.39,5.62-28.11-4.04-37.98-5.38-5.49-13.1-9.09-21.06-9.04-18.75.1-33.36,15.74-33.62,34-.05,3.2,1.1,4.21,3.46,5.52,9.72,5.37,6.75,16.96,12.1,16.75Z" fill="#653511"/><path d="M140.58,100.83c-1.97.62-3.8,1.89-5.99,1.35.4-4.62,1.51-9.3,2.83-14.29.7-1.09.26-2.06-1.03-1.3-2.08,5.91-3.44,11.53-3.66,17.22l-1.92.41c-1.41-5.64,3.43-16.88-.06-19.7-1.51-1.22-6.75,2.58-11.83,1.78-1-.41-1.68.71-1.36,1.84,2.09,5.15,2.61,10.24,4.16,15-.5.2-.94.54-1.22,1-.92-.03-1.32-.99-2.02-1.3-.33-10.32-7.16-16.17-8.19-20.52-.14-.57.67-1.06,1.39-1.34.35,0,.69-.02,1.04,0-.2.86.36.9,1,.8,3.58-.56,12.12,3.74,20.58-6.83,6.08,5.29,14.28,5.94,20.18.99,1.27-1.07,2.87-2.55,1.45-4.34-13.44,12.17-20.04-2.82-23.15,1.41-5.11,6.95-14.46,8.52-21.67,3.79-1.64-1.08-2.87-2.11-4.6-3.41-.7.35-.51,1.22-.68,1.76-.27.28-1.41.43-1.32,1.15l.34,2.76c-.05.56.09,2.15-1.03,2.44-3.34.88-6.36-.81-8.09-3.47-3.42-5.29-8.07,4.29-17.39-3.43-3.16-2.62-4.17-5.78-3.67-9.36,5.32,2.35,2.42,4.75,12.08,5.96,3.47.43,5.66-1.1,8.52-2.14,3.09-1.12,6.11-1.03,8.83-3.71.72-.71,2.29,1.01,2.98,1.84,6.12,7.35,17.88,7.79,24.5-.27.72-.88,1.61-1.73,2.54-1.59.78.12,1.33.78,2.05,1.4,6.79,5.78,15.95,4.78,21.49-3.13,2.5,5.24,6.77,7.07,11.92,6.42,4.59-.58,7.66-4.22,9.54-7.94.16,1.07,1.43,2.06,1.03,4.17-1.21,6.42-6.78,10.82-13.47,10.23-7.01-.62-3.43,7.52-17.11,4.1-4.92,5.3-7.34,13.38-8.98,20.25Z" fill="#c5d4d4"/><path d="M111.87,99.24c.78,1.45,1.24,2.9,3.08,2.55,1.1-.21,2.55.62,3.53,1.06.71.31,1.11,1.27,2.02,1.3.26.26,1.08.63,1.22,1,.38,1.01,1.38.66,2.1,1.01,1.59.77,3.53,1.49,5.61.52,1.04-.49,1.19-1.74,1.38-2.45l1.92-.41c.87-.18,1.56-.8,1.87-1.64,2.19.53,4.02-.73,5.99-1.35,1.31-.42,2.59-.02,3.17-1.59,2.57-1.29,2.97-5.65,9.39-2.34l-2.5,3.47c-11.3,8.2-16.01,11.67-23.36,26.09-5.19-11.94-13.79-20.78-24.62-27.19-.03-.77-.93-1.58-.85-2.73,2.28-.69,5.47-1.32,7.3.27l2.76,2.41Z" fill="#eab957"/><path d="M154.64,99.16l-4,1.22,2.5-3.47c-6.41-3.31-6.82,1.04-9.39,2.34l2.45-7.28,12.65,4.58c-1.55,1.13-3.16,1.34-4.22,2.62Z" fill="#f1cc79"/><path d="M165.53,203.41c-20.01,8.69-46.98,8.56-68.45,3.35-2.94-.71-5.4-2.31-8.07-1.98-1.01.92-1.41,2.29-2.16,3.37-.02.77,0,1.87-.97,1.98.12.26-.02.71-.04,1-.12,1.4.29,3.46-1.17,4.19l-.06,1.65c-.03.78.13,2.32-.97,2.32.05.97-.38,1.98-.79,2.84-.15.32-.06.75-.18,1.09.03,1.04-.63,1.94-.84,2.91-.26,1.15-.06,2.38-.09,3.56,1.37-.54,2.68-.32,3.73.36.83-.9,1.98-1.46,3.38-1.28,2.2.28,4.4.51,6.6.7,1.09-1.03,2.61-1.63,4.44-1.33,7.13,1.16,14.36.82,21.55,1.18,4.3.22,8.52.44,12.77.49,12.85-.58,25.71-1.5,38.56-1.77-.18-7.61-4.41-18.26-7.24-24.64Z" fill="#f7efd8"/><path d="M188.52,222.15c-.05-.3-.16-.72-.12-1-1.54.52-3.31-14.27-3.39-15.22-.05-.62.32-1.32.18-1.94-.36-1.6-.75-3.19-.78-4.84-.84-.51-.71-1.52-.41-2.35.25-.7.84-1,1.59-.88-.44-.83-.63-1.78-.91-2.65-.31-.28-.92-.58-.97-1.12l-4.59-.3-4.74,2.39c-.44.77-1.48,1.96-1.49,2.91,0,.9-.38,2.2-.23,3.05,1.66,9.51,3.03,19.08,7.02,27.87,1.29.24,2.25.93,2.88,1.85h.38c-3.99-11.27-7.2-20.71-7.24-33.75,1.09-1.41,2.89-2.59,5.63-3.47,1.02,5.31.26,10.25,1.33,15.51l4.07,20.02c.36,1.8-2,1.95-2.94,1.71.35.61.9,1.22,1.54,1.25.76.04,1.66-.1,2.38-.81.98-.97.93-2.22.98-3.21-.02-1.61.12-3.39-.17-5.01Z" fill="#5a341b"/><path d="M183.78,229.93c-.28.02-.57-.01-.84-.01-3.99-11.27-7.2-20.71-7.24-33.75,1.09-1.41,2.89-2.59,5.63-3.47,1.02,5.31.26,10.25,1.33,15.51l4.07,20.02c.36,1.8-2,1.95-2.94,1.71Z" fill="#52ae90"/><path d="M178.64,227.97c.37,0,.71.03,1.04.09-3.99-8.79-5.36-18.36-7.02-27.87-3.13.72-2.83,2.39-7.05,1.93l-.08,1.28c2.83,6.37,7.06,17.03,7.24,24.64,1.96-.04,3.91-.07,5.87-.08Z" fill="#eab957"/><path d="M188.05,203.64c3.24,7.45,8.99,9.33,10.64,22.38.65-.35,1.29-.7,1.93-1.04.04-.02.07-.04.11-.06-2.49-9.1-10.46-23.91-16.31-25.77.03,1.65.42,3.24.78,4.84.49-.17,2.45-1.27,2.86-.35Z" fill="#f1cc79"/><path d="M191.05,227.87c-1-1.87-.8-5.63-2.53-5.72.29,1.61.15,3.4.17,5.01.63.31.94,1.91,1.46,2.77.22.02.45.03.68.04,1.01-.46,2.01-.94,3-1.43-.96-.07-1.89-.28-2.78-.67Z" fill="#f1cc79"/><path d="M71.56,229.63c6.15-14.44,7.3-17.21,7.09-33.6-.03-2.06-3.8-3.62-5.12-2.14-1.26,1.49-.48,3.84-.77,5.36-.3,1.57.07,3.23-.08,4.82-.09,1-.44,8.27-1.13,10.9l-3.71,14.12c.99.35,1.86.66,2.91.74.25-.09.52-.15.81-.19Z" fill="#52ae90"/><path d="M68.66,209.15c.45,7.25-.2,4.99-.95,11.07-.48.43-.64,1.34-.8,1.93-.46,1.74-1.26,4.48-2,6l-6.2.04c-.95,0-1.77.95-1.21,1.67-.62-.05-1.18-.41-1.75-.62.84-7.92,6.23-20.31,12.58-26.11.43,2.46.22,4.2.34,6.02ZM64.72,225.65c0-.28-.22-.5-.5-.5s-.5.22-.5.5.22.5.5.5.5-.22.5-.5Z" fill="#efba47"/><path d="M88.88,203.9l.12.88c-1.01.92-1.41,2.29-2.16,3.37-.42.61-1.45.9-.97,1.98.12.26-.02.71-.04,1-.84.32-1.3,1.08-1.73,1.98-.36.75-.35,1.67.57,2.22l-.06,1.65c-.62-.5-1.41-.07-1.87.73-.29.52.49,1.19.89,1.59.05.97-.38,1.98-.79,2.84-1.04-.15-1.07.74-.18,1.09.03,1.04-.63,1.94-.84,2.91-1.38.71-2.05,2.25-2.33,3.72-.5-.07-1.03-.05-1.53,0,.55-.78-.38-1.37-.88-1.56-.55-.21-1.02-.28-1.46-.27,1.61-1.9,1.11-5.16,2.08-6.96,1.58-2.93,1.62-5.8,2.31-8.92.79-3.55,2.43-6.98,1.87-10.82,2.8.24,4.29,2.07,7.01,2.58Z" fill="#efba47"/><path d="M72.76,199.24c.29-1.52-.49-3.87.77-5.36,1.31-1.49,5.09.07,5.12,2.14.21,16.39-.94,19.16-7.09,33.6.23-.03.46-.04.71-.05,2.38-1.54,4.05-9.03,5.42-8.51,1.58-2.93,1.62-5.8,2.31-8.92-1.71-3.96,2.51-11.83.23-16.62-1.55-3.26-5.73-3.75-8.56-4.41-.58,1.21-1.13,2.75-1.84,3.86,2.7-1,1.51,6.21,2.92,4.26Z" fill="#623920"/><path d="M67.85,229.08c-3.36-1.19,1.88-6.01-.94-6.93.16-.59.32-1.5.8-1.93,3.11-2.83,2.27-15.93,4.98-16.15-.09,1-.44,8.27-1.13,10.9l-3.71,14.12Z" fill="#623920"/><path d="M54.99,229.25c.27-.04.53-.09.75,0,.84-7.92,6.23-20.31,12.58-26.11.43,2.46.22,4.2.34,6.02,1.55,1.77,1.6-8.96,1.36-10.95-7.89,8.04-13.48,17.92-15.92,29.3-.14.63-.44,1.01-.31,1.33.39.14.8.29,1.2.43Z" fill="#f1cc79"/><path d="M57.5,229.86c.43-.14.89-.24,1.4-.28,1.77-.11,3.51.03,5.23.31.6-.32.93-.85.77-1.75l-6.2.04c-.95,0-1.77.95-1.21,1.67,0,0,0,0,.01,0Z" fill="#f1cc79"/><path d="M81.63,229.73s.07-.02.1-.04c.03-1.18-.17-2.41.09-3.56-1.38.71-2.05,2.25-2.33,3.72h.1c.64-.18,1.33-.23,2.04-.12Z" fill="#eab957"/><path d="M76.66,230.11c.53-.09.93-.21,1.29-.25.55-.78-.38-1.36-.88-1.56-.55-.21-1.02-.28-1.46-.27-.44.17-.83.3-.92.65-.1.36-.07.83.15,1.15.6.09,1.21.18,1.81.27Z" fill="#eab957"/><path d="M102.72,90.97c1.71,3.68-9.8,1.28-6.31,5.26v.87s-2.54,1.33-2.54,1.33l-13.63-3.86c-9.19-2.6-20.05-12.29-25.13-20.83-.62-1-.59-2.14-2.29-1.53l-.2,2.94c-.75,11,1.22,8.81,4.15,18.13-.68.44-1.27.99-1.87,1.53-3.86-6.03-6.38-13.03-5.14-20.7.36-2.23,1.53-5.21,3.93-5.38,1.81-.12,3.15,1.96,4.01,3.32,9.18,14.55,17.7,18.35,33.77,22.86,4.06-1.45,7.51-3.06,11.25-3.93Z" fill="#5e3110"/><path d="M62.79,99.21c.11.36.54.67.76.95-.11.63-.13,1.27-.06,1.9-4.84.95-7.68-3.87-11.26-3.22.1,1.42,1.04,1.38,1.5,1.57-.08.49-.12.99-.13,1.5-.73,0-1.37-.18-1.67-.62-.13-.2-1.46-3.98.39-5.25.37-.25.77.19,1.95.85.51-.43-.28-1.13-.53-1.7.33-.18.87-.12,1.15-.38.6-.54,1.19-1.09,1.87-1.53,2.54,1.67,3.89,5.33,6.03,5.93ZM56.72,96.65c0-.28-.22-.5-.5-.5s-.5.22-.5.5.22.5.5.5.5-.22.5-.5Z" fill="#653511"/><path d="M53.75,95.19c.25.57,1.04,1.26.53,1.7-1.19-.67-1.59-1.1-1.95-.85-1.85,1.27-.52,5.05-.39,5.25.3.45.95.63,1.67.62.08.42.29.86.26,1.29-.06.97-.22,1.93-.34,2.9-2.52-2.12-4.63-5.9-4.18-9.6.26-2.17,3.17-1.86,4.4-1.31Z" fill="#5e3110"/><path d="M108.01,88.81c.47-.34.65-.57.97.09l-.07,3.17c-4.29.88-8.4,2.6-12.5,4.16-3.5-3.98,8.02-1.58,6.31-5.26.32-.07.68-.01,1-.1.43-.12.78-.45,1-.82,1.1-.39,2.25-.72,3.29-1.24Z" fill="#6f3608"/><path d="M63.82,115.15c-4.23-1.47-7.64-4.4-10.26-8.01,2.01-.49,2.58,2.02,4.12,3.01,2.48,1.59,5.01,2.47,6.14,5Z" fill="#5e3110"/><path d="M103.72,90.88c.14-.48.57-.67,1-.82-.22.38-.57.71-1,.82Z" fill="#5e3110"/><path d="M111.67,80.98c-.72.28-1.53.77-1.39,1.34,1.03,4.36,7.86,10.2,8.19,20.52-.98-.43-2.42-1.27-3.53-1.06.67-1.07-3.1-13.99-4.96-13.5-.72-3.34-2.32-7.08-5.16-9.22l-.34-2.76c-.09-.73,1.06-.87,1.32-1.15l5.86,5.83Z" fill="#f5eee6"/><path d="M114.95,101.79c-1.84.35-2.29-1.1-3.08-2.55-.67-2.46-.81-5.56-2.97-7.17l.07-3.17c.29-.28.64-.48,1.02-.61,1.85-.5,5.62,12.43,4.96,13.5Z" fill="#5e3110"/><path d="M185.7,189.94c.09,1.19.32,2.79-1.01,3.33-.31-.28-.92-.58-.97-1.12-.05-.44-.02-.94.18-1.41.27-.65,1.24-.64,1.8-.8Z" fill="#f7efd8"/><path d="M187.82,165.04c-1.27-.17-2.67.39-3.16,2.15-9.39,8.45-22.77,13.06-34.9,8.05-1.85-.77-3.42-1.62-5.11-.95-5.35.21-2.38-11.38-12.1-16.75-2.36-1.3-3.51-2.31-3.46-5.52.26-18.26,14.88-33.9,33.62-34,7.96-.04,15.69,3.56,21.06,9.04,9.67,9.87,11.91,27.59,4.04,37.98ZM174.25,150.03c0-9.07-7.36-16.43-16.43-16.43s-16.43,7.36-16.43,16.43,7.36,16.43,16.43,16.43,16.43-7.36,16.43-16.43Z" fill="#f7f9f5"/><path d="M111.86,173.14c.11-.9-.99-.98-1.67-.53-14.07,9.37-34.12,4.09-41.73-9.34-.8-1.41-1.96-2.26-3.37-1.92-3.23-8.53-3.18-17.24.38-25.43,6.4-14.77,23.26-21.66,38.21-15.92s23.92,20.42,21.8,35.56c-12.96,6.8-8.84,13.91-13.62,17.58ZM113.53,150.11c0-9.02-7.31-16.33-16.33-16.33s-16.33,7.31-16.33,16.33,7.31,16.33,16.33,16.33,16.33-7.31,16.33-16.33Z" fill="#fcfaf8"/><path d="M202.16,77.07c1.42,8.93-4.61,17.1-10.21,24.15-.57.72,1.99,1.46,2.74,1,1.13-.7,7.54-4.25,7.1-2.07-1.8-.42-2.5,1.26-3.59,2.63-5.07,6.4-18.85,10.78-25.49,9.49-16.63-3.22-23.36-.12-35.05,9.82-.33-1.28-.74-2.52-.71-3.88,8.37-8.78,12.99-10.5,23.65-15.46,5.38-2.5,10.64-4.9,16.69-4.95l7.06-5.07c3.46-2.48,7.03-4.72,9.91-7.98,3.45-3.91,4.26-8.97,7.89-7.69Z" fill="#f2bd41"/><path d="M85.7,189.22c11.42,4.61,23.88,6.88,36.2,6.91,4.23.01,8.4.97,12.64-.34,16.02.8,42.13-5.61,53.33-17.72,3.5-2.01,5.98-5.56,8.17-9.22.54-.09,1.11.32,1.57.33-1.96,5.41-4.87,10.14-9.66,14.36-4.22,3.72-9.2,7.39-14.25,9.61-19.22,8.47-40.14,9.35-61.39,7.57-10.55-.88-20.35-3.44-29.72-7.34-2.32-.97-4.61-2.51-7.12-3.94-8.89-5.05-15.8-12.97-18.89-22.31.34-.09.75-.21,1.34-.45,2.29,2.63,3.76,6.12,6.59,8.65l7.38,6.59c4.21,3.76,9.15,5.41,13.8,7.29Z" fill="#d49438"/><path d="M71.58,122.16c-1.39,2.63-4.14,4.23-5.99,7.06-6.8,10.41-7.62,23.51-2.7,34.93,1.15,2.67,3.14,4.51,3.84,6.94.14.5.57.88,1.01,1.11,1.28.64,2.21,1.68,2.86,2.95.29.43.67.8,1.12,1.09.22.35.75.52.94.91,1.12,2.37,9.83,6.08,11.14,7.72-.11.73.13,1.52.87,2.34.69.72,1.02,1.37,1.03,2.02-4.65-1.88-9.59-3.53-13.8-7.29l-7.38-6.59c-2.83-2.53-4.3-6.02-6.59-8.65-.59.24-1,.36-1.34.45-5.03-15.24-.25-35.99,10.11-47.74,1.76.67,3.44,1.55,4.88,2.77Z" fill="#efba47"/><path d="M197.62,169.18c-.46-.01-1.03-.43-1.57-.33-2.19,3.66-4.67,7.21-8.17,9.22.26-1.02-.27-3.58-2.07-2.66-2.15,1.1-3.79,3.53-6.09,3.74.87-1.5,2.09-2.11,3.64-3.44,16.26-13.88,15.7-37.3,1.52-52.38l3.03-4.12c7.19,7.06,10.46,17.5,12.11,27.83,1.26,7.92.12,15.17-2.4,22.14Z" fill="#efba47"/><path d="M173.72,193.15c.08.42-.04,1.47.67,1.09-.44.77-1.48,1.96-1.49,2.91-1.94-.14-3.98.19-5.25,1.75-1.25-.58-2.12.93-3.01,1.13-22.47,5.1-45.71,6-68.66.72-2.02-.47-3.64-.88-5.25-.69-1.64-2.1-5.24-1.63-7.31-3.89-.46-.87-.7-1.82-.82-2.79,9.37,3.91,19.17,6.46,29.72,7.34,21.26,1.78,42.17.89,61.39-7.57Z" fill="#6f3608"/><path d="M102.66,99.28c10.82,6.41,19.43,15.26,24.62,27.19,7.34-14.42,12.06-17.89,23.36-26.09l4-1.22c0,.76.16,1.64.97,1.9-6.54,4.31-15.03,9.15-18.99,16.39-3.92,2.84-6.12,10.19-8.93,13.86-2.67-.46-3.28-7.15-5.76-8.18-1.92-9.03-21.49-22.83-28.07-24.7l2.53-1.33c2.07.57,4.37,1.06,6.26,2.17Z" fill="#6f3608"/><path d="M135.75,174.07c-.13,1.66-1.42,1.02-1.91-.51-.65-2.74-4.03-7.2-7.42-5.44s-6.31,6.56-7.21,10c-.6,2.28,3.35,2.22,4.55,1.54,6.6-3.73,10.81,2.6,12.47-.03.76-1.2-.16-3.16.28-4.4.91.02,1.73-.45,2.18-1.25,1.26.35,1.98,1.81,2.07,2.97-.69,6.12-2.76,7.36-3.25,11.17-1.41.21-1.15,2.17-1.9,2.78l-3.79,3.08c-8.42,6.86-17.19-10.9-17.42-16.86,2.16-6.79-.47-1.12,2.45-7.08.09,1.7-.54,3.55.77,5.55l5.32-7.22c1.36-1.85,3.87-3.58,6.22-1.94,2.89,2.02,5.36,4.7,6.58,7.62ZM132.08,181.57c-3.34-1.77-6.64-1.35-9.21.45-.5,1.89,2.71,3.96,4.41,3.98,2.27.02,4.39-1.26,4.8-4.43ZM121.26,186.1l-1.6-2.94c.1-1.29-.81-1.19-1.23,0,.98,1.4,1.95,2.12,2.83,2.93ZM130.77,190.77c1.79-1.81,4.11-2.95,3.68-5.79-6.74,8.04-11.32,1.1-10.64,4.16s4.8,3.82,6.96,1.63ZM122.72,187.65c0-.28-.22-.5-.5-.5s-.5.22-.5.5.22.5.5.5.5-.22.5-.5Z" fill="#6f3608"/><path d="M111.87,115.16c-.11.49-.66.94-.52,1.38.65,2.05,13.65,10.79,10.51,12.64-.56-.23-1.26-.54-1.86-1.24-8.97-10.49-24.25-15.59-37.87-11.19-4.81,1.55-13.46-2.69-18.48-4.47-5.59-3.65-6.02-5.15-9.78-9.07.03-.43-.18-.87-.26-1.29,0-.5.05-1,.13-1.5,1.77-.79,1.18,2.04,1.96,2.63,5.63,4.3,12.26,7.02,18.99,9.28,6.97,2.35,14.35-4.62,31.33,1.72,2.16.8,3.83,2.02,5.85,1.12Z" fill="#d49438"/><path d="M137.94,124.91c-.29-.88-.04-1.93-.27-2.81,11.69-9.94,18.42-13.04,35.05-9.82,6.64,1.28,20.41-3.09,25.49-9.49,1.09-1.37,1.79-3.04,3.59-2.63-.81,4.04-3.87,7.81-7.97,10.25-22.16,13.17-23.42,1.52-38.04,5.14-6.86,1.7-12.8,4.97-17.84,9.36Z" fill="#d49438"/><path d="M202.16,77.07c-3.63-1.28-4.44,3.79-7.89,7.69-2.88,3.26-6.45,5.5-9.91,7.98l-7.06,5.07c-6.06.05-11.31,2.45-16.69,4.95-10.67,4.96-15.28,6.67-23.65,15.46,0-.25-.28-.51-.33-.76,3.96-7.24,12.45-12.07,18.99-16.39l16.46-5.45c14.59-4.83,20.32-10.36,28.81-23.72,2.2,1.37,1.01,3.49,1.28,5.18Z" fill="#f1cc79"/><path d="M121.94,123.13c2.48,1.03,3.09,7.71,5.76,8.18,2.81-3.66,5.01-11.02,8.93-13.86.05.25.34.51.33.76-.03,1.35.38,2.6.71,3.88.23.88-.02,1.93.27,2.81-4.66,4.06-7.5,9.48-10.12,15.62-1.82-2.79-5.7-9.54-5.97-11.34,3.14-1.85-9.85-10.59-10.51-12.64-.14-.45.41-.9.52-1.38.23-.99.04-2.05-.19-3.02,2.28,1.25,8.87,10.41,10.26,10.99Z" fill="#eab957"/><path d="M111.86,173.14c-.91.7-.89,1.83-1.88,2.46-8.33,5.22-17.81,6.97-28.57,2.73-6.26-2.47-13.64-8.88-16.32-16.98,1.41-.34,2.57.51,3.37,1.92,7.61,13.43,27.66,18.71,41.73,9.34.68-.46,1.78-.38,1.67.53Z" fill="#c5d4d4"/><path d="M187.82,165.04c-1.09,3.9-3.81,6.2-6.54,8.49-9.57,8.02-22.4,9.47-33.53,3.74-1.51-.78-2.68-1.65-3.1-2.98,1.69-.67,3.26.19,5.11.95,12.12,5.01,25.51.4,34.9-8.05.49-1.75,1.88-2.32,3.16-2.15Z" fill="#c5d4d4"/><path d="M123.7,160.8c1.79.02,3.17,1.19,4.27,3.14,1.3-.12,1.27-1.41,2.14-2.47.8-.34,1.93.87,2.84,1.54.6.35.99.07.68-.54.19.36,4.48,2.8,5.05,11.52-.45.8-1.27,1.27-2.18,1.25.17-.48-.62-.84-.76-1.17-1.21-2.92-3.69-5.6-6.58-7.62-2.35-1.64-4.86.1-6.22,1.94l-5.32,7.22c-1.3-2-.67-3.85-.77-5.55,1.21-2.47,3.11-9.24,6.85-9.26Z" fill="#d49438"/><path d="M114.41,177.14c.23,5.96,9,23.72,17.42,16.86l3.79-3.08c-.53,1.59-1.28,3.17-1.06,4.87-4.24,1.31-8.41.35-12.64.34.3-1.67-1.04-2.58-2.21-3.87-3.1-3.38-4.48-7.7-6.07-12.38-3.94.61-7.09,3.27-11.09,3.96l-6.85,1.18c-4.21.72-8.11-.5-11.88-.15-1.31-1.64-10.02-5.35-11.14-7.72,7.2,3.35,8.26,5.61,17.65,6.47,2.23.9,4.41.61,6.57-.37,9.83.03,11.84-5.02,17.52-6.1Z" fill="#eab957"/><path d="M179.72,179.15c-.7,1.2-2.77,3.02-4.26,3.51l-6.85,2.22c-6.34,2.06-19.39-1.4-26.03-4.81-3.11,2.72-1.88,7.6-5.06,8.06.48-3.81,2.55-5.05,3.25-11.17,2.01.03,3.2,2.02,5.26,2.89,11.87,5.04,16.31,5.22,27.98,1.58,2.27-.71,3.69-2.09,5.71-2.28Z" fill="#eab957"/><path d="M83.42,196.17c2.07,2.26,5.67,1.79,7.31,3.89-.16,1.46-.52,3.03-1.84,3.84-2.73-.51-4.21-2.34-7.01-2.58-.27-1.87-.59-4.52,1.54-5.16Z" fill="#cc903e"/><path d="M187.91,119.21l-3.03,4.12c-1.64-1.1-4.19-1.66-5.21-3.86,3.54-.84,8.2-3.44,8.24-.26Z" fill="#cc903e"/><path d="M71.58,122.16c-1.44-1.21-3.13-2.09-4.88-2.77.02-.39.17-2.16,1.03-2.09,2.98.26,5.23,1.68,7.44,2.61-1.14,1.27-2.49,1.77-3.58,2.24Z" fill="#cc903e"/><path d="M133.64,162.47c.31.61-.08.89-.68.54-.91-.67-2.04-1.87-2.84-1.54-.87,1.06-.84,2.35-2.14,2.47-1.1-1.95-2.48-3.12-4.27-3.14,1.05-1.88,3.38-1.95,5.43-1.63,1.86.29,3.58,1.54,4.5,3.3Z" fill="#eab957"/><path d="M71.72,176.23c-.44-.28-.82-.65-1.12-1.09.22.41.85.66,1.12,1.09Z" fill="#eab957"/><path d="M67.75,172.2c-.45-.23-.87-.61-1.01-1.11.5.16.68.83,1.01,1.11Z" fill="#eab957"/><path d="M130.8,104.22c-.19.72-.34,1.96-1.38,2.45-2.08.98-4.02.26-5.61-.52.14-1.33-.11-2.77-.73-4.4-.93-7.24-2.62-9.88-4.17-15.46,5.08.8,10.32-3,11.83-1.78,3.49,2.82-1.35,14.07.06,19.7Z" fill="#f7f9f5"/><path d="M113.72,81.78c-.02-.53-.53-.77-1-.8-.35-.02-.69,0-1.04,0l-5.86-5.83c.16-.53-.02-1.41.68-1.76,1.73,1.3,2.97,2.34,4.6,3.41,7.2,4.73,16.56,3.16,21.67-3.79,3.11-4.23,9.71,10.75,23.15-1.41,1.43,1.79-.17,3.27-1.45,4.34-5.9,4.95-14.1,4.3-20.18-.99-8.46,10.58-17,6.27-20.58,6.83Z" fill="#493d24"/><path d="M123.81,106.16c-.72-.35-1.72,0-2.1-1.01-.14-.62.2-1.4,0-2-1.55-4.77-2.07-9.86-4.16-15-.32-1.14.36-2.26,1.36-1.84,1.55,5.58,3.25,8.22,4.17,15.46.61,1.63.86,3.06.73,4.4Z" fill="#693f25"/><path d="M134.59,102.18c-.31.83-1,1.45-1.87,1.64.22-5.68,1.58-11.31,3.66-17.22,1.3-.76,1.74.2,1.03,1.3-1.32,4.98-2.42,9.66-2.83,14.29Z" fill="#493d24"/><path d="M121.72,105.15c-.14-.37-.96-.74-1.22-1,.28-.46.72-.8,1.22-1,.2.6-.14,1.38,0,2Z" fill="#f5eee6"/><path d="M113.72,81.78c-.64.1-1.21.06-1-.8.47.03.99.27,1,.8Z" fill="#f5eee6"/><path d="M108.9,92.07c2.16,1.61,2.3,4.7,2.97,7.17l-2.76-2.41c-1.83-1.6-5.01-.97-7.3-.27-.08,1.15.82,1.96.85,2.73-1.89-1.12-4.19-1.61-6.26-2.17v-.87c4.1-1.56,8.21-3.28,12.5-4.16Z" fill="#f1cc79"/><path d="M164.63,200.03c.24.31.58.31.93.3l.05,1.8-.08,1.28c-20.01,8.69-46.98,8.56-68.45,3.35-2.94-.71-5.4-2.31-8.07-1.98l-.12-.88c1.32-.82,1.68-2.38,1.84-3.84,1.6-.19,3.22.22,5.25.69,22.95,5.28,46.19,4.38,68.66-.72Z" fill="#dec6a3"/><path d="M84.66,215.33c-.91-.55-.93-1.46-.57-2.22.44-.9.89-1.66,1.73-1.98-.12,1.4.29,3.46-1.17,4.19Z" fill="#eab957"/><path d="M84.6,216.98c-.03.78.13,2.32-.97,2.32-.4-.4-1.19-1.07-.89-1.59.46-.8,1.24-1.23,1.87-.73Z" fill="#eab957"/><path d="M85.88,210.14c-.48-1.09.55-1.37.97-1.98-.02.77,0,1.87-.97,1.98Z" fill="#eab957"/><path d="M82.66,223.23c-.89-.34-.85-1.23.18-1.09-.15.32-.06.75-.18,1.09Z" fill="#eab957"/><path d="M186.37,206.42l1.8,10.35c.3,1.69.84,3.05.23,4.38-.05.28.06.7.12,1,1.73.09,1.53,3.85,2.53,5.72.9.39,1.82.6,2.78.67,1.65-.82,3.27-1.66,4.86-2.52-1.65-13.06-7.4-14.93-10.64-22.38-.4-.93-2.37.18-2.86.35.14.62-.23,1.32-.18,1.94.32-.4,1.23-.19,1.35.48Z" fill="#efba47"/><path d="M172.89,197.15c0,.9-.38,2.2-.23,3.05-3.13.72-2.83,2.39-7.05,1.93l-.05-1.8c.47-.01.96-.06,1.52-.24s.87-.52.56-1.19c1.27-1.56,3.32-1.9,5.25-1.75Z" fill="#d49438"/><path d="M188.4,221.15c-1.54.52-3.31-14.27-3.39-15.22.32-.4,1.23-.19,1.35.48l1.8,10.35c.3,1.69.84,3.05.23,4.38Z" fill="#f1cc79"/><circle cx="64.22" cy="225.65" r=".5" fill="#f1cc79"/><path d="M93.87,98.43c6.58,1.86,26.15,15.67,28.07,24.7-1.39-.58-7.98-9.74-10.26-10.99-.05-.82-.27-2.02-1.82-2.18-3.72-.4-5.96-3.24-8.94-4.89-4.9-2.71-22.13-6.79-25.27-9.03l-5.86-4.17c-10.28-7.32-3.86-4-11.45-11.36-1-.97-1.18-2.49-2.63-2.32-.12-.77.4-2.44-.63-2.9-.83-.36-1.73-.16-2.46-.13l.2-2.94c1.7-.61,1.67.53,2.29,1.53,5.08,8.54,15.94,18.23,25.13,20.83l13.63,3.86Z" fill="#f1cc79"/><path d="M55.71,78.18c-.9-.1-1.55.13-1.75.69-.39,1.07.35,1.96.38,2.85.3,9.88,7.1,13.1,8.46,17.5-2.13-.6-3.49-4.25-6.03-5.93-2.94-9.32-4.91-7.13-4.15-18.13.73-.03,1.63-.23,2.46.13,1.03.45.52,2.12.63,2.9Z" fill="#eab957"/><path d="M55.71,78.18c1.44-.17,1.63,1.36,2.63,2.32,7.6,7.36,1.18,4.04,11.45,11.36l5.86,4.17c3.14,2.23,20.37,6.31,25.27,9.03,2.98,1.65,5.22,4.49,8.94,4.89,1.54.17,1.76,1.36,1.82,2.18.22.97.41,2.02.19,3.02-2.02.91-3.7-.31-5.85-1.12-16.98-6.33-24.37.63-31.33-1.72-6.73-2.27-13.36-4.98-18.99-9.28-.78-.6-.19-3.42-1.96-2.63-.45-.19-1.4-.16-1.5-1.57,3.58-.65,6.42,4.17,11.26,3.22,1.74.25,1.73-1.82.06-1.9-.22-.28-.65-.59-.76-.95-1.36-4.4-8.17-7.62-8.46-17.5-.03-.89-.77-1.78-.38-2.85.2-.56.85-.79,1.75-.69Z" fill="#f3be3f"/><path d="M63.5,102.06c-.08-.63-.06-1.27.06-1.9,1.67.08,1.69,2.14-.06,1.9Z" fill="#eab957"/><circle cx="56.22" cy="96.65" r=".5" fill="#5e3110"/><path d="M174.25,150.03c0,9.07-7.36,16.43-16.43,16.43s-16.43-7.36-16.43-16.43,7.36-16.43,16.43-16.43,16.43,7.36,16.43,16.43ZM171.97,150.14c0-7.79-6.32-14.11-14.11-14.11s-14.11,6.32-14.11,14.11,6.32,14.11,14.11,14.11,14.11-6.32,14.11-14.11Z" fill="#1b6056"/><path d="M113.53,150.11c0,9.02-7.31,16.33-16.33,16.33s-16.33-7.31-16.33-16.33,7.31-16.33,16.33-16.33,16.33,7.31,16.33,16.33ZM111.38,150.13c0-7.78-6.31-14.09-14.09-14.09s-14.09,6.31-14.09,14.09,6.31,14.09,14.09,14.09,14.09-6.31,14.09-14.09Z" fill="#1b6056"/><path d="M187.88,178.07c-11.2,12.11-37.3,18.52-53.33,17.72-.22-1.7.53-3.29,1.06-4.87.75-.61.49-2.58,1.9-2.78,3.18-.47,1.95-5.34,5.06-8.06,6.64,3.41,19.69,6.87,26.03,4.81l6.85-2.22c1.5-.49,3.56-2.3,4.26-3.51,2.3-.21,3.94-2.64,6.09-3.74,1.8-.92,2.33,1.64,2.07,2.66Z" fill="#f3be3f"/><path d="M121.91,196.12c-12.32-.03-24.79-2.3-36.2-6.91-.01-.65-.34-1.3-1.03-2.02-.74-.82-.98-1.6-.87-2.34,3.77-.35,7.67.87,11.88.15l6.85-1.18c4-.69,7.15-3.34,11.09-3.96,1.59,4.68,2.97,9,6.07,12.38,1.18,1.28,2.52,2.2,2.21,3.87Z" fill="#f3be3f"/><path d="M167.64,198.9c.31.68,0,1.02-.56,1.19s-1.05.23-1.52.24c-.35,0-.69.01-.93-.3.89-.2,1.76-1.71,3.01-1.13Z" fill="#eab957"/><path d="M135.75,174.07c.14.33.93.69.76,1.17-.44,1.25.48,3.2-.28,4.4-1.66,2.63-5.87-3.71-12.47.03-1.2.68-5.15.74-4.55-1.54.9-3.44,3.95-8.3,7.21-10s6.76,2.7,7.42,5.44c.49,1.53,1.78,2.17,1.91.51Z" fill="#693f25"/><path d="M132.08,181.57c-.4,3.17-2.53,4.45-4.8,4.43-1.7-.02-4.91-2.08-4.41-3.98,2.57-1.81,5.87-2.23,9.21-.45Z" fill="#cc903e"/><path d="M130.77,190.77c-2.16,2.19-6.31,1.26-6.96-1.63-.69-3.06,3.9,3.89,10.64-4.16.44,2.84-1.89,3.98-3.68,5.79Z" fill="#cc903e"/><path d="M121.26,186.1c-.88-.82-1.85-1.53-2.83-2.93.42-1.19,1.32-1.3,1.23,0l1.6,2.94Z" fill="#cc903e"/><circle cx="122.22" cy="187.65" r=".5" fill="#cc903e"/><path d="M171.97,150.14c0,7.79-6.32,14.11-14.11,14.11s-14.11-6.32-14.11-14.11,6.32-14.11,14.11-14.11,14.11,6.32,14.11,14.11ZM169.16,150.02c0-6.23-5.05-11.28-11.28-11.28s-11.28,5.05-11.28,11.28,5.05,11.28,11.28,11.28,11.28-5.05,11.28-11.28Z" fill="#48b5a0"/><path d="M111.38,150.13c0,7.78-6.31,14.09-14.09,14.09s-14.09-6.31-14.09-14.09,6.31-14.09,14.09-14.09,14.09,6.31,14.09,14.09ZM108.37,150.23c0-6.07-4.92-10.99-10.99-10.99s-10.99,4.92-10.99,10.99,4.92,10.99,10.99,10.99,10.99-4.92,10.99-10.99Z" fill="#48b5a0"/><path d="M169.16,150.02c0,6.23-5.05,11.28-11.28,11.28s-11.28-5.05-11.28-11.28,5.05-11.28,11.28-11.28,11.28,5.05,11.28,11.28ZM152.42,148.57c-1.55,2.99.67,6.15,3.73,6.41,2.82.24,5.26-1.59,5.07-5.1-.12-2.26-2.76-5.38-5.8-3.95-.96.45-2.57,1.8-3,2.65Z" fill="#c5d4d4"/><path d="M108.37,150.23c0,6.07-4.92,10.99-10.99,10.99s-10.99-4.92-10.99-10.99,4.92-10.99,10.99-10.99,10.99,4.92,10.99,10.99ZM101.57,146.71c-.85-.83-2.55-2.1-3.5-1.3-1.27,1.08-3.24,2.47-3.88,3.88-1.24,2.73.94,5.19,3.07,5.65s4.16-.16,5.4-2.25c.91-1.53.9-4.03-1.09-5.98Z" fill="#c5d4d4"/><path d="M152.42,148.57c.44-.85,2.04-2.19,3-2.65,3.04-1.43,5.67,1.7,5.8,3.95.19,3.51-2.25,5.34-5.07,5.1-3.06-.26-5.28-3.41-3.73-6.41Z" fill="#1b6056"/><path d="M101.57,146.71c1.99,1.95,2,4.45,1.09,5.98-1.25,2.09-3.3,2.71-5.4,2.25s-4.31-2.93-3.07-5.65c.64-1.41,2.61-2.8,3.88-3.88.95-.81,2.66.47,3.5,1.3Z" fill="#1b6056"/></svg>