<?xml version="1.0" encoding="UTF-8"?><svg id="Layer_1" xmlns="http://www.w3.org/2000/svg" viewBox="0 0 255.12 255.12"><path d="M126.48,3.25c1.58.23,3.17.38,4.76.43.22-.41.22-.69.09-.88-.78-.14-1.55-.27-2.33-.39-1.14.05-2.02.16-2.53.84Z" fill="#f6f2eb"/><path d="M197.06,34.11c-.97-.18-2.56.4-3-.76,1,.04,2.54-.96,3,.76Z" fill="#f6f2eb"/><path d="M205.12,97.13c-2.6,1.85-2.76,5.8-4.6,8.94-1.54,2.63-3.73-4.95-3.89-5.37-2.54-7.06-9.75-4.68-10-7.82-.12-1.44,2.31-2.21,3.42-2.47,9.06-2.14,5.67-9.51,9.97-11.43,1.74,1.53,1.96,4.06,2.71,6.11,2.26,6.21,9.72,4.64,10.38,7.59.49,2.21-5.41,2.6-7.99,4.44ZM208.3,92.5c-8.55-2.82-5.32-3.83-9.06-8.72-.4,5.8-3.79,7.43-8.78,8.92,5.52,1.66,8.18,3.91,8.86,9.57,4.27-9.38,2.29-4.6,8.98-9.78Z" fill="#623920"/><path d="M208.3,92.5c-6.69,5.18-4.71.4-8.98,9.78-.69-5.67-3.34-7.91-8.86-9.57,4.99-1.49,8.39-3.12,8.78-8.92,3.75,4.89.52,5.9,9.06,8.72Z" fill="#eab957"/><path d="M185.18,216.08c5.3-2.71,8.43-8.59,10.11-14.68,2.76-10.05,1.28-20.25-2.9-29.82-3.97-9.1-10.7-15.89-18.23-22.48,2.04-2.33,4.12-3.92,6.09-5.91,15.4-15.53,11.8-42.91-2.46-59.16,2.51-1.01,4.25-1.96,5.32-3.71-.36-.4-.66-.85-.89-1.34-10.49,5.35-15.59,5.15-28.1,6.36-.7.07-1.43.05-.99.63.71,2,6.84,1.88,8.93,2.1.42-.9,1.36-.47,2-.2,3.1-1.03,6.69-2,10-1.94.86.02,1.7.26,2.19,1.02l-.1.86c8.18,5.71,13.9,28.29,10.45,37.57l-1.64,4.41c-4,10.79-8.95,13.31-17.72,19.83l2.91.5c.56.1,1.24-.02,1.78,0,.4.01,1.54-.43,1.81.13.96,2.02.23,4,.33,5.78h1c.05-.62-.17-1.44.71-1.84,11.32,10.48,17.02,21.25,18.2,35.98.11,6.86-2.64,18-8.7,21.93.1.55-.11,1.97-1.05,1.72l-3.17-.86-1.03-.04c-.61,2.5-2.55,4.52-5.62,5.17.04-2.69,1.09-4.63,2.61-6.13l-.17-1.92c-.54-.42-1.12-.79-1.73-1.1-2,2.09-2.28,5.23-4.27,7.82-.38.49-.76.95-1.12,1.4,2.98-.05,5.96.08,8.95.5,2.48-1.49,5.49-2.81,6.5-2.58Z" fill="#653511"/><path d="M64.12,219.24c-.33.28-1.02.56-1.44.97.8.05,1.6.11,2.4.16,2.09.14,4.18.29,6.27.44-1.04-.47-1.97-1.23-2.78-2.46-3.33-5.08-7.74-13.59-6.29-19.15-1.18-.33-2.36-.74-3.58-.87-.79,5.07,3.17,14.67,6.21,19.96.39.67-.27,1.06-.79.94Z" fill="#6f3608"/><path d="M61.44,219.7l-.38-1.86c-.23-.29-.51-.52-.83-.71-5.03.76-4.76-2.52-8.25-2.06,1.95,2.41,4.97,3.6,7.73,4.94.53.03,1.06.07,1.59.1.11-.08.18-.2.13-.41Z" fill="#5a341b"/><path d="M191.03,65.82c.14,3.3-.69,9.14-5.14,9.17-.01-.36,0-.72.04-1.08.57-.07,1.06-.4,1.33-.91.41-.8,1.26-1.57.96-3.15-2.29-.17-6.99,4.11-8.18,1.5-.41-.89,8.27-7.48,9.04-18.24,1.46-20.28-2.38,4.97-24.71,12.19l-14.47,4.68c-13.75,4.45-24.62,15.58-30.01,27.95-.42-.21-1.08-.26-1.55-.23-1.43-4.32-7.35-10.86-9.27-14.83.14-.5.54-.85,1.02-1.01,1.47.23,2.31,1.48,3.3,2.84l6.12,8.49c4.48-8.05,9.83-15.04,17.56-20.06,1.4-.91,2.95-1.3,4.1-3,2.43-.43,4.78-1.37,6.97-2.66-16.7-7.34-41.11-7.77-58.13-.08,2.06,1.62,4.55,2.14,6.94,2.68.55.43.82,1.69,1.9,2.35.14.66-.2,1.28-.8,1.58-16.82-8.74-33.8-6.02-47.84-28.23-1.81.82-.82,2.26-1.07,3.2-2.7,10.18,9.88,21.78,9.6,22.7-.78,2.61-6.85-2.22-9.37-2.55-.5,2.1,1.29,2.7,1.87,3.78,3.11,5.73,2.14,2.35,5.91,7.2.07.66.25,1.3.49,1.92-5.34.32-16.71-15.29-10.21-16.54.84-.16,1.63-.47,1.7-.89.41-2.29-5.64-10.08-2.25-19.91.46-1.33,1.79-2.09,2.82-2.13.96-.03,2.29.64,3.01,1.82,8.23,13.38,17.59,17.47,32.46,21.56,21.46-9.09,45.39-9.34,66.81-.01,15.13-3.08,25.25-8.44,33.45-21.61.71-1.15,2.12-1.82,3.04-1.77,1.04.05,2.34.81,2.81,2.14,2.69,7.59-.31,13.41-2.73,20.21,1.04.08,1.8.77,2.51.94Z" fill="#653511"/><path d="M62.22,83c.15.4.61.66.85.99-.19.68-.25,1.38-.17,2.08-.31.31-.53.71-.83,1.03-9.94,11.13-14.29,29.03-8.96,43.13.79,2.1,1.24,4.41,3.12,6.51,2.79,3.11,5.47,6.55,9.01,8.98,17.07,11.66,37.05,14.22,57.42,13.98,15.33-.18,29.86-3.23,43.29-9.73-.08,1.11-.39,2.17-.94,3.13-.05.28-.04.7-.03,1l-2.01,2.92c-.17-.53-.2-1.82-.87-1.97-3.75.7-6.99,2.72-9.97,3.88-21.08,4.34-42.65,5.05-64.11,0-1.19-.28-2.13-.04-2.88-.04-2.38-2.23-5.78-2.37-8.92-3.99-.7,2.42-.02,3.71-.14,5.2-1.15,13.85-4.8,28.53-13.81,39.1-1.18-.33-2.36-.74-3.58-.87.04-.26-.12-.61-.19-.87.86-.07,1.72-.2,2.55-.44.5-.14.91-.54,1.12-1,2.13-4.59,4.85-8.97,6.73-14.12,3.25-8.9,5.46-18.1,3.78-27.53-1.45-2.08-4.75-2.88-6.74-3.54-.11-1.01-.88-1.69-1.9-1.81-8.1-7.72-13.46-12.29-15.48-25.21-2.31-14.75,3.18-28.2,11.51-39.81.53-.74,1.07-1.24,2.14-1.01Z" fill="#653511"/><path d="M65.96,150.84c.43,10.75-.99,21.31-3.95,32.17-1.22,4.49-1.57,8.94-1.07,13.03l.12,1c-.83.24-1.69.38-2.55.44-2.34-8.22,4.31-23.07,4.52-36.44.03-2,.65-3.99.32-6,.51-.33.75-.31.76-.67.03-.57-.25-1.37-.62-1.39-1.65-.11-2.45,1.58-2.6,3.07-6.57,6.77-13.85,14.22-14.67,24.1l-.46,5.6c-.24-.07-.55.11-.8.09-2.12-.49-.98,21.8,3.02,19.26-.01.29-.02.61.06.88.14.48.24,1.55.96,1.14.17,1.56,1.38,2.65,2.08,3.99.44.84-.02,2.05-.04,2.92-5.48-3.88-8.68-13.69-9.01-21-.55-11.82,3.2-22.51,10.4-31.69,7.58-9.66,7.66-6.15,11.62-12.31,1.02.12,1.8.8,1.9,1.81Z" fill="#5a341b"/><path d="M60.23,217.13c-5.03.76-4.76-2.52-8.25-2.06-.26-.32-.61-.82-.94-1.05.01-.87.47-2.08.04-2.92.66-.06,1.29.81,2.16-.16-.89-3.94-2.2-7.09-2.17-10.95,2.24-4.86,2.46,5.46,6.13,11.68,1.16,1.97,2.45,3.6,3.03,5.46Z" fill="#6f3608"/><path d="M183.11,80.32c-.36-.4-.66-.85-.89-1.34,1.24-.63,2.42-2.74,2.83-3.86.28-.02.55-.13.83-.13,4.45-.03,5.29-5.86,5.14-9.17.79.19,1.87-.13,1.97.8.48,4.33-6,13.92-9.89,13.7Z" fill="#693f25"/><path d="M62.22,83c-1.06-.23-1.6.27-2.14,1.01-1.15-.1-1.91-1.15-2.47-2-.24-.62-.42-1.26-.49-1.92,1.96.47,4.33.85,5.1,2.91Z" fill="#6f3608"/><path d="M193.98,190.16c.11,6.86-2.64,18-8.7,21.93-.59-2.51,2.34-7.52,2.34-12.27-2.08-3.65-2.79,4.74-4.79,8.76-.79,1.6-1.52,2.95-1.77,4.37l-1.03-.04c-.87-.66-1.93-.93-3.01-.96l-.17-1.92c2.51-3.34,2.99-7.87,3.23-12.01.31-5.46-.48-10.87-1.65-16.63l-1.65-8.13c-.32-1.55-1.75-13.25-1.76-13.21.49-.29,1.85-1.54,2.8-.86,6.97,5,13.59,19.22,14.22,27.87.08,1.09-.07,2.25.6,2.73.33.24.85.34,1.34.36Z" fill="#efba47"/><path d="M175.25,205.02c-2.75.1,1.76-1.16-2.94-7.12-1.37-1.74-1.95-3.99-3.21-5.85-2.02-2.99-2.4-6.27-3.54-9.55-.51-1.47-1.76-2.5-1.74-4.29.02-1.82-.91-3.07-2.04-3.79-.18,1.23-.96,1.48-1.51,1.8l-.06,1.56c.76-.5,1.52.16,1.78.87.33.91-.06,1.98-.87,2.46.01.68.28,1.39.26,2.07,2.62-.65,2.29,9.69,2.49,11.85.25,2.7-.16,3.88-2.19,5.66-.87.76-.9,3.33-2.49,2.54-.17.52,0,1.15-.08,1.71,1.02.56.44,1.34.17,1.91-.4.82-1.43,1.79-2.24,1.3-2.54,6.38-7.39,8.77-9.27,11.94,7.34-.62,14.63-1.81,21.94-1.93.36-.45.74-.9,1.12-1.4,1.99-2.6,2.27-5.73,4.27-7.82.14-1.3.18-2.61.13-3.91Z" fill="#efba47"/><path d="M175.02,160.06s1.44,11.66,1.76,13.21l1.65,8.13c1.17,5.77,1.96,11.17,1.65,16.63-.92-.02-1.76-.45-2.28-1.21,1.51-4.65-2.31-15.3-2.01-17.71.41-3.2-1.02-7.63-1.59-12.11-.5-3.89.04-7.51-.15-10.97h1c-.12,1.33.18,2.72-.04,4.03Z" fill="#5e3110"/><path d="M193.98,190.16c-.49-.02-1.01-.11-1.34-.36-.66-.48-.52-1.64-.6-2.73-.63-8.65-7.26-22.87-14.22-27.87-.95-.68-2.31.57-2.8.86.22-1.32-.07-2.71.04-4.03.05-.62-.17-1.44.71-1.84,11.32,10.48,17.02,21.25,18.2,35.98Z" fill="#f1cc79"/><path d="M177.8,196.82c.52.76,1.36,1.19,2.28,1.21-.24,4.14-.72,8.67-3.23,12.01-.54-.42-1.12-.79-1.73-1.1.14-1.3.18-2.61.13-3.91,1.68-1.75,1.18-5.17-.33-7.14.44-.36.85-.74,1.22-1.18l1.66.11Z" fill="#6f3608"/><path d="M185.28,212.09c.1.55-.11,1.97-1.05,1.72l-3.17-.86c.25-1.41.97-2.77,1.77-4.37,2-4.02,2.71-12.41,4.79-8.76,0,4.76-2.93,9.76-2.34,12.27Z" fill="#6f3608"/><path d="M174.06,156.02c.19,3.46-.35,7.07.15,10.97.57,4.48,2,8.91,1.59,12.11-.42,2.8-2.68-10.91-2.66-10.14l-.19-8.89c-.08-3.56-1.14-6.74-1.02-9.96.4.01,1.54-.43,1.81.13.96,2.02.23,4,.33,5.78Z" fill="#493d24"/><path d="M157.06,208.15c.47-1.19,1.48-2.09,2.07-3.2.09-.56-.09-1.19.08-1.71l1.76-5.32.43-14.72c.02-.68-.25-1.39-.26-2.07-.77-.94-.95-2.14-.91-3.33l.06-1.56c-1.56-3.75-3.97-8.61-5.22-12.09-.69-.3-1.14-1.01-1.9-1.18-19.94,7.98-47.84,6.68-68.28.09-.52-.17-1.19.13-1.73.03-.99,5.9-5.94,12.61-6.07,20.01-.08,4.6-.6,9.31.1,13.89,2.26,14.75,13.98,21.78,13.87,25.07h14.38c.77-.03,1.55-.05,2.32-.09,12.51-.75,25.07-.87,37.57-1.66.82-.05,1.64-.11,2.46-.18,1.88-3.18,6.73-5.57,9.27-11.94Z" fill="#f7efd8"/><path d="M77.19,196.96c-.7-4.58-.18-9.29-.1-13.89.13-7.4,5.09-14.11,6.07-20.01-2.39-.92-4.57-2.37-7.07-2.95-1.15,13.85-4.8,28.53-13.81,39.1-1.45,5.56,2.96,14.07,6.29,19.15.81,1.23,1.74,1.98,2.78,2.46,6.47.47,12.96.96,19.45,1.21h.26c.11-3.28-11.61-10.31-13.87-25.06Z" fill="#efba47"/><path d="M63.03,161.02c-.21,13.38-6.87,28.22-4.52,36.44.07.26.23.61.19.87-.79,5.07,3.17,14.67,6.21,19.96.39.67-.27,1.06-.79.94-.62-1.08-1.86-1.48-3.06-1.39-.23-.29-.51-.52-.83-.71-.59-1.85-1.87-3.48-3.03-5.46-3.66-6.22-3.89-16.54-6.13-11.68-.03,3.86,1.28,7.01,2.17,10.95-.87.96-1.5.1-2.16.16-.7-1.34-1.9-2.42-2.08-3.99-.06-.52-.49-.95-.96-1.14-.08-.27-.07-.6-.06-.88.07-1.78-1.12-3.36-1.52-5.43l-1.32-6.68-.18-7.16c.26.02.56-.16.8-.09,1.06.3,1.38-.41,1.35-1.6-.12-6.27,8.24-21.63,14.35-24.94.58.49.91,1.45,1.55,1.82Z" fill="#efba47"/><path d="M189.07,53.11c-.77,10.76-9.45,17.36-9.04,18.24,1.19,2.62,5.89-1.67,8.18-1.5.3,1.58-.55,2.35-.96,3.15-.57.05-1.05.41-1.33.91-.04.36-.05.72-.04,1.08-.28,0-.55.11-.83.13-.35-2.42-8.75,3.87-15.25,4.73l-17.49,2.34c-8.29,1.11-20.37,5.77-25.36,12.82-1.1,1.55-2.28,2.51-4.02,2.08.15-4.68,5.88-11.08,10.24-14.13,3.2-2.24,5.64-5.77,9.49-7.42,19.61-8.39,32.05-7.44,44.69-26,1.21,1.8.57,3.16,1.7,3.57Z" fill="#f2bd41"/><path d="M141.15,70.12c-1.15,1.7-2.7,2.08-4.1,3-7.72,5.02-13.07,12.01-17.56,20.06l-6.12-8.49c-.98-1.36-1.83-2.61-3.3-2.84-2.73-4.56-6.71-7.81-11.25-9.44-1.08-.66-1.36-1.92-1.9-2.35-3.57-3.3,12.4-4.18,15.08-4.54,7.1-.95,18.86.26,26.07,1.65,1.97.38,3.31,1.09,3.08,2.95Z" fill="#f2bd41"/><path d="M55.96,74.25c1.51,4.47,17.23,6.41,22.13,7.07l13.03,1.77c2.04,1.45,4.69,1.74,7.35,2.73,2.81,1.04,5.16,2.74,7.73,3.38,1.28,2.72,4.3,3.51,5.15,5.78.49.62.36,1.56.69,2.22-6.18-3.89-11.26-8.29-18.92-9.31-1.93-.26-3.87-2.64-6.2-1.87-.87.29-1.94-.17-2.83.07-.19-.61-1.02-.66-1.96-.78l-16.44-2.15c-1.08-.14-1.94.59-2.62.85-.24-.34-.7-.6-.85-.99-.77-2.05-3.14-2.44-5.1-2.91-3.77-4.84-2.8-1.47-5.91-7.2,1.64.07,3.13.98,4.75,1.35Z" fill="#d49438"/><path d="M141.15,70.12c.23-1.85-1.11-2.57-3.08-2.95-7.21-1.39-18.97-2.61-26.07-1.65-2.68.36-18.65,1.24-15.08,4.54-2.39-.54-4.88-1.06-6.94-2.68,17.02-7.69,41.43-7.26,58.13.08-2.19,1.29-4.54,2.22-6.97,2.66Z" fill="#f1cc79"/><path d="M189.07,53.11c-1.13-.41-.49-1.77-1.7-3.57-12.64,18.56-25.08,17.61-44.69,26-3.85,1.65-6.29,5.18-9.49,7.42-4.36,3.05-10.09,9.45-10.24,14.13-.39.89-1.07,1.6-1.9,2.09-.39-.37-.67-1-1.17-1.25,5.39-12.37,16.26-23.5,30.01-27.95l14.47-4.68c22.33-7.22,26.17-32.47,24.71-12.19Z" fill="#f1cc79"/><path d="M98.02,73.99c4,2.08,7.26,6.38,11.03,8.87,1.92,3.97,7.84,10.51,9.27,14.83-2.15.15-1.98-4.6-5.85-6.75.02-2.05-1.65-3.18-3.39-3.8-.39-1.32-1.64-2.18-3-3.28l-9.97-8.07c-6.49-5.26-15.34-5.8-23.06-7.85-1.48-.87-3.55-1.84-5.49-2.7-2.82-1.26-4.65-3.83-7.42-4.35.44-.73-.53-.81-1.03-.9-.25-.04-.53-.05-.78-.04,1.31-.69-4.54-6.06-5.15-6.17-.37-2.18-1.76-4.51-4.07-4.83.25-.94-.74-2.37,1.07-3.2,14.04,22.21,31.03,19.49,47.84,28.23Z" fill="#f1cc79"/><path d="M118.33,97.7c.47-.03,1.12.02,1.55.23.5.25.77.88,1.17,1.25-.44.58-.73,1.06-.64,1.52.14.74,1.02,1.59,1.59.66-.44,1.45-.94,3.11-2.78,3.97-.99.29-7.51-8.84-7.16-8.13-.33-.66-.2-1.6-.69-2.22,1.78-.37.68-2.25,1.11-4.03,3.87,2.15,3.7,6.9,5.85,6.75Z" fill="#f2bd41"/><path d="M110.07,81.85c-.48.16-.88.51-1.02,1.01-3.77-2.49-7.03-6.79-11.03-8.87.6-.3.94-.92.8-1.58,4.53,1.63,8.52,4.88,11.25,9.44Z" fill="#6f3608"/><path d="M53.18,53.8c-.54-.34-1.04-.13-1.45.21-1.02.85-.91,5.32,1.49,6.02-1.13,4.78,7,7.24,6.5,12.05-.19,1.79-2.63,1.93-3.76,2.17-1.62-.37-3.1-1.29-4.75-1.35-.59-1.08-2.37-1.68-1.87-3.78,2.52.33,8.59,5.16,9.37,2.55.28-.92-12.3-12.52-9.6-22.7,2.31.33,3.7,2.66,4.07,4.83Z" fill="#eab957"/><path d="M185.92,73.91c.28-.5.75-.85,1.33-.91-.26.51-.75.84-1.33.91Z" fill="#cc903e"/><path d="M69.94,91.11c-5.48,4.02-8.76,9.91-11.73,15.88-1.3,2.62-2.81,6.35-1.71,10.53s1.84,8.73,4.68,12.55c3.24,4.36,7.53,8.55,12.19,11.5.22.14,15.08,4.61,10.45,2.59,5.44,2.37,17.39-.96,22.32-5.08,1.8.94,2.88,1.95,3.96,2.93,2.39,2.19,6.79,10.07,13.14,5.07,3.46-2.73,5.78-6.33,7.07-10.2,7.11,4.47,15.07,7.37,23.93,6.36,12.31-1.42,22.09-9.8,25.17-21.23,3.17-11.77-1.51-23.57-11.04-30.88.97-2.53,5.96.6,7.78-3.32,8.18,5.71,13.9,28.29,10.45,37.57l-1.64,4.41c-.28-.18-.68-.5-1.39-.66-16.41,27.63-65.34,28.6-93.06,22.53-15.6-3.42-26-8.23-35.32-20.82-.54-.72-1.56-.57-2.07-.61-5.33-14.1-.98-32,8.96-43.13,3.88,3.51,6.62,1.24,7.86,4Z" fill="#f2bd41"/><path d="M184.96,129.79c-4,10.79-8.95,13.31-17.72,19.83-.36-.02-.93.19-1.27.35-13.43,6.49-27.96,9.55-43.29,9.73-20.38.24-40.35-2.31-57.42-13.98-3.55-2.42-6.22-5.87-9.01-8.98-1.88-2.09-2.33-4.41-3.12-6.51.51.04,1.53-.12,2.07.61,9.32,12.59,19.72,17.4,35.32,20.82,27.71,6.08,76.65,5.11,93.06-22.53.72.16,1.11.47,1.39.66Z" fill="#d49438"/><path d="M152.15,158.94c.63,1.25,1.06,2.6,1.03,4.01-19.94,7.98-47.84,6.68-68.28.09.18-1.37.27-2.75.26-4.14.75,0,1.69-.25,2.88.04,21.46,5.05,43.03,4.35,64.11,0Z" fill="#dec6a3"/><path d="M171.93,150.12c-.12,3.22.94,6.39,1.02,9.96l.19,8.89c-.02-.78,2.24,12.94,2.66,10.14-.31,2.41,3.52,13.06,2.01,17.71l-1.66-.11c-3.37-7.71-10.84-22.56-10.98-31.85l-.16-10.75c0-.3-.02-.72.03-1,.67-.63,5.93-1.72,5.12-2.98.56.1,1.24-.02,1.78,0Z" fill="#52ae90"/><path d="M62.18,196.02h-1.24c-.49-4.08-.15-8.53,1.07-13.02,2.95-10.85,4.37-21.42,3.95-32.17,1.99.66,5.28,1.46,6.74,3.54,1.68,9.43-.53,18.63-3.78,27.53-1.88,5.15-4.6,9.53-6.73,14.12Z" fill="#52ae90"/><path d="M176.14,196.71c-.37.43-.78.82-1.22,1.18-6.28-8.2-10.04-18.57-11.16-28.86.3-.65.89-6.77-.7-6v-4l-.07-2,2.01-2.92.16,10.75c.14,9.3,7.61,24.14,10.98,31.85Z" fill="#493d24"/><path d="M84.11,86.08c-1.59,2.5-4.81,1.3-7.15,2.04-.66-.72-13.16-2.85-14.04-2.04-.08-.7-.02-1.4.17-2.08.68-.26,1.54-.99,2.62-.85l16.44,2.15c.95.12,1.77.17,1.96.78Z" fill="#6f3608"/><path d="M162.99,157.02l.07,2c-2.91,2.39-8.07,3.78-7.98,5.1-.69-.3-1.14-1.01-1.9-1.18.03-1.41-.39-2.76-1.03-4.01,2.98-1.16,6.21-3.18,9.97-3.88.67.15.7,1.44.87,1.97Z" fill="#cc903e"/><path d="M85.15,158.9c0,1.38-.08,2.77-.26,4.14-.52-.17-1.19.13-1.73.03-2.39-.92-4.57-2.37-7.07-2.95.12-1.49-.56-2.78.14-5.2,3.14,1.62,6.54,1.75,8.92,3.99Z" fill="#cc903e"/><path d="M76.95,88.12c-2.17.68-5.18,1.65-7.01,2.99-1.24-2.76-3.99-.49-7.86-4,.29-.33.52-.72.83-1.03.88-.81,13.38,1.32,14.04,2.04Z" fill="#cc903e"/><path d="M170.15,150.12c.81,1.26-4.45,2.35-5.12,2.98.56-.96.87-2.02.94-3.13.34-.16.9-.37,1.27-.35l2.91.5Z" fill="#493d24"/><path d="M61.06,197.02l-.12-1h1.24c-.22.46-.63.85-1.12,1Z" fill="#693f25"/><path d="M86.94,86.01c-.35,2.03,4.5,2.39,6.2,1.87,7.66,1.02,12.74,5.42,18.92,9.31-.35-.71,6.17,8.42,7.16,8.13,1.83-.86,2.34-2.52,2.78-3.97,1.61-.54,2.44-2.23,3.95-3.41l6.14-4.75c1.95-1.51,3.83-2.73,5.91-3.17,1.6.13,3.33,0,5.12-.86,4.79-2.3,8.74.33,8.11-3.13.62.08,1.27-.1,1.9-.06.71,2,6.84,1.88,8.93,2.1.64.36,1.44.56,2,1.06,1.17,1.03,3.14,1.1,4.3,2,9.53,7.32,14.21,19.12,11.04,30.88-3.08,11.43-12.87,19.81-25.17,21.23-8.85,1.02-16.81-1.89-23.93-6.36.61-1.84-.88-3.38-1.11-4.86-.76-4.85-3.93-8.68-8.71-9.33-5.03-.68-9.5,2.64-10.82,7.57-.45,1.66.93,2.02,1.36,2.76,2.64,4.55,3.06,2.05,4.95,5.55l-2.05.57c-.37.1-.89-.51-1.35-.31s-.66.65-.79,1.09c-.51-.02-1.06.18-1.56.09-1.24-.22-1.48-1.44-2.48-3.19-12.89,10.09-34.23,8.4-44.8-5.68-6.34-8.45-4.87-14.92-4.73-24.16,2.96-5.97,6.25-11.87,11.73-15.88,1.83-1.34,4.84-2.31,7.01-2.99,2.34-.74,5.57.46,7.15-2.04.89-.24,1.97.22,2.83-.07ZM132.75,134.98c9.15,6.33,20.29,7.39,29.96,2.85,12.26-5.75,18.4-19.59,13.12-32.41-4.09-9.92-14.64-17.32-25.64-16.27-12.62,1.2-22.93,9.61-29.3,19.72-.79,1.25-1.12,2.02-2.14,1.6-.69-.29-1.06-.56-1.69-1.57-6.65-10.72-17.67-19.36-31.05-19.85-11.05-.4-20.79,7.76-24.26,17.89-4.07,11.88,1.51,24.27,12.33,30.21,10.56,5.8,23.42,4.23,32.54-3.02-1.49-7.52,5.79-14.06,12.46-14.08,5.94-.02,11.02,4.59,12.51,9.99.41,1.49-.68,3.69,1.13,4.95Z" fill="#5e3110"/><path d="M185.06,75.12c-.41,1.12-1.59,3.23-2.83,3.86-10.49,5.35-15.59,5.15-28.1,6.36-.7.07-1.43.05-.99.63-.63-.04-1.28.14-1.9.06-2.06-.25-12.31,1.93-13.23,3.99-2.08.44-3.96,1.66-5.91,3.17l-6.14,4.75c-1.52,1.17-2.34,2.87-3.95,3.41-.57.94-1.45.09-1.59-.66-.09-.46.2-.94.64-1.52.83-.49,1.51-1.2,1.9-2.09,1.74.44,2.92-.53,4.02-2.08,4.98-7.05,17.07-11.71,25.36-12.82l17.49-2.34c6.5-.87,14.89-7.16,15.25-4.73Z" fill="#cc903e"/><path d="M174.06,85.93c0,1.16,1.32,1.16,2.19,1.02l-.1.86c-1.82,3.92-6.81.79-7.78,3.32-1.17-.9-3.13-.97-4.3-2v-1.25c3.1-1.03,6.69-2,10-1.94Z" fill="#d49438"/><path d="M176.25,86.95c-.87.14-2.18.14-2.19-1.02.86.02,1.7.26,2.19,1.02Z" fill="#f2bd41"/><path d="M164.06,87.87v1.25c-.56-.49-1.36-.7-2-1.06.42-.9,1.36-.47,2-.2Z" fill="#cc903e"/><path d="M63.03,161.02c-.64-.37-.97-1.33-1.55-1.82-6.11,3.31-14.47,18.67-14.35,24.94.02,1.18-.29,1.9-1.35,1.6l.46-5.6c.81-9.88,8.1-17.33,14.67-24.1.58-.59,1.78-.56,2.45-1.01.33,2.01-.28,4-.32,6Z" fill="#f1cc79"/><path d="M47.99,205.09c-4,2.54-5.14-19.75-3.02-19.26l.18,7.16,1.32,6.68c.41,2.06,1.6,3.65,1.52,5.43Z" fill="#6f3608"/><path d="M63.35,155.02c-.68.45-1.88.42-2.45,1.01.15-1.48.95-3.18,2.6-3.07.36.02.64.82.62,1.39-.02.35-.25.34-.76.67Z" fill="#653511"/><path d="M49,207.11c-.72.41-.82-.66-.96-1.14.47.19.9.62.96,1.14Z" fill="#6f3608"/><path d="M163.06,159.02v4c0,2.02-.6,4.29.7,6,1.12,10.29,4.88,20.66,11.16,28.86,1.51,1.97,2.01,5.39.33,7.14-2.75.1,1.76-1.16-2.94-7.12-1.37-1.74-1.95-3.99-3.21-5.85-2.02-2.99-2.4-6.27-3.54-9.55-.51-1.47-1.76-2.5-1.74-4.29s-.91-3.07-2.04-3.79c-.18,1.23-.96,1.48-1.51,1.8-1.56-3.75-3.97-8.61-5.22-12.09-.09-1.32,5.07-2.71,7.98-5.1Z" fill="#eab957"/><path d="M159.21,203.23l1.76-5.32.43-14.72c2.62-.65,2.29,9.69,2.49,11.85.25,2.7-.16,3.88-2.19,5.66-.87.76-.9,3.33-2.49,2.54Z" fill="#eab957"/><path d="M161.14,181.11c-.77-.94-.95-2.14-.91-3.33.76-.5,1.52.16,1.78.87.33.91-.06,1.98-.87,2.46Z" fill="#eab957"/><path d="M157.06,208.15c.47-1.19,1.48-2.09,2.07-3.2,1.02.56.44,1.34.17,1.91-.4.82-1.43,1.79-2.24,1.3Z" fill="#eab957"/><path d="M58.33,59.96c.26-.01.53,0,.78.04-.04.64.53.8,1.03.9,2.76.52,4.6,3.09,7.42,4.35,1.94.87,4.01,1.83,5.49,2.7-.06.44-.14,1.05.13,1.45.21.32.91.81,1.6.86,3.45.24,5.79,1.91,8.66,3.19-.49-.22,13.02,2.91,10.84,7.77-.44.98-3.04.7-3.16,1.87l-13.03-1.77c-4.9-.66-20.62-2.6-22.13-7.07,1.13-.24,3.57-.38,3.76-2.17.5-4.82-7.63-7.27-6.5-12.05,1.7.06,3.4.02,5.1-.06Z" fill="#f3be3f"/><path d="M109.08,87.15c-.64,1.05-1.9,1.37-2.87,2.04-2.57-.64-4.92-2.33-7.73-3.38-2.66-.99-5.31-1.28-7.35-2.73.12-1.17,2.72-.89,3.16-1.87,2.18-4.86-11.33-7.98-10.84-7.77-2.87-1.27-5.21-2.95-8.66-3.19-.7-.05-1.39-.54-1.6-.86-.27-.41-.19-1.01-.13-1.45,7.72,2.05,16.57,2.6,23.06,7.85l9.97,8.07c1.37,1.11,2.61,1.96,3,3.28Z" fill="#f2bd41"/><path d="M112.48,90.94c-.43,1.78.67,3.66-1.11,4.03-.86-2.27-3.88-3.06-5.15-5.78.97-.68,2.23-.99,2.87-2.04,1.75.62,3.41,1.74,3.39,3.8Z" fill="#f3be3f"/><path d="M93.14,87.88c-1.7.51-6.55.16-6.2-1.87,2.33-.77,4.27,1.62,6.2,1.87Z" fill="#6f3608"/><path d="M53.18,53.8c.61.1,6.46,5.48,5.15,6.17-1.7.08-3.4.12-5.1.06-2.4-.69-2.51-5.17-1.49-6.02.4-.34.91-.55,1.45-.21Z" fill="#f2bd41"/><path d="M60.15,60.9c-.5-.09-1.07-.26-1.03-.9.5.09,1.47.17,1.03.9Z" fill="#f2bd41"/><path d="M130.31,136.88c-1.29,3.87-3.61,7.47-7.07,10.2-6.35,5-10.75-2.88-13.14-5.07l.13-2c.5.09,1.05-.12,1.56-.09,2.11.9,4.38,6.14,8.11,5.13,2.45-.67,4.54-2.48,5.17-5.12-2.61.75-3.86,2.66-6.45,2.06-1.48-.34-4.08-.84-4.68-2.85l2.05-.57c4.45,2.39,9.07-2.05,11.18-5.38.45-.57,1.44-.77,2.03-1.17.23,1.49,1.72,3.03,1.11,4.86Z" fill="#6f3608"/><path d="M110.23,140.02l-.13,2c-1.07-.98-2.15-1.99-3.96-2.93-4.93,4.12-16.87,7.45-22.32,5.08,4.63,2.02-10.23-2.45-10.45-2.59-4.66-2.94-8.94-7.14-12.19-11.5-2.84-3.83-3.55-8.28-4.68-12.55s.41-7.92,1.71-10.53c-.14,9.24-1.62,15.71,4.73,24.16,10.57,14.08,31.92,15.77,44.8,5.68.99,1.74,1.23,2.97,2.48,3.19Z" fill="#eab957"/><path d="M163.76,169.02c-1.3-1.71-.7-3.98-.7-6,1.59-.77,1,5.35.7,6Z" fill="#653511"/><path d="M132.75,134.98c-1.82-1.26-.72-3.46-1.13-4.95-1.48-5.4-6.57-10.01-12.51-9.99-6.67.02-13.95,6.56-12.46,14.08-9.12,7.25-21.98,8.82-32.54,3.02-10.82-5.94-16.4-18.34-12.33-30.21,3.47-10.12,13.21-18.29,24.26-17.89,13.37.49,24.39,9.13,31.05,19.85.63,1.01.99,1.29,1.69,1.57,1.02.42,1.35-.35,2.14-1.6,6.36-10.11,16.68-18.53,29.3-19.72,10.99-1.04,21.55,6.35,25.64,16.27,5.28,12.82-.86,26.66-13.12,32.41-9.67,4.53-20.81,3.47-29.96-2.85ZM82.92,128.64c8.34,4.72,17.67,1.23,21.53-7.11,2.16-4.66,1.86-9.56-.81-14.29-2.98-5.29-11.27-9.43-17.61-7.22-6.3,2.2-10.77,6.84-11.41,13.01-.66,6.35,1.98,12.03,8.29,15.6ZM162.31,118.6c.98.52,1.92-.29,2.31-.68.49-.48.5-1.48-.11-2.66-7.55-7.19-19.53-7.17-27.18,0-1.32,1.24-3.15,3.66-1.86,5.3,2.4,3.06,11.79-9.85,26.84-1.97Z" fill="#f7f9f5"/><path d="M127.16,133.19c-2.12,3.33-6.73,7.77-11.18,5.38-1.89-3.5-2.31-1-4.95-5.55-.84-2.47.22-4.8,2.62-6.53,3.3-2.38,7.66-2.58,11.5-.16,2.03,1.28,1.73,4.78,2.01,6.86Z" fill="#d49438"/><path d="M129.19,132.02c-.59.4-1.58.6-2.03,1.17-.28-2.08.02-5.58-2.01-6.86-3.84-2.41-8.2-2.22-11.5.16-2.4,1.73-3.47,4.06-2.62,6.53-.43-.74-1.81-1.1-1.36-2.76,1.32-4.93,5.78-8.25,10.82-7.57s7.96,4.48,8.71,9.33Z" fill="#eab957"/><path d="M151.23,86.03c.64,3.46-3.31.83-8.11,3.13-1.79.86-3.52.99-5.12.86.92-2.06,11.17-4.25,13.23-3.99Z" fill="#653511"/><path d="M113.93,139.15c.6,2.01,3.2,2.5,4.68,2.85,2.59.6,3.83-1.32,6.45-2.06-.62,2.63-2.71,4.45-5.17,5.12-3.73,1.01-5.99-4.23-8.11-5.13.12-.44.34-.89.79-1.09s.98.42,1.35.31Z" fill="#cc903e"/><path d="M82.92,128.64c-6.32-3.57-8.95-9.25-8.29-15.6.64-6.16,5.11-10.8,11.41-13.01,6.34-2.22,14.63,1.93,17.61,7.22,2.66,4.73,2.96,9.63.81,14.29-3.86,8.34-13.2,11.83-21.53,7.11ZM80.36,112.01c-.89,3.42-.23,7.29,2.88,9.89,4.05,3.38,10.72,4.26,13.74.18-2.28,3.07,8.81-6.11.81-14.24-2.6-2.64-6.27-4-10.81-2.57-1.66.53-3.84-.67-5.24.92-1.22,1.38-1.78,3.14-1.38,5.81Z" fill="#48b5a0"/><path d="M162.31,118.6c-15.05-7.88-24.44,5.03-26.84,1.97-1.29-1.64.54-4.06,1.86-5.3,7.65-7.18,19.63-7.2,27.18,0,.61,1.18.6,2.19.11,2.66-.4.39-1.33,1.19-2.31.68Z" fill="#623920"/><path d="M96.98,122.08h0c-3.02,4.07-9.69,3.19-13.74-.18-3.12-2.6-3.77-6.46-2.88-9.89.91.26,1.72,1.13,3.05,1.41,2.89.61,5.71-2.14,5.11-5.06-.28-1.37-1.22-2.18-1.54-3.08,4.55-1.44,8.22-.07,10.81,2.57,8,8.13-3.09,17.31-.81,14.24Z" fill="#1b6056"/><path d="M86.98,105.27c.33.91,1.26,1.71,1.54,3.08.6,2.92-2.22,5.66-5.11,5.06-1.34-.28-2.14-1.14-3.05-1.41-.4-2.67.17-4.43,1.38-5.81,1.4-1.59,3.57-.39,5.24-.92Z" fill="#f7f9f5"/></svg>