<?xml version="1.0" encoding="UTF-8"?><svg id="Layer_1" xmlns="http://www.w3.org/2000/svg" viewBox="0 0 255.12 255.12"><path d="M139.99,234.35l.22-3.86c.05-.87.43-1.37,1.08-.92,0,1.92.45,3.76-1.3,4.79Z" fill="#f5eee6"/><path d="M172.07,234.39l.08-2.85c.02-.74-.09-1.33.58-1.13.54,1.38.97,3.26-.66,3.98Z" fill="#f7efd8"/><path d="M185.3,231.41c-.24.92-1.01.9-1.66,1.09-1.38.41-1.82-.59-2.59-1.05l4.25-.05Z" fill="#f7efd8"/><path d="M169.61,200.51c3.81.89,7.92.23,12.05-.95,2.65-.75,15.23,3.67,33.16-5.75,1.55-.81,2.57-2.12,3.99-2.45l7.26,3.1c1.45.62,3.1,2.22,2.29,3.88-3.46,7.13-45.65,11.01-54.85,11.68-38.4,2.82-100.27,3.03-137.07-7.07-2.38-.65-6.58-2.48-6.57-5.21.02-4.14,9.74-5.12,10.78-7.01,20.28,21.84,49.47,11.67,59.89,12.77,3.5.37,3.64,2.98,17.61,1.67,10.73,7.21,33.71,2.04,44.76-3.35,2.46-1.2,4.31-1.87,6.7-1.32Z" fill="#dec6a3"/><path d="M216.33,61.51c3.94,1.65,10.77-1.3,11.07,2.73.15,2.02-.69,2.77-2.78,2.77h-13.06c-9.58-.01,5.47-14.2,7.46-17.65-2.96-1.72-6.04-.23-9.09-1.15-1.32-.4-1.41-2.04-1.25-2.82.24-1.13,1.42-1.93,2.95-1.93l12.03-.03c1.47,0,2.49.36,3.17,1.55.46.8.49,2.28-.48,3.53l-10.04,13Z" fill="#623920"/><path d="M196.05,74.47c23.95,2.16-4.81,7.35-6.75,3.28-.23-.48-.38-1.55.2-2.3l8.23-10.54c-2.61-.29-4.58.2-6.99-.21-1.23-.21-1.42-1.58-1.22-2.44.55-2.42,11.09-1.45,13.03-1.02s1.11,3.39.17,4.6l-6.67,8.62Z" fill="#5a341b"/><path d="M184.52,90.88c-.33.07-11.45,1.16-9.89-2.04,1.34-2.74,3.63-4.34,5.19-6.93-1.73-1.03-3.17-.66-4.79-.91-.69-.1-.75-2.59-.06-2.66,3.29-.31,6.81-.89,9.75.34,2.63,1.1-4.81,7.68-4.56,8.88,1.54.48,3.38.24,4.73.85.45.21.52,2.3-.37,2.47Z" fill="#693f25"/><path d="M174.7,109.66c-.79-.86,1.14,15.57,2.12,11.94.27-.03.54-.02.8.02,0,1,.07,2,.19,2.99l.09,2.07-.41,2.98v1.01c-.25.02-.48.1-.73.1-.53-.24-.98.02-1.13.45-.23.71.05,2.01.92,1.57-.26,1.28-.71,2.53-.89,3.83-.81-.31-1.27.68-1.62,1.17-.39.54-.16,1.53-.09,2.18.1.9-.12,1.84-.21,2.73-.7-.09-1.2.48-1.67.98-.68.75-.43,1.75.49,2.23l.07,1.64v3.27c-.69-.16-2.16-1.27-2.94-.06-4.99,7.79-7.22,7.36-12.27,13.61,1.46.85,2.46.13,3.07.78l.07,1.42c-.27.3-.93.63-1.01,1.04-2.26,1.79-6.58.52-8.93,3.09-10.57-.65-27.08,1.45-37.6,5.36-8.55,3.18-21.02,10.18-23.39,19.43.99.42,1.52.2,2,.3,10.36,2.19,16.26-6.85,26.98-9.52,1.03-.26.94,1.23.41,1.43-.47.18-.72.75-1.21,1.04-4.17,2.46-8.3,4.43-11.12,7.93-.93,1.16-3.99,2.64-2.64,4.67,6.43,4.02,19.43-1.06,24.45-4.59,2.12-.51,4.65-1.41,7.05-2.43,2.19,1.05-5.75,5.54-5.91,5.62-2.1,1.13-5.02,1.05-6.33,3.89,9.65,4.59,30.46-.42,39.88-5.56,17.43-9.51,20.36-29.76,14.76-38.84l-5.32-8.62,4.05.94c.07.22,0,.53.03.77-.42,1.9,1.2,3.19,2.09,4.97,3.77,7.53,3.47,14.24,4.48,21.33-1.43-1.15-2.62,6.47-4.79,8.97.26,1.39,2.04.71,3.44.51.99-.14,1.63-1.25,1.56-2.72.56.41,1.05,1.04,1.09,1.62.11,1.54-3.81,3.14-5.91,3.98l-3.94,1.58c-2.26-.03-4.34,1.61-4.17,3.94l.09,1.17c-.8.63-1.15,1.62-1.06,2.63-2.39-.56-4.23.12-6.7,1.32-11.05,5.39-34.03,10.55-44.76,3.35-13.97,1.31-14.11-1.3-17.61-1.67-10.41-1.1-39.6,9.07-59.89-12.77-5.14-9.53-5.45-20.67,1.27-29.97-12.12-17.84-10.47-38.23-.86-57.1-5.18-2.33-15.8-9.57-14.15-16.07.47-1.84,3.2-.76,4.77-1.07-4.42-4.49-9.03-19.38-3.97-21.95.87-.44,2.28-.15,3.15.91,7.56,9.19,17.69,15.14,29.37,16.98,20.96-16.65,52.61-20.7,77.41-11.34,7.8-2.94,14.4-7.65,19.09-14.4l5.71-8.22c.64-.91,1.86-1.12,2.62-.9,5.16,1.51,3.6,17.67-.4,23.07,1.65-.77,2.8-1.15,4.34-.66,3.69,1.18.17,10.65-6.3,15.76-1.09.86-1.57,2.14-.5,3.29,5.73,6.18,9.33,13.26,12.48,20.59ZM103.37,101.84c-.49.35-1.16.88-1.52,1.78l-3.64,9.1c-1.42-.17-1.92-1.28-2.77-1.88-4.88-9.95-17.22-20.29-28.52-23.36l-13.46-3.65c-9.71-2.64-17.85-8.06-24.1-15.71-1.33,1.28-.51,2.42-.52,3.46-.03,6.21,4.92,14.12,9.69,17.27.09.63.75,1.86.17,2.38-2.07.33-3.5-.31-4.95-.51-.24-.59-.52-.69-.79-.99-.43-.47-3.13-.07-2.61,1.11,2.39,5.41,7.72,8.64,13.19,10.18,17.75,5,28.29-3,48.31,11.86,2.77,2.06,3.77,6.21,6.82,9.04l4.71-8.64c.82-1.5,2.04-2.54,2.14-3.97l2.2-1.73c26.9-21.12,34.67-9.02,53.27-23.5,2.27-1.77,4.07-4.1,4.53-6.56.22-1.16.99-1.88,1.07-3.9l-7.1,3.74c-.63.33-1.56.29-1.9-.02-.38-.34-.43-.73.02-1.72,2.87-3.53,4.78-7.37,6.77-11.46.96-1.98.21-3.86.59-5.35.61-2.45,1.46-5.15-.97-8.48-11.44,21.04-21.1,20.74-39.07,29.88-9.49,4.83-17.62,12.19-21.57,21.63ZM71.48,85.57c10.11,5.05,19.26,11.43,25.57,22.28,4.55-11.6,11.95-21.78,23.27-28.29,1.29-.74,2.55-1.43,3.54-2.83,3.23-.5,6.11-2.07,9.89-3.63-21.34-7.78-50.91-4-69.05,10.09,2.31,1.63,4.4,1.69,6.78,2.38ZM145.67,98.76l7.82,5.09c.08.41.58.88.99.95l2.13,2.9c1.52,2.08,2.28,4.36,3.78,6.02-.02.29-.03.73.08,1,.92,2.24,1.44,4.59,1.16,7-.09.77.01,1.98,1,2l.05,10.96c-4.18,7.95-3.59,8.71-9.05,15.12-.38.13-.73.59-.94.91-1.37.27-2.41,1.36-3.85,2.25-10.36,6.4-23.05,6.42-33.43.03-1.3-.8-2.43-1.32-3.47-.42-1.02-.85-2.23-1.41-3.38-2.05,1.17-1.79,1.38-3.64.52-5.45-1.02-2.17-2.48-2.78-4.36-3.56-2.15-.9-4.4-1.88-7.14-.59-1.8.86-3.44,3.02-4.22,5.64-1.11,3.71.58,6.88,2.07,9.88.28.56.68.92,1.12,1.32.32.29.44.98,1.06.96l3.92-.16c-.02,1.12.86,1.95,1.96,2.01-.08.71-.09,1.43-.03,2.14-3.19.2-3.28-1.71-6.82-.28-.26-.25-.56-.58-.9-.71-.87-1.49-1.91-2.89-3.18-4.07-.3-.28-.4-.8-.84-.97-.15-.86-.78-1.24-1.08-.23l-1,.09c-7.59,8.29-23.84,9.46-33.71,4-10.04-5.56-15.64-16.26-15.51-27.83s5.47-20.43,14.53-26.54c-3.97-1.08-6.78-1.16-10.51-1.7-7.96,13.25-10.14,29.1-5.71,43.85,1.3,4.34,3.49,7.31,6.06,10.17s4.62,5.59,7.99,8.26l3.82,3.04c-.17.72-.47,1.41-1.03,1.9-4.16-2.53-8.28-4.89-11.62-9.21-2.85,5.14-4.72,9.82-4.44,15.18.94,17.68,23.18,25.9,39.23,23.62-3.09-1.1-6.26-3.62-8.28-3.83-.33-1.07-1.5-2.12-1.23-3.78.83-.67,2.38.39,3.39,1.06,5.02,3.33,10.28,5.41,15.88,5.8,3.28.23,9.23,1.02,12.16-1.49l-11.94-.51c-4.56-3.93.36-9.59,2.94-12.99.74-.98,4.29-2.28,4.07-4.55,1.56-.03,3.32-.85,3.87-2.33,4.66-2.75,14.02-5.24,17.04-7.75,2.17.44,9.04-1.66,11.93-2.05,14.43-1.95,17.17,1.87,32.67-12.52,10.7-9.93,14.9-24.24,12.07-38.49-.54-2.73-.54-5.46-2.33-7.15-1.01-6.68-5.2-13.45-10.06-18-.36-.93-1.24-3.88-3.13-2.95-5.89,2.89-11.46,5.03-18.38,6.17,1.99,1.85,4.42,1.62,6.27,2.82ZM90.43,151.64c-.8-4.59.4-8.06,2.84-10.8,2.03-2.28,5.39-3.98,9.01-3.45,5.3.78,9.05,4.87,10.58,10.14,7.74,7.25,18.91,9.34,29.2,5.63,15.22-5.49,21.98-22.63,15.59-37.48-5.19-12.06-18.18-19.71-31.15-16.03s-20.96,13.8-25.69,25.31c-.47,1.14-.72,2.02-1.69,1.74-.39-.12-1.16-.15-1.65-1.08-6.39-11.92-19.85-21.44-34.22-19.22-12.29,1.9-19.93,14.46-20,26.16-.05,8.83,2.94,16.65,9.42,22.24,11.29,9.74,28.15,8.07,37.76-3.17ZM156.63,165.21c0-.28-.22-.5-.5-.5s-.5.22-.5.5.22.5.5.5.5-.22.5-.5Z" fill="#653511"/><path d="M90.43,151.64c-9.61,11.24-26.47,12.92-37.76,3.17-6.47-5.59-9.46-13.41-9.42-22.24.06-11.7,7.7-24.26,20-26.16,14.36-2.22,27.83,7.3,34.22,19.22.5.93,1.26.97,1.65,1.08.97.28,1.22-.59,1.69-1.74,4.73-11.51,13.25-21.79,25.69-25.31s25.95,3.97,31.15,16.03c6.39,14.84-.37,31.99-15.59,37.48-10.29,3.71-21.46,1.63-29.2-5.63-1.52-5.27-5.28-9.36-10.58-10.14-3.61-.53-6.97,1.16-9.01,3.45-2.44,2.74-3.64,6.21-2.84,10.8ZM128.63,141.57c15.83.47,21.86-16.11,18.38-17-3.18-.82-3.18,4.45-7.53,8.04-7.17,5.92-17.24,4.51-23.38-2.33-.76-.84-2.14-.56-2.66-.16-1.89,1.45,3.9,11.12,15.19,11.46ZM72.44,147.97c6.79-.78,14.01-5.68,14.71-13.14.15-1.54-2.93-.19-3.52.67-3.25,4.72-8.23,6.99-13.38,6.98-10.25-.03-12.22-8.44-15.15-7.23-3.2,1.31,4.19,14.23,17.35,12.73Z" fill="#f7efd8"/><path d="M129.65,199.95c.16-.09,8.09-4.57,5.91-5.62-2.4,1.02-4.93,1.93-7.05,2.43-1.41-1.25-3.2-.57-5.16-.06-2.56.67-17.72,2.48-16.65-.03,2.82-3.5,6.95-5.47,11.12-7.93.49-.29.75-.86,1.21-1.04.52-.2.62-1.69-.41-1.43-10.72,2.67-16.62,11.71-26.98,9.52-.47-2.38.55-4.88,3.42-5.67,9.46-9.21,25.97-14.82,38.85-16.3l8.91-1.03c2.89-.33,5.39-.49,7.83-1.09.83-.2,8.34-.88,8.93-4.09.08-.42.74-.74,1.01-1.04.34-.38.57-.8.67-1.31.36-2,2.63-1.92,5.23-4.7,6.68-7.15,12.24,19.7-4.35,31.54-10.06,7.18-21.39,9.77-32.48,7.84Z" fill="#f3be3f"/><path d="M160.91,92.71c4.85,4.55,9.05,11.32,10.06,18-1.36,8.08,1.39,8.07-1.39,18.85-5.25,20.34-20.74,32.04-40.09,38.11-.74.23-1.04.81-.93,1.2-2.89.39-9.76,2.49-11.93,2.05-3.32-.67-30.34,8.06-56.72-5.22,1.99-4.3,9.05,3.7,20.59-2.11,1.65-.83,10.77-5.43,9.13-7.05l1-.09,1.08.23c.43.17.54.69.84.97,0,1.95,1.45,3.37,3.18,4.07.34.14.65.46.9.71,1.41,1.38,3.97,2.73,5.37,2.85,9.7.8,9.9-11.15,12.61-10.51,3.22.76,5.81,2.8,9.06,3.95,6.55-.14,17.77.99,23.26-2.74l4.18-2.84c.96-.65,1.16-1.8,1.57-2.43.21-.32.56-.78.94-.91.52-.18,1.62-.12,1.97-1.02,1.21-3.05,4.31-1.84,6.54-9.45l2.05-6.96c1.07-3.63.25-19.44-3.72-17.65-.11-.27-.1-.71-.08-1,.31-3.91-4.44-8.67-5.91-8.92-.41-.07-.92-.53-.99-.95-.6-3.31-4.16-2.76-4.08-5.7,7.87-3.03,6.32-3.86,11.49-5.44Z" fill="#f2bd41"/><path d="M123.86,76.73c-.99,1.4-2.25,2.09-3.54,2.83-11.33,6.5-18.73,16.69-23.27,28.29-6.31-10.85-15.46-17.23-25.57-22.28-.48-1.34.22-2.69,1.87-3.43,9.29-4.18,18.87-7.61,29.21-8.27,2.29-.15,24.17-1.06,21.3,2.86Z" fill="#f2bd41"/><path d="M164.98,58.81c-.37,1.49.37,3.38-.59,5.35-1.99,4.1-3.9,7.93-6.77,11.46-.45.99-.4,1.38-.02,1.72.34.3,1.26.35,1.9.02l7.1-3.74c-.08,2.03-.85,2.75-1.07,3.9-1.83-.26-2.79,1.51-4.36,2.6-12.9,8.92-25.59,6.09-42.97,15.01-2.86,1.47-13.8,8.64-10.47,12.45l-2.2,1.73c-.82.64-1.53,1.27-3.12,2.37-1.7-2.05,2.04-9.68,2.19-9.88,2.78-3.61,5.38-7.74,8.97-11.13,6.85-6.47,15.3-10.05,23.92-13.32l5.81-2.2c8.92-3.38,7.98-4.98,15.3-12.37,1.88-1.89,2.6-4.51,4.97-6.26,1.09.7,1.09,1.62,1.41,2.28Z" fill="#f2bd41"/><path d="M91.65,185.55c-2.57,3.4-7.49,9.06-2.94,12.99l-.22,2c-5.6-.39-10.86-2.47-15.88-5.8-1.01-.67-2.56-1.73-3.39-1.06-.27,1.66.9,2.71,1.23,3.78-12.17-1.27-31.93-12.14-26.31-28.21,1.7.84,3.09,1.97,4.71,3.21,12.03,9.23,28.99,10.46,42.8,13.09Z" fill="#f2bd41"/><path d="M172.64,150.83l5.32,8.62c5.6,9.08,2.67,29.33-14.76,38.84-9.42,5.14-30.23,10.15-39.88,5.56,1.31-2.85,4.23-2.77,6.33-3.89,11.08,1.93,22.41-.66,32.48-7.84,16.59-11.84,11.03-38.69,4.35-31.54-2.6,2.78-4.87,2.69-5.23,4.7-.25-.41-.49-.63-.73-.11-.61-.65-1.61.07-3.07-.78,5.05-6.25,7.28-5.83,12.27-13.61.77-1.21,2.24-.1,2.94.06Z" fill="#d49438"/><path d="M55.56,171.7c11.94,7.25,26.29,9.52,40.17,9.3.22,2.27-3.33,3.57-4.07,4.55-13.81-2.62-30.76-3.86-42.8-13.09-1.62-1.24-3.02-2.37-4.71-3.21-5.62,16.07,14.14,26.94,26.31,28.21,2.02.21,5.2,2.73,8.28,3.83-16.05,2.29-38.29-5.93-39.23-23.62-.28-5.37,1.59-10.04,4.44-15.18,3.34,4.32,7.45,6.68,11.62,9.21Z" fill="#d49438"/><path d="M68.88,91.49c.77-.28,1.84.21,2.65.21-.51.79.04,1.72.74,1.93.87.26,1.69.02,2.44-.07,2.04-.26,3.39,1.38,5.06,2.26.29,1.95-1.18,3.33-2.16,4.88-2.52.09-5.43-1.04-8.32-1.49-12.9-1.98-25.56.68-35.23-6.94-1.28-.13-2.02-1.61-.31-1.56,1.45.2,2.88.84,4.95.51.57-.52-.09-1.74-.17-2.38-.19-1.43-3.64-8.11-1.01-7.11,5,1.9,28.48,10.77,31.36,9.75Z" fill="#f3be3f"/><path d="M128.56,168.87c-.12-.39.19-.97.93-1.2,19.35-6.07,34.84-17.77,40.09-38.11,2.78-10.78.03-10.77,1.39-18.85,1.8,1.7,1.79,4.43,2.33,7.15,2.83,14.25-1.38,28.56-12.07,38.49-15.49,14.38-18.23,10.57-32.67,12.52Z" fill="#d49438"/><path d="M89.63,156.55c1.64,1.61-7.49,6.22-9.13,7.05-11.54,5.8-18.6-2.19-20.59,2.11-3.26-1.64-7-2.29-9.92-5.59-1.5-1.69-3.02-3.25-5.23-4.43-.46,1.56.55,2.12.03,2.82-2.57-2.86-4.76-5.83-6.06-10.17-4.43-14.75-2.25-30.6,5.71-43.85,3.73.54,6.55.61,10.51,1.7-9.06,6.11-14.4,15.41-14.53,26.54s5.47,22.28,15.51,27.83c9.87,5.46,26.12,4.28,33.71-4Z" fill="#eab957"/><path d="M59.91,165.7c26.38,13.28,53.4,4.55,56.72,5.22-3.02,2.51-12.38,4.99-17.04,7.75-9.52-.17-35.87-3.21-43-8.87l-3.82-3.04c-3.36-2.67-5.54-5.53-7.99-8.26.53-.7-.48-1.26-.03-2.82,2.21,1.18,3.74,2.75,5.23,4.43,2.92,3.3,6.66,3.95,9.92,5.59Z" fill="#d49438"/><path d="M123.86,76.73c2.86-3.92-19.01-3.01-21.3-2.86-10.33.66-19.92,4.1-29.21,8.27-1.64.74-2.35,2.08-1.87,3.43-2.38-.69-4.47-.75-6.78-2.38,18.14-14.09,47.71-17.88,69.05-10.09-3.78,1.56-6.67,3.13-9.89,3.63Z" fill="#f1cc79"/><path d="M165.53,77.53c-.47,2.46-2.26,4.79-4.53,6.56-18.6,14.48-26.37,2.38-53.27,23.5-3.32-3.81,7.62-10.98,10.47-12.45,17.38-8.92,30.07-6.09,42.97-15.01,1.57-1.09,2.53-2.86,4.36-2.6Z" fill="#d49438"/><path d="M33.76,90.72c-1.71-.05-.98,1.42.31,1.56,9.67,7.62,22.33,4.95,35.23,6.94,2.89.44,5.8,1.57,8.32,1.49,2.24,2.01,5.48,2.84,8.23,4.73,2.01,1.38,3.57,3,5.76,3.24.88.89,1.78,1.84,2.01,3.15-.64.21-1.21.69-1.77,1.06-20.02-14.86-30.56-6.86-48.31-11.86-5.47-1.54-10.8-4.76-13.19-10.18-.52-1.18,2.18-1.58,2.61-1.11.27.3.55.4.79.99Z" fill="#d49438"/><path d="M164.98,58.81c-.32-.66-.32-1.58-1.41-2.28-2.37,1.76-3.09,4.37-4.97,6.26-7.32,7.38-6.39,8.99-15.3,12.37l-5.81,2.2c-8.62,3.27-17.07,6.84-23.92,13.32-3.59,3.39-6.18,7.52-8.97,11.13l-1.23.04c3.95-9.44,12.08-16.8,21.57-21.63,17.96-9.14,27.63-8.85,39.07-29.88,2.42,3.32,1.58,6.03.97,8.48Z" fill="#f1cc79"/><path d="M150.63,170.71v1c-2.44.6-4.94.75-7.83,1.09l-8.91,1.03c-12.88,1.49-29.38,7.1-38.85,16.3-2.87.79-3.89,3.29-3.42,5.67-.48-.1-1,.12-2-.3,2.37-9.24,14.85-16.25,23.39-19.43,10.53-3.92,27.04-6.01,37.6-5.36Z" fill="#f1cc79"/><path d="M104.72,141.5c1.88.79,3.34,1.4,4.36,3.56.86,1.82.65,3.67-.52,5.45-4.34.55-8.58,7.95-12.09,5.74-.54-4.42-1.53-9.93,1.82-13.74,1.44-1.64,4.81-.38,6.43-1.02Z" fill="#d49438"/><path d="M68.88,91.49c-2.88,1.03-26.36-7.84-31.36-9.75-2.63-1,.82,5.67,1.01,7.11-4.76-3.15-9.72-11.06-9.69-17.27.71-.57,1.6-.43,2.4.51,5.85,6.9,13.58,11.16,22.26,13.76,1.85.55,18.82,4.34,15.38,5.64Z" fill="#eab957"/><path d="M99.59,178.67c-.55,1.48-2.31,2.3-3.87,2.33-13.88.23-28.23-2.05-40.17-9.3.57-.49.86-1.18,1.03-1.9,7.13,5.67,33.48,8.7,43,8.87Z" fill="#6f3608"/><path d="M95.45,110.85c-.28.78-1.15.76-1.82.98-.23-1.31-1.13-2.26-2.01-3.15,1.5-2.23-10.72-12.26-11.83-12.85-1.68-.88-3.02-2.52-5.06-2.26-.1-1.47-1.93-1.86-3.18-1.86-.81,0-1.87-.49-2.65-.21,3.44-1.3-13.53-5.09-15.38-5.64-8.69-2.6-16.41-6.86-22.26-13.76-.8-.94-1.69-1.08-2.4-.51,0-1.03-.81-2.18.52-3.46,6.24,7.64,14.39,13.07,24.1,15.71l13.46,3.65c11.3,3.07,23.64,13.42,28.52,23.36Z" fill="#f1cc79"/><path d="M96.63,162.44c3.54-1.43,3.63.49,6.82.28,2.39,3.43,10.2-7.58,8.49-10.15,1.04-.9,2.17-.38,3.47.42,10.39,6.39,23.08,6.37,33.43-.03,1.44-.89,2.48-1.98,3.85-2.25-.41.63-.62,1.78-1.57,2.43l-4.18,2.84c-5.49,3.74-16.71,2.6-23.26,2.74-3.24-1.14-5.83-3.19-9.06-3.95-2.71-.64-2.91,11.31-12.61,10.51-1.4-.12-3.96-1.46-5.37-2.85Z" fill="#eab957"/><path d="M128.51,196.76c-5.02,3.53-18.01,8.62-24.45,4.59-1.35-2.03,1.7-3.51,2.64-4.67-1.07,2.5,14.09.7,16.65.03,1.96-.51,3.75-1.2,5.16.06Z" fill="#d49438"/><path d="M104.6,101.8c-.16.2-3.9,7.83-2.19,9.88,1.59-1.1,2.3-1.73,3.12-2.37-.09,1.43-1.32,2.47-2.14,3.97l-4.71,8.64c-3.05-2.83-4.05-6.98-6.82-9.04.56-.36,1.12-.84,1.77-1.06s1.54-.2,1.82-.98c.84.59,1.35,1.7,2.77,1.88l3.64-9.1c.36-.9,1.03-1.43,1.52-1.78l1.23-.04Z" fill="#eab957"/><path d="M108.56,150.52c1.15.64,2.36,1.2,3.38,2.05,1.72,2.57-6.09,13.58-8.49,10.15-.05-.71-.05-1.43.03-2.14,3.15-1.21,5.48-4.34,5.69-7.72-3.79,1.57-5.11,4.26-7.65,5.71l-3.92.16c-.09-.53-.53-.89-1.06-.96-.44-.4-.84-.77-1.12-1.32l1.04-.18c3.51,2.22,7.75-5.19,12.09-5.74Z" fill="#6f3608"/><path d="M160.91,92.71c-5.18,1.57-3.62,2.41-11.49,5.44-1.13.43-5.19-.34-3.74.61-1.84-1.2-4.28-.97-6.27-2.82,6.91-1.14,12.49-3.28,18.38-6.17,1.89-.93,2.77,2.01,3.13,2.95Z" fill="#d49438"/><path d="M104.72,141.5c-1.62.64-4.98-.63-6.43,1.02-3.35,3.81-2.36,9.32-1.82,13.74l-1.04.18c-1.49-3-3.18-6.18-2.07-9.88.79-2.62,2.42-4.79,4.22-5.64,2.74-1.3,4.99-.32,7.14.59Z" fill="#eab957"/><path d="M153.63,149.79c5.46-6.41,4.87-7.17,9.05-15.12l-.05-10.96c0-.78.05-1.96-1-2,.28-2.41-.24-4.76-1.16-7,3.98-1.79,4.79,14.02,3.72,17.65l-2.05,6.96c-2.24,7.61-5.34,6.4-6.54,9.45-.36.9-1.46.85-1.97,1.02Z" fill="#eab957"/><path d="M103.49,160.58c-1.1-.07-1.99-.89-1.96-2.01,2.54-1.44,3.86-4.13,7.65-5.71-.2,3.38-2.53,6.51-5.69,7.72Z" fill="#cc903e"/><path d="M88.49,200.53l.22-2,11.94.51c-2.93,2.51-8.89,1.72-12.16,1.49Z" fill="#cc903e"/><path d="M150.63,171.71v-1c2.35-2.57,6.67-1.3,8.93-3.09-.59,3.21-8.1,3.89-8.93,4.09Z" fill="#eab957"/><path d="M149.41,98.15c-.08,2.93,3.47,2.39,4.08,5.7l-7.82-5.09c-1.44-.94,2.62-.18,3.74-.61Z" fill="#eab957"/><path d="M172.56,145.92c-.91-.49-1.17-1.48-.49-2.23.46-.51.97-1.07,1.67-.98-.11,1.08.08,2.82-1.18,3.22Z" fill="#493d24"/><path d="M160.39,113.71c-1.5-1.65-2.25-3.94-3.78-6.02l-2.13-2.9c1.47.25,6.22,5.01,5.91,8.92Z" fill="#eab957"/><path d="M162.63,123.71c-.99-.02-1.09-1.23-1-2,1.05.04,1,1.22,1,2Z" fill="#6f3608"/><path d="M95.73,161.72c-1.73-.7-3.18-2.12-3.18-4.07,1.27,1.18,2.31,2.58,3.18,4.07Z" fill="#eab957"/><path d="M160.57,166.58l-.07-1.42c.24-.52.49-.3.73.11-.09.51-.33.93-.67,1.31Z" fill="#eab957"/><circle cx="156.13" cy="165.21" r=".5" fill="#d49438"/><path d="M97.6,158.72c-.62.02-.74-.67-1.06-.96.53.06.96.43,1.06.96Z" fill="#eab957"/><path d="M91.71,156.69l-1.08-.23c.3-1.01.93-.63,1.08.23Z" fill="#eab957"/><path d="M128.63,141.57c-11.3-.34-17.08-10.01-15.19-11.46.52-.4,1.9-.68,2.66.16,6.14,6.84,16.21,8.26,23.38,2.33,4.35-3.59,4.35-8.86,7.53-8.04,3.47.9-2.55,17.48-18.38,17Z" fill="#653511"/><path d="M72.44,147.97c-13.16,1.5-20.55-11.41-17.35-12.73,2.93-1.2,4.9,7.21,15.15,7.23,5.15.01,10.13-2.26,13.38-6.98.59-.86,3.67-2.21,3.52-.67-.7,7.46-7.92,12.36-14.71,13.14Z" fill="#653511"/><path d="M91.61,108.67c-2.19-.24-3.75-1.86-5.76-3.24-2.76-1.9-5.99-2.73-8.23-4.73.98-1.54,2.45-2.93,2.16-4.88,1.12.59,13.34,10.62,11.83,12.85Z" fill="#efba47"/><path d="M74.72,93.56c-.75.1-1.57.34-2.44.07-.71-.21-1.26-1.14-.74-1.93,1.25,0,3.08.39,3.18,1.86Z" fill="#eab957"/><path d="M221.5,149.41c-.99.26-2.32.03-3.57.84-.45.16.24,5.4.24,5.4.23.26.98.1,1.29.13l.14,1.76c-1.61.52-.38,1.89.8,1.37l.35,3.64c-.35.27-.82.54-.98.88-.28.59-.04,1.09.37,1.31.61.34,1.04.61,1.47.15l.09,1.62c-.58.24-1.34,1.06-1.07,1.66.32.72,1.26,1.18,1.86.7l.34,6.97c-2.06,1.67-.82,3.86-.03,5.8,1.1,2.71-3.1,7.7-4.01,9.71-1.41.33-2.44,1.64-3.99,2.45-17.93,9.42-30.51,5-33.16,5.75-4.13,1.18-8.24,1.84-12.05.95-.1-1.01.25-1.99,1.06-2.63,5.29.69,14.76-.27,17.02-7.27-3.73.15-6.23,1.08-9,.58,2.09-.84,6.02-2.43,5.91-3.98-.04-.57-.53-1.21-1.09-1.62-.06-2.17.1-4.59-.21-6.76-1.02-7.09-.71-13.8-4.48-21.33-.89-1.77-2.51-3.07-2.09-4.97,5.33.82,9.46,27.47,8.82,31.13-.58,3.34,1.57,3.49,3.74,4.57,3.4,1.69-1.27,7.34-.56,8.69,1.1,2.08,19.59-1.93,25.14-6.01,1.94-1.43,3.39-3.33,4.59-5.04,1.83-2.6,1.99-5.92,2-9.02.04-8.84-3.6-20.27-5.69-28.29-1.07-4.13-2.34-7.98-4.59-12.19-2.47-4.61-5.61-14.42-11.14-12.31-7.19,2.75-14.24,5.24-21.54,5.59l.41-2.98c6.53-.84,13.2-1.73,18.97-5.66-9.39-4.37-13.61.96-19.06,3.59-.12-.99-.18-1.99-.19-2.99,4.92-3.94,10.97-6.37,18.11-4.93,5.22,1.05,6.67,4.22,10.76,6.16,2.14,4.57,5.27,8.65,7,13.93.32.97,1.05,1.15,1.47,1,2.44-.87-5.1-14.22-7.28-15.84.24-2.67-9.64-9.51-12.27-10.17-6.59-1.64-13.58-1.75-20.03.92l.91,3.87c.33,1.41.59,2.92.53,5.03-.98,3.63-2.91-12.8-2.12-11.94,13.4-4.25,26.78-2.04,35.47,10.44,3.16,4.53,5.47,9.38,7.58,14.41,1.22,2.91-.1,4.36-1.55,6.72-.81,1.32.76,4.79,1.77,5.87,1.19,1.28,3.12.94,3.54,2.32Z" fill="#493d24"/><path d="M213.62,152.75c.52,1.64,1.72,3.7,2.25,5.71l2.48,9.44c.74,2.81.65,6.28.16,8.81-.75,3.95-7.99,8.09-11.92,9.08-4.22.22-11.67,1.77-13.4-4.44-1.37-4.93-3.94-20.29-4.5-20.59-.18-2.22.76-4.05,3.29-4.77l15.4-4.35c2.24-.63,4.71-.39,6.24,1.1ZM206.06,163.64c3.45-1.13,6.17-3.24,6.03-6.56-.05-1.17-.85-2.26-1.46-2.81-1.08-.98-15.64,3.3-18.38,5.09,3.42,4.88,8.2,6.12,13.82,4.28ZM210.26,181.55c9.02-3.87,6.35-12.6,3.35-20.2-5.33,6.04-13.78,7.37-20.63,2.63-1.76,2.05,1.6,13.85,3,17.09,2.13,4.93,10.49,2.11,14.27.48Z" fill="#493d24"/><path d="M221.5,149.41c4.29-.42,7.49,17.36,8,21.22.71,5.44-2,9.48-6.69,11-.79-1.94-2.03-4.13.03-5.8-.14.6.74,2.16,1.46,1.7,4.52-2.93,1.99-11.85.84-16.21-1.02-3.88-1.91-7.6-5.65-10.27-1.63,1.78-.13,3.32-.02,4.72-.31-.03-1.06.13-1.29-.13,0,0-.69-5.24-.24-5.4,1.25-.81,2.57-.58,3.57-.84Z" fill="#693f25"/><path d="M214.75,148.58c-.27,1.41.08,3.17-1.14,4.17-1.53-1.49-4.01-1.74-6.24-1.1l-15.4,4.35c-2.54.72-3.47,2.55-3.29,4.77-1.32-.72-1.04-2.28-1.46-3.88-2.25-8.63-4.77-16.76-7.51-25.18-.36-1.11-1.62-1.06-2.24-1.02v-1.01c7.3-.35,14.35-2.84,21.54-5.59,5.52-2.11,8.67,7.7,11.14,12.31,2.25,4.21,3.52,8.06,4.59,12.19Z" fill="#48b5a0"/><path d="M188.68,160.76c.56.3,3.13,15.66,4.5,20.59,1.73,6.22,9.19,4.67,13.4,4.44,1.87,1.86,6.01-1.24,11.86.1-1.2,1.7-2.65,3.61-4.59,5.04-5.55,4.08-24.04,8.09-25.14,6.01-.71-1.34,3.96-6.99.56-8.69-2.17-1.08-4.32-1.23-3.74-4.57.64-3.66-3.49-30.32-8.82-31.13-.03-.24.04-.55-.03-.77-.99-1.7-2.33-3.24-4.06-4.21l-.07-1.64c1.26-.4,1.07-2.14,1.18-3.22.09-.89.31-1.83.21-2.73.45.51.96.15,1.36-.55.61-1.07.25-2.04.35-2.81.17-1.3.63-2.55.89-3.83.14-.67.35-1.32.21-2.01.25,0,.48-.08.73-.1.62-.05,1.88-.09,2.24,1.02,2.73,8.42,5.25,16.55,7.51,25.18.42,1.6.14,3.17,1.46,3.88Z" fill="#368e7a"/><path d="M170.67,197.88l-.09-1.17c1.72-.87,3.19-2.27,4.17-3.94l3.94-1.58c2.77.5,5.27-.43,9-.58-2.27,7-11.74,7.96-17.02,7.27Z" fill="#368e7a"/><path d="M195.73,116.7c-7.14-1.43-13.19.99-18.11,4.93-.27-.04-.53-.05-.8-.02.06-2.11-.2-3.62-.53-5.03,7.21-2.35,11.55-4.5,20.29-1.64l-.86,1.77Z" fill="#52ae90"/><path d="M177.9,126.69l-.09-2.07c5.46-2.62,9.67-7.96,19.06-3.59-5.77,3.93-12.43,4.81-18.97,5.66Z" fill="#368e7a"/><path d="M183.3,178.83c.31,2.17.15,4.59.21,6.76.07,1.47-.58,2.58-1.56,2.72-1.4.2-3.18.88-3.44-.51,2.17-2.51,3.37-10.12,4.79-8.97Z" fill="#cc903e"/><path d="M176.69,151.77l-4.05-.94v-3.27c1.72.97,3.06,2.51,4.05,4.21Z" fill="#493d24"/><path d="M174.75,192.77c-.97,1.67-2.44,3.07-4.17,3.94-.17-2.33,1.91-3.97,4.17-3.94Z" fill="#493d24"/><path d="M173.95,139.98c-.07-.66-.3-1.64.09-2.18.35-.49.81-1.48,1.62-1.17-.1.77.26,1.74-.35,2.81-.4.7-.91,1.06-1.36.55Z" fill="#493d24"/><path d="M176.55,132.79c-.86.44-1.15-.86-.92-1.57.14-.43.6-.68,1.13-.45.14.69-.07,1.35-.21,2.01Z" fill="#493d24"/><path d="M207.68,121.94c-.41.28-.81.59-1.19.91-4.09-1.94-5.55-5.11-10.76-6.16l.86-1.77c-8.74-2.86-13.09-.71-20.29,1.64l-.91-3.87c6.45-2.67,13.44-2.56,20.03-.92,2.63.65,12.51,7.5,12.27,10.17Z" fill="#48b5a0"/><path d="M222.85,175.84l-.34-6.97c-.04-.76.24-2.2-.79-2.36l-.09-1.62c-.04-.75.17-2.23-.86-2.34l-.35-3.64c-.05-.51,0-1.64-.8-1.37l-.14-1.76c-.11-1.4-1.61-2.94.02-4.72,3.74,2.67,4.63,6.39,5.65,10.27,1.15,4.36,3.69,13.28-.84,16.21-.72.47-1.6-1.09-1.46-1.7Z" fill="#944caa"/><path d="M220.44,176.87c-.01,3.1-.17,6.42-2,9.02-5.85-1.34-9.99,1.76-11.86-.1,3.93-.99,11.17-5.13,11.92-9.08l1.94.16Z" fill="#52ae90"/><path d="M206.49,122.85c.38-.32.78-.63,1.19-.91,2.18,1.62,9.72,14.97,7.28,15.84-.42.15-1.15-.03-1.47-1-1.72-5.28-4.86-9.36-7-13.93Z" fill="#95918e"/><path d="M220.44,176.87l-1.94-.16c.48-2.53.57-6.01-.16-8.81l-2.48-9.44c-.53-2-1.73-4.07-2.25-5.71,1.22-1,.87-2.76,1.14-4.17,2.09,8.02,5.73,19.45,5.69,28.29Z" fill="#95918e"/><path d="M222.5,168.87c-.6.49-1.53.02-1.86-.7-.27-.6.49-1.42,1.07-1.66,1.03.16.75,1.6.79,2.36Z" fill="#693f25"/><path d="M221.62,164.9c-.43.46-.86.19-1.47-.15-.41-.22-.65-.73-.37-1.31.16-.33.63-.61.98-.88,1.03.1.82,1.59.86,2.34Z" fill="#693f25"/><path d="M220.41,158.91c-1.18.52-2.41-.85-.8-1.37.81-.27.75.86.8,1.37Z" fill="#693f25"/><path d="M210.26,181.55c-3.79,1.62-12.14,4.44-14.27-.48-1.4-3.24-4.76-15.04-3-17.09,6.85,4.73,15.3,3.41,20.63-2.63,3,7.61,5.67,16.33-3.35,20.2Z" fill="#944caa"/><path d="M206.06,163.64c-5.62,1.84-10.4.6-13.82-4.28,2.74-1.8,17.3-6.08,18.38-5.09.62.56,1.41,1.64,1.46,2.81.14,3.32-2.58,5.42-6.03,6.56Z" fill="#944caa"/></svg>