<?xml version="1.0" encoding="UTF-8"?><svg id="Layer_1" xmlns="http://www.w3.org/2000/svg" viewBox="0 0 283.46 255.12"><path d="M235.19,241.88v1c-1.26.19-2.5-.18-3.29-1.22-.13-.62.06-1.22.29-1.78l3,2Z" fill="#f6f2eb"/><path d="M227.22,239.94c-.77-.31-1.28-1.03-1.18-1.88.53-.12.99-.03,1.17.37.26.57.24,1.1.01,1.51Z" fill="#f6f2eb"/><path d="M251.38,242.18c-.18.31-.12.78-.34,1.06-.44.14-.93.08-1.26-.23s-.37-.98-.58-1.26l2.18.43Z" fill="#f7efd8"/><path d="M106.19,241.8l1.1.15c-.34,1.16-1.17.97-1.1-.15Z" fill="#f6f2eb"/><path d="M109.04,241.86l.86-.17c.52,1.25-.52,1.45-.86.17Z" fill="#f6f2eb"/><path d="M236.51,243.07c-.43.03-.9-.25-1.32-.19v-1c.37.25.96.32,1.4.39.5.34.53.62-.09.8Z" fill="#f7efd8"/><path d="M254.21,237.87c-.23.51-.39,1.09-1.53,1.13-.77.03-1-.74-1.57-.91,1.03-.14,2.06-.22,3.1-.22Z" fill="#f7efd8"/><path d="M15.5,150.97c0,3.7.51,7.34-.05,11.05-.56-.1-1.62.05-2.23-.66-2.02-2.36-2.15-5.48-.57-8.19.41-1.63,1.61-2.36,2.85-2.2Z" fill="#f6f2eb"/><path d="M18.66,44.91c.14-1.96.07-5.08,1.95-6.46,1.28-.94,3.05-.64,3.97-1.42-1.93,2.64-3.49,5.67-5.91,7.88Z" fill="#f6f2eb"/><path d="M16.57,52.05c-.26,1.3.43,3.2-.85,4-1.14-.37-1.33-1.39-1.39-2.47-.09-1.52.88-1.8,2.24-1.53Z" fill="#f6f2eb"/><path d="M18.62,46.05c-.43,1.4-.64,3.04-1.83,4-.16-1.11-.82-2.35-.08-3.81.46-.49,1.5-.13,1.91-.19Z" fill="#f6f2eb"/><path d="M33.54,220.01c-4.3-.36-8.76-1.03-11.67-5.59-.77-1.21-.29-3.06-.13-4.23,5.09,4.71,6.19,6.11,11.8,9.82Z" fill="#f6f2eb"/><path d="M175.28,187.98c-.28,1.61-.83,3.26-1.73,5.04l-7.7,15.3c-2.5,4.98,6.75.52,8.73,1.48l-.43,6.23c-.83.7-.99,1.78-1.9,3.37l-48.37.02c-8.76,0-17.1-.8-25.43-.23l-.14-2.09c6.54.16,18.51,2.39,25.12-.08,2.18.24,4.84,1.39,7.27.17,3.42-1.72,4.13-5.97,6.79-8.2,3.53-2.97,6.23-6.3,9.47-9.41,4.49-4.3,8.84-3.79,11.2-14.79,2.59-1.84,5.03-3.49,6.34-6.45,1.18-2.67.1-5.3-2.76-6.65.44-1.92,1.99-3.19,2.55-4.85,6.02-2.94,8.09,21.67,11,21.12Z" fill="#f7efd8"/><path d="M74.69,142.08c.32,1.4-6.21,4.73-6.24,7.98l-.06,5.83-6.45,17.51c-2.57,6.97-4.68,23.54-6.33,26.04-3.49,5.32,1.96,8.71.97,14.6l-.2,1.2-1.85-.1c-2.48-.13-5.08.02-8.01.06-5.6-1.02-10.73-2.78-15.75-5.3l-7.27-5c-.88-1.89-1.93-3.55-1.9-5.69,3.56.37,5.98,3.01,10.74,2.89.78-.14,1.23-.4,1.18-.86,3.91,1.04,8.23,2.9,12.54,1.2,2.63-1.04,4.01-4.23,4.77-6.76l3.77-12.49c1.06-3.5,1.23-6.85.55-10.05,1-.47,1.98-1.42,2.33-2.89,1.31-5.45,6.57-20.66,9.31-24.85,1-1.52.67-3.14-.2-4.21,2.65.52,5.41.71,8.08.88Z" fill="#368e7a"/><path d="M76.09,140.09c-.17.91-.69,3.97.72,4.53,3.49,1.38,7.27.1,10.56.28,2.11.98,10.14,4.7,11.15,6.08.75,1.04,1.83,1.89,1.97,3.25l-14.39-6.69c-3.52-1.64-17.67-2.59-15.35,4.24,4.04,1.15,8.38-.22,12.66.32,11.52,1.46,15.58,9.17,25.8,13.05-.41.69-.93,1.32-1.62,1.74-5.21-.84-17.35-11.45-21.24-11.63l-7.91-.37c-1.87-.09-3.81-.56-5.86.63-1.09.63-1.6,2.42-2.4,4.18-5.52,12.07-9.12,24.48-10.4,37.55,4.31,1.17,8.08,1.15,11.77.53,1.61-.27,3.31-.19,4.9-.6,3.34-.84,8.52,3.57,8.06,5.59-2.11.23-3.32-2.77-5.17-3.16-2.94-.62-6.03,1.94-8.76,1.69l-8.98-.79c-2.53-.22-3.96.27-4.26,2.1-.89,5.38,11.73,4.52,14.98,4.17,4.04-.43,8.02-.99,12.01-1.96-.07.73-.22,1.39-.75,1.92-.22.25-.16.77-.33,1.08-3.21.58-6.4,1.94-9.69,2.11-4.48.24-8.89-.32-14.26-1.05l1.16,8.85c-1.11-.7-2.68-.88-3.1-2.44-.13-.49-.41-.93-.78-1.27.99-5.9-4.46-9.29-.97-14.6,1.64-2.5,3.76-19.07,6.33-26.04l6.45-17.51.06-5.83c.03-3.25,6.56-6.58,6.24-7.98-.22-.95-.56-2.33-1.25-3.07.96.13,1.76.72,2.66,1.08Z" fill="#5a341b"/><path d="M67.18,121.38c.02.89.33,1.77.29,2.67l-7.89-.77c-9.81-.95-17.12,3.57-22.22,10.72-.5.7-12.36,17.45-7.46,16.03,2.53-.73,3.05-10.27,15.59-18.75,7.05-4.77,16.85-3.25,23.52,2.15,1.97,1.59,2.94,3.97,4.44,5.57.7.75,1.04,2.12,1.25,3.07-2.67-.17-5.43-.36-8.08-.88-6.7-1.32-13.04-4.03-19.67-7.11-2.95.33-5.05,3.7-6.57,5.8-1,1.38-3.04,2.11-3.72,4.41-2.31,7.77-7.29,4.77-13.91,38.02l-2.13,10.69c-1.55,0-2.07-1.64-2.13-3,1.79-9.2,2.74-14.68,5.61-24.36.14-.47.99-.7.97-1.13-.02-.58-1.34-.23-1.5-.56-1.48-4.07,7.98-3.66,1.92-14.74,2.47-4.72,4.4-9.76,7.2-14.31,1.83-2.97,5.02-5.22,6.57-8.42,3.41-1.66,6.51-4.63,10.28-5.53,5.85-1.4,11.8-.66,17.65.42ZM69.23,138.83c-5.23-7.05-10.92-10.35-19.8-6.3,6.18,3.17,12.69,5.07,19.8,6.3Z" fill="#493d24"/><path d="M83.25,207.84c1.52-.27,2.54,1.71,3.74,2.62,3.52,2.69,7.44,4.07,11.16,5.57,0,.36.13.72.15,1.07l.14,2.09c-.31.02-.72,0-1,.07l-1,.04c-5.97.18-12.14.55-18.06-.25-1.58-3.05-2.87-6.27-4.83-9.1,3.29-.17,6.48-1.53,9.69-2.11Z" fill="#f2bd41"/><path d="M73.56,209.95c1.96,2.83,3.25,6.05,4.83,9.1-.66.43-1.63.68-2.86.68l-12.09.04c-1.99,0-2.11-1.47-2.97-2.02l-1.16-8.85c5.36.73,9.78,1.28,14.26,1.05Z" fill="#cc903e"/><path d="M29.42,167.11c-2.07,9.27-11.96,24.32-1.17,31.14,1.78,1.13,3.57,2.54,5.28,3,.05.47-.4.72-1.18.86-4.77.11-7.18-2.53-10.74-2.89-.96-1.95-2.91-4.47-.99-6.21l2.13-10.69c6.62-33.25,11.6-30.25,13.91-38.02.68-2.29,2.72-3.03,3.72-4.41-.34.76-.42,1.92-1.22,2.81-3.27,3.64-10.05,18.78-11.26,24.44.64.37,1.12-.11,1.53-.03Z" fill="#52ae90"/><path d="M18.49,190.01c-.79,0-1.7.08-2.29-.22-3.62-1.83,1.02-18.01,5.15-24.59.27-.43.88-.65,1.1-1.14l1.13-.09c.17.32,1.48-.03,1.5.56.02.43-.84.66-.97,1.13-2.87,9.69-3.82,15.16-5.61,24.36Z" fill="#944caa"/><path d="M54.53,215.15c2.48.62-7.02,1.49-7.08,2.13-1.9.42-4.01-.08-6.22-.71l-8.78-2.51c-3.16-5.88-6.51-3.92-8.94-9.15l7.27,5c5.02,2.52,10.14,4.28,15.75,5.3,2.93-.04,5.52-.19,8.01-.06Z" fill="#493d24"/><path d="M47.44,217.27c.37.38,1,.79,1.96.81l9.18.15c-2.74,3.81-23.8.2-26.15-4.18l8.78,2.51c2.21.63,4.32,1.13,6.22.71Z" fill="#dec6a3"/><path d="M21.44,50.26c1.15-2.93,2.14-6.32,4.92-8.01.85,3.61-1.33,7.17-4.92,8.01Z" fill="#f6f2eb"/><path d="M20.36,54.05c.2-.69-.18-1.81.83-2,.38.08,1.03.3,1.17.62.32.69.01,1.3-.45,1.38-.56.1-1.1-.04-1.55,0Z" fill="#f6f2eb"/><path d="M22.44,164.05c-.21.49-.83.72-1.1,1.14-.66-.08-.58-.82-.88-1.18.22-.18.53-.32,1-.56.33-.17.8.04.98.59Z" fill="#493d24"/><path d="M96.44,219.3l1-.04c-.27.48-.71.58-1,.04Z" fill="#cc903e"/><path d="M97.49,51.16c.51.31,1.26.77,1.8.95.82,2.59,9.53-.61,10.15-1.73.91.37,2.09-.17,3-.26,1.01-.1,2.54.34,3-.85.67.04,1.35-.04,2-.15,1.29-.23,3.2.53,4-.77,2.33.34,4.67-.13,7-.23,8.07-.36,16.03.8,24,2.04.27.04.77.16,1.01.05.07,1.01,1.21.96,1.99.97,2.01,1.31,4.86,1.06,6.91,2.02,8.31,3.9,16.54,7.78,23.46,15.18,8.7-3.52,14.97-10.21,19.8-18.1.76-1.23,2.09-2.23,3.25-2.02,3.59.66,3.01,10.81,2.52,13.91-.09.59-.31,1.31-.22,1.91-1.38,1.2-1.42,3.17-2.82,4.85,1.75.56,2.19-.48,3.1-.74,2.18.55,2.86,2.96,2.3,5.01-2.03,4.6-4.72,8.92-9.56,11.66-.43.25-1.36.24-1.52.68-.13.38.87.89,1.12,1.38-.22.62-.4,1.26-.86,2.56-15.05-8.11-33.72-4.69-44.92,8.22-12.37,14.25-11.85,35.57,1.19,49.2-2.29-.55,1.22,2.19.32,7.27-.23,1.33-1.24,2.5-1.91,4.17.31,1.7,2.36,2.42,4.05,3.83,1.86-3.34,3.85-4.42,3.52-7.08.13-.61.75-1.15,1.41-2.25,4.51,2.75,9.56,4.49,14.81,5.1.07,1.24-.04,2.18-.02,3.11l-3.17.2c-1.21.08-2.69-1.38-3.61-.1-1.26-.14-1.28.65-.01.91l.04,1c.11,3.01-.15,6-.51,9-1.02.09-1.59-8.21-3.21-10.53-1.96.82-4.07,1.11-6.14,2.22-1.2.64-.28,2.41-.48,3.12-.56,1.66-2.11,2.93-2.55,4.85,2.86,1.35,3.94,3.98,2.76,6.65-1.31,2.96-3.75,4.61-6.34,6.45-2.36,10.99-6.71,10.48-11.2,14.79-3.24,3.1-5.93,6.44-9.47,9.41-2.66,2.23-3.37,6.49-6.79,8.2-2.42,1.22-5.09.07-7.27-.17-1.12-1.33-2.47-2.48-4.2-4.08-7.71.68-15.28.27-21.86-2.7l-9.03-4.08c-1.57-.71-3.38.79-4.76.6.53-.54.67-1.19.75-1.92.07-.68.04-1.4.19-2.06.46-2.02-4.73-6.42-8.06-5.59-.05-1.18-.51-2.38-1.53-3.5l-3.6-5.61c.49-.47.91-2.78,1.74-1.59,8.3,11.86,13.86,17.28,28.27,21.87,11.42,3.64,31.68,2.06,40.36-6.81-2.2-1.2-3.77.35-5.25.37-3.16.04-6.79.36-9.89-2.1.22-2.87,9.32.48,18.24-3.15,4.5-1.83,8.26-4.94,9.66-9.86-5.9.92-10.92,2.81-16.25.52,2.98-3.77,13.59-.1,20.31-7.01,1.03-1.05,4.24-1.43,3.08-4.32-.53-1.31-2.75-1.72-4.2-1.95-18.93-3.04-29.25,1.5-46.89-5.26-1.29-.5-2.29-1.16-2.91-1.9.69-.43,1.21-1.05,1.62-1.74.43-.07.87-.05,1.3-.14.7-.15,1.38-.42,1.91-.91l1.87,3.04c4.36,2.22,25.91,3.92,28.7,2.51,1.81-.91,2.84-3.3,3.59-5.81-12.24-.06-23.35-1.83-34.74-5.29-.54-.17-1.13.07-1.29.27-.2.25-.21.65-.23.96-2.86-1.19-4.72-6.87-8.88-5.52-.24.08-.72.03-.95-.04-.14-1.35-1.21-2.21-1.97-3.25,16.79,5.93,30.84,10.38,49.6,9.89,1.95-.36,3.18-2.87,4.35-3.79,1.95,1.29,5.2-3.85,4.89-6.29-3.16,1.08-5.53,2.71-7.9,1.26,1.26-1.27,3.09-1.34,4.2-2.81.55-.72,1.12-1.32.87-2.34,1.65-1.93-.55-4.47-2.72-5.07-1.55-3.72-3.46-7.06-4.58-11.99-2.6,1.91-3.71,4.51-3.4,7.26.15,1.32-1.16,3,.34,4.06.22.54,0,1.42.33,1.9-1.02.17-2.05.21-3.08.16-.33-1.27-.32-2.68-.79-4.05-14.31,9.05-23.96,7-37.21.68-.79-1.4-2.14-2.8-3.79-3.03-4.87-7.21-6.49-7.76-9.29-17.78l.28-10.84c.04-1.63,1.25-2.88,1.03-4.19,3.25-6.63,7.55-12.38,13.54-16.76,3.61-.41,5.21-2.97,9.11-2.49.43.05,1.28.54,1.96.13.13-1.52-.1-2.67.33-3.75,7.97,1.72,15.85,4.15,23.05,8.85,3.28,2.14,5.4,5.49,8.58,7.13.43,2.88,1.81-.53,2.49,3.79,1.1.23,1.23-1.49,1.74-1.86.63-.46,1.44-1.31.93-2.86-4.56-14.01-15.07-23.97-28.3-29.84-19.4-8.6-29.92-8.21-45.41-28.15-1.83,3.76-.78,7.14.47,9.85.27,1.26-.04,2.85.39,4.13.12.37-.19.83-.15,1.27.05.56-.16.82-.82.6-2.82-1.42-2.46-5.7-4.07-7.98.23-3.74.38-7.46,2.03-10.86,5.66-1.31,7.2,8.29,19.97,15.93ZM113.48,58.19c7.45,3.8,15.6,6.1,22.84,11.15,11.22,7.82,8.55,8.5,12.9,11.74-.08,1.27,1.11,2.11,1.82,3.41l5.35,9.84c2.86-2.33,4.19-5.31,6.25-8.29,1.25-1.82,3.9-4.36,4.85-5.95.18-.3.68-.82.99-.99,1.35-.72,3.18-3.26,4.87-3.95,2.04-.83,3.08-1.84,4.18-2.94,1.15-.89,3.64-.34,5.21-2.79-18.82-18.57-53.89-22.9-77.32-13.99,2.7,2.22,5.9,1.65,8.06,2.75ZM173.37,83.08c12.82-1.14,13.12-2.14,26.85.79,4.38-1.26,8.16-6.21,9.51-10.68-3.09-.07-4.48,2.87-7.5,1.66,2.64-4.63,5.69-8.79,6.07-13.77.22-2.79,1.02-5.61-.27-9.23-4.18,7.67-9.98,13.66-17.88,17.67l-11.37,5.77c-5.45,2.77-9.55,6.96-13.43,11.68,3.16-.8,5.86-2.36,8.01-3.89ZM146.5,124.13c-.4-6.82.8-12.59,3.24-19.12-5.2-8.52-13.31-15.71-23.37-18.09-13.19-3.12-26.33,4.71-31.05,17.11-3.22,8.46-2.51,17.86,2.58,25.46,9.75,14.54,30.45,17.16,43.33,5.38,2.03-7.39,5.58-5.47,5.27-10.73ZM168.39,159.21c1.12-.36,1.02-1.11.32-1.48-.3-.16-.77-.15-1.06.74-.95,1.12-.66,1.25.73.74ZM160.18,165.07c-1.37-2.47-4.28-4.99-6.52-3.88-3.42,1.69-5.27,5.19-6.41,8.61,3.73.68,6.63,1.45,10.18,1.13,1.98-.18,3.89-3.82,2.76-5.86ZM132.02,211.97c.66-1.25-.08-1.97-1.25-1.26l-7.44,2.01c1.09,2.38,2.95,2.88,4.51,2.86,1.78-.02,2.76-1.76,4.18-3.62Z" fill="#653511"/><path d="M235.4,137.96c-6.38-.32-12.71,2.16-16.31,7.25-6.14,8.69-2.51,15.88,1.55,24.48-4.78,3.89-13.51-2.82-17.27-2.41l-12.87,1.41c-1.95.21-9.1-5.31-9.14-7.66,20.15-1.26,38.83-11.41,42.69-32.2,1.16-6.24.22-17.18-1.66-22.78,1.23.11,3.57-.13,4.13,1.36,1.07,2.81,1.45,5.78-.68,8.05-1.75,9.97,1.67,12.4,2.09,15.88.56,4.63,6.41,2.22,7.46,6.6Z" fill="#f6f2eb"/><path d="M246.4,143.15c-2.75-1.81-5.34-3.34-7.95-5.02,1.7-1.64,4.92-1.79,7.07-.34,1.12.76,1.71,1.86,1.82,2.83.1.85-.06,1.99-.95,2.53Z" fill="#f6f2eb"/><path d="M179.19,163.14c-.66.38-.76-.59-.91-1.03.85-.27.97.37.91,1.03Z" fill="#5a341b"/><path d="M80.37,74.72c-.13.8-.48,1.57-1,2.18-1.03.39-1.46,1.27-1.77,2.25.35-1.14-6.18,12.92-4.4,9.93-4.35,7.3-5.35,16.49-4.39,25.38,1.17,10.74,7.73,17.81,8.57,20.55.17.55.68.92,1.24.97.13.29.07.63.07.93-.73.22-1.34.84-2.06,1.11-2.26-2.45-6.14-10.14-8-11.12,0-1.08-.3-2.18-1.17-2.86.04-.9-.26-1.78-.29-2.67-.05-2.14-.78-4.19-1.61-6.15l.13-12.18c1.32-.79.6-2.7.81-4,.11-.66.11-1.34.06-2,1.05-.61.71-2.2,1.24-3.56l4.47-11.42c.73-.33.8-1.33,1.21-1.87,2.76-3.63,4.66-7.56,8.01-9.16-.4,1.23-.91,2.41-1.13,3.69Z" fill="#653511"/><path d="M67.18,121.38c-5.84-1.08-11.8-1.82-17.65-.42,1.81-6.41,12.09.58,16.04-5.73.83,1.97,1.55,4.01,1.61,6.15Z" fill="#f6f2eb"/><path d="M72.28,82.07l-4.47,11.42c-.53,1.36-.19,2.95-1.24,3.56-1.67-.81-.61-1.3-.49-7.75,0,.49,3.68-8.94,6.19-7.24Z" fill="#f6f2eb"/><path d="M79.56,54.06l.86,2.15c.95,2.04-3.32-.17-3.95-.05.39-1.74-1.03-2.58-2.15-4-1.4-1.77-.7-5.16,1.18-6.07,1.61,2.28,1.25,6.56,4.07,7.98Z" fill="#f6f2eb"/><path d="M80.42,56.21c.17.44,1.04.79.88,1.33-.24.82-1.01,1.34-1.64,1.7-.25.14-.66-.02-.94.07-1.69-.75-1.91,1.69-.27,1.73-.07.29.05.62.01.92-1.38,1.2-.09,2.75-.22,4.15-1.82-.38-2-2.6-2.7-4.07-.19-.4-.33-.83-.79-1,.26-1.76.02-3.86,1.71-4.89.63-.12,4.9,2.1,3.95.05Z" fill="#653511"/><path d="M39.26,126.49c-1.56,3.2-4.75,5.45-6.57,8.42-.97-1.53,2.81-8.22,3.64-8.6.92-.42,2.05,0,2.93.18Z" fill="#f6f2eb"/><path d="M81.47,70.05c-.04.31.12.69.02.98-3.35,1.59-5.24,5.52-8.01,9.16-.51-.04-1-.32-1.06-.69-.09-.52.25-1.24.83-1.68,4.95-3.76,2.4-6.55,5.14-9.73l3.07,1.96Z" fill="#f6f2eb"/><path d="M81.21,64.95c.88,5.82,15.29,11.87,21.28,13.15l14.1,3.04c-.43,1.08-.2,2.23-.33,3.75-.69.41-1.54-.08-1.96-.13.04-.42.18-.89-.04-1.14-.88-1.01-19.73-2.24-29.35-10.27-.67-.56-1.9-.31-2.39-.05-.43.23-.69.58-.89,1.24l-1.27.18c.22-1.27.72-2.46,1.13-3.69.1-.3-.06-.68-.02-.98l.23-2.68c-1.72-.52-2.61-.4-3.56-.32-.02-.3.07-.63.1-.93.12-1.4-1.17-2.95.22-4.15,1,.97,1.63,2.16,2.75,2.99Z" fill="#6f3608"/><path d="M65.7,103.05c-.96-.34-1.6-1.24-1.23-2.35.28-.82,1.14-1.44,2.04-1.65-.21,1.3.51,3.21-.81,4Z" fill="#f6f2eb"/><path d="M81.47,70.05l-3.07-1.96c-.05-.35-.22-.69-.25-1.04.95-.08,1.84-.2,3.56.32l-.23,2.68Z" fill="#653511"/><path d="M75.55,62.05c-.84.21-.89-.38-.79-1,.46.17.6.6.79,1Z" fill="#f6f2eb"/><path d="M123.42,217.03c-6.6,2.47-18.58.24-25.12.08-.02-.36-.16-.71-.15-1.07.02-1.97-.6-3.84-.79-5.78,6.58,2.98,14.15,3.39,21.86,2.7,1.72,1.6,3.08,2.75,4.2,4.08Z" fill="#dec6a3"/><path d="M174.1,172.05c-.45,3.67.95,7.37,1.28,11l.1,1.08c.12,1.3.02,2.58-.2,3.85-2.92.55-4.98-24.06-11-21.12.19-.71-.72-2.48.48-3.12,2.06-1.11,4.18-1.4,6.14-2.22,1.62,2.32,2.19,10.62,3.21,10.53Z" fill="#eab957"/><path d="M66.61,141.2c.87,1.07,1.2,2.69.2,4.21-2.74,4.19-8,19.4-9.31,24.85-.35,1.47-1.33,2.42-2.33,2.89l-18.39-6.48c-2.07-.73-5.98-1.67-7.36.44-.41-.08-.89.4-1.53.03,1.22-5.66,7.99-20.8,11.26-24.44.79-.88.88-2.05,1.22-2.81,1.52-2.1,3.62-5.48,6.57-5.8,6.63,3.08,12.97,5.79,19.67,7.11ZM54.82,156.66c2.63-3.93,2.07-8.96-1.73-11.59-3.16-2.19-7.52-2.27-10.74,1.14-4.71,4.98-1.72,13.25,1.1,18.93,1.56,3.14,10.1-6.59,11.36-8.48Z" fill="#48b5a0"/><path d="M55.17,173.15c.68,3.2.5,6.55-.55,10.05l-3.77,12.49c-.76,2.53-2.14,5.71-4.77,6.76-4.3,1.7-8.63-.16-12.54-1.2-1.71-.46-3.5-1.87-5.28-3-10.79-6.82-.9-21.87,1.17-31.14,1.37-2.11,5.28-1.17,7.36-.44l18.39,6.48ZM31.37,173.14c-.65,1.5-3.22,2.02-2.86,3.97.06.3,0,.63,0,.93-.59-.01-.89.49-.92,1.03-.02.31.07.64-.01.94-1.11-.14-.9,1.4-1.01,2.12l-.28,1.81c-.56-.34-.87.72-.84,1.1.39,4.71-1.46,8.45,5.35,11.77,4.42,2.15,9.54,4.29,14.71,3.01,4.1-1.01,4.4-11.17,6.57-17.17.41-1.12-.26-2.03-.93-2.38.1-.64-.09-1.41.12-2.03.34-.81,1.12-1.7.91-2.6-.42-1.81-10.78-4.34-15.89-6.48-1.41-.59-2.71-.16-3.79.3-1.52.64-.64,2.55-1.12,3.68Z" fill="#493d24"/><path d="M57.36,215.31l-.98-.07.2-1.2c.37.34.64.79.78,1.27Z" fill="#493d24"/><path d="M78.44,154.9c-.05.41.23.93.11,1.32-5.1,13.19-.24,32.15,11.84,40.97,10.43,7.62,23.88,10.01,36.46,7.24,2.49-.55,12.66-2.18,9.59-2.5,1.48-.02,3.04-1.57,5.25-.37-8.68,8.87-28.94,10.45-40.36,6.81-14.41-4.59-19.97-10.01-28.27-21.87-.83-1.18-1.25,1.13-1.74,1.59-2.34,2.23.5,6.41.22,9.71-3.69.62-7.46.64-11.77-.53,1.28-13.07,4.88-25.47,10.4-37.55.81-1.76,1.31-3.55,2.4-4.18,2.06-1.19,4-.72,5.86-.63Z" fill="#d49438"/><path d="M147.56,154.99c1.16-.04,5.9-.11,4.92,2.09-1.18.92-2.4,3.43-4.35,3.79-18.77.49-32.81-3.96-49.6-9.89-1.01-1.38-9.04-5.1-11.15-6.08-.78-1.23-7.68-8.29-8.68-7.99,0-.3.05-.65-.07-.93-.22-.5-.64-1.03-1.24-.97-.84-2.74-7.4-9.81-8.57-20.55-.97-8.89.03-18.08,4.39-25.38,1,2.62-.28,5.35-.38,8.41-.26,7.95,1.49,16,4.96,23.21,1.54,3.19,7.27,10.9,9.76,13.38,15.55,15.45,39.21,21.63,60.02,20.91Z" fill="#d49438"/><path d="M107.59,166.89c.63.74,1.62,1.41,2.91,1.9,17.64,6.76,27.95,2.22,46.89,5.26,1.45.23,3.67.64,4.2,1.95,1.16,2.89-2.05,3.27-3.08,4.32.09-.62.38-2.42-.27-3.17-11.69-2.12-10.25-.02-21.86-.77-8.59-.55-16.94-1.09-24.92-4.47-15.3-6.49-8.63-6.87-20.96-12.87-3.2-3.39-7.96-3.07-11.95-2.83.12-.38-.16-.91-.11-1.32l7.91.37c3.89.18,16.03,10.79,21.24,11.63Z" fill="#f1cc79"/><path d="M100.49,154.23c.23.07.71.12.95.04,6.23,4.09,5.46,4.12,9.07,10.74-.42.09-.87.08-1.3.14-10.22-3.88-14.28-11.59-25.8-13.05-4.27-.54-8.62.83-12.66-.32-2.33-6.84,11.83-5.88,15.35-4.24l14.39,6.69Z" fill="#52ae90"/><path d="M68.64,126.91c1.86.98,5.73,8.67,8,11.12-.1.71-.3,1.39-.54,2.06-.9-.35-1.7-.95-2.66-1.08-1.5-1.6-2.47-3.97-4.44-5.57-6.67-5.4-16.47-6.92-23.52-2.15-12.53,8.48-13.05,18.02-15.59,18.75-4.9,1.42,6.96-15.34,7.46-16.03.03,1.02.84,1.34,1.06.13,4.76-6.31,12.25-9.27,20.07-8.38l10.16,1.15Z" fill="#52ae90"/><path d="M70.58,201.32c1.27,1.54,2.1,3.46,1.73,5.48-3.25.35-15.87,1.21-14.98-4.17.3-1.84,1.73-2.32,4.26-2.1l8.98.79Z" fill="#368e7a"/><path d="M84.51,202.78c-.15.66-.12,1.38-.19,2.06-3.98.96-7.96,1.52-12.01,1.96.36-2.01-.46-3.93-1.73-5.48,2.74.24,5.83-2.31,8.76-1.69,1.84.39,3.05,3.39,5.17,3.16Z" fill="#52ae90"/><path d="M97.36,210.25c.19,1.94.8,3.82.79,5.78-3.72-1.5-7.64-2.88-11.16-5.57-1.2-.91-2.21-2.9-3.74-2.62.17-.31.1-.83.33-1.08,1.38.2,3.19-1.31,4.76-.6l9.03,4.08Z" fill="#d49438"/><path d="M87.38,144.9c-3.29-.18-7.07,1.09-10.56-.28-1.41-.56-.89-3.62-.72-4.53.25-.67.45-1.36.54-2.06.72-.27,1.32-.89,2.06-1.11,1-.3,7.9,6.76,8.68,7.99ZM81.07,142.97c-1.83-1.88-3.52-.67-2.21,1.1,1.63.17,3.13-.02,2.21-1.1Z" fill="#6f3608"/><path d="M76.45,197.19c-1.6.4-3.29.32-4.9.6.28-3.29-2.56-7.48-.22-9.71l3.6,5.61c1.02,1.12,1.48,2.32,1.53,3.5Z" fill="#eab957"/><path d="M69.23,138.83c-7.11-1.23-13.62-3.13-19.8-6.3,8.87-4.05,14.57-.75,19.8,6.3Z" fill="#1b6056"/><path d="M67.47,124.05c.87.68,1.18,1.78,1.17,2.86l-10.16-1.15c-7.82-.88-15.31,2.07-20.07,8.38-.22,1.21-1.03.89-1.06-.13,5.1-7.15,12.41-11.68,22.22-10.72l7.89.77Z" fill="#c5d4d4"/><path d="M175.48,184.13l-.1-1.08c1.17-.17,1.42,1.17.1,1.08Z" fill="#6f3608"/><path d="M219.29,100.1c.1,2.1,2.5,4.17,3.1,5.96,1.88,5.6,2.82,16.54,1.66,22.78-3.87,20.79-22.54,30.94-42.69,32.2-.02-.93.09-1.87.02-3.11,12.45,1.44,24.76-3.59,32.64-13.34,7.87-9.75,10.2-22.85,6.17-34.71-2.06-6.08-5.69-11.5-10.52-15.73-2.07-1.81-4.33-3.39-6.76-4.69.47-1.3.64-1.94.86-2.56,5.27-.36,12.42,9.89,15.51,13.2Z" fill="#5a341b"/><path d="M211.38,62.14c.49-3.1,1.07-13.25-2.52-13.91-1.16-.21-2.5.79-3.25,2.02-4.83,7.89-11.1,14.58-19.8,18.1-6.92-7.4-15.15-11.27-23.46-15.18,19.46-3.48,11.85,15.01,33.8,6.74,3.27-2.68,3.11-7.67,5.07-10.87,5.02-1.98,7-6.44,10.53-2.4,4.47,5.13,4.42,11.39-.37,15.49Z" fill="#f6f2eb"/><path d="M152.44,50.15c-7.96-1.24-15.92-2.4-24-2.04-.21-.39.33-1.13.98-1.05,3.71.43,6.59-.94,10.03-1.65,2.74-.57,5.34-.44,8.08-1.37,1.33-.45,5.2,5.6,4.92,6.11Z" fill="#f6f2eb"/><path d="M219.29,100.1c-3.09-3.31-10.23-13.56-15.51-13.2-.25-.5-1.25-1-1.12-1.38.15-.45,1.08-.44,1.52-.68,4.84-2.74,7.53-7.06,9.56-11.66.86.12,2.35.64,2.53,1.84.63,4.12-2.32,5.45-5.45,6.74-1.86.81-1.91,5.32-1.08,7.03,4.19.85,8.53,3.13,10.02,7.48.43,1.27-.69,2.76-.48,3.84Z" fill="#f6f2eb"/><path d="M109.44,50.38c-.63,1.12-9.33,4.32-10.15,1.73-1.17-.87,9.02-2.19,10.15-1.73Z" fill="#f6f2eb"/><path d="M211.45,68.16c-.91.26-1.35,1.3-3.1.74,1.39-1.67,1.44-3.64,2.82-4.85.2,1.36.4,2.73.28,4.11Z" fill="#f6f2eb"/><path d="M115.44,49.27c-.46,1.19-1.99.75-3,.85-.25-1.13-.05-2.4,1.52-2.15.61.1,1.26.49,1.48,1.3Z" fill="#f6f2eb"/><path d="M121.44,48.34c-.8,1.3-2.71.54-4,.77.4-1.83,2.68-.96,4-.77Z" fill="#f6f2eb"/><path d="M155.44,51.16c-.78,0-1.92.04-1.99-.97,1.05-.5,1.38.57,1.99.97Z" fill="#f6f2eb"/><path d="M158.51,180.33c-6.73,6.9-17.33,3.24-20.31,7.01,5.34,2.29,10.36.39,16.25-.52-1.4,4.92-5.15,8.03-9.66,9.86-8.93,3.63-18.03.28-18.24,3.15,3.1,2.47,6.73,2.15,9.89,2.1,3.08.32-7.1,1.95-9.59,2.5-12.59,2.77-26.04.38-36.46-7.24-12.07-8.82-16.93-27.78-11.84-40.97,3.99-.24,8.75-.56,11.95,2.83,12.32,6,5.66,6.39,20.96,12.87,7.97,3.38,16.33,3.92,24.92,4.47,11.61.75,10.17-1.35,21.86.77.65.75.37,2.55.27,3.17Z" fill="#f3be3f"/><path d="M209.5,95.2c.18,1.02.93,2.05,1.96,2.87,3.94,3.15,3.99,8.04,8.74,11.81,4.03,11.86,1.7,24.96-6.17,34.71-7.87,9.75-20.19,14.78-32.64,13.34-5.25-.61-10.3-2.35-14.81-5.1-2.71-1.65-5.2-3.65-7.39-5.95-13.04-13.64-13.55-34.96-1.19-49.2,1.77.59,2.78-.12,3.99-1.23,12-11.05,29.86-12.53,43.51-3.61,1.52.99,2.64,1.93,4,2.36ZM161.88,141.38c10.99,13.1,30.51,14.82,43.62,3.83,13.1-10.99,14.82-30.51,3.83-43.62-10.99-13.1-30.51-14.82-43.62-3.83-13.1,10.99-14.82,30.51-3.83,43.62Z" fill="#95918e"/><path d="M112.42,164.1c-.16-1.4-.57-3.68-2.09-4.31.03-.3.04-.71.23-.96.16-.2.74-.44,1.29-.27,11.38,3.46,22.5,5.23,34.74,5.29-.75,2.51-1.78,4.9-3.59,5.81-2.79,1.41-24.34-.29-28.7-2.51l-1.87-3.04Z" fill="#dec6a3"/><path d="M160.18,165.07c1.13,2.04-.78,5.68-2.76,5.86-3.55.32-6.45-.45-10.18-1.13,1.14-3.42,3-6.92,6.41-8.61,2.24-1.11,5.15,1.42,6.52,3.88Z" fill="#944caa"/><path d="M165.16,155.08c.33,2.65-1.66,3.74-3.52,7.08-1.69-1.4-3.74-2.12-4.05-3.83.67-1.67,1.67-2.84,1.91-4.17,2.25-2.15,3.1.38,5.66.92Z" fill="#95918e"/><path d="M151.82,141.83c2.17.6,4.37,3.13,2.72,5.07-2.81-.69-7.61-5.9-10.36-5.73-1.49-1.07-.19-2.75-.34-4.06,2.62.91,5.38,4.01,7.98,4.73Z" fill="#6f3608"/><path d="M154.54,146.9c.25,1.02-.32,1.61-.87,2.34-6.29.13-6.11-1.82-9.17-6.17-.33-.47-.1-1.36-.33-1.9,2.76-.17,7.55,5.04,10.36,5.73Z" fill="#d49438"/><path d="M144.51,143.07c3.05,4.35,2.87,6.31,9.17,6.17-1.11,1.47-2.94,1.54-4.2,2.81-.86-.53-2.08-.74-2.98-1.04-.21-1.01-1.48-1.25-2.01-1.9-1.41-1.75-2.51-3.72-3.06-5.88,1.03.05,2.06,0,3.08-.16Z" fill="#6f3608"/><path d="M149.47,152.05c2.37,1.45,4.74-.18,7.9-1.26.3,2.44-2.95,7.58-4.89,6.29.98-2.2-3.76-2.13-4.92-2.09-.2-1.37-.7-2.66-1.07-3.99.9.3,2.12.52,2.98,1.04Z" fill="#eab957"/><path d="M132.02,211.97c-1.43,1.85-2.4,3.59-4.18,3.62-1.55.02-3.42-.48-4.51-2.86l7.44-2.01c1.17-.71,1.91,0,1.25,1.26Z" fill="#693f25"/><path d="M166.58,152.83c-.67,1.1-1.29,1.64-1.41,2.25-2.56-.55-3.4-3.07-5.66-.92.9-5.09-2.6-7.83-.32-7.27,2.19,2.3,4.68,4.29,7.39,5.95Z" fill="#5a341b"/><path d="M110.32,159.79c1.52.64,1.93,2.91,2.09,4.31-.52.49-1.21.76-1.91.91-3.61-6.62-2.84-6.65-9.07-10.74,4.17-1.35,6.02,4.33,8.88,5.52Z" fill="#5a341b"/><path d="M168.39,159.21c-1.39.51-1.68.38-.73-.74.29-.89.76-.9,1.06-.74.7.38.8,1.12-.32,1.48Z" fill="#cc903e"/><path d="M174.57,162.05c-1.27-.27-1.24-1.06.01-.91-.12.3-.12.61-.01.91Z" fill="#5a341b"/><path d="M146.5,124.13c.31,5.27-3.24,3.34-5.27,10.73-12.88,11.78-33.59,9.17-43.33-5.38-5.09-7.6-5.79-17-2.58-25.46,4.71-12.4,17.86-20.23,31.05-17.11,10.06,2.38,18.17,9.58,23.37,18.09-2.43,6.53-3.63,12.3-3.24,19.12ZM137.25,131.12c6.25-4.73,7.93-13.84,4.65-20.58-3.54-7.29-13.72-11.3-22.81-5.35-4.32,2.83-6.85,8.01-6.72,13.86.14,6.25,3.57,11.41,8.31,13.71,5.26,2.56,11.46,2.22,16.56-1.64Z" fill="#f7f9f5"/><path d="M105.19,87.25c-5.98,4.38-10.29,10.13-13.54,16.76-.22.44-1.36.79-1.47,1.81-1.34,12.12-2.62.44-.56,15.15.7,5.02,6.27,15.32,10.02,15.85,1.65.23,3,1.63,3.79,3.03,4.31,7.65,23.31,8.17,33.78,2.66,5.62-2.96,1.44,4.13,7.29,6.58.53.66,1.8.89,2.01,1.9.36,1.33.87,2.62,1.07,3.99-20.81.71-44.46-5.46-60.02-20.91-2.49-2.48-8.22-10.19-9.76-13.38-3.47-7.21-5.22-15.26-4.96-23.21.1-3.06,1.38-5.79.38-8.41-1.78,2.99,4.76-11.07,4.4-9.93,1.06-.21,1.51-1.28,1.77-2.25.52-.61.87-1.38,1-2.18l1.27-.18c3.76,4.21,8.37,7.36,14.17,9.18,3.66,1.14,9.58,2.24,9.38,3.53Z" fill="#f3be3f"/><path d="M176.63,70.94c.31,3.03-5.35,2.42-8.16,8.16-.31.16-.81.69-.99.99-3.42,1.98-6.19,4.86-8.18,8.79-3.4,6.74-4.34-3.52-10.09-7.81-4.34-3.24-1.68-3.92-12.9-11.74-7.24-5.04-15.4-7.35-22.84-11.15,6.87-3.39,25.48-2.9,33.78-1.17,9.14,1.91,17.64,4.37,25.41,9.63,1.83,1.24,3.84,2.07,3.96,4.29Z" fill="#f3be3f"/><path d="M151.44,98.05c-.66-.43-1.34-.83-2.05-1.17-2.94-6.04-7.79-10.02-14.22-13.43-19.38-10.26-27.1-5.54-46.45-15.42-1.49-.76-2.8-1.45-3.19-2.74,1.01-.14,2.36.02,3.61-.77,1.43-.89,1.06-2.89,0-4.02-2.48-2.62-5.35-6.87-6.97-7.4-.61-.2-1.21-.41-1.64-.93-.44-1.28-.12-2.87-.39-4.13.5-1.12.1-2.3.36-4.23,2.48.5,3.75,2.29,5.1,4.15,4.78,6.59,8.87,7.18,15.34,11.53,12.04,3.57,23.59,8.11,34.32,14.68,2.51,1.54,18.23,18.79,16.19,23.87Z" fill="#f2bd41"/><path d="M177.53,72.22c-.17-.47-.68-.88-.9-1.28-.12-2.22-2.13-3.05-3.96-4.29-7.77-5.27-16.27-7.72-25.41-9.63-8.3-1.73-26.92-2.22-33.78,1.17-2.16-1.1-5.36-.54-8.06-2.75,23.44-8.91,58.5-4.57,77.32,13.99-1.57,2.45-4.06,1.89-5.21,2.79Z" fill="#f1cc79"/><path d="M208.3,61.07c-.38,4.98-3.43,9.14-6.07,13.77,3.02,1.21,4.4-1.72,7.5-1.66-1.35,4.47-5.13,9.42-9.51,10.68-13.73-2.92-14.03-1.92-26.85-.79-2.01-1.2,9.07-7.02,9.84-7.38,12.51-5.84,13.09-4.99,23.31-16.98l1.79,2.35Z" fill="#efba47"/><path d="M85.53,65.3c.4,1.29,1.71,1.98,3.19,2.74,19.35,9.88,27.07,5.16,46.45,15.42,6.43,3.4,11.28,7.39,14.22,13.43l-1.17.23c-3.18-1.63-5.3-4.99-8.58-7.13-7.2-4.7-15.07-7.13-23.05-8.85l-14.1-3.04c-5.99-1.29-20.39-7.34-21.28-13.15-.2-.56.38-1.01,1.09-.84,1.31.32,2.2,1.08,3.23,1.18Z" fill="#d49438"/><path d="M152.44,99.05c-.38-.28-.72-.62-1-1,2.04-5.08-13.68-22.33-16.19-23.87-10.73-6.57-22.28-11.11-34.32-14.68-6.47-4.35-10.56-4.93-15.34-11.53-1.34-1.85-2.62-3.65-5.1-4.15-.26,1.93.14,3.11-.36,4.23-1.25-2.71-2.3-6.09-.47-9.85,15.49,19.94,26.02,19.55,45.41,28.15,13.23,5.87,23.73,15.83,28.3,29.84.5,1.55-.3,2.39-.93,2.86Z" fill="#f1cc79"/><path d="M208.3,61.07l-1.79-2.35c-10.22,12-10.8,11.14-23.31,16.98-.77.36-11.86,6.18-9.84,7.38-2.15,1.53-4.85,3.08-8.01,3.89,3.88-4.72,7.98-8.92,13.43-11.68l11.37-5.77c7.9-4.01,13.69-10,17.88-17.67,1.29,3.61.48,6.43.27,9.23Z" fill="#f1cc79"/><path d="M114.29,84.76c-3.89-.48-5.5,2.09-9.11,2.49.2-1.28-5.72-2.39-9.38-3.53-5.8-1.81-10.41-4.97-14.17-9.18.2-.67.46-1.01.89-1.24.48-.26,1.72-.51,2.39.05,9.62,8.03,28.46,9.26,29.35,10.27.21.24.07.72.04,1.14Z" fill="#d49438"/><path d="M202.92,89.46c2.42,1.3,4.69,2.88,6.76,4.69-.12.45-.23.77-.18,1.05-1.36-.43-2.48-1.37-4-2.36-13.65-8.92-31.51-7.44-43.51,3.61-1.21,1.11-2.21,1.83-3.99,1.23,11.21-12.91,29.87-16.33,44.92-8.22Z" fill="#c5d4d4"/><path d="M82.16,53.12c-.12,1.35,1.06,2.23,1.9,3.43l4.63,6.56c-3.96.28-7.11-1.45-9.03-3.86.63-.37,1.4-.88,1.64-1.7.16-.54-.71-.9-.88-1.33l-.86-2.15c.66.22.87-.04.82-.6-.04-.45.27-.91.15-1.27.43.51,1.03.73,1.64.93Z" fill="#6f3608"/><path d="M151.82,141.83c-2.6-.72-5.36-3.82-7.98-4.73-.31-2.75.81-5.35,3.4-7.26,1.11,4.93,3.03,8.27,4.58,11.99Z" fill="#cc903e"/><path d="M141.42,143.22c.56,2.16,1.65,4.13,3.06,5.88-5.84-2.45-1.67-9.54-7.29-6.58-10.47,5.51-29.47,4.99-33.78-2.66,13.25,6.32,22.9,8.37,37.21-.68.47,1.36.46,2.78.79,4.05Z" fill="#eab957"/><path d="M99.63,136.83c-3.75-.53-9.32-10.83-10.02-15.85-2.05-14.71-.77-3.03.56-15.15.11-1.02,1.26-1.37,1.47-1.81.22,1.31-.99,2.56-1.03,4.19l-.28,10.84c2.8,10.02,4.43,10.56,9.29,17.78Z" fill="#eab957"/><path d="M149.22,81.07c5.76,4.29,6.69,14.54,10.09,7.81,1.99-3.93,4.76-6.82,8.18-8.79-.95,1.59-3.6,4.13-4.85,5.95-2.06,2.98-3.39,5.96-6.25,8.29l-5.35-9.84c-.71-1.3-1.9-2.13-1.82-3.41Z" fill="#eab957"/><path d="M151.44,98.05c.28.38.62.72,1,1-.51.37-.64,2.09-1.74,1.86-.68-4.32-2.05-.92-2.49-3.79l1.17-.23c.71.33,1.39.74,2.05,1.17Z" fill="#eab957"/><path d="M177.53,72.22c-1.11,1.09-2.14,2.11-4.18,2.94-1.69.69-3.52,3.23-4.87,3.95,2.81-5.74,8.46-5.12,8.16-8.16.21.4.73.81.9,1.28Z" fill="#eab957"/><path d="M77.6,79.15c.3-.98.74-1.86,1.77-2.25-.26.96-.7,2.03-1.77,2.25Z" fill="#6f3608"/><path d="M78.62,135.98c-.56-.05-1.07-.42-1.24-.97.6-.06,1.01.47,1.24.97Z" fill="#6f3608"/><path d="M85.53,65.3c-1.02-.11-1.92-.86-3.23-1.18-.7-.17-1.29.27-1.09.84-1.12-.82-1.75-2.01-2.75-2.99.04-.29-.08-.63-.01-.92.15-.57.29-1.14.27-1.73.28-.1.69.07.94-.07,1.92,2.41,5.07,4.14,9.03,3.86l-4.63-6.56c-.84-1.2-2.02-2.08-1.9-3.43,1.62.53,4.49,4.78,6.97,7.4,1.06,1.12,1.43,3.13,0,4.02-1.26.78-2.6.62-3.61.77Z" fill="#eab957"/><path d="M78.45,61.05c-1.64-.04-1.42-2.48.27-1.73.02.59-.12,1.16-.27,1.73Z" fill="#6f3608"/><path d="M54.82,156.66c-1.26,1.89-9.8,11.62-11.36,8.48-2.83-5.68-5.81-13.95-1.1-18.93,3.22-3.41,7.58-3.33,10.74-1.14,3.79,2.62,4.36,7.66,1.73,11.59ZM44.97,163.43c3.35-2.39,5.72-4.78,8.32-7.5,1.29-2.11,2.09-4.85.69-7.28-1.6-2.75-5.59-4.08-8.48-2.65-6.4,3.16-3.59,11.84-.52,17.43Z" fill="#493d24"/><path d="M51.14,180.28c.67.35,1.34,1.26.93,2.38-2.17,6-2.47,16.15-6.57,17.17-5.17,1.28-10.3-.85-14.71-3.01-6.81-3.32-4.95-7.05-5.35-11.77.49-.03.97.23,2.07-.24-.22-.64-.86-.7-1.24-.86l.28-1.81c1.08.19.82-1.43,1.01-2.12.08-.3,0-.63.01-.94.61.08.92-.49.92-1.03,0-.31.06-.63,0-.93,1.25-.27,2.33.41,3.23,1.64,3.72,5.08,14.7,7.11,19.41,1.52Z" fill="#944caa"/><path d="M51.26,178.25c-2.15.81-4.28,2.21-6.93,2.61-6.09.91-11.2-2.37-12.96-7.72.49-1.13-.4-3.04,1.12-3.68,1.08-.45,2.38-.89,3.79-.3,5.11,2.14,15.47,4.67,15.89,6.48.21.9-.57,1.79-.91,2.6Z" fill="#944caa"/><path d="M51.26,178.25c-.2.62-.02,1.39-.12,2.03-4.71,5.59-15.68,3.56-19.41-1.52-.9-1.23-1.98-1.91-3.23-1.64-.36-1.96,2.21-2.48,2.86-3.97,1.76,5.35,6.87,8.63,12.96,7.72,2.65-.4,4.78-1.8,6.93-2.61Z" fill="#693f25"/><path d="M26.56,182.14c.11-.72-.1-2.27,1.01-2.12-.19.69.07,2.32-1.01,2.12Z" fill="#693f25"/><path d="M25.44,185.05c-.03-.38.27-1.45.84-1.1.38.15,1.01.22,1.24.86-1.1.47-1.58.21-2.07.24Z" fill="#693f25"/><path d="M27.58,179.07c.03-.53.33-1.04.92-1.03,0,.54-.31,1.11-.92,1.03Z" fill="#693f25"/><path d="M81.07,142.97c.92,1.08-.58,1.27-2.21,1.1-1.31-1.76.37-2.97,2.21-1.1Z" fill="#eab957"/><path d="M220.2,109.88c-4.75-3.77-4.81-8.67-8.74-11.81-1.03-.82-1.78-1.85-1.96-2.87-.05-.28.07-.6.18-1.05,4.83,4.23,8.45,9.65,10.52,15.73Z" fill="#dec6a3"/><path d="M161.88,141.38c1.54-.55,2.63-.74,3.67-.63,2.12.23,3.05,2.71,4.9,3.38-3.98,2.81,9.5,5.75,12,5.93,5.49.39,10.3-.89,15.12-3.2,3.21-1.54,5.46-3.05,7.88-5.8,3.08-3.5,5.73-6.84,7.08-11.95,2.62-9.88.07-21.96-7.95-27.85,1.3,1.76,1.64,3.67,2.06,5.57l-.96.17c-1.05-2.33-4.22-4.06-5.52-6.24-1.53-2.57-2.96-5.06-6.4-6.19-3.85-1.26-7.82-1.91-11.96-1.21-22.93,3.88-27.54,29.65-22.22,32.87l-.12,1.69c-2.71,2.07.59,3.37,2,9.14l.42,4.3c-10.99-13.1-9.27-32.63,3.83-43.62,13.1-10.99,32.63-9.27,43.62,3.83,10.99,13.1,9.27,32.63-3.83,43.62-13.1,10.99-32.63,9.27-43.62-3.83Z" fill="#493d24"/><path d="M137.25,131.12c-5.1,3.86-11.3,4.2-16.56,1.64-4.75-2.31-8.17-7.46-8.31-13.71-.13-5.86,2.4-11.04,6.72-13.86,9.09-5.95,19.27-1.94,22.81,5.35,3.28,6.75,1.6,15.85-4.65,20.58ZM120.39,114.16c-1.75,1.22-1.31,3.62-1.26,5.84.12,4.94,2.96,8.02,7.21,9.23,3.98,1.13,6.17-.12,8.98-2.33,5.32-3.7,4.97-11.98-.54-16.18-1.93-1.47-4.25-1.98-6.34-.77-1.75-.38-4.22-1.7-6.33-.12-1.2.9-1.43,2.38-1.72,4.33Z" fill="#48b5a0"/><path d="M44.97,163.43c-3.07-5.59-5.88-14.27.52-17.43,2.89-1.43,6.89-.1,8.48,2.65,1.41,2.43.6,5.17-.69,7.28-2.59,2.73-4.97,5.11-8.32,7.5ZM50.2,153.76c.87.35,1.33.4,1.6.11,1.78-1.86-.16-5.85-2.3-6.48-1.54-.45-3.58.28-4.27,1.24-1.07,1.49-1.46,4.07.12,5.58.79.74,1.2,1.56,1.79,1.72,1.15.32,2.47-.03,3.06-2.18Z" fill="#944caa"/><path d="M200.16,100.77c-3.58,1.01-8.95-4.59-13.36-2.29-1.39.73-1.15,2.64-.87,3.84.61,2.59,4.46,2.54,6.74,4.56,7.06,6.24,7.36,14.51,12.8,13.25-2.29,9.56-3.33,12.1-9.19,19.8-2.27,1.11-6.18,4.16-8.85,4.98-.68.21-1.7-.07-2,.82-1.35-.26-2.67.07-4,.27s-2.68-.01-4,0l-7-1.85c-1.84-.67-2.78-3.15-4.9-3.38.67-5.55-1.07-11.55-5.96-14.5-5.33-3.22-.71-28.99,22.22-32.87,4.15-.7,8.12-.05,11.96,1.21,3.44,1.13,4.86,3.62,6.4,6.19ZM192.91,133.94c6.04-6.83,5.41-17.26-.87-23.48-3.26-3.24-8.74-5.04-13.39-4.16-9.09,1.73-14.89,10.33-13.63,19.41.9,6.51,5.95,11.95,12.36,13.49,5.57,1.34,11.47-.67,15.53-5.26Z" fill="#f5eee6"/><path d="M200.16,100.77c1.3,2.18,4.47,3.91,5.52,6.24,2.62,5.82,5.75,14.01,3.33,20.43l-1.78,4.7c-.62.08-.99-.45-1.07-1.01.62-1.34-.06-3.81,1.2-5.05,1.27.24,1.42-1.27.07-1.15-.14-1.37.38-2.91-.31-4.57-.23-.56-1.29-.31-1.64-.23-5.44,1.26-5.74-7.01-12.8-13.25-2.29-2.02-6.13-1.97-6.74-4.56-.28-1.2-.53-3.11.87-3.84,4.41-2.3,9.78,3.3,13.36,2.29Z" fill="#f7f9f5"/><path d="M207.43,124.92c.03.34-.02.83-.07,1.15-1.26,1.24-.58,3.71-1.2,5.05-1.29,1.36-4.82,6.82-4.78,8.83-.75.11-2.29.11-2.79.83.54-1.06-1.7-1.15-2.31-.86,5.86-7.7,6.91-10.24,9.19-19.8.35-.08,1.4-.34,1.64.23.69,1.66.18,3.2.31,4.57Z" fill="#95918e"/><path d="M205.44,141.05c-2.42,2.74-4.67,4.25-7.88,5.8.19-2.78,3.88-3.99,3.82-6.9,2.38-.33,5.23-6.19,5.85-7.82l1.78-4.7c2.42-6.42-.71-14.61-3.33-20.43l.96-.17c2.21,1.76,4.45,5.05,4.7,8.37,1.24,16.91-1.64,12.55-5.9,25.85Z" fill="#95918e"/><path d="M198.6,140.78c-3.19,4.62-8.85,6.82-14.63,8.06-.92.2-1.48.57-1.53,1.21-2.5-.18-15.98-3.12-12-5.93l7,1.85c.35.61.94,1.09,1.52,1.13,1.13.08,2.56.19,2.48-1.12,1.33-.2,2.65-.53,4-.27.39.08.83.23,1.38.16.51-.06.83-.35.62-.98,2.66-.82,6.57-3.87,8.85-4.98.61-.3,2.85-.2,2.31.86Z" fill="#693f25"/><path d="M205.44,141.05c4.26-13.31,7.14-8.94,5.9-25.85-.24-3.31-2.49-6.6-4.7-8.37-.42-1.9-.76-3.82-2.06-5.57,8.02,5.89,10.56,17.96,7.95,27.85-1.35,5.11-4,8.45-7.08,11.95Z" fill="#c5d4d4"/><path d="M207.23,132.13c-.61,1.62-3.46,7.48-5.85,7.82-.04-2.01,3.49-7.47,4.78-8.83.08.56.45,1.09,1.07,1.01Z" fill="#dec6a3"/><path d="M201.39,139.95c.05,2.91-3.63,4.12-3.82,6.9-4.82,2.31-9.63,3.6-15.12,3.2.05-.65.61-1.02,1.53-1.21,5.78-1.24,11.44-3.43,14.63-8.06.5-.73,2.04-.73,2.79-.83Z" fill="#dec6a3"/><path d="M165.54,140.75c-1.03-.11-2.12.08-3.67.63l-.42-4.3c.14.28.54.27.87-.1-.46-3.48-1.47-6.34-2.87-9.04l.12-1.69c4.89,2.96,6.63,8.95,5.96,14.5Z" fill="#693f25"/><path d="M161.46,137.07c-1.41-5.77-4.71-7.08-2-9.14,1.4,2.7,2.41,5.56,2.87,9.04-.34.37-.73.38-.87.1Z" fill="#dec6a3"/><path d="M268.44,210.81c-.38.11-.83.14-1.37.08-.48-.06-.83-.33-.63-.95.71.15,1.91-.28,2,.87Z" fill="#f6f2eb"/><path d="M179.38,164.87l2.97,2.15c.2,2.09.44,4.59,2.1,6.03-.01.75.25,1.49.33,2.23.39,2.08-1.3,3.62-2.25,5.65-4.9,10.5-8.43,16.75-13.15,26.93,6.82-1.3,21.15-5.14,26.16-3.58.62.66,20.85,9.99,20.08,6.91,1.5,0,3.16-.3,4.96-.89l19.07-6.16c2.87-.93,5.92.15,8.8-.04,3.93,1.56,9.19.21,10.31,2.6-.61.38-1.15.87-1.51,1.5l-13.69-2.09c-9.35,2.45-18.21,5.35-27.45,8.37-1.38.45-2.77.35-4.07-.17l-20.52-8.13c-4.13,1.01-8.19,1.3-12.21,2.61-2.14.7-1.5,6.06-3,7.51-.73.08-1.46-.03-2.15-.25l.43-6.23c-1.98-.96-11.23,3.49-8.73-1.48l7.7-15.3c.9-1.78,1.45-3.42,1.73-5.04.22-1.27.32-2.56.2-3.85,1.32.08,1.07-1.25-.1-1.08-.33-3.63-1.73-7.33-1.28-11,.37-3,.63-5.99.51-9,1.41-.02.59,1.79.78,2.97l2.83,17.27c2.44-1.79,2.53-4.51,2.26-7.18l-1.11-11.25Z" fill="#5a341b"/><path d="M242.62,143.97c4.93,3.73,7.2,10.47,4.51,16.74-3.39,7.91-7.85,14.99-13.86,22.19-6.48-6.38-10.31-14.09-13.95-21.98-1.5-3.26-1.2-6.39.04-9.03,1.26-.46,1.86-1.73,2.8-3.07,3.61-5.18,9.68-8.33,15.95-6.35,1.6.5,3.11,1.6,4.51,1.5ZM242.01,155.07c0-4.81-3.9-8.7-8.7-8.7s-8.7,3.9-8.7,8.7,3.9,8.7,8.7,8.7,8.7-3.9,8.7-8.7Z" fill="#d49438"/><path d="M258.44,187.02c-12.28,2.24-9.95-1.99-19.23-3.03-.47-.87-.72-1.84-.85-2.82.71-2.91,3.22-5.35,5.26-7.4,11.71-.63,9.81,3.23,12,6.29,1.7,2.36,1.97,4.81,2.82,6.95Z" fill="#52ae90"/><path d="M258.75,206.7c-1.12-2.39-6.37-1.04-10.31-2.6,5.2-4.62,11.62,4.82,14.91-.68.67.21,1.43.05,2.09-.07.01,1.02.94.8,1.17-.28-.19-.79-.75-.99-1.03-1.11.13-.78-4.11-10.3-5.11-9.87.96-2.29-1.42-3.51-2.04-5.07-.85-2.15-1.12-4.59-2.82-6.95-2.2-3.06-.29-6.92-12-6.29-.35-4.58,8.07-2.11,11.35-1.14,3.54,5.02,5.31,10.95,8.24,16.4,3.3,6.13,5.81,12.16,8.68,18.61-5.04.22-7.52-1.61-13.14-.95Z" fill="#f7efd8"/><path d="M226.31,178.96c-1.42.04-2.95.5-4.04,1.95-2.18,1.44-3.41,3.36-4.01,5.51-.15-.3-1.3.23-1.44-.54-.86-4.82.56-9.48-1.38-9.94-2.49-.58-5.36-.18-6.85-1.93.21-.66.5-1.29.86-1.89,2.87,1.39,8.21,2.18,12.32.33,2.31,1.2,3.38,4.41,4.53,6.5Z" fill="#dec6a3"/><path d="M178.2,161.24c.04.29-.01.6.08.87.14.44.24,1.41.91,1.03-.06.58.14,1.16.19,1.73l1.11,11.25c.26,2.66.18,5.38-2.26,7.18l-2.83-17.27c-.19-1.18.64-2.99-.78-2.97l-.04-1c-.11-.31-.11-.61.01-.91.93-1.28,2.41.17,3.61.1Z" fill="#52ae90"/><path d="M231.43,185.89c.97-.05,1.97.46,2.92.08,1.63-.03,3.25-.09,4.88.05.57.45,1.09,3.57-.03,3.61-3.45.15-17.7-.51-19.85-2.39l4.12-1.06c7.79-2.01,3.55-.07,7.96-.29Z" fill="#f1cc79"/><path d="M226.31,178.96c.36.66,1.52,1.32,1.51,2.25-.28,3.28-4.4,2.27-4.35,4.98l-4.12,1.06c-.3-.27-.89-.42-1.1-.83.61-2.15,1.83-4.07,4.01-5.51,1.09-1.45,2.61-1.91,4.04-1.95Z" fill="#95918e"/><path d="M242.62,143.97c-1.4.1-2.91-1-4.51-1.5-6.26-1.97-12.34,1.18-15.95,6.35-.94,1.34-1.53,2.62-2.8,3.07.69-1.45.28-3.34,1.71-5.2,5.32-6.96,14.97-8.11,21.55-2.72Z" fill="#eab957"/><path d="M231.43,185.89c-4.41.23-.17-1.71-7.96.29-.05-2.71,4.06-1.7,4.35-4.98,1.58,1.18,2.95,2.78,3.61,4.68Z" fill="#dec6a3"/><path d="M239.21,184c0,.32-.17.65-.14.98s.06.77.16,1.05c-1.62-.14-3.25-.08-4.88-.05,1.07-1.8,2.17-3.7,4.01-4.79.13.98.38,1.94.85,2.82Z" fill="#dec6a3"/><path d="M184.44,173.05c-1.66-1.44-1.9-3.94-2.1-6.03,1.27.25,2.19,1.27,2.16,3.03l-.06,3Z" fill="#f1cc79"/><path d="M236.33,201.06c.37-.12.87-.04,1.26-.08.6-.07,1.27.24,1.87.13.16,1,.22,2.02.18,3.04l-19.07,6.16c-1.8.58-3.46.88-4.96.89v-3.04s.09-.79.09-.79c2.08.05,4.27-.5,5.81-1.94.65.02,1.29-.15,1.93-.24,4.49-.62,8.6-2.71,12.89-4.13Z" fill="#f7efd8"/><path d="M213.24,207.92c.45,1.09,1.56.77,2.38.23v3.04c.76,3.08-19.47-6.25-20.09-6.91,0-1,.35-2.1.09-3.09l10.66,4.14c2.52.98,4.62,2.39,6.96,2.59Z" fill="#c5d4d4"/><path d="M247.29,200.04l2.16.09c2.93,2.29,9.65,1.94,13.9,3.29-3.28,5.5-9.71-3.94-14.91.68-2.88.19-5.93-.88-8.8.04.04-1.02-.02-2.03-.18-3.04.69-.12,1.36-.93,2.08-.92,1.92.04,3.85-.22,5.75-.14Z" fill="#dec6a3"/><path d="M209.46,172.13c-.36.59-.66,1.22-.86,1.89l-1,.06c-.34.02-.7-.04-1.04-.1.4-.79-.69-.79-1.2-.87-.35-.05-.71.05-1.06.04-.67-1.36-1.93-.15-2.83-.09-3.69-.21-8.55-.43-11.88,2.23-2.97,2.38-4.09,6.49-5.17,9.62-1.94,1.94-3.7,4.36-3.93,7.15-1.81,3.43-3.91,6.77-5.19,11.06l17.91-3.17c.54.89,1.56.92,2.42,1.25.26.99-.09,2.1-.09,3.09-5.01-1.56-19.35,2.28-26.16,3.58,4.72-10.18,8.25-16.43,13.15-26.93.95-2.03,2.64-3.57,2.25-5.65,1.34-.24,1.59-2.34,3.01-2.98,10.37-1.84,13.37-4.21,21.68-.18Z" fill="#f7efd8"/><path d="M242.01,155.07c0,4.81-3.9,8.7-8.7,8.7s-8.7-3.9-8.7-8.7,3.9-8.7,8.7-8.7,8.7,3.9,8.7,8.7ZM239.57,155.09c0-3.46-2.8-6.26-6.26-6.26s-6.26,2.8-6.26,6.26,2.8,6.26,6.26,6.26,6.26-2.8,6.26-6.26Z" fill="#653511"/><path d="M197.36,187.04c-.9,4.43-2.73,8.61-4.16,12.9l-17.91,3.17c1.28-4.29,3.38-7.62,5.19-11.06,4.58-.76,11.98-5.08,16.87-5.01Z" fill="#52ae90"/><path d="M201.47,173.05c.66,2.87-1.23,5.3-2.02,7.97-5.62.06-9.57,4.98-15.03,3.88,1.08-3.13,2.2-7.24,5.17-9.62,3.33-2.66,8.19-2.44,11.88-2.23Z" fill="#52ae90"/><path d="M215.44,175.94l.1,9.15c-.13,1.36-.53,2.33-1.07,3.09-.26.03-.54-.05-.8-.03-1.2-1.73-3.38-2.53-5.56-3.53-5.59-2.58-.74-6.63-.51-10.54l1-.06c1.49,1.75,4.36,1.35,6.85,1.93Z" fill="#eab957"/><path d="M199.45,181.02c-.58,1.94-.74,4.05-1.01,6.03l-1.08-.02c-4.89-.07-12.3,4.26-16.87,5.01.22-2.79,1.99-5.21,3.93-7.15,5.46,1.1,9.41-3.82,15.03-3.88Z" fill="#f1cc79"/><path d="M206.56,173.97c.34.06.7.12,1.04.1-.23,3.91-5.08,7.96.51,10.54,2.18,1,4.36,1.81,5.56,3.53v1.08c-4.51-.79-9.22-4.41-13.23-5.08,1.19-3.7,1.98-7.6,3.86-11.01.35.02.71-.09,1.06-.04-.42.79.7.79,1.2.87Z" fill="#cc903e"/><path d="M204.3,173.14c-1.88,3.41-2.66,7.31-3.86,11.01-.27.84-.12,1.78.07,2.62l-1.07.28c-.32.08-.67,0-1,0,.27-1.99.43-4.1,1.01-6.03.79-2.67,2.68-5.1,2.02-7.97.9-.07,2.15-1.28,2.83.09Z" fill="#693f25"/><path d="M199.44,187.05c-.66,3.5-4.82,10.28-3.82,14.14-.85-.33-1.88-.37-2.42-1.25,1.43-4.29,3.26-8.47,4.16-12.9l1.08.02c.33,0,.68.08,1,0Z" fill="#1b6056"/><path d="M206.56,173.97c-.5-.09-1.63-.09-1.2-.87.51.08,1.6.09,1.2.87Z" fill="#693f25"/><path d="M258.44,187.02c.62,1.56,3,2.78,2.04,5.07-2.28.13-4.56.26-6.84.12-1.05.02-1.95.69-2.19,1.73-.79-.01-1.65.26-2.07.96-.65-.19-1.65.02-1.88,1.17-.31,1.59-.17,2.82-.2,3.97-1.9-.08-3.83.18-5.75.14-.06-1.13.07-2.31-.21-3.42,3.36-7.23,4.3-3.39,5.04-6.32-7.44-.9-3.77-3.89-7.31-5.47-.03-.32.14-.65.14-.98,9.28,1.04,6.95,5.27,19.23,3.03Z" fill="#eab957"/><path d="M260.48,192.09c1-.43,5.24,9.09,5.11,9.87l-.14,1.39c-.66.12-1.43.28-2.09.07-4.25-1.36-10.98-1-13.9-3.29l-.07-5.23c.42-.69,1.28-.97,2.07-.96.63,0,1.38.09,1.81-.5.25-.35.33-.82.38-1.23,2.28.14,4.56,0,6.84-.12Z" fill="#52ae90"/><path d="M265.44,203.35l.14-1.39c.28.12.84.31,1.03,1.11-.24,1.08-1.16,1.31-1.17.28Z" fill="#dec6a3"/><path d="M218.26,186.42c.2.4.79.56,1.1.83,2.14,1.88,16.39,2.54,19.85,2.39,1.12-.05.6-3.16.03-3.61-.1-.28-.13-.73-.16-1.05,3.53,1.59-.13,4.57,7.31,5.47-.75,2.93-1.68-.91-5.04,6.32-.36-1.38-.41-4.67-2.11-5.28l-22.73-1.26c-.16-1.09-.83-2.19-2.03-2.04.54-.76.94-1.73,1.07-3.09l-.1-9.15c1.94.45.52,5.12,1.38,9.94.14.77,1.29.24,1.44.54Z" fill="#cc903e"/><path d="M223.44,205.19c-.64.09-1.27.25-1.93.24-1.1-.37-2.99.13-3.7-1.22-.38-.71-.19-1.51-.58-1.79-.57-.42-1.09-.6-1.66-.54l-.13-6.83,12.02.05c2.23,0,4.4.47,6.21,1.75,1.17.82,1.01,2.6.58,3.74-3.63,1.3-6.82,2.12-10.57,2.67-.41.82-.34,1.43-.25,1.93Z" fill="#48b5a0"/><path d="M241.33,196.77c.28,1.1.15,2.29.21,3.42-.72-.01-1.39.8-2.08.92-.6.11-1.27-.2-1.87-.13.07-.42.08-.94-.17-1.31s-.76-.55-1.18-.61l-.09-.92c.25-.68.29-1.44-.1-2.14s-1.3-.49-1.93-.74c-6.74-2.64-10.78-2.31-18.43-2.41l.81-2.62,22.73,1.26c1.69.61,1.75,3.9,2.11,5.28Z" fill="#f1cc79"/><path d="M215.44,195.05l.13,6.83c-.22,1.83-.17,3.67.13,5.49l-.08.79c-.81.53-1.93.85-2.38-.23,1.68-5.79,1.4-9.01.99-15.09l1.46.02-.25,2.2Z" fill="#1b6056"/><path d="M221.51,205.42c-1.54,1.44-3.73,1.99-5.81,1.94-.3-1.81-.35-3.66-.13-5.49.57-.06,1.09.12,1.66.54.38.28.2,1.08.58,1.79.72,1.35,2.6.85,3.7,1.22Z" fill="#52ae90"/><path d="M234.12,195.26c-.12.6.09,1.47.46,2.09.26.44.8.99,1.57.78l.09.92.09,2c-4.29,1.42-8.4,3.51-12.89,4.13-.09-.5-.16-1.11.25-1.93,3.75-.56,6.93-1.37,10.57-2.67.42-1.14.59-2.91-.58-3.74-1.81-1.27-3.98-1.74-6.21-1.75l-12.02-.05.25-2.2c7.64.1,11.69-.23,18.43,2.41Z" fill="#52ae90"/><path d="M237.59,200.98c-.39.05-.89-.04-1.26.08l-.09-2c.43.06.92.23,1.18.61s.24.89.17,1.31Z" fill="#dec6a3"/><path d="M214.23,192.83c.41,6.09.69,9.3-.99,15.09-2.34-.2-4.44-1.61-6.96-2.59l-10.66-4.14c-1-3.85,3.16-10.64,3.82-14.14l1.07-.28c3.95.61,10.1,6.01,13.72,6.06Z" fill="#52ae90"/><path d="M249.37,194.9l.07,5.23-2.16-.09c.04-1.14-.11-2.38.2-3.97.23-1.16,1.23-1.37,1.88-1.17Z" fill="#95918e"/><circle cx="233.31" cy="155.09" r="6.26" fill="#f6f2eb"/><path d="M216.5,190.23l-.81,2.62-1.46-.02c-.04-.56-.04-1.12.02-1.68.06-.49.43-1.61-.6-1.15-.03-.25.01-.51.01-.77v-1.08c.27-.01.54.07.8.03,1.2-.15,1.87.95,2.03,2.04Z" fill="#6f3608"/><path d="M213.67,189.23c0,.25-.04.51-.01.77.05.39-.09,1.48.6,1.15-.07.56-.06,1.12-.02,1.68-3.62-.05-9.77-5.46-13.72-6.06-.19-.84-.34-1.78-.07-2.62,4.01.67,8.72,4.3,13.23,5.08Z" fill="#f1cc79"/><path d="M251.44,193.94c.24-1.04,1.14-1.71,2.19-1.73-.05.4-.13.87-.38,1.23-.42.59-1.18.51-1.81.5Z" fill="#95918e"/><path d="M236.14,198.14c-.77.21-1.3-.34-1.57-.78-.37-.62-.58-1.5-.46-2.09.63.25,1.51.01,1.93.74s.35,1.45.1,2.14Z" fill="#dec6a3"/><path d="M214.25,191.15c-.69.33-.55-.76-.6-1.15,1.03-.46.66.66.6,1.15Z" fill="#cc903e"/><path d="M135.32,126.9c.58-.74.46-1.82-.29-2.4s-1.82-.46-2.4.29-.46,1.82.29,2.4,1.82.46,2.4-.29c-2.82,2.21-5,3.46-8.98,2.33-4.25-1.21-7.08-4.29-7.21-9.23-.05-2.23-.49-4.62,1.26-5.84.84,1.52,2.2,2.99,3.67,3.15,2.02.21,4.17-.56,4.96-2.56.7-1.76-.14-3.46-.58-4.8,2.09-1.21,4.41-.69,6.34.77,5.52,4.19,5.87,12.48.54,16.18Z" fill="#1b6056"/><path d="M128.44,109.95c.44,1.34,1.28,3.03.58,4.8-.79,2-2.94,2.77-4.96,2.56-1.46-.15-2.83-1.63-3.67-3.15.29-1.96.52-3.44,1.72-4.33,2.11-1.57,4.58-.25,6.33.12Z" fill="#f7f9f5"/><path d="M50.2,153.76c.98-.95,1.01-2.52.06-3.5s-2.52-1.01-3.5-.06-1.01,2.52-.06,3.5,2.52,1.01,3.5.06c-.59,2.15-1.91,2.5-3.06,2.18-.58-.17-1-.98-1.79-1.72-1.59-1.51-1.2-4.09-.12-5.58.69-.96,2.73-1.69,4.27-1.24,2.14.63,4.08,4.62,2.3,6.48-.28.29-.73.24-1.6-.11Z" fill="#693f25"/><path d="M192.91,133.94c-4.06,4.59-9.95,6.6-15.53,5.26-6.42-1.54-11.46-6.98-12.36-13.49-1.26-9.08,4.54-17.68,13.63-19.41,4.65-.89,10.12.92,13.39,4.16,6.27,6.22,6.9,16.66.87,23.48ZM172.5,117.97c-4.15,4.35-1.83,13.19,4.16,15.44,3.35,1.26,9.18,2.28,10.72-.64l.88-1.66c3.49-1.3,4.93-10.34.89-14.92-1.88-2.13-4.91-4.09-8.52-3.16-1.9.49-4.76-2.19-6.94.57-.76.97-1.29,2.29-1.19,4.37Z" fill="#48b5a0"/><path d="M181.44,145.99c.07,1.31-1.36,1.2-2.48,1.12-.58-.04-1.16-.52-1.52-1.13,1.32,0,2.69.21,4,0Z" fill="#95918e"/><path d="M187.44,144.91c.21.63-.11.92-.62.98-.54.07-.99-.09-1.38-.16.3-.89,1.32-.61,2-.82Z" fill="#95918e"/><path d="M207.37,126.07c.05-.32.1-.81.07-1.15,1.35-.13,1.2,1.39-.07,1.15Z" fill="#c5d4d4"/><circle cx="133.98" cy="125.84" r="1.71" fill="#f5eee6"/><circle cx="48.48" cy="151.98" r="2.48" fill="#f7efd8"/><path d="M188.26,131.12c-.44-.8-1.29-1.6-2.05-1.3-1.21.48-1.46,1.44-1.07,2.88.71-.03,1.48-.03,2.24.08-1.55,2.91-7.38,1.89-10.72.64-5.99-2.25-8.31-11.09-4.16-15.44.91,1.36,2.22,2.52,3.64,2.68,1.84.21,3.73-.15,4.85-1.89,1.28-1.97.64-4.17-.36-5.73,3.61-.93,6.65,1.03,8.52,3.16,4.03,4.58,2.59,13.62-.89,14.92Z" fill="#368e7a"/><path d="M180.63,113.04c1,1.57,1.64,3.76.36,5.73-1.13,1.74-3.01,2.1-4.85,1.89-1.42-.16-2.74-1.32-3.64-2.68-.1-2.08.43-3.4,1.19-4.37,2.17-2.76,5.04-.08,6.94-.57Z" fill="#f5eee6"/><path d="M188.26,131.12l-.88,1.66c-.75-.11-1.53-.11-2.24-.08-.39-1.44-.14-2.4,1.07-2.88.76-.3,1.61.5,2.05,1.3Z" fill="#c5d4d4"/></svg>