<?xml version="1.0" encoding="UTF-8"?><svg id="Layer_1" xmlns="http://www.w3.org/2000/svg" viewBox="0 0 255.12 255.12"><path d="M170.75,73.67c6.26,9.93,7,12.94,8.95,26.1,3.62-6.66,5.29-13.34,6.72-20.18l2.35-11.19c.48-2.28,2.54-3.79,4.28-3.81,5.71-.05,7.29,10.44,7.53,15.9,2.38-.23,3.79-5.96,7.9-3.45,3.85,2.34,1.6,15.84.06,20.13,1.46.53,3.26-.06,4.13,1.01,4.36,5.37-3.84,17.73-7.15,22.46-2.04,2.92,4.45,3.64-4.17,13.67-6.42,7.47-14.76,12.21-23.79,15.94-3.69,12.79-1.63,15.39-7.08,27.11,0,3.03.82,6.54,1.61,9.39,6.61-6.22,16.48-3.47,16.74.25.04.54-.52,1.06-1.09,1.94,1.23,1.3,3.4,1.88,4.06,3.92s.04,3.99-1.18,5.06c-1.03.91-2.65,1.74-4.4,1.69-16.21-.54-15.76,9.99-20.36,10.49-1.65.18-3.54.26-4.68-1.23-4.11-5.39,3.45-10.35.74-12.08-1.26-.8-7.85,1.52-9.22-1.49.26-.39.57-.74.93-1.04,7.5-.46,10.12-.09,14.77-6.68,4.65-1.41-.77-7.35-.18-11.97,8.18-10.78,1.89-29.81-4.08-41.53-1.03-2.03-2.02-3.77-2.35-5.66,1.39-.35,1.4-3.99,3.63-2.91-.29.55-1.12,1.26-1.36,2.11.92,2.98,2.98,5.39,4.07,8.41l5.38,14.93c3.02-4.7-2.66-20.93-5.81-26.32.16-.3.05-1,.16-1.51.17-.76,1.32-.47,1.72-.83-.67,2.33,4.32,8.18,5.67,13.11-.26,1.85.79,3.29,1.3,4.96.55,1.78-.29,3.94,1.11,6.21,8.86-1.79,22.22-12.4,26.22-21.1-3.52-.6-5.25,1.71-8.3,1.62,1.4-2.61,3.71-3.86,5.68-5.99,5.34-5.76,9.6-12.64,10.07-20.48-1.93-.91-2.37,1.35-3.07,1.87-7.16,5.24-2.97,4.25-8.63,6.84,3.62-7.88,11.22-20.2,7.25-27.89-.2-.45.41-1.3-.59-2.21-6.42,4.51-5.89,12.99-10.04,17.25.55-7.52,3.45-20.06-.75-26.26-.71-1.05-1.1-2.5-2.84-2.91-1.57,2.35-1.7,4.54-2.16,7.04-4.52,24.33-6.24,18.94-9.91,29.1-1.5.78-2.81-8.52-4.09-8.09-.2-5.57-6.22-21.33-12.09-22.82-2.22-.56-4.52,1.03-5.91,1.99,12.78,6.19,16.34,19.4,11.89,30.89-.12.3-.06.68-.09,1-1.78,1.54-3.07,4.14-5.83,6.8-.53.23-1.92.26-1.92,1.11-10.14,4.46-13.99,1.63-16.99,2.03-2.52.33-5.62-3.67-6.9-1.37-.29.51-.3,1.4-.28,2.2-.52,0-1.06.07-1.39.26-.55.3-.12,1.2-.97,2.01-.68-1.33-.92-2.87-2.49-3.08-.19-.65-.61-1.23-.93-1.8l.2-1.91c1.3.24,3.74,1.27,4.97.08,2.78-2.68.71-5.62-1.1-7.4s-3.53-3.74-7.2-2.8c-.51.05-1.41-.04-.99.66-1.87-.3-3.21,1.71-3.81,2.96-.82,1.73-.17,3.95,1.04,5.18.71.71.54,2.59,2.04,2.88-.33,0-.7.24-1.03.18-1.6-.3-2.91.33-4.19,1.17-3.85,2.53-7.94,4.89-12.99,5.71-13.3,2.17-24.89-7.47-25.06-20.93-.1-8.16,3.58-15.27,10.26-19.52l-6.39-1.32c-1.89-.39-3.28.12-4.13,1.65-4.83,8.72-3.86,6.68-5.6,16.21-1.57,0-1.68,8.07.04,8.05.42,1.86.92,3.73.8,5.64-.5.14-1.03.3-1.35.55-2.18,1.66,1.13,3.51,1.51,6.87-10.06-9.02-17.03-22.72-20.99-36.21-.49-1.68-1.11-3.19-2.4-4.52-.7-.71-1.62.02-1.47.77-3.23.76-2.35,12.97-1.82,15.51.97,4.67,3.02,8.53,3.62,13.5-5.1-3.9-4.17-10.12-12.37-16.03-.82-.59-.81,1.51-.79,1.93-2.75,1.82,2,13.23,3.55,15.61l7.92,12.18c-5.2-1.5-9.06-7.5-13.18-7.72.1,9.21,9.75,17.37,16.86,21.86,1.25.79,2.33,1.52,2.87,2.88-2.05.61-3.54-.09-5.11-.25-.71-.9-.81-2.22-1.64-2.43-1.1-.28-2.39-.24-3.16-.14-.25-1.05-.93-2-1.96-2.97-5.41-5.08-11.88-13.65-10.2-21.27,1.56-.72,3.12-.53,4.55-1.52-2.66-4.94-6.44-17.7-1.96-20.75,3.19-2.17,6.23,2.66,7.17,2.31,1.08-.4-.84-17.52,6.91-16.47,1.35.18,3.2,1.26,3.87,3.15,2.57,7.25,6.7,20.66,11.62,25.39.69,2.8,2.33,5.18,4.88,7.2l-.74-9.23c-.07-.86.53-2.03.16-2.86,1.24-.41.65-2.09.66-3.08.52-5.74,2.9-10.97,5.96-16.28.79-1.38-9.73-4.82-10.37-12.37.5-1.03,1.94-1.45,2.73-2.46-2.39-3.23-5.85-14.41-1.58-15.41,2.87-.68,6.07,5.65,10.26,8.06,20.01,11.51,18.72,1.44,34.9-.62,10.28-1.31,20.38-1.28,30.19,2.37,10.02-4.08,14.85-7.06,19.72-16.72.68-1.34,1.53-2.15,2.75-2.04,4.79.43,3.02,11.26,2.54,14.54-.17,1.16,1.99,1.84,2.19,2.71.78,3.36-1.09,6.66-3.44,9.01l-4.59,4.58c.75,1.32,1.83,2.36,3.03,2.95ZM132.63,75.4c-.31.12-.99.1-1.58.07-.34-.02-.61-.46-.43-1.01,1.9-5.04,6.45-8.08,9.98-12.02,1.14-.45,2.72-.71,3.73-1.9-9.35-4.39-30.53-2.15-39.47,2.93.61.49,1.2.57,1.58.99l-.09,2.22-13.25-2.9c-7.83-1.71-14.1-6.14-19.11-12.01-1.02,3.53.89,5.37,1.57,7.47,1.18,3.64,4.02,6.12,6.9,9.37-.64,2.93-5.13-1.31-6.75.06,2.03,6.62,14.1,9.2,20.82,8.97,9.17-.31,17.46,1.88,25.11,5.84,1.67,2.73,4.13,4.44,6.93,7.28l4.11-7.28c1.7-.41,5.36-6.64,13.6-9.03l15.64-4.53c5.13-1.49,9.42-4.93,10.99-10.42-2.66.33-3.57,2.83-6.5,1.84,2.27-3.74,4.43-7.09,4.92-11.02.29-2.29,1.42-4.82-.81-7.34-9.38,20.82-27.53,13.93-37.9,32.44ZM121.35,112.36c-.73-4.38.63-7.61,2.88-9.75,2.43-2.31,5.53-3.61,9.03-2.73,5.3,1.33,8.25,6.03,8.34,11.91,6.99,4.27,16.63,3.54,22.75-2.66,7.36-7.45,6.87-19.78-.22-27.13-5.02-5.2-11.86-7.03-18.48-4.47-7.89,3.05-13.03,9.38-15.97,17.22-1.43.4-2.59-1.12-3.33-2.15-6.14-8.48-16.78-13.69-27.19-10.57-7.43,2.22-11.61,9.46-12.14,16.57s2.83,14.33,9.55,17.95c8.26,4.46,18.44,2.49,24.77-4.2ZM182.54,193.21c.04-.53-.33-1.26-.11-1.75.48-1.09,1.23-2.1,2-3.01.28-.33,1.34.2,1.67,0,.4-.25.97-1.29.22-1.79-.9-.6-2.05-.06-2.79-.26-1.98-1.29-4.67-1.32-6.55.32l-6.95,6.07c-1.22,1.06-5.29-.84-5.16,2.75.05,1.47,1.38,3.47-.05,5.13-1.81,2.09-2.81,5.24.04,7.57,4.29-5.77,8.96-10.29,15.83-11.49,1.95-.34,3.85.22,5.88,0,1.71-.18,2.59-1.45,2.26-2.82-.27-1.13-1.39-1.89-3.09-1.48l-3.2.76Z" fill="#5e3110"/><path d="M99.54,134.54c-.99.27-1.58-.69-3.63-1.18-1.04,8.02,1.25,14.68-2.95,22.45-3.32,6.13-10.34,10.64-6.71,11.69.41.12.96-.06,1.75-.49,10.71-5.86,15.34-20.64,11.54-32.46,1.53-.06,2.69,1.06,3.83,2.07-.08.62.29,1.21.28,1.81-1.81-2.34-.98,9.9-.86,10-1.04,9.07-5.68,15.86-12.91,21.2-.28.18-.99.11-1.51.26s-.99.63-.73,1.4c-1.17.14-1.24.93-.03,1.14.55.48.79,1.16.97,1.85.12.49.22,1.65.98,1.25.06.24-.16.53-.18.78s-.1.49-.14.74c-1.64.28-3,1.6-4.68,1.3-3.49-.62-7.12-2.13-9.68-5.14-4.43-5.23-2.3-12.6-3.35-17.96,2.8-.31,6.05-.87,8.08,1.33-1.64-.25-3.4-1.07-4.2.72-.31.69-1.05.87-.88,2.04.3,2.18-.72,7.49.92,8.17-.37,1.18.79,1.88,1.07,2.71,1.1,3.25,4.82,5.9,8.82,5.01.68-8.92-4.41-2.46-2.07-17.7.99.26,1.86.73,2.28,1.72-.53.74-.12,1.27.83,1.1,2.39-2.57,4.24-5.01,5.1-7.86l1.87-6.22c1.02-3.37-.02-6.77.21-9.86.08-1.03.32-2.75-1-3,.03-.61.24-1.21.24-1.83,1.58-1.18,7.36.51,6.73,2.95ZM85.57,161.92c0-.28-.22-.5-.5-.5s-.5.22-.5.5.22.5.5.5.5-.22.5-.5Z" fill="#493d24"/><path d="M146.49,193.38c1.93-.4,4.48-.39,5.14,1.93-1.33,0-3.01-.38-4.67.23-8.22,2.98-16.59,3.92-25.21,2.97-1.35,1.48-3.35,2.3-4.09,3.95.32,1.41,1.69,2.79,1.27,4.17-1.16,3.89-3.66,1.92-7.32,5.74-4.65,4.87-2.41,7.38-6.44,10.66-1.72,1.4-3.72,1.56-5.61.81-1.21-.48-1.89-2.44-2.63-4.05-2.88.5-5.49-.21-7.33-2.35.12-7.96,4.89-10.78,11.06-14.81.51.48.71,1.17.81,1.85-1.6,3.63-7.82,4.88-8.65,9.88-.22,1.3.63,2.29,1.25,2.61,2.49,1.27,3.78-5.32,8.11-6.22-.45,2.01-1.22,3.5-2.23,5.48-.74,1.44-.29,5.2,1.55,5.03,2.77-.26,4.17-3.77,4.97-6.12,2.91-8.59,8.35-6.64,9.18-9.25.17-.53.07-1.21-.17-1.62-.64-1.09-1.09-2.28-1.14-3.55,1.39-.5,2.35-2.01,3.04-3.2.36-.64.89-1.19,1.18-1.87l8.23.43c3.12.16,6.08-.49,8.78-.53-.04,1.24,1.33.98,1.09-.15l9.84-2.01Z" fill="#5e3110"/><path d="M226.59,68.33c-1.73,2.08-5.46-3.94-10.49.57-.75.67-1.81,1.01-2.6.74-3.4-1.17,2.22-6.31-3.84-9.48-1.05-.55-2.7-2.32-1.75-3.52,1.48-1.87,5.21-.83,6.14-2.73l2.68-5.47c.63-1.29,3.15.59,3.68,1.84,2.51,5.89,7.03,2.37,8.61,4.05,1.93,2.05-2.82,5.42-2.9,8.13-.05,1.86,2.08,3.93.46,5.87ZM223.46,65.61c2.62-1.32-3.07-4.98,3.27-8.58-8.09-3.33-2.49,1.29-9.06-5.8-.49,4.1-2.43,6.1-6.05,5.97-2.54,2.12,4.37.6,3.09,9.65,3.13-2.02,4.88-3.3,8.75-1.24Z" fill="#5a341b"/><path d="M118.56,195.64c-.29.68-.82,1.24-1.18,1.87-5.96.07-11.21-3.01-16.78-6.3-.67,4.3,1.68,7.58,4.59,9.23s6.26,1.32,9.16.27c.05,1.27.5,2.46,1.14,3.55-2.98-.16-6.07.53-9.32-.54-.83-.27-2.13-1.07-2.74-.77-.55.27-1.66.91-1.93,1.52-.1-.68-.3-1.37-.81-1.85.05-1.19-.45-2.2-.97-3.21-.31-.6,0-1.53-.77-1.92-.68-.34-1.38-.54-2.1-.47,1.11.26.95-8.84-1.11-7.43.01-1.43-.68-2.86-2.14-3.17-.53-1.34-1.45-2.64-2.89-3.01l-.27-1.31c-.24-1.19.13-2.44.36-3.63,5.52,7.67,20.05,16.77,27.79,17.17Z" fill="#6f3608"/><path d="M95.71,189.61c-1.8,3.65-5.39,6.13-9.18,7.49-.23-.55-.81-.98-.95-1.59,2.3-2.51,6.05-3.08,8.01-5.98.62.47,1.43.32,2.12.07Z" fill="#6f3608"/><path d="M37.59,66.76c-2.1-1.03-5.09,1.87-6.97.81-3.27-1.84,3.28-5.88-2.18-10.94-.54-.5-.85-2.02-.7-2.62.77-3.09,5.93,1.86,9.54-4.96.46-.88,1.98-1.74,2.69-1.44.63.27,1.37,1.44,1.57,2.44,1.37,6.74,7.43,4.39,7.85,6.93.2,1.19-.61,2.72-1.88,3.24-5.8,2.37-1.16,7.83-4.12,9.05-2.15.89-3.74-1.5-5.8-2.51ZM41.82,66.34c1.28-1.07-1.81-5.09,4.06-8.11-4.2-3.85-3.89.6-6.75-7.84-4.37,6.15-1.35,3.65-8.74,5.26,3.45,3.78,3.83,3.17,2.08,8.95,7.59-1.55,8.2,2.7,9.35,1.74Z" fill="#5a341b"/><path d="M211.09,170.68c-1.09,3.71-4.66-4.42-10.85.2-.6.45-2.1.17-2.51-.2-1.84-1.63,2.51-5.76-2.05-9.29-.71-.55-1.13-1.62-1.12-2.26.06-2.93,5.83.09,8.2-5.76.41-1.02,1.47-1.76,2.29-1.74s1.75.95,2.08,1.97c1.9,5.92,7.67,3.06,7.86,5.55.06.77-.22,1.89-1.11,2.55-4.76,3.52-1.84,5.78-2.78,8.99ZM208.14,168.38c1.74-1.02-1.26-5.3,3.08-7.27,1.76-3.41-3.62,0-5.43-4.75-.51-1.34-1.87-1.39-2.41-.02-1.97,4.98-4.93,1.79-5.9,3.58-.24.45.19,1.2.94,1.64,4.58,2.71-.63,9.78,3.42,6.24,3.41-2.97,5.56,1.01,6.3.57Z" fill="#5a341b"/><path d="M89.25,177.05l1.48.38c.06.32.1.73.04,1.05-.23,1.2-.6,2.44-.36,3.63-.2.06-.55.04-1.11-.04-4.86,4.5-10.25,7.49-16.08,11.02,1.54,2.52,3.65,2.19,5.34,2.54,5.21,1.05.32.4,7.03-.12.14.61.71,1.04.95,1.59.41.97.96,1.88,2.04,2.19.45,1.04,1.46,1.25,2.51,1.27s1.93-.28,2.52-1.21,1.76-1.18,2.76-1.2c-.08.46.23.97.22,1.44-2.85,3.23-7.9,2.44-11.79.41-3.03-1.58-13.85.22-14.32-7.27-.07-1.13,1.52-2.24,2.4-2.81l11.59-7.51c.75-.49,1.78-1.56,1.61-2.42-.11-.58-1.23-.9-1.5-1.63,1.69.3,3.04-1.02,4.68-1.3Z" fill="#5a341b"/><path d="M50.26,182.06c-.78.79-3.01,1.26-3.64.35-1.04-1.48-.06-3.5-.26-5.3-.23-1.99-3.94-3.19-3.69-5.13.35-2.81,4.9-.16,7.28-6.41.26-.68,1.01-1.23,1.43-1.41.77-.33,1.61.25,2.03,1.26,2.32,5.49,6.08,2.64,7.72,4.91.35.48.28,1.87-.31,2.47-4.46,4.56-.2,7.22-2.17,9.12-2.28,2.21-4.48-3.82-8.39.13ZM56.31,179.63c-.19-7.7-.9-3.54,2.33-7.93-2.11-.72-3.92.07-4.68-1.1l-2.26-3.46c-.64,3.4-2.6,4.59-5.36,5.39,1.76,2.14,2.78,4.26,2.71,7.08,2.77-1.63,4.74-1.29,7.26.03Z" fill="#5a341b"/><path d="M202.24,36.97c0,7.71-9.93,6.08-10.48,14.81-3.35.29-5.64-3.39-6.11-5.97-1.51-8.37,9.08-7.26,9.58-14.66,2.74-1.6,7.01,3.15,7.01,5.82ZM198.85,39.67c1.6-1.9,1.2-4.46-1.62-5.61-2.89,5.64-9.74,6.19-9.56,10.84.05,1.19.78,3.61,2.39,3.31,1.81-5.17,5.13-4.2,8.79-8.54Z" fill="#493d24"/><path d="M33.72,158.04c-2.12,1.52-4.52,1.58-6.62.36-1.29-.75-3.36-2.1-3.17-4.53,7.61-4.46,5.77-6.57,8.51-13.71,2.97-.38,5.89.46,8.76,1.8.22,2.42-1.71,3.96-2.12,6.38-.65,3.78-1.91,7.23-5.36,9.71ZM33.71,155.08c2.89-3.12,3-7.44,4.93-11.87-8.6-4.65-2.19,7.13-12.17,11.5,1.58,2.49,4.9,2.89,7.24.37Z" fill="#623920"/><path d="M56.31,138.01c-.47.05-.95.17-1.23.39-.59.48-.75,1.6-.02,2.41,15.19,16.84,34.23,10.82,30.49,18.45-.41-.99-1.29-1.47-2.28-1.72-1.09-.28-2.7-.37-3.65-.95-2.03-2.19-5.29-1.64-8.08-1.33-7.47-4.66-14.56-5.99-20.5-15.1-1.15-1.77-1.06-3.79.48-4.71.77-.1,2.06-.15,3.16.14.82.21.93,1.53,1.64,2.43Z" fill="#653511"/><path d="M232.13,139.86c-2.75.64-5.34.54-7.99.04-.63-6.27-1.62-4.72-6.74-7.47-2.56-1.37-3.95-3.61-3.11-6.21.62-1.93,3.35-4.89,5.67-3.17,2.51,1.86,4.35,3.91,7.45,4.84,5.14,1.55,5.2,6.27,4.72,11.96ZM229.89,134.86c.17-5.7-4.13-3.73-9.95-8.83-1.1-.96-2.87-.79-3.25.03-.6,1.3-.58,2.64.66,3.63,1.43,1.14,3.01,1.72,4.65,2.46,5.5,2.47,2.31,6.06,6.09,6.04,1.49-.01,1.73-1.11,1.8-3.32Z" fill="#493d24"/><path d="M186.42,79.6c-1.44,6.84-3.11,13.52-6.72,20.18-1.94-13.16-2.69-16.17-8.95-26.1,1.41.7,2.38-1.53,5.35,6.17,1.06,2.74,4.27,4.91,7.08,3.14,1.41-.89,1.8-2.97,3.24-3.38Z" fill="#f7efd8"/><path d="M156.88,37.23c-3.76,2.68-6.3,5.16-8.62,8.79-2.46-.78-5.34-2.35-6.65-4.59,1.82-4.74,5.87-8.46,10.49-9.71,1.76,1.72,2.97,2.73,4.78,5.51ZM148.35,41.92c2-2.26,3.3-3.8,5.41-5.27-.63-1.02-1.35-2.23-2.14-2.18-3.26.75-5.18,3.29-7.06,5.98.57,1.59,2.42,3.02,3.8,1.47Z" fill="#5a341b"/><path d="M31.69,85.3c.14,2.95-1.34,5.09-3.02,7.68-3.73-1.39-7.89-3.56-10.64-6.7.23-2.31,2.56-5.57,4.47-6.4l9.19,5.42ZM22.4,82.16l-2.49,3.69,7.45,5.02,2.49-3.69-7.45-5.02Z" fill="#493d24"/><path d="M168.41,187.58c.39-1.52.35-4.03-.46-6.33-3.85,4.24-7.8,7.92-13.06,10.71-.93.49-1.1,1.67-1.25,2.3-.36.3-.67.65-.93,1.04h-1.07c-.66-2.31-3.21-2.32-5.14-1.92-.37-.66.2-.79,1-.81,6.48-2.68,12.48-6.4,16.03-12.02.61-.43,1.63-.87,2.37-1.85l2.34-3.08c-.59,4.62,4.83,10.56.18,11.97Z" fill="#6f3608"/><path d="M109.43,48.04c-2.43,1.65-4.83,2.04-7.64,2.08-1.67-2.99-2.54-5.97-2.79-9.6,2.15-1.5,4.61-2.08,7.45-1.86l2.99,9.38ZM104.64,40.7l-3.71,1.31,2.12,5.98,3.71-1.31-2.12-5.98Z" fill="#623920"/><path d="M68.84,40.4c.27,2.03-3.21,5.43-5.53,5.46s-5.59-4.02-5.95-6.16c.6-2.71,3.75-4.17,6.18-5.5,2.12,1.38,4.87,2.94,5.3,6.2ZM66.4,41.11c.6-1.7-1.26-3.13-2.52-3.58-1.52-.53-2.85.66-4.05,2.3.63,1.11,1.3,2.81,2.86,3.42,1.45.57,3.2-.71,3.71-2.14Z" fill="#493d24"/><path d="M231.23,99.47c-2.46-1.77-7.07-4.79-5.38-6.63,1.87-2.05,3.48-3.7,5.83-5.66,2.05,1.49,5.44,3.53,5.41,6.25-.17,2.53-3.86,4.04-5.85,6.03ZM231.89,89.6l-4.15,3.44,3.15,3.8,4.15-3.44-3.15-3.8Z" fill="#493d24"/><path d="M75.64,101.28l.74,9.23c-2.55-2.03-4.19-4.4-4.88-7.2.97-1.3,2.57-1.84,4.14-2.03Z" fill="#f7efd8"/><path d="M99.7,199.43l-3.12.15c.02-.47-.3-.98-.22-1.44.05-.29.25-.89.46-1.1.72-.06,1.42.13,2.1.47.77.39.46,1.32.77,1.92Z" fill="#5e3110"/><path d="M75.81,98.42c-.56-1.24.2-2.23.66-3.08-.01.99.58,2.68-.66,3.08Z" fill="#95918e"/><path d="M121.35,112.36c-6.33,6.68-16.51,8.66-24.77,4.2-6.72-3.63-10.07-10.95-9.55-17.95s4.71-14.35,12.14-16.57c10.42-3.11,21.05,2.09,27.19,10.57.75,1.03,1.9,2.55,3.33,2.15,2.93-7.84,8.08-14.18,15.97-17.22,6.63-2.56,13.46-.73,18.48,4.47,7.1,7.35,7.59,19.69.22,27.13-6.13,6.2-15.77,6.93-22.75,2.66-.1-5.88-3.05-10.58-8.34-11.91-3.5-.88-6.6.42-9.03,2.73-2.25,2.14-3.61,5.37-2.88,9.75ZM162.16,96.69c.37-.62.5-1.35.15-2.23-2.29-5.69-7.8-8.44-13.85-6.79-4.59,1.25-9.32,6.13-8.11,11.97,3.48,1.63,4.14-7.2,11.65-7.23,6.08-.02,8.26,7.49,10.15,4.28ZM118.57,101.82c1.54-2.39-3.42-10.38-12.46-9.41-4.35.46-9.12,3.83-10.11,9.05-.24,1.29.47,2.55,1.14,2.8,2.43.92,3.12-6.48,10.04-6.79,7.32-.32,9.21,7.72,11.39,4.34Z" fill="#f7f9f5"/><path d="M122.54,115.57c.98,4.34,4.09,9.49,9.21,10.5,4.37.87,7.08-4.23,6.76-7.59.59-.52,1.02-1.5,1.99-2.11,5.12,2.25,14.69,3.48,19.47.4,1.27-.82,3.09-.49,2.6-2.44,0-.85,1.38-.88,1.92-1.11,2.12-.93,5.62-4.04,5.83-6.8.02-.32-.03-.7.09-1,5.11,1.38,1.9-14.51,3.96-14.07,0,5.28.85,10.58-.02,15.22-10.85,21.53-39.33,26.36-61.74,23.6-6.39-.79-12.19-3.24-17.74-6.15-9.23-4.84-11.8-12.22-13.07-12.91-.35-.19-.91.08-1.35.21l-.98-.26c.13-1.92-.38-3.78-.8-5.64l-.04-8.05c1.74-9.52.77-7.49,5.6-16.21.85-1.53,2.24-2.04,4.13-1.65l6.39,1.32c-6.68,4.26-10.36,11.36-10.26,19.52.17,13.46,11.76,23.1,25.06,20.93,5.05-.82,9.14-3.18,12.99-5.71Z" fill="#efba47"/><path d="M168.23,175.61l-2.34,3.08c-.74.98-1.76,1.42-2.37,1.85-.68-.6-1.62-.42-2.53.36-6.28,5.37-13.59,8.75-21.82,10.1-6.85,1.13-20.14,1.1-25.46-2.47.46-.6,1.32-1.02,1.82-2.13-4.11-3.47-10.65-9.6-12.02-14.8l-2.68-10.22c-4.17-.99-.8,3.65-6.04,6.19-2.72,1.32.74,5.7-1.17,5.72-1.48-.99-2.14-2.83-3.75-3.66,7.23-5.34,11.87-12.13,12.91-21.2.57-.59.83-1.54.84-2.89l.02-7.11c0-.6-.36-1.19-.28-1.81,1.67-1.27,3.56-.07,5.2.61l.02,1.22c-1.13-.16-2.29-.79-3.82-.66-.48,2.19,1.54,2.44,2.98,2.78-.28,3.93-2.65,10.35-3.82,16.28-2.71,13.75,6.8,28.16,21.57,30.96,11.63,2.2,22.06-.71,31.02-8.2,18.92-15.81,4.18-46.18.07-44.33.16-1.28.08-2.57-.11-3.84,1.86-.72,3.27-2.46,5.32-2.98.33,1.89,1.32,3.63,2.35,5.66,5.97,11.71,12.26,30.75,4.08,41.53Z" fill="#eab957"/><path d="M59.6,118.4c-.06,6.95,3.25,13.39,9.08,17.93-5.4,6.54,12.28,14.5,12.62,11.13,2.86,1.07,4.47,2.99,9.18,4.03.27.4.61.74,1.01,1.01-.86,2.85-2.71,5.3-5.1,7.86-.96.17-1.37-.36-.83-1.1,3.75-7.63-15.29-1.61-30.49-18.45-.73-.81-.57-1.93.02-2.41.28-.23.76-.34,1.23-.39,1.57.16,3.06.86,5.11.25-.54-1.36-1.62-2.09-2.87-2.88-7.11-4.49-16.76-12.65-16.86-21.86,4.12.22,7.98,6.22,13.18,7.72l-7.92-12.18c-1.55-2.39-6.3-13.79-3.55-15.61,2.16.11,3.71,6.95,4.12,9.39.45,2.69,2.75,4.44,3.99,6.76,1.73,3.24,3.14,6.3,6.03,8.88-.15,1.01-.1,1.81.82,2.01.29-1.33.55-1.87,1.24-2.08ZM57.66,123.54c-1.05-1.28-2.98.41-2.93,1.36.08,1.31,4.06,7.51,5.73,6.27-1.01-2.4-.92-5.35-2.8-7.63ZM61.57,132.92c0-.28-.22-.5-.5-.5s-.5.22-.5.5.22.5.5.5.5-.22.5-.5Z" fill="#d49438"/><path d="M179.5,139.17c-1.07-.16-2.14.63-2.94,1.21-.51-1.66-1.56-3.1-1.3-4.96.9-6.47-4.36-10.11-3.42-11.69,2.89-4.85,5.81-9.44,8.38-14.54,1.38-2.74,5.74-9.31,7.57-11,.13-.03,1.27-1.11,1.87-.72,3.66,3.5-2.43,12.42-1.76,15.2,2.46-.52,2.57-2.96,5.21-2.59-.32,7.63-4.12,14.02-9.8,18.92,1.6.84,3.52-.18,3.96,1.04-.89,4.07-6.68,6.89-7.77,9.13Z" fill="#efba47"/><path d="M123.42,82.3c-.42.6-1.05,1.01-1.77,1.17-7.65-3.95-15.94-6.15-25.11-5.84-6.72.23-18.79-2.35-20.82-8.97,1.62-1.37,6.11,2.88,6.75-.06-2.88-3.25-5.72-5.73-6.9-9.37,1.09-4.06,5.9,2.82,14.46,5.54,12.48,3.97,20.4,2.62,30,13.29,1.32,1.47,3.07,2.46,3.38,4.24Z" fill="#efba47"/><path d="M171.34,50.3c-.49,3.93-2.65,7.28-4.92,11.02,2.93.99,3.84-1.51,6.5-1.84-1.58,5.49-5.86,8.93-10.99,10.42l-15.64,4.53c-8.24,2.39-11.9,8.62-13.6,9.03-.75.18-1.38.7-2.09.96,1.23-1.23.59-3.48,1.5-5.25,4.75-9.22,13.24-15.21,22.9-18.5,13.57-4.62,10.77-13.84,16.34-10.38Z" fill="#efba47"/><path d="M64.43,104.17c-.77-.32-1.6-.21-2.32.07-3.49,1.37-.72,9.23-.66,11.21.04,1.28-1.51,2.13-1.86,2.95-.7.22-.95.75-1.24,2.08-.92-.21-.97-1-.82-2.01-2.89-2.58-4.3-5.64-6.03-8.88-1.24-2.32-3.53-4.07-3.99-6.76-.41-2.44-1.97-9.28-4.12-9.39-.02-.42-.03-2.52.79-1.93,8.19,5.91,7.27,12.14,12.37,16.03-.6-4.97-2.65-8.83-3.62-13.5-.53-2.54-1.4-14.75,1.82-15.51,3.76,8.4,4.16,11.87,8.69,21.19.8,1.65,1.38,2.95.98,4.45Z" fill="#efba47"/><path d="M140.61,62.44c-3.54,3.95-8.09,6.98-9.98,12.02,1.06-2.81-2.71,4.94-3.47,4.97-1.29.05-3.7-5.31-9.4-9.22-.67-.46-1.06-1.11-1.26-1.57-1.41-3.25-8.92-4.41-6.21-5.38,5.21-1.86,14.91-3.61,20.19-3.71-.92.02,12.11,1.16,10.13,2.88Z" fill="#f2bd41"/><path d="M195.5,70.23c4.2,6.2,1.3,18.74.75,26.26,4.15-4.25,3.62-12.73,10.04-17.25.99.9.38,1.75.59,2.21-2.59-.35-.06,4.17-2.64,11.57-1.43,4.1-3.19,7.57-5.92,10.97-.99,1.24-1.02,3.3-2.67,3.4-6.13-1.08.79-7.05-4.06-12.74-.78-.92-1.94-1.18-3.15-2.26,2.4-6.67,3.58-13.06,4.6-20.02.22-1.47,1.39-2.53,2.45-2.13Z" fill="#efba47"/><path d="M180.6,103.46c-.73,2.03-2.2,3.8-2.9,6.36-1.37,5.03-4.51,9.32-8.12,12.49-.4.35-1.55.07-1.72.83-.11.5,0,1.21-.16,1.51-.56.16-1.67,1.17-2.28.87-2.23-1.08-2.24,2.56-3.63,2.91-2.05.52-3.46,2.27-5.32,2.98-17.36,6.69-29.56,6.85-47.91,5.81-1.64-.68-3.53-1.89-5.2-.61-1.14-1.01-2.3-2.13-3.83-2.07.63-2.44-5.14-4.13-6.73-2.95-1.23-.54-2.15-1.56-3.25-2.33l-.92-.06c-.07-.58-.72-.53-1.05-.83l-.98-.9c-.67-1.38-1.66-2.74-3.23-3.06-.14-.27-.44-.73-.77-.82-.16-2.09-2.74-2.94-2.98-5.1-.38-3.35-3.69-5.2-1.51-6.87.33-.25.85-.41,1.35-.55l.98.26c.44,5.99,4.54,11.07,9.59,14.73,23.8,17.2,78.84,8.83,85.42-18.56.96-4.01,1.46-8,1.06-12.13,1.28-.43,2.59,8.87,4.09,8.09Z" fill="#6f3608"/><path d="M176.56,140.38c.8-.58,1.87-1.37,2.94-1.21,3.64.53,13.5-7.5,9.85-12.47,1.3-1.91,2.27-4.12,4.04-5.35.98.97,1.23,2.16,1.35,4.15,1.25-.57,1.68-1.53,2.2-2.75,2.38-1.19,10.2-12.36,9.95-15.06,1.28-1.7,1.47-3.52,1.39-5.19.71-.52,1.14-2.77,3.07-1.87-.47,7.83-4.74,14.71-10.07,20.48-1.97,2.13-4.27,3.38-5.68,5.99,3.05.09,4.78-2.22,8.3-1.62-4,8.7-17.36,19.32-26.22,21.1-1.4-2.26-.57-4.43-1.11-6.21Z" fill="#cc903e"/><path d="M208.27,102.5c.08,1.67-.1,3.5-1.39,5.19.26,2.7-7.56,13.86-9.95,15.06-.52,1.22-.95,2.18-2.2,2.75-.12-1.99-.37-3.18-1.35-4.15.51-5.22,3.49-7.14,2.27-13.96,1.65-.1,1.67-2.16,2.67-3.4,2.72-3.4,4.49-6.87,5.92-10.97,2.58-7.4.05-11.92,2.64-11.57,3.98,7.69-3.62,20.01-7.25,27.89,5.66-2.59,1.47-1.6,8.63-6.84Z" fill="#d49438"/><path d="M183.53,186.39c.13.75.45,1.44.9,2.05-.77.91-1.52,1.92-2,3.01-2.03-.49-4.51-.46-6.2,1.17-.5.49-.42,1.51-.18,1.82.22.28.45.39,1.28.29l5.21-1.53,3.2-.76c1.7-.4,2.82.35,3.09,1.48.33,1.37-.55,2.64-2.26,2.82-2.03.22-3.94-.34-5.88,0-6.86,1.2-11.54,5.71-15.83,11.49-2.85-2.34-1.85-5.48-.04-7.57,1.44-1.66.11-3.65.05-5.13-.13-3.59,3.95-1.69,5.16-2.75l6.95-6.07c1.88-1.64,4.57-1.61,6.55-.32Z" fill="#d49438"/><path d="M176.51,95.37c.41,4.13-.09,8.12-1.06,12.13-.57.04-1.03-.37-1.12-.93.87-4.64.03-9.93.02-15.22-2.06-.44,1.15,15.45-3.96,14.07,4.46-11.49.89-24.7-11.89-30.89,1.39-.96,3.69-2.56,5.91-1.99,5.87,1.49,11.88,17.26,12.09,22.82Z" fill="#eab957"/><path d="M195.5,70.23c-1.06-.4-2.24.66-2.45,2.13-1.02,6.96-2.2,13.35-4.6,20.02,1.21,1.08,2.37,1.34,3.15,2.26-1.13-.04-2.5-.22-3.37.83-.51.62-.12,2.06-.44,2.71-1.83,1.69-6.18,8.26-7.57,11-2.57,5.1-5.49,9.69-8.38,14.54-.94,1.58,4.32,5.23,3.42,11.69-1.35-4.93-6.35-10.78-5.67-13.11,3.61-3.17,6.74-7.46,8.12-12.49.7-2.55,2.16-4.32,2.9-6.36,3.67-10.16,5.39-4.77,9.91-29.1.46-2.49.59-4.69,2.16-7.04,1.74.41,2.13,1.86,2.84,2.91Z" fill="#f1cc79"/><path d="M79.63,118.49c.25,2.16,2.82,3,2.98,5.1-6.89-1.99-10.91-12.91-16.12-16.09-.53-1.01-1.17-2.53-2.06-3.32.4-1.5-.18-2.81-.98-4.45-4.53-9.32-4.93-12.79-8.69-21.19-.15-.75.77-1.48,1.47-.77,1.29,1.32,1.91,2.84,2.4,4.52,3.96,13.49,10.93,27.19,20.99,36.21Z" fill="#f1cc79"/><path d="M128.48,103.2c2.78.45,5.52,1.28,8.19,2.14,1.81,1.78,3.88,4.72,1.1,7.4-1.23,1.19-3.67.17-4.97-.08l-7.08-1.33c-1.22-1.23-1.87-3.45-1.04-5.18.59-1.24,1.93-3.26,3.81-2.96Z" fill="#d49438"/><path d="M116.5,68.64c.2.46.59,1.11,1.26,1.57,5.69,3.91,8.11,9.28,9.4,9.22.76-.03,4.53-7.79,3.47-4.97-.18.56.09,1,.43,1.01.59.03,1.27.05,1.58-.07-1.45,2.59-3,5.21-3.14,8.15-.05,1-1.87,1.75-2.68,1.64.18-1.53-1.39-2.34-2.26-3.73-5.34-8.52-10.11-10.8-18.19-14.79l.09-2.22c3.16.12,7.22,3.77,10.05,4.18Z" fill="#6f3608"/><path d="M165.43,125.52c.6.29,1.72-.71,2.28-.87,3.15,5.39,8.84,21.62,5.81,26.32l-5.38-14.93c-1.09-3.02-3.15-5.43-4.07-8.41.24-.85,1.07-1.56,1.36-2.11Z" fill="#52ae90"/><path d="M106.35,66.67c8.09,3.99,12.86,6.27,18.19,14.79.87,1.39,2.44,2.21,2.26,3.73-2.47-.32-.38-1.27-3.39-2.9-.32-1.78-2.06-2.77-3.38-4.24-9.61-10.67-17.52-9.32-30-13.29-8.56-2.72-13.37-9.6-14.46-5.54-.68-2.1-2.59-3.94-1.57-7.47,5.01,5.87,11.28,10.3,19.11,12.01l13.25,2.9Z" fill="#f1cc79"/><path d="M126.73,114.4c1.05,1.51,2.57,2.97,2.08,4.95l-2.35-.67c1.36,1.13,1.73,2.68,2.94,4.01s4.09,1.09,5.44.07c1.02-.77,1.09-1.87.22-2.33-.77.93-.87,1.49-1.29,1.79-.89.63-5.45-.89-4.96-2.86l3.79.16c1.64.07,1.43-2.25.94-3.13,1.57.21,1.81,1.75,2.49,3.08.85-.81.42-1.71.97-2.01.34-.18.88-.27,1.39-.26l.12,1.29c.31,3.36-2.39,8.46-6.76,7.59-5.12-1.01-8.23-6.16-9.21-10.5,1.28-.84,2.59-1.47,4.19-1.17Z" fill="#6f3608"/><path d="M140.61,62.44c1.98-1.72-11.04-2.87-10.13-2.88-5.28.09-14.98,1.85-20.19,3.71-2.71.97,4.8,2.13,6.21,5.38-2.83-.41-6.89-4.06-10.05-4.18-.38-.42-.97-.5-1.58-.99,8.94-5.07,30.13-7.32,39.47-2.93-1.01,1.19-2.6,1.46-3.73,1.9Z" fill="#f1cc79"/><path d="M168.41,187.58c-4.65,6.59-7.27,6.21-14.77,6.68.15-.62.32-1.8,1.25-2.3,5.26-2.78,9.21-6.47,13.06-10.71.81,2.29.85,4.81.46,6.33Z" fill="#cc903e"/><path d="M171.34,50.3c-5.58-3.46-2.77,5.76-16.34,10.38-9.66,3.29-18.15,9.28-22.9,18.5-.91,1.76-.26,4.01-1.5,5.25-.45.16-1.17-.39-1.11-.87.14-2.95,1.69-5.57,3.14-8.15,10.37-18.51,28.52-11.62,37.9-32.44,2.23,2.52,1.1,5.05.81,7.34Z" fill="#f1cc79"/><path d="M162.57,114.34c.49,1.94-1.33,1.62-2.6,2.44-4.78,3.08-14.35,1.85-19.47-.4-.96.61-1.4,1.59-1.99,2.11l-.12-1.29c-.02-.8,0-1.68.28-2.2,1.28-2.29,4.37,1.71,6.9,1.37,3-.4,6.85,2.43,16.99-2.03Z" fill="#eab957"/><path d="M126.81,85.2c.81.1,2.63-.64,2.68-1.64-.06.48.66,1.03,1.11.87.72-.25,1.34-.78,2.09-.96l-4.11,7.28c-2.8-2.84-5.26-4.55-6.93-7.28.72-.16,1.34-.57,1.77-1.17,3.01,1.63.91,2.58,3.39,2.9Z" fill="#eab957"/><path d="M132.6,114.58c.33.56.75,1.15.93,1.8.49.88.7,3.2-.94,3.13l-3.79-.16c.49-1.97-1.02-3.43-2.08-4.95.32.06.7-.18,1.03-.18,1.62,0,3.23.22,4.85.36Z" fill="#693f25"/><path d="M182.43,191.45c-.22.5.16,1.22.11,1.75l-5.21,1.53c-.83.1-1.07,0-1.28-.29-.24-.31-.33-1.34.18-1.82,1.69-1.63,4.17-1.66,6.2-1.17Z" fill="#6f3608"/><path d="M132.8,112.67l-.2,1.91c-1.62-.14-3.22-.36-4.85-.36-1.5-.28-1.33-2.17-2.04-2.88l7.08,1.33Z" fill="#6f3608"/><path d="M136.67,105.35c-2.67-.86-5.41-1.69-8.19-2.14-.41-.7.48-.61.99-.66,3.66-.93,5.4,1.04,7.2,2.8Z" fill="#eab957"/><path d="M78.67,105.42c-1.72.02-1.61-8.04-.04-8.05l.04,8.05Z" fill="#6f3608"/><path d="M184.43,188.44c-.45-.61-.76-1.31-.9-2.05.75.2,1.89-.34,2.79.26.75.5.18,1.54-.22,1.79-.33.2-1.39-.33-1.67,0Z" fill="#693f25"/><path d="M164.48,113.22c2.76-2.66,4.05-5.26,5.83-6.8-.21,2.76-3.71,5.87-5.83,6.8Z" fill="#eab957"/><path d="M89.89,169.62c1.61.84,2.27,2.67,3.75,3.66.43,4.68,15.62,15.51,20.09,15.24,5.32,3.57,18.61,3.6,25.46,2.47,8.23-1.36,15.54-4.73,21.82-10.1.91-.78,1.85-.96,2.53-.36-3.55,5.62-9.55,9.34-16.03,12.02-.8.02-1.37.15-1,.81l-9.84,2.01c-.35.07-.72.15-1.09.15-2.7.04-5.66.69-8.78.53l-8.23-.43c-7.74-.4-22.27-9.5-27.79-17.17.06-.32.02-.73-.04-1.05-.12-.64-.75-1.01-1.34-1.12.02-.25.24-.54.18-.78-.12-.48-.25-1.61-.98-1.25-.17-.69-.42-1.37-.97-1.85l.03-1.14c-.26-.77.22-1.25.73-1.4s1.22-.08,1.51-.26Z" fill="#d49438"/><path d="M99.54,134.54c3.8,11.82-.84,26.6-11.54,32.46-.79.43-1.33.61-1.75.49-3.63-1.05,3.39-5.56,6.71-11.69,4.21-7.78,1.92-14.44,2.95-22.45,2.05.49,2.65,1.45,3.63,1.18Z" fill="#52ae90"/><path d="M79.62,156.58c.96.58,2.56.67,3.65.95-2.33,15.24,2.75,8.78,2.07,17.7-4,.9-7.72-1.76-8.82-5.01,1.35-.1,2.55.14,3.89,1.13-3.32-6.46.58-15.16-5-14.05.8-1.8,2.56-.97,4.2-.72Z" fill="#368e7a"/><path d="M76.53,170.22c-.28-.83-1.44-1.54-1.07-2.71.03-.52.69-9.63-.92-8.17-.16-1.17.58-1.34.88-2.04,5.58-1.11,1.68,7.59,5,14.05-1.34-.99-2.53-1.23-3.89-1.13Z" fill="#48b5a0"/><path d="M92.81,131.59c0,.62-.21,1.22-.24,1.83-.06,1.03-.33,2.79,1,3-.23,3.09.81,6.49-.21,9.86l-1.87,6.22c-.4-.27-.74-.61-1.01-1.01.51-.73,1.09-1.69,1.1-3.04l.04-11.01-2.05-8.18c1.1.77,2.01,1.79,3.25,2.33Z" fill="#eab957"/><path d="M102.8,148.42c-.12-.1-.96-12.34.86-10l-.02,7.11c0,1.35-.27,2.3-.84,2.89Z" fill="#6f3608"/><path d="M75.46,167.51c-1.64-.68-.62-5.99-.92-8.17,1.61-1.47.96,7.65.92,8.17Z" fill="#368e7a"/><path d="M93.57,136.42c-1.33-.21-1.06-1.97-1-3,1.32.25,1.08,1.97,1,3Z" fill="#6f3608"/><circle cx="85.07" cy="161.92" r=".5" fill="#653511"/><path d="M87.62,172.42c-1.22-.21-1.14-.99.03-1.14l-.03,1.14Z" fill="#6f3608"/><path d="M89.57,175.52c-.76.4-.86-.76-.98-1.25.74-.37.86.77.98,1.25Z" fill="#6f3608"/><path d="M90.74,177.43l-1.48-.38c.04-.25.12-.49.14-.74.59.11,1.22.48,1.34,1.12Z" fill="#6f3608"/><path d="M115.48,204.27c.24.41.34,1.1.17,1.62-.82,2.61-6.26.67-9.18,9.25-.8,2.35-2.2,5.86-4.97,6.12-1.84.17-2.28-3.59-1.55-5.03,1.01-1.99,1.78-3.47,2.23-5.48-4.33.9-5.62,7.49-8.11,6.22-.62-.32-1.47-1.31-1.25-2.61.83-4.99,7.05-6.24,8.65-9.88.27-.61,1.38-1.26,1.93-1.52.61-.3,1.91.5,2.74.77,3.26,1.06,6.35.38,9.32.54Z" fill="#d49438"/><path d="M117.38,197.52c-.68,1.19-1.65,2.7-3.04,3.2-2.9,1.05-6.38,1.3-9.16-.27s-5.26-4.93-4.59-9.23c5.57,3.29,10.81,6.37,16.78,6.3Z" fill="#d49438"/><path d="M135.57,195.54c.36,0,.73-.08,1.09-.15.24,1.13-1.12,1.4-1.09.15Z" fill="#6f3608"/><path d="M223.46,65.61c-3.87-2.05-5.61-.78-8.75,1.24,1.28-9.05-5.63-7.53-3.09-9.65,3.61.12,5.56-1.87,6.05-5.97,6.57,7.08.98,2.47,9.06,5.8-6.34,3.6-.65,7.26-3.27,8.58Z" fill="#eab957"/><path d="M90.68,183.42c1.44.38,2.37,1.67,2.89,3.01l.02,3.1c-1.96,2.89-5.71,3.46-8.01,5.98-6.71.52-1.82,1.18-7.03.12-.25-.98-1.3-1.03-2.17-1.77,6.47-1.05,9.89-8.8,14.29-10.44Z" fill="#d49438"/><path d="M96.83,197.04c-.21.21-.41.81-.46,1.1-1,.03-2.18.29-2.76,1.2l-5.03-.06c-1.08-.31-1.62-1.22-2.04-2.19,3.79-1.36,7.38-3.84,9.18-7.49,2.07-1.41,2.23,7.68,1.11,7.43Z" fill="#cc903e"/><path d="M95.71,189.61c-.69.25-1.5.4-2.12-.07l-.02-3.1c1.46.31,2.15,1.75,2.14,3.17Z" fill="#cc903e"/><path d="M90.41,182.11l.27,1.31c-4.4,1.64-7.83,9.4-14.29,10.44.87.74,1.93.79,2.17,1.77-1.69-.34-3.79-.02-5.34-2.54,5.83-3.54,11.22-6.52,16.08-11.02.56.08.92.09,1.11.04Z" fill="#f1cc79"/><path d="M41.82,66.34c-1.15.96-1.75-3.28-9.35-1.74,1.75-5.77,1.37-5.16-2.08-8.95,7.4-1.61,4.37.89,8.74-5.26,2.86,8.44,2.55,3.99,6.75,7.84-5.87,3.03-2.78,7.04-4.06,8.11Z" fill="#eab957"/><path d="M208.14,168.38c-.74.43-2.89-3.54-6.3-.57-4.05,3.53,1.16-3.54-3.42-6.24-.74-.44-1.18-1.19-.94-1.64.97-1.79,3.93,1.4,5.9-3.58.54-1.37,1.9-1.33,2.41.02,1.81,4.75,7.19,1.34,5.43,4.75-4.35,1.97-1.34,6.25-3.08,7.27Z" fill="#efba47"/><path d="M93.6,199.34c-.6.93-1.46,1.23-2.52,1.21s-2.06-.23-2.51-1.27l5.03.06Z" fill="#6f3608"/><path d="M56.31,179.63c-2.52-1.32-4.49-1.65-7.26-.03.07-2.81-.95-4.93-2.71-7.08,2.76-.81,4.72-1.99,5.36-5.39l2.26,3.46c.77,1.18,2.57.38,4.68,1.1-3.23,4.39-2.53.24-2.33,7.93Z" fill="#eab957"/><path d="M198.85,39.67c-3.66,4.34-6.97,3.37-8.79,8.54-1.61.3-2.34-2.12-2.39-3.31-.18-4.65,6.67-5.2,9.56-10.84,2.82,1.15,3.22,3.71,1.62,5.61Z" fill="#52ae90"/><path d="M33.71,155.08c-2.34,2.52-5.66,2.12-7.24-.37,9.98-4.38,3.58-16.15,12.17-11.5-1.94,4.43-2.04,8.75-4.93,11.87Z" fill="#e35e69"/><path d="M229.89,134.86c-.07,2.21-.32,3.31-1.8,3.32-3.78.03-.59-3.57-6.09-6.04-1.65-.74-3.23-1.32-4.65-2.46-1.24-.99-1.26-2.33-.66-3.63.38-.82,2.15-.99,3.25-.03,5.82,5.1,10.12,3.13,9.95,8.83Z" fill="#52ae90"/><path d="M148.35,41.92c-1.37,1.55-3.22.12-3.8-1.47,1.88-2.69,3.8-5.23,7.06-5.98.79-.05,1.51,1.16,2.14,2.18-2.11,1.47-3.41,3.02-5.41,5.27Z" fill="#cc903e"/><rect x="22.65" y="82.03" width="4.45" height="8.98" transform="translate(-60.76 58.76) rotate(-56)" fill="#52ae90"/><rect x="101.88" y="41.18" width="3.93" height="6.34" transform="translate(-8.85 37.27) rotate(-19.53)" fill="#e35e69"/><path d="M66.4,41.11c-.51,1.43-2.27,2.71-3.71,2.14-1.56-.61-2.23-2.31-2.86-3.42,1.2-1.64,2.53-2.83,4.05-2.3,1.27.44,3.13,1.87,2.52,3.58Z" fill="#52ae90"/><rect x="228.69" y="90.76" width="5.39" height="4.94" transform="translate(-6.3 168.96) rotate(-39.62)" fill="#95918e"/><path d="M162.16,96.69c-1.9,3.21-4.07-4.3-10.15-4.28-7.52.02-8.17,8.85-11.65,7.23-1.21-5.85,3.52-10.72,8.11-11.97,6.05-1.65,11.56,1.1,13.85,6.79.36.88.22,1.61-.15,2.23Z" fill="#623920"/><path d="M118.57,101.82c-2.18,3.37-4.07-4.67-11.39-4.34-6.92.31-7.61,7.71-10.04,6.79-.67-.25-1.38-1.51-1.14-2.8.98-5.22,5.75-8.59,10.11-9.05,9.04-.96,14,7.03,12.46,9.41Z" fill="#623920"/><path d="M175.46,107.5c-6.58,27.39-61.61,35.76-85.42,18.56-5.06-3.66-9.15-8.74-9.59-14.73.43-.14.99-.4,1.35-.21,1.28.7,3.85,8.07,13.07,12.91,5.55,2.91,11.34,5.36,17.74,6.15,22.4,2.76,50.88-2.07,61.74-23.6.09.56.54.97,1.12.93Z" fill="#d49438"/><path d="M156.59,135.26c4.11-1.85,18.85,28.52-.07,44.33-8.96,7.49-19.39,10.41-31.02,8.2-14.77-2.8-24.28-17.21-21.57-30.96,1.17-5.93,3.53-12.35,3.82-16.28.58.14,1.31-.33,1.86-.15,14.28,4.53,33.21,1.05,46.98-5.15Z" fill="#f7efd8"/><path d="M156.48,131.41c.19,1.27.27,2.56.11,3.84-13.77,6.2-32.7,9.68-46.98,5.15.05-.81-.28-1.59-1.02-1.96l-.02-1.22c18.35,1.04,30.55.88,47.91-5.81Z" fill="#dec6a3"/><path d="M113.72,188.53c-4.47.26-19.66-10.56-20.09-15.24,1.91-.02-1.55-4.41,1.17-5.72,5.24-2.54,1.87-7.18,6.04-6.19l2.68,10.22c1.37,5.2,7.9,11.33,12.02,14.8-.5,1.11-1.36,1.53-1.82,2.13Z" fill="#f3be3f"/><path d="M108.59,138.44c.74.37,1.08,1.15,1.02,1.96-.56-.18-1.29.29-1.86.15-1.44-.34-3.46-.59-2.98-2.78,1.53-.13,2.68.5,3.82.66Z" fill="#d49438"/><path d="M66.49,107.49c5.21,3.19,9.23,14.11,16.12,16.09.33.1.63.55.77.82-.58,1.58,1.85,2.86,3.23,3.06l.98.9c-.03.61.52.8,1.05.83l.92.06,2.05,8.18-.04,11.01c0,1.35-.59,2.31-1.1,3.04-4.7-1.04-6.32-2.96-9.18-4.03-3.71-1.38-7.54-3.3-10.14-7.02.54-1.49,2.56-1.13,3.71-2.3-6-4.63-11.28-9.64-12.46-17.73,2.9-.54,4.03,2.08,6.47,2.3-.91-3.14-5.18-7.1-4.64-10.29.27-1.61.61-3.23.49-4.88.59.05,1.18,0,1.76-.06Z" fill="#f2bd41"/><path d="M64.43,104.17c.89.79,1.53,2.3,2.06,3.32-.59.05-1.18.1-1.76.06-1.7-1.78-1.42,6.62-.49,4.88-.54,3.18,3.73,7.14,4.64,10.29-2.44-.22-3.58-2.84-6.47-2.3,1.18,8.1,6.46,13.1,12.46,17.73-1.15,1.17-3.17.81-3.71,2.3,2.59,3.72,6.43,5.63,10.14,7.02-.34,3.37-18.02-4.6-12.62-11.13-5.83-4.54-9.14-10.98-9.08-17.93.35-.82,1.89-1.67,1.86-2.95-.06-1.98-2.83-9.84.66-11.21.71-.28,1.54-.39,2.32-.07Z" fill="#6f3608"/><path d="M57.66,123.54c1.88,2.29,1.79,5.24,2.8,7.63-1.67,1.25-5.65-4.96-5.73-6.27-.06-.96,1.87-2.65,2.93-1.36Z" fill="#efba47"/><circle cx="61.07" cy="132.92" r=".5" fill="#efba47"/><path d="M191.6,94.64c4.85,5.69-2.07,11.66,4.06,12.74,1.22,6.82-1.76,8.74-2.27,13.96-1.77,1.23-2.74,3.45-4.04,5.35,3.65,4.96-6.2,13-9.85,12.47,1.09-2.24,6.88-5.06,7.77-9.13-.44-1.22-2.36-.21-3.96-1.04,5.68-4.9,9.48-11.29,9.8-18.92-2.64-.37-2.76,2.07-5.21,2.59-.67-2.78,5.42-11.69,1.76-15.2-.6-.39-1.74.69-1.87.72.32-.65-.06-2.09.44-2.71.86-1.05,2.24-.87,3.37-.83Z" fill="#6f3608"/><path d="M86.61,127.47c-1.39-.2-3.81-1.48-3.23-3.06,1.58.32,2.56,1.68,3.23,3.06Z" fill="#eab957"/><path d="M88.64,129.2c-.53-.03-1.08-.23-1.05-.83.33.3.98.25,1.05.83Z" fill="#eab957"/><path d="M128.81,119.35c-.49,1.96,4.07,3.49,4.96,2.86.42-.3.52-.86,1.29-1.79.86.46.8,1.56-.22,2.33-1.35,1.02-4.2,1.29-5.44-.07s-1.58-2.88-2.94-4.01l2.35.67Z" fill="#cc903e"/><path d="M64.24,112.42c-.93,1.74-1.21-6.66.49-4.88.13,1.65-.21,3.27-.49,4.88Z" fill="#f1cc79"/></svg>