<?xml version="1.0" encoding="UTF-8"?><svg id="Layer_1" xmlns="http://www.w3.org/2000/svg" viewBox="0 0 255.12 255.12"><path d="M186.31,220.57l4.02.02c.22-.22.44-.45.67-.66-1.56.25-3.12.45-4.69.64Z" fill="#f5eee6"/><path d="M52.26,103.9c-4.85,2.32-16.06,7.46-18.36.92-.95-2.7.44-5.97,3.65-7.01,5.09-1.64,10.9.78,14.71,6.09ZM46.61,102.84c-.66-1.9-2.2-2.05-3.91-2.76-2.41-.99-6.53.26-6.22,3.33.4,3.97,8.87.75,10.14-.57Z" fill="#493d24"/><path d="M220.7,113.33c-3.2,4.87-12.74-.19-17.5-2.81,2.63-4.41,7.23-6.53,12.21-6.02,2.67.27,4.85,1.8,5.77,4.21.61,1.58.35,3.35-.49,4.62ZM218.32,111.84c.48-.9.67-1.91-.14-2.99-2.67-3.57-6.01-1.29-9.55.52,1.14.95,8.22,5.19,9.69,2.47Z" fill="#493d24"/><path d="M46.61,102.84c-1.26,1.32-9.74,4.54-10.14.57-.31-3.07,3.81-4.32,6.22-3.33,1.72.71,3.25.86,3.91,2.76Z" fill="#52ae90"/><path d="M218.32,111.84c-1.47,2.71-8.55-1.52-9.69-2.47,3.54-1.81,6.88-4.09,9.55-.52.81,1.09.62,2.1.14,2.99Z" fill="#52ae90"/><path d="M191.6,209.7c.01-4.49-.36-9.53-1.22-9.12-.04,1.75.57,4.11-1.09,5.14-.15.53-.55,1.26-.85,1.72-.06.83-.11,1.8-1.06,2.11.16.23.31.48.46.76,1.26-.18,2.51-.38,3.76-.6Z" fill="#5e3110"/><path d="M202.38,196.58c1.93,1.55,2.19,5.99,1.99,10.34.88-.22,1.76-.44,2.63-.66,0-3.84-.11-8.63-2.57-13.63-.5.01-.89-.3-.93-.67-.06-.56.01-1.02.19-1.38-.97-4.97-3.35-10.5-7.06-14.07-.57-.55-1.8-.73-1.27-1.98-.38-.19-.59-.76-1.01-.93-.66.09-1.56.07-1.82.82,2.58,2.31,10.51,17.55,9.85,22.16Z" fill="#5e3110"/><path d="M69.71,160.96c-15.61,11.75-23.83,30.01-22.83,49.7.04.75-.1,1.4-.35,1.93,1.21.18,2.41.36,3.62.52-1.31-3.49-.56-9.41-.25-11.97,1.75-14.54,8.39-27.64,19.96-36.47.66,1.65-.34,2.74-.37,3.84-.19,9.66-3.25,18.1-6.22,26.71-3.67,10.64.18,9.8-1.77,19.07,1.08.09,2.16.15,3.25.22-.26-2.02-.69-4.62.57-6.18,7.14-8.83,12.57-18.83,14.32-29.76.1-.64-.4-2.22.79-2.06l.22-2.94c-.8-4.23.27-8.48.59-12.74-.96-.4-11.92-7.72-13.62-9.47-4.69-4.84-10.56-12.47-11.14-18.64-.11-1.21-.75-2.64.78-3.22.76-2.36,2.85-4.03,5.01-5.89,1.34,4.72,2.48,8.92,5.35,12.7.85,1.12,2.22,1.75,1.99,3.09.92.07,1.83.96,1.92,1.88l1.72.43.12-2.15c-.4-.25-.69-.66-1-1-1.77-.72-3.19-2.24-2.88-4.23-2-2.56-2.61-5.84-4.09-8.71-.25-.23-.77-.4-.93-.71-.37-.71.01-1.5.83-1.34-.18-.91-.25-1.84-.18-2.77-.62-.05-1.24-.14-1.85-.27-.79.64-2.18.49-3.02,1.08-2.73,1.93-3.87,5.36-6.75,7.14.05,1.23-.32,2.58-.06,3.81,2.2,10.22,8.78,18.82,17.52,25.32.92.69-.56,2.54-1.26,3.07ZM73.49,159.46c2.06.94,3.72,2.02,5.51,3.47,1.6,5.92-3.53,23.55-6.35,29-.83,1.61-3.03,2.52-2.73,5.39-1.85,2.67-3.14,4.81-5.36,6.36-.54-4.66,1.51-7.61,2.64-11.27,2.83-9.16,5.3-18.08,5.19-27.79-.02-1.88-.34-3.43,1.11-5.17Z" fill="#5e3110"/><path d="M190.07,119.99c-.97.7-3.25,1.06-3.68,2.17-.8,2.04,3.89,2.32,4.24,5.22-1.45,3.14-2.36,6.64-4.54,9.87-11,16.31-34.35,16.77-43.42,4.97-1.14-1.48-.33-3.43-.92-5.18-1.99-5.88-7.28-10.91-13.76-11.73-7.12-.9-14.2,4-16.32,10.59-.57,1.79.01,3.39-1.37,4.7-.99.94-2.67,1.61-2.93,2.8-1.43.37-3.31.61-4.07,2.01-6.12,2.16-20.45,1.53-24.92-1.82-.15-.57-.54-1.14-1.32-1.63l-3.68-2.37c-.4-.25-.69-.66-1-1l-2.88-4.23c-2-2.56-2.61-5.84-4.09-8.71l-.1-2.06c-.18-.91-.25-1.84-.18-2.77l.32-1.33c.99-1.38,3.49-1.85,4.02-3.84-.43-1.72-2.61-2.28-3.86-2.21.83-12.37,13.46-24.13,26.75-23.87,5.4.11,10.38,2.6,14.98,4.89,15.95,7.92,18.17,21.01,20.62,21.68,2.31.63,4.84-8.37,13.98-14.15,7.27-4.59,16.29-8.78,25.41-7.91,13.2,1.25,22.65,13.58,22.73,25.93ZM81.59,112.69c-1.7.09-3.22,1.45-3.43,3.74-.96.15-1.58.94-1.49,1.69.53,4.38,6.46-2.32,11.96-3.33,14.51-2.66,18.62,11.75,21.65,8.31.36-.41.79-1.14.45-2.27-2.6-8.82-14.63-16.87-24.79-11.43-1.61.86-3.66.99-4.35,3.29ZM177.21,126.5c1.19-.8,1.63-1.78,1.12-2.91-3.09-6.84-9.57-11.13-16.48-11.32-12.7-.37-20.04,11.78-16.88,13.4,1.9.98,4.8-2.62,8.75-4.78,10.39-5.67,16.32.84,23.49,5.61Z" fill="#fcfaf8"/><path d="M131,213.14c14.07-.88,28.14-1.71,42.24-1.93.71-6.22.33-12.55-1.27-18.99-.98-3.92-4-15.12-6.54-16.86-1.61-.32-3.34.08-5.13,1.06-20.93,5.38-44.39,4.06-65.11-1.91-2.49-.72-4.6-1.8-6.86-1.78-8.68,16.44-8.67,24.24-7.87,42.36,16.86.18,33.77-.91,50.55-1.97Z" fill="#f7efd8"/><path d="M69.62,139.42c.92.07,1.83.96,1.92,1.88.13,1.37,5.62,5.84,4.65,5.21,4.23,2.77,8.99,3.38,13.73,4.58,3.92.99,13.22-.85,14.38-1.71,2.04-1.51,4.63-4.01,7.22-3.15.85.28,1.07,2.49,2.02,2.28.07.2.1.64.07.85-1.98,4.52,12.08,19.09,15.81,12.11.17-.33.66-.54.94-.76,3.54-.4,9.49-8.14,10.6-12.72,1.43-.25,2.45.47,3.52.45.67.17,1.32.57,1.84,1.07,11.11,10.67,30.68,1.92,30.9,1.45s.06-1.04.21-1.47c.28-.81,1.18-.92,1.87-1.08,7.69-1.7,12.78-14.03,13.52-14.28,2.88-.96,2.72,3.97,3.46,5.52-7.42,8.32-12.91,15.28-24.28,19.56-25.71,9.68-52.97,9.09-78.99.71-14.06-4.53-25.64-11.88-33.46-24.61-.9-1.46-1.51-2.72-3.06-2.57-.11-1.21-.75-2.64.78-3.22,2.07-.65,2.23-3.11,4.78-1.97.42.19.26.9.5,1.82,1.18,2.56,5.01,9.89,7.08,10.05Z" fill="#f3be3f"/><path d="M196.28,139.64l1.14-.16c.14,3.99-3.75,7.74-5.12,10.97-.16.39-.83.89-1.03,1.27-1.44.98-2.99,2.32-3.86,3.91-1.04.45-1.91,1.21-2.54,2.15-2.63,1.11-5.33,2.48-7.35,4.52-1.14.11-2.23.44-3.15,1.12-.41.3-.88.53-.96,1.1-.27.02-.54.09-.81.08-3.3-.07-16.79,7.9-47.27,6.46-15.66-.74-30.16-4.36-44.11-10.22-.96-.4-11.92-7.72-13.62-9.47-4.69-4.84-10.56-12.47-11.14-18.64,1.55-.15,2.17,1.1,3.06,2.57,7.82,12.73,19.4,20.08,33.46,24.61,26.02,8.38,53.28,8.97,78.99-.71,11.37-4.28,16.87-11.24,24.28-19.56Z" fill="#d49438"/><path d="M80.45,215.1c-.81-18.12-.81-25.91,7.87-42.36.86-1.63,1.68-3.32,2.03-5.12l-8.01-3.13c-1.14,3.43-.15,6.48-1.68,9.08l-.22,2.94c-.05.71.27,1.88-.79,2.06-1.74,10.93-7.18,20.93-14.32,29.76-1.27,1.57-.83,4.16-.57,6.18,5.22.34,10.45.53,15.69.59Z" fill="#eab957"/><path d="M61.51,214.3c1.95-9.28-1.9-8.43,1.77-19.07,2.97-8.61,6.03-17.05,6.22-26.71-2.73-1.64-7.83,7.87-9.65,10.71-3.15,4.9-6.01,9.67-7.37,15.52.27,2.4-.98,4.53-1.01,6.86l-.13,10.03c0,.6.06,1.14.15,1.65,3.33.41,6.67.76,10.01,1.02Z" fill="#efba47"/><path d="M172.62,164.6c-.02,1.03-.19,2.05-.48,3.03-2.8-.04-5.36,2.02-7.71,2.87-19.3,5.23-56.39,4.04-74.09-2.88l-8.01-3.13c-1.14,3.43-.15,6.48-1.68,9.08-.8-4.23.27-8.48.59-12.74,13.95,5.86,28.45,9.48,44.11,10.22,30.48,1.44,43.98-6.53,47.27-6.46Z" fill="#6f3608"/><path d="M69.92,197.33c-1.85,2.67-3.14,4.81-5.36,6.36-.54-4.66,1.51-7.61,2.64-11.27,2.83-9.16,5.3-18.08,5.19-27.79-.02-1.88-.34-3.43,1.11-5.17,2.06.94,3.72,2.02,5.51,3.47,1.6,5.92-3.53,23.55-6.35,29-.83,1.61-3.03,2.52-2.73,5.39Z" fill="#52ae90"/><path d="M187.84,210.3c-.14-.27-.29-.53-.46-.76-.56-.77-2.19-1.52-3.06-1.86-.01,1.39.46,2.27.95,2.95.86-.1,1.71-.21,2.56-.33Z" fill="#eab957"/><path d="M165.42,175.37c2.54,1.73,5.56,12.94,6.54,16.86,1.6,6.44,1.98,12.77,1.27,18.99.73-.01,1.45-.02,2.18-.03-.26-4.53-.52-8.84.09-14.12,5.05.72,3.78,8.62,8.82,10.62.01-1.45-.98-2.59-1.9-4.1-5.44-8.91-9.04-18.94-9.29-29-.73-.73-1-1.8-.88-2.85-2.46.28-4.48,1.91-6.82,2.67.11.28-.06.67,0,.97Z" fill="#eab957"/><path d="M57.31,112.8c2.31,1.88,5.53.81,8.3.64,1.25-.08,3.43.49,3.86,2.21-.53,1.98-3.03,2.46-4.02,3.84-.73.12-1.56.56-2.17,1.06-.79.64-2.18.49-3.02,1.08.21-1.64,2.46-2.8,2.09-4.96-.25-1.46-2.4-1.21-3.21-1.14l-1.63.15c-1.02-.01-2.95-.53-3.22.83-2.87.32-5.47,2.04-7.74,4.23-1.01.97-.66,2.14-.94,2.97-.63,1.84.03,3.62,2.05,4.88s4.04.8,5.86.18c.05,1.24-.32,2.58-.06,3.81-3.77-.66-7.7.36-10.23-4.44-1.36-2.58-.81-5.84.7-8.17,2.16-3.32,5.46-4.89,8.69-6.38,1.1-.51,2.67-.14,3.77-.84.22-.08.67.06.92.05Z" fill="#493d24"/><path d="M177.53,162.3c1.13-.04,2.09.37,2.77,1.25-1.69.73-3.58,1.29-5.13,3.07-.54,9.46,4.2,31.61,11.17,36.95.32,1.47,1.2,2.68,2.1,3.86-.06.83-.11,1.8-1.06,2.11-.56-.77-2.19-1.52-3.06-1.86.01-1.45-.98-2.59-1.9-4.1-5.44-8.91-9.04-18.94-9.29-29,.21-2.05,1.14-4.63-.88-5.94.03-.31-.19-.7-.1-1,.29-.99.46-2,.48-3.03.27,0,.54-.06.81-.08.58-.04,1.01-.52.96-1.1.92-.68,2.01-1.01,3.15-1.12Z" fill="#5a341b"/><path d="M51.5,213.28c-.1-.51-.16-1.05-.15-1.65l.13-10.03c.03-2.34,1.27-4.47,1.01-6.86,1.36-5.84,4.23-10.62,7.37-15.52,1.83-2.84,6.92-12.36,9.65-10.71.02-1.1,1.03-2.19.37-3.84-11.57,8.83-18.21,21.93-19.96,36.47-.31,2.56-1.06,8.48.25,11.97.45.06.9.11,1.35.17Z" fill="#f1cc79"/><path d="M183.99,167.76c.25,1.93.09,3.91.4,5.82l1.11,7.04c.68,4.32,1.59,8.74,3.13,12.81.96,2.53,2.62,4.52,1.75,7.15-.04,1.75.57,4.11-1.09,5.14-.31-1.46-.45-3.07-1.6-4.13l-1.71-7.63c-1.07-4.78-6.41-22.75-3.77-26.57l1.77.38Z" fill="#5a341b"/><path d="M202.58,207.35c.6-.14,1.2-.29,1.79-.44.19-4.35-.06-8.78-1.99-10.34h-1c.08,1.27.64,2.53.75,4.18l.45,6.6Z" fill="#eab957"/><path d="M188.63,193.43c.96,2.53,2.62,4.52,1.75,7.15.86-.41,1.23,4.63,1.22,9.12.64-.11,1.28-.23,1.92-.35-.05-6.78-2.76-15.74-4.95-20.92-.69-1.63.14-3.66-.73-5.28-2.59-4.82-.66-10.22-2.31-9.65l-1.15.08,1.11,7.04c.68,4.32,1.59,8.74,3.13,12.81Z" fill="#eab957"/><path d="M60.26,121.62c-2.73,1.93-3.87,5.36-6.75,7.14-1.82.62-3.87,1.07-5.86-.18s-2.68-3.05-2.05-4.88c.97-.03,2.59,1.45,3.67.65l5.04-3.74,3.28-2.88c.88-.78,1.67-1.29,1.55-2.21.81-.07,2.95-.32,3.21,1.14.38,2.16-1.87,3.32-2.09,4.96Z" fill="#48b5a0"/><path d="M190.04,171.48c.49,1.27,1.51,2.06,2.49,2.93,2.58,2.31,10.51,17.55,9.85,22.16h-1c-.37-5.44-10.17-23.1-15.53-25.81-.42,1.11-.17,2-.33,2.73l-1.15.08c-.3-1.91-.14-3.89-.4-5.82,4.2.9,2.29,2.21,6.06,3.72Z" fill="#f1cc79"/><path d="M69.62,139.42c-2.07-.16-5.9-7.48-7.08-10.05-.24-.93-.08-1.63-.5-1.82-2.54-1.15-2.71,1.32-4.78,1.97.76-2.36,2.85-4.03,5.01-5.89,1.34,4.72,2.48,8.92,5.35,12.7.85,1.12,2.22,1.75,1.99,3.09Z" fill="#eab957"/><path d="M189.29,205.72c-.15.53-.55,1.26-.85,1.72-.9-1.18-1.78-2.39-2.1-3.86.8-.35,1.13-1.19,1.35-1.99,1.15,1.06,1.29,2.67,1.6,4.13Z" fill="#368e7a"/><path d="M78.38,143.58c-1.14-.86-2.62-.98-4-1-.46-.03-.72-.75-1.12-.85l.12-2.15,3.68,2.37c.77.5,1.16,1.07,1.32,1.63Z" fill="#693f25"/><path d="M73.26,141.73c.4.1.66.82,1.12.85.4,2.48,9.84,5.47,12.74,6.3,6.68,1.92,18.5-.15,24.43-5.92,1.35,2.12,1.21,4,1.98,5.55-.95.21-1.17-2-2.02-2.28-2.59-.86-5.18,1.63-7.22,3.15-1.16.86-10.46,2.71-14.38,1.71-4.74-1.2-9.5-1.81-13.73-4.58.96.63-4.52-3.84-4.65-5.21l1.72.43Z" fill="#eab957"/><path d="M204.44,192.63c-.5.01-.89-.3-.93-.67-.06-.56.01-1.02.19-1.38.62.42.47,1.5.75,2.05Z" fill="#5a341b"/><path d="M79.65,178.58c.1-.64-.4-2.22.79-2.06-.05.71.27,1.88-.79,2.06Z" fill="#6f3608"/><path d="M196.63,176.51c-.57-.55-1.8-.73-1.27-1.98.79.39,1.43,1.03,1.27,1.98Z" fill="#5a341b"/><path d="M72.38,138.58c-1.77-.72-3.19-2.24-2.88-4.23l2.88,4.23Z" fill="#693f25"/><path d="M65.42,125.64c-.25-.23-.77-.4-.93-.71-.37-.71.01-1.5.83-1.34l.1,2.06Z" fill="#693f25"/><path d="M65.45,119.48l-.32,1.33c-.62-.05-1.24-.14-1.85-.27.61-.5,1.44-.94,2.17-1.06Z" fill="#693f25"/><path d="M202.2,115.58c-.8-.12-1.11.83-.82,1.49.18.42.58.66,1.08.51.17,1.3.55,2.57.87,3.85l-5.98.09c-.98.01-2.11.14-1.97.86-1.35-.12-2.68-.49-3.94-.95-.41-.34-1.36-.78-1.36-1.43-.07-12.35-9.53-24.69-22.73-25.93-9.12-.86-18.14,3.32-25.41,7.91-9.15,5.78-11.67,14.78-13.98,14.15-2.45-.66-4.68-13.75-20.62-21.68-4.6-2.28-9.57-4.78-14.98-4.89-13.28-.26-25.92,11.49-26.75,23.87-2.77.17-5.99,1.25-8.3-.64,1.53-.29,3.06.09,5.44-.05,1.66-10.29,6.79-16.5,14.63-22.16,1.74-1.26,4.45-.81,6.2-2.83-4.89-1.36-8.93-2.41-13.25-4.14-1.49,1.1-1.67,2.72-2.62,3.75-5.08,5.57-11.61,17.99-11.32,25.38-1.09.7-2.67.33-3.77.84,1.91-11.23,6.98-21.38,14.52-31.17-6.96-4.22-16-13.35-14.02-21.2,1.46-.79,3.18-.33,4.59-1.5-3.76-6.01-5.34-25.14,1.21-25.19,1.34-.01,2.42.93,3.2,2.35,8.69,15.71,16.15,20.12,33.29,25.93,23.37-9.31,48.81-7.61,70.99,4.2,17.17-3.14,26.9-8.47,36.96-22.61.84-1.17,2.09-1.82,3.37-1.53.68.15,1.66.95,1.97,2.1,3.61,13.36-4.88,22.24-4.26,23.15s5.63.54,4.59,4.37c-4.08,14.92-17.53,15.29-15.5,18.75,4.56,7.73,7.58,15.87,8.68,24.34ZM58.25,49.59c-.57.71.08,2.2.06,2.99-.08,2.93,6.39,12.12,9.1,16.18-5.39.41-7.33-3.27-10.92-5.36-1.08,2.93,1.31,4.39,2.06,6.16,1.27,3.01,3.27,5.6,6.36,7.64,18.79,12.43,36.7,3.58,57.63,25.35,2.35,2.44,3.62,5.99,5.86,9.04l6.06-7.95c16.22-12.19,24.54-12.41,44.89-14.16,6.54-.56,20.97-4.29,22.12-10.67,1.56-1.24,3.76-2.56,3.95-5.37l-9.91,2.97c-2.32-2.18,3.99-4.81,4.89-8.76,5.31-5.73,7.42-13.68,5.54-21.83-1.86,1.79-3.09,3.69-4.29,5.67-.74,1.23-1.97,2-3.18,3.24-13.25,13.6-24.09,11.73-39.66,18.22-8.88,3.71-16.66,9.19-21.47,16.88-1.99,3.19-5.74,5.49-6.7,10.04-.13.61-1.28,1.27-2.13,1.67l-6.1-12.05c-.57-1.12-1.17-1.78-2.11-1.95.08-.96-.27-1.81-1.06-2.89-5.91-8.06-13.78-13.99-22.97-17.95l-13.97-6.02c-10.74-4.63-17.27-12.5-23.31-23.34-1.9,1.25-2.39,12-.74,12.22ZM107.35,68.64c.12.86,5.62,4.65,7.61,6.42,5.72,5.09,6.87,9.4,11.19,14.61.33,2.56,1.67,4.46,3.12,6.16,5.39-8.83,11.56-15.92,20.01-21.16,1.63-1.01,3.22-1.95,4.25-3.14,2.47-.93,5.46-1.07,7.99-3.48-19.23-9.62-41.69-10.95-61.67-3.56,2.3,2.46,5.04,3.21,7.5,4.15ZM181.52,96.59c6.28,5.62,10.52,13,11.81,22.09.26,1.85,6.18,1.71,6.14.08-.22-9.74-6.38-17.88-9.06-25.95l-.45-1.36c-.55-1.66-10.16,1.41-13.75,1.35,1.26,2.04,3.26,2.3,5.31,3.79Z" fill="#653511"/><path d="M203.33,121.42c4.04,1.19,8,4.5,8.71,9.05.54,3.48-.44,6.06-3.17,8.12-1.78,1.34-4.57,1.58-7.23.77-.04-3.81-5.35-2.36-5.19-7.74,2.05,1.94,6.53,8.06,11.32,4.34,3.02-2.35,1.88-6.76-.53-9.24-3.32-3.4-7.64-3.96-11.85-4.35-.14-.71.99-.84,1.97-.86l5.98-.09Z" fill="#493d24"/><path d="M185.39,159.5l-1.66,3.04c2.57,1.82,4.39,4.02,6.32,6.03-.07.97-.07,1.94,0,2.91-3.77-1.51-1.85-2.82-6.06-3.72l-1.77-.38c-.04-.57-.13-1.15-.04-1.72.11-.7-.48-.77-.86-1.12-.3-.28-.77-.68-1.01-.99-.68-.88-1.64-1.29-2.77-1.25,2.02-2.04,4.72-3.41,7.35-4.52.8-.12.77,1.23.51,1.71Z" fill="#5e3110"/><path d="M190.63,127.37c3.46.08,2.93,3.17,5.71,3.38.07.27.11.6.1.88-.17,5.38,5.15,3.93,5.19,7.74-2.3,2.18-3.06,7.86-6.23,10.18-.9.66-1.99.96-3.1.9,1.36-3.22,5.26-6.98,5.12-10.97.15-.54.94-1.22.48-2.25-2.22-2.47-3.54-5.06-5.14-7.73-3.53,10.55-6.9,12.78-13.46,18.9-.7.15-1.6.27-1.87,1.08-4.7,1.43-6.35,3-12.86,3.22-2.13,1.04-4.24,1.11-6.35-.05-6.57.16-7.48-2.26-11.9-3.15-.52-.5-1.17-.89-1.84-1.07-1.08-1.44-2.13-2.68-3.96-3.96-.71,7.45-4.97,12.2-10.16,16.24-.29.22-.77.44-.94.76l-6.03.12c.88-.75,1.79-1.68,2.16-2.74,4.5.03,9.9-8.83,11.86-12.28.68-1.19,5.01-7.36,1.23-7.99.31-3.59-2.46-6.51-5.54-8.53-5.07-3.31-10.46-2.43-15.17,1.06-2.18,1.61-4.22,3.98-2.46,6.33.32.43.26.98,1.02,1,2.8.1,3.74,2.57,5.18,4.31-.52,2.39-1.54,1.24-4.28,3.84-.78.74-.97,1.65-.95,2.74-.63-.13-1.26-.05-1.88.08-.3.06-.64-.08-.94-.04.03-.21,0-.65-.07-.85-.77-1.55-.64-3.43-1.98-5.55-5.92,5.77-17.75,7.84-24.43,5.92-2.9-.83-12.34-3.82-12.74-6.3,1.38.02,2.86.14,4,1,4.47,3.35,18.8,3.99,24.92,1.82,1.9.58,3.63-.02,4.07-2.01.26-1.19,1.94-1.86,2.93-2.8,1.38-1.32.79-2.92,1.37-4.7,2.12-6.6,9.2-11.49,16.32-10.59,6.48.82,11.77,5.84,13.76,11.73.59,1.76-.22,3.7.92,5.18,9.07,11.8,32.42,11.34,43.42-4.97,2.18-3.23,3.09-6.73,4.54-9.87Z" fill="#5e3110"/><path d="M194.35,173.6c-.66.09-1.56.07-1.82.82-.98-.87-2-1.66-2.49-2.93-.07-.97-.06-1.94,0-2.91,1.48,1.55,3.88,2.53,4.3,5.03Z" fill="#5a341b"/><path d="M192.35,153.6c-.36.88-1.04,1.56-1.9,1.96l-3.03.07c.86-1.59,2.42-2.93,3.86-3.91l1.07,1.88Z" fill="#5e3110"/><path d="M190.45,155.56c-1.27,1.75-2.95,3.33-5.06,3.94.26-.48.29-1.83-.51-1.71.64-.94,1.5-1.7,2.54-2.15l3.03-.07Z" fill="#5a341b"/><path d="M192.35,153.6l-1.07-1.88c.2-.38.87-.88,1.03-1.27,1.11.06,2.2-.24,3.1-.9-.88,1.45-1.76,2.94-3.06,4.05Z" fill="#5a341b"/><path d="M202.46,117.58c-.5.15-.9-.09-1.08-.51-.29-.66.02-1.61.82-1.49l.26,2Z" fill="#693f25"/><path d="M177.21,126.5c-7.18-4.77-13.1-11.28-23.49-5.61-3.95,2.15-6.85,5.75-8.75,4.78-3.16-1.63,4.18-13.77,16.88-13.4,6.9.2,13.39,4.48,16.48,11.32.51,1.14.07,2.11-1.12,2.91Z" fill="#623920"/><path d="M78.16,116.43c.13.75.54,1.55,0,0,.21-2.29,1.74-3.64,3.43-3.74,1.03.85-.66,1.51-.05,3.11l6.54-2.27c8.04-2.79,9.81,1.67,17.9,3.94.32-2.4-1.26-3.5-2.89-4.68-7.58-5.45-13.35-3.4-21.49-.1.7-2.3,2.74-2.42,4.35-3.29,10.16-5.44,22.19,2.61,24.79,11.43.33,1.13-.1,1.86-.45,2.27-3.03,3.44-7.14-10.97-21.65-8.31-5.51,1.01-11.44,7.71-11.96,3.33-.09-.75.53-1.54,1.49-1.69Z" fill="#5a341b"/><path d="M191.44,121.43c.31,4.07,3.43,3.42,4.91,9.32-2.79-.2-2.25-3.3-5.71-3.38-.35-2.9-5.04-3.18-4.24-5.22.43-1.11,2.71-1.47,3.68-2.17,0,.66.95,1.09,1.36,1.43Z" fill="#493d24"/><path d="M107.37,143.4c-.44,1.98-2.16,2.58-4.07,2.01.76-1.39,2.64-1.63,4.07-2.01Z" fill="#5a341b"/><path d="M164.43,170.5c.06,1.36.49,2.65.99,3.9.11.28-.06.67,0,.97-1.61-.32-3.34.08-5.13,1.06-20.93,5.38-44.39,4.06-65.11-1.91-2.49-.72-4.6-1.8-6.86-1.78.86-1.63,1.68-3.32,2.03-5.12,17.7,6.92,54.79,8.11,74.09,2.88Z" fill="#dec6a3"/><path d="M177.42,149.48c-.15.43,0,1.03-.21,1.47-.23.46-19.79,9.21-30.9-1.45,4.41.9,5.33,3.31,11.9,3.15,2.11,1.17,4.22,1.09,6.35.05,6.51-.22,8.16-1.79,12.86-3.22Z" fill="#eab957"/><path d="M197.43,139.48l-1.14.16c-.75-1.54-.59-6.47-3.46-5.52-.74.25-5.83,12.58-13.52,14.28,6.56-6.12,9.93-8.35,13.46-18.9,1.61,2.66,2.92,5.25,5.14,7.73.46,1.03-.32,1.72-.48,2.25Z" fill="#eab957"/><path d="M144.48,148.43c-1.07.02-2.09-.71-3.52-.45-1.11,4.58-7.07,12.33-10.6,12.72,5.18-4.03,9.44-8.79,10.16-16.24,1.83,1.29,2.88,2.53,3.96,3.96Z" fill="#eab957"/><path d="M123.38,161.58l6.03-.12c-3.73,6.98-17.79-7.59-15.81-12.11.31-.03.65.11.94.04-1.19,2.73,5.6,11.31,8.83,12.18Z" fill="#eab957"/><path d="M173.43,164.52c.07-.57.55-.8.96-1.1.05.58-.37,1.06-.96,1.1Z" fill="#6f3608"/><path d="M172.14,167.64c-.09.3.14.69.1,1,.09,1.03.11,2.07,0,3.09-2.46.28-4.48,1.91-6.82,2.67-.5-1.25-.93-2.54-.99-3.9,2.34-.84,4.91-2.91,7.71-2.87Z" fill="#cc903e"/><path d="M176.79,211.16c2.86-.02,5.69-.22,8.49-.54-.49-.68-.96-1.56-.95-2.95-5.04-2-3.77-9.9-8.82-10.62-.61,5.29-.35,9.59-.09,14.12.46,0,.91-.02,1.37-.02Z" fill="#f3be3f"/><path d="M173.13,174.58c-.73-.73-1-1.8-.88-2.85s.09-2.07,0-3.09c2.03,1.31,1.09,3.89.88,5.94Z" fill="#6f3608"/><path d="M77.37,90.59c-7.84,5.66-12.97,11.86-14.63,22.16-2.37.14-3.91-.25-5.44.05-.25.01-.7-.13-.92-.05-.29-7.39,6.24-19.81,11.32-25.38,2.06.93,8.76,2.06,9.66,3.22Z" fill="#efba47"/><path d="M59.14,115.52c.12.92-.67,1.43-1.55,2.21l-3.28,2.88-5.04,3.74c-1.07.8-2.7-.68-3.67-.65.28-.83-.06-2,.94-2.97,2.27-2.19,4.88-3.91,7.74-4.23,1.13-.13,2.53.46,3.22-.83l1.63-.15Z" fill="#c5d4d4"/><path d="M57.51,115.67c-.69,1.29-2.09.7-3.22.83.27-1.36,2.2-.84,3.22-.83Z" fill="#48b5a0"/><path d="M181.31,164.54c.08.53.05,1.58.86,1.12-.09.57,0,1.15.04,1.72-2.64,3.82,2.7,21.8,3.77,26.57l1.71,7.63c-.22.79-.55,1.63-1.35,1.99-6.97-5.34-11.71-27.49-11.17-36.95,1.55-1.79,3.44-2.34,5.13-3.07.24.32.71.72,1.01.99Z" fill="#52ae90"/><path d="M187.84,183.14c.87,1.62.04,3.65.73,5.28,2.19,5.18,4.9,14.13,4.95,20.92,3.03-.58,6.05-1.26,9.06-1.99l-.45-6.6c-.11-1.65-.67-2.91-.75-4.18-.36-5.44-10.17-23.1-15.53-25.81-.42,1.11-.17,2-.33,2.73,1.66-.57-.28,4.83,2.31,9.65Z" fill="#f2bd41"/><path d="M201.38,54.58c.53.03,1.94-.26,2.54.22,1.53,7.68-2.4,7.86-3.53,12.86-.89,3.94-7.21,6.58-4.89,8.76l9.91-2.97c-.2,2.81-2.39,4.13-3.95,5.37-2.17.19-3.81,2.04-6.09,2.93-21.69,8.54-41.04-1.39-61.95,19.93-.4-.31-.75-.68-1.03-1.1-.49-1.34,4.1-8.08,5.23-9.76,1.52-2.27,4-3.84,6.17-5.91,14.63-13.95,31.29-11.75,37.53-15.53l6.84-4.15c10.93-6.63,5.2-5.33,13.24-10.65Z" fill="#f2bd41"/><path d="M120.31,87.56c-.47,5.49,5.08,6.7,4.45,11.09l-.62,1.26c-4.56-2.16-6.12-7.16-13.75-11.18-20.78-10.95-33.37-5.73-45.14-16.24.15-1.93,1.56-3.47,3.33-5.13-1.25-2.69-3.47-4.34-5.31-6.62-4.8-5.93-1.22-8.68-4.97-8.16.02-.79-.63-2.28-.06-2.99,1.22-1.52.54-3.27,1.56-6.03.83,2.25,7.88,9.68,10.31,12.25,10.86,11.48,27.47,12,35.46,18.52,3.17,2.58,5.98,5.36,8.86,8.21,1.97,1.95,3.26,4.56,5.87,5.03Z" fill="#f3be3f"/><path d="M153.53,71.53c-1.04,1.19-2.62,2.13-4.25,3.14-8.45,5.23-14.62,12.32-20.01,21.16-1.45-1.7-2.8-3.61-3.12-6.16-.42-3.28-2.54-6.13-5.09-8.76-1.24-1.28-1.76-2.85-2.74-4.33-1.35-2.02-3.99-2.51-5.66-4.24-1.53-1.59-2.92-3-5.29-3.7-.09-.65-.76-1.03-1.13-2.57,10.62-2.16,21.74-3.44,32.57-1.01l8.24,1.85,7.05,1.88c.44.91-.34,2.06-.56,2.74Z" fill="#f2bd41"/><path d="M153.53,71.53c.22-.68,1-1.83.56-2.74l-7.05-1.88-8.24-1.85c-10.83-2.43-21.96-1.15-32.57,1.01.36,1.54,1.04,1.92,1.13,2.57-2.46-.95-5.2-1.7-7.5-4.15,19.98-7.39,42.44-6.06,61.67,3.56-2.53,2.4-5.52,2.55-7.99,3.48Z" fill="#f1cc79"/><path d="M65.26,72.49c11.78,10.51,24.36,5.29,45.14,16.24,7.62,4.02,9.19,9.02,13.75,11.18-.63.82-1.25,1.67-1.61,2.64-20.93-21.78-38.84-12.92-57.63-25.35-3.08-2.04-5.09-4.63-6.36-7.64,2.17-1.33,3.77,2.14,6.71,2.92Z" fill="#d49438"/><path d="M201.46,78.81c-1.15,6.39-15.58,10.11-22.12,10.67-20.35,1.75-28.67,1.97-44.89,14.16-.56-.52-.89-1.22-1.03-1.96,20.91-21.33,40.27-11.39,61.95-19.93,2.28-.9,3.92-2.74,6.09-2.93Z" fill="#d49438"/><path d="M120.31,87.56c-2.61-.47-3.89-3.07-5.87-5.03-2.87-2.85-5.69-5.63-8.86-8.21-7.99-6.51-24.61-7.04-35.46-18.52-2.43-2.57-9.47-10-10.31-12.25-1.02,2.77-.34,4.51-1.56,6.03-1.65-.23-1.16-10.97.74-12.22,6.04,10.84,12.58,18.71,23.31,23.34l13.97,6.02c9.2,3.96,17.07,9.89,22.97,17.95.79,1.08,1.14,1.93,1.06,2.89Z" fill="#f1cc79"/><path d="M181.52,96.59c1.93-1.09,4.72.63,8.23-1.22-.08-1.14-.06-2.07.66-2.56,2.68,8.06,8.84,16.2,9.06,25.95.04,1.62-5.88,1.76-6.14-.08-1.29-9.09-5.53-16.47-11.81-22.09Z" fill="#efba47"/><path d="M201.38,54.58c-8.04,5.31-2.31,4.02-13.24,10.65l-6.84,4.15c-6.24,3.78-22.9,1.58-37.53,15.53-2.17,2.07-4.64,3.64-6.17,5.91l-.27-.97c4.81-7.69,12.58-13.18,21.47-16.88,15.57-6.49,26.41-4.62,39.66-18.22,1.21-1.24,2.44-2.02,3.18-3.24,1.77-.9-.71,2.53-.27,3.08Z" fill="#f1cc79"/><path d="M195.38,122.37c4.21.39,8.54.96,11.85,4.35,2.41,2.47,3.55,6.89.53,9.24-4.79,3.72-9.27-2.39-11.32-4.34,0-.28-.04-.61-.1-.88-1.47-5.9-4.59-5.25-4.91-9.32,1.27.46,2.59.82,3.94.95ZM207.24,132.09c-.69-3.47-2.69-5.33-5.74-5.33.43,3.04,2.43,5.41,5.74,5.33Z" fill="#48b5a0"/><path d="M132.38,100.58c.29.42.63.79,1.03,1.1.14.75.47,1.45,1.03,1.96l-6.06,7.95c-2.24-3.05-3.51-6.6-5.86-9.04.36-.98.98-1.82,1.61-2.64l.62-1.26c2.42-.01.53,3.01,3.2,5.5,2.32,2.16,2.02-4.51,4.42-3.58Z" fill="#efba47"/><path d="M77.37,90.59c-.9-1.16-7.6-2.29-9.66-3.22.94-1.03,1.13-2.64,2.62-3.75,4.32,1.72,8.36,2.77,13.25,4.14-1.75,2.02-4.46,1.57-6.2,2.83Z" fill="#cc903e"/><path d="M190.41,92.81c-.72.48-.74,1.42-.66,2.56-3.52,1.84-6.31.13-8.23,1.22-2.06-1.49-4.05-1.75-5.31-3.79,3.6.06,13.2-3.01,13.75-1.35l.45,1.36Z" fill="#d49438"/><path d="M200.39,67.65c1.14-5,5.07-5.18,3.53-12.86-.61-.48-2.01-.18-2.54-.22-.44-.56,2.04-3.98.27-3.08,1.19-1.98,2.43-3.88,4.29-5.67,1.88,8.15-.23,16.1-5.54,21.83Z" fill="#eab957"/><path d="M65.26,72.49c-2.94-.79-4.54-4.25-6.71-2.92-.75-1.77-3.14-3.23-2.06-6.16,3.59,2.08,5.53,5.77,10.92,5.36-2.71-4.06-9.17-13.26-9.1-16.18,3.75-.52.17,2.22,4.97,8.16,1.84,2.28,4.06,3.93,5.31,6.62-1.77,1.66-3.18,3.2-3.33,5.13Z" fill="#eab957"/><path d="M137.34,89.84l.27.97c-1.13,1.69-5.71,8.42-5.23,9.76-2.4-.93-2.1,5.74-4.42,3.58-2.67-2.49-.78-5.52-3.2-5.5.63-4.39-4.92-5.6-4.45-11.09.93.17,1.54.83,2.11,1.95l6.1,12.05c.85-.4,2-1.07,2.13-1.67.96-4.55,4.71-6.85,6.7-10.04Z" fill="#eab957"/><path d="M126.15,89.66c-4.32-5.2-5.47-9.52-11.19-14.61-1.99-1.77-7.49-5.56-7.61-6.42,2.38.7,3.76,2.1,5.29,3.7,1.67,1.74,4.32,2.22,5.66,4.24.98,1.47,1.5,3.05,2.74,4.33,2.56,2.63,4.68,5.48,5.09,8.76Z" fill="#eab957"/><path d="M182.17,165.66c-.81.47-.78-.59-.86-1.12.38.35.97.41.86,1.12Z" fill="#5a341b"/><path d="M138.63,138.56c-3.29,1.64-6.43,3.21-10,5.49-1.86,1.19-5.58.35-6.97-1.31-1.45-1.73-2.38-4.21-5.18-4.31.02-.57-.54-.85-1.02-1-1.76-2.35.28-4.72,2.46-6.33,4.71-3.49,10.1-4.37,15.17-1.06,3.08,2.02,5.86,4.94,5.54,8.53ZM128.49,135.42c.91-1.61.78-2.49-.19-3.03-.79-.44-1.72-.27-2.89.42-1.43.84-.36,2.36.11,3.77.36,1.1,1.29.98,1.82.41.29-.3.64-.69,1.14-1.58Z" fill="#d49438"/><path d="M116.43,149.32c1.85,1.76,2.26,5.45,5.1,6.15.44,1.93,2.26,2.77,4.01,3.37-.37,1.06-1.28,1.99-2.16,2.74-3.23-.88-10.02-9.46-8.83-12.18.62-.13,1.25-.21,1.88-.08Z" fill="#6f3608"/><path d="M137.4,146.55c-2.41,1.12-3.78,3.36-5.06,6.06-2.13,4.53-6.85,4.74-10.82,2.85.21-3.16-4.12-5.5-4.15-8.89,2.74-2.6,3.76-1.45,4.28-3.84,1.39,1.66,5.11,2.5,6.97,1.31,3.57-2.28,6.71-3.85,10-5.49,3.78.63-.55,6.8-1.23,7.99ZM130.28,149.11c-3.5-.44-5.3-.55-7.73-.15-.43,1.98,1.13,5.81,3.67,5.4s3.81-3.63,4.06-5.24Z" fill="#6f3608"/><path d="M121.53,155.47c-2.84-.7-3.25-4.4-5.1-6.15-.02-1.09.17-2,.95-2.74.03,3.39,4.36,5.73,4.15,8.89Z" fill="#cc903e"/><path d="M125.54,158.84c-1.75-.6-3.58-1.43-4.01-3.37,3.97,1.88,8.68,1.68,10.82-2.85,1.27-2.7,2.65-4.94,5.06-6.06-1.96,3.45-7.37,12.31-11.86,12.28Z" fill="#cc903e"/><path d="M116.48,138.43c-.75-.03-.7-.57-1.02-1,.48.15,1.04.43,1.02,1Z" fill="#6f3608"/><path d="M81.59,112.69c8.14-3.29,13.91-5.35,21.49.1,1.64,1.18,3.22,2.27,2.89,4.68-8.09-2.27-9.86-6.73-17.9-3.94l-6.54,2.27c-.61-1.6,1.08-2.26.05-3.11Z" fill="#653511"/><path d="M78.16,116.43c.27.78.3.96.25.86s-.19-.49-.25-.86Z" fill="#653511"/><path d="M207.24,132.09c-3.3.07-5.31-2.3-5.74-5.33,3.05,0,5.04,1.87,5.74,5.33Z" fill="#c5d4d4"/><path d="M128.49,135.42c-.51.89-.86,1.28-1.14,1.58-.54.56-1.46.69-1.82-.41-.47-1.41-1.54-2.93-.11-3.77,1.17-.69,2.1-.86,2.89-.42.97.54,1.1,1.42.19,3.03Z" fill="#efba47"/><path d="M130.28,149.11c-.25,1.61-1.65,4.84-4.06,5.24-2.54.42-4.09-3.42-3.67-5.4,2.43-.39,4.23-.29,7.73.15Z" fill="#e35e69"/></svg>