<?xml version="1.0" encoding="UTF-8"?><svg id="Layer_1" xmlns="http://www.w3.org/2000/svg" viewBox="0 0 255.12 255.12"><path d="M50.1,40.86c.33,1.36.27,2.77-.07,4.12-1.31.48-1.98,1.88-1.49,2.96.56,1.22,1.33,2.05,2.52,1.94.03.33.07.69.05,1.02-.02.4-.09.84.02,1.37.09.42.42.7.97.6.35.94.93,1.83,1.02,2.86-.86.4-1.18,1.34-1.2,2.24-1.87,1.04-2.54,3.44-1.35,5.59l3.59,6.52c-.21,1.43.26,2.84,1.7,3.93,2.51,1.89,2.11,4.91,5.12,6.18-.03.21-.02.43-.07.64-.87-.56-.77.1-.79.59-.02.68.11,1.15.06,1.53-.14,1-.38,2.12-1.06,2.92-.89.42-2.02.64-2.6,1.16-1.19,1.06-.22,2.83-.31,3.92-.22,2.69-1.57,5.3-2.14,7.92-.14.63-1.36.9-.78,2,.39.75,0,2.23-.22,3-.14.5-1.23.66-1.1,1.52.09.58.27,1.18.81,1.58-.09.6-.31,1.22-.29,1.83-.84-.08-1.69-.1-2.53-.08-.21-.73.22-2.37-.68-3.13-4.09-3.42-7.34,3.07-12.94.79l-11.38-4.62c-3.61-1.47-6.59-4.75-6.86-8.81-.88-13.39,6.9-12.7,9.49-14.4,4.56-2.98,12.26-6.38,17.43-3.39l4.92,2.84c1.24.72,2.4.66,3.05.25,3.72-2.3-2.11-6.78-4.04-9.16-1.24-1.54-1.48-3.61-2.82-5.06-1.77-1.93-1.54-4.06.36-5.8,3.68-3.39-7.65-8.18.37-15.52,1.06-.97,1.86-2.17,3.26-1.85ZM34.04,80.86c-.77.32-1.43.85-2.05,1.39-4.52-.2-9.88,1.13-10.6,6.4-1.29,9.54,11.23,13.67,19.59,15.39,2.89-3.41,4.69-6.96,6.43-10.86,1.27-2.83,1.01-5.73,1.54-8.36.18-.9,1.14-1.42.39-3.15-.89-2.05-1.76-2.25-3.43-2.45-2.4-.28-4.79-1.67-7.65-.71-1.69.57-2.88,1.78-4.22,2.35ZM56.15,81.96c0-1.1-.89-1.98-1.98-1.98s-1.98.89-1.98,1.98.89,1.98,1.98,1.98,1.98-.89,1.98-1.98Z" fill="#fcfbf9"/><path d="M53.07,116.87c.09.99.45,1.98.23,3-.08.39-.19.82-.13,1.38.05.48.3.83.93.62l4.1,10.12c-.24.55-.35,1.14-.31,1.74-1.52.25-3-.34-4.24-1.18-2-1.36-2.76-14.34-3.7-18.63.17-.77.04-1.58.77-1.11,1.16,1.13.84,3.89,2.34,4.07Z" fill="#fcfbf9"/><path d="M109.05,52.88c-.23.1-.58.66-1.15.71-13.76,1.19-15.44,9.16-25.91,2.59,2.72-1.2,12.79-.36,13.34-.69,2.49-1.53,14.08-7.42,13.73-2.6Z" fill="#f6f2eb"/><path d="M185.98,38c-1.03,4.79-10.55,13.3-15.12,14.86,1.1-.92.45-3.57,1.77-4.5l5.74-4.03c7.55-5.3,1.42-4.64,7.61-6.33Z" fill="#f6f2eb"/><path d="M69.07,49.9c-5.09-2.55-7.59-8.34-11.69-12.46l-2.45-2.46c-.09-.73-.14-1.83.76-2.08,5.8,8,8.88,9.21,13.38,17.01Z" fill="#f6f2eb"/><path d="M200.92,165.91c-3.04-2.94-6.95-11.63-10.81-14.7,5.23,1.17,5.83,2.53,7.44,6.18,1.32,2.99,3.53,5.45,3.37,8.52Z" fill="#f6f2eb"/><path d="M219.55,105.65c-.5-3.04-3.16-5.24-6.62-5.34-1.84-.05-1.84-1.53-2.44-2.1,4.37-.6,8.92.07,10.26,5.73.27,1.14-.53,1.76-1.19,1.71Z" fill="#f6f2eb"/><path d="M58.87,149.23c-2.37,2.79-4.49,6.43-7.59,8.53-.09-4.35,2.38-8.69,7.59-8.53Z" fill="#f6f2eb"/><path d="M191.76,99.67c-1.93-2.11-1.63-5.23-2.69-7.71,2.01-.15,3.74.81,4.5,2.83.68,1.81-.48,3.48-1.81,4.88Z" fill="#f6f2eb"/><path d="M205.08,203.85c-.94-.09-1.89-.09-2.83.04l2.7-7.34c.38-1.03-.19-2.46.78-2.68,2.29,1.31-.6,2.6.1,7.99.15,1.13-.57,1.52-.76,1.99Z" fill="#f6f2eb"/><path d="M133.1,52.88l-11.18-.97c-1.57-3.25,11.63-1.47,11.18.97Z" fill="#f6f2eb"/><path d="M204.71,176.87c-.91-.33-.68-1.52-1.07-2.61l-2.6-7.41c4.07.11,4.41,7.07,3.67,10.02Z" fill="#f6f2eb"/><path d="M52.48,108.8c.08,2.7.35,5.39.59,8.08-1.49-.18-1.18-2.94-2.34-4.07-.13-1.38-.41-2.74-.78-4.08.84-.02,1.69,0,2.53.08Z" fill="#f6f2eb"/><path d="M235.74,62.84c-1.61-1.12-2.45-3.01-3.58-4.58,1.13.16,3.94-.05,4.29,2.39.1.68-.11,1.56-.71,2.19Z" fill="#f6f2eb"/><path d="M146.99,56.03c-2.02-.44-4.38-.51-6-1.9.55-2.73,5.76.21,5.87.37.29.42.18,1.08.13,1.53Z" fill="#f6f2eb"/><path d="M49.03,160.95c-.38,1.54-1.1,2.67-2.12,3.86-.47-.5-1.06-.86-1.71-1.07.94-1.44,1.56-2.84,3.83-2.79Z" fill="#f6f2eb"/><path d="M116.99,52.17c-1.72,1.29-3.98.54-6,.78-1.47-.79,6.05-1.91,5.44-2.02.56.1.77.7.56,1.24Z" fill="#f6f2eb"/><path d="M216.91,52.75c-.87-.36-2.23-.81-2.77-1.69.39-.54,1.51-.36,2.06-.37.93,0,.77,1.51.72,2.06Z" fill="#f6f2eb"/><path d="M138.99,53.95c-1-.16-2.54.37-3-.8.22-1.02,1.34-1.7,2.49-1.28.77.28.54,1.37.51,2.08Z" fill="#f6f2eb"/><path d="M230.99,58.04c-1.17-1-2.9-.8-4.01-1.89.13-1.35,2.39-1.83,2.72-1.06l1.29,2.96Z" fill="#f6f2eb"/><path d="M205.89,191.87c.05-1.98.27-4.02,0-6,1.59-1.33,1.59,7.33,0,6Z" fill="#f6f2eb"/><path d="M193.67,37.87c-1.12-.47-1.9-1.53-1.92-2.75.44.02,1.47-.7,1.98-.03.71.93.03,2.06-.07,2.78Z" fill="#f6f2eb"/><path d="M235.9,66.87c.11-.64.02-1.35-.03-2,1.61-.11,1.64,2.07.03,2Z" fill="#f6f2eb"/><path d="M205.62,180.87c-.88-.22-.69-1.29-.73-2,.62-.21.89.16.93.63.05.56-.1,1-.2,1.37Z" fill="#f6f2eb"/><path d="M41.33,182.87c-.03-.44-.32-.91-.32-1.55,0-.54.06-1.65,1.08-1.45-.24.97.45,2.53-.75,3Z" fill="#f6f2eb"/><path d="M44.17,171.87c-.02-.41-.12-.85-.03-1.39.08-.44.4-.74.98-.61-.48.42.13,1.89-.95,2Z" fill="#f6f2eb"/><path d="M43.15,174.96c.01-.4-.11-.88,0-1.46.08-.41.36-.76.97-.62-.18.66,0,2.12-.97,2.08Z" fill="#f6f2eb"/><path d="M51.07,49.88c-1.2.11-1.97-.71-2.52-1.94-.49-1.07.17-2.48,1.49-2.96.88,1.47.89,3.23,1.04,4.9Z" fill="#f6f2eb"/><path d="M48.95,84.81l-3.04-5.6c1.68.19,2.55.4,3.43,2.45.75,1.72-.21,2.25-.39,3.15Z" fill="#f6f2eb"/><circle cx="54.17" cy="81.96" r="1.98" fill="#fefdfd"/><path d="M52.77,106.97c-.53-.4-.72-1-.81-1.58-.13-.85.96-1.02,1.1-1.52l-.29,3.09Z" fill="#f6f2eb"/><path d="M31.99,82.24c.62-.54,1.28-1.06,2.05-1.39.35.56-.4,1.02-.97,1.51-.29.25-.69.59-1.08-.12Z" fill="#f6f2eb"/><path d="M169.99,52.9c-.1,1.62-10.57,4.95-12.88,4.91-2.16,2.41-6.77-.62-9.12-1.7,2.22-1.05,4.42.65,6.99.59,9.02-.21,8.19-4.73,15.01-3.8Z" fill="#f6f2eb"/><path d="M222.99,56.22c-.93.76-2.26,1.92-3.69,1.5-.57-.58-.36-1.59-.35-1.93,1.36,0,2.72.13,4.05.43Z" fill="#f6f2eb"/><path d="M193.92,45.87c.1-1.67.09-3.33,0-5,1.7,1.14,1.69,3.84,0,5Z" fill="#f6f2eb"/><path d="M54.93,34.98l2.45,2.46c4.1,4.12,6.61,9.91,11.69,12.46,3.45,3.34,8.18,5.52,12.91,6.27,10.47,6.57,12.15-1.4,25.91-2.59.57-.05.92-.6,1.15-.71.6.13,1.32.14,1.93.07,2.02-.24,4.28.51,6-.78,1.58.82,3.41-.39,4.93-.26l11.18.97c.95.08,1.9.51,2.88.27.46,1.17,2,.64,3,.8.65.11,1.33.26,2,.18,1.62,1.39,3.98,1.46,6,1.9.26.06.76.19,1,.08,2.35,1.08,6.96,4.12,9.12,1.7,2.31.05,12.78-3.29,12.88-4.91.25.03.64.04.87-.04,4.58-1.56,14.09-10.08,15.12-14.86,2.13-.58,1.34-3.1,5.78-2.88.02,1.22.8,2.29,1.92,2.75-.13,1.01-.05,2.03.24,3,.1,1.67.1,3.33,0,5-.11.59-.3,1.44-.15,2-1.54,4.14-1.09,5.89-4.79,10.88,2.09-.52,3.89-1.06,5.4.34.34,1.88-.19,3.38-.52,4.82-.15.64-.83,1.25-.84,1.92-1.29.46-1.44,2.05-2.2,3.06-.4.53-.58,1.17-.84,1.77-2.9,2.26-5.94,4.29-9.38,6.44.76,2.37,2.74,4.14,4.16,5.59.81,3.36,2.97,6.15,4.3,9.29,1.06,2.48.76,5.61,2.69,7.71-.58,1.41.12,2.82.16,4.2.14,4.33.11,8.67,0,13-.03,1-.45,1.96-.17,2.99-.39-.84-3.38,9.08-3.67,9.79-1.22.73-2.58,2.7-3.03,4.18-1.4.28-2.37,1.61-2.31,3.02-1.51.34-2.36,1.81-3.04,3.1-.94.44-2.14.53-2.82,1.62,1.35,1.11,2.17,1.01,2.97,1.18,3.08,3.17,6.8,5.72,10.26,8.46,3.87,3.07,7.78,11.76,10.81,14.7-.02.3.02.66.12.95l2.6,7.41c.38,1.09.16,2.28,1.07,2.61-.16.64.15,1.37.18,2,.04.71-.16,1.78.73,2-.46,1.69.06,3.34.28,5,.27,1.98.05,4.02,0,6-.02.66-.26,1.33-.16,2-.97.22-.41,1.65-.78,2.68l-2.7,7.34c-2.25,1.98-4.14,4.51-6.98,6.33,2.07-1.33-10.1,5.26-8.28,4.53-.49.2-1.26.32-1.06,1.04-.34.02-.7.03-1.03.1-1.06.22-3.05-.21-4,.96-1.43,1.76-2.89,2.76-4.88,1.95.41-1.41,1.4-2.53,2.01-3.85,1.4-.47,2.73-1.13,3.91-2.01.96,0,1.94.09,2.9-.07.49-.08,1.59-.37,1.22-1.05.34-.11.79-.12,1.15-.12,5.8.08,2.38-.84,7.03-4.08.53-.29,1.09-.53,1.66-.72.54-.18.76-.71,1.13-1.06,1.51-1.4,1.94-3.54,3.03-5.13,1.31-1.9,1.36-3.78,1.96-5.84,4.89-16.77-8.04-40.15-23.98-49.12-.54,2.98-.32,5.04-1.07,7.12-.64,1.78.76,4.08.82,6.16l.27,8.84c-.73,1.86-2.06-6.42-2.06-6.03l-.03-12.04c0-1.03-.58-1.68-1.04-2.05.09-1.31.62-3.4-.91-3.92-.02-1.41-1.3-.94-1.07.2-.37,0-.84.13-1.19.04-.83-.2-1.67-.48-2.53-.4.08-.47.47-.83,1.11-1.19,7.85-4.39,16.18-12.95,17.47-21.46,4.15-13.29-.25-28.3-7.95-39.46-.85-1.23-1.4-2.63-2.13-3.92-.11-.83,0-1.66.33-2.42,3.67-2.93,8.78-4.46,10.66-9.38.43-1.13,2.85-1.73,2-4.26-2.26.17-7.88,5.28-9.01,2.78-.27-.6.09-1.43.8-2.02,5.23-4.37,9.22-13.83,8.37-19.61-.19-1.3,1.08-3-1.23-4.46-16.82,29.68-41.54,13.94-61.58,43.66-1.28,1.9-1.88,3.27-2.39,5.12-.32,1.16-2.47,2.25-2.52,3.8-.66-.05-1.34.32-1.95.02-.7-1.77-1.35-4.07-3.2-4.97.09-1.38-.66-2.37-1.55-3.73-17.81-27.49-40.8-15.26-58.69-39.1-1.09-1.45-2.19-3.24-3.48-4-1.51.92-.73,2.78-.39,3.69-1.4,5.16,1.26,7.85,1.89,12.18-.29.9-.96,1.6-1.85,1.94-.1-.46-.65-.79-.86-1.14-.09-1.04-.66-1.92-1.02-2.86-.26-.7.11-1.87-.99-1.97.02-.33-.02-.69-.05-1.02-.15-1.67-.16-3.43-1.04-4.9.34-1.35.4-2.76.07-4.12l1.12-2.95c.71-1.86,2.14-2.71,3.71-2.94ZM103.97,65.04c8.55,7.79,11.4,9.49,18.4,21.42,4.87-9.55,11.68-16.42,19.64-22.45l7.98-3.68c-18-7.09-37.97-7-55.96.05l6.92,3.38c1.18.58,2,1.33,3.02,1.28Z" fill="#5e3110"/><path d="M54,58.78c-.79.85-1.48,2.16-.92,3.25l1.07,2.09c2.16,4.2,5.68,7.2,9.59,9.79,1.89,1.47,3.23,3.6,2.17,5.93-8.68,12-13.53,28.64-8.02,42.99,1.62,4.22,2.96,8.7,6.99,11.22,1.76,1.1,3.82,4.36,5.1,5.81.24.27.58,1.09,1,1,.97-.21,1.33.73,2,1-.09.64-.14,1.29-.13,1.94-.2-.04-.45.16-.66.15-.87-.05-1.42.59-2.09.96s-1.4.37-1.69.91c-.5.89-.55,1.68-.1,2.71,1.02,2.36.98,13,.23,14.37-1.27-1.31-.48-2.7-1.55-3.04,0-2.64.72-5.24.19-7.86-.21-1.17,1.53-2.38-.44-4.88-12.09,8.62-19.94,21.53-22.4,36.11-.67,3.94.08,7.3.6,10.76s2.18,6.6,3.99,9.77c1.47,2.56.71,4.11,7.89,5.18,1.49,1.1,2.98,2.33,4.14,3.81.02,1.38.96,1.2,1.01-.11.34-.18.66-.4.92-.68.98.06,1.96.05,2.94,0l3.87,6.74c-.62-.07-1.26.13-1.87.22-.65,0-1.33-.38-1.97-.32.1-1.81-4.12-2.35-9.09-5.61-1.59-1.04-3.08-1.82-4.67-1.99-4.95-4.33-8.74-9.62-10.05-16.11-.14-.7.19-1.76-.74-2,.2-3.32.22-6.68,0-10,1.21-.47.51-2.03.75-3,.41-1.63,1.02-3.22,1.07-4.92.97.03.79-1.42.97-2.08.08-.31.07-.68.05-1,1.08-.11.47-1.58.95-2,1.37-1.19.78-3.88,1.79-5.06s1.74-2.32,2.12-3.86c.24-.99,2.64-1.63,2.26-3.19,3.1-2.1,5.22-5.74,7.59-8.53,1.67-1.97,5.32-2.62,6.22-5.49.82-.26,2.31-.59,2.75-1.91-4.36-3.82-6.59-7.46-9.63-9.83l-4.1-10.12c-.27-.66.11-1.73-.8-2,.22-1.02-.14-2.01-.23-3-.23-2.69-.5-5.38-.59-8.08-.02-.61.21-1.23.29-1.83l.29-3.09c.22-.77.61-2.25.22-3,.89-.21.74-1.28.78-2,.57-2.61,1.92-5.23,2.14-7.92,1.51-1.31,1.62-3.56,2.91-5.08.67-.79.92-1.91,1.06-2.92.99,0,.57-1.48.73-2.12.05-.21.05-.43.07-.64,8.45-2.84-2.96-5.69-6.82-10.1l-3.59-6.52c-1.18-2.15-.52-4.55,1.35-5.59l1.07.09c.13.46.56.7,1.02.71Z" fill="#5e3110"/><path d="M214.13,51.06c.55.89,1.91,1.33,2.77,1.69.55,1.02.87,2.43,2.03,3.03,0,.34-.22,1.35.35,1.93,1.43.42,2.76-.75,3.69-1.5,1.31.29,2.71.31,4-.06,1.1,1.09,2.83.89,4.01,1.89.24.2.84.17,1.16.22,1.13,1.56,1.97,3.46,3.58,4.58l.14,2.03c.04.65.13,1.36.03,2-1.88,11.28-17.21,16.49-26.14,16.77-1.93-1.62-3.56-5.44-4.9-5.85-1.38-4.04-4.17-7.56-4.8-11.84-.45-3.07-.81-7.12.67-10.01,2.48-4.85,8.47-5.93,13.39-4.88ZM232.84,69.25c.74-3.1.2-5.48-1.42-7.25-3.91-4.29-8.44-2.4-13.08-.38-1.07-2.13-1.42-4.29-3.21-6-2.35-2.25-6.63-2.82-9.36-.9-7.67,5.41-.12,20.58,5.36,26.06,8.32-.96,16.58-3.99,21.7-11.54Z" fill="#623920"/><path d="M210.48,98.21c.6.57.6,2.04,2.44,2.1,3.46.1,6.12,2.29,6.62,5.34-.92,7.14-5.91,7.61-10.56,9.15-.75.01-1.92-.14-2,.87-.82-.35-2.25-.17-3.09.04-3.78-4.08-2.89-6.73-4.7-8.83.11-1.6-.7-9.35,4.61-10.5,2.67-.58,5.02.26,6.68,1.84ZM215.3,108.96c2.04-1.59,1.08-3.89.11-4.96-2.1-2.32-5.08.28-5.97-1.04-.36-.53-1.06-4.19-3.95-4.1-1.15.04-2.59.99-3.1,2.79-.81,2.84-.54,8.52,2.83,10.04,2.95,1.34,7.71-.88,10.09-2.74Z" fill="#623920"/><path d="M200.74,55.93c-1.48,2.89-1.12,6.94-.67,10.01-1,1.47-.83-3.38-1.79-3.82-2.08-.96-2.67.92-4.42,1.78.34-1.44.87-2.93.52-4.82-1.51-1.4-3.31-.85-5.4-.34,3.7-4.98,3.25-6.73,4.79-10.88.12.29.84.42.94.78.17.65-2.76,7.02,2.33,8.02,1.25.25,2.6-1.19,3.71-.73Z" fill="#f6f2eb"/><path d="M65.09,143.73c-.52-5.27-4.2-1.57-7.19-10.01-.05-.6.07-1.19.31-1.74,3.05,2.37,5.28,6.01,9.63,9.83-.43,1.32-1.93,1.66-2.75,1.91Z" fill="#f6f2eb"/><path d="M184.76,82.67c-1.42-1.44-3.4-3.21-4.16-5.59,3.44-2.14,6.48-4.18,9.38-6.44-1.73,3.91-5.77,5.82-5.22,12.02Z" fill="#f6f2eb"/><path d="M203.89,115.7c-.5.12-.71,1.21-1.37.94-.56-.23-1.07-.3-1.72-.66-4.76-2.69-1.87-5.2-1.61-9.11,1.81,2.1.91,4.75,4.7,8.83Z" fill="#f6f2eb"/><path d="M209.77,83.64c-1.07.03-2.81.21-3.75-.68-1.51-1.44-.65-3.71-1.15-5.17,1.33.41,2.97,4.23,4.9,5.85Z" fill="#f6f2eb"/><path d="M191.92,116.87c.11-4.33.14-8.67,0-13,.5-.21,1.04.26,1.04,1.01v10.97c0,.75-.54,1.23-1.04,1.01Z" fill="#f6f2eb"/><path d="M188.07,129.66c.29-.71,3.28-10.63,3.67-9.79.33,1.2,1.87,3.13.9,4.55s-2.86,2.04-3.06,4.15c-.1,1.05-1.15.87-1.51,1.09Z" fill="#f6f2eb"/><path d="M179.69,139.95c-.05.94,0,1.88.15,2.8-.8-.17-1.62-.07-2.97-1.18.68-1.09,1.87-1.18,2.82-1.62Z" fill="#f6f2eb"/><path d="M182.73,136.85c-.05-1.41.92-2.74,2.31-3.02-.22.72.25,1.68-.16,2.43-.48.88-1.44.43-2.16.59Z" fill="#f6f2eb"/><path d="M190.82,68.88c.76-1,.91-2.6,2.2-3.06,0,1.44-.63,2.87-2.2,3.06Z" fill="#f6f2eb"/><path d="M208.99,114.79c-.68.23-.86,1.35-2,.87.08-1.01,1.25-.86,2-.87Z" fill="#f6f2eb"/><path d="M156.09,157.77c.32-.11.76.15,1.07.03,7.48,14.91,13.02,34.79,1.77,49.94-5.04,6.79-5.37,5.33-12.08,10.67,1.44.86,2.34.37,3.14.68-.49.66-1.28.96-2.08.99h-1.81c.01-.58-.33-.98-.73-1.07-.63-.13-1.12.07-1.57.07-.54,0-1.12,0-1.65-.08-2.1-.33-4.21-.01-6.31-.01h-33.81c-1.85,0-5.06,1.46-6.14-.13l2.16-.41c-7.97-5.43-12.26-9.87-15.98-19.67-5.28-13.88-.67-29.01,5.92-41.05,22.51,6.18,45.75,7.48,68.11.02Z" fill="#f7efd8"/><path d="M87.91,157.06c.1.22.12.45.07.69-6.59,12.04-11.2,27.17-5.92,41.05,3.73,9.8,8.01,14.24,15.98,19.67l-2.16.41c-.56.02-1.16.24-1.72.17-2.43-.28-4.88-.21-7.32-.04-1.3.09-2.61-.04-3.91-.05h-2.02s-3.06.09-3.06.09l-5.77-.08-2.35-.28-3.87-6.74c-1.02-4.46-2.85-8.98-2.51-14.04.34-1.99,2.53-3.21,3.26-4.76.52-1.11,1.59-1.98,1.47-3.36,2.48-.3,2.84-2.89,4.05-4.7,2.92-4.35,7.5-16.49,7.69-21.26.13-3.41,1.49-6.23,1.39-9.1,2.4.42,4.11,2.78,6.72,2.33Z" fill="#efba47"/><path d="M163.78,155.13c-.09,1.56.26,3.19.44,4.74,1.29,11.26,5.14,22.08,12.13,31.53.89,1.21,1.68,2.14,2.84,2.46l2.55,4.31c2.83,4.79-1.33,11.7-3.7,16.78-.61,1.31-1.61,2.44-2.01,3.85l-5.22.3c-4.54.26-9.13.03-13.7.01l-7.12-.02c-.8-.31-1.7.18-3.14-.68,6.71-5.35,7.04-3.89,12.08-10.67,11.24-15.16,5.7-35.04-1.77-49.94l6.62-2.66Z" fill="#efba47"/><path d="M65.88,218.59c-3.82.36-13.63-3.06-13.76-7.6,1.59.18,3.08.95,4.67,1.99,4.97,3.26,9.19,3.8,9.09,5.61Z" fill="#f6f2eb"/><path d="M157.11,219.12c-.02.85-.21,2.89-1.54,3.11-.11.02-8.6-.42-7.67-2.14.81-.03,1.59-.33,2.08-.99l7.12.02Z" fill="#f6f2eb"/><path d="M94.15,219.04l-.15,2.01c-1.66-.12-3.32-.14-4.98-.08-.67.03-1.45-.07-2.02-.67-.3-.31-.37-.83-.16-1.31,2.44-.17,4.88-.23,7.32.04Z" fill="#f7efd8"/><path d="M80.9,218.94c-.02.42.18,1.75-.23,2.15-.36.35-1.45.16-2.18.06s-1-1.26-.65-2.11l3.06-.1Z" fill="#f6f2eb"/><path d="M146.09,220.07c-.32.55-1.08,1-1.52.77-.76-.39-1.26-1.14-.78-1.75.44,0,.94-.2,1.57-.07.41.08.74.49.73,1.05Z" fill="#f6f2eb"/><path d="M69.72,218.69c.19.33.1.83.27,1.19-.83.05-1.63-.28-2.14-.97.62-.09,1.25-.29,1.87-.22Z" fill="#f6f2eb"/><path d="M42.07,194.87c-.63.2-.84-.18-.91-.63-.09-.56.15-1,.17-1.37.93.24.6,1.3.74,2Z" fill="#f6f2eb"/><path d="M185.93,215.8c-.2-.72.57-.84,1.06-1.04.05.64-.47,1.01-1.06,1.04Z" fill="#f6f2eb"/><path d="M67.2,124.79c-.03,1.08.85,1.91,1.85,2.11.31.24.6.65.9.91.66,2.17,7.6,7.35,10.03,6.81.27-.06.74,0,1,.09-.18.89-.12,1.8.59,2.12s1.67-.3,2.38-.09c13.98,4.15,24.48-3.86,26.75-2.61,1.14.62,1.82,2.07,2.59,2.77,2.48,2.24,5.61,6.86,9.75,6.2,5.17-.82,8.62-6.84,9.92-11.29,1.06-.08,1.35-1.21,3.16-.04,8.28,5.35,18.49,6.79,28.55,2.63,7.04-2.91,14.42-9.65,17.04-18.58,4.11-14.02-2.52-27.22-15.55-34.28-.4-.7,1.43-1.33,1.99-.87.11,3.52,8.82-.15,11.73.91,7.71,11.16,12.1,26.18,7.95,39.46-2.38-.39-4.33,6.11-7.52,9.09-14.74,13.79-36.58,18.17-56.37,18.05-15.38-.09-30.43-1.58-44.55-7.51-7.8-3.27-14.11-8.73-18.63-15.71-.86-1.32-1.45-2.33-2.87-2.1-5.51-14.35-.66-31,8.02-42.99,1.67-2.31,9.24.06,13.38,1.32-15.45,7.62-22.28,25.07-13.65,40.22.72,1.26,1.58,2.16,1.55,3.39Z" fill="#efba47"/><path d="M131.16,88.05c.97-.27,2.14-.73,3.28-1.53,14.72-10.33,27.14-6.82,43.65-11.3-.34.76-.45,1.6-.33,2.42-1.13-.33-1.94,1.49-3.05,1.61-2.31.25-5.04-.38-6.56,1.4-.57-.47-2.4.16-1.99.87,13.03,7.06,19.66,20.26,15.55,34.28-2.62,8.94-10.01,15.67-17.04,18.58-10.06,4.16-20.27,2.72-28.55-2.63-1.81-1.17-2.09-.05-3.16.04-2.39.19-4.32-1.85-4.86-3.98.56-1.19,1.75-1.83,2.96-2.23,1.24.63,2.74,1.33,3.83,2.16,9.21,7,21.75,8.55,32.06,2.41,13.31-7.93,17.59-24.88,8.15-37.48-4.32-5.76-11.56-10.48-19.12-10.5-13.73-.03-25.21,8.63-31.82,19.94-.31.52-1.57,2.4-2.18,1.64l-7.92-9.99c-5.72-7.21-15.29-11.76-25.11-11.6s-18.4,6.89-22.14,15.51c-5.76,13.26.46,27.38,13.23,33.53,10.03,4.83,21.46,2.92,30.1-3.41l.71-.06c-.29.88-.25,2.26-.15,3.14-10.67,6.07-17.99,7.98-29.71,3.84-.26-.09-.73-.15-1-.09-3.48-2.1-6.94-4.15-10.03-6.81-.3-.26-.59-.67-.9-.91-.39-.89-.87-1.81-1.85-2.11.03-1.23-.83-2.13-1.55-3.39-8.63-15.15-1.8-32.6,13.65-40.22-4.14-1.26-11.71-3.62-13.38-1.32,1.07-2.33-.28-4.47-2.17-5.93,25.82,8.88,39.03-1.38,58.65,25.72,3.52-5.95,7.06-8.18,8.76-11.59Z" fill="#653511"/><path d="M118.05,85.9c-.08,1.16.33,2.34.16,3.51-2.32-1.12-6.67-5.2-10.66-8.03-13.77-9.75-36.93-5.02-48.65-14.49-1.63-1.32-2.74-3.05-4.74-2.76l-1.07-2.09c2.23-.46,9.44,5.06,10,1.91l-7.25-9.02c-.63-4.33-3.28-7.01-1.89-12.18,3.67-.43,2.98,4.51,8.98,9.05,4.26,3.22,8.53,6.48,13.7,8.24l6.82,2.32,6.72,2.25c5.13,1.72,9.58,3.92,14.19,6.92,3.52,3.47,7.22,6.74,10.48,10.55,1.26,1.47,1.7,3.06,3.22,3.8Z" fill="#f2bd41"/><path d="M202.03,194.87c-.6,2.06-.65,3.94-1.96,5.84-1-.64-2.18-.8-3.35-.83v-6.01c0-1.09-.67-2.18-1.6-1.86-.79,4.55-1.03,9.46-3.87,12.84-4.22,1.14-.31-6.5-4.28-16.71-.92-2.36-1.91-4.34-3.99-5.28-.27-.36-.22-1.12-.9-1.08.15-.78-3.94-11.79-4.01-13.92l-.27-8.84c-.06-2.08-1.46-4.38-.82-6.16,1.34.33,1.95-.96,2.18-2.68,7.93,5.16,5.91,4.28,10.49,9.92,4.48,5.52,7.01,11.45,9.21,18.2,1.59,4.85,3.29,9.19,1.94,14.67-.2.83.6,2.19,1.22,1.9Z" fill="#f2bd41"/><path d="M142.01,64.01c-7.97,6.03-14.77,12.9-19.64,22.45-7-11.93-9.85-13.63-18.4-21.42-.41-1.12-1.9-1.45-2.4-3.46,2.28-1.23,4.56-.4,6.8-1.34,3.49-1.47,14.48-1.86,16.63-1.72l7.95.53c3.5.23,6.48,1.61,9.99,2.16-.07,1.42-.76,1.97-.93,2.8Z" fill="#efba47"/><path d="M187.84,121.03c-1.29,8.51-9.62,17.07-17.47,21.46-.64.36-1.03.72-1.11,1.19-.35.03-.72.18-1.06.28-2.11.61-3.95,2.13-6.21,2.2-1.6-1.04-2.95.62-4.68,1.02-3.76.87-7.45,1.93-11.36,2.53-2.82.43-5.39.11-8.24.78-14.15,3.37-28.44.07-29.74.36s-12.86-1.3-14.28-2.82c-3.93,1.37-23.55-9.33-25-10.87-1.25-1.33-2.2-2.9-3.8-3.1-4.03-2.51-5.37-7-6.99-11.22,1.42-.23,2.01.77,2.87,2.1,4.53,6.98,10.84,12.43,18.63,15.71,14.12,5.93,29.17,7.42,44.55,7.51,19.79.12,41.63-4.25,56.37-18.05,3.18-2.98,5.14-9.47,7.52-9.09Z" fill="#d49438"/><path d="M174.05,143.83c1.53.52.99,2.6.91,3.92l.13,15.15c.03,3.48,3.82,18.89,4.61,20.4,1.77,3.39,2.69,6.98,2.12,10.41l-1.84.14c.2-1.23-.22-2.52-1.22-3.73-9.14-11.1-13.51-28.89-11.5-42.71,1.69-1,4.02-1.66,4.53-3.33.36.09.82-.04,1.19-.04s.71-.18,1.07-.2Z" fill="#52ae90"/><path d="M118.21,89.41l3.04,1.46c.61.29,1.29-.07,1.95-.02,1.55.11,2.17-1.5,3.4-2.05,1.42-.64,2.93-1.21,4.39-1.76l.18,1.02c-1.71,3.41-5.24,5.65-8.76,11.59-19.62-27.1-32.83-16.85-58.65-25.72-3.92-2.59-7.44-5.59-9.59-9.79,2-.3,3.11,1.44,4.74,2.76,11.72,9.47,34.87,4.75,48.65,14.49,3.99,2.83,8.34,6.91,10.66,8.03Z" fill="#d49438"/><path d="M188.76,65.84c-1.89,4.92-6.99,6.44-10.66,9.38-16.51,4.48-28.92.97-43.65,11.3-1.14.8-2.32,1.27-3.28,1.53l-.18-1.02c11.11-15.26,29.43-10.4,48.14-16.98,1.41-.5,2.45-1.16,2.95-2.17,3.1-.06,3.85-1.87,6.69-2.03Z" fill="#cc903e"/><path d="M142.01,64.01c.17-.83.87-1.38.93-2.8-3.51-.55-6.49-1.93-9.99-2.16l-7.95-.53c-2.14-.14-13.13.26-16.63,1.72-2.25.94-4.52.1-6.8,1.34.5,2.01,1.99,2.33,2.4,3.46-1.02.05-1.84-.7-3.02-1.28l-6.92-3.38c17.99-7.05,37.96-7.14,55.96-.05l-7.98,3.68Z" fill="#f1cc79"/><path d="M190.91,42.72c-.37-.09-1.13-.74-1.56-.35-1,.89-1.22,1.95-1.64,2.78-.54,1.04-1.75,1.67-2.69,2.76-11.58,13.39-20.82,12.59-36.23,18.89-9.72,3.97-17.38,11.61-22.18,20.3l-.9-.04c.51-1.85,1.11-3.22,2.39-5.12,20.05-29.72,44.76-13.99,61.58-43.66,2.31,1.46,1.03,3.16,1.23,4.46Z" fill="#f1cc79"/><path d="M202.03,194.87c-.62.29-1.43-1.07-1.22-1.9,1.35-5.48-.35-9.82-1.94-14.67-2.21-6.75-4.73-12.68-9.21-18.2-4.57-5.64-2.56-4.75-10.49-9.92-.23,1.72-.84,3.01-2.18,2.68.75-2.08.53-4.14,1.07-7.12,15.94,8.97,28.86,32.36,23.98,49.12Z" fill="#f1cc79"/><path d="M118.05,85.9c-1.52-.74-1.96-2.33-3.22-3.8-3.26-3.81-6.96-7.08-10.48-10.55-4.61-3.01-9.06-5.2-14.19-6.92l-6.72-2.25-6.82-2.32c-5.17-1.76-9.44-5.02-13.7-8.24-6-4.54-5.31-9.48-8.98-9.05-.35-.91-1.12-2.77.39-3.69,1.3.76,2.4,2.55,3.48,4,17.89,23.84,40.88,11.61,58.69,39.1.88,1.36,1.64,2.35,1.55,3.73Z" fill="#f1cc79"/><path d="M178.08,167.87c.07,2.13,4.16,13.13,4.01,13.92-.33,1.72.03,3.71,1.94,4.15-.05.33.03.67.02,1-.12,2.38-.11,6.61-2.23,6.76.57-3.43-.35-7.02-2.12-10.41-.79-1.51-4.58-16.92-4.61-20.4l-.13-15.15c.46.37,1.04,1.02,1.04,2.05l.03,12.04c0-.39,1.32,7.89,2.06,6.03Z" fill="#493d24"/><path d="M196.72,199.89c-1.12,2.47-2.36,4.98-2.47,7.74-4.64,3.24-1.23,4.16-7.03,4.08,1.68-2.09,3.87-4.06,4.04-6.85,2.84-3.37,3.07-8.29,3.87-12.84.93-.32,1.6.77,1.6,1.86v6.01Z" fill="#6f3608"/><path d="M53.09,62.04c-.56-1.1.13-2.41.92-3.25l-.02-.91c0-.32.07-.69,0-1,.88-.34,1.55-1.04,1.85-1.94l7.25,9.02c-.56,3.15-7.77-2.37-10-1.91Z" fill="#6f3608"/><path d="M177.76,77.64c.73,1.29,1.28,2.7,2.13,3.92-2.91-1.06-11.62,2.61-11.73-.91,1.52-1.78,4.25-1.15,6.56-1.4,1.1-.12,1.92-1.94,3.05-1.61Z" fill="#cc903e"/><path d="M190.91,42.72c.85,5.78-3.14,15.24-8.37,19.61-.71.59-1.07,1.42-.8,2.02,1.14,2.5,6.76-2.61,9.01-2.78.85,2.53-1.57,3.13-2,4.26-2.83.17-3.58,1.98-6.69,2.03.65-2.92-3.95-4.19-.74-6.64,4.97-3.8,9.27-11.21,6.37-16.08.43-.83.64-1.88,1.64-2.78.43-.38,1.19.26,1.56.35Z" fill="#eab957"/><path d="M200.08,200.71c-1.09,1.59-1.52,3.72-3.03,5.13-.57.09-1.11.44-1.13,1.06-.57.19-1.13.43-1.66.72.12-2.76,1.35-5.27,2.47-7.74,1.17.02,2.35.19,3.35.83Z" fill="#cc903e"/><path d="M171.79,144.08c-.52,1.67-2.84,2.34-4.53,3.33-2.01,13.81,2.36,31.61,11.5,42.71,1,1.21,1.42,2.5,1.22,3.73h-.79c-1.16-.3-1.95-1.23-2.84-2.44-6.99-9.45-10.84-20.27-12.13-31.53.55.19.72-.37.73-1.06l.08-9.98c.85-2.01,3.16-2.76,3.18-4.88.34-.1.71-.25,1.06-.28.87-.08,1.7.19,2.53.4Z" fill="#493d24"/><path d="M121.25,90.87l-3.04-1.46c.18-1.17-.23-2.35-.16-3.51,1.85.9,2.5,3.2,3.2,4.97Z" fill="#eab957"/><path d="M126.61,87.09c-.29.52-.27,1.18-.02,1.7-1.22.55-1.85,2.16-3.4,2.05.05-1.54,2.2-2.64,2.52-3.8l.9.04Z" fill="#eab957"/><path d="M53.99,56.87c.07.31,0,.68,0,1l-1,.2-1.07-.09c.02-.9.35-1.84,1.2-2.24.21.34.76.68.86,1.14Z" fill="#f6f2eb"/><path d="M52.11,52.87c-.55.1-.88-.18-.97-.6-.11-.53-.04-.97-.02-1.37,1.1.1.73,1.27.99,1.97Z" fill="#f6f2eb"/><path d="M195.91,206.9c.02-.62.56-.97,1.13-1.06-.37.35-.59.89-1.13,1.06Z" fill="#6f3608"/><path d="M174.05,143.83c-.36.02-.71.2-1.07.2-.23-1.15,1.04-1.61,1.07-.2Z" fill="#493d24"/><path d="M45.91,79.21l3.04,5.6c-.53,2.63-.28,5.53-1.54,8.36-1.75,3.9-3.54,7.45-6.43,10.86-8.35-1.72-20.88-5.85-19.59-15.39.71-5.27,6.08-6.59,10.6-6.4.39.71.78.37,1.08.12.57-.49,1.32-.95.97-1.51,1.34-.57,2.53-1.78,4.22-2.35,2.86-.96,5.25.43,7.65.71ZM28.99,86.55c-.45-.14-.96.37-2.1.37s-2.54.61-2.65,2.29c-.47,7.2,9.41,9.7,15.28,11.48,3.42-3.89,6.5-8.86,6.29-14.34-.1-2.77-2.33-4.94-4.51-5.34-4.57-.84-5.78,4.57-6.49,5.35-1.2,1.31-3.98-1.33-5.82.19Z" fill="#623920"/><path d="M60.98,80.19c-3.01-1.27-2.61-4.29-5.12-6.18-1.44-1.09-1.91-2.49-1.7-3.93,3.87,4.42,15.27,7.27,6.82,10.1Z" fill="#f6f2eb"/><path d="M56.21,90.95c.09-1.09-.88-2.86.31-3.92.58-.52,1.72-.74,2.6-1.16-1.29,1.52-1.4,3.77-2.91,5.08Z" fill="#f6f2eb"/><path d="M60.18,82.96c.05-.38-.08-.85-.06-1.53.02-.49-.08-1.16.79-.59-.15.64.27,2.12-.73,2.12Z" fill="#f6f2eb"/><path d="M53.29,100.87c-.58-1.1.64-1.37.78-2-.04.72.11,1.79-.78,2Z" fill="#f6f2eb"/><path d="M67.18,152.01c.53,2.63-.18,5.23-.19,7.86-.02,6.08-2.3,12.05-3.72,18.33l-1.51,6.67c-1.15,2.46-2.45,5.15-2.01,8.04-1.91-.3-2.96,6.5-2.62,9.01.21,1.59-.99,2.25-1.18,2.96-3.4-1.06-3.01-14.44-4.87-12.32s.12,8.77.1,12.18c-1.2.22-1.54-.92-2.22-.99-1.81-3.17-3.46-6.18-3.99-9.77,1.28-.04.86-1.78.83-3.04-.19-7.24,2.12-13.72,4.84-20.24,1.53-3.67,4.49-6.27,6.44-9.63,2.47-4.27,5.24-8.2,10.13-9.07Z" fill="#f2bd41"/><path d="M72.19,143.97c1.4,1.71,3.56,2.58,5.69,3.02l.09,1.67c-.68.46-1.31,1.66-.73,2.72,1.69,3.04.32,5.73.07,8.68-1.06,12.42-5.3,20.92-11.41,30.66-.98.2-1.64,1.28-1.81,2.18-1.66-.2-.73-2.16-1.24-2.93,1.87-9.06,7.01-20.66,7.11-31.07l.13-13.96c.67-.36,1.22-1,2.09-.96Z" fill="#52ae90"/><path d="M67.18,152.01c-4.89.87-7.65,4.8-10.13,9.07-1.95,3.36-4.91,5.96-6.44,9.63-2.72,6.52-5.02,13.01-4.84,20.24.03,1.26.45,3-.83,3.04-.52-3.46-1.27-6.82-.6-10.76,2.46-14.57,10.3-27.48,22.4-36.11,1.97,2.5.24,3.71.44,4.88Z" fill="#f1cc79"/><path d="M62.86,189.95c-1.03-1.54-.93-3.32-1.11-5.08l1.51-6.67c1.43-6.28,3.7-12.25,3.72-18.33,1.07.33.28,1.72,1.55,3.04.75-1.37.79-12.01-.23-14.37-.45-1.03-.4-1.82.1-2.71.3-.53,1.05-.56,1.69-.91l-.13,13.96c-.1,10.41-5.24,22.01-7.11,31.07Z" fill="#493d24"/><path d="M62.86,189.95c.51.77-.42,2.73,1.24,2.93.83.1,1.67.21,2.5.26-.73,1.55-2.92,2.77-3.26,4.76-.34,5.06,1.49,9.58,2.51,14.04-.98.06-1.96.06-2.94,0-1-4.3-1.58-8.72-2.32-13.48l-.85-5.54c-.44-2.89.86-5.59,2.01-8.04.18,1.76.08,3.53,1.11,5.08Z" fill="#6f3608"/><path d="M59.74,192.92l.85,5.54c.73,4.77,1.31,9.19,2.32,13.48-.26.28-.58.5-.92.68l-1.01.11c-1.17-1.48-2.65-2.71-4.14-3.81-.48-.99-1.2-2.92-.9-4.06.19-.71,1.4-1.37,1.18-2.96-.34-2.51.71-9.3,2.62-9.01Z" fill="#d49438"/><path d="M55.94,204.88c-.31,1.14.41,3.06.9,4.06-7.19-1.07-6.42-2.62-7.89-5.18.68.06,1.02,1.21,2.22.99.02-3.42-2-10.02-.1-12.18s1.48,11.26,4.87,12.32Z" fill="#6f3608"/><path d="M161.99,146.16c-.59.87-1.5,2.03-2.78,1.87s-2.49.57-4.09,1c-20.23,5.38-25.3,3.74-46.1,3.72-2.14,0-4.68-.82-6.78-1.24l-11.62-2.34-8.9-3.09c-3.23-1.12-5.9-3.08-8.72-4.2-.67-.27-1.03-1.21-2-1-.18-.47-.53-.82-1-1-1.28-1.44-3.34-4.71-5.1-5.81,1.6.2,2.55,1.78,3.8,3.1,1.45,1.54,21.07,12.24,25,10.87,1.42,1.51,13.05,3.09,14.28,2.82,1.3-.29,15.58,3.01,29.74-.36,2.85-.68,5.42-.35,8.24-.78,3.91-.6,7.59-1.66,11.36-2.53,1.73-.4,3.08-2.06,4.68-1.02Z" fill="#cc903e"/><path d="M77.88,146.98c-2.13-.43-4.29-1.31-5.69-3.02.21.01.46-.19.66-.15,1.83.7,4.4,1.08,5.03,3.17Z" fill="#493d24"/><path d="M159.2,148.02c.09.67.23,1.37.72,1.87-1.64,1.05-3.55,1.58-5.03,2.89-1.28-.17-2.82.06-4.55.42-18.18,3.8-36.51,3.88-54.68.11-2.12-.44-3.87-1.04-5.61-.57-2.52-2.24-6.09-2.46-9.07-3.86-.56-.27-1.41.07-2.01-.13-.32-.1-.68-.03-1.01-.09l-.09-1.67c-.63-2.08-3.2-2.47-5.03-3.17,0-.65.04-1.3.13-1.94,2.82,1.12,5.49,3.08,8.72,4.2l8.9,3.09,11.62,2.34c2.09.42,4.63,1.24,6.78,1.24,20.81.03,25.87,1.67,46.1-3.72,1.6-.43,2.77-1.17,4.09-1Z" fill="#6f3608"/><path d="M54.1,121.87c-.63.2-.88-.15-.93-.62-.06-.55.05-.99.13-1.38.91.27.54,1.34.8,2Z" fill="#f6f2eb"/><path d="M54,58.78c-.46-.01-.89-.25-1.02-.71l1-.2.02.91Z" fill="#fcfbf9"/><path d="M60.98,212.74l1.01-.11c-.05,1.32-.98,1.49-1.01.11Z" fill="#6f3608"/><path d="M70.99,140.87c-.42.09-.76-.73-1-1,.47.18.82.53,1,1Z" fill="#6f3608"/><path d="M232.84,69.25c-5.13,7.55-13.38,10.58-21.7,11.54-5.48-5.48-13.03-20.66-5.36-26.06,2.73-1.93,7.01-1.35,9.36.9,1.78,1.71,2.13,3.87,3.21,6,4.64-2.02,9.17-3.91,13.08.38,1.61,1.77,2.16,4.15,1.42,7.25Z" fill="#e35e69"/><path d="M215.3,108.96c-2.38,1.86-7.13,4.08-10.09,2.74-3.37-1.53-3.63-7.21-2.83-10.04.51-1.8,1.94-2.75,3.1-2.79,2.89-.1,3.59,3.57,3.95,4.1.89,1.32,3.87-1.28,5.97,1.04.97,1.07,1.93,3.37-.11,4.96Z" fill="#e35e69"/><path d="M154.9,152.78c.27,1.7,1.26,3.22,1.19,4.99-22.36,7.46-45.6,6.16-68.11-.02.05-.24.03-.46-.07-.69,1.38-1.01,2.11-2.62,2.14-4.32,1.74-.47,3.49.13,5.61.57,18.16,3.77,36.5,3.69,54.68-.11,1.73-.36,3.27-.59,4.55-.42Z" fill="#dec6a3"/><path d="M163.84,149.05c.27,2.03.05,4.06-.07,6.08l-6.62,2.66c-.31.12-.75-.14-1.07-.03.07-1.76-.92-3.29-1.19-4.99,1.47-1.31,3.39-1.83,5.03-2.89,1-.6,2.9.09,3.92-.84Z" fill="#cc903e"/><path d="M90.05,152.73c-.03,1.7-.76,3.31-2.14,4.32-2.61.46-4.33-1.91-6.72-2.33l-.2-5.86c2.98,1.4,6.55,1.62,9.07,3.86Z" fill="#cc903e"/><path d="M80.99,148.87l.2,5.86c.1,2.88-1.26,5.69-1.39,9.1-.18,4.76-4.77,16.9-7.69,21.26-.87-1.62,2.43-8.16,3.9-10.28-.37-2.76.95-4.83,1.59-7.3s.33-5.15,1.48-7.64l-.11-11.13c.6.2,1.45-.14,2.01.13Z" fill="#5e3110"/><path d="M78.98,148.74l.11,11.13c-1.16,2.49-.83,5.1-1.48,7.64s-1.95,4.54-1.59,7.3c-1.47,2.12-4.77,8.66-3.9,10.28-1.21,1.81-1.57,4.4-4.05,4.7-.7.09-1.41.77-2.15.92,6.1-9.74,10.34-18.23,11.41-30.66.25-2.95,1.62-5.64-.07-8.68-.58-1.05.05-2.25.73-2.72.33.07.69,0,1.01.09Z" fill="#493d24"/><path d="M66.59,193.14c-.83-.05-1.67-.16-2.5-.26.17-.9.83-1.98,1.81-2.18.74-.15,1.45-.83,2.15-.92.13,1.38-.94,2.25-1.47,3.36Z" fill="#5e3110"/><path d="M181.95,212.94c-1.19.88-2.52,1.54-3.91,2.01,2.37-5.09,6.53-12,3.7-16.78l-2.55-4.31h.79s1.84-.15,1.84-.15c2.11-.16,2.11-4.39,2.23-6.76,2.67,2.34.14,21.74-2.09,26Z" fill="#6f3608"/><path d="M164.22,159.87c-.18-1.55-.53-3.17-.44-4.74.12-2.03.33-4.05.07-6.08.27-.25.85-.03,1.18-.21l-.08,9.98c0,.69-.18,1.25-.73,1.06Z" fill="#6f3608"/><path d="M191.26,204.86c-.17,2.79-2.36,4.76-4.04,6.85-.36,0-.81,0-1.15.12-.46.15-1.57.35-1.22,1.05-.95.16-1.94.08-2.9.07,2.23-4.26,4.77-23.66,2.09-26,.02-.33-.06-.67-.02-1,.18-1.17-.37-2.17-1.04-3.07,2.08.94,3.08,2.92,3.99,5.28,3.97,10.21.07,17.85,4.28,16.71Z" fill="#d49438"/><path d="M184.85,212.87c-.35-.7.76-.9,1.22-1.05.37.68-.73.97-1.22,1.05Z" fill="#6f3608"/><path d="M113.9,124.96c.64,1.52,2.29,2.17,3.8,3.36,5.32,4.19,6.82,1.05,10.4-.51.55,2.13,2.48,4.17,4.86,3.98-1.3,4.45-4.74,10.46-9.92,11.29-4.14.66-7.27-3.96-9.75-6.2-.79-2.05-1.25-4.28-2.6-6.02-.1-.88-.14-2.26.15-3.14.35-1.04,1.12-1.97,1.82-2.78l1.23.02ZM125.69,134.65c1.01-.98-.18-2.41-1.27-1.67-2.47,1.89-4.44.62-6.21-1.13.3,1.41,1.31,2.53,2.25,3.58,1.24,1.4,3.04.01,5.23-.79ZM128.99,134.37c0-.28-.22-.5-.5-.5s-.5.22-.5.5.22.5.5.5.5-.22.5-.5ZM123.04,140.71c2.43-1.3,3.96-2.87,4.73-4.85-2.17,2.58-4.51,3.34-7.8,3.28.79.56,2.52,1.86,3.07,1.56Z" fill="#6f3608"/><path d="M110.7,130.86c1.35,1.74,1.82,3.97,2.6,6.02-.77-.7-1.45-2.14-2.59-2.77-2.28-1.25-12.78,6.77-26.75,2.61-.71-.21-1.66.41-2.38.09s-.77-1.22-.59-2.12c11.72,4.13,19.05,2.22,29.71-3.84Z" fill="#eab957"/><path d="M79.99,134.62c-2.43.54-9.37-4.64-10.03-6.81,3.09,2.66,6.55,4.71,10.03,6.81Z" fill="#eab957"/><path d="M69.06,126.9c-1.01-.2-1.88-1.03-1.85-2.11.98.3,1.46,1.22,1.85,2.11Z" fill="#eab957"/><path d="M134.89,127.74c-.05-1.33-.08-2.64-.67-3.84-.27-.55-.11-1.38-.23-1.99-.86-4.15-4.63-7.32-8.07-8.35-5.1-1.53-9.66.51-12.97,4.15-2.71,2.98-3.67,6.5-2.82,10.08-8.64,6.33-20.07,8.24-30.1,3.41-12.76-6.15-18.99-20.27-13.23-33.53,3.74-8.62,12.46-15.36,22.14-15.51s19.39,4.39,25.11,11.6l7.92,9.99c.61.76,1.87-1.11,2.18-1.64,6.61-11.31,18.1-19.97,31.82-19.94,7.56.02,14.8,4.74,19.12,10.5,9.45,12.6,5.17,29.55-8.15,37.48-10.31,6.14-22.85,4.6-32.06-2.41ZM95.05,124.78c7.65-6.09,17.01-17.32,13.34-26.47-1.59-3.96-5.46-5.47-8.88-5.77-3.83-.34-7,3-9.49,5.17-3.85-1.46-8.1-3.54-12.33-.67-2.88,1.95-5.21,5.95-4.04,10.57,2.07,8.16,13.68,16.08,21.41,17.18ZM170.28,110.87c2.85-4.58,1.43-10.2-1.85-12.95-3.92-3.28-9.2-3-13.65.39-3.01-4.36-7.22-6.7-12.21-5.24-3.71,1.09-6.75,4.97-6.71,9.8.06,8.55,6.9,14.99,11.65,20.39,2.05,2.33,4.03,1.97,6.6.61,6.12-3.24,12.24-6.67,16.18-12.99Z" fill="#f7f9f5"/><path d="M131.21,124.8c0,.26-.1.52-.15.78-1.21.41-2.4,1.05-2.96,2.23-3.59,1.57-5.09,4.7-10.4.51-1.51-1.19-3.16-1.84-3.8-3.36.05-1.82,1.16-3.08,2.62-4.55,3.02-3.05,7.85-4.35,11.2-1.37,1.96,1.74,3.57,3.45,3.49,5.76Z" fill="#d49438"/><path d="M134,121.91c-3.05,1.44-5.7-6.67-12.03-6.26-5.07.33-9.11,4.85-9.29,9.3-.71.81-1.47,1.73-1.82,2.78l-.71.06c-.85-3.57.11-7.09,2.82-10.08,3.31-3.64,7.87-5.69,12.97-4.15,3.44,1.04,7.22,4.21,8.07,8.35Z" fill="#5e3110"/><path d="M134.23,123.9c.59,1.2.62,2.51.67,3.84-1.09-.83-2.59-1.54-3.83-2.16.05-.26.14-.51.15-.78.89-.61,1.95-.83,3.01-.9Z" fill="#5e3110"/><path d="M182.99,182.87c.67.9,1.22,1.91,1.04,3.07-1.91-.45-2.27-2.43-1.94-4.15.68-.04.63.72.9,1.08Z" fill="#6f3608"/><path d="M165.02,148.84c-.33.18-.9-.04-1.18.21-1.01.93-2.92.24-3.92.84-.49-.49-.63-1.2-.72-1.87,1.28.16,2.19-1,2.78-1.87,2.26-.07,4.1-1.59,6.21-2.2-.02,2.11-2.33,2.86-3.18,4.88Z" fill="#5e3110"/><path d="M182.07,67.87c-.49,1.01-1.54,1.68-2.95,2.17-18.71,6.59-37.03,1.73-48.14,16.98-1.46.56-2.96,1.12-4.39,1.76-.25-.52-.27-1.18.02-1.7,4.8-8.69,12.46-16.32,22.18-20.3,15.41-6.3,24.65-5.5,36.23-18.89.94-1.08,2.15-1.72,2.69-2.76,2.89,4.87-1.4,12.28-6.37,16.08-3.2,2.45,1.39,3.72.74,6.64Z" fill="#f2bd41"/><path d="M26.88,86.92c.1,1.51-1.3,2.87-.03,4.97,2.27-1.38,1.85-3.6,2.13-5.35,1.84-1.52,4.63,1.12,5.82-.19.71-.78,1.92-6.19,6.49-5.35,2.18.4,4.41,2.58,4.51,5.34.21,5.48-2.87,10.45-6.29,14.34-5.87-1.78-15.75-4.28-15.28-11.48.11-1.68,1.47-2.29,2.65-2.29Z" fill="#e35e69"/><path d="M28.99,86.55c-.28,1.75.13,3.97-2.13,5.35-1.27-2.1.13-3.46.03-4.97,1.14,0,1.65-.51,2.1-.37Z" fill="#dec6a3"/><path d="M125.69,134.65c-2.19.8-3.99,2.19-5.23.79-.93-1.06-1.95-2.17-2.25-3.58,1.77,1.75,3.73,3.02,6.21,1.13,1.1-.75,2.28.68,1.27,1.67Z" fill="#cc903e"/><path d="M123.04,140.71c-.55.29-2.28-1-3.07-1.56,3.29.06,5.63-.71,7.8-3.28-.77,1.98-2.29,3.54-4.73,4.85Z" fill="#cc903e"/><path d="M134,121.91c.13.61-.03,1.45.23,1.99-1.06.07-2.13.29-3.01.9.08-2.31-1.53-4.02-3.49-5.76-3.35-2.98-8.18-1.68-11.2,1.37-1.46,1.48-2.58,2.74-2.62,4.55l-1.23-.02c.18-4.44,4.21-8.97,9.29-9.3,6.33-.41,8.98,7.7,12.03,6.26Z" fill="#eab957"/><circle cx="128.49" cy="134.37" r=".5" fill="#cc903e"/><path d="M95.05,124.78c-7.73-1.1-19.33-9.02-21.41-17.18-1.17-4.62,1.16-8.62,4.04-10.57,4.23-2.87,8.48-.79,12.33.67,2.49-2.16,5.66-5.5,9.49-5.17,3.42.3,7.29,1.81,8.88,5.77,3.67,9.15-5.68,20.37-13.34,26.47ZM80.84,100.04l-2.74,1.91c-1.42-.05-2.54.84-2.44,2.93.21,4.44,2.97,7.53,6.49,10.07s7.86,7.35,12.37,6.25c4.06-.99,6.14-6.41,8.46-9.35,2.52-3.19,4.19-6.82,3.17-10.8-.81-3.18-3.08-5.49-6.11-5.93-2.75-.4-6.11,1.19-7.65,4.21-2.31,4.52-6.18-3.38-10.77-1.2-.53.25-.8,1.14-.77,1.92Z" fill="#1b6056"/><path d="M170.28,110.87c-3.94,6.32-10.06,9.75-16.18,12.99-2.56,1.36-4.54,1.72-6.6-.61-4.75-5.39-11.59-11.84-11.65-20.39-.03-4.83,3-8.71,6.71-9.8,4.99-1.46,9.2.88,12.21,5.24,4.45-3.39,9.74-3.67,13.65-.39,3.28,2.75,4.7,8.37,1.85,12.95ZM165.95,99.83c-.24-.4-.99-.39-1.73-.82-3.62-4.06-9.05,3.47-10.68,1.5-2.13-2.57-3.93-5.45-7.73-5.51-2.5-.04-4.69,1.58-6.01,3.21-5.31,6.56,4.99,19.97,10.6,23.24,3.83,1.41,15.14-8.1,17.28-11.05,2.5-3.45,2.34-8.02-1.72-10.57Z" fill="#1b6056"/><path d="M78.1,101.95c.16,1.11.16,2.25,1.21,3.62,1.86-.41,3.29-2.15,2.97-4.27-.13-.84-1.01-1.12-1.44-1.26-.03-.78.23-1.66.77-1.92,4.59-2.18,8.46,5.72,10.77,1.2,1.54-3.02,4.9-4.61,7.65-4.21,3.03.44,5.29,2.75,6.11,5.93,1.02,3.98-.65,7.61-3.17,10.8-2.32,2.94-4.4,8.36-8.46,9.35-4.51,1.1-8.96-3.79-12.37-6.25s-6.27-5.63-6.49-10.07c-.1-2.08,1.02-2.97,2.44-2.93Z" fill="#48b5a0"/><path d="M78.1,101.95l2.74-1.91c.44.14,1.31.42,1.44,1.26.32,2.12-1.11,3.86-2.97,4.27-1.05-1.37-1.05-2.51-1.21-3.62Z" fill="#c5d4d4"/><path d="M164.21,99.01c-.06.86-1.25,1.35-1.62,2.37-.87,2.37.94,4.72,3.37,5.64,3.21-2.6-.32-3.9-.02-7.18,4.06,2.54,4.22,7.12,1.72,10.57-2.13,2.95-13.45,12.46-17.28,11.05-5.61-3.28-15.91-16.68-10.6-23.24,1.32-1.63,3.51-3.25,6.01-3.21,3.8.06,5.6,2.94,7.73,5.51,1.63,1.97,7.06-5.56,10.68-1.5Z" fill="#48b5a0"/><path d="M165.95,99.83c-.3,3.28,3.23,4.59.02,7.18-2.44-.91-4.24-3.27-3.37-5.64.37-1.02,1.56-1.5,1.62-2.37.74.43,1.49.43,1.73.82Z" fill="#c5d4d4"/></svg>