<?xml version="1.0" encoding="UTF-8"?><svg id="Layer_1" xmlns="http://www.w3.org/2000/svg" viewBox="0 0 255.12 255.12"><path d="M182.93,60.49c-.23-.73-.39-1.52-.92-2.1.48-.43.29-1.93,1.02-2.22,1.07-.26,1.15-.78,1.23-1.37.23-1.7-.54-2.29-2.06-2.72-1.68-.48-1.43-3.38-1.69-6.69-.14-1.81-.05-3.53-.7-5.22-.32-1.02.6-2.58.12-3.68.36-.26.74-.42.87-.73.32-.79-.49-1.56-1.05-1.36-.32.11-1.34-.3-1.6.34-3.94,9.45-11.17,16.61-20.71,20.37-6.5,2.57-11.96,6.16-17.63,9.5l-1.92-1.09c.45-.31.65-1.08,1.2-2.04,2.05-.97,4.23-1.83,5.92-3.74-4.81-2.4-23.61-1.7-27.6-.85-7.38,1.57-14.43,3.2-21.01,7.27,1.06,1.74,2.65,1.12,4.44,1.27,1.29,2.18,4.54,1.46,5.19,3.74l-.19,1.21c-21.06-7.47-33.68-.9-50.02-20.12-.92,2.6-.46,5.09.32,7.23.68,1.87,1.03,4.07,1.9,5.85,1.34,2.73.92,5.16-.25,7.96.13,2.07,2.3,4.36,4.14,5.1-.03.3.11.63.05.92-.2,1.02,0,2.11.85,2.68.96.65,2.05.34,3.03.15.59-.02,1.28.26,1.86.4.1,2.16,2.71,2.58,4.21,4.08-.05.25-.08.5-.16.74-.9-.49-.87.57-.87,1.08v1.73c-2.38,1.65-3.16,4.58-4.03,7.25-.62-.51-.82.52-.89.96-.06.32-.05.67-.03,1-1.35-1-4.66,8.42-1.96,8.2l-.12,1.65c-1.05.25-1.81,1-2.38,1.9-.5-6.13,3.04-18.5,7.55-24.71-5.07-2.34-15.02-7.76-14.64-13.89.1-1.63,2.23-1.76,3.49-2.78-4.34-4.56-8.29-19.39-2.47-20.28,1.45-.22,2.39.73,3.41,1.83,10.1,10.91,16.57,12.78,31.93,14.34,17.74-10.3,38.35-13.26,58.09-8.15,14.45-5.02,20.49-8.97,27.52-22.8.73-1.43,3.31-2.9,4.45-1.21,3.6,5.31,3.06,12.06.59,17.99,1.23,1.26,3.48.94,4.16,2.39.93,3.18-.22,6.99-2.62,8.63Z" fill="#5e3110"/><path d="M67.81,134.51c-1.4-6.04-1.8-2.07-2.66-10.09,1.25.23,1.19,1.66,1.76,2.97,3.22,7.43,8.62,13.32,15.73,17.31,2.96,1.66,6.14,3.87,9.13,4.72l.1,1.02c-1.1-.4-2.3-.03-3.66-1.33-1.54-1.47-3.98-1.3-5.91-1.35-.45,3.84,1.19,4.29.24,6.94-.81-.77-1.8-6.16-5.05-4.61-3.95,1.89-7.2,4.75-10.13,8.04.63,1.45,3.67,14.26,1.47,12.26l-2.18-.15c.36-3.97-2.98-15.76-4.59-20.15-1.84-5.02-4.9-8.66-8.21-12.58-3.1-3.68-5.44-13.89-8.39-14.15s-.89,9.92-.67,12.05c-2.26,1.88-5.24-2.91-10.17,7-1.67,1.24-1.47,3.71-3.45,3.72,0-.25.06-.58.03-.8-.16-1.09.94-3.7-.41-4.66-3.28-2.33-13.81-6.63-15.91-4.54-1.96,1.95,9.04,11.58,9.9,12.24-.12.75-.16,1.55.11,2.37.19.58,7.04,3.45,9.22,5.38,1.05.93,1.31,2.43,2.53,2.53l1.01,3.77c-.65.34-.57,1.29.27,1.04l.05,1.88c.01.46.24,1.54.91,1.17-.02.57.24,1.3.05,1.83-.37,1.08.51,1.45.88,2.16,1.64,3.13,2.84,6.53,4.03,9.86.18.51.54.93,1.06,1.12.09.3.04.69.03,1-.03.72-.27,1.57,0,2.34.29.84,1.34.7,2.06.6.05.54.32,1.13.22,1.69-.07.41-.27,1.1.19,1.26.54.2,1.11.08,1.49.07.72.57,1.86,1.08,1.98,2.2.44,4.16,4.61,2.86,4.92,5.9-12.26-3.79-20.2-27.6-22.3-39.62-5.45-1.95-28.02-17.56-20.71-23.49,1.26-1.02,3.41-.17,5.15-1.26-.22-1.77-1.33-4.11.29-5.4,5.69-4.55,16.78,3.17,22.62,5.77-.35-4.21-.62-7.74,1.63-10.6,1.91-2.42,5.18-1.16,6.86.93,2.87,3.59,3.84,8,6.34,11.73,3.3,4.92,7.07,8.89,9.53,15.08,1.75-5.38,6.89-7.64,6.45-9.61-.29-1.33-3.22-3-3.81-5.55ZM37.92,134.89c-1.94-1.53-15.08-8.54-17.4-5.5,2.32,4.29,8.84,6.81,13.08,8.99l4.32-3.49ZM78.79,146.62c-1.15-2.22-2.71-3.78-4.19-3.37-4.34,1.19-7.47,5.62-7.03,10.27,4.1-2.79,6.99-5.64,11.22-6.9Z" fill="#653511"/><path d="M177.93,135.61c-.27.33-.6.6-.9.9-2.27-.39-4.69,2.47-4.83,4.66,1.51,1.48,3.77,2.53,4.77,4.2-.87-.31-1.71-1.41-3.32-.63.72,3.41,3.06,5.99,3.95,8.77,1.85,8.72,4.28,17.3,5.24,26.19.34,3.11-.97,7.15.49,10.38,2.55,2.21,6.62,1.85,9.37,3.28-.02.6-.25,1.18.02,1.77-1.23.04-2.46-.1-3.69.07.47-.62-.04-1.38-.79-1.73-.59-.28-1.14.65-1.55.98l-3.65-.76c-.79-.16-1.61,1.71-1.58,2.69.25,8.89-2.49,16.58-5.74,24.17-1.86,1.02-2.22,3.59-5.63,2.89.37-.64.7-1.3.94-2.01.11-.31.03-.68.11-1,1.07-.3,1.39-1.46,2.04-2.64,6.82-12.4,5.02-20.96,2.43-34.18-1.04-5.32-2.94-10.16-4.46-14.93.74,0,1.46-.35,1.69-1.08,1.44,1.58,2.01,3.65,2.72,6.02l3.9,13.01c3.59-4.19-7.63-55.97-14.79-40.27-.61.23-1.18.54-1.69.94-2.26-.53-4.64.34-6.11,2.12-16.25,5.23-33.24,8.49-50.2,6.01l.11-2.77c13.5,1.49,27.16.28,40.63-3.41,11.83-3.24,21.53-9.36,30.56-16.85l-.05,3.23Z" fill="#653511"/><path d="M91.87,150.43c1.25.46,2.29,2.11,3.13,3,.09,1.72.87,3.34,1.06,5.04.71,6.65.47,13.38-.06,20.03l-.15,1.9c-1.01,1.67-3.91,9.99-4.19,12-2.2,1.73-2.28,5.08-8.25,10.65-.76.71-1.4,1.44-1.59,2.15-2.72.97-4.94,2.93-7.98,4.41.25,2.82,2.84,11.93,4.93,11.95-.08.58.29,1.22.24,1.8-4.88.54-3.49-2.66-8.23-1.99-.29.04-.71-.22-.96-.08-.07-1-1.2-1-1.98-1.01-2.02-1.06-4.45-1.7-6.53-3.39-5.88-4.78-6.02-13.07-5.42-19.4l4.86-.34c1.89-.13,3.39.21,5.09-.75,1.14-.65,3.13.54,4.06,1.08-1.75.32-3.45.76-6.06.92-1.47.09-2.81.02-4.96-.2-.96,5.38-.19,15.17,6.04,17.2.62.88,1.57,1.55,3.01,1.99,1.78.2,3.05,1.09,5.08.88l-2.62-9.25c-1.07-3.77-.71-7.59-.48-11.55.95-.11,1.9-.16,2.86-.15,1.23,3.6,6.6-8.03,7.28-9.96.47-1.35,1.66-2.34,1.82-4,.23-2.33,1.56-4.55,1.08-6.96-.17-.85.12-1.61.91-2,.53-.26,1.05-1.02,1.05-2v-9.06c0-1.02-.64-1.61-1.05-1.94l-1.3-6.72c.95-2.66-.7-3.1-.24-6.94,1.93.04,4.37-.12,5.91,1.35,1.35,1.29,2.56.93,3.66,1.33ZM78.97,196.37c-1.76.24-2.1,2.48-3.6,3.52-2.04,1.41-3.93,3.92-2.05,6.33,4.58-1.31,9.64-4.59,11.6-9.65.46-1.2,1.44-2.43,2.31-3.92l3.25-5.57c2.6-4.46,7.07-34.62-1.76-35.55-1.89-.2-3.01-1.64-5.25-1.35,6.04,14.69,3.08,33.44-4.5,46.2Z" fill="#493d24"/><path d="M238.69,139.95l.54-3.45c.28-.21.45-.66.72-.91,1.38-.74,2.57-2.06,1.67-4.01-.49-.42-1.38-.08-1.78-.15-.64-.11-1.28-.19-1.93-.18-1.09-1.54-2.52-3.47-3.78-4.78-.16-.5.07-1.73-1.31-1.84-1.61-.13-2.86.08-4.02-.09-1.12-.83-11.13,3.68-13.1,4.75-2.13,1.15-2.67-6.41-4.14-5.92-.07-1.04-.45-2.99-2-3.79-5.28,4-4.67,11.28-9.73,16.75-2.64,2.85-4.35,5.96-5.87,9.11-3.11-1.08-1.53,5.19-7.05,7.07-.85-.19-9.9-7.07-9.94-7.14-1-1.66-3.26-2.72-4.77-4.2.14-2.19,2.56-5.04,4.83-4.66-1.6.79-4.09,2.86-3.13,4.73,5.38,2.2,10,4.77,14.18,9.33,4.37-4.19,1.57-6.6,8.2-14.76,6.5-8,5.24-11.64,9.34-16.67,1.56-1.91,4.78-3.29,6.76-1.29,3.81,3.84-.22,11.17,4.23,10.75,1.35-4.41,23.39-11.78,20.94-2.26-.28,1.09-.66,2-.13,2.14,1.9.49,6.79.24,6.34,3.92-.42,3.4-2.55,6.14-5.08,7.56Z" fill="#5e3110"/><path d="M181.59,62.4c-2.37,4.84-2.54,2.57-6.97,6.82,2,3.4,4.39,5.82,6.71,8.88,10.37,13.63,13.13,35.56,2.23,51.07-1.79,2.54-3.94,4.33-5.64,6.42l.05-3.23c.37-.31.56-.86.98-1.13.88-.18,1.82-.48,2.38-.93,1-.8.13-2,.48-2.72l3.93-8.17c1.95.52,3.75-7.56,2.03-7.23l.05-1.63c1.28,1.89,1.65-9.67,0-8.16v-3c0-.74-.06-2.28-1.13-2.1-.12-.96-.28-1.93-.2-2.9.04-.45-.1-.91-.5-1.16.04-.28.11-.57.19-.84.63-2.03-.9-3.98-1.17-6.16-.33-2.72-2.29-3.62-3.48-5.46-2.5-3.9-4.52-7.81-8.32-10.64-2.68-2,3.8-2.67,3.93-5.67.05-1.09,1.42-1.33,1.87-2.02.85.04,1.71.01,2.56-.07Z" fill="#5e3110"/><path d="M237.48,141.21c-2.07,4.66-10.42,8.78-15.02,11.9-1.86,3.75-1.91,8.68-3.43,12.69l-2.49,6.56c-2.17,5.71-4.79,10.98-8.61,15.23-.3-4.63,3.17-4.75,2.74-8.18-.04-.3-.05-.72.05-1,.57-.03,1.01-.52,1.02-1.09.01-1.07.67-1.95.99-2.91.35,0,1.44.3,1.79-.36.73-1.39.25-2.61.25-3.63,0-.28-.04-.61.02-.88,1.89,2.68,5.52-12.71,3.28-11.13.47-1.21.73-2.52.99-3.79,1.38-.36,1.64-2,2.69-3.17s2.7-1.43,3.2-2.72c.28-.74,1.33-.87,1.86-1.3.46-.24.87-.56,1.2-.95,2.21-1.74,4.21-3.83,6.77-5.03.91-.03,1.81-.11,2.7-.25Z" fill="#5e3110"/><path d="M64.84,121.53l.31,2.88c.86,8.02,1.26,4.05,2.66,10.09-3.9-2.84-6.7-15.88-6.78-21.26.68-.48,1.96.17,1.88,1.32l-.35,4.93c-.07.96.31,1.52.84,1.88.42.29.92.58,1.43.15Z" fill="#5e3110"/><path d="M64.09,113.46l.75,8.07c-.51.43-1.01.14-1.43-.15-.54-.37-.91-.92-.84-1.88l.35-4.93c.08-1.15-1.2-1.8-1.88-1.32-.02-1.36.55-2.79.45-4.12.57-.89,1.33-1.65,2.38-1.9l.24,6.23Z" fill="#653511"/><path d="M61.41,195.76c-.38.38-.66.86-.66,1.41l-4.86.34c.03-.31-.09-.66-.12-.97-.31-3.04-4.47-1.73-4.92-5.9,3.93,1.8,4.52,4.14,10.56,5.12Z" fill="#6f3608"/><path d="M207.92,187.59c-.24.26-.57.79-.91.91-3.67-.31-9.58,7.43-12.38,3.93,5.4-2.14,10.31-3.51,14.06-10.39.64-1.17.75-2.45,1.97-2.63.43,3.43-3.04,3.55-2.74,8.18Z" fill="#653511"/><path d="M207.02,188.5c-1.33.46-4.8,6.34-14.3,6.61-.27-.59-.03-1.18-.02-1.77.02-.7,1.39-1.14,1.93-.91,2.8,3.5,8.71-4.24,12.38-3.93Z" fill="#5e3110"/><path d="M238.69,139.95c-.39.22-.89.95-1.21,1.26-.89.14-1.8.22-2.7.25,1.07-1.94,2.38-4.03,4.45-4.97l-.54,3.45Z" fill="#653511"/><path d="M182.93,60.49c.09.88-1.04,1.3-1.34,1.91-.85.08-1.71.1-2.56.07.92-1.42,1.69-2.93,2.98-4.08.53.58.69,1.37.92,2.1Z" fill="#653511"/><path d="M94.92,223.46l-4.08-.05h-2l-3.1.04c-1.95-1.5,11.1-1.53,9.18.01Z" fill="#eab957"/><path d="M189.03,195.18c-.73.1-2.28.3-2.34-.75.41-.34.96-1.27,1.55-.98.74.35,1.25,1.11.79,1.73Z" fill="#5e3110"/><path d="M69.82,221.31c-1.07.57-1.39-.7-1.98-1.01.78.01,1.91.02,1.98,1.01Z" fill="#f6f2eb"/><path d="M169.97,182.6c-.06.52.09,1.12.06,1.64l-.28,6.13-2.24,10.48c-2.08,9.71-9.16,16.25-17.24,21.06-.78.46-1.22.91-1.39,1.46-.94,1.06-2.41.4-4.03.29-4.35-.29-26.47-.41-29.31.47-1.26.39-2.26-.24-2.84-.78l2.21-.39c-1.52-1.35-3.46-1.59-5.15-2.42-.51-.4-.93-1.24-1.75-1.22.18-.48.02-.91-.19-1.32-.35-.71-1.61-.34-1.98-.68-.3-.98-1.29-1.3-1.97-1.9s-.67-2.02-1.85-2.11c-.05-.54.02-1.3-.22-1.8-.88-1.83-1.36-4.06-3.08-5.26l-.06-1.65c-.02-.53-.14-1.65-.91-1.38l-.06-1.65c.11,3.13-1.48-16.92-2.61-10.44.09-.47-.05-1.06.07-1.51,1.31-2.84,2.09-6.35.67-9.24l.15-1.9c.45.43.94.3,1.28-.07.39-.43.14-1.14.38-1.85l5.05-15.15c1.5-.65,3.13-.65,5.2-.35,14.38,2.07,28.8,1.28,42.56-3.15,3.37-1.08,6.15-2.78,9.21-3.4,5.52,8.47,8.66,18.1,10.3,28.07Z" fill="#f7efd8"/><path d="M95.1,191.16c-.5,2.78-.33,11.33,2.61,10.44l.06,1.65c-1.63.56-.2,2.05.91,1.38l.06,1.65c-.76.42-.4,1.23-.15,2.24.47,1.9,1.5,3.47,3.22,3.02.24.49.17,1.25.22,1.8.1,1.07.77,1.89,1.85,2.11.67.59,1.66.92,1.97,1.9-.16.71-.16,1.68.58,1.94.55.19,1.12.07,1.58.06.81-.02,1.24.82,1.75,1.22,1.3,3.25-7.99.66-7.01,2.91h-7.83c1.91-1.54-11.13-1.5-9.18,0-.93.01-1.86-.05-2.8,0-.33-.58-.87-.58-1.2,0-.9.05-1.84-.17-2.73-.07.05-.59-.32-1.22-.24-1.8.63-4.66-3.42-5-2.82-11.06,2.4-3.14,5.05-2.25,5.86-5.31.19-.72.83-1.45,1.59-2.15,5.98-5.58,6.05-8.93,8.25-10.65l3.52-2.76c-.12.45.01,1.04-.07,1.51Z" fill="#efba47"/><path d="M171.03,221.42c-.24.7-.57,1.37-.94,2.01-.39-.08-.85,0-1.25,0-3.4.01-6.8.29-10.17.21l-6.75-.15-1.18-.1h-1.87c.18-.54.61-.99,1.39-1.45,8.08-4.81,15.16-11.36,17.24-21.06l2.24-10.48.28-6.13c5.44-3.19-3.15,23.75-3.33,24.09-2.75,5.12-6.75,8.62-11.2,13.23,3.58.85,13.79,1.56,15.53-.15Z" fill="#eab957"/><path d="M112.69,223.36c-3.2.37-6.7.1-9.94.1-.98-2.25,8.3.35,7.01-2.91,1.69.83,3.63,1.06,5.15,2.42l-2.21.39Z" fill="#eab957"/><path d="M150.74,223.37l1.18.1c.17,1.33-1.53,1.14-1.18-.1Z" fill="#f7efd8"/><path d="M179.82,40.18c.65,1.69.56,3.41.7,5.22-.88.39-.72,1.52-1.07,2.61-1.36,4.18-5.48,8.39-4.5,9.53,1.24,1.46,5.29-1.9,7.13-3.16.93.25,1.06,1.14.96,1.81-.73.29-.54,1.79-1.02,2.22-1.29,1.15-2.05,2.65-2.98,4.08-.44.68-1.82.92-1.87,2.02-5.66,3.05-11.87,6-18.67,6.53-5.61.43-9.37,3.57-13.62,5.29-8.32,3.36-15.15,9.39-18.67,18.62-4.23-3.29-6.86-7.67-11.22-9.4.08-1.14-.72-2.36-2.13-3.03-19.41-9.17-31.78.07-48.01-6.19-1.11-.43-2.16-.21-2.92.09-1.85-.75-4.01-3.03-4.14-5.1l7.13,2.13c.85.25,1.57-.07,1.8-.49.99-1.82-4.23-2.77-7.18-8.28-.41-.77-.96-1.2-1.5-1.31-.87-1.78-1.22-3.98-1.9-5.85.82-.56.69-1.62,1.02-2.96,6.12,4.13,5.42,6.6,14.39,10.87,9.35,4.45,34.04-.41,49.01,20.23.82,1.13,1.01,2.37,2.42,1.71.64,0,1.66.77,2.06.41-.06.05,4.56-9.1,3.55-6.4,1.33.1,1.02-1.45,1.71-2.47,14.39-21.42,27.97-18.83,38.83-28.27,1.25-1.09,2.87-1.56,3.8-3.03,1.82-2.9,5.22-10.23,6.92-7.39Z" fill="#efba47"/><path d="M139.09,61.47c-.56.97-.76,1.73-1.2,2.04-6.74,5.09-10.15,11.97-13.84,19.68-4.27-5.68-12.78-14.04-18.03-14.03-.65-2.28-3.9-1.56-5.19-3.74-2.52-2.39,20-6.12,21.8-6.41,5.32-.85,10.41-1.03,15.63.14.69.78.81,1.6.83,2.32Z" fill="#efba47"/><path d="M114.98,85.53c-6.13-2.43-12.73-4.3-19.28-4.01l-16.89.74c-4.04.18-7.64-.88-11.11-1.72-.58-.14-1.27-.42-1.86-.4-.77-1.49-2.46-2.09-3.88-2.83.06-.29-.08-.62-.05-.92.77-.3,1.81-.51,2.92-.09,16.24,6.26,28.61-2.98,48.01,6.19,1.41.67,2.21,1.89,2.13,3.03Z" fill="#d49438"/><path d="M139.81,64.61c-5.68,7.12-7.77,7.52-11.24,16.73,1.01-2.7-3.6,6.46-3.55,6.4-.41.36-1.42-.41-2.06-.41-2.92-5.46-7.66-10.29-13.11-13.97-1.55-1.05-3.2-1.73-4.03-2.99l.19-1.21c5.25,0,13.77,8.36,18.03,14.03,3.69-7.71,7.1-14.59,13.84-19.68l1.92,1.09Z" fill="#6f3608"/><path d="M105.82,70.38c.83,1.26,2.48,1.94,4.03,2.99,5.45,3.67,10.18,8.51,13.11,13.97-1.41.66-1.6-.58-2.42-1.71-14.98-20.64-39.67-15.77-49.01-20.23-8.97-4.27-8.27-6.74-14.39-10.87-.33,1.34-.2,2.41-1.02,2.96-.78-2.14-1.24-4.63-.32-7.23,16.35,19.22,28.97,12.65,50.02,20.12Z" fill="#f1cc79"/><path d="M139.09,61.47c-.02-.71-.14-1.54-.83-2.32-5.23-1.16-10.31-.99-15.63-.14-1.8.29-24.32,4.01-21.8,6.41-1.79-.15-3.38.47-4.44-1.27,6.58-4.07,13.64-5.7,21.01-7.27,3.99-.85,22.79-1.55,27.6.85-1.69,1.9-3.87,2.77-5.92,3.74Z" fill="#f1cc79"/><path d="M179.75,34.4l.19,2.1c.48,1.1-.44,2.65-.12,3.68-1.7-2.84-5.1,4.49-6.92,7.39-.93,1.47-2.55,1.95-3.8,3.03-10.86,9.44-24.44,6.86-38.83,28.27-.69,1.02-.38,2.57-1.71,2.47,3.47-9.22,5.56-9.61,11.24-16.73,5.67-3.34,11.13-6.93,17.63-9.5,9.54-3.77,16.77-10.93,20.71-20.37.27-.64,1.29-.23,1.6-.34Z" fill="#f1cc79"/><path d="M183.04,56.18c.1-.67-.04-1.56-.96-1.81-1.84,1.26-5.88,4.62-7.13,3.16-.97-1.14,3.15-5.35,4.5-9.53.35-1.09.19-2.21,1.07-2.61.26,3.3,0,6.2,1.69,6.69,1.53.44,2.29,1.03,2.06,2.72-.08.6-.17,1.11-1.23,1.37Z" fill="#653511"/><path d="M57.77,71.29c1.17-2.8,1.6-5.23.25-7.96.54.11,1.09.54,1.5,1.31,2.94,5.52,8.17,6.46,7.18,8.28-.23.42-.95.75-1.8.49l-7.13-2.13Z" fill="#653511"/><path d="M65.84,80.14c-.99.19-2.07.51-3.03-.15-.84-.57-1.05-1.66-.85-2.68,1.42.74,3.11,1.34,3.88,2.83Z" fill="#653511"/><path d="M179.93,36.5l-.19-2.1c.56-.19,1.37.57,1.05,1.36-.13.31-.51.48-.87.73Z" fill="#653511"/><path d="M66.65,170.24l2.18.15c.06.83.59,1.23,1.31.38,2.84-3.59-2.57-9.48.11-11.75,1.6-1.36,3.19-1.98,4-4.27.63-1.79,3.58-3.68,5.43-2.43,2.15,1.45,1.61,4.8,2.23,6.98,3.2,11.17-2.55,16.11,1.02,17.12.48,2.41-.85,4.63-1.08,6.96-1.53,1-.67-4.62-1.51-5.85-2.82,2.71-5.48,5.27-9.14,7.01-15.61,7.43-26.04-13.71-29.25-25.17,1.05-.12,2.32.26,3.84-.39.98-.42.02-1.78.02-2.4,0-1.85-2.71-1.19-4.94-1.03-.3.02-.67.06-.96-.03.23-2.77-5.05-3.56-5.82-5.05-1.39-2.68,1.35-5.53.52-8.06,4.93-9.91,7.91-5.12,10.17-7,2.01-1.67.82-4.23.03-7.06.45-.83.96-.98,1.26-.82,2.29,1.23,4.06,9.02,10.1,16.6,10.62,13.32,6.37,25.83,10.48,26.11ZM52.6,148.31c-2.75-5.44-8.96-6.97-13.9-4.6,5.23.8,9.24,2.28,13.9,4.6Z" fill="#f2bd41"/><path d="M187.84,103.42v7.16s-.06,1.63-.06,1.63c-1.49,2.03-1.52,4.82-2.03,7.23l-3.93,8.17c-1.4.79-2.34,2.14-2.86,3.65-.42.27-.61.83-.98,1.13-9.03,7.49-18.72,13.61-30.56,16.85-13.47,3.69-27.13,4.9-40.63,3.41-5.04-.56-10.14-1.84-15.03-3.23-2.98-.85-6.17-3.06-9.13-4.72-7.11-3.98-12.51-9.88-15.73-17.31-.57-1.31-.51-2.75-1.76-2.97l-.31-2.88-.75-8.07c.72,0,1.5.82,1.76,1.85,2.59,10.54,11.72,20.59,20.7,25.31,22.16,11.65,53.05,9.21,74.77-2.59,6.99-3.8,12.56-8.65,17.7-14.41s7.49-13.03,6.83-20.21h2Z" fill="#d49438"/><path d="M31.2,145.33c-1.54-.08-1.51-1.93-2.4-3.12-.19-.25-6.96-4.92-8.57-2.83-1.96,2.56,4.83,3.85,8.21,7.39.53.56,1.33.64,1.7.54.46-.13.69-1.06,1.03-1.18,1.98-.02,1.78-2.48,3.45-3.72.83,2.54-1.91,5.38-.52,8.06.77,1.49,6.05,2.28,5.82,5.05-.4-.13-1.13.2-1.89-.14-4.65-2.08-9.41-4.09-13.25-7.02-.86-.66-11.86-10.28-9.9-12.24,2.1-2.09,12.63,2.22,15.91,4.54,1.35.96.25,3.57.41,4.66Z" fill="#eab957"/><path d="M66.65,170.24c-4.11-.28.14-12.79-10.48-26.11-6.04-7.57-7.8-15.37-10.1-16.6-.29-.16-.8,0-1.26.82.78,2.83,1.98,5.39-.03,7.06-.22-2.13-2.34-12.31.67-12.05s5.29,10.47,8.39,14.15c3.31,3.93,6.38,7.56,8.21,12.58,1.61,4.39,4.95,16.18,4.59,20.15Z" fill="#eab957"/><path d="M37.92,134.89l-4.32,3.49c-4.23-2.18-10.75-4.7-13.08-8.99,2.32-3.04,15.46,3.97,17.4,5.5Z" fill="#eab957"/><path d="M39.92,155.52c.29.09.65.06.96.03-1.77,1.07,5.02,1.04,4.94,1.03,0,.62.96,1.97-.02,2.4-1.52.65-2.78.28-3.84.39-1.45-.77-3.97-2.11-5.32-.73-1.22-.11-1.47-1.61-2.53-2.53-2.18-1.92-9.03-4.8-9.22-5.38-.27-.82-.23-1.63-.11-2.37,3.84,2.93,8.6,4.94,13.25,7.02.76.34,1.5.01,1.89.14Z" fill="#6f3608"/><path d="M78.79,146.62c-4.23,1.26-7.12,4.11-11.22,6.9-.44-4.65,2.69-9.08,7.03-10.27,1.48-.41,3.04,1.16,4.19,3.37Z" fill="#368e7a"/><path d="M82.54,154.7l1.3,6.72v13c-.79.39-1.07,1.15-.91,2-3.57-1.01,2.19-5.95-1.02-17.12-.63-2.18-.08-5.53-2.23-6.98-1.85-1.24-4.79.64-5.43,2.43-.81,2.29-2.4,2.91-4,4.27-2.68,2.28,2.73,8.17-.11,11.75-.72.85-1.25.45-1.31-.38,2.2,2-.84-10.81-1.47-12.26,2.92-3.29,6.17-6.15,10.13-8.04,3.25-1.55,4.25,3.84,5.05,4.61Z" fill="#eab957"/><path d="M31.2,145.33c.03.22-.03.55-.03.8-.34.13-.57,1.05-1.03,1.18-.37.11-1.16.02-1.7-.54-3.38-3.54-10.18-4.83-8.21-7.39,1.6-2.09,8.37,2.57,8.57,2.83.9,1.18.87,3.04,2.4,3.12Z" fill="#f2bd41"/><path d="M210.13,130.38c1.09,4.2,1.78-1.27,7.11,3.6,3.04,2.78,5.31,5.68,5.92,9.49,1.32-.84,1.07-1.99,1.6-2.28,2.28-1.25-1.34-5.4,15.07-7.77l.1,2.17c-.27.25-.44.7-.72.91-2.06.94-3.38,3.03-4.45,4.97-2.56,1.19-4.57,3.29-6.77,5.03l-1.2.95c-.54.42-1.58.55-1.86,1.3-6.47,3.18-8.82,2.01-16.57,5.02,1.32,1.9,3.59,1.71,5.21,1.6-4.63,12.07-4.88,16.08-15.56,25-7.16,2.88-9.2,1.43-15.17-.67-.97-8.89-3.39-17.47-5.24-26.19.27-1.29-.46-2.82,1.03-4.17,5.89,4.01,3.72,1.69,8.54,6.21.84,2.96-2.11,8.77-.54,10.77.45.58,1.39-.07,2.15.08.58.11.89-.04.93-.6s-.15-.99-.19-1.38c-.03-.28.04-.74.12-1,6.15-13.77,1.04-10.86,11.26-25.86l2.83-4.15,5.77-11.28c1.65,3.21.4,5.79.64,8.25ZM215.84,140.56c3.88-.11-5.83-5.09-11.75,1.15-.83.87-1.81,1.87-.41,2.81,3.75-3.46,7.57-3.82,12.16-3.96Z" fill="#efba47"/><path d="M219.05,154.63c-.26,1.27-.52,2.58-.99,3.79-1.39,3.62-2.41,7.35-3.28,11.13-.06.27-.02.6-.02.88-1.52.72-1.56,2.56-2.04,3.99-.32.96-.98,1.84-.99,2.91-.63-.35-.86.64-1.02,1.09-.1.28-.08.7-.05,1-1.22.18-1.33,1.46-1.97,2.63-3.75,6.88-8.66,8.25-14.06,10.39-.54-.23-1.91.21-1.93.91-2.75-1.43-6.82-1.07-9.37-3.28-1.46-3.23-.16-7.26-.49-10.38,5.97,2.11,8.01,3.55,15.17.67,10.68-8.92,10.93-12.93,15.56-25,1.83-.12,3.59-1.33,5.48-.73Z" fill="#d49438"/><path d="M156.88,149.4c.69,1.53,1.3,3.2,2.74,4.16l.05.98c-3.07.62-5.85,2.32-9.21,3.4-13.76,4.43-28.18,5.21-42.56,3.15-2.07-.3-3.7-.3-5.2.35l.07-1.73c1.24-1.07,1.97-2.58,1.97-4.22.62.12,1.32-.17,1.94-.08,16.96,2.48,33.95-.77,50.2-6.01Z" fill="#dec6a3"/><path d="M171.14,220.42c-.08.32,0,.69-.11,1-1.74,1.71-11.95.99-15.53.15,4.45-4.61,8.45-8.11,11.2-13.23.18-.34,8.77-27.28,3.33-24.09.02-.51-.12-1.12-.06-1.64.75-.63.92-1.76.43-3.47.19-2.27,2.21-2.32,2.32-.13,1.3,5.11,1.53,10.02,2.97,14.57,1.68,5.33,1.64,10.09-.39,15.29-.96,2.47-.53,5.27-2.47,7.61-.98,1.18-1.37,2.76-1.68,3.94Z" fill="#f3be3f"/><path d="M172.85,167.58c-1.02-1.12-.55-3.16-1.21-4.78-1.36-3.33-3.28-6.16-3.66-9.39-.59-4.9-2.53-3.86-3.29-7.08,7.16-15.7,18.38,36.08,14.79,40.27l-3.9-13.01c-.71-2.37-1.28-4.44-2.72-6.02Z" fill="#52ae90"/><path d="M163.96,152.29c.69.02,1.31.81,1.8,1.2.87,5.28,3.79,10.09,5.4,15.17,1.51,4.77,3.42,9.61,4.46,14.93,2.58,13.22,4.38,21.78-2.43,34.18-.64,1.17-.97,2.34-2.04,2.64.31-1.18.7-2.76,1.68-3.94,1.94-2.34,1.51-5.14,2.47-7.61,2.03-5.2,2.07-9.96.39-15.29-1.44-4.56-1.66-9.46-2.97-14.57-.11-2.19-2.13-2.14-2.32.13.49,1.71.32,2.84-.43,3.47-1.63-9.96-4.78-19.59-10.3-28.07l-.05-.98c1.31-.76,2.79-1.33,4.33-1.28Z" fill="#eab957"/><path d="M106.79,152.64l-.11,2.77c-.63-.09-1.32.2-1.94.08-3.25-.65-6.45-1.56-9.74-2.05-.85-.89-1.89-2.54-3.13-3l-.1-1.02c4.89,1.39,9.98,2.67,15.03,3.23Z" fill="#6f3608"/><path d="M167.97,153.41c.39,3.23,2.3,6.06,3.66,9.39.66,1.62.19,3.65,1.21,4.78-.23.73-.95,1.09-1.69,1.08-1.61-5.09-4.53-9.89-5.4-15.17l2.21-.08Z" fill="#5e3110"/><path d="M162.99,147.28c.48,1.64,1.03,3.28.96,5.01-1.54-.05-3.02.52-4.33,1.28-1.44-.96-2.05-2.63-2.74-4.16,1.47-1.78,3.85-2.65,6.11-2.12Z" fill="#d49438"/><path d="M176.97,145.36c.04.07,9.09,6.94,9.94,7.14.68.78,1.35,2.28.25,3.04-4.82-4.53-2.65-2.2-8.54-6.21-1.48,1.35-.76,2.88-1.03,4.17-.89-2.77-3.23-5.35-3.95-8.77,1.61-.78,2.45.33,3.32.63Z" fill="#f1cc79"/><path d="M167.97,153.41l-2.21.08c-.49-.39-1.11-1.18-1.8-1.2.07-1.72-.49-3.37-.96-5.01.51-.4,1.08-.72,1.69-.94.76,3.22,2.7,2.18,3.29,7.08Z" fill="#493d24"/><path d="M41.95,159.37c3.21,11.46,13.64,32.6,29.25,25.17,3.66-1.74,6.33-4.3,9.14-7.01.84,1.23-.02,6.85,1.51,5.85-.16,1.66-1.35,2.65-1.82,4l-1.54.33-6.05,5.34c-1.96,1.73-4.34,2.48-6.61,2.37-1.48-.07-2.97.06-4.43.34-6.04-.98-6.63-3.32-10.56-5.12-.12-1.12-1.26-1.62-1.98-2.2-.54-.43-.58-1.73-1.68-1.34.1-.56-.17-1.14-.22-1.69-.11-1.29-.64-2.72-2.05-2.94.01-.31.06-.7-.03-1-.14-.45-.38-1.58-1.06-1.12-1.19-3.33-2.38-6.73-4.03-9.86-.04-.7.22-2.32-.88-2.16.18-.53-.08-1.27-.05-1.83.02-.48-.21-1.6-.91-1.17l-.05-1.88-.27-1.04-1.01-3.77c1.35-1.38,3.87-.04,5.32.73Z" fill="#d49438"/><path d="M84.92,196.57c-1.39-3.26-4.35,4.14-5.95-.2,7.57-12.76,10.54-31.51,4.5-46.2,2.24-.29,3.36,1.15,5.25,1.35,8.83.93,4.36,31.09,1.76,35.55l-3.25,5.57c-.87,1.49-1.85,2.72-2.31,3.92Z" fill="#52ae90"/><path d="M64.91,215.42c.28-2.32.06-4.76-.62-7.39-.43-3.42-.56-6.56-.46-9.61,2.6-.16,4.31-.61,6.06-.92-.22,3.96-.59,7.78.48,11.55l2.62,9.25c-2.02.22-3.3-.68-5.08-.88-1.44-.44-2.4-1.11-3.01-1.99Z" fill="#368e7a"/><path d="M63.84,198.42c-.11,3.05.02,6.2.46,9.61.67,2.63.89,5.07.62,7.39-6.22-2.03-7-11.82-6.04-17.2,2.16.22,3.49.29,4.96.2Z" fill="#48b5a0"/><path d="M102.77,159.7l-.07,1.73-5.05,15.15c-.24.71.01,1.41-.38,1.85-.34.38-.83.5-1.28.07.53-6.66.77-13.38.06-20.03,2.3.13,4.36,1.5,6.71,1.23Z" fill="#eab957"/><path d="M84.92,196.57c-1.95,5.07-7.02,8.35-11.6,9.65-1.88-2.42,0-4.92,2.05-6.33,1.5-1.04,1.83-3.27,3.6-3.52,1.6,4.34,4.56-3.07,5.95.2Z" fill="#368e7a"/><path d="M104.74,155.48c0,1.64-.74,3.15-1.97,4.22-2.35.27-4.41-1.1-6.71-1.23-.18-1.69-.97-3.32-1.06-5.04,3.29.48,6.49,1.4,9.74,2.05Z" fill="#cc903e"/><path d="M72.76,197.34c-.95,0-1.91.05-2.86.15-.93-.54-2.92-1.73-4.06-1.08v-1c2.27.11,4.65-.64,6.61-2.37l6.05-5.34c-.31,3.83-2.94,7.1-5.74,9.63Z" fill="#6f3608"/><path d="M95.17,189.65l-3.52,2.76c.28-2.01,3.18-10.33,4.19-12,1.42,2.89.63,6.4-.67,9.24Z" fill="#eab957"/><path d="M78.77,221.58c-2.1-.02-4.68-9.13-4.93-11.95,3.04-1.48,5.26-3.44,7.98-4.41-.81,3.06-3.46,2.17-5.86,5.31-.6,6.05,3.45,6.39,2.82,11.06Z" fill="#eab957"/><path d="M83.84,174.42v-13c.41.33,1.04.92,1.04,1.94v9.06c0,.98-.52,1.74-1.04,2Z" fill="#653511"/><path d="M65.84,195.42v1c-1.7.97-3.2.62-5.09.75,0-.55.28-1.03.66-1.41,1.46-.28,2.94-.41,4.43-.34Z" fill="#653511"/><path d="M72.76,197.34c2.8-2.53,5.43-5.8,5.74-9.63l1.54-.33c-.68,1.94-6.04,13.56-7.28,9.96Z" fill="#cc903e"/><path d="M228.8,124.53c-.71,1.14-2.21,1.32-3.62,2.05l-8.37,4.29c2.36,1.33,3.31,2.38,5.05,3.63,4.5-2.55,8.82-4.75,12.26-8.04,1.26,1.32,2.69,3.25,3.78,4.78-3.77,2.64-5.27-.48-13.61,5.77-1.17.88.01,3.39.47,4.18-.52.29-.28,1.44-1.6,2.28-.62-3.81-2.88-6.7-5.92-9.49-5.34-4.87-6.02.6-7.11-3.6,1.85-1.12.78-5.02,1.42-7.02,1.47-.49,2.01,7.07,4.14,5.92,1.97-1.07,11.98-5.58,13.1-4.75Z" fill="#653511"/><path d="M234.13,126.45c-3.44,3.29-7.76,5.5-12.26,8.04-1.75-1.25-2.69-2.31-5.05-3.63l8.37-4.29c1.41-.72,2.91-.9,3.62-2.05,1.17.17,2.41-.03,4.02.09,1.38.11,1.15,1.33,1.31,1.84Z" fill="#eab957"/><path d="M193.96,145.43c-1.43,2.97-4.69,14.43-4.31,17.99-.08.26-.14.72-.12,1-1.01.04-.86,1.25-.75,1.98-.76-.15-1.7.5-2.15-.08-1.57-2,1.38-7.81.54-10.77,1.1-.76.42-2.26-.25-3.04,5.52-1.89,3.94-8.15,7.05-7.07Z" fill="#653511"/><path d="M211.55,123.36c-.64,2,.43,5.9-1.42,7.02-.24-2.47,1.01-5.04-.64-8.25l-5.77,11.28-2.83,4.15c-10.21,15-5.1,12.09-11.26,25.86-.38-3.56,2.89-15.02,4.31-17.99,1.51-3.15,3.23-6.26,5.87-9.11,5.06-5.46,4.45-12.74,9.73-16.75,1.55.79,1.93,2.74,2,3.79Z" fill="#f1cc79"/><path d="M239.84,131.42v2c-16.41,2.37-12.8,6.53-15.07,7.77-.45-.79-1.64-3.3-.47-4.18,8.34-6.25,9.84-3.13,13.61-5.77.65-.01,1.29.06,1.93.18Z" fill="#eab957"/><path d="M239.94,135.58l-.1-2.17v-2c.4.07,1.29-.26,1.78.15.9,1.95-.29,3.28-1.67,4.01Z" fill="#653511"/><path d="M186.2,92.42c-1.39.03-1.34-1.38-1.82-2.64-2.83-7.41-7.16-13.84-13.41-18.76-2.95.91-5.37,1.25-8.4,2.99,15.41,5.75,20.73,17.81,19.04,33.4-2.85,5.73-5.43,11.67-11.41,15.3-1.28.78-2.72,1.46-3.38,2.51-8.23,2.88-16.48,3.74-24.24-.97-.17-.67-.33-1.38-.68-1.98l.96-.22c11.48,5.19,25.21,2.87,32.41-8.33,7.31-11.37,4-26.33-7.07-33.68-6.27-4.17-13.64-5.54-20.32-2.82-.54-1.03-2.04-.67-3.02-.92,4.25-1.72,8.01-4.86,13.62-5.29,6.81-.53,13.02-3.48,18.67-6.53-.13,3-6.61,3.67-3.93,5.67,3.8,2.83,5.81,6.74,8.32,10.64,1.18,1.84,3.15,2.74,3.48,5.46.26,2.18,1.79,4.12,1.17,6.16Z" fill="#653511"/><path d="M186.2,92.42c-.08.27-.15.56-.19.84-.06.48-.27,1.33.5,1.16-.08.97.08,1.94.2,2.9.11.83.1,1.93,1.13,2.1v4h-2c-.34-3.63.74-7.57-2.56-11.41-.8,4.23-.51,8.13-.24,12.46.12,1.93-1.03,2.15-1.43,2.95,1.68-15.59-3.63-27.65-19.04-33.4,3.03-1.74,5.44-2.08,8.4-2.99,6.24,4.91,10.57,11.35,13.41,18.76.48,1.26.43,2.67,1.82,2.64ZM182.84,89.92c0-.28-.22-.5-.5-.5s-.5.22-.5.5.22.5.5.5.5-.22.5-.5Z" fill="#eab957"/><path d="M185.75,119.43c.51-2.41.55-5.2,2.03-7.23,1.72-.33-.08,7.75-2.03,7.23Z" fill="#653511"/><path d="M187.83,110.57v-7.16s0-1,0-1c1.65-1.51,1.27,10.04,0,8.16Z" fill="#653511"/><path d="M178.96,131.25c.52-1.51,1.45-2.85,2.86-3.65-.35.72.53,1.92-.48,2.72-.56.45-1.5.74-2.38.93Z" fill="#653511"/><path d="M187.84,99.42c-1.03-.17-1.02-1.27-1.13-2.1,1.07-.19,1.13,1.36,1.13,2.1Z" fill="#653511"/><path d="M186.51,94.42c-.77.17-.57-.68-.5-1.16.4.25.54.7.5,1.16Z" fill="#653511"/><path d="M46.97,185.42c-.72.11-1.77.24-2.06-.6-.27-.77-.03-1.62,0-2.34,1.41.22,1.94,1.65,2.05,2.94Z" fill="#6f3608"/><path d="M39.81,170.49c-.37-.71-1.26-1.08-.88-2.16,1.1-.17.85,1.46.88,2.16Z" fill="#6f3608"/><path d="M44.89,181.48c-.52-.19-.87-.61-1.06-1.12.68-.45.91.67,1.06,1.12Z" fill="#6f3608"/><path d="M37.91,163.45c-.84.25-.92-.7-.27-1.04l.27,1.04Z" fill="#6f3608"/><path d="M38.87,166.5c-.67.37-.9-.71-.91-1.17.7-.43.93.68.91,1.17Z" fill="#6f3608"/><path d="M78.87,89.51c-5.5,6.54-8.59,14.29-7.22,23.25,1.82,11.93,10.9,21.15,23.17,22.33,17.77,1.71,22.76-8.96,26.12-8.6.73,4.85,4.4,8.14,8.9,9.83.36,1.66,1.87,2.45,4.18,2.12,1.17-.17.86-1.46.83-2.19.33-.04.67-.09,1-.08,3.52.06,2.87-7.75,3.49-9.45,1.78-.98,4.35-.13,6.13,1.05,3.09,2.03,18.35,2.25,21.37-2.54.66-1.05,2.1-1.73,3.38-2.51,5.97-3.63,8.56-9.57,11.41-15.3.4-.8,1.55-1.02,1.43-2.95-.27-4.33-.56-8.23.24-12.46,3.3,3.84,2.23,7.78,2.56,11.41.66,7.18-1.58,14.33-6.83,20.21s-10.71,10.62-17.7,14.41c-21.72,11.8-52.6,14.24-74.77,2.59-8.98-4.72-18.11-14.77-20.7-25.31-.26-1.04-1.03-1.85-1.76-1.85l-.24-6.23.12-1.65c.66,1.37,2.01-7.45,1.96-8.2-.02-.33-.03-.68.03-1,.56-.04.74-.5.89-.96.87-2.66,1.65-5.6,4.04-7.25,4.3,1.97,7.74-1.28,7.98,1.34Z" fill="#f2bd41"/><path d="M95.7,81.52c-.67,2.42,5.63,1.68,4.25,2.94l-8.11.22c-7.25.2-1.46.34-7.99.92-1.37-.74-3.03-.56-5.02-.65l-6.91-.32c-1.51-1.5-4.11-1.92-4.21-4.08,3.46.84,7.07,1.9,11.11,1.72l16.89-.74Z" fill="#653511"/><path d="M83.85,85.59c-1.22,1.72-3.49,2.59-4.97,3.92-.24-2.62-3.68.64-7.98-1.34v-1.73c.69.52.73-.65.86-1.08.07-.24.1-.5.16-.74l6.91.32c1.99.09,3.65-.09,5.02.65Z" fill="#d49438"/><path d="M63.97,105.59c-2.7.22.6-9.2,1.96-8.2.05.76-1.3,9.57-1.96,8.2Z" fill="#653511"/><path d="M70.88,86.44c0-.51-.03-1.57.87-1.08-.13.43-.17,1.6-.87,1.08Z" fill="#653511"/><path d="M65.96,96.39c.08-.44.27-1.48.89-.96-.15.46-.33.92-.89.96Z" fill="#653511"/><path d="M224.93,148.74c-.49,1.29-2.12,1.52-3.2,2.72s-1.31,2.8-2.69,3.17c-1.89-.6-3.65.61-5.48.73-1.63.11-3.89.3-5.21-1.6,7.75-3.01,10.1-1.84,16.57-5.02Z" fill="#653511"/><path d="M214.78,169.54c.87-3.78,1.89-7.51,3.28-11.13,2.24-1.58-1.39,13.81-3.28,11.13Z" fill="#653511"/><path d="M212.72,174.42c.48-1.43.52-3.27,2.04-3.99,0,1.02.48,2.24-.25,3.63-.35.66-1.44.35-1.79.36Z" fill="#653511"/><path d="M210.71,178.42c.16-.45.39-1.44,1.02-1.09,0,.57-.46,1.06-1.02,1.09Z" fill="#653511"/><path d="M82.94,223.45h-1.2c.33-.58.87-.58,1.2,0Z" fill="#eab957"/><path d="M226.8,147.44l1.2-.95c-.34.39-.75.71-1.2.95Z" fill="#653511"/><path d="M48.87,188.44c-.38,0-.95.12-1.49-.07-.46-.17-.27-.85-.19-1.26,1.1-.39,1.14.91,1.68,1.34Z" fill="#6f3608"/><path d="M97.71,201.6c-2.94.89-3.11-7.65-2.61-10.44,1.13-6.49,2.72,13.56,2.61,10.44Z" fill="#eab957"/><path d="M101.81,211.53c-1.72.45-2.76-1.12-3.22-3.02-.25-1.01-.61-1.82.15-2.24,1.71,1.2,2.2,3.43,3.08,5.26Z" fill="#eab957"/><path d="M108.01,219.33c-.46,0-1.03.13-1.58-.06-.74-.26-.74-1.22-.58-1.94.36.33,1.63-.04,1.98.68.2.41.37.84.19,1.32Z" fill="#eab957"/><path d="M98.68,204.62c-1.11.68-2.54-.81-.91-1.38.78-.27.89.84.91,1.38Z" fill="#eab957"/><path d="M103.88,215.43c-1.08-.22-1.75-1.03-1.85-2.11,1.18.09,1.19,1.52,1.85,2.11Z" fill="#eab957"/><path d="M144.87,76.31c.98.25,2.47-.11,3.02.92-16.24,6.61-19.85,21.5-20.74,21.97-2.02,1.06-11.79-15.16-27.19-14.74,1.38-1.26-4.92-.52-4.25-2.94,6.55-.29,13.15,1.58,19.28,4.01,4.36,1.73,7,6.11,11.22,9.4,3.51-9.23,10.35-15.25,18.67-18.62Z" fill="#5e3110"/><path d="M52.6,148.31c-4.66-2.33-8.68-3.8-13.9-4.6,4.94-2.36,11.15-.83,13.9,4.6Z" fill="#6f3608"/><path d="M45.81,156.58c.08,0-6.71.04-4.94-1.03,2.23-.16,4.94-.82,4.94,1.03Z" fill="#eab957"/><path d="M215.84,140.56c-4.59.13-8.41.5-12.16,3.96-1.4-.95-.42-1.94.41-2.81,5.92-6.24,15.63-1.26,11.75-1.15Z" fill="#6f3608"/><path d="M188.78,166.39c-.11-.73-.27-1.94.75-1.98.04.39.23.83.19,1.38s-.36.71-.93.6Z" fill="#f1cc79"/><path d="M91.84,84.68c-8.48,3.32-15.61,10-17.37,19.51-1.56,8.45,1.43,16.97,7.16,22.15,14.92,13.49,35.38,2.7,36.63-4.16,1.23-6.76,2.19-14.2,10.8-15.55,3.99-.63,8.34,1.37,10.75,4.29,2.6,3.15,3.82,7.19,3.05,11.14l-.96.22c-.19-.33-.71-.95-1.14-.94-.26-5.4-3.14-11.65-9.83-12.15-2.95-.22-5.26.93-6.23,3.14-2.78,2.11-4.66,5.07-2,8.07,1,1.12,2.07,2.23,3.25,3.15-.12.53-.19,1.07-.15,1.62-1.56.62-3.14,1.51-4.87,1.33-3.36-.36-8.35,10.31-26.12,8.6-12.26-1.18-21.35-10.41-23.17-22.33-1.36-8.95,1.73-16.71,7.22-23.25,1.48-1.33,3.75-2.2,4.97-3.92,6.53-.58.74-.72,7.99-.92Z" fill="#5e3110"/><path d="M136.86,120.31c1.31.17,2.53,1.04,3.91,1.02.42,0,.95.61,1.14.94.35.61.51,1.31.68,1.98-2.13.18-4.29.23-6.54-.95-1.12,4.32,4.9,5.43-.2,12.85-.33,0-.67.04-1,.08-1.66.21-3.34.22-5.01.07-4.5-1.69-8.16-4.98-8.9-9.83,1.73.18,3.31-.71,4.87-1.33,1.07-.12,4.19,5.12,5.73,2.85.76-1.12.2-3.89-.89-4l-4.68-.47c-1.18-.92-2.25-2.03-3.25-3.15,4.71-.62,9.44-.69,14.15-.08ZM132.29,131.93l-7.54-4.41c1.63,4.26,5.67,6.34,9.23,5.92,1.31-2.01.57-2.22-1.69-1.51Z" fill="#6f3608"/><path d="M142.58,124.26c7.76,4.7,16.01,3.85,24.24.97-3.01,4.79-18.27,4.57-21.37,2.54-1.78-1.17-4.35-2.03-6.13-1.05-.62,1.7.03,9.51-3.49,9.45,5.11-7.42-.92-8.53.2-12.85,2.25,1.18,4.41,1.13,6.54.95Z" fill="#eab957"/><path d="M134.84,136.25c.04.73.35,2.03-.83,2.19-2.31.33-3.82-.46-4.18-2.12,1.67.15,3.35.14,5.01-.07Z" fill="#eab957"/><path d="M142.86,122.06c.77-3.94-.45-7.99-3.05-11.14-2.41-2.92-6.76-4.91-10.75-4.29-8.61,1.35-9.56,8.79-10.8,15.55-1.25,6.86-21.71,17.65-36.63,4.16-5.73-5.18-8.72-13.7-7.16-22.15,1.76-9.52,8.89-16.2,17.37-19.51l8.11-.22c15.41-.42,25.18,15.8,27.19,14.74.9-.47,4.51-15.36,20.74-21.97,6.68-2.72,14.05-1.35,20.32,2.82,11.07,7.35,14.38,22.31,7.07,33.68-7.2,11.2-20.93,13.52-32.41,8.33ZM163.48,99.74c0-7.34-5.95-13.29-13.29-13.29s-13.29,5.95-13.29,13.29,5.95,13.29,13.29,13.29,13.29-5.95,13.29-13.29ZM116.05,106.94c0-7.33-5.95-13.28-13.28-13.28s-13.28,5.95-13.28,13.28,5.95,13.28,13.28,13.28,13.28-5.95,13.28-13.28Z" fill="#f7f9f5"/><circle cx="182.34" cy="89.92" r=".5" fill="#f2bd41"/><path d="M136.86,120.31c-4.71-.61-9.44-.54-14.15.08-2.67-3-.78-5.96,2-8.07,3.27-2.49,7.38-2.87,10.79.42,1.6,1.55,3.37,3.29,3.2,5.74-.23.82-1.51,1.23-1.83,1.82Z" fill="#d49438"/><path d="M140.77,121.33c-1.37.02-2.59-.85-3.91-1.02.33-.59,1.6-1.01,1.83-1.82.17-2.46-1.59-4.2-3.2-5.74-3.41-3.29-7.52-2.9-10.79-.42.97-2.22,3.28-3.36,6.23-3.14,6.69.5,9.57,6.75,9.83,12.15Z" fill="#eab957"/><path d="M125.81,125.17c-.03-.54.03-1.09.15-1.62l4.68.47c1.09.11,1.65,2.88.89,4-1.53,2.26-4.65-2.97-5.73-2.85Z" fill="#cc903e"/><path d="M132.29,131.93c2.26-.72,3-.5,1.69,1.51-3.56.42-7.61-1.66-9.23-5.92l7.54,4.41Z" fill="#cc903e"/><path d="M116.05,106.94c0,7.33-5.95,13.28-13.28,13.28s-13.28-5.95-13.28-13.28,5.95-13.28,13.28-13.28,13.28,5.95,13.28,13.28ZM94.99,106.14c-.62,2.41.38,4.76,2.59,6.54,3.05,2.46,7.61,3.31,10.38-.04.08-.11.15-.45.38-1.06,1.9-.6,2.6-2.85,2.46-5.19-.33-5.34-5.46-8.32-10.9-6.88-1.65.44-3.88-.9-5.16,1.27-.78,1.32-.92,3.22.25,5.36Z" fill="#48b5a0"/><path d="M163.48,99.74c0,7.34-5.95,13.29-13.29,13.29s-13.29-5.95-13.29-13.29,5.95-13.29,13.29-13.29,13.29,5.95,13.29,13.29ZM142.65,99.33c-1.67,2.49.62,5.21,2.17,6.7,2.38,2.29,5.19,2.39,8.2,1.56,2.37-.65,3.66-2.17,4.45-4.44,1.1-3.18.98-6.23-1.29-8.63-1.86-1.97-4.8-3.32-8.53-1.92-1.13.43-3.01-.65-4.42.32-1.99,1.37-1.83,4.27-.58,6.4Z" fill="#48b5a0"/><path d="M108.34,111.58c.14-.8-.28-1.67-1.02-2.16-.5-.33-1.47-.07-1.52.86-.06,1.21-.05,1.83.52,2.15.53.3,1.07.48,1.63.21-2.76,3.35-7.33,2.49-10.38.04-2.21-1.78-3.21-4.13-2.59-6.54,1.32.04,2.88.45,4.44-.31,1.22-.6,1.85-1.83,1.96-3.02.1-1.11-.78-2.29-1.49-3.3,5.44-1.44,10.57,1.54,10.9,6.88.15,2.35-.56,4.59-2.46,5.19Z" fill="#1b6056"/><path d="M99.9,99.51c.71,1.01,1.6,2.19,1.49,3.3-.11,1.19-.74,2.42-1.96,3.02-1.56.76-3.12.35-4.44.31-1.17-2.14-1.03-4.05-.25-5.36,1.28-2.17,3.51-.83,5.16-1.27Z" fill="#f6f2eb"/><path d="M108.34,111.58c-.23.61-.3.95-.38,1.06-.56.27-1.11.09-1.63-.21-.57-.32-.58-.94-.52-2.15.05-.94,1.01-1.2,1.52-.86.74.49,1.16,1.36,1.02,2.16Z" fill="#c5d4d4"/><path d="M142.65,99.33c1.56.03,3.79.52,5.24-.85,1.87-1.78.68-4.16-.24-5.87,3.73-1.4,6.67-.06,8.53,1.92,2.26,2.4,2.39,5.44,1.29,8.63-.79,2.27-2.08,3.79-4.45,4.44-3,.83-5.82.72-8.2-1.56-1.55-1.49-3.84-4.21-2.17-6.7Z" fill="#1b6056"/><path d="M147.65,92.61c.92,1.71,2.11,4.09.24,5.87-1.44,1.37-3.67.89-5.24.85-1.26-2.14-1.42-5.04.58-6.4,1.41-.97,3.29.11,4.42-.32Z" fill="#f7f9f5"/></svg>