<?xml version="1.0" encoding="UTF-8"?><svg id="Layer_1" xmlns="http://www.w3.org/2000/svg" viewBox="0 0 340.16 255.12"><path d="M70.18,218.62c-.99.08-2.01.01-3,0-.15-.97.76-1.07,1.5-1.07s1.65.1,1.5,1.07Z" fill="#653511"/><path d="M235.16,133.56l1.09,4.22c-5.4.96-2.86-3.7-7.59-3.33-1.58.13-2.08,1.37-3.21,2.79s-2.91.08-3.77-1.62c-2.4,2.45-5.45,3.32-8.27,2.02-3.01-1.39-4.24-4.43-3.99-8.05.2-2.95,1.31-5.54,3.39-6.67,2.42-1.32,5.34-1.51,7.55.44.92.81,1.12,1.72.74,2.47-1.08,2.13-4.36-1.98-6.9.41-.8.75-1.16,1.77-1.28,3.44-.18,2.41,1.2,6.03,4.02,5.01,2.14-.77,4.04-.75,5.97-.05l4.26-10.99c.49-1.27,1.44-1.6,2.44-1.54,2.06.13,5.37,10.78,5.54,11.45ZM230.84,131.55c-1.02-1.99,0-3.23-1.77-4.48l-1.97,4.36c1.75.34,2.57.23,3.74.11Z" fill="#623920"/><path d="M297.83,136.31c0,1.67-1.57,1.63-2.17,1.51-.78-.15-1.45-.67-2-1.56l-4.11-6.75c-1.17,3.1.25,5.42-.81,7.78-.32.7-2.67.53-2.93-.15-.11-4.36-.57-9.53.16-14.09.25-1.61,2.66-.79,3.43.26,1.68,2.3,2.63,4.49,4.58,6.64,2.06-4.31-1.11-7.92,2.69-7.69.85.05,1.22,1.03,1.21,2.31l-.07,11.74Z" fill="#623920"/><path d="M280.79,136.83c-2.12,1.96-5.96,1.76-7.98.11-4.28-3.49-4.1-10.12-.07-13.64,1.75-1.52,4.27-1.61,6.42-1.01,1.45.4,3.09,2.02,3.94,4.26,1.24,3.28.71,7.49-2.3,10.28ZM279.51,133.04c.82-1.9.83-3.86.17-5.8-.73-1.37-1.81-2.01-3-2.01s-2.25.66-2.98,2.02c-.69,1.93-.66,3.89.17,5.78.59,1.34,1.73,1.89,2.81,1.88s2.26-.52,2.84-1.86Z" fill="#5a341b"/><path d="M239.05,137.28c-.73-1.44-1.14-3.18-2.64-4,1.55-2.4-.59-10.96,2.25-11.1.49-.02,1.82-.09,1.85.85l.29,9.56c.05,1.73,1.66,2.53,2.88,2.31.86-.16,1.95-.87,1.98-2.28l.2-9.57c.02-.94,1.27-.82,1.82-.81,2.26.01,1.62,7.18,1.45,10.37-.22,4.07-3.81,6.47-7.61,5.34-.99-.29-1.83-.8-2.47-.68Z" fill="#5a341b"/><path d="M258.51,125.88c-1.33,2.4,2.39,14.38-3.34,11.62-.78-3.64.12-7.4-.49-11.29-.14-.91-1.96-.86-2.83-1.26s-.67-2.29.12-2.47c2.52-.58,5.21-.17,8.18-.32,1.03.11,1.36.12,1.64.4.3.3.98,1.52.3,2.27-.6.66-2.83.04-3.59,1.07Z" fill="#5a341b"/><rect x="264.15" y="122.31" width="3.42" height="15.58" transform="translate(-.34 .7) rotate(-.15)" fill="#5a341b"/><path d="M304.45,122.95c.15,1.46.1,10.05-1.79,10-2.11-.06-1.98-8.32-1.64-10.04.26-1.34,3.29-1.29,3.42.04Z" fill="#623920"/><circle cx="302.55" cy="136.12" r="1.82" fill="#493d24"/><path d="M239.05,137.28l-2.81.5-1.09-4.22,1.25-.28c1.5.82,1.91,2.55,2.64,4Z" fill="#f7efd8"/><path d="M204.99,127.62c-.54.13-.74-.24-.82-.56-.18-.69.13-1.71.92-1.44l-.1,2Z" fill="#5e3110"/><path d="M230.84,131.55c-1.16.12-1.99.23-3.74-.11l1.97-4.36c1.78,1.24.75,2.49,1.77,4.48Z" fill="#dec6a3"/><path d="M279.51,133.04c-.58,1.34-1.77,1.85-2.84,1.86s-2.22-.53-2.81-1.88c-.83-1.89-.86-3.85-.17-5.78.74-1.36,1.81-2.01,2.98-2.02s2.27.64,3,2.01c.67,1.94.66,3.9-.17,5.8Z" fill="#f7efd8"/><path d="M277.61,113.68l-40.41.07c-2.53,0-4.61-1.05-5.62-2.79s-1.23-3.99,0-6.09l19.88-33.96c1.25-2.14,3.2-3.25,5.24-3.31,2.49-.07,4.41,1.17,5.83,3.6l19.44,33.37c.98,1.68,1.38,4.35.62,5.89-.61,1.23-2.21,3.23-4.97,3.23ZM278.18,109.62c.48-.11,2.11-.86,1.71-1.63-2.68-5.15-5.27-9.9-8.17-14.85l-12.18-20.79c-.56-.96-1.38-1.52-2.07-1.69-3.26-.79-6.06,6.75-8.14,10.29l-7.34,12.51-7.3,12.75c-.51.89-.48,1.98-.33,2.78.17.89,1.37,1.37,2.82,1.38l40.99-.74Z" fill="#653511"/><path d="M278.18,109.62c1.17-3.68-4.09-7.59-5.16-10.51-.99-2.7-6.96-14.28-10.15-15.77-1.47,4.09-1.53,8.2-2.64,12.53-.35,1.36-1.67,3.04-.56,4.28,1.17,1.3,2.76,2.34,2.26,4.55-.28,1.27-1.02.9-1.73,1.01-.41-1.38.03-3.6-1.48-4.73-1.32-.99-3.05-.33-4.17-.27.36-1.65-.51-3.31-.86-5.27l-2.34-12.99c-2.53,3.21-5.27,6.21-7.41,9.87-1.3,2.22-1.71,4.8-3.34,6.9-1.21,1.56-5.24,7.72-4.52,9.06.24.45.92.92,2.07.87l17.05-.87c-1.26-1.13-2.35-1.22-2.62-2.33-.22-.86-.41-1.92.71-2.32.72.93,1.37,2.96,2.95,2.72l3.98-.62c.2.68-.05,1.54.32,2.44,3.53.9,6.93.16,10.62.57,2.56.29,4.78,1.42,7.02.91l-40.99.74c-1.45,0-2.65-.49-2.82-1.38-.16-.8-.18-1.88.33-2.78l7.3-12.75,7.34-12.51c2.08-3.55,4.88-11.09,8.14-10.29.69.17,1.51.73,2.07,1.69l12.18,20.79c2.9,4.94,5.49,9.7,8.17,14.85.4.77-1.23,1.51-1.71,1.63ZM259.73,81.94c-.63-1.72-3.29-1.53-4.6-.79-3.65,2.05,0,21.47,3.09,16.8.81-1.23,3.09-11.68,1.51-16.01Z" fill="#eab957"/><path d="M278.18,109.62c-2.24.51-4.46-.62-7.02-.91-3.69-.41-7.1.33-10.62-.57-.37-.9-.12-1.76-.32-2.44.71-.11,1.44.26,1.73-1.01.5-2.21-1.09-3.25-2.26-4.55s.21-2.92.56-4.28c1.11-4.33,1.17-8.44,2.64-12.53,3.18,1.49,9.16,13.07,10.15,15.77,1.07,2.92,6.32,6.83,5.16,10.51Z" fill="#f3be3f"/><path d="M254.56,100.7l-.22.99c-.52.02-.97.41-1,.93l-.05.99c-1.12.39-.93,1.46-.71,2.32.28,1.11,1.36,1.19,2.62,2.33l-17.05.87c-1.15.06-1.83-.42-2.07-.87-.72-1.35,3.31-7.51,4.52-9.06,1.63-2.09,2.04-4.67,3.34-6.9,2.14-3.66,4.88-6.66,7.41-9.87l2.34,12.99c.35,1.97,1.22,3.63.86,5.27Z" fill="#f3be3f"/><path d="M259.73,81.94c1.58,4.33-.7,14.78-1.51,16.01-3.08,4.67-6.74-14.76-3.09-16.8,1.32-.74,3.97-.93,4.6.79Z" fill="#6f3608"/><path d="M260.21,105.7l-3.98.62c-1.58.25-2.23-1.79-2.95-2.72l.05-.99c.54-.02.89-.42,1-.93l.22-.99c1.12-.06,2.86-.72,4.17.27,1.51,1.13,1.07,3.35,1.48,4.73Z" fill="#6f3608"/><path d="M253.34,102.62c.03-.52.48-.91,1-.93-.11.51-.46.91-1,.93Z" fill="#eab957"/><path d="M92.92,190.37c1.95-5.63,1.07-11.33,1.13-16.77-.97-1.58-1.14-3.4-.74-5.18.19-.85-.16-1.8-.16-2.65-.58-.38-1.25-1.01-1.97-1.06-.06,1.12-.83.96-1.02-.07-6.65-3.01-13.62-5.39-19.33-10.63-1.52-1.39-2.91-2.79-4.58-3.39-1.63-.59-3.32-1.11-5.06-.9-7.22,5.02-7.33,15.87-9.4,17.6-10.09,8.47-22.04,23.44-12.87,36.55,7.36,10.52,16.48,9.39,16.25,10.75-.05.29-.05.58-.13.86.03,0,.06.02.09.03,2.79-3.35,8.14,1.61,9.1-1.81-2.56-1.31-5.64-1.4-8.82-2.16-10-2.39-18.95-11.49-16.07-20.94,2.06-12.75,16.18-23.69,27.8-29.07,1.54-.71,2.65-.13,3.76.11,3.21.7,6.93,6.16,7.45,8.98-.01.32.16.68.1,1,1.55,1.09,1.57,3.28,1.71,5,.48.33,1,.81,1.02,1.49.02.7-.67,1.12-1.02,1.51v4c1.56,1.27.95,3.38.81,5.15.28.11.27,1.07.74,1.32,4.32,2.31,6.38,6.28,9.57,9.35.65-.11,1.27-.37,1.72-.86-1.14-2.62-1.13-5.25-.1-8.22ZM56.38,164.05c.75-5.62,3.63-9.47,7.44-12.6,2.02,2.03,3.1,2.6,5.48,5.75-4.52,1.58-8,4.29-12.91,6.85ZM89.36,191.66l-6.22-4.49c.95-11.79-1.72-14.16-3.61-23.41,3.1,1.6,8.01,1.9,9.53,4.83,3.59,6.94,3.08,15.26.3,23.06Z" fill="#5a341b"/><path d="M94.99,200.39l-1.97-1.79c-.45.49-1.07.75-1.72.86-.4,2.68,1.85,4.31-.14,5.1.03.24-.02.5.03.74.27,1.4.2,4.18-1.78,4.09-1.01-.44-1.26-2.64-2.22-2.89.04.86-.37,2.41-.11,3.19.55,1.65.51,6.06-1.82,6.3-6.47.66-12.45-.07-19.06-.22.11-1.46,1.48-1.12,2-1.74-1.92-1.02-2.9-.36-3.95-.34-.96,3.43-6.31-1.53-9.1,1.81.6.19,1.19.49,1.75.94.85.68,1.88,1.43,3.03,2.2,2.42,0,4.84-.06,7.26-.02-.15-.97.76-1.07,1.5-1.07s1.65.1,1.5,1.07c2.8-.21,15.56,0,19,0l1.02-2.13c-.7-.82,3.78-6.54,4.69-7.91-.33-2.71-.11-5.49.09-8.2Z" fill="#6f3608"/><path d="M95.21,216.6l-5.01-.11-1.02,2.13h4.52c.35-.76.86-1.46,1.52-2.02Z" fill="#653511"/><path d="M188.04,194.62c-1.6-.98-1.33-3.46-1.65-5.1-.25-1.02-.9-1.91-1.22-2.91-.42-1.32-.73-2.7-.74-4.08,0-.36-.09-.76-.18-1.12l-2.06.25,1.58,6.4c2.26,9.14,6.02,17.6,3.49,27.81.22.27.41.55.56.86.97-.34,2.02-.4,3-.23.26-.18.53-.33.82-.46-.17-.11-.33-.25-.46-.44-.27-.37-1.12-.13-1.02-.98.12-1.06.63-2.15,1.06-3.07-.42-2.31-.15-4.63-.08-6.95.03-1.01.52-2.03.67-3.35,1.2-10.33,0-20.37-3.07-30.27-.41-1.32-.52-2.44-.43-3.44-.47-2.27-2.56-3.62-4.33-4.96.79,3.64,2.8,7.22,3.13,11.27l.3,3.75c-.31-3.85,4.61,19.44.62,17.01Z" fill="#653511"/><path d="M204.13,74.64l-1.1,1.04c-3.59-.3-3.9,3.84-6.16,4.6-2.1.7-3.79,1.75-4.54,3.52-.21.51.04,1.21-.1,1.75-.29.03-.71.33-.76.75,1.64,1.85,6.71,9.62,5.6,11.29-3.01-2.69-1.33-2.97-6.75-9.82-2.5-3.16-8.21.9-16.17,1.11,2.45,2.25,5.93,2.96,8.33,4.76,14.67,12.49,16.44,32.85,4.47,47.9-2.05.94-6.68,5.79-9.76,6.89-4.07,1.46-9.54,4.17-15.02,3.69l-7-.62c-2.65-.24-4.79-1.74-7-2.05-.4-.06-.79-.21-1.19-.23-1.6-1.3-5.15-4.66-6.81-2.5l-3.06-.13c-.21-.38-.5-.7-.85-.96-.79-.59-1.7-1.1-2.17-2,1.66-1.13,3.87-1.08,5.45-2.53,2.36-2.15.06-6.64-2.25-7.62-.93-2.93-4.72-4.32-7.62-4.51s-6.18,1.6-7.47,3.69c-.21.25-.64.78-.94.93-.83.31-1.08,1.27-1.27,1.97-1.71,1.34-1.69,3.98-1.68,6.07,0,1.32-.67,2.73-.4,4.07-3.4,1.6-9.01,5.52-13.74,5.8s-9.56,1.33-13.84-.05l-6.16-1.98c-.28-.09-.71-.16-1-.08-4.6-2.72-2.78-1.7-7.01-4.75-14.46-10.43-15.8-33.39-5.47-45.49,1.56-1.83,6.77-6.24,7.48-6.52,2.06-.78,3.78-2.3,5.93-2.86,3.45.37,7.08-.18,10.06-1.99,6.42,1.79,13.41,2.92,19.65,6.47,1.57.89,2.68,2.37,4.26,2.51,1.08,2.48,3.61,1.17,6.49,6.49.67,1.23,1.47,2.17,2.52,2.43-.01.26.11.58.2.83.48,1.41,1.02,2.88,2.34,3.77,1.27-1.24,1.31-2.79,1.55-3.9,14.15-15.79,24.18-18.22,45.8-21.01,8.66-1.11,20.88-4.7,24.31-12.63.68-1.56,3.69-2.7,3.06-5.2,2.72.54-.48,5.27-.24,7.1ZM186.14,136.97c6.81-8.77,7.56-20.31,2.85-30.14-4.01-8.36-13.28-15.96-23.79-16.11-6.09-.09-11.88,2.5-17,5.02-13.38,6.56-16.16,18.81-18.55,19.3-2.91.6-4.58-12.01-19.56-19.41-12.94-6.39-22.15-8.01-34,2.9-13.09,12.06-11.96,32.31,1.7,43.62,11.08,9.17,26.94,9.23,38.31.76-2.88-7.59,5.6-16.46,12.28-16.75,9.27-.4,16.13,7.83,14.98,16.98,13.63,10.02,32.18,7.49,42.79-6.16Z" fill="#653511"/><path d="M173.18,61.35c.96.05,1.95.6,3.01-.17.45-.33.88-.97.99-1.72.38-.03.93-.21,1.28-.39l3.81.59c-1.45.58-2.51,1.82-4.46,2.53l-16.29,5.89c-6.51,2.36-12.66,6-17.57,10.48l-1.7-1.11c2.15-3.67,6.2-5.57,9.91-8.6,2.12-1.73,5.21-1.03,8.42-4.39-19.93-8.74-43.67-8.68-63.55.46,1.62,1.13,3.22.72,4.11,2.43-.43.35-.78.78-.98,1.3-6.49-1.56-12.74-4.23-19.39-6.68-16.72-6.17-20.72-17.03-22.8-17.25-.03-1.9-1.7-3.98-3.17-5.01-1.83,6.81-1.05,13.1,1.37,18.9.21.5.26,1.38,1.05,1.08.01.28.04.64-.04.9-.23.53-.59,1.02-.55,1.62-5.88-2.37-8.54-24.93-1.95-25.61,1.43-.15,2.61.53,3.38,1.95,6.29,11.57,16.64,19.44,29.48,22.69,1.86.47,4.41,2.59,6.6,1.59,21.38-9.68,45.64-10.5,67.29-1.33,7.47,3.17,6.83-.45,11.74-.18Z" fill="#653511"/><path d="M226.3,166.78c.15.57-.05,1.28.18,1.82.41.97.73,1.98.57,3.05-2.53-1.56-5.15-1.04-7.28,1.8-1.1,1.46.05,3.2,1.17,4.17-.09,1.61-.3,3.35.06,4.93-5.6,4.09-9.75,1.15-9.26,3.59.63,3.17,9.7,2.31,11.44-1.56,1.06-.14,1.82-.8,2.08-1.81,1.62-.11,1.96-3.66,3.61-4.2l1.45.06c.66.1,1.28.41,1.46.87.26.7.2,1.63.14,2.16-.73-.82-5.77,5.78-6.65,6.72-.36-.03-.73.04-1.09.08l-2.01,1.3c-1.37.44-3.73.49-4.65,2.17-.86,1.59.87,3.73,2.6,4.04,2.36.42,4.43.27,6.17-.4-1.69,1.53-2.61,3.56-2.28,5.83-.63,1.13-1.48,2.42-2.65,3.31-1.2.09-3.25-.29-4.06.84l-.95-.15c1.37-1.7,6.69-5.56,5.6-6.18-.9-.51-6.57-.08-7.2-5.04-.32-2.55-2.45-5.27-5.16-4.19-.97.39-.96,2.16-1.34,2.56-1.18.12-2.22.82-3.51.8-.09-1.63.83-2.56,1.58-3.69,4.51-6.88-4.25-8.08-2.07-10.6,2.36,1.26,4.86,1.38,6.92,1.89s4.6,1.81,7.05-.65c-2.58-5.26-6.36-9.89-12.1-10.95.26-1.39,1.62-2.05,2.97-2.09,1.37.46,2.69,1.07,4.1,1.36.8.97,2.94,3.71,4.51,2.7,3.7-2.37,5.42-6.36,8.48-8.76.26,1.41-1.5,3.1.1,4.21Z" fill="#6f3608"/><path d="M56.59,63.27c.48.1.84.16,1.1.34.36.27.44,1.24-.13,1.63-.87.59-2.19.36-3.14.72-.71.27-1.03.81-1.13,1.53-.23,1.64-.26,3.45.84,5.25.56.93,1.61.74,2.26.8.45.05.72.6.85.96.49,1.42,1.57,2.58,2.98,3.13,1.12.43,2.07,1.09,2.82,2.03.26.33.88.86,1.32.86,1.85.01,3.18,1.69,4.86,2.12.27,1.01.38,2.05.17,3.08-1.01,1.02-1.78,2.27-2.07,3.69-6.83,6.64-10.41,21.33-10.96,31.42-.27,4.93,1.02,9.41,1.79,13.84,1.36,7.84,4.3,10.16,8.1,15.93-1.63-.59-3.32-1.11-5.06-.9.04-.95-.25-1.98-.79-3.17-12.96-17.34-6.81-45.58,6.14-61.8-8.16-3.94-14.22-9.71-16.27-18.11-.37-1.52.7-3.36,2.04-3.34,1.66.03,3,.44,4.27-.02Z" fill="#653511"/><path d="M204.95,129.42c.41,1.13-.56,2.07-.84,3.44-4.38,21.25-20.73,25.55-18.15,27.94,3.66,3.38,6.81,6.18,10.43,10.47,2.07-3.39,5.46-3.72,8.07-5.54,6.16-4.29,20.22-22.88,26.9-17.73,5.04,3.88-1.46,15.27-5.06,18.77-1.6-1.11.16-2.8-.1-4.21,1.08-1.78,2.17-4.12,3.09-6.04.63-1.32,1.64-4.87-.09-6.47-2.23-2.06-14.19,10.1-16.89,12.55-1.57,1.43-3.41,2.65-3.22,4.65-1.34.04-2.71.7-2.97,2.09-5.17-.02-3.81,1.74-6.95,3.19l-4.83.26-6.03-5.26c-.47-2.27-2.56-3.62-4.33-4.96-.79-.6-1.88-.71-2.8-.99,2.23-2.47,5.6-2.52,7.01-6.84.23-.72,1.08-2.05,1.98-2.04,2.23.04,2.65-1.34,3.08-3.13,1.53-3.2,6.25-8.27,6.01-12.11.43-.41.87-1.03.87-1.69,2.03-.13,3.5-1.66,3.25-4.23-.07-.78.06-1.4.35-1.96.18-.35.74-.57,1.21-.18Z" fill="#5e3110"/><path d="M204.13,74.64c-.24-1.83,2.96-6.57.24-7.1-.23-.61-.87-.7-1.37-.96-1.63-.84-2.57-2.45-3.8-3.77.85-.63.88-2.28,1.18-3.17,1.74-1.03,2.28-3.1,2.76-4.95.4-.54,1.3-1.16,1.14-2.06-.06-.32,0-.67.01-1,1.46-.45.7-2.28.48-3.35-.11-.53.17-1.12.24-1.64,1.11.22,1.25-.6,1.24-1.51,0-.85-.08-1.72-1.2-1.49-.08-.65-.32-1.34-.21-2.01s-.1-.98-.77-.93c-.2-.11-.28-.71-.53-.83-.78-.35-.84.69-1.18.83-.59.24-.82.48-1.1,1.06-3.2,6.46-7.85,13.48-14.6,16.17l-4.35,1.74-3.81-.59c8.77-4.58,16.24-10.85,21.25-19.86.9-1.61,2.43-2.94,4.4-2.73,0,2.24,2.38,2.86,2.77,4.3,2.15,8-.56,15.79-4.86,22.71,2.25.44,4.44-1.28,5.48.45,1.77,2.97-1.61,9.03-3.37,10.69Z" fill="#5e3110"/><path d="M224.03,201.41c-.33-2.27.59-4.31,2.28-5.83,1.84-.7,2.99-2.25,3.96-3.81,1.2-1.92,1.71,1.28,2.68-7.15.1-.84.02-1.62-.92-1.94.01-.33-.15-.69-.11-1.02.06-.53.12-1.46-.14-2.16-.17-.46-.79-.76-1.46-.87-.13-1.47.11-3.02-.19-4.99-.17-1.12-1.59-.95-2.2-.95-.55,0-.96-.54-.88-1.05.16-1.07-.16-2.08-.57-3.05,2.16.19,4.37,2.33,4.67,4.83.38,3.2,1.81,5.06,3.37,7.62,3.58,5.88-.04,13-5.51,16.24-2.16,1.28-3.13,3.22-4.99,4.11Z" fill="#5e3110"/><path d="M205.01,122.73c-1.47-.04-1.35-2.67-2.73-3.16-.1-2.33-.72-4.61-.4-6.95.05-.38-.03-1.4-.72-1.09-.16-.96-.21-1.93-.23-2.91,0-.38-.04-1.44-.75-1.03-.04-.63-.14-1.26-.12-1.88.03-1.12.36-2.38.12-3.98-.17-1.14-1.26-1.61-2.06-1.17l-.06-.92c-.03-.55-.39-1.02-.96-1.05-.08-.31.02-.68-.03-1,1.11-1.67-3.96-9.44-5.6-11.29.05-.42.47-.72.76-.75,7.64,8.82,14.07,25.91,12.79,37.18Z" fill="#5e3110"/><path d="M221.38,204.72l-3.52,2.68c-9.73,7.4-16.73,7.04-26.68,7.22l-1.02.02c.12-1.06.63-2.15,1.06-3.07h1.88c-.26.91.79,1,1.07.24.97.24,2.05-.02,3,0,.39.22.75.99,1.46.62.49-.26,1.08-.2.73-.82l3.74-.13c.4-.01.86.1,1.46-.01.4-.07.78-.32.62-.94l7.85-2.98c1.63-.62,3.73.39,4.29-1.98.81-1.13,2.87-.75,4.06-.84Z" fill="#5e3110"/><path d="M64.9,70.6c-.87-.07-1.88.5-2.72.19l-1.01-.37-.93-.13c-1.35-1.77-4.82-2.56-5.82-4.32.95-.37,2.27-.13,3.14-.72.58-.39.49-1.36.13-1.63-.26-.19-.62-.25-1.1-.34,0-.35.06-.7.04-1.05-.04-.6.32-1.1.55-1.62.25-1.4,8.01,9.79,7.72,10Z" fill="#6f3608"/><path d="M205.01,122.73c-.11.96.13,1.94.08,2.89-.79-.27-1.11.75-.92,1.44.08.32.28.69.82.56-.03.56-.24,1.26-.04,1.8-.47-.39-1.03-.16-1.21.18-.29.55-.42,1.17-.35,1.96.24,2.57-1.23,4.1-3.25,4.23,0-.39.02-.8.16-1.17,1.8-4.79,2.18-9.96,1.97-15.05,1.38.49,1.26,3.12,2.73,3.16Z" fill="#653511"/><path d="M203.02,75.69c-.49,3.08-7.94,7.37-10.7,8.12.75-1.76,2.44-2.81,4.54-3.52,2.26-.76,2.57-4.9,6.16-4.6Z" fill="#5e3110"/><path d="M177.18,59.46c-.11.75-.53,1.4-.99,1.72-1.06.76-2.06.22-3.01.17.52-1.67,2.47-1.79,4-1.89Z" fill="#5e3110"/><path d="M191.18,215.62c-.27-.37-1.12-.13-1.02-.98l1.02-.02v1Z" fill="#693f25"/><path d="M70.88,162.6c6.3,4.29,4.03,4.61,7.49,8.02-.01.32.16.68.1,1-1.23,7,1.9,6.27.35,10.89-4.49-1.41-13.01-4.38-15.54-2.16-.4.35-.77,1.62-.98,1.83s1.14.3,1.18.43c.17.24.7.55.72.86.19,2.71,8.85,2.02,18.87,9.11,1.97,1.4,3.36,3.47,4.92,5.18,3.86,4.24,1.03,7.72,3.18,6.78.03.24-.02.5.03.74l-4.98-.65c.02,1.05.77,1.34.98,1.86.04.86-.37,2.41-.11,3.19-6.6,2.28-13.37,2.51-20.54.67-13.13-3.37-21.9-5.73-25.74-19.73,1.7-9.25,14.22-18.2,22.01-23.46,2.72-1.84,4.81-4.77,8.08-4.57Z" fill="#f3be3f"/><path d="M199.26,137.49c.24,3.84-4.48,8.91-6.01,12.11-1.46.51-2.55,1.7-3.08,3.13-.9-.02-1.74,1.32-1.98,2.04-1.41.1-2.44,1.14-3.85,2.05-23.72,15.41-52.67,14.76-79.14,11.95-3.85-.39-7.94-3.38-12.05-3-.58-.38-1.25-1.01-1.97-1.06l-1.02-.07c-6.65-3.01-13.62-5.39-19.33-10.63-1.52-1.39-2.91-2.79-4.58-3.39-3.81-5.76-6.75-8.08-8.1-15.93,4.04,1.29,3.58,8.18,12.28,13.69,7.02,8.09,25.45,13.43,35.83,15.14,10.71,1.76,21.31,2.08,32.08,1.51s29.15-3.86,38.6-8.77c9.32-4.84,12.59-7.29,19.23-15.68,1.06-1.33,1.33-3.25,3.09-3.09Z" fill="#d49438"/><path d="M40.79,190.63c3.84,14,12.61,16.36,25.74,19.73,7.16,1.84,13.93,1.61,20.54-.67.55,1.65.51,6.06-1.82,6.3-6.47.66-12.45-.07-19.06-.22.11-1.46,1.48-1.12,2-1.74-1.92-1.02-2.9-.36-3.95-.34-2.56-1.31-5.64-1.4-8.82-2.16-10-2.39-18.95-11.49-16.07-20.94l1.44.03Z" fill="#d49438"/><path d="M89.36,191.66l-6.22-4.49c.95-11.79-1.72-14.16-3.61-23.41,3.1,1.6,8.01,1.9,9.53,4.83,3.59,6.94,3.08,15.26.3,23.06Z" fill="#52ae90"/><path d="M102.26,174.89c-.09.45.12,1.04-.07,1.48-4.9,11.59-4.41,11.9-7.21,24.02l-1.97-1.79c-1.14-2.62-1.13-5.25-.1-8.22,1.95-5.63,1.07-11.33,1.13-16.77,3.87-.45,4.84,1.53,8.21,1.29Z" fill="#eab957"/><path d="M70.91,161.64c-.16.31-.18.65-.03.97-3.27-.2-5.35,2.73-8.08,4.57-7.79,5.26-20.31,14.21-22.01,23.46l-1.44-.03c2.06-12.75,16.18-23.69,27.8-29.07,1.54-.71,2.65-.13,3.76.11Z" fill="#f1cc79"/><path d="M69.29,157.2c-4.52,1.58-8,4.29-12.91,6.85.75-5.62,3.63-9.47,7.44-12.6,2.02,2.03,3.1,2.6,5.48,5.75Z" fill="#52ae90"/><path d="M80.18,183.62c1.56,1.27.95,3.38.81,5.15-4.71-1.8-11.54-5.13-16.8-5.3-.02-.31-.55-.62-.72-.86.27-6.15,17.88,4.68,16.71,1Z" fill="#6f3608"/><path d="M104.07,170.61l.16.99c.22,1.4-.7,2.66-1.96,3.29-3.37.24-4.34-1.74-8.21-1.29-.97-1.58-1.14-3.4-.74-5.18,3.68.64,6.87,2.41,10.76,2.19Z" fill="#cc903e"/><path d="M80.18,176.62v7c1.17,3.68-16.45-7.15-16.71-1-.04-.13-1.38-.23-1.18-.43s.58-1.48.98-1.83c2.54-2.22,11.06.75,15.54,2.16,1.55-4.63-1.58-3.89-.35-10.89,1.55,1.09,1.57,3.28,1.71,5Z" fill="#eab957"/><path d="M80.99,188.77c.28.11.27,1.07.74,1.32,4.32,2.31,6.38,6.28,9.57,9.35-.4,2.68,1.85,4.31-.14,5.1-2.14.94.68-2.54-3.18-6.78-1.56-1.72-2.95-3.79-4.92-5.18-10.02-7.1-18.68-6.4-18.87-9.11,5.27.17,12.1,3.5,16.8,5.3Z" fill="#eab957"/><path d="M105.2,168.77c-.45.57-.82,1.19-1.14,1.84-3.88.22-7.08-1.55-10.76-2.19.19-.85-.16-1.8-.16-2.65,4.11-.37,8.2,2.61,12.05,3Z" fill="#6f3608"/><path d="M78.36,170.62c-3.46-3.41-1.18-3.73-7.49-8.02-.14-.32-.13-.66.03-.97,3.21.7,6.93,6.16,7.45,8.98Z" fill="#eab957"/><path d="M80.18,179.62v-3c.48.33,1,.81,1.02,1.49s-.67,1.12-1.02,1.51Z" fill="#6f3608"/><path d="M90.16,164.64l1.02.07c-.06,1.12-.83.96-1.02-.07Z" fill="#6f3608"/><path d="M126.92,215.53c2.42-.22,4.86-.21,7.23.07,2.98.06,5.97.15,8.98.28.04,0,.08,0,.11,0,.38-.2.79-.38,1.28-.47,3.61-.7,7.23-.74,10.86-.57,7.32-1.73,15.45-.59,22.86-.43.36-.06.72-.12,1.07-.18,3.39-10.16-2.04-33.38-7.93-41.59-1.38-.15-2.96-.13-4.63.52-16.92,6.61-36.73,6.55-54.6,4.36-3.59-.44-6.75-1.9-9.95-1.17-4.9,11.59-4.41,11.9-7.21,24.02-.2,2.7-.42,5.49-.09,8.2.28,2.32,1.28,4.51,1.28,6.88.16.09.32.17.49.25.81-.32,1.75-.45,2.78-.29,1.98.31,3.97.58,5.97.84,1.25-.17,2.52-.34,3.8-.39,5.95-.23,11.83-.35,17.71-.34Z" fill="#f7efd8"/><path d="M96.18,215.94v-.47c0-2.38-1-4.56-1.28-6.88-.91,1.37-5.39,7.08-4.69,7.91l5.01.11c.29-.25.62-.47.97-.66Z" fill="#eab957"/><path d="M91.18,205.29c.27,1.4.2,4.18-1.78,4.09-1.01-.44-1.26-2.64-2.22-2.89-.21-.52-.95-.81-.98-1.86l4.98.65Z" fill="#eab957"/><path d="M171.33,171.53l.04,1.12c5.89,8.21,11.32,31.43,7.93,41.59.81-.14,1.62-.28,2.42-.43,1.94-.37,4.28.51,5.55,2.07,2.53-10.21-1.23-18.67-3.49-27.81l-1.58-6.4-5.24-13.79c-.51-1.35-1.25-2.31-2.57-2.26.16.78,1.61,1.88,1.18,3.13-.66,1.94-3.02,1.95-4.23,2.78Z" fill="#eab957"/><path d="M216.37,205.41c-.67.83-3.59.18-3.34,2.13l-7.85,2.98c-.64.24-2.3-.11-2.08.96l-3.74.13-2.18.2c-.95-.03-2.03.23-3,0l-1.07-.23h-1.88c-.42-2.32-.15-4.64-.08-6.96l2.04.06c6.56.18,14.07-.75,18.44-6.32.22-2.14-1.86-4.95-3.36-5.8.39-.39.37-2.17,1.34-2.56,2.71-1.08,4.84,1.64,5.16,4.19.63,4.96,6.3,4.53,7.2,5.04,1.09.62-4.23,4.48-5.6,6.18Z" fill="#d49438"/><path d="M183.99,162.59c.79,3.64,2.8,7.22,3.13,11.27l.3,3.75c-.52,1.85.29,5.95-1.29,6.88-.78-.46-1.07-1.36-1.69-1.97,0-.36-.09-.76-.18-1.12-.68-2.82-4.29-15.02-6.42-16.65l.15-1.14c1.2-.46,2.56-.84,3.2-2.02.92.28,2.01.39,2.8.99Z" fill="#52ae90"/><path d="M194.35,172.81c.51,1.21.37,2.54.54,3.81-.98.07-.73,1.39-.73,2.09v2.81s0,3.17,0,3.17c-2.06,2.64-.23,5.81-.18,9.03.05,3.8-1.55,7.42-.8,10.96l-2.04-.06c.03-1.01.52-2.03.67-3.35,1.2-10.33,0-20.37-3.07-30.27-.41-1.32-.52-2.44-.43-3.44l6.03,5.26Z" fill="#eab957"/><path d="M184.26,181.42l-2.06.25-5.24-13.79c.15-1.07.03-2.32.88-3.11,2.13,1.63,5.74,13.83,6.42,16.65Z" fill="#493d24"/><path d="M188.04,194.62c.35-1.87-.26-3.79-1.65-5.1-.25-1.02-.9-1.91-1.22-2.91.91-.26,1.01-1.29.95-2.12,1.58-.93.78-5.04,1.29-6.88-.31-3.85,4.62,19.44.62,17.01Z" fill="#95918e"/><path d="M188.04,194.62c-1.6-.98-1.33-3.46-1.65-5.1,1.39,1.31,2,3.23,1.65,5.1Z" fill="#623920"/><path d="M186.13,184.5c.06.83-.04,1.86-.95,2.12-.42-1.32-.73-2.7-.74-4.08.63.61.91,1.5,1.69,1.97Z" fill="#493d24"/><path d="M186.14,136.97c-10.61,13.66-29.16,16.18-42.79,6.16,1.15-9.15-5.71-17.37-14.98-16.98-6.68.28-15.16,9.16-12.28,16.75-11.37,8.47-27.23,8.41-38.31-.76-13.66-11.31-14.79-31.56-1.7-43.62,11.84-10.91,21.06-9.29,34-2.9,14.98,7.4,16.66,20.01,19.56,19.41,2.39-.49,5.17-12.74,18.55-19.3,5.13-2.51,10.92-5.1,17-5.02,10.5.15,19.77,7.75,23.79,16.11,4.71,9.82,3.97,21.36-2.85,30.14ZM115.28,119.84c0-9.16-7.43-16.59-16.59-16.59s-16.59,7.43-16.59,16.59,7.43,16.59,16.59,16.59,16.59-7.43,16.59-16.59ZM176.84,119.93c0-9.22-7.48-16.7-16.7-16.7s-16.7,7.48-16.7,16.7,7.48,16.7,16.7,16.7,16.7-7.48,16.7-16.7Z" fill="#f7f9f5"/><path d="M197.06,97.59c.06.32-.05.69.03,1,.13.48.51.86.96,1.05l.06.92c.11,1.81.32,4.1,1.94,5.15-.02.63.08,1.26.12,1.88.03.48.16,1.05.75,1.03.02.98.08,1.94.23,2.91.08.47.11,1.06.72,1.09-.32,2.34.31,4.62.4,6.95.21,5.09-.17,10.26-1.97,15.05-1.25-.22-1.49,1.24-.16,1.17,0,.67-.44,1.28-.87,1.69-1.76-.16-2.03,1.75-3.09,3.09-6.64,8.39-9.91,10.85-19.23,15.68-9.46,4.91-27.68,8.19-38.6,8.77s-21.37.25-32.08-1.51c-10.38-1.71-28.81-7.05-35.83-15.14-8.69-5.51-8.24-12.41-12.28-13.69-.77-4.43-2.05-8.91-1.79-13.84.54-10.09,4.13-24.78,10.96-31.42,4-.15,5.96,3.38,9.86,2.19-5.72,6.86-3.87,1.72-9.49,10.47-3.37,5.25-3.03,4.43-5.02,11.91-2.08,7.85,1.48,15.34,4.67,22.29,1.01,2.21,1.61,3.25,3.51,4.75,2.63,2.06,9.31,9.11,12.32,8.34.29-.08.72,0,1,.08-.02.45-.18,1.12.04,1.61.15.33,12.88,2.57,14.9,2.47,6.49-.32,12.05-3.48,17.99-5.39,1.24.37,2.36,2.31,3.35,2.41.23.28.76.53.86.92.13.49.34.93.9,1.04.25.05.53.04.77.12.8,2.78,3.72,5.76,7.1,6.04,5.33.44,9.03-4.84,9.02-9.16.39-.26.51-1.01,1.08-1.11,2.31-.57,4.47.69,6.8.81.4.02.79.18,1.19.23.14,2.15,7.18,2.99,8.72,3.47,5.61,1.74,17.66-.26,22.43-4.29,2.25-1.9,7.63-3.62,7.63-7.08,11.97-15.06,10.2-35.42-4.47-47.9,1.08-2.75,4.02-1.41,7.84-5.87,5.42,6.85,3.73,7.13,6.75,9.82Z" fill="#f2bd41"/><path d="M201.31,72.73c-3.44,7.93-15.66,11.52-24.31,12.63-21.62,2.78-31.65,5.22-45.8,21.01-.47-1.59.03-3.24-.11-4.86.25-.29.52-.67.89-.82,4.71-1.93,4.05-4.98,10.84-8.59,14.31-12.52,42.71-7.61,54.37-17.7,1.27-.8,2.66-1.38,4.13-1.67Z" fill="#d49438"/><path d="M60.24,70.29c-.82.23-1.16,1.15-.95,1.88.19.66.69,1.56,1.51,2.12,19.72,13.47,41.11,2.55,60.29,22.4.87.9,2.46,1.29,2.05,2.58-3.01-1.73-1.7-2.21-5.05-2.51-1.58-.14-2.69-1.62-4.26-2.51-6.25-3.55-13.23-4.68-19.65-6.47l-4.96-1.38c-6.74-1.88-13.6-2.09-20-3.72-1.68-.43-3-2.11-4.86-2.12.35-.78-.89-.69-1.32-.86-.75-.94-1.7-1.6-2.82-2.03-.55-1.38-1.64-2.49-2.98-3.13-.13-.36-.4-.92-.85-.96.84,1.12-3.8-9.08-3.1-6.06.1-.72.42-1.25,1.13-1.53,1,1.76,4.47,2.55,5.82,4.32Z" fill="#d49438"/><path d="M137.3,133.46c2.31.98,4.61,5.46,2.25,7.62-1.59,1.45-3.8,1.4-5.45,2.53l-4.77,3.24c-3.57-3.29-6.98-4.92-11.02-5.24-.01-2.1-.03-4.73,1.68-6.07,1.13.15,1.33-1.09,1.27-1.97.29-.14.73-.67.94-.93,6.79-1.41,8.28-2.69,15.09.82ZM136.06,136.61c-.32-1.1-2.75-2.33-3.83-1.85-2.11.93-.51,3.29.56,3.67,1.16.41,3.83.17,3.27-1.81Z" fill="#d49438"/><path d="M134.1,143.61c.47.9,1.38,1.41,2.17,2-1.34.23-2.71,1.06-3.88,2.18-4.58,4.38-7.13-3.12-10.93-2.51,2.28,4.29,6.87,10.59,11.05,6.66,1.85-1.74,3.47-3.43,4.61-5.37l3.06.13v1.7c-.56.1-.68.85-1.07,1.11-1.88,1.24-3.15,3.26-5.11,4.86-5.62,4.61-7.93-.76-11.01-1.75-.24-.08-.52-.07-.77-.12.44-.78-.33-.96-.9-1.04-.1-.39-.63-.64-.86-.92-.24-1.87-2.17-3.03-2.54-4.87-.27-1.34.41-2.75.4-4.07,4.04.32,7.45,1.95,11.02,5.24l4.77-3.24Z" fill="#6f3608"/><path d="M94.17,87.77c-2.98,1.81-6.61,2.36-10.06,1.99-1.69-1.88-11.09-2.64-14.72-4.01.21-1.03.1-2.07-.17-3.08,6.4,1.64,13.26,1.85,20,3.72l4.96,1.38Z" fill="#6f3608"/><path d="M84.11,89.76c-2.15.56-3.87,2.08-5.93,2.86.19-.46-.56-1.14-1-1-3.9,1.19-5.86-2.33-9.86-2.19.29-1.41,1.06-2.67,2.07-3.69,3.63,1.37,13.04,2.14,14.72,4.01Z" fill="#d49438"/><path d="M136.27,145.61c.35.26.64.58.85.96-1.14,1.94-2.75,3.63-4.61,5.37-4.18,3.93-8.77-2.37-11.05-6.66,3.8-.61,6.35,6.89,10.93,2.51,1.17-1.12,2.54-1.95,3.88-2.18Z" fill="#cc903e"/><path d="M190.31,87.77c-3.82,4.46-6.76,3.13-7.84,5.87-2.41-1.8-5.89-2.51-8.33-4.76,7.96-.21,13.67-4.27,16.17-1.11Z" fill="#d49438"/><path d="M148.18,149.44c2.21.31,4.35,1.82,7,2.05l7,.62c5.48.49,10.94-2.23,15.02-3.69,3.08-1.1,7.71-5.96,9.76-6.89,0,3.46-5.38,5.18-7.63,7.08-4.77,4.03-16.82,6.04-22.43,4.29-1.54-.48-8.57-1.32-8.72-3.47Z" fill="#eab957"/><path d="M78.18,92.62c-.71.27-5.92,4.69-7.48,6.52-10.33,12.1-8.99,35.06,5.47,45.49,4.23,3.05,2.41,2.02,7.01,4.75-3.01.78-9.69-6.27-12.32-8.34-1.9-1.49-2.5-2.54-3.51-4.75-3.19-6.94-6.76-14.44-4.67-22.29s1.65-6.66,5.02-11.91c5.62-8.75,3.77-3.61,9.49-10.47.44-.14,1.19.54,1,1Z" fill="#eab957"/><path d="M137.3,133.46c-6.81-3.51-8.3-2.23-15.09-.82,1.3-2.09,4.66-3.88,7.47-3.69s6.69,1.58,7.62,4.51Z" fill="#eab957"/><path d="M117.92,145.69c.37,1.84,2.3,3,2.54,4.87-.99-.09-2.11-2.03-3.35-2.41-5.93,1.92-11.49,5.07-17.99,5.39-2.01.1-14.74-2.14-14.9-2.47-.23-.49-.06-1.16-.04-1.61l6.16,1.98c4.28,1.38,9.14.33,13.84.05s10.34-4.2,13.74-5.8Z" fill="#eab957"/><path d="M129.38,100.57c.13.75,1.01.9,1.71.95.14,1.62-.36,3.27.11,4.86l-3.9.13c-.09-.25-.21-.57-.2-.83l.08-2.05.1-1.95,1.25-.93c.21-.16.59-.07.84-.17Z" fill="#f3be3f"/><path d="M146.99,149.21c-2.32-.11-4.49-1.37-6.8-.81v-1.7c1.64-2.16,5.2,1.2,6.8,2.5Z" fill="#eab957"/><path d="M131.2,106.38c-.25,1.11-.28,2.66-1.55,3.9-1.32-.9-1.86-2.37-2.34-3.77l3.9-.13Z" fill="#cc903e"/><path d="M123.14,99.26c.65.6,1.1.13,1.09-.59.78.69,1.17,1.84.95,2.95-.13.63-.06,1.58.55,1.94.42.24,1.06.06,1.45.06l-.08,2.05c-1.06-.26-1.86-1.2-2.52-2.43-2.89-5.32-5.42-4.02-6.49-6.49,3.35.31,2.05.78,5.05,2.51Z" fill="#cc903e"/><path d="M120,135.54c.19-.7.44-1.66,1.27-1.97.06.88-.14,2.13-1.27,1.97Z" fill="#eab957"/><path d="M152.17,68.86c-3.71,3.03-7.76,4.92-9.91,8.6-5.72,4.65-9.08,10.37-13.15,16.74-2.87-4.58-5.34-8.81-8.56-12.95-3.61-4.66-8.31-7.8-12.39-11.52-.3-1.09-1.58-1.4-2.51-3.34,7.97-4.37,29.16-4.49,37.37-3.45,3.4.43,6.41,2.17,9.9,3.04.6.85-.53,2.26-.76,2.88Z" fill="#f2bd41"/><path d="M152.17,68.86c.23-.62,1.36-2.03.76-2.88-3.5-.88-6.51-2.61-9.9-3.04-8.21-1.04-29.39-.92-37.37,3.45.93,1.94,2.2,2.25,2.51,3.34.61.56-7.39-3.7-7.02-2.36-.89-1.72-2.49-1.31-4.11-2.43,19.88-9.14,43.61-9.19,63.55-.46-3.21,3.36-6.3,2.66-8.42,4.39Z" fill="#f1cc79"/><path d="M108.16,69.72c4.07,3.72,8.77,6.86,12.39,11.52,3.22,4.15,5.68,8.38,8.56,12.95,4.06-6.37,7.43-12.09,13.15-16.74l1.7,1.11c-3.79,3.46-7.21,8.26-9.73,12.96l-4.85,9.04c-.25.1-.63.01-.84.17-4.11-11.67-11.98-21.95-22.98-28.56-2.01-1.21-4.14-2.02-5.39-3.52.2-.52.55-.95.98-1.3-.38-1.33,7.63,2.92,7.02,2.36Z" fill="#6f3608"/><path d="M204.05,40.69c.11.41.37.76.77.93-.11.67.13,1.35.21,2.01.12,1,.1,2.01-.03,3-.07.51-.35,1.11-.24,1.64-1.11.62-.41,2.27-.48,3.35-.02.33-.07.68-.01,1h-1.14c0-2.99,1.44-7.81-.69-8.94l-2.8,4.54c-2.06,3.34-13.64,12.64-16.71,16.17-5.93.64-29.41,8.48-33.02,11.98l-5.59,5.41c-6.9,6.68-9.01,9.75-12.36,18.93-.37.15-.64.53-.89.82-.7-.05-1.57-.2-1.71-.95l4.85-9.04c2.52-4.7,5.94-9.5,9.73-12.96,4.91-4.49,11.06-8.13,17.57-10.48l16.29-5.89c1.95-.71,3.01-1.95,4.46-2.53l4.35-1.74c6.75-2.7,11.4-9.71,14.6-16.17.54-.12.88-.58,1.1-1.06.35-.14.4-1.18,1.18-.83.26.11.33.72.53.83Z" fill="#f1cc79"/><path d="M100.17,68.66c1.24,1.5,3.38,2.31,5.39,3.52,11,6.61,18.87,16.89,22.98,28.56l-1.25.93-2.1-.05c.22-1.11-.17-2.25-.95-2.95,1.98-4.42-3.61-9.52-5.95-13.09-3.27-4.99-7.59-8.9-13.48-10.59-3.69-1.06-6.72-3.08-10.1-4.77-9.62-4.82-15.18-.87-27.81-13.34-2.38-2.35-4.95-4.03-6.6-7.27-.95-1.87-2.28-2.97-2.31-4.88,2.07.22,6.08,11.08,22.8,17.25,6.65,2.45,12.9,5.12,19.39,6.68Z" fill="#f1cc79"/><path d="M57.98,44.73c-.9-.09-1.38-1.22-2.91-1.08-1.54,8.47,4.71,19.39,11.31,24.85.01,1.32-.32,2.41-1.48,2.11.3-.21-7.47-11.4-7.72-10,.08-.26.06-.62.04-.9-.03-.58-.4-1.19-1.05-1.08-2.42-5.8-3.2-12.09-1.37-18.9,1.47,1.03,3.14,3.1,3.17,5.01Z" fill="#eab957"/><path d="M57.23,59.7c-.79.29-.84-.59-1.05-1.08.64-.11,1.02.51,1.05,1.08Z" fill="#6f3608"/><path d="M211.18,180.96c-2.06-.5-4.56-.62-6.92-1.89-2.19,2.52,6.58,3.72,2.07,10.6-.74,1.13-1.67,2.07-1.58,3.69,1.28.01,2.32-.68,3.51-.8,1.51.85,3.58,3.66,3.36,5.8-4.37,5.56-11.88,6.49-18.44,6.32-.75-3.54.85-7.16.8-10.96-.04-3.22-1.88-6.39.18-9.03.84.46,1.55-.07,1.95-.7.48-.77-.25-1.79.02-2.45.9-2.21.95-4.65,2.17-6.7,1.42.2,1.58-1.54,2.77-2.47,5.24-4.09,11.71,2.15,15.89,7.4-1.97,1.66-4.01.44-5.78,1.2Z" fill="#f2bd41"/><path d="M229.28,156.54c-.86-.29-1.14-1.31-1.86-2.01-3.79,3.86-6.49,7.65-10.48,10.8-1.44,1.14-3.26,1.69-3.75,3.31-1.42-.3-2.74-.91-4.1-1.36-.19-2.01,1.65-3.22,3.22-4.65,2.69-2.45,14.66-14.61,16.89-12.55,1.73,1.6.72,5.15.09,6.47Z" fill="#eab957"/><path d="M229.28,156.54c-.92,1.92-2.01,4.26-3.09,6.04-3.06,2.4-4.78,6.39-8.48,8.76-1.57,1-3.71-1.74-4.51-2.7.49-1.61,2.31-2.17,3.75-3.31,3.99-3.15,6.69-6.95,10.48-10.8.71.7,1,1.72,1.86,2.01Z" fill="#d49438"/><path d="M230.27,191.77c-.97,1.55-2.11,3.11-3.96,3.81-1.74.66-3.81.82-6.17.4-1.73-.31-3.47-2.45-2.6-4.04.92-1.69,3.28-1.73,4.65-2.17.2.24.48.76.78.8.6.09.92-.26,1-.56.1-.39.23-1.08.23-1.54.36-.04.72-.1,1.09-.08,1.29.1,3-.25,4.33.83.77.63.44,1.96.67,2.55Z" fill="#d49438"/><path d="M225.27,182.78c-.26,1.01-1.02,1.67-2.08,1.81-.67-.57-1.85-1.18-2.18-2.03-.36-1.59-.15-3.32-.06-4.93s.18-3.38.98-4.82c2.31-.31,3.56.06,4.41,1.19,2.51,3.34-.68,7.26-1.07,8.79Z" fill="#efba47"/><path d="M223.19,184.59c-1.74,3.87-10.81,4.73-11.44,1.56-.49-2.44,3.66.5,9.26-3.59.33.86,1.51,1.47,2.18,2.03Z" fill="#cc903e"/><path d="M231.92,181.67c-.04.33.12.68.11,1.02.05.74.12,1.66.92,1.94-.98,8.43-1.49,5.23-2.68,7.15-.23-.6.1-1.92-.67-2.55-1.32-1.08-3.04-.73-4.33-.83.88-.94,5.92-7.54,6.65-6.72Z" fill="#eab957"/><path d="M206.13,169.36c5.74,1.06,9.52,5.69,12.1,10.95-2.45,2.46-4.91,1.17-7.05.65,1.77-.76,3.81.46,5.78-1.2-4.18-5.25-10.65-11.49-15.89-7.4-1.19.93-1.35,2.67-2.77,2.47.41-.68.38-1.62.88-2.28,3.13-1.45,1.78-3.21,6.95-3.19Z" fill="#f1cc79"/><path d="M227.06,171.65c-.08.51.33,1.05.88,1.05.09,1.97,1.55,3.84.94,5.87-1.65.54-1.99,4.09-3.61,4.2.39-1.53,3.58-5.45,1.07-8.79-.85-1.13-2.11-1.5-4.41-1.19-.8,1.44-.89,3.26-.98,4.82-1.13-.97-2.27-2.71-1.17-4.17,2.13-2.84,4.75-3.36,7.28-1.8Z" fill="#f1cc79"/><path d="M230.33,178.64l-1.45-.06c.61-2.03-.85-3.9-.94-5.87.61,0,2.03-.18,2.2.95.29,1.97.05,3.52.19,4.99Z" fill="#653511"/><path d="M216.37,205.41l.95.15c-.56,2.38-2.66,1.37-4.29,1.98-.26-1.95,2.67-1.31,3.34-2.13Z" fill="#653511"/><path d="M222.18,189.76l2.01-1.3c0,.46-.12,1.15-.23,1.54-.08.3-.4.65-1,.56-.31-.04-.58-.56-.78-.8Z" fill="#eab957"/><path d="M56.39,73.55c-.65-.07-1.7.12-2.26-.8-1.1-1.8-1.06-3.61-.84-5.25-.7-3.02,3.94,7.18,3.1,6.06Z" fill="#6f3608"/><path d="M60.22,77.65c-1.41-.55-2.49-1.71-2.98-3.13,1.34.64,2.43,1.75,2.98,3.13Z" fill="#6f3608"/><path d="M64.36,80.54c-.44,0-1.06-.54-1.32-.86.44.18,1.68.08,1.32.86Z" fill="#6f3608"/><path d="M188.19,154.77c-1.41,4.32-4.77,4.36-7.01,6.84-1.42-.11-2.67.71-3.2,2.02l-.15,1.14c-.85.79-.74,2.04-.88,3.11-.51-1.35-1.25-2.31-2.57-2.26-1.98.07-3.41,1.51-5.2,2.04-19.23,5.76-38.66,7.01-59.23,4.23-2.14-.29-4-.8-5.74-.29l-.16-.99c.32-.65.69-1.27,1.14-1.84,26.47,2.81,55.42,3.46,79.14-11.95,1.41-.92,2.44-1.96,3.85-2.05Z" fill="#653511"/><path d="M199.18,172.55c-.5.66-.47,1.6-.88,2.28-1.22,2.05-1.26,4.5-2.17,6.7h-1.97s0-2.82,0-2.82c1.14.18.82-1.42.73-2.09-.17-1.27-.03-2.6-.54-3.81l4.83-.26Z" fill="#653511"/><path d="M203.13,52.62v2.06c-.47,1.85-1.02,3.92-2.76,4.95-.75.44-1.36,1.14-2.02,2.14-2.6,3.94-7.54,6.06-5.97,9,1.38,2.6,4.94,2.21,4.79,3.63-11.66,10.09-40.06,5.18-54.37,17.7-6.79,3.61-6.13,6.66-10.84,8.59,3.35-9.18,5.46-12.26,12.36-18.93l5.59-5.41c3.61-3.5,27.09-11.34,33.02-11.98,3.07-3.52,14.65-12.83,16.71-16.17l2.8-4.54c2.13,1.14.69,5.95.69,8.94Z" fill="#f3be3f"/><path d="M202.99,66.57c-1.98,2.38-5.29,4.07-8.88,4.26-2.48-.15,5.47-8.32,5.08-8.03,1.23,1.32,2.17,2.93,3.8,3.77Z" fill="#653511"/><path d="M199.19,62.8c.39-.29-7.56,7.88-5.08,8.03,3.6-.2,6.9-1.88,8.88-4.26.5.26,1.15.35,1.37.96.63,2.5-2.38,3.64-3.06,5.2-1.47.29-2.86.87-4.13,1.67.14-1.42-3.42-1.03-4.79-3.63-1.56-2.94,3.37-5.06,5.97-9,.66-1,1.27-1.7,2.02-2.14-.31.89-.33,2.54-1.18,3.17Z" fill="#eab957"/><path d="M205,46.63c.13-.99.15-2,.03-3,1.13-.22,1.2.64,1.2,1.49,0,.91-.13,1.72-1.24,1.51Z" fill="#653511"/><path d="M204.28,51.62c.07-1.08-.63-2.74.48-3.35.22,1.07.98,2.9-.48,3.35Z" fill="#653511"/><path d="M203.13,54.68v-2.06h1.14c.16.9-.74,1.52-1.14,2.06Z" fill="#653511"/><path d="M204.83,41.62c-.4-.17-.67-.51-.77-.93.67-.05.88.29.77.93Z" fill="#653511"/><path d="M201.23,41.75c.29-.58.52-.82,1.1-1.06-.22.48-.57.94-1.1,1.06Z" fill="#653511"/><path d="M190.17,152.73c.53-1.44,1.63-2.63,3.08-3.13-.44,1.79-.86,3.17-3.08,3.13Z" fill="#653511"/><path d="M232.95,184.62c-.8-.28-.87-1.2-.92-1.94.93.31,1.01,1.1.92,1.94Z" fill="#653511"/><path d="M200.05,105.7c-1.62-1.05-1.83-3.34-1.94-5.15.8-.44,1.89.03,2.06,1.17.24,1.6-.08,2.86-.12,3.98Z" fill="#653511"/><path d="M200.92,108.62c-.59.02-.73-.55-.75-1.03.71-.41.75.66.75,1.03Z" fill="#653511"/><path d="M198.05,99.64c-.44-.19-.83-.57-.96-1.05.57.03.92.5.96,1.05Z" fill="#653511"/><path d="M201.87,112.62c-.61-.03-.65-.62-.72-1.09.69-.31.77.71.72,1.09Z" fill="#653511"/><path d="M199.36,211.61c.36.62-.23.56-.73.82-.71.38-1.06-.4-1.46-.62l2.18-.2Z" fill="#653511"/><path d="M205.18,210.52c.16.62-.22.87-.62.94-.6.11-1.06,0-1.46.01-.22-1.07,1.44-.71,2.08-.96Z" fill="#653511"/><path d="M193.11,211.58l1.07.23c-.28.76-1.34.67-1.07-.23Z" fill="#653511"/><path d="M57.98,44.73c.03,1.91,1.36,3.02,2.31,4.88,1.65,3.24,4.22,4.92,6.6,7.27,12.62,12.47,18.19,8.52,27.81,13.34,3.38,1.69,6.41,3.71,10.1,4.77,5.89,1.69,10.21,5.59,13.48,10.59,2.34,3.57,7.94,8.67,5.95,13.09,0,.72-.45,1.19-1.09.59.41-1.28-1.17-1.67-2.05-2.58-19.18-19.85-40.56-8.93-60.29-22.4-.83-.57-1.32-1.47-1.51-2.12-.21-.73.13-1.65.95-1.88l.93.13c.16,1.08.82,1.55,1.01.37.84.31,1.85-.26,2.72-.19,1.16.3,1.49-.79,1.48-2.11-6.61-5.46-12.85-16.38-11.31-24.85,1.53-.14,2,.99,2.91,1.08Z" fill="#f2bd41"/><path d="M61.18,70.42l1.01.37c-.19,1.18-.85.71-1.01-.37Z" fill="#d49438"/><path d="M200.14,135.79c-1.33.07-1.09-1.39.16-1.17-.14.37-.16.78-.16,1.17Z" fill="#d49438"/><path d="M169.19,167.66c.35,1.46,1.22,2.7,2.15,3.87l.04,1.12c-1.38-.15-2.96-.13-4.63.52-16.92,6.61-36.73,6.55-54.6,4.36-3.59-.44-6.75-1.9-9.95-1.17.18-.43-.02-1.02.07-1.48,1.26-.62,2.18-1.89,1.96-3.29,1.74-.51,3.59,0,5.74.29,20.57,2.78,40,1.53,59.23-4.23Z" fill="#dec6a3"/><path d="M171.33,171.53c-.93-1.16-1.8-2.4-2.15-3.87,1.79-.54,3.23-1.98,5.2-2.04.16.78,1.61,1.88,1.18,3.13-.66,1.94-3.02,1.95-4.23,2.78Z" fill="#cc903e"/><path d="M181.19,161.6c-.64,1.19-2,1.57-3.2,2.02.53-1.32,1.77-2.13,3.2-2.02Z" fill="#493d24"/><path d="M196.13,181.53c-.27.67.46,1.69-.02,2.45-.4.63-1.11,1.16-1.95.7v-3.17s1.97.01,1.97.01Z" fill="#6f3608"/><path d="M194.16,178.71c0-.7-.25-2.02.73-2.09.09.67.41,2.27-.73,2.09Z" fill="#6f3608"/><path d="M115.28,119.84c0,9.16-7.43,16.59-16.59,16.59s-16.59-7.43-16.59-16.59,7.43-16.59,16.59-16.59,16.59,7.43,16.59,16.59ZM89.15,116.66c-2.72,4.27-.01,9.86,4.6,12.23,4.59,2.36,11.48.9,11.4-2.19,2.21.26,3.49-1.82,3.99-4.17.86-4.02-.17-7.98-2.83-10.53s-6.65-3.41-11-2.21c-1.65.46-3.67-.8-5.32,1.12-1.04,1.21-1.91,3.21-.84,5.75Z" fill="#48b5a0"/><path d="M176.84,119.93c0,9.22-7.48,16.7-16.7,16.7s-16.7-7.48-16.7-16.7,7.48-16.7,16.7-16.7,16.7,7.48,16.7,16.7ZM156.28,109.87c-1.71.14-3.65.37-5.2,1.59-1.67,1.32-1.03,2.98-1.42,5.19-.73,4.14-.14,8.85,3.67,11.88,4.3,3.42,10.49,2.77,14.32-.82,3.62-3.39,4.55-9.2,1.56-14.08-2.55-4.17-8.03-5.42-12.94-3.76Z" fill="#48b5a0"/><path d="M122.99,152.63c3.08.99,5.39,6.36,11.01,1.75,1.96-1.61,3.23-3.62,5.11-4.86.02,4.32-3.68,9.59-9.02,9.16-3.38-.28-6.3-3.26-7.1-6.04Z" fill="#eab957"/><path d="M122.21,152.51c-.55-.11-.77-.55-.9-1.04.57.08,1.34.26.9,1.04Z" fill="#eab957"/><path d="M136.06,136.61c.57,1.98-2.11,2.22-3.27,1.81-1.07-.38-2.67-2.74-.56-3.67,1.08-.48,3.51.75,3.83,1.85Z" fill="#eab957"/><path d="M127.29,101.67l-.1,1.95c-.39,0-1.03.18-1.45-.06-.61-.36-.68-1.31-.55-1.94l2.1.05Z" fill="#d49438"/><path d="M105.15,126.7c-1.24-.31.54-2.49-1.55-2.61-.79-.05-1.18.56-1.11,1.06.12.86.51,1.3,2.66,1.55.08,3.09-6.81,4.55-11.4,2.19-4.61-2.37-7.32-7.96-4.6-12.23,1.01.25,1.98,1.22,3.37,1.33,2.09.17,3.78-1.54,4.22-3.09.54-1.9-.42-3.64-1.43-5.11,4.35-1.2,8.24-.43,11,2.21s3.69,6.51,2.83,10.53c-.5,2.34-1.78,4.43-3.99,4.17Z" fill="#1b6056"/><path d="M95.31,109.8c1.01,1.47,1.97,3.21,1.43,5.11-.44,1.55-2.13,3.26-4.22,3.09-1.39-.11-2.35-1.08-3.37-1.33-1.06-2.54-.2-4.54.84-5.75,1.65-1.92,3.67-.66,5.32-1.12Z" fill="#f6f2eb"/><path d="M149.66,116.65c.81.36,1.5,1.2,2.7,1.66,2.28.88,4.32-.4,5.17-1.79,1.62-2.63.36-4.6-1.25-6.65,4.9-1.67,10.38-.41,12.94,3.76,2.98,4.88,2.05,10.69-1.56,14.08-3.83,3.59-10.02,4.24-14.32.82-3.81-3.03-4.4-7.74-3.67-11.88Z" fill="#1b6056"/><path d="M156.28,109.87c1.61,2.05,2.87,4.03,1.25,6.65-.85,1.39-2.89,2.67-5.17,1.79-1.2-.46-1.89-1.3-2.7-1.66.39-2.21-.25-3.87,1.42-5.19,1.55-1.22,3.49-1.45,5.2-1.59Z" fill="#f7f9f5"/><path d="M105.15,126.7c-2.15-.26-2.54-.69-2.66-1.55-.07-.5.32-1.11,1.11-1.06,2.09.12.31,2.31,1.55,2.61Z" fill="#c5d4d4"/></svg>