<?xml version="1.0" encoding="UTF-8"?><svg id="Layer_1" xmlns="http://www.w3.org/2000/svg" viewBox="0 0 255.12 255.12"><path d="M155.07,169.8c6.86,15.64,10.24,24.32,7.15,42.93-.33,1.98-.02,3.76-1.16,4.98-7.81,1.76-16.74.9-25.04.9h-2c-5.43,0-11.1.6-16.96-.12-9.51-1.17-10.58-1.18-20.12.02-6.55.82-12.94-.62-19.08-.63-.02-1.57-1.21-17.54-2.76-17.09,3.61-7.95,6.04-16.27,5.99-25.04,1.47-.52,2.18-2.31,3.92-2.24,22.35,4.45,42.58,5.1,64.82-3.1,1.96-.72,3.58-1.26,5.22-.61Z" fill="#f7efd8"/><path d="M173.06,80.88c.22.65.1,1.47.39,2.1.26.56.54.94-.11,1.37-.45.3-.59,1-1.13,1.24-4.17-.85-9.79,2.24-16.3,2.47,1.66,1.09,3.48,2.06,5.15,2.59,5.76,4.29,6.11,5.26,10.69,10.07.07.31-.04.71.09,1l2.65,5.51c1.63,3.38,1.79,12.25,1.39,16.47-.32,3.38-1.81,6.38-3.04,9.02-.13.28-.04.69-.09,1-.51.15-.98.56-1.42,1.28l-2.42,4.56-7.9,6.01c-9.5,6.52-27.82,6.38-35.94-1.84-.28-2.67-2.01-2.53-2.1-5.92-.16-5.66-5.63-10.9-11.93-10.21-4.3.47-8.45,5.14-8.5,9.17,0,.98,2.19,2.3,2.6,3.07.34,2.16-1.41,3.02-3.12,3.77-1.53.68-3.17,1.53-4.09,2.93-.85-.25-1.34.91-1.92,1.05-3.5.88-6.94,2.73-11.06,2.99-14.85.92-16.15-1.42-27.94-9.28-8.42-10.42-11.5-24.4-5.21-36.93,2.43-4.84,5.84-9.4,10.19-11.65l7.15-3.7c-5.07-1.27-9.19-1.4-13.19-2.72l-.05-2.57c3.59.91,7.39,1.41,11.33,2.11,2.18.38,4.4.16,5.78,1.76.32.71.74,1.38,1.29,1.95-.6.21-1.05.69-1.27,1.28-10.18,2.94-18.78,10.9-21.03,21.93-3.79,18.6,10.14,35.25,29.05,35.13,6.79-.04,14.51-1.91,18.49-7.32.18-3.68-.09-8.02,3.3-11.13s7.82-5.74,12.95-4.13c4.56,1.43,9.48,5.08,9.73,9.73l.31,5.84c14.09,11.67,35.77,7.35,44.09-9.05,4.47-8.8,4.88-18.6-.2-27.68-4.05-7.23-11.88-13.57-21.71-14.56-3.12-.31-5.8.56-8.66,1.42-20.06,5.99-23.79,21.42-25.95,22.8-3.11,1.98-3.83-7.59-15.07-15.47-3.65-2.56-7.61-3.99-11.2-5.9l.25-1.88c4.69-1.94,18.23,9.9,21.61,13.1.77,1.7,1.35,4.07,3.67,5.37l2.55-4.33c.59-1,1.12-1.98,1.09-2.73,11.46-8.39,13.34-12.44,29.53-15.28l8.62-1.52c6.4-1.12,12.88-1.83,18.59-4.27Z" fill="#653511"/><path d="M81.02,61.56c1.7.05,3.42-.07,5.09.22l-4.91,2.68c2.18,1.41,9.67,5.48,10.8,5.43,9.75,8.67,12.74,10.68,20.12,23.79,5.59-10.97,12.55-19.28,22.39-25.23.21-.4.38-.73.58-.79,2.67-.8,5.15-2.16,7.66-3.58-.57-1.5-4.64-1.19-3.82-2.25,4.3-1.27,5.32,2.61,12.02,2.15-.65.62-1.75,1.14-3.04,1.56-17.46,5.62-28.47,18.04-35.12,33.98-.49-.11-1.01-.27-1.52-.11-4.19-10.29-10.32-19.33-20.25-25.81-12.31-8.03-16.49-7.05-29.32-12.43-11.34-4.75-15.52-10.54-22.9-20.77-2.06,2.55-1.18,15.61.97,15.4,1.1,6.56,8.78,12.91,8.5,14.35-.16.83-1.38,1.01-2.25.63l-5.05-2.17c-.79-.34-1.78-.08-2.49-1.7-.39.52-.15,1.17-.22,1.73-1.59.36-.83-1.76-3.16-1.8.02-.68-1.17-1.77.52-2.82,1.2-.74,2.53,0,4.47-.52-4.28-6.03-7.69-17.69-3.79-24.41.74-1.28,1.9-1.93,3.04-1.74,3.64.61,5.51,11.11,17.87,18.29,5.84,3.4,12.12,5.88,18.87,7.16,1.91.36,3.46-1.3,4.93-1.26Z" fill="#653511"/><path d="M225,156.99c-.71.09-1.62.28-2.17-.12l-4.08-2.91c-2.22-1.59-5.47-.04-7.94-.6-2.32-4.8-.79-8.67-2.88-10.63-1.24-1.16-3.38-11.24-10.49-7.49-.35,5.09.1,10.11-.68,15.23-.58,3.8-5.83,10.74-4.74,18.26-1.64.34-1.77-1.45-2.56-2.25l.25-6.64c-10.16,4.33-12.5,1.8-20.7,1.09l-2.16-.19c-.34-.21-.65-.56-.72-.98-.18-.48.05-1.14-.12-1.53-.26-.58-1.01-.79-1.48-.5-.75.47-1.1,1.41-.63,2.08-.24.01-.49.05-.73.03-.67-.06-1.35-.12-2.02-.13l.08-1.17c9.89-7.53,11.06-6.85,18.28-18.42,1.61-2.59,2.01-5.09,2.61-7.49,2.48-9.83,1.92-20.07-1.72-30-1.73-4.74-3.56-9.08-6.23-12.9-.45-.64-.32-1.63-1.03-2.19-.54-.42-.51-1.43-.92-1.95.53-.24.67-.94,1.13-1.24.83-.48.99.54,1.55,1.34,15.36,22.16,17.95,53.04-6.3,70.94,7.27,4.01,15.96,4.03,22.27-1.17,7.22-5.95-1.2-23.72,8.53-24.06,9.17-.32,11.54,10.72,11.86,18.29,4.07.74,13.68,1.27,13.76,7.3Z" fill="#5e3110"/><path d="M38.28,68.65c1.89,7.91,10.35,13.24,17.63,15.07l.05,2.57c-.65-.22-1.94-.59-2.75-.16-1.62.86-1.99,2.74-2.94,3.85-4.55,5.34-9.55,20.33-9.26,27.66-1.44-.67-1.56,12.05.12,11.09.41,2.47.84,4.78,2.07,6.95.8,1.4.36,3.4,1.77,5.36,4.03,5.6,8.76,12.49,15.03,15.86-.66,1.56-.25,3.18.75,4.51-1.06-.05-2.9-1.14-4.34-.2-13.86,9.05-23.07,23.81-24.37,40.42-1.14,3.28-1.11,6.19-1.01,9.09h-3l.83-9.22c1.33-14.77,8.19-27.78,19.13-37.76,2.51-2.29,5.31-3.92,7.18-6.78-9.89-8.82-15.96-17.88-17.06-30.25,1.48,1.63,1.23-10.1-.04-8.08.55-12.12,5.09-23.36,12.13-33.59-6.85-4.37-15.28-10.34-15.08-18.21,2.33.04,1.57,2.15,3.16,1.8Z" fill="#5e3110"/><path d="M173.45,82.98c-.29-.63-.17-1.45-.39-2.1,3.97-1.7,7.44-5.68,10.1-9.06.83-1.06.66-2.12.96-2.81.35-.81,1.18-1.54.68-2.99-2.59,1.32-6.67,4.11-8.98,3.64-3.12-.63,9.67-11.18,8.5-17.84,1.53.23,1.44-12-.23-12.59-9.06,14.45-17.83,21.16-33.11,24.75-6.7.46-7.72-3.42-12.02-2.15-.28.08-.63.07-.92.05.14-.57-.14-.92-.6-1-.54-.09-.99.03-1.4.06-.32.02-.68-.03-1-.07-.14-1.1-1-1.81-1.83-2.04-1.2-.33-2.18,0-3.17.24s-2.03-.03-3-.24c.15-.5-.08-.91-.51-1.1-.65-.29-1.61.02-1.49.82-2.95-.39-5.93-.78-8.9-.79-.99-1.7-4.21-1.65-5.25-.02-4.99-.02-9.87,1.04-14.85,1.28-.66.03-2.21-.42-2.04.77-.62.04-1.25.18-1.87.16-.41-.02-.86-.15-1.46-.06-.42.06-.79.32-.62.94-1,.98-2.87.38-3.91.94-1.68-.29-3.4-.17-5.09-.22-.53-.61.25-.62.96-.9,21.61-8.49,44.04-7.54,65.32,1.7,16.11-4.27,25.3-9.66,34.03-24.34.84-1.42,2.61-2,3.74-1.64,5.63,1.77,2.98,19.9-1.31,26.07,1.78.27,3.12-.68,4.18.12,4.58,3.43-7.14,19.55-14.5,20.42Z" fill="#5e3110"/><path d="M210.82,153.37c-1.51-.34-2.67,1.79-3.88,2.14-1.71.5-3.55,1.13-3.97,3.11-1.97.83-1.24,5.81,1.02,5.81,3.17,0,12.65-1.88,19.06-.75,1.15.69.36,2.02,0,3.05-3.75-1.54-23.02-1.6-21.02,5.89,1.43,5.38,17.75,6.94,19.15,3.04,3.47-.76,2.92-5.51,2.14-8.04.81.02,1.3.34,1.53.82,1.77,3.66-.84,7.18-1.54,8.5-1.11,2.11.15,4.81-.17,6.74l-.13.77c-.9.02-2.09-.3-2.92.21.13-1.47,1.1-2.73.83-4.9-6.7,2.01-16-1.13-17.14-.8-.62.18-.36,1.31-.64,1.75-1.13,1.04-.69,2.93.75,4.2,3.2,2.82,7.38,3.16,11.18,2.81-1.88,4.51-6.05-.87-7.95,4.27-.7,1.9-3.27,2.74-5.04,2.99-.97-.28-1.93.15-3.06.73-2.42,1.23-14.3,3.69-14.2,1.97.55-1.56,2.64-.55,4.15-.86,6.23-1.29,11.72-3.56,17.59-6.99-4.63-2.18-7.52-5.15-6.99-9.81.13-1.11,1.23-2.48,1.08-3.45-3.45-3.14-1.42-6.05-.45-9.47.69-2.41-2.49-5.8-1.19-8.44.84-2.77,4.73-5.73,6.98-6.76.48-.22,2,.13,1.98-1.13l-.08-8.02c2.1,1.96.56,5.83,2.88,10.63Z" fill="#653511"/><path d="M223.03,184.44c-1.17,7.13-11.06,6.07-15.88,7.52,1.9-5.13,6.07.24,7.95-4.27,1.24-.17,2.21-.84,2.96-1.77.56-.42,1.44-.9,2.06-1.28.83-.5,2.02-.19,2.92-.21Z" fill="#5e3110"/><path d="M202.11,194.96c-6.38,4.85-17.3,5.71-25.09,5.89.96-2.75,4.89,0,5.1-3.01.91,0,1.82-.06,2.73-.19-.09,1.72,11.78-.74,14.2-1.97,1.13-.58,2.09-1,3.06-.73Z" fill="#5e3110"/><path d="M223.16,183.67c.32-1.92-.95-4.63.17-6.74.7-1.32,3.31-4.84,1.54-8.5-.23-.48-.72-.8-1.53-.82l-.27-.9c.36-1.03,1.14-2.36,0-3.05-.02-.26.07-.54.02-.79,1.32,3.04,1.84-6.8,2.53-4.28,1.11,1.87-.33,3.99-.25,6.26.1,2.76,2.68,5.75,1.35,8.84-3.46,8.03-.66,8.17-3.55,9.97Z" fill="#5e3110"/><path d="M225,156.99c0,.53.34,1.17.61,1.62-.69-2.52-1.21,7.31-2.53,4.28-.13-.76-.29-1.53-.31-2.31-.03-1.23,0-2.47.07-3.7.55.39,1.45.2,2.17.12Z" fill="#653511"/><path d="M38.1,126.73c-.24-2.66-.16-5.42-.04-8.08,1.27-2.01,1.51,9.71.04,8.08Z" fill="#693f25"/><path d="M174.95,217.93c-.35-.27-.85-.38-.88-.79-.04-.58.2-1.04.31-1.41,1.01.15.5,1.5.57,2.2Z" fill="#95918e"/><path d="M175.02,211.84c0-.48.1-1.12.71-1.11.05.42-.04,1.54-.71,1.11Z" fill="#95918e"/><path d="M159.12,163.54c3.35,8.78,6.4,18.72,9.87,27.13l3.46,14.42c1.02,4.25.03,9.06-1.54,12.87-2.52.55-9.28,1.7-9.84-.26,1.14-1.21.83-3,1.16-4.98,3.09-18.61-.29-27.29-7.15-42.93-.63-1.44-2.14-2.51-2.13-4.23.02-.9,6.39-3.62,6.18-2.04Z" fill="#eab957"/><path d="M152.94,165.58c-.01,1.72,1.5,2.79,2.13,4.23-1.64-.66-3.27-.12-5.22.61-22.24,8.2-42.47,7.55-64.82,3.1l1.02-3.82c12.5,1.26,24.98,2.65,38.02,1.35,8.21-.82,16.07-1.82,23.83-4.48,1.81-.62,3.59-.86,5.05-.98Z" fill="#dec6a3"/><path d="M79.08,168.65c.85,2.26.95,4.99,2.03,7.1.05,8.77-2.38,17.09-5.99,25.04-1.55,1.92-3.7,3.73-5.04,5.87-1.19.68-2.62,1.49-3.98,1.88-.71-1.54-1.01-3.22-1.27-4.89l2.55-11.68c.5-2.3.46-4.45.53-6.32l.15-3.83-.09-3.17c-.07-2.25-1.19-4.55-1.15-6.83.03-1.38.26-2.77.32-4.16.6-.36.59.39.84,1,5.81,14.5,1.66,20.5.09,35.52,10.19-10.29,10.83-24.93,7.88-37.39,1.22.27,2.24.97,3.12,1.86Z" fill="#5a341b"/><path d="M77.88,217.88c-2.62,0-5.33.89-7.91-.12l.11-11.1c1.34-2.14,3.48-3.94,5.04-5.87,1.55-.45,2.74,15.52,2.76,17.09Z" fill="#efba47"/><path d="M86.05,169.68l-1.02,3.82c-1.74-.06-2.46,1.72-3.92,2.24-1.08-2.11-1.18-4.85-2.03-7.1,2.08-2.28,4.81.82,6.96,1.03Z" fill="#eab957"/><path d="M61.06,162.8c.89.99,1.81,1.95,2.84,2.8-.07.37.05.76.01,1.13,1.26,1.53,1.37,3.8,2.92,5.08-.04,2.29,1.07,4.58,1.15,6.83-.48.4-1.04.96-.97,1.57.07.68.15,1.97,1.06,1.6l-.15,3.83c-.9-.23-1.6.84-1.92,2.01-2.35,8.6-5.53,16.35-9.84,24.05-1.14,2.04-2.19,4-2.07,6.02-.51-.11-1.84.51-2.44.03-1.18-.96,1.47-4.17-.33-4.06l-1.21.07c-.77.05-1.3.3-.8,1.04.19.59-.18,1.32-.18,1.92l-5.12.06c-4.77.05-5.12-3.37-7.04-1.19-.69-.09-1.4-.22-1.91-.73-3.24-1.16-2.24-10.13-1.2-13.29-1.34-9.52,17.68-41.48,27.2-38.78Z" fill="#f3be3f"/><path d="M60.75,161.41c.24.36.14.98.31,1.39-9.52-2.69-28.54,29.27-27.2,38.78-1.04,3.15-2.04,12.13,1.2,13.29-2.29-.08-3.96-1.92-4.03-4.14-.1-2.91-.13-5.82,1.01-9.09,1.31-16.61,10.51-31.37,24.37-40.42,1.44-.94,3.28.15,4.34.2Z" fill="#f1cc79"/><path d="M67.91,185.65c-.08,1.87-.03,4.02-.53,6.32l-2.55,11.68-5.42,13.83c-.67,1.72-4.11.79-5.33.25-.13-2.02.93-3.98,2.07-6.02,4.31-7.7,7.5-15.45,9.84-24.05.32-1.17,1.01-2.24,1.92-2.01Z" fill="#d49438"/><path d="M69.97,217.76c-2.09,1.14-4.73,1.03-7.11.1.9-3.67,2.01-6.48,3.24-9.32,1.36-.39,2.78-1.2,3.98-1.88l-.11,11.1Z" fill="#d49438"/><path d="M49.13,216.73c-.02,2.66-13.67-.09-12.16-1.13,1.91-2.18,2.27,1.24,7.04,1.19l5.12-.06Z" fill="#f1cc79"/><path d="M49.31,214.81c-.51-.75.02-1,.8-1.04-.08.43-.01,1.39-.8,1.04Z" fill="#f1cc79"/><path d="M184.85,197.65c-.9.12-1.81.19-2.73.19-1.77-.03-3.54-.08-5.31-.19-.09-.64-.08-1.28,0-1.92.17-1.39.27-2.79.36-4.18,7.02-.29,14.03-1.39,20.16-5.9-1.97-7.4-1.71-14.51-.31-21.91.4-2.14-.29-4.69,2.03-5.1-1.3,2.64,1.87,6.03,1.19,8.44-.97,3.42-3,6.33.45,9.47.15.97-.95,2.35-1.08,3.45-.53,4.65,2.36,7.63,6.99,9.81-5.87,3.43-11.36,5.7-17.59,6.99-1.51.31-3.6-.7-4.15.86Z" fill="#d49438"/><path d="M163.17,159.84c-.27.63-1.38,1.31-1.95,2.09,2.94,9.81,7.07,18.13,9.73,27.77.55,1.99,1.36,3.95,1.07,6.03-2.38-1.87-.95-4.28-3.03-5.06-3.47-8.41-6.52-18.36-9.87-27.13.12-1.37,1.13-2.83,2.02-3.82.68,0,1.35.07,2.02.13Z" fill="#493d24"/><path d="M174.03,191.73c-.36,1.23-.2,2.8,0,4l.29,1.76c-1.08-.07-1.54-1.17-2.29-1.76.29-2.09-.52-4.05-1.07-6.03.86.94,1.67,2.14,3.07,2.03Z" fill="#95918e"/><path d="M176.81,195.73c-.08.64-.09,1.28,0,1.92l-2.49-.16-.29-1.76,2-1c0,.46.26,1.04.78,1Z" fill="#5a341b"/><path d="M73.03,90.83c.42-.12.85-.34,1.28-.39,1.87-.21,3.81-.26,5.64.14l1.08.23c.64.14,1.33.18,2,.17.23.94,1.27.7,2,.86.67.15,1.5.26,2.11.58,3.59,1.91,7.54,3.34,11.2,5.9,11.24,7.88,11.96,17.45,15.07,15.47,2.16-1.38,5.89-16.81,25.95-22.8,2.86-.85,5.54-1.73,8.66-1.42,9.84.99,17.67,7.33,21.71,14.56,5.08,9.08,4.67,18.88.2,27.68-8.32,16.39-30,20.71-44.09,9.05l-.31-5.84c-.25-4.65-5.17-8.29-9.73-9.73-5.13-1.61-9.44.91-12.95,4.13s-3.12,7.46-3.3,11.13c-3.99,5.41-11.71,7.28-18.49,7.32-18.91.12-32.84-16.53-29.05-35.13,2.25-11.03,10.85-18.99,21.03-21.93ZM158.78,118.27c0-8.95-7.25-16.2-16.2-16.2s-16.2,7.25-16.2,16.2,7.25,16.2,16.2,16.2,16.2-7.25,16.2-16.2ZM98.51,119.07c0-8.97-7.28-16.25-16.25-16.25s-16.25,7.28-16.25,16.25,7.28,16.25,16.25,16.25,16.25-7.28,16.25-16.25Z" fill="#f7f9f5"/><path d="M62.01,92.72c-4.35,2.25-7.76,6.81-10.19,11.65-6.3,12.53-3.21,26.51,5.21,36.93.95,1.18.79,2.83,3.09,3.73s3.68,3.52,6.38,4.06,5,2.14,7.68,2.41c5.29.54,10.43.21,15.74.12-.17,0,5.8-2.18,5.99-2.53.26-.46.2-1.05.12-1.51.58-.15,1.07-1.3,1.92-1.05,1.75.23,3.52.25,5.28.2,1.03,1.82,2.97,3.23,3.73,5.21.2,2.55,1.83,4.56,4.23,5.47s5.33-.62,6.52-3.14,4.8-4.02,4.2-6.63c-.2-.85.68-1.34,1.03-1.87,4.87-.34,9.8,5.56,17.01,5.99,5.49.33,20.75-1.62,21.1-6.19l7.9-6.01c.57-.43,3.1-1.36,3.84-5.83.05-.31-.04-.72.09-1,2.27.8,4.11-9.26,4.66-11.56,1.3-5.49.4-10.74-2.27-15.66-.94-1.73-1.49-3.51-3.4-3.79-.14-.29-.03-.69-.09-1-1.22-5.73-5.1-5.55-5.77-8.9-.17-1.23,5.82-2.24,6.77-2.38l1.42.28c2.67,3.82,4.49,8.16,6.23,12.9,3.64,9.93,4.2,20.17,1.72,30-1.69-.05-2.24,1.55-3,3.07-8.37,16.56-28.44,24-45.99,26.34-27.98,3.72-69.29,1.94-86.88-23.47-.94-1.35-1.49-2.84-3.04-2.88-1.23-2.17-1.66-4.47-2.07-6.95l-.12-11.09c-.29-7.33,4.71-22.31,9.26-27.66,1.49.87,12.98,2.13,11.74,2.73Z" fill="#f2bd41"/><path d="M184.32,51.82c1.17,6.66-11.62,17.21-8.5,17.84,2.3.47,6.39-2.32,8.98-3.64.51,1.45-.32,2.18-.68,2.99-1.71.11-2.22,2.04-3.57,3.2-15.22,13.16-37.06,5.86-52.04,16.99l-5.77,4.29-6.17,5.77c-.68.64-.28,2.08-.26,2.68.03.76-.5,1.74-1.09,2.73l-2.55,4.33c-2.32-1.3-2.9-3.68-3.67-5.37.66-1.14-.09-1.9-.9-2.99-18.96-25.81-45.07-11.95-64.88-27.05-1.45-1.26-1.3-3.73-2.22-4.97l5.05,2.17c.88.38,2.09.2,2.25-.63.28-1.44-7.4-7.79-8.5-14.35-.43-2.58-2.17-10.2-.54-9.89,3.38,1.47,4.71,4.82,7.28,7.42,3.91,3.97,13.43,10.83,17.38,12.21l22.33,7.77c9.1,3.17,19.22,16.15,23.42,24.82.45.92.78,1.54,1.62,1.28.5-.16,1.03,0,1.52.11,1.98.45,1.01-1.13,5.02-7.19,4.62-6.99,9.89-13.26,16.79-18.14,12.6-8.91,21.14-3.97,33.61-14.25,4.8-3.96,9.26-7.92,13.03-13.01.63-.85,1.56-1.26,2.31-1.83.27,2.54.25,4.59.74,6.72Z" fill="#f2bd41"/><path d="M40.99,68.62c.93,1.25.77,3.71,2.22,4.97,19.82,15.1,45.92,1.25,64.88,27.05.8,1.09,1.56,1.86.9,2.99-3.37-3.2-16.92-15.03-21.61-13.1.48-2.2-13.01-3.68-14.37-2.95-1.38-1.6-3.6-1.38-5.78-1.76-3.93-.69-7.74-1.2-11.33-2.11-7.28-1.84-15.74-7.16-17.63-15.07.07-.55-.17-1.21.22-1.73.71,1.62,1.7,1.36,2.49,1.7Z" fill="#cc903e"/><path d="M122.99,137.81c-2.96,2.04-5.38,4.85-8.42,7.4-3.35,2.81-6.81-5-9.42-5.37-.4-.76-2.59-2.09-2.6-3.07.05-4.02,4.2-8.7,8.5-9.17,6.31-.69,11.78,4.55,11.93,10.21Z" fill="#d49438"/><path d="M173.06,80.88c-5.71,2.44-12.2,3.15-18.59,4.27l-8.62,1.52c-16.19,2.85-18.07,6.89-29.53,15.28-.02-.61-.43-2.05.26-2.68l6.17-5.77,5.77-4.29c14.98-11.13,36.82-3.83,52.04-16.99,1.35-1.16,1.86-3.09,3.57-3.2-.3.68-.12,1.75-.96,2.81-2.66,3.38-6.13,7.36-10.1,9.06Z" fill="#cc903e"/><path d="M125.09,143.73c-.46-.1-.95.02-1.47.15-.92.23-.36,1.4-.69,1.89-.35.53-1.22,1.02-1.03,1.87-2.42,1.03-4.75,7.94-9.73,6.97-2.17-.42-3.5-2.21-5.22-2.67-.76-1.97-2.69-3.38-3.73-5.21-.56-1-1.34-1.87-1.19-3.14,1.7-.75,3.45-1.61,3.12-3.77,2.61.37,6.07,8.18,9.42,5.37,3.04-2.55,5.46-5.36,8.42-7.4.09,3.39,1.82,3.26,2.1,5.92ZM118.55,146c-1.63,1.03-3.91,2.81-6.38,2.47-2.16-.29-3.64-2.01-5.92-3.5.8,2.65,2.91,6.72,6.75,6.89,2.87.13,4.44-3.11,5.54-5.87Z" fill="#6f3608"/><path d="M55.96,86.3c4,1.32,8.12,1.45,13.19,2.72l-7.15,3.7c1.24-.6-10.25-1.86-11.74-2.73.94-1.11,1.31-2.99,2.94-3.85.81-.43,2.1-.05,2.75.16Z" fill="#cc903e"/><path d="M172.21,85.6c.41.52.39,1.52.92,1.95-.18.62-.31,1.26-.38,1.91-.95.14-6.95,1.15-6.77,2.38-1.85.23-3.22-2.19-4.91-1.17-1.67-.53-3.49-1.5-5.15-2.59,6.51-.23,12.13-3.32,16.3-2.47Z" fill="#d49438"/><path d="M87.39,90.54l-.25,1.88c-.61-.33-1.44-.44-2.11-.58.17-.61-.17-.86-.61-.93-.55-.09-.99.07-1.39.07-.67,0-1.36-.03-2-.17.21-1.04-1.03-1.55-1.08-.23-1.83-.39-3.76-.35-5.64-.14v-.89c-.55-.57-.97-1.24-1.29-1.95,1.36-.73,14.85.75,14.37,2.95Z" fill="#5e3110"/><path d="M125.09,143.73c8.12,8.23,26.45,8.36,35.94,1.84-.35,4.57-15.6,6.52-21.1,6.19-7.21-.43-12.13-6.34-17.01-5.99.33-.49-.23-1.67.69-1.89.52-.13,1.01-.24,1.47-.15Z" fill="#eab957"/><path d="M172.86,132.73c1.23-2.64,2.72-5.64,3.04-9.02.4-4.22.23-13.09-1.39-16.47l-2.65-5.51c1.91.28,2.46,2.06,3.4,3.79,2.67,4.92,3.57,10.17,2.27,15.66-.54,2.3-2.38,12.36-4.66,11.56Z" fill="#eab957"/><path d="M96.02,147.59c.09.46.14,1.05-.12,1.51-.19.35-6.16,2.53-5.99,2.53-5.31.09-10.45.42-15.74-.12-2.68-.28-5.09-1.9-7.68-2.41s-4.17-3.19-6.38-4.06-2.14-2.56-3.09-3.73c11.78,7.86,13.09,10.21,27.94,9.28,4.12-.26,7.56-2.1,11.06-2.99Z" fill="#eab957"/><path d="M103.22,146.74c-1.76.04-3.53.02-5.28-.2.92-1.41,2.56-2.25,4.09-2.93-.15,1.26.62,2.14,1.19,3.14Z" fill="#eab957"/><path d="M165.98,91.83c.68,3.35,4.56,3.17,5.77,8.9-4.58-4.81-4.93-5.78-10.69-10.07,1.69-1.03,3.07,1.4,4.91,1.17Z" fill="#eab957"/><path d="M168.93,139.56l2.42-4.56c.44-.72.91-1.13,1.42-1.28-.75,4.47-3.28,5.4-3.84,5.83Z" fill="#eab957"/><path d="M74.31,90.44c-.43.05-.86.27-1.28.39.22-.6.67-1.08,1.27-1.28v.89Z" fill="#693f25"/><path d="M135.11,67.66c-.21.06-.37.39-.58.79-9.84,5.96-16.8,14.26-22.39,25.23-7.38-13.11-10.37-15.12-20.12-23.79-.39-1.35-2.05-1.57-3.22-3.71,9.98-4.03,20.45-5.03,31.21-4.2,2.6.2,14.44,2.85,14.91,3.51.36.52.24,1.45.18,2.16Z" fill="#f2bd41"/><path d="M110.88,57.75l5.25.02c2.97.01,5.95.4,8.9.79.66.09,1.35.13,2,.28.97.21,2,.49,3,.24,1.21,1.43,3.24,1.58,5,1.81.32.04.68.09,1,.07.13.92,1.26.88,2,.94.29.02.64.03.92-.05-.82,1.05,3.25.74,3.82,2.25-2.51,1.43-4.99,2.78-7.66,3.58.06-.71.18-1.65-.18-2.16-.47-.67-12.31-3.31-14.91-3.51-10.76-.84-21.23.17-31.21,4.2,1.17,2.15,2.82,2.36,3.22,3.71-1.14.05-8.62-4.02-10.8-5.43l4.91-2.68c1.04-.57,2.91.03,3.91-.94.49-.48,2.22.29,2.08-.88.62.02,1.26-.12,1.87-.16.73-.05,1.86.16,2.04-.77,4.98-.24,9.86-1.29,14.85-1.28Z" fill="#f1cc79"/><path d="M184.32,51.82c-.48-2.12-.46-4.18-.74-6.72-.75.57-1.68.97-2.31,1.83-3.77,5.09-8.23,9.05-13.03,13.01-12.47,10.28-21.01,5.34-33.61,14.25-6.9,4.88-12.17,11.15-16.79,18.14-4.01,6.06-3.04,7.63-5.02,7.19,6.65-15.94,17.66-28.36,35.12-33.98,1.29-.41,2.39-.93,3.04-1.56,15.29-3.6,24.05-10.3,33.11-24.75,1.68.58,1.76,12.81.23,12.59Z" fill="#f1cc79"/><path d="M111.3,99.41c-.84.26-1.18-.36-1.62-1.28-4.21-8.67-14.32-21.65-23.42-24.82l-22.33-7.77c-3.96-1.38-13.47-8.24-17.38-12.21-2.56-2.6-3.9-5.95-7.28-7.42-1.63-.31.1,7.31.54,9.89-2.14.21-3.03-12.85-.97-15.4,7.38,10.23,11.56,16.02,22.9,20.77,12.83,5.37,17.01,4.4,29.32,12.43,9.93,6.47,16.06,15.52,20.25,25.81Z" fill="#f1cc79"/><path d="M182.12,132.63c-.6,2.4-1,4.91-2.61,7.49-7.22,11.58-8.39,10.89-18.28,18.42-29.55,14.03-72.29,13.88-101.22-1.64-6.27-3.37-11-10.26-15.03-15.86-1.41-1.96-.97-3.96-1.77-5.36,1.55.04,2.11,1.53,3.04,2.88,17.59,25.41,58.9,27.2,86.88,23.47,17.55-2.34,37.62-9.78,45.99-26.34.77-1.52,1.32-3.12,3-3.07Z" fill="#d49438"/><path d="M206.02,151.88c-2.25,1.03-6.14,3.99-6.98,6.76-2.32.41-1.63,2.96-2.03,5.1-1.4,7.39-1.65,14.51.31,21.91-6.13,4.51-13.14,5.61-20.16,5.9.05-.79-.17-1.82-1.14-1.82v-6c1.16-.66,1.02-2.01.68-3.6l-1.27-5.81c-.66-3.02-2.43-5.74-1.8-8.64,9.89,1.15,11.49-3.58,15.83.79.8.8.92,2.59,2.56,2.25.49-.1,1.12.21,1.51,0,1.68-.91-1.55-3.01,2.98-12.34,3.35-6.9,1.96-12.08,2.83-18.49,3.53-1.07,6.15,1.42,6.62,5.01.42,3.17-.13,6.14.05,8.97Z" fill="#f3be3f"/><path d="M166.13,159.76c.07.43.38.78.72.98,3.81,12.89,4.28,7.23,5.47,21.87.26,3.23,2.6,6.04,1.7,9.12-1.41.11-2.21-1.1-3.07-2.03-2.67-9.63-6.79-17.95-9.73-27.77.56-.78,1.68-1.46,1.95-2.09.24.02.49-.02.73-.03.74-.03,1.48-.07,2.23-.05Z" fill="#52ae90"/><path d="M207.93,142.74l.08,8.02c.01,1.26-1.5.91-1.98,1.13-.19-2.82.36-5.8-.05-8.97-.47-3.59-3.09-6.08-6.62-5.01-.87,6.41.52,11.58-2.83,18.49-4.53,9.33-1.3,11.43-2.98,12.34-.38.21-1.02-.1-1.51,0-1.1-7.52,4.15-14.47,4.74-18.26.79-5.12.34-10.14.68-15.23,7.11-3.74,9.25,6.33,10.49,7.49Z" fill="#eab957"/><path d="M189.46,166.48c-4.34-4.37-5.94.36-15.83-.79-.63,2.91,1.15,5.62,1.8,8.64l1.27,5.81c.34,1.58.48,2.94-.68,3.6-.18-.47-.53-.82-1-1,.12-5.57-1.09-11.26-3.9-16.08-1.03-1.77-1.71-3.73-2.12-5.72,8.2.71,10.54,3.24,20.7-1.09l-.25,6.64Z" fill="#f1cc79"/><path d="M169.01,160.93c.41,2,1.09,3.96,2.12,5.72-.37,3.51,1.82,8.76,2.84,14.19.23,1.23-.18,2.78,1.06,2.89.07,1.33-.6,3.45,1,4v7l-2,1c-.2-1.2-.36-2.77,0-4,.9-3.07-1.44-5.89-1.7-9.12-1.19-14.63-1.66-8.98-5.47-21.87l2.16.19Z" fill="#493d24"/><path d="M210.82,153.37c2.47.55,5.71-.99,7.94.6l4.08,2.91c-.07,1.23-.1,2.47-.07,3.7l-1.57-.91c-.68-6.72-9.84-4.94-14.26-4.16,1.21-.36,2.37-2.48,3.88-2.14Z" fill="#f1cc79"/><path d="M166.13,159.76c-.74-.02-1.49.02-2.23.05-.47-.67-.11-1.61.63-2.08.47-.3,1.22-.09,1.48.5.17.39-.06,1.04.12,1.53Z" fill="#493d24"/><path d="M174.17,89.73l-1.42-.28c.07-.65.2-1.28.38-1.91.71.56.59,1.55,1.03,2.19Z" fill="#653511"/><path d="M161.22,158.54l-.08,1.17c-.9.99-1.91,2.45-2.02,3.82.21-1.58-6.16,1.14-6.18,2.04-1.46.12-3.24.36-5.05.98-7.76,2.66-15.61,3.66-23.83,4.48-13.04,1.3-25.52-.09-38.02-1.35-2.15-.22-4.88-3.31-6.96-1.03-.87-.89-1.9-1.58-3.12-1.86-.38-.14-.64-.68-.94-.94-.02-.32.32-1.43-.27-1.75,1.16.64-10.49-3.04-10.17-1.71-.41,1.14-.51,2.22-.69,3.22-1.03-.85-1.95-1.8-2.84-2.8-.17-.41-.07-1.02-.31-1.39-.99-1.32-1.4-2.95-.75-4.51,28.92,15.52,71.66,15.66,101.22,1.64Z" fill="#6f3608"/><path d="M41.13,128.74c-1.68.95-1.56-11.77-.12-11.09l.12,11.09Z" fill="#6f3608"/><path d="M223.06,166.72l.27.9c.77,2.52,1.32,7.28-2.14,8.04.99-2.05-7.29-.36-15.11-3-1.53-.52-2.87-.68-4.04-.03-2-7.5,17.27-7.44,21.02-5.89Z" fill="#efba47"/><path d="M221.2,159.67l1.57.91c.02.78.18,1.54.31,2.31.04.26-.04.53-.02.79-6.41-1.13-15.89.75-19.06.75-2.26,0-2.99-4.98-1.02-5.81.01.47.41.85,1.18,1.08l17.05-.04Z" fill="#d49438"/><path d="M221.2,159.67l-17.05.04c-.76-.24-1.16-.61-1.18-1.08.42-1.99,2.26-2.61,3.97-3.11,4.41-.78,13.57-2.56,14.26,4.16Z" fill="#f2bd41"/><path d="M220.12,184.65c-.62.38-1.5.86-2.06,1.28-.19-5.75-3.47,3.08-14.89-5.23.27-.43.02-1.57.64-1.75,1.14-.33,10.44,2.81,17.14.8.27,2.18-.7,3.43-.83,4.9Z" fill="#efba47"/><path d="M221.19,175.65c-1.4,3.9-17.71,2.34-19.15-3.04,1.17-.64,2.51-.48,4.04.03,7.82,2.65,16.1.95,15.11,3Z" fill="#cc903e"/><path d="M218.06,185.92c-.75.93-1.71,1.6-2.96,1.77-3.8.35-7.98,0-11.18-2.81-1.44-1.26-1.88-3.16-.75-4.2,11.42,8.31,14.7-.52,14.89,5.23Z" fill="#cc903e"/><path d="M135.03,60.88c-1.76-.22-3.79-.38-5-1.81.99-.24,1.97-.57,3.17-.24.83.23,1.69.94,1.83,2.04Z" fill="#653511"/><path d="M116.13,57.77l-5.25-.02c1.03-1.63,4.26-1.68,5.25.02Z" fill="#653511"/><path d="M138.03,61.88c-.74-.06-1.87-.02-2-.94.41-.03.86-.15,1.4-.06.46.08.74.42.6,1Z" fill="#653511"/><path d="M92.11,59.96c.14,1.18-1.6.41-2.08.88-.17-.63.2-.88.62-.94.6-.09,1.05.04,1.46.06Z" fill="#653511"/><path d="M96.03,59.02c-.19.94-1.32.72-2.04.77-.16-1.19,1.39-.74,2.04-.77Z" fill="#653511"/><path d="M127.03,58.83c-.65-.14-1.34-.19-2-.28-.12-.8.84-1.12,1.49-.82.43.19.66.6.51,1.1Z" fill="#653511"/><path d="M75.03,165.85c.3.27.56.8.94.94,2.95,12.46,2.31,27.09-7.88,37.39,1.58-15.02,5.72-21.02-.09-35.52-.25-.61-.24-1.36-.84-1l.04-.93c.04-.85-.38-1.59-.84-2.62,4.44-.48,5.13,1.8,8.68,1.74Z" fill="#52ae90"/><path d="M67.2,166.72l-.04.93c-.06,1.38-.3,2.78-.32,4.16-1.55-1.28-1.66-3.55-2.92-5.08h3.28Z" fill="#6f3608"/><path d="M68.07,181.82c-.91.36-.99-.93-1.06-1.6-.07-.61.49-1.17.97-1.57l.09,3.17Z" fill="#d49438"/><path d="M75.03,165.85c-3.54.06-4.24-2.22-8.68-1.74.46,1.03.88,1.77.84,2.62h-3.28c.04-.37-.08-.76-.01-1.13.18-1,.27-2.08.69-3.22-.33-1.33,11.32,2.35,10.17,1.71.6.33.26,1.44.27,1.75Z" fill="#5a341b"/><path d="M177.17,191.55c-.09,1.4-.18,2.79-.36,4.18-.53.04-.78-.54-.78-1v-5c.97,0,1.19,1.02,1.14,1.82Z" fill="#653511"/><path d="M158.78,118.27c0,8.95-7.25,16.2-16.2,16.2s-16.2-7.25-16.2-16.2,7.25-16.2,16.2-16.2,16.2,7.25,16.2,16.2ZM133.02,114.79c-1.96,3.4-.88,7.35,1.37,10.1,4.65,5.69,14.2,4.34,14.49.61.02-.21.15-.85.79-.92,2.85-.3,5.81-7.85.49-13.5-2.58-2.74-6.53-4.04-11.09-2.95-1.57.37-3.65-.21-5.16,1.41-1.18,1.26-1.01,3.08-.89,5.26Z" fill="#48b5a0"/><path d="M98.51,119.07c0,8.97-7.28,16.25-16.25,16.25s-16.25-7.28-16.25-16.25,7.28-16.25,16.25-16.25,16.25,7.28,16.25,16.25ZM72.5,115.73c-1.51,4.21-.36,8.94,3.8,11.72,3.1,2.07,7.74,3.09,11.32.95,5.36-3.19,6.69-10.68,3.21-15.67-2.59-3.72-7.06-4.84-11.65-3.75-1.7.41-3.56-.07-5.03,1.27-1.28,1.18-1.73,2.84-1.65,5.47Z" fill="#48b5a0"/><path d="M85.03,91.84c-.73-.16-1.77.08-2-.86.39,0,.83-.16,1.39-.07.45.07.78.32.61.93Z" fill="#693f25"/><path d="M81.03,90.81l-1.08-.23c.06-1.31,1.3-.8,1.08.23Z" fill="#693f25"/><path d="M106.95,151.95c1.73.46,3.05,2.24,5.22,2.67,4.98.97,7.31-5.94,9.73-6.97.6,2.6-3.01,4.1-4.2,6.63s-4.19,4.02-6.52,3.14-4.03-2.91-4.23-5.47Z" fill="#eab957"/><path d="M118.55,146c-1.11,2.75-2.68,5.99-5.54,5.87-3.84-.17-5.96-4.25-6.75-6.89,2.27,1.49,3.75,3.21,5.92,3.5,2.47.33,4.75-1.44,6.38-2.47Z" fill="#cc903e"/><path d="M176.03,183.73v4c-1.6-.55-.93-2.67-1-4-.02-.33,0-.67,0-1,.47.18.82.53,1,1Z" fill="#653511"/><path d="M175.03,182.73c0,.33-.02.67,0,1-1.24-.1-.83-1.65-1.06-2.89-1.02-5.43-3.21-10.67-2.84-14.19,2.81,4.82,4.01,10.51,3.9,16.08Z" fill="#5a341b"/><path d="M149.68,124.58c-.07-.34-.2-.76-.45-1.31-.57-1.25-1.77-1.58-2.81-.82-.64.46-1.02,1.83.2,2.62.79.51,1.66.33,2.27.43-.3,3.74-9.84,5.08-14.49-.61-2.25-2.75-3.33-6.71-1.37-10.1,1.26,1.08,2.87,2.13,4.34,1.76,1.81-.45,3.69-1.62,3.77-3.79.07-2.03-1.42-3.28-2.05-4.63,4.55-1.08,8.5.21,11.09,2.95,5.33,5.65,2.36,13.2-.49,13.5Z" fill="#1b6056"/><path d="M139.08,108.12c.63,1.35,2.12,2.6,2.05,4.63-.08,2.17-1.96,3.34-3.77,3.79-1.46.36-3.08-.68-4.34-1.76-.12-2.18-.28-3.99.89-5.26,1.51-1.62,3.59-1.03,5.16-1.41Z" fill="#f7f9f5"/><path d="M149.68,124.58c-.63.07-.77.71-.79.92-.61-.1-1.48.08-2.27-.43-1.22-.79-.84-2.16-.2-2.62,1.04-.76,2.24-.43,2.81.82.25.55.37.96.45,1.31Z" fill="#c5d4d4"/><path d="M72.5,115.73c2.24.98,4.4,2.88,6.94.72s1.13-5.23-.25-7.46c4.59-1.1,9.06.03,11.65,3.75,3.47,4.99,2.14,12.47-3.21,15.67-3.58,2.13-8.22,1.12-11.32-.95-4.16-2.78-5.31-7.51-3.8-11.72ZM88.91,124.51c0-.88-.72-1.6-1.6-1.6s-1.6.72-1.6,1.6.72,1.6,1.6,1.6,1.6-.72,1.6-1.6Z" fill="#1b6056"/><path d="M79.19,108.99c1.38,2.23,2.78,5.29.25,7.46s-4.7.27-6.94-.72c-.08-2.62.37-4.29,1.65-5.47,1.47-1.34,3.33-.87,5.03-1.27Z" fill="#f7f9f5"/><circle cx="87.31" cy="124.51" r="1.6" fill="#c5d4d4"/></svg>