<?xml version="1.0" encoding="UTF-8"?>
<svg id="Layer_2" data-name="Layer 2" xmlns="http://www.w3.org/2000/svg" xmlns:xlink="http://www.w3.org/1999/xlink" viewBox="0 0 59.96 69.46">
  <defs>
    <style>
      .cls-1 {
        fill: #fff;
      }

      .cls-2 {
        fill: url(#linear-gradient);
      }
    </style>
    <linearGradient id="linear-gradient" x1="19.85" y1="36.62" x2="59.96" y2="36.62" gradientUnits="userSpaceOnUse">
      <stop offset="0" stop-color="#fbbf24"/>
      <stop offset="1" stop-color="#fbbf24"/>
    </linearGradient>
  </defs>
  <g id="oontent">
    <g>
      <path class="cls-1" d="M40.19,52.22l4.26,5.76c-4.4,7.65-11.17,11.48-20.31,11.48-6.68,0-12.38-2.36-17.09-7.06C2.35,57.69,0,52,0,45.31c0-10.66,5.25-18.21,15.73-22.64v7.01c-6.23,3.53-9.35,8.74-9.35,15.63,0,4.88,1.73,9.03,5.19,12.44,3.46,3.41,7.65,5.12,12.57,5.12,7.58,0,12.93-3.55,16.05-10.65"/>
      <path class="cls-2" d="M19.86,13.43s.08-1.09,3.09-1.02c3.01.07,3.19,1.02,3.19,1.02l.05,8.65c5.09,0,8.57,1.32,12.48,4.23,0,0,.11,1.89-.56,2.79-.67.89-2.73,1.25-2.73,1.25-2.53-1.94-5.61-2.91-9.24-2.91v10.34s-.17,1,.83,1,13.03.11,14.59.11,1.82.98,1.82.98l10.55,14.17,3.01-2.45s1.02-.42,2.23.78c1.21,1.2.68,2.54.68,2.54l-7.74,5.92-11.95-15.53h-18.76c-1.22,0-1.56-1.4-1.56-1.4l.02-30.49Z"/>
      <path class="cls-1" d="M28.07,5.17c0,2.86-2.32,5.17-5.17,5.17s-5.17-2.31-5.17-5.17S20.04,0,22.9,0s5.17,2.32,5.17,5.17"/>
    </g>
  </g>
</svg>