<?xml version="1.0" encoding="UTF-8"?>
<svg id="Layer_2" data-name="Layer 2" xmlns="http://www.w3.org/2000/svg" xmlns:xlink="http://www.w3.org/1999/xlink" viewBox="0 0 87.04 56.34">
  <defs>
    <style>
      .cls-1 {
        fill: #fff;
      }

      .cls-2 {
        fill: url(#linear-gradient);
      }
    </style>
    <linearGradient id="linear-gradient" x1="10.38" y1="42.17" x2="36.29" y2="-2.7" gradientUnits="userSpaceOnUse">
      <stop offset=".3" stop-color="#2dd4bf"/>
      <stop offset="1" stop-color="#0d9488"/>
    </linearGradient>
  </defs>
  <g id="oontent">
    <g>
      <path class="cls-1" d="M46.3,6.02s-7.85,23.9-2.22,40.12c5.63,16.22,20.08,8.94,23.56,6.15,3.93-3.16,15.02-14.17,19.39-34.48-25.54,5.46-40.73-11.78-40.73-11.78ZM48,22.88c1.54-2.42,10.98-.36,10,6.37l-10-6.37ZM49.55,39.14c2.43,2.94,9.56,7.09,16.9,4.95-10.07,9.13-16.9-.34-16.9-4.95ZM64.57,30.94c0-2.81,8.88-6.07,11.61,0h-11.61Z"/>
      <path class="cls-2" d="M42.89,7.17l-1.92-7.17C21.77,16.9,0,8.96,0,8.96c0,0,2.95,22.28,16.26,35.59,13.32,13.32,23.69-.38,23.69-3.07-2.95-9.99,1.02-33.54,2.94-34.31ZM10.11,23.94l9.73-4.87c1.79,6.53-8.58,7.55-9.73,4.87ZM19.97,42.76c0-3.97,7.81-12.42,16.9-4.1-11.17-1.92-15.62,2.82-16.9,4.1ZM27.04,17l10.87.38c-1.55,6.59-11.15,2.53-10.87-.38Z"/>
    </g>
  </g>
</svg>