<?xml version="1.0" encoding="UTF-8"?>
<svg id="Layer_2" data-name="Layer 2" xmlns="http://www.w3.org/2000/svg" xmlns:xlink="http://www.w3.org/1999/xlink" viewBox="0 0 68.62 68.84">
  <defs>
    <style>
      .cls-1 {
        fill: url(#linear-gradient-2);
      }

      .cls-2 {
        fill: #fff;
      }

      .cls-3 {
        fill: url(#linear-gradient-5);
      }

      .cls-3, .cls-4 {
        fill-rule: evenodd;
      }

      .cls-5 {
        fill: url(#linear-gradient-3);
        opacity: .11;
      }

      .cls-4 {
        fill: url(#linear-gradient-4);
      }

      .cls-6 {
        fill: url(#linear-gradient-6);
      }

      .cls-7 {
        fill: url(#linear-gradient);
      }
    </style>
    <linearGradient id="linear-gradient" x1="8.79" y1="60.18" x2="8.79" y2="68.84" gradientUnits="userSpaceOnUse">
      <stop offset=".3" stop-color="#9333ea"/>
      <stop offset="1" stop-color="#7e22ce"/>
    </linearGradient>
    <linearGradient id="linear-gradient-2" x1="51.08" x2="51.08" xlink:href="#linear-gradient"/>
    <linearGradient id="linear-gradient-3" x1="149.82" y1="251.04" x2="155.1" y2="251.04" gradientTransform="translate(-60.04 -248.56) rotate(10)" gradientUnits="userSpaceOnUse">
      <stop offset="0" stop-color="#333"/>
      <stop offset="1" stop-color="#000"/>
    </linearGradient>
    <linearGradient id="linear-gradient-4" x1="155.04" y1="225.97" x2="157.48" y2="239.82" gradientTransform="translate(-60.04 -248.56) rotate(10)" xlink:href="#linear-gradient"/>
    <linearGradient id="linear-gradient-5" x1="165.14" y1="227.79" x2="166.64" y2="236.32" gradientTransform="translate(-60.04 -248.56) rotate(10)" xlink:href="#linear-gradient"/>
    <linearGradient id="linear-gradient-6" x1="29.94" y1="16.51" x2="29.94" y2="28.79" xlink:href="#linear-gradient"/>
  </defs>
  <g id="oontent">
    <g>
      <path class="cls-2" d="M28.58,56.58l-.06-2.73c-1.94-.05-3.83-.56-4.95-1.14l.81-3.41c1.22.65,2.94,1.21,4.82,1.17,1.68-.04,2.79-.73,2.77-1.85-.02-1.1-.97-1.78-3.15-2.45-3.11-.97-5.26-2.38-5.32-5.17-.06-2.58,1.7-4.61,4.77-5.25l-.06-2.75,2.83-.06.05,2.54c1.91.02,3.21.43,4.24.87l-.8,3.28c-.73-.33-2.1-.96-4.18-.92-1.88.04-2.47.9-2.45,1.7.02.93,1.04,1.54,3.55,2.39,3.47,1.14,4.86,2.7,4.92,5.33.06,2.58-1.69,4.81-5,5.43l.06,2.97-2.86.06Z"/>
      <path class="cls-2" d="M38.48,60.16h-17.09c-.48,0-.87.39-.87.87s.39.87.87.87h17.09c.48,0,.87-.39.87-.87s-.39-.87-.87-.87Z"/>
      <path class="cls-2" d="M38.48,63.63h-17.09c-.48,0-.87.39-.87.87s.39.87.87.87h17.09c.48,0,.87-.39.87-.87s-.39-.87-.87-.87Z"/>
      <path class="cls-2" d="M38.48,67.1h-17.09c-.48,0-.87.39-.87.87s.39.87.87.87h17.09c.48,0,.87-.39.87-.87s-.39-.87-.87-.87Z"/>
      <path class="cls-7" d="M14.83,60.18H2.75c-1.46,0-2.65,1.19-2.65,2.65v3.36c0,1.46,1.19,2.65,2.65,2.65h12.08c1.47,0,2.65-1.19,2.65-2.65v-3.36c0-1.46-1.19-2.65-2.65-2.65Z"/>
      <path class="cls-1" d="M45.04,60.18h12.08c1.46,0,2.65,1.19,2.65,2.65v3.36c0,1.46-1.19,2.65-2.65,2.65h-12.08c-1.46,0-2.65-1.19-2.65-2.65v-3.36c0-1.46,1.19-2.65,2.65-2.65Z"/>
      <path class="cls-2" d="M11.82,31.32h3.25c1.37,0,2.48,1.11,2.48,2.48v21.51c0,1.37-1.11,2.48-2.48,2.48h-3.25c-1.37,0-2.48-1.11-2.48-2.48v-21.5c0-1.37,1.11-2.48,2.48-2.48Z"/>
      <path class="cls-2" d="M44.8,57.78h3.25c1.38,0,2.48-1.11,2.48-2.48v-21.5c0-1.37-1.11-2.48-2.48-2.48h-3.25c-1.37,0-2.48,1.11-2.48,2.48v21.5c0,1.37,1.11,2.48,2.48,2.48Z"/>
      <path class="cls-5" d="M49.13,25.59c-.04.24-1.24.23-2.68-.02-1.44-.25-2.57-.65-2.52-.9.04-.24,1.24-.23,2.68.02,1.44.25,2.57.66,2.52.89Z"/>
      <g>
        <path class="cls-4" d="M58.32,2.85c-.09-.19-.2-.37-.36-.5-1.84-1.53-7.6-2.02-9.56-.64-.03.02,1.2,2.65,1.1,6.06-.1,3.41-1.47,7.25-1.35,7.19,1.29-.61,7.06-3.1,9.35-2.72,1.18-2.92,1.58-7.14.83-9.38Z"/>
        <path class="cls-3" d="M59.26,4.5c-.12-.03-.22-.05-.29-.06.26,2.63-.32,6.26-1.49,8.65h0c7.11-.53,11.15-7.66,11.15-7.66-4.11.85-7.24-.19-9.36-.93Z"/>
      </g>
      <path class="cls-2" d="M47.81,25.22l.66-23.19c.18-.19.31-.47.33-.78.05-.65-.36-1.21-.9-1.25-.55-.04-1.04.45-1.09,1.1-.03.38.1.73.33.96l-.65,23s.16.08.67.17c.44.08.65-.02.65-.02Z"/>
      <path class="cls-6" d="M1.69,28.79h56.5c.84,0,1.55-.61,1.67-1.44.13-.82-.37-1.62-1.16-1.86l-28.24-8.89c-.33-.11-.69-.11-1.01,0L1.18,25.49c-.8.25-1.29,1.04-1.16,1.86.13.83.84,1.44,1.67,1.44Z"/>
    </g>
  </g>
</svg>