<?xml version="1.0" encoding="UTF-8"?>
<svg id="Layer_2" data-name="Layer 2" xmlns="http://www.w3.org/2000/svg" xmlns:xlink="http://www.w3.org/1999/xlink" viewBox="0 0 62.5 54.61">
  <defs>
    <style>
      .cls-1 {
        fill: url(#linear-gradient-2);
      }

      .cls-2 {
        fill: #fff;
      }

      .cls-3 {
        fill: url(#linear-gradient-4);
      }

      .cls-4 {
        fill: url(#linear-gradient-3);
      }

      .cls-5 {
        fill: url(#linear-gradient-5);
      }

      .cls-6 {
        fill: url(#linear-gradient-6);
      }

      .cls-7 {
        fill: url(#linear-gradient);
      }
    </style>
    <linearGradient id="linear-gradient" x1="21.42" y1="46.46" x2="41.07" y2="46.46" gradientUnits="userSpaceOnUse">
      <stop offset=".3" stop-color="#9333ea"/>
      <stop offset="1" stop-color="#7e22ce"/>
    </linearGradient>
    <linearGradient id="linear-gradient-2" y1="50.08" y2="50.08" xlink:href="#linear-gradient"/>
    <linearGradient id="linear-gradient-3" y1="53.7" y2="53.7" xlink:href="#linear-gradient"/>
    <linearGradient id="linear-gradient-4" x1=".11" y1="50.09" x2="18.25" y2="50.09" xlink:href="#linear-gradient"/>
    <linearGradient id="linear-gradient-5" x1="44.24" y1="50.09" x2="62.38" y2="50.09" xlink:href="#linear-gradient"/>
    <linearGradient id="linear-gradient-6" x1="0" y1="6.4" x2="62.5" y2="6.4" xlink:href="#linear-gradient"/>
  </defs>
  <g id="oontent">
    <g>
      <path class="cls-7" d="M40.16,45.55h-17.83c-.5,0-.91.41-.91.91s.41.91.91.91h17.83c.51,0,.91-.41.91-.91s-.41-.91-.91-.91Z"/>
      <path class="cls-1" d="M40.16,49.17h-17.83c-.5,0-.91.41-.91.91s.41.91.91.91h17.83c.51,0,.91-.41.91-.91s-.41-.91-.91-.91Z"/>
      <path class="cls-4" d="M40.16,52.79h-17.83c-.5,0-.91.41-.91.91s.41.91.91.91h17.83c.51,0,.91-.4.91-.91s-.41-.91-.91-.91Z"/>
      <path class="cls-3" d="M15.48,45.57H2.87c-1.52,0-2.76,1.25-2.76,2.77v3.51c0,1.52,1.24,2.76,2.76,2.76h12.61c1.53,0,2.77-1.24,2.77-2.76v-3.51c0-1.52-1.24-2.77-2.77-2.77Z"/>
      <path class="cls-5" d="M59.61,45.57h-12.61c-1.52,0-2.76,1.25-2.76,2.77v3.51c0,1.52,1.24,2.76,2.76,2.76h12.61c1.53,0,2.77-1.24,2.77-2.76v-3.51c0-1.52-1.24-2.77-2.77-2.77Z"/>
      <path class="cls-2" d="M15.73,15.44h-3.39c-1.43,0-2.59,1.17-2.59,2.6v22.44c0,1.43,1.16,2.59,2.59,2.59h3.39c1.43,0,2.59-1.16,2.59-2.59v-22.44c0-1.43-1.16-2.6-2.59-2.6Z"/>
      <path class="cls-2" d="M46.76,43.07h3.39c1.44,0,2.59-1.16,2.59-2.59v-22.44c0-1.44-1.15-2.6-2.59-2.6h-3.39c-1.43,0-2.59,1.16-2.59,2.6v22.44c0,1.43,1.16,2.59,2.59,2.59Z"/>
      <path class="cls-6" d="M1.76,12.81h58.97c.87,0,1.61-.63,1.75-1.5.13-.85-.38-1.69-1.22-1.94L31.78.08c-.34-.11-.72-.11-1.06,0L1.23,9.36c-.83.25-1.35,1.09-1.21,1.94.13.87.87,1.5,1.74,1.5Z"/>
      <path class="cls-2" d="M30.6,41.57l-.06-2.73c-1.94-.05-3.83-.56-4.95-1.14l.81-3.41c1.22.65,2.94,1.21,4.82,1.17,1.68-.04,2.79-.73,2.77-1.85-.02-1.1-.97-1.78-3.15-2.45-3.11-.97-5.26-2.38-5.32-5.17-.06-2.58,1.7-4.61,4.77-5.25l-.06-2.75,2.83-.06.05,2.54c1.91.02,3.21.43,4.24.87l-.8,3.28c-.73-.33-2.1-.96-4.18-.92-1.88.04-2.47.9-2.45,1.7.02.93,1.04,1.54,3.55,2.39,3.47,1.14,4.86,2.7,4.92,5.33.06,2.58-1.69,4.81-5,5.43l.06,2.97-2.86.06Z"/>
    </g>
  </g>
</svg>