<?xml version="1.0" encoding="UTF-8"?>
<svg id="Layer_2" data-name="Layer 2" xmlns="http://www.w3.org/2000/svg" xmlns:xlink="http://www.w3.org/1999/xlink" viewBox="0 0 58.7 68.06">
  <defs>
    <style>
      .cls-1 {
        fill: url(#linear-gradient-2);
      }

      .cls-2 {
        fill: #fff;
      }

      .cls-3 {
        fill: url(#linear-gradient-4);
      }

      .cls-4 {
        fill: url(#linear-gradient-3);
      }

      .cls-5 {
        fill: url(#linear-gradient-5);
      }

      .cls-6 {
        fill: url(#linear-gradient);
      }
    </style>
    <linearGradient id="linear-gradient" x1="30.68" y1="44.38" x2="35.03" y2="44.38" gradientUnits="userSpaceOnUse">
      <stop offset=".3" stop-color="#9333ea"/>
      <stop offset="1" stop-color="#7e22ce"/>
    </linearGradient>
    <linearGradient id="linear-gradient-2" x1="7.23" x2="11.58" xlink:href="#linear-gradient"/>
    <linearGradient id="linear-gradient-3" x1="18.95" x2="23.3" xlink:href="#linear-gradient"/>
    <linearGradient id="linear-gradient-4" x1="45.16" y1="37.03" x2="58.7" y2="37.03" xlink:href="#linear-gradient"/>
    <linearGradient id="linear-gradient-5" x1="21.13" y1="20.78" x2="21.13" y2="68.06" xlink:href="#linear-gradient"/>
  </defs>
  <g id="oontent">
    <g>
      <path class="cls-6" d="M32.85,60.25c1.2,0,2.18-.97,2.18-2.18v-27.39c0-1.2-.97-2.17-2.18-2.17s-2.18.97-2.18,2.17v27.39c0,1.21.97,2.18,2.18,2.18Z"/>
      <path class="cls-1" d="M9.4,28.5c-1.2,0-2.17.97-2.17,2.17v27.39c0,1.21.97,2.18,2.17,2.18s2.18-.97,2.18-2.18v-27.39c0-1.2-.97-2.17-2.18-2.17Z"/>
      <path class="cls-4" d="M21.13,60.25c1.2,0,2.17-.97,2.17-2.18v-27.39c0-1.2-.97-2.17-2.17-2.17s-2.18.97-2.18,2.17v27.39c0,1.21.98,2.18,2.18,2.18Z"/>
      <path class="cls-3" d="M51.32,20.88h-2.97c-1.76,0-3.19,1.43-3.19,3.2s1.43,3.2,3.19,3.2h2.97c.54,0,.99.44.99.98v17.54c0,.54-.44.99-.99.99h-2.97c-1.76,0-3.19,1.43-3.19,3.2s1.43,3.19,3.19,3.19h2.97c4.07,0,7.38-3.31,7.38-7.38v-17.54c0-4.07-3.31-7.38-7.38-7.38Z"/>
      <path class="cls-5" d="M4.38,20.78H0v42.33c0,2.73,2.21,4.95,4.94,4.95h32.38c2.73,0,4.94-2.21,4.94-4.95V20.78H4.38Z"/>
      <path class="cls-2" d="M11.58,58.06c0,1.21-.97,2.18-2.18,2.18s-2.17-.97-2.17-2.18v-27.39c0-1.2.97-2.17,2.17-2.17s2.18.97,2.18,2.17v27.39Z"/>
      <path class="cls-2" d="M30.68,30.68c0-1.2.97-2.17,2.18-2.17s2.18.97,2.18,2.17v27.39c0,1.21-.97,2.18-2.18,2.18s-2.18-.97-2.18-2.18v-27.39Z"/>
      <path class="cls-2" d="M18.95,30.68c0-1.2.98-2.17,2.18-2.17s2.17.97,2.17,2.17v27.39c0,1.21-.97,2.18-2.17,2.18s-2.18-.97-2.18-2.18v-27.39Z"/>
      <path class="cls-2" d="M4.38,14.09c0-3.72,3.39-6.23,8.41-6.23,2.39,0,3.51.44,4.79.95,1.29.51,2.76,1.09,5.2,1.09,3.57,0,5.46-1.79,6.97-3.23,1.4-1.33,2.41-2.29,4.79-2.29,2.01,0,3.32,1.34,3.32,3.41v5.92c0,1.21.97,2.18,2.17,2.18s2.18-.97,2.18-2.18h.03v-5.92c0-4.51-3.24-7.78-7.7-7.78-4.13,0-6.17,1.94-7.81,3.49-1.28,1.22-2.13,2.03-3.95,2.03-1.61,0-2.44-.33-3.59-.78-1.41-.56-3.17-1.25-6.4-1.25C4,3.49,0,8.98,0,14.09v3.56h4.38v-3.56Z"/>
    </g>
  </g>
</svg>