<?xml version="1.0" encoding="UTF-8"?>
<svg id="Layer_2" data-name="Layer 2" xmlns="http://www.w3.org/2000/svg" xmlns:xlink="http://www.w3.org/1999/xlink" viewBox="0 0 71.26 79.59">
  <defs>
    <style>
      .cls-1 {
        fill: url(#linear-gradient-2);
      }

      .cls-2 {
        fill: #fff;
      }

      .cls-3 {
        fill: #231f20;
      }

      .cls-4 {
        fill: url(#linear-gradient);
      }
    </style>
    <linearGradient id="linear-gradient" x1="58.36" y1="23.95" x2="58.36" y2="79.59" gradientUnits="userSpaceOnUse">
      <stop offset=".3" stop-color="#2dd4bf"/>
      <stop offset="1" stop-color="#0d9488"/>
    </linearGradient>
    <linearGradient id="linear-gradient-2" x1="35.29" y1="0" x2="35.29" xlink:href="#linear-gradient"/>
  </defs>
  <g id="oontent">
    <g>
      <polygon class="cls-4" points="71.26 23.95 71.26 79.59 61.29 79.59 48.77 79.59 45.46 79.59 45.46 23.95 61.29 23.95 71.26 23.95"/>
      <rect class="cls-3" x="63.09" y="70.56" width="3.61" height="3.32"/>
      <rect class="cls-3" x="63.09" y="65.59" width="3.61" height="3.32"/>
      <rect class="cls-3" x="63.09" y="60.8" width="3.61" height="3.32"/>
      <rect class="cls-3" x="63.09" y="56.01" width="3.61" height="3.32"/>
      <rect class="cls-3" x="63.09" y="51.4" width="3.61" height="3.32"/>
      <rect class="cls-3" x="63.09" y="46.61" width="3.61" height="3.32"/>
      <rect class="cls-3" x="63.09" y="41.82" width="3.61" height="3.32"/>
      <rect class="cls-3" x="63.09" y="36.85" width="3.61" height="3.32"/>
      <rect class="cls-3" x="63.09" y="32.06" width="3.61" height="3.32"/>
      <rect class="cls-3" x="63.09" y="27.27" width="3.61" height="3.32"/>
      <rect class="cls-3" x="57.4" y="70.56" width="3.61" height="3.32"/>
      <rect class="cls-3" x="57.4" y="65.59" width="3.61" height="3.32"/>
      <rect class="cls-3" x="57.4" y="60.8" width="3.61" height="3.32"/>
      <rect class="cls-3" x="57.4" y="56.01" width="3.61" height="3.32"/>
      <rect class="cls-3" x="57.4" y="51.4" width="3.61" height="3.32"/>
      <rect class="cls-3" x="57.4" y="46.61" width="3.61" height="3.32"/>
      <rect class="cls-3" x="57.4" y="41.82" width="3.61" height="3.32"/>
      <rect class="cls-3" x="57.4" y="36.85" width="3.61" height="3.32"/>
      <rect class="cls-3" x="57.4" y="32.06" width="3.61" height="3.32"/>
      <rect class="cls-3" x="57.4" y="27.27" width="3.61" height="3.32"/>
      <rect class="cls-3" x="51.04" y="70.56" width="3.61" height="3.32"/>
      <rect class="cls-3" x="51.04" y="65.59" width="3.61" height="3.32"/>
      <rect class="cls-3" x="51.04" y="60.8" width="3.61" height="3.32"/>
      <rect class="cls-3" x="51.04" y="56.01" width="3.61" height="3.32"/>
      <rect class="cls-3" x="51.04" y="51.4" width="3.61" height="3.32"/>
      <rect class="cls-3" x="51.04" y="46.61" width="3.61" height="3.32"/>
      <rect class="cls-3" x="51.04" y="41.82" width="3.61" height="3.32"/>
      <rect class="cls-3" x="51.04" y="36.85" width="3.61" height="3.32"/>
      <rect class="cls-3" x="51.04" y="32.06" width="3.61" height="3.32"/>
      <rect class="cls-3" x="51.04" y="27.27" width="3.61" height="3.32"/>
      <rect class="cls-3" x="63.09" y="70.56" width="3.61" height="3.32"/>
      <rect class="cls-3" x="63.09" y="65.59" width="3.61" height="3.32"/>
      <rect class="cls-3" x="63.09" y="60.8" width="3.61" height="3.32"/>
      <rect class="cls-3" x="63.09" y="56.01" width="3.61" height="3.32"/>
      <rect class="cls-3" x="63.09" y="51.4" width="3.61" height="3.32"/>
      <rect class="cls-3" x="63.09" y="46.61" width="3.61" height="3.32"/>
      <rect class="cls-3" x="63.09" y="41.82" width="3.61" height="3.32"/>
      <rect class="cls-3" x="63.09" y="36.85" width="3.61" height="3.32"/>
      <rect class="cls-3" x="63.09" y="32.06" width="3.61" height="3.32"/>
      <rect class="cls-3" x="63.09" y="27.27" width="3.61" height="3.32"/>
      <polygon class="cls-2" points="61.29 10.32 61.29 23.95 45.46 23.95 45.46 79.59 33.59 79.59 33.59 10.32 34.06 10.32 37.67 10.32 39.75 10.32 43.36 10.32 48.77 10.32 61.29 10.32"/>
      <rect class="cls-3" x="51.71" y="19.53" width="3.61" height="3.32"/>
      <rect class="cls-3" x="51.71" y="14.74" width="3.61" height="3.32"/>
      <rect class="cls-3" x="46.01" y="19.53" width="3.61" height="3.32"/>
      <rect class="cls-3" x="46.01" y="14.74" width="3.61" height="3.32"/>
      <rect class="cls-3" x="39.66" y="38.87" width="3.61" height="3.32"/>
      <rect class="cls-3" x="39.66" y="34.08" width="3.61" height="3.32"/>
      <rect class="cls-3" x="39.66" y="29.29" width="3.61" height="3.32"/>
      <rect class="cls-3" x="39.66" y="24.32" width="3.61" height="3.32"/>
      <rect class="cls-3" x="39.66" y="19.53" width="3.61" height="3.32"/>
      <rect class="cls-3" x="39.66" y="14.74" width="3.61" height="3.32"/>
      <rect class="cls-3" x="57.4" y="70.56" width="3.61" height="3.32"/>
      <rect class="cls-3" x="57.4" y="65.59" width="3.61" height="3.32"/>
      <rect class="cls-3" x="57.4" y="60.8" width="3.61" height="3.32"/>
      <rect class="cls-3" x="57.4" y="56.01" width="3.61" height="3.32"/>
      <rect class="cls-3" x="57.4" y="51.4" width="3.61" height="3.32"/>
      <rect class="cls-3" x="57.4" y="46.61" width="3.61" height="3.32"/>
      <rect class="cls-3" x="57.4" y="41.82" width="3.61" height="3.32"/>
      <rect class="cls-3" x="57.4" y="36.85" width="3.61" height="3.32"/>
      <rect class="cls-3" x="57.4" y="32.06" width="3.61" height="3.32"/>
      <rect class="cls-3" x="57.4" y="27.27" width="3.61" height="3.32"/>
      <rect class="cls-3" x="51.71" y="19.53" width="3.61" height="3.32"/>
      <rect class="cls-3" x="51.71" y="14.74" width="3.61" height="3.32"/>
      <rect class="cls-3" x="51.04" y="70.56" width="3.61" height="3.32"/>
      <rect class="cls-3" x="51.04" y="65.59" width="3.61" height="3.32"/>
      <rect class="cls-3" x="51.04" y="60.8" width="3.61" height="3.32"/>
      <rect class="cls-3" x="51.04" y="56.01" width="3.61" height="3.32"/>
      <rect class="cls-3" x="51.04" y="51.4" width="3.61" height="3.32"/>
      <rect class="cls-3" x="51.04" y="46.61" width="3.61" height="3.32"/>
      <rect class="cls-3" x="51.04" y="41.82" width="3.61" height="3.32"/>
      <rect class="cls-3" x="51.04" y="36.85" width="3.61" height="3.32"/>
      <rect class="cls-3" x="51.04" y="32.06" width="3.61" height="3.32"/>
      <rect class="cls-3" x="51.04" y="27.27" width="3.61" height="3.32"/>
      <rect class="cls-3" x="46.01" y="19.53" width="3.61" height="3.32"/>
      <rect class="cls-3" x="46.01" y="14.74" width="3.61" height="3.32"/>
      <polygon class="cls-1" points="48.77 0 48.77 10.32 43.36 10.32 43.36 8.48 39.75 8.48 39.75 10.32 37.67 10.32 37.67 8.48 34.06 8.48 34.06 10.32 33.59 10.32 33.59 79.59 25.43 79.59 25.43 10.32 21.82 10.32 21.82 0 48.77 0"/>
      <rect class="cls-3" x="39.75" y="3.69" width="3.61" height="3.32"/>
      <rect class="cls-3" x="34.06" y="3.69" width="3.61" height="3.32"/>
      <rect class="cls-3" x="27.7" y="37.21" width="3.61" height="3.32"/>
      <rect class="cls-3" x="27.7" y="32.43" width="3.61" height="3.32"/>
      <rect class="cls-3" x="27.7" y="27.82" width="3.61" height="3.32"/>
      <rect class="cls-3" x="27.7" y="23.03" width="3.61" height="3.32"/>
      <rect class="cls-3" x="27.7" y="18.24" width="3.61" height="3.32"/>
      <rect class="cls-3" x="27.7" y="13.26" width="3.61" height="3.32"/>
      <rect class="cls-3" x="27.7" y="8.48" width="3.61" height="3.32"/>
      <rect class="cls-3" x="27.7" y="3.69" width="3.61" height="3.32"/>
      <rect class="cls-3" x="39.75" y="8.48" width="3.61" height="1.84"/>
      <rect class="cls-3" x="39.75" y="3.69" width="3.61" height="3.32"/>
      <rect class="cls-3" x="39.66" y="38.87" width="3.61" height="3.32"/>
      <rect class="cls-3" x="39.66" y="34.08" width="3.61" height="3.32"/>
      <rect class="cls-3" x="39.66" y="29.29" width="3.61" height="3.32"/>
      <rect class="cls-3" x="39.66" y="24.32" width="3.61" height="3.32"/>
      <rect class="cls-3" x="39.66" y="19.53" width="3.61" height="3.32"/>
      <rect class="cls-3" x="39.66" y="14.74" width="3.61" height="3.32"/>
      <rect class="cls-3" x="34.06" y="8.48" width="3.61" height="1.84"/>
      <rect class="cls-3" x="34.06" y="3.69" width="3.61" height="3.32"/>
      <rect class="cls-3" x="27.7" y="37.21" width="3.61" height="3.32"/>
      <rect class="cls-3" x="27.7" y="32.43" width="3.61" height="3.32"/>
      <rect class="cls-3" x="27.7" y="27.82" width="3.61" height="3.32"/>
      <rect class="cls-3" x="27.7" y="23.03" width="3.61" height="3.32"/>
      <rect class="cls-3" x="27.7" y="18.24" width="3.61" height="3.32"/>
      <rect class="cls-3" x="27.7" y="13.26" width="3.61" height="3.32"/>
      <rect class="cls-3" x="27.7" y="8.48" width="3.61" height="3.32"/>
      <rect class="cls-3" x="27.7" y="3.69" width="3.61" height="3.32"/>
      <polygon class="cls-2" points="25.43 10.32 25.43 79.59 21.82 79.59 0 79.59 0 10.32 21.82 10.32 25.43 10.32"/>
      <rect class="cls-3" x="17.17" y="42.56" width="3.61" height="3.32"/>
      <rect class="cls-3" x="17.17" y="37.95" width="3.61" height="3.32"/>
      <rect class="cls-3" x="17.17" y="33.16" width="3.61" height="3.32"/>
      <rect class="cls-3" x="17.17" y="28.37" width="3.61" height="3.32"/>
      <rect class="cls-3" x="17.17" y="23.4" width="3.61" height="3.32"/>
      <rect class="cls-3" x="17.17" y="18.61" width="3.61" height="3.32"/>
      <rect class="cls-3" x="17.17" y="13.82" width="3.61" height="3.32"/>
      <rect class="cls-3" x="11.48" y="66.69" width="3.6" height="3.32"/>
      <rect class="cls-3" x="11.48" y="61.9" width="3.6" height="3.32"/>
      <rect class="cls-3" x="11.48" y="57.11" width="3.6" height="3.32"/>
      <rect class="cls-3" x="11.48" y="52.14" width="3.6" height="3.32"/>
      <rect class="cls-3" x="11.48" y="47.35" width="3.6" height="3.32"/>
      <rect class="cls-3" x="11.48" y="42.56" width="3.6" height="3.32"/>
      <rect class="cls-3" x="11.48" y="37.95" width="3.6" height="3.32"/>
      <rect class="cls-3" x="11.48" y="33.16" width="3.6" height="3.32"/>
      <rect class="cls-3" x="11.48" y="28.37" width="3.6" height="3.32"/>
      <rect class="cls-3" x="11.48" y="23.4" width="3.6" height="3.32"/>
      <rect class="cls-3" x="11.48" y="18.61" width="3.6" height="3.32"/>
      <rect class="cls-3" x="11.48" y="13.82" width="3.6" height="3.32"/>
      <rect class="cls-3" x="5.12" y="66.69" width="3.61" height="3.32"/>
      <rect class="cls-3" x="5.12" y="61.9" width="3.61" height="3.32"/>
      <rect class="cls-3" x="5.12" y="57.11" width="3.61" height="3.32"/>
      <rect class="cls-3" x="5.12" y="52.14" width="3.61" height="3.32"/>
      <rect class="cls-3" x="5.12" y="47.35" width="3.61" height="3.32"/>
      <rect class="cls-3" x="5.12" y="42.56" width="3.61" height="3.32"/>
      <rect class="cls-3" x="5.12" y="37.95" width="3.61" height="3.32"/>
      <rect class="cls-3" x="5.12" y="33.16" width="3.61" height="3.32"/>
      <rect class="cls-3" x="5.12" y="28.37" width="3.61" height="3.32"/>
      <rect class="cls-3" x="5.12" y="23.4" width="3.61" height="3.32"/>
      <rect class="cls-3" x="5.12" y="18.61" width="3.61" height="3.32"/>
      <rect class="cls-3" x="5.12" y="13.82" width="3.61" height="3.32"/>
      <rect class="cls-3" x="17.17" y="42.56" width="3.61" height="3.32"/>
      <rect class="cls-3" x="17.17" y="37.95" width="3.61" height="3.32"/>
      <rect class="cls-3" x="17.17" y="33.16" width="3.61" height="3.32"/>
      <rect class="cls-3" x="17.17" y="28.37" width="3.61" height="3.32"/>
      <rect class="cls-3" x="17.17" y="23.4" width="3.61" height="3.32"/>
      <rect class="cls-3" x="17.17" y="18.61" width="3.61" height="3.32"/>
      <rect class="cls-3" x="17.17" y="13.82" width="3.61" height="3.32"/>
      <rect class="cls-3" x="11.48" y="66.69" width="3.6" height="3.32"/>
      <rect class="cls-3" x="11.48" y="61.9" width="3.6" height="3.32"/>
      <rect class="cls-3" x="11.48" y="57.11" width="3.6" height="3.32"/>
      <rect class="cls-3" x="11.48" y="52.14" width="3.6" height="3.32"/>
      <rect class="cls-3" x="11.48" y="47.35" width="3.6" height="3.32"/>
      <rect class="cls-3" x="11.48" y="42.56" width="3.6" height="3.32"/>
      <rect class="cls-3" x="11.48" y="37.95" width="3.6" height="3.32"/>
      <rect class="cls-3" x="11.48" y="33.16" width="3.6" height="3.32"/>
      <rect class="cls-3" x="11.48" y="28.37" width="3.6" height="3.32"/>
      <rect class="cls-3" x="11.48" y="23.4" width="3.6" height="3.32"/>
      <rect class="cls-3" x="11.48" y="18.61" width="3.6" height="3.32"/>
      <rect class="cls-3" x="11.48" y="13.82" width="3.6" height="3.32"/>
      <rect class="cls-3" x="5.12" y="66.69" width="3.61" height="3.32"/>
      <rect class="cls-3" x="5.12" y="61.9" width="3.61" height="3.32"/>
      <rect class="cls-3" x="5.12" y="57.11" width="3.61" height="3.32"/>
      <rect class="cls-3" x="5.12" y="52.14" width="3.61" height="3.32"/>
      <rect class="cls-3" x="5.12" y="47.35" width="3.61" height="3.32"/>
      <rect class="cls-3" x="5.12" y="42.56" width="3.61" height="3.32"/>
      <rect class="cls-3" x="5.12" y="37.95" width="3.61" height="3.32"/>
      <rect class="cls-3" x="5.12" y="33.16" width="3.61" height="3.32"/>
      <rect class="cls-3" x="5.12" y="28.37" width="3.61" height="3.32"/>
      <rect class="cls-3" x="5.12" y="23.4" width="3.61" height="3.32"/>
      <rect class="cls-3" x="5.12" y="18.61" width="3.61" height="3.32"/>
      <rect class="cls-3" x="5.12" y="13.82" width="3.61" height="3.32"/>
    </g>
  </g>
</svg>