<?xml version="1.0" encoding="UTF-8"?>
<svg id="Layer_2" data-name="Layer 2" xmlns="http://www.w3.org/2000/svg" xmlns:xlink="http://www.w3.org/1999/xlink" viewBox="0 0 65.31 66.33">
  <defs>
    <style>
      .cls-1 {
        fill: #fff;
      }

      .cls-2 {
        fill: url(#linear-gradient);
      }
    </style>
    <linearGradient id="linear-gradient" x1="32.66" y1="23.53" x2="32.66" y2="52.25" gradientUnits="userSpaceOnUse">
      <stop offset=".3" stop-color="#2dd4bf"/>
      <stop offset="1" stop-color="#0d9488"/>
    </linearGradient>
  </defs>
  <g id="oontent">
    <g>
      <path class="cls-1" d="M9.63,61.88c0,2.46,1.99,4.45,4.45,4.45s4.45-1.99,4.45-4.45v-6.45h-8.9v6.45Z"/>
      <path class="cls-1" d="M46.79,61.89c0,2.45,1.99,4.44,4.45,4.44s4.45-1.99,4.45-4.44v-6.46h-8.89v6.46Z"/>
      <path class="cls-2" d="M57.94,23.53H7.39c-4.06,0-7.37,3.33-7.39,7.38v13.97c.01,4.05,3.33,7.38,7.39,7.38h50.55c4.05,0,7.37-3.33,7.38-7.38v-13.97c0-4.05-3.33-7.37-7.38-7.38ZM13.96,43.9c-3.31,0-6-2.7-6-6s2.69-6,6-6,6,2.68,6,6-2.68,6-6,6ZM38.5,42.08h-11.67c-.7,0-1.27-.57-1.27-1.27s.58-1.28,1.27-1.28h11.67c.71,0,1.27.57,1.27,1.28s-.57,1.27-1.27,1.27ZM38.5,36.02h-11.67c-.7,0-1.27-.57-1.27-1.27s.58-1.28,1.27-1.28h11.67c.71,0,1.27.57,1.27,1.28s-.57,1.27-1.27,1.27ZM51.36,43.9c-3.31,0-6-2.7-6-6s2.68-6,6-6,6.01,2.68,6.01,6-2.69,6-6.01,6Z"/>
      <path class="cls-1" d="M13.93,20.01c1.2,0,2.17-.96,2.17-2.15h0v-2.43c.01-6.13,4.97-11.09,11.11-11.1h10.95c6.12,0,11.08,4.97,11.09,11.1v2.42h0c0,1.2.97,2.16,2.16,2.16s2.16-.96,2.16-2.16v-2.42c0-8.52-6.9-15.42-15.41-15.42h-10.95c-8.52,0-15.42,6.9-15.42,15.42v2.43c0,1.19.97,2.15,2.16,2.15Z"/>
    </g>
  </g>
</svg>