<?xml version="1.0" encoding="UTF-8"?>
<svg id="Layer_2" data-name="Layer 2" xmlns="http://www.w3.org/2000/svg" xmlns:xlink="http://www.w3.org/1999/xlink" viewBox="0 0 61.46 61.08">
  <defs>
    <style>
      .cls-1, .cls-2, .cls-3, .cls-4, .cls-5, .cls-6 {
        fill-rule: evenodd;
      }

      .cls-1, .cls-7 {
        fill: #231f20;
      }

      .cls-2 {
        fill: #fff;
      }

      .cls-3 {
        fill: url(#linear-gradient-3);
      }

      .cls-4 {
        fill: url(#linear-gradient-2);
      }

      .cls-5 {
        fill: url(#linear-gradient-4);
      }

      .cls-6 {
        fill: url(#linear-gradient);
      }
    </style>
    <linearGradient id="linear-gradient" x1="5.88" y1="43.3" x2="13.9" y2="43.3" gradientUnits="userSpaceOnUse">
      <stop offset=".3" stop-color="#9333ea"/>
      <stop offset="1" stop-color="#7e22ce"/>
    </linearGradient>
    <linearGradient id="linear-gradient-2" x1="42.96" y1="54.85" x2="61.46" y2="54.85" xlink:href="#linear-gradient"/>
    <linearGradient id="linear-gradient-3" x1=".43" y1="54.85" x2="18.92" y2="54.85" xlink:href="#linear-gradient"/>
    <linearGradient id="linear-gradient-4" x1="47.52" y1="43.31" x2="55.63" y2="43.31" xlink:href="#linear-gradient"/>
  </defs>
  <g id="oontent">
    <g>
      <polygon class="cls-2" points="0 0 60.57 0 60.57 37.77 0 37.77 0 0 0 0"/>
      <path class="cls-6" d="M9.89,39.29c2.21,0,4.01,1.8,4.01,4.01s-1.8,4.01-4.01,4.01-4.01-1.8-4.01-4.01,1.8-4.01,4.01-4.01h0Z"/>
      <path class="cls-4" d="M47.12,48.62h10.63c2.27-.03,3.72.76,3.71,3.01v9.45h-18.5v-8.7c-.05-2.24.92-3.78,4.15-3.76h0Z"/>
      <path class="cls-2" d="M25.9,48.62h10.63c2.27-.03,3.72.76,3.71,3.01v9.45h-18.5v-8.7c-.05-2.24.92-3.78,4.15-3.76h0Z"/>
      <path class="cls-3" d="M4.58,48.62h10.63c2.27-.03,3.72.76,3.71,3.01v9.45H.43v-8.7c-.05-2.24.92-3.78,4.15-3.76h0Z"/>
      <path class="cls-5" d="M51.57,39.25c2.23,0,4.05,1.82,4.05,4.05s-1.82,4.05-4.05,4.05-4.05-1.82-4.05-4.05,1.82-4.05,4.05-4.05h0Z"/>
      <path class="cls-2" d="M30.79,39.4c2.21,0,4.01,1.8,4.01,4.01s-1.8,4.01-4.01,4.01-4.01-1.8-4.01-4.01,1.8-4.01,4.01-4.01h0Z"/>
      <path class="cls-1" d="M4.27,3.72c-.17,0-.31.14-.31.31v2.58c0,.17.14.31.31.31h4.07c.17,0,.31-.14.31-.31v-2.58c0-.17-.14-.31-.31-.31h-4.07Z"/>
      <path class="cls-1" d="M52.2,30.69c-.17,0-.31.14-.31.31v2.58c0,.17.14.31.31.31h4.07c.17,0,.31-.14.31-.31v-2.58c0-.17-.14-.31-.31-.31h-4.07Z"/>
      <path class="cls-1" d="M52.2,23.98c-.17,0-.31.14-.31.31v2.58c0,.17.14.31.31.31h4.07c.17,0,.31-.14.31-.31v-2.58c0-.17-.14-.31-.31-.31h-4.07Z"/>
      <path class="cls-1" d="M52.2,17.32c-.17,0-.31.14-.31.31v2.58c0,.17.14.31.31.31h4.07c.17,0,.31-.14.31-.31v-2.58c0-.17-.14-.31-.31-.31h-4.07Z"/>
      <path class="cls-1" d="M52.2,10.46c-.17,0-.31.14-.31.31v2.58c0,.17.14.31.31.31h4.07c.17,0,.31-.14.31-.31v-2.58c0-.17-.14-.31-.31-.31h-4.07Z"/>
      <path class="cls-1" d="M52.2,3.61c-.17,0-.31.14-.31.31v2.58c0,.17.14.31.31.31h4.07c.17,0,.31-.14.31-.31v-2.58c0-.17-.14-.31-.31-.31h-4.07Z"/>
      <path class="cls-1" d="M4.4,30.42c-.17,0-.31.14-.31.31v2.58c0,.17.14.31.31.31h4.07c.17,0,.31-.14.31-.31v-2.58c0-.17-.14-.31-.31-.31h-4.07Z"/>
      <path class="cls-1" d="M4.44,23.94c-.17,0-.31.14-.31.31v2.58c0,.17.14.31.31.31h4.07c.17,0,.31-.14.31-.31v-2.58c0-.17-.14-.31-.31-.31h-4.07Z"/>
      <path class="cls-1" d="M4.36,17.16c-.17,0-.31.14-.31.31v2.58c0,.17.14.31.31.31h4.07c.17,0,.31-.14.31-.31v-2.58c0-.17-.14-.31-.31-.31h-4.07Z"/>
      <path class="cls-7" d="M4.42,10.48h4.07c.17,0,.31.14.31.31v2.58c0,.17-.14.31-.31.31h-4.07c-.17,0-.31-.14-.31-.31v-2.58c0-.17.14-.31.31-.31Z"/>
    </g>
  </g>
</svg>