<?xml version="1.0" encoding="UTF-8"?>
<svg id="Layer_2" data-name="Layer 2" xmlns="http://www.w3.org/2000/svg" xmlns:xlink="http://www.w3.org/1999/xlink" viewBox="0 0 71.26 79.59">
  <defs>
    <style>
      .cls-1 {
        fill: url(#linear-gradient-2);
      }

      .cls-2 {
        fill: #fff;
      }

      .cls-3 {
        fill: #231f20;
      }

      .cls-4 {
        fill: url(#linear-gradient);
      }
    </style>
    <linearGradient id="linear-gradient" x1="45.46" y1="51.77" x2="71.26" y2="51.77" gradientUnits="userSpaceOnUse">
      <stop offset=".3" stop-color="#9333ea"/>
      <stop offset="1" stop-color="#7e22ce"/>
    </linearGradient>
    <linearGradient id="linear-gradient-2" x1="21.82" y1="39.79" x2="48.77" y2="39.79" xlink:href="#linear-gradient"/>
  </defs>
  <g id="oontent">
    <g>
      <path class="cls-4" d="M71.26,23.95v55.64h-25.81V23.95h25.81ZM66.7,73.88v-3.32h-3.61v3.32h3.61ZM66.7,68.9v-3.32h-3.61v3.32h3.61ZM66.7,64.11v-3.32h-3.61v3.32h3.61ZM66.7,59.32v-3.32h-3.61v3.32h3.61ZM66.7,54.72v-3.32h-3.61v3.32h3.61ZM66.7,49.93v-3.32h-3.61v3.32h3.61ZM66.7,45.14v-3.32h-3.61v3.32h3.61ZM66.7,40.16v-3.32h-3.61v3.32h3.61ZM66.7,35.37v-3.32h-3.61v3.32h3.61ZM66.7,30.58v-3.32h-3.61v3.32h3.61ZM61.01,73.88v-3.32h-3.61v3.32h3.61ZM61.01,68.9v-3.32h-3.61v3.32h3.61ZM61.01,64.11v-3.32h-3.61v3.32h3.61ZM61.01,59.32v-3.32h-3.61v3.32h3.61ZM61.01,54.72v-3.32h-3.61v3.32h3.61ZM61.01,49.93v-3.32h-3.61v3.32h3.61ZM61.01,45.14v-3.32h-3.61v3.32h3.61ZM61.01,40.16v-3.32h-3.61v3.32h3.61ZM61.01,35.37v-3.32h-3.61v3.32h3.61ZM61.01,30.58v-3.32h-3.61v3.32h3.61ZM54.65,73.88v-3.32h-3.61v3.32h3.61ZM54.65,68.9v-3.32h-3.61v3.32h3.61ZM54.65,64.11v-3.32h-3.61v3.32h3.61ZM54.65,59.32v-3.32h-3.61v3.32h3.61ZM54.65,54.72v-3.32h-3.61v3.32h3.61ZM54.65,49.93v-3.32h-3.61v3.32h3.61ZM54.65,45.14v-3.32h-3.61v3.32h3.61ZM54.65,40.16v-3.32h-3.61v3.32h3.61ZM54.65,35.37v-3.32h-3.61v3.32h3.61ZM54.65,30.58v-3.32h-3.61v3.32h3.61Z"/>
      <rect class="cls-3" x="63.09" y="70.56" width="3.61" height="3.32"/>
      <rect class="cls-3" x="63.09" y="65.59" width="3.61" height="3.32"/>
      <rect class="cls-3" x="63.09" y="60.8" width="3.61" height="3.32"/>
      <rect class="cls-3" x="63.09" y="56.01" width="3.61" height="3.32"/>
      <rect class="cls-3" x="63.09" y="51.4" width="3.61" height="3.32"/>
      <rect class="cls-3" x="63.09" y="46.61" width="3.61" height="3.32"/>
      <rect class="cls-3" x="63.09" y="41.82" width="3.61" height="3.32"/>
      <rect class="cls-3" x="63.09" y="36.85" width="3.61" height="3.32"/>
      <rect class="cls-3" x="63.09" y="32.06" width="3.61" height="3.32"/>
      <rect class="cls-3" x="63.09" y="27.27" width="3.61" height="3.32"/>
      <path class="cls-2" d="M61.29,10.32v13.63h-15.83v55.64h-11.87V10.32h27.7ZM55.31,22.85v-3.32h-3.61v3.32h3.61ZM55.31,18.05v-3.32h-3.61v3.32h3.61ZM49.62,22.85v-3.32h-3.61v3.32h3.61ZM49.62,18.05v-3.32h-3.61v3.32h3.61ZM43.26,42.19v-3.32h-3.6v3.32h3.6ZM43.26,37.4v-3.32h-3.6v3.32h3.6ZM43.26,32.61v-3.32h-3.6v3.32h3.6ZM43.26,27.64v-3.32h-3.6v3.32h3.6ZM43.26,22.85v-3.32h-3.6v3.32h3.6ZM43.26,18.05v-3.32h-3.6v3.32h3.6Z"/>
      <rect class="cls-3" x="57.4" y="70.56" width="3.61" height="3.32"/>
      <rect class="cls-3" x="57.4" y="65.59" width="3.61" height="3.32"/>
      <rect class="cls-3" x="57.4" y="60.8" width="3.61" height="3.32"/>
      <rect class="cls-3" x="57.4" y="56.01" width="3.61" height="3.32"/>
      <rect class="cls-3" x="57.4" y="51.4" width="3.61" height="3.32"/>
      <rect class="cls-3" x="57.4" y="46.61" width="3.61" height="3.32"/>
      <rect class="cls-3" x="57.4" y="41.82" width="3.61" height="3.32"/>
      <rect class="cls-3" x="57.4" y="36.85" width="3.61" height="3.32"/>
      <rect class="cls-3" x="57.4" y="32.06" width="3.61" height="3.32"/>
      <rect class="cls-3" x="57.4" y="27.27" width="3.61" height="3.32"/>
      <rect class="cls-3" x="51.71" y="19.53" width="3.61" height="3.32"/>
      <rect class="cls-3" x="51.71" y="14.74" width="3.61" height="3.32"/>
      <rect class="cls-3" x="51.04" y="70.56" width="3.61" height="3.32"/>
      <rect class="cls-3" x="51.04" y="65.59" width="3.61" height="3.32"/>
      <rect class="cls-3" x="51.04" y="60.8" width="3.61" height="3.32"/>
      <rect class="cls-3" x="51.04" y="56.01" width="3.61" height="3.32"/>
      <rect class="cls-3" x="51.04" y="51.4" width="3.61" height="3.32"/>
      <rect class="cls-3" x="51.04" y="46.61" width="3.61" height="3.32"/>
      <rect class="cls-3" x="51.04" y="41.82" width="3.61" height="3.32"/>
      <rect class="cls-3" x="51.04" y="36.85" width="3.61" height="3.32"/>
      <rect class="cls-3" x="51.04" y="32.06" width="3.61" height="3.32"/>
      <rect class="cls-3" x="51.04" y="27.27" width="3.61" height="3.32"/>
      <rect class="cls-3" x="46.01" y="19.53" width="3.61" height="3.32"/>
      <rect class="cls-3" x="46.01" y="14.74" width="3.61" height="3.32"/>
      <polygon class="cls-1" points="48.77 0 48.77 10.32 43.36 10.32 43.36 8.48 39.75 8.48 39.75 10.32 37.67 10.32 37.67 8.48 34.06 8.48 34.06 10.32 33.59 10.32 33.59 79.59 25.43 79.59 25.43 10.32 21.82 10.32 21.82 0 48.77 0"/>
      <rect class="cls-3" x="39.75" y="3.69" width="3.61" height="3.32"/>
      <rect class="cls-3" x="34.06" y="3.69" width="3.61" height="3.32"/>
      <rect class="cls-3" x="27.7" y="37.21" width="3.61" height="3.32"/>
      <rect class="cls-3" x="27.7" y="32.43" width="3.61" height="3.32"/>
      <rect class="cls-3" x="27.7" y="27.82" width="3.61" height="3.32"/>
      <rect class="cls-3" x="27.7" y="23.03" width="3.61" height="3.32"/>
      <rect class="cls-3" x="27.7" y="18.24" width="3.61" height="3.32"/>
      <rect class="cls-3" x="27.7" y="13.26" width="3.61" height="3.32"/>
      <rect class="cls-3" x="27.7" y="8.48" width="3.61" height="3.32"/>
      <rect class="cls-3" x="27.7" y="3.69" width="3.61" height="3.32"/>
      <rect class="cls-3" x="39.75" y="8.48" width="3.61" height="1.84"/>
      <rect class="cls-3" x="39.75" y="3.69" width="3.61" height="3.32"/>
      <rect class="cls-3" x="39.66" y="38.87" width="3.6" height="3.32"/>
      <rect class="cls-3" x="39.66" y="34.08" width="3.6" height="3.32"/>
      <rect class="cls-3" x="39.66" y="29.29" width="3.6" height="3.32"/>
      <rect class="cls-3" x="39.66" y="24.32" width="3.6" height="3.32"/>
      <rect class="cls-3" x="39.66" y="19.53" width="3.6" height="3.32"/>
      <rect class="cls-3" x="39.66" y="14.74" width="3.6" height="3.32"/>
      <rect class="cls-3" x="34.06" y="8.48" width="3.61" height="1.84"/>
      <rect class="cls-3" x="34.06" y="3.69" width="3.61" height="3.32"/>
      <rect class="cls-3" x="27.7" y="37.21" width="3.61" height="3.32"/>
      <rect class="cls-3" x="27.7" y="32.43" width="3.61" height="3.32"/>
      <rect class="cls-3" x="27.7" y="27.82" width="3.61" height="3.32"/>
      <rect class="cls-3" x="27.7" y="23.03" width="3.61" height="3.32"/>
      <rect class="cls-3" x="27.7" y="18.24" width="3.61" height="3.32"/>
      <rect class="cls-3" x="27.7" y="13.26" width="3.61" height="3.32"/>
      <rect class="cls-3" x="27.7" y="8.48" width="3.61" height="3.32"/>
      <rect class="cls-3" x="27.7" y="3.69" width="3.61" height="3.32"/>
      <path class="cls-2" d="M25.43,10.32v69.27H0V10.32h25.43ZM20.78,45.88v-3.32h-3.61v3.32h3.61ZM20.78,41.27v-3.32h-3.61v3.32h3.61ZM20.78,36.48v-3.32h-3.61v3.32h3.61ZM20.78,31.69v-3.32h-3.61v3.32h3.61ZM20.78,26.71v-3.32h-3.61v3.32h3.61ZM20.78,21.92v-3.32h-3.61v3.32h3.61ZM20.78,17.13v-3.32h-3.61v3.32h3.61ZM15.08,70.01v-3.32h-3.6v3.32h3.6ZM15.08,65.22v-3.32h-3.6v3.32h3.6ZM15.08,60.43v-3.32h-3.6v3.32h3.6ZM15.08,55.45v-3.32h-3.6v3.32h3.6ZM15.08,50.67v-3.32h-3.6v3.32h3.6ZM15.08,45.88v-3.32h-3.6v3.32h3.6ZM15.08,41.27v-3.32h-3.6v3.32h3.6ZM15.08,36.48v-3.32h-3.6v3.32h3.6ZM15.08,31.69v-3.32h-3.6v3.32h3.6ZM15.08,26.71v-3.32h-3.6v3.32h3.6ZM15.08,21.92v-3.32h-3.6v3.32h3.6ZM15.08,17.13v-3.32h-3.6v3.32h3.6ZM8.73,70.01v-3.32h-3.61v3.32h3.61ZM8.73,65.22v-3.32h-3.61v3.32h3.61ZM8.73,60.43v-3.32h-3.61v3.32h3.61ZM8.73,55.45v-3.32h-3.61v3.32h3.61ZM8.73,50.67v-3.32h-3.61v3.32h3.61ZM8.73,45.88v-3.32h-3.61v3.32h3.61ZM8.73,41.27v-3.32h-3.61v3.32h3.61ZM8.73,36.48v-3.32h-3.61v3.32h3.61ZM8.73,31.69v-3.32h-3.61v3.32h3.61ZM8.73,26.71v-3.32h-3.61v3.32h3.61ZM8.73,21.92v-3.32h-3.61v3.32h3.61ZM8.73,17.13v-3.32h-3.61v3.32h3.61Z"/>
      <rect class="cls-3" x="17.17" y="42.56" width="3.61" height="3.32"/>
      <rect class="cls-3" x="17.17" y="37.95" width="3.61" height="3.32"/>
      <rect class="cls-3" x="17.17" y="33.16" width="3.61" height="3.32"/>
      <rect class="cls-3" x="17.17" y="28.37" width="3.61" height="3.32"/>
      <rect class="cls-3" x="17.17" y="23.4" width="3.61" height="3.32"/>
      <rect class="cls-3" x="17.17" y="18.61" width="3.61" height="3.32"/>
      <rect class="cls-3" x="17.17" y="13.82" width="3.61" height="3.32"/>
      <rect class="cls-3" x="11.48" y="66.69" width="3.6" height="3.32"/>
      <rect class="cls-3" x="11.48" y="61.9" width="3.6" height="3.32"/>
      <rect class="cls-3" x="11.48" y="57.11" width="3.6" height="3.32"/>
      <rect class="cls-3" x="11.48" y="52.14" width="3.6" height="3.32"/>
      <rect class="cls-3" x="11.48" y="47.35" width="3.6" height="3.32"/>
      <rect class="cls-3" x="11.48" y="42.56" width="3.6" height="3.32"/>
      <rect class="cls-3" x="11.48" y="37.95" width="3.6" height="3.32"/>
      <rect class="cls-3" x="11.48" y="33.16" width="3.6" height="3.32"/>
      <rect class="cls-3" x="11.48" y="28.37" width="3.6" height="3.32"/>
      <rect class="cls-3" x="11.48" y="23.4" width="3.6" height="3.32"/>
      <rect class="cls-3" x="11.48" y="18.61" width="3.6" height="3.32"/>
      <rect class="cls-3" x="11.48" y="13.82" width="3.6" height="3.32"/>
      <rect class="cls-3" x="5.12" y="66.69" width="3.61" height="3.32"/>
      <rect class="cls-3" x="5.12" y="61.9" width="3.61" height="3.32"/>
      <rect class="cls-3" x="5.12" y="57.11" width="3.61" height="3.32"/>
      <rect class="cls-3" x="5.12" y="52.14" width="3.61" height="3.32"/>
      <rect class="cls-3" x="5.12" y="47.35" width="3.61" height="3.32"/>
      <rect class="cls-3" x="5.12" y="42.56" width="3.61" height="3.32"/>
      <rect class="cls-3" x="5.12" y="37.95" width="3.61" height="3.32"/>
      <rect class="cls-3" x="5.12" y="33.16" width="3.61" height="3.32"/>
      <rect class="cls-3" x="5.12" y="28.37" width="3.61" height="3.32"/>
      <rect class="cls-3" x="5.12" y="23.4" width="3.61" height="3.32"/>
      <rect class="cls-3" x="5.12" y="18.61" width="3.61" height="3.32"/>
      <rect class="cls-3" x="5.12" y="13.82" width="3.61" height="3.32"/>
    </g>
  </g>
</svg>