<?xml version="1.0" encoding="UTF-8"?>
<svg id="Layer_2" data-name="Layer 2" xmlns="http://www.w3.org/2000/svg" xmlns:xlink="http://www.w3.org/1999/xlink" viewBox="0 0 63.85 60.8">
  <defs>
    <style>
      .cls-1 {
        fill: url(#linear-gradient-2);
      }

      .cls-2 {
        fill: #fff;
      }

      .cls-3 {
        fill: url(#linear-gradient-3);
      }

      .cls-4 {
        fill: url(#linear-gradient);
      }
    </style>
    <linearGradient id="linear-gradient" x1="21.16" y1="21.74" x2="21.16" y2="60.8" gradientUnits="userSpaceOnUse">
      <stop offset=".3" stop-color="#5ba825"/>
      <stop offset="1" stop-color="#377d00"/>
    </linearGradient>
    <linearGradient id="linear-gradient-2" x1="22.62" y1="27.42" x2="22.62" y2="8.88" xlink:href="#linear-gradient"/>
    <linearGradient id="linear-gradient-3" x1="37.82" y1="38.04" x2="37.82" y2="12.9" xlink:href="#linear-gradient"/>
  </defs>
  <g id="oontent">
    <g>
      <path class="cls-4" d="M23.81,30.56l-15.36-8.82-6.04,10.52c-4.98,8.67-1.99,19.74,6.69,24.71l2.46,1.42c8.67,4.97,19.74,1.98,24.72-6.69l6.04-10.53-15.37-8.82-3.14-1.8Z"/>
      <path class="cls-1" d="M34.99,11.1c-8.62-4.71-19.46-1.69-24.38,6.87l-.36.63,15.36,8.81,9.37-16.32Z"/>
      <path class="cls-3" d="M38.13,12.9l-9.37,16.32,15.36,8.81.36-.62c4.92-8.56,2.06-19.45-6.35-24.51Z"/>
      <path class="cls-2" d="M63.81,1.74c-.21-2.3-3.83-2.32-3.62,0,.11,1.25-.01,2.07-.44,2.89-.33.64-.66.93-1.47,1-1.78.15-3.6-.82-5.12-1.64-2.25-1.21-4.16-2.87-6.78-3.19-1.78-.21-3.52.25-5.02,1.23-2.02,1.33-3.5,3.49-4.38,5.71-.87,2.17,2.63,3.1,3.49.96-.18.46-.05.11.11-.2.25-.51.55-1.01.87-1.49.72-1.09,1.75-2.09,3.02-2.5,2.18-.72,4.18.99,5.9,2.04,1.92,1.18,4.1,2.25,6.35,2.58,4.6.68,7.5-3.04,7.1-7.4Z"/>
    </g>
  </g>
</svg>