<?xml version="1.0" encoding="UTF-8"?>
<svg id="Layer_2" data-name="Layer 2" xmlns="http://www.w3.org/2000/svg" xmlns:xlink="http://www.w3.org/1999/xlink" viewBox="0 0 73.68 89.43">
  <defs>
    <style>
      .cls-1 {
        fill: url(#linear-gradient-2);
      }

      .cls-2 {
        fill: #231f20;
      }

      .cls-2, .cls-3 {
        fill-rule: evenodd;
      }

      .cls-3 {
        fill: #fff;
      }

      .cls-4 {
        fill: url(#linear-gradient);
      }
    </style>
    <linearGradient id="linear-gradient" x1="66.86" y1="54.55" x2="66.86" y2="79.76" gradientUnits="userSpaceOnUse">
      <stop offset=".3" stop-color="#9333ea"/>
      <stop offset="1" stop-color="#7e22ce"/>
    </linearGradient>
    <linearGradient id="linear-gradient-2" x1="13.63" y1="48.01" x2="13.63" y2="86.55" xlink:href="#linear-gradient"/>
  </defs>
  <g id="oontent">
    <g>
      <path class="cls-3" d="M17.69,41.68c2.35-6.52,7.21-11.2,13.85-13.17v4.14c0,16.79,0,33.57,0,50.36,0,4.28,2,6.51,5.67,6.42,3.45-.08,5.4-2.31,5.41-6.3.02-9.21-.01-18.43.02-27.64,0-1.2.1-3.47.41-3.6.5.04,1.01.07,1.51.11v3.95c0,9.34-.05,18.68.02,28.02.03,3.83,3.1,6.11,6.86,5.26,3.44-.78,4.23-2.88,4.22-5.54-.05-16.53-.02-33.07-.02-49.6v-4.62c6.66,7.95,5.65,16.61,8.13,23.81h6.32c-.86-8.47-1.93-19.05-7.71-26.34-1.68-2.12-4.34-4.01-7.08-5.19-5.34-2.3-7.07,1.67-9.86,5.42-.31-2.63-.5-4.21-.69-5.87-.88.03-1.76.07-2.31.09-.26,1.72-.47,3.18-.8,5.4-5.16-6.28-7.06-6.71-14.42-3.61-7.77,3.26-12.52,8.69-16.11,15.05-.7,1.24-.65,2.06-1.26,3.54"/>
      <path class="cls-3" d="M34.5,8.84c-.04.15-.1.29-.12.42-.46,2.5.09,4.82,1.84,6.91,3.11,3.72,9.42,4.19,13.27,1,1.83-1.53,2.76-3.41,2.97-5.54.09-.93.08-1.87-.24-2.79h-17.72Z"/>
      <path class="cls-3" d="M51.79,7.69c.2-1.98.4-3.93.61-5.91-1.27-.02-2.37-.27-3.42-.75-.61-.28-1.26-.51-1.93-.66-1.53-.34-3.11-.42-4.69-.33-1.39.07-2.76.25-3.96.91-1.29.71-2.63,1.2-4.29.86.2,1.99.4,3.93.6,5.88h17.06Z"/>
      <path class="cls-3" d="M34.5,8.84h17.72c.32.92.33,1.86.24,2.79-.21,2.13-1.14,4.01-2.97,5.54-3.84,3.2-10.16,2.72-13.27-1-1.75-2.09-2.3-4.41-1.84-6.91.03-.14.08-.27.12-.42Z"/>
      <path class="cls-3" d="M51.79,7.69h-17.06c-.2-1.96-.4-3.89-.6-5.88,1.65.34,3-.15,4.29-.86,1.2-.66,2.57-.84,3.96-.91,1.58-.08,3.16,0,4.69.33.67.15,1.32.38,1.93.66,1.04.48,2.15.73,3.42.75-.2,1.98-.4,3.93-.61,5.91Z"/>
      <path class="cls-3" d="M7.91,48.41c0-1.53-.04-2.95.01-4.36.04-1.02.63-1.59,1.68-1.6,2.67-.04,5.35-.04,8.03,0,1.14.02,1.71.66,1.72,1.81.02,1.41,0,2.82,0,4.28-.65-.08-1.21-.15-1.87-.24v-3.93h-7.66v3.84c-.67.07-1.23.13-1.9.21Z"/>
      <rect class="cls-4" x="60.05" y="54.55" width="13.63" height="25.21" rx="2.83" ry="2.83"/>
      <path class="cls-3" d="M3.8,87.3c0,1.17,1.28,2.13,2.83,2.13h.01c1.56,0,2.83-.96,2.83-2.13s-1.28-2.13-2.83-2.13h-.01c-1.56,0-2.83.96-2.83,2.13Z"/>
      <path class="cls-3" d="M17.5,87.3c0,1.17,1.28,2.13,2.83,2.13h.01c1.56,0,2.83-.96,2.83-2.13s-1.28-2.13-2.83-2.13h-.01c-1.56,0-2.83.96-2.83,2.13Z"/>
      <rect class="cls-1" y="48.01" width="27.26" height="38.54" rx="5.67" ry="5.67"/>
      <g>
        <path class="cls-2" d="M48.27,33.01c0-.86.71-1.56,1.57-1.56.87,0,1.56.7,1.55,1.57,0,.86-.7,1.56-1.57,1.55-.88,0-1.56-.69-1.55-1.57Z"/>
        <path class="cls-2" d="M36.71,33.01c0-.86.71-1.56,1.57-1.56.87,0,1.56.7,1.55,1.57,0,.86-.7,1.56-1.57,1.55-.88,0-1.56-.69-1.55-1.57Z"/>
        <path class="cls-2" d="M48.27,44.39c0-.86.71-1.56,1.57-1.56.87,0,1.56.7,1.55,1.57,0,.87-.7,1.56-1.57,1.55-.88,0-1.56-.69-1.55-1.57Z"/>
        <path class="cls-2" d="M36.71,44.39c0-.86.71-1.56,1.57-1.56.87,0,1.56.7,1.55,1.57,0,.87-.7,1.56-1.57,1.55-.88,0-1.56-.69-1.55-1.57Z"/>
        <path class="cls-2" d="M48.27,38.7c0-.86.71-1.56,1.57-1.56.87,0,1.56.7,1.55,1.57,0,.86-.7,1.56-1.57,1.55-.88,0-1.56-.69-1.55-1.56Z"/>
        <path class="cls-2" d="M36.71,38.7c0-.86.71-1.56,1.57-1.56.87,0,1.56.7,1.55,1.57,0,.86-.7,1.56-1.57,1.55-.88,0-1.56-.69-1.55-1.56Z"/>
      </g>
    </g>
  </g>
</svg>