<?xml version="1.0" encoding="UTF-8"?>
<svg id="Layer_2" data-name="Layer 2" xmlns="http://www.w3.org/2000/svg" xmlns:xlink="http://www.w3.org/1999/xlink" viewBox="0 0 77.69 67.88">
  <defs>
    <style>
      .cls-1 {
        fill: #fff;
      }

      .cls-2 {
        fill: url(#linear-gradient);
      }
    </style>
    <linearGradient id="linear-gradient" x1="48.29" y1="7.61" x2="48.29" y2="29.44" gradientUnits="userSpaceOnUse">
      <stop offset=".3" stop-color="#2dd4bf"/>
      <stop offset="1" stop-color="#0d9488"/>
    </linearGradient>
  </defs>
  <g id="oontent">
    <g>
      <path class="cls-1" d="M52.41,31.98v.53c0,1.71-1.38,3.09-3.09,3.1H11.12c-.66,0-1.28-.22-1.78-.59-.21-.13-.33-.22-.45-.34l-5.11-5.1-1.12,1.12,1.12-1.13c-.4-.4-.61-.92-.61-1.47s.21-1.07.62-1.5l5.11-5.1c.11-.12.21-.19.34-.28.61-.44,1.21-.65,1.88-.65h5.22v-3.17h-5.22c-1.37,0-2.64.45-3.66,1.19-.23.13-.53.37-.81.64l-5.12,5.13C.52,25.39,0,26.76,0,28.1c0,1.34.51,2.69,1.54,3.72l5.11,5.12c.29.28.6.52.93.73.91.66,2.17,1.12,3.54,1.12h25.17v25.92c0,1.74,1.43,3.17,3.18,3.17s3.17-1.43,3.17-3.17v-25.92h6.68c3.46,0,6.27-2.8,6.27-6.27v-.53h-3.18Z"/>
      <path class="cls-2" d="M76.4,21.65c.86-.87,1.29-2,1.29-3.14s-.43-2.26-1.29-3.11l-6.14-6.14c-.23-.24-.48-.44-.75-.6-.92-.66-2.04-1.06-3.26-1.06H24.5c-3.1,0-5.61,2.51-5.61,5.6v10.62c0,3.1,2.51,5.61,5.61,5.61h41.76c1.23,0,2.35-.41,3.27-1.08.26-.17.52-.36.74-.59l6.14-6.13Z"/>
      <path class="cls-1" d="M43.4,5.09s.08-.02.12-.03c1.34-.07,2.42-1.15,2.42-2.52s-1.13-2.54-2.54-2.54h-7.59c-1.41,0-2.55,1.14-2.55,2.54s1.09,2.45,2.43,2.52c.05,0,.08.03.12.03h7.59Z"/>
    </g>
  </g>
</svg>