<?xml version="1.0" encoding="UTF-8"?>
<svg id="Layer_2" data-name="Layer 2" xmlns="http://www.w3.org/2000/svg" xmlns:xlink="http://www.w3.org/1999/xlink" viewBox="0 0 58.13 69.77">
  <defs>
    <style>
      .cls-1 {
        fill: url(#linear-gradient-2);
      }

      .cls-2 {
        fill: #fff;
      }

      .cls-3 {
        fill: url(#linear-gradient);
      }
    </style>
    <linearGradient id="linear-gradient" x1="18.41" y1="0" x2="18.41" y2="69.11" gradientUnits="userSpaceOnUse">
      <stop offset=".3" stop-color="#2dd4bf"/>
      <stop offset="1" stop-color="#0d9488"/>
    </linearGradient>
    <linearGradient id="linear-gradient-2" x1="48.89" y1="1" x2="48.89" y2="37.3" xlink:href="#linear-gradient"/>
  </defs>
  <g id="oontent">
    <g>
      <path class="cls-3" d="M35.63,24.85c.75-2.01,1.18-4.18,1.18-6.44C36.82,8.24,28.57,0,18.41,0S0,8.24,0,18.41c0,1.98.32,3.88.9,5.67,1.18,4.17,13.62,37.5,15.96,43.75l-.28.32.61.56c.03.08.05.13.05.13,0,0,.01-.04.03-.06l.35.32,1.5-1.64-.92-.84c3.47-8.05,15.37-35.67,17.43-41.78ZM6.66,18.47c0-6.48,5.26-11.74,11.74-11.74s11.74,5.26,11.74,11.74-5.26,11.75-11.74,11.75-11.74-5.26-11.74-11.75Z"/>
      <path class="cls-2" d="M26.98,18.4c0-4.73-3.84-8.56-8.58-8.56s-8.57,3.83-8.57,8.56,3.83,8.57,8.57,8.57,8.58-3.83,8.58-8.57Z"/>
      <path class="cls-1" d="M58.13,10.25c0-5.1-4.14-9.24-9.24-9.24s-9.25,4.14-9.25,9.24c0,1,.16,1.95.45,2.85.56,1.99,6.22,17.16,7.79,21.37l-.3-.28-1.97,2.15,1.05.95,1.62-1.77s.02.05.02.05c0,0,.03-.08.06-.14l.27-.29-.1-.1c1.26-2.92,7.91-18.32,9.01-21.57.38-1,.59-2.09.59-3.23ZM48.89,16.18c-3.26,0-5.9-2.64-5.9-5.9s2.64-5.9,5.9-5.9,5.89,2.64,5.89,5.9-2.64,5.9-5.89,5.9Z"/>
      <path class="cls-2" d="M48.89,5.94c-2.37,0-4.3,1.92-4.3,4.3s1.93,4.3,4.3,4.3,4.31-1.93,4.31-4.3-1.93-4.3-4.31-4.3Z"/>
      <polygon class="cls-2" points="49.2 34.95 17.9 69.12 16.68 68.01 47.68 34.04 49.2 34.95"/>
      <rect class="cls-2" x="9.84" y="67.84" width="16.11" height="1.92"/>
      <rect class="cls-2" x="44.75" y="34.04" width="7.59" height=".91"/>
    </g>
  </g>
</svg>