<?xml version="1.0" encoding="UTF-8"?>
<svg id="Layer_2" data-name="Layer 2" xmlns="http://www.w3.org/2000/svg" xmlns:xlink="http://www.w3.org/1999/xlink" viewBox="0 0 68.24 65.84">
  <defs>
    <style>
      .cls-1 {
        fill: #fff;
      }

      .cls-2 {
        fill: url(#linear-gradient);
      }
    </style>
    <linearGradient id="linear-gradient" x1="0" y1="35" x2="63.36" y2="35" gradientUnits="userSpaceOnUse">
      <stop offset=".3" stop-color="#ff308f"/>
      <stop offset="1" stop-color="#bf246b"/>
    </linearGradient>
  </defs>
  <g id="oontent">
    <g>
      <path class="cls-1" d="M5.29,65.84h52.77c5.61,0,10.18-4.56,10.18-10.17V14.35h0c0-.61-.5-1.11-1.11-1.11s-1.11.49-1.11,1.11h0v41.32c0,4.39-3.57,7.96-7.96,7.96H5.29c-.61,0-1.11.49-1.11,1.11s.5,1.11,1.11,1.11h0Z"/>
      <path class="cls-1" d="M13.24,2.75v11.62c0,1.52,1.23,2.76,2.75,2.76s2.76-1.24,2.76-2.76V2.75c0-1.51-1.24-2.75-2.76-2.75s-2.75,1.24-2.75,2.75Z"/>
      <path class="cls-2" d="M58.06,9.06h-4.5v5.31c0,3.09-2.51,5.61-5.6,5.61s-5.61-2.52-5.61-5.61v-5.31h-20.75v5.31c0,3.09-2.51,5.61-5.61,5.61s-5.6-2.52-5.6-5.61v-5.31h-5.1c-2.92,0-5.29,2.37-5.29,5.29v41.32c0,2.92,2.37,5.28,5.29,5.28h52.77c2.93,0,5.3-2.37,5.3-5.28V14.35c0-2.92-2.37-5.29-5.3-5.29ZM60.21,55.67c0,1.17-.96,2.15-2.15,2.15H5.29c-1.19,0-2.15-.98-2.15-2.15v-28.74c0-1.18.96-2.14,2.15-2.14h52.77c1.18,0,2.15.96,2.15,2.14v28.74Z"/>
      <path class="cls-1" d="M45.2,2.75v11.62c0,1.52,1.24,2.76,2.76,2.76s2.75-1.24,2.75-2.76V2.75c0-1.51-1.23-2.75-2.75-2.75s-2.76,1.24-2.76,2.75Z"/>
      <g>
        <rect class="cls-1" x="24.25" y="28.96" width="6.23" height="5.49"/>
        <rect class="cls-1" x="34.32" y="28.96" width="6.23" height="5.49"/>
        <rect class="cls-1" x="43.65" y="28.96" width="6.23" height="5.49"/>
        <rect class="cls-1" x="24.25" y="38.09" width="6.23" height="5.49"/>
        <rect class="cls-1" x="34.32" y="38.09" width="6.23" height="5.49"/>
        <rect class="cls-1" x="43.65" y="38.09" width="6.23" height="5.49"/>
        <rect class="cls-1" x="24.25" y="47.39" width="6.23" height="5.49"/>
        <rect class="cls-1" x="14.36" y="38.09" width="6.22" height="5.49"/>
        <rect class="cls-1" x="14.36" y="47.39" width="6.22" height="5.49"/>
        <rect class="cls-1" x="34.32" y="47.39" width="6.23" height="5.49"/>
        <rect class="cls-1" x="43.65" y="47.39" width="6.23" height="5.49"/>
      </g>
    </g>
  </g>
</svg>