<?xml version="1.0" encoding="UTF-8"?>
<svg id="Layer_2" data-name="Layer 2" xmlns="http://www.w3.org/2000/svg" xmlns:xlink="http://www.w3.org/1999/xlink" viewBox="0 0 67.63 65.03">
  <defs>
    <style>
      .cls-1 {
        fill: #fff;
      }

      .cls-2 {
        fill: url(#linear-gradient);
      }
    </style>
    <linearGradient id="linear-gradient" x1="33.82" y1="0" x2="33.82" y2="65.03" gradientUnits="userSpaceOnUse">
      <stop offset=".3" stop-color="#5ba745"/>
      <stop offset="1" stop-color="#3a7e3c"/>
    </linearGradient>
  </defs>
  <g id="oontent">
    <g>
      <path class="cls-2" d="M67.49,25.07c-1-3.24-6.68-4.08-12.71-4.95-3.31-.48-7.06-1.04-8.2-1.87-1.13-.86-2.68-4.32-4.05-7.38C40.03,5.31,37.68.07,34.28,0h-.06C30.85,0,28.32,5.14,25.64,10.56c-1.48,3-3.16,6.4-4.31,7.21-1.16.81-4.93,1.22-8.26,1.58-6.06.65-11.78,1.27-12.88,4.48-1.11,3.21,3.01,7.22,7.37,11.47,2.4,2.34,5.11,4.99,5.53,6.34.41,1.36-.37,5.06-1.05,8.34-1.25,5.96-2.42,11.58.29,13.64.65.49,1.46.73,2.44.73,2.79,0,6.84-2.13,10.75-4.2,2.94-1.54,6.26-3.29,7.74-3.3,1.41.03,4.71,1.92,7.61,3.58,3.94,2.27,8.02,4.61,10.83,4.59.87,0,1.62-.21,2.23-.64,2.78-1.95,1.81-7.62.78-13.62-.56-3.29-1.21-7.04-.75-8.37.46-1.34,3.28-3.88,5.76-6.13,4.52-4.08,8.78-7.95,7.79-11.2Z"/>
      <path class="cls-1" d="M32.59,43.14l-.05-2.46c-1.74-.04-3.44-.5-4.45-1.03l.72-3.06c1.1.58,2.64,1.09,4.33,1.05,1.51-.03,2.51-.65,2.49-1.66-.02-.99-.87-1.59-2.83-2.2-2.8-.88-4.72-2.14-4.78-4.65-.05-2.31,1.52-4.14,4.29-4.72l-.05-2.47,2.55-.06.05,2.28c1.72.02,2.89.39,3.81.78l-.72,2.95c-.65-.3-1.89-.86-3.75-.83-1.69.04-2.22.8-2.21,1.52.02.83.94,1.39,3.19,2.15,3.12,1.02,4.37,2.43,4.42,4.79.05,2.31-1.52,4.32-4.5,4.88l.05,2.67-2.56.05Z"/>
    </g>
  </g>
</svg>