<?xml version="1.0" encoding="UTF-8"?>
<svg id="Layer_2" data-name="Layer 2" xmlns="http://www.w3.org/2000/svg" xmlns:xlink="http://www.w3.org/1999/xlink" viewBox="0 0 69.93 60.13">
  <defs>
    <style>
      .cls-1 {
        fill: url(#linear-gradient-2);
      }

      .cls-2 {
        fill: #fff;
      }

      .cls-3 {
        fill: #231f20;
      }

      .cls-4 {
        fill: url(#linear-gradient);
      }
    </style>
    <linearGradient id="linear-gradient" x1="34.96" y1="33.86" x2="34.96" y2="43.49" gradientUnits="userSpaceOnUse">
      <stop offset=".3" stop-color="#9333ea"/>
      <stop offset="1" stop-color="#7e22ce"/>
    </linearGradient>
    <linearGradient id="linear-gradient-2" x1="34.96" y1="25.32" x2="34.96" y2="29.86" xlink:href="#linear-gradient"/>
  </defs>
  <g id="oontent">
    <g>
      <path class="cls-2" d="M.06,53.05c0,3.91,3.17,7.07,7.08,7.07h55.65c3.91,0,7.08-3.17,7.08-7.07v-5.13H.06v5.13Z"/>
      <path class="cls-4" d="M4.1,38.68c0,2.66,2.15,4.81,4.81,4.81h52.11c2.66,0,4.81-2.15,4.81-4.81s-2.15-4.81-4.81-4.81h-4.41l-14.51,5.65c-1.02.39-2.58.18-3.46-.47l-6.43-4.81c-.17-.14-.27-.25-.36-.37H8.91c-2.66,0-4.81,2.15-4.81,4.81Z"/>
      <path class="cls-1" d="M63.62,25.32H6.3c-1.25,0-2.26,1.02-2.26,2.26s1.01,2.27,2.26,2.27h57.32c1.25,0,2.27-1.01,2.27-2.27s-1.02-2.26-2.27-2.26Z"/>
      <path class="cls-2" d="M34.96,0C7.49,0,0,9.39,0,20.98h69.93c0-11.58-7.75-20.98-34.96-20.98Z"/>
      <path class="cls-3" d="M24.26,8.11c-1.28,0-2.31-1.03-2.31-2.3s1.03-2.31,2.31-2.31,2.31,1.03,2.31,2.31-1.04,2.3-2.31,2.3Z"/>
      <path class="cls-3" d="M29.81,14.01c-1.28,0-2.31-1.04-2.31-2.31s1.03-2.3,2.31-2.3,2.31,1.03,2.31,2.3-1.04,2.31-2.31,2.31Z"/>
      <path class="cls-3" d="M35.37,8.11c-1.27,0-2.31-1.03-2.31-2.3s1.04-2.31,2.31-2.31,2.3,1.03,2.3,2.31-1.02,2.3-2.3,2.3Z"/>
      <path class="cls-3" d="M40.92,14.01c-1.27,0-2.31-1.04-2.31-2.31s1.03-2.3,2.31-2.3,2.31,1.03,2.31,2.3-1.03,2.31-2.31,2.31Z"/>
      <path class="cls-3" d="M46.48,8.11c-1.28,0-2.31-1.03-2.31-2.3s1.03-2.31,2.31-2.31,2.31,1.03,2.31,2.31-1.03,2.3-2.31,2.3Z"/>
    </g>
  </g>
</svg>