<?xml version="1.0" encoding="UTF-8"?>
<svg id="Layer_2" data-name="Layer 2" xmlns="http://www.w3.org/2000/svg" xmlns:xlink="http://www.w3.org/1999/xlink" viewBox="0 0 76.13 69.79">
  <defs>
    <style>
      .cls-1 {
        fill: url(#linear-gradient-2);
      }

      .cls-2 {
        fill: #fff;
      }

      .cls-3 {
        fill: url(#linear-gradient-3);
      }

      .cls-4 {
        fill: url(#linear-gradient);
      }
    </style>
    <linearGradient id="linear-gradient" x1="60.74" y1="41.06" x2="76.13" y2="41.06" gradientUnits="userSpaceOnUse">
      <stop offset="0" stop-color="#9333ea"/>
      <stop offset="1" stop-color="#7e22ce"/>
    </linearGradient>
    <linearGradient id="linear-gradient-2" x1="56.48" y1="41.06" x2="67.96" y2="41.06" xlink:href="#linear-gradient"/>
    <linearGradient id="linear-gradient-3" x1="51.87" y1="41.06" x2="59.52" y2="41.06" xlink:href="#linear-gradient"/>
  </defs>
  <g id="oontent">
    <g>
      <path class="cls-2" d="M47.38,30.93c-1.17-1.32-3-2.71-3.7-4.36-1.01-2.36.14-4.73.1-7.15-.03-1.94-.6-4.36-1.26-6.16-1.11-3.04-3.08-5.5-5.51-7.41-3.92-3.61-9.35-5.85-15.36-5.85C9.7,0,0,8.87,0,19.81c0,.73.05,1.45.13,2.16.08,4.74,1.56,10.42,5.84,16.75,0,0,5.97,11.89-5.97,18.04l26.28.04s1.99-7.83,5.18-7.83c2.69,0,5.46.2,8.16.05.54.09.96.05,1.29-.1.02,0,.04,0,.05,0v-.02c1.85-.92.57-5.23.57-5.23,1.04-.45,1.74-1.2,1.74-1.77v-.12c0-.7-1.06-1.3-2.53-1.51h.68c1.11,0,2.01-.6,2.01-1.35v-.1c0-.21-.07-.4-.2-.57.2-.88.99-4.76,1.17-4.77,6.27-.31,2.98-2.57,2.98-2.57Z"/>
      <path class="cls-4" d="M64.54,12.98c-.86-.85-2.25-.85-3.11,0-.86.86-.86,2.25,0,3.12,13.74,13.75,13.73,36.15-.03,49.92-.87.86-.87,2.26,0,3.12.86.86,2.25.86,3.11,0,15.48-15.5,15.5-40.68.04-56.16Z"/>
      <path class="cls-1" d="M60.26,22.45c-.86-.86-2.26-.86-3.11,0-.87.86-.87,2.25,0,3.11,4.12,4.13,6.4,9.63,6.4,15.47s-2.28,11.38-6.42,15.53c-.87.86-.87,2.25,0,3.11.85.86,2.25.86,3.11,0,4.97-4.98,7.72-11.6,7.72-18.64s-2.74-13.62-7.7-18.58Z"/>
      <path class="cls-3" d="M55.65,31.68c-.86-.85-2.26-.85-3.11,0-.87.87-.87,2.25,0,3.12,1.67,1.67,2.58,3.89,2.58,6.26,0,2.37-.92,4.6-2.6,6.27-.85.87-.85,2.25,0,3.12.86.85,2.26.85,3.12,0,2.51-2.51,3.88-5.84,3.89-9.38,0-3.55-1.37-6.88-3.87-9.38Z"/>
    </g>
  </g>
</svg>