<?xml version="1.0" encoding="UTF-8"?>
<svg id="Layer_2" data-name="Layer 2" xmlns="http://www.w3.org/2000/svg" xmlns:xlink="http://www.w3.org/1999/xlink" viewBox="0 0 57.03 63.83">
  <defs>
    <style>
      .cls-1 {
        fill: url(#linear-gradient-2);
      }

      .cls-2 {
        fill: #fff;
      }

      .cls-3 {
        fill: url(#linear-gradient-4);
      }

      .cls-4 {
        fill: url(#linear-gradient-3);
      }

      .cls-5 {
        fill: url(#linear-gradient-5);
      }

      .cls-6 {
        fill: url(#linear-gradient-8);
      }

      .cls-7 {
        fill: url(#linear-gradient-7);
      }

      .cls-8 {
        fill: url(#linear-gradient-6);
      }

      .cls-9 {
        fill: url(#linear-gradient);
      }
    </style>
    <linearGradient id="linear-gradient" x1="23.65" y1="0" x2="23.65" y2="25.37" gradientUnits="userSpaceOnUse">
      <stop offset=".3" stop-color="#fbbf24"/>
      <stop offset="1" stop-color="#f59e0b"/>
    </linearGradient>
    <linearGradient id="linear-gradient-2" x1="23.68" y1="26.48" x2="23.68" y2="30.02" xlink:href="#linear-gradient"/>
    <linearGradient id="linear-gradient-3" x1="43.14" x2="43.14" xlink:href="#linear-gradient"/>
    <linearGradient id="linear-gradient-4" x1="43.18" y1="26.48" x2="43.18" y2="30.02" xlink:href="#linear-gradient"/>
    <linearGradient id="linear-gradient-5" x1="43.14" x2="43.14" xlink:href="#linear-gradient"/>
    <linearGradient id="linear-gradient-6" x1="4.15" x2="4.15" xlink:href="#linear-gradient"/>
    <linearGradient id="linear-gradient-7" x1="4.19" y1="26.48" x2="4.19" y2="30.02" xlink:href="#linear-gradient"/>
    <linearGradient id="linear-gradient-8" x1="4.15" x2="4.15" xlink:href="#linear-gradient"/>
  </defs>
  <g id="oontent">
    <g>
      <g>
        <path class="cls-9" d="M27.78,25.37v-5.13l-.05-14.4.02-4.08c0-.98-.79-1.76-1.77-1.76h-4.68c-.98,0-1.77.79-1.77,1.76l-.02,4.08.05,14.4v5.13h8.21Z"/>
        <path class="cls-1" d="M19.58,26.48c0,1.95,1.58,3.54,3.54,3.54h1.15c1.95,0,3.54-1.58,3.54-3.54h-8.22Z"/>
        <path class="cls-9" d="M27.78,25.37v-5.13l-.05-14.4.02-4.08c0-.98-.79-1.76-1.77-1.76h-4.68c-.98,0-1.77.79-1.77,1.76l-.02,4.08.05,14.4v5.13h8.21Z"/>
      </g>
      <g>
        <path class="cls-2" d="M37.53,25.37v-5.13l-.05-14.4.02-4.08c0-.98-.79-1.76-1.77-1.76h-4.67c-.98,0-1.77.79-1.77,1.76l-.02,4.08.05,14.4v5.13h8.21Z"/>
        <path class="cls-2" d="M29.32,26.48c0,1.95,1.58,3.54,3.54,3.54h1.15c1.95,0,3.53-1.58,3.53-3.54h-8.22Z"/>
        <path class="cls-2" d="M37.53,25.37v-5.13l-.05-14.4.02-4.08c0-.98-.79-1.76-1.77-1.76h-4.67c-.98,0-1.77.79-1.77,1.76l-.02,4.08.05,14.4v5.13h8.21Z"/>
        <path class="cls-2" d="M29.32,26.48c0,1.95,1.58,3.54,3.54,3.54h1.15c1.95,0,3.53-1.58,3.53-3.54h-8.22Z"/>
      </g>
      <g>
        <path class="cls-4" d="M47.27,25.37v-5.13l-.05-14.4.03-4.08c0-.98-.8-1.76-1.77-1.76h-4.68c-.98,0-1.77.79-1.77,1.76l-.02,4.08.05,14.4v5.13h8.21Z"/>
        <path class="cls-3" d="M39.08,26.48c0,1.95,1.58,3.54,3.53,3.54h1.15c1.95,0,3.54-1.58,3.54-3.54h-8.21Z"/>
        <path class="cls-5" d="M47.27,25.37v-5.13l-.05-14.4.03-4.08c0-.98-.8-1.76-1.77-1.76h-4.68c-.98,0-1.77.79-1.77,1.76l-.02,4.08.05,14.4v5.13h8.21Z"/>
      </g>
      <g>
        <path class="cls-2" d="M57.02,25.37v-5.13l-.05-14.4.02-4.08c0-.98-.79-1.76-1.76-1.76h-4.68c-.98,0-1.77.79-1.77,1.76l-.02,4.08.05,14.4v5.13h8.21Z"/>
        <path class="cls-2" d="M48.82,26.48c0,1.95,1.58,3.54,3.53,3.54h1.15c1.95,0,3.54-1.58,3.54-3.54h-8.21Z"/>
        <path class="cls-2" d="M57.02,25.37v-5.13l-.05-14.4.02-4.08c0-.98-.79-1.76-1.76-1.76h-4.68c-.98,0-1.77.79-1.77,1.76l-.02,4.08.05,14.4v5.13h8.21Z"/>
        <path class="cls-2" d="M48.82,26.48c0,1.95,1.58,3.54,3.53,3.54h1.15c1.95,0,3.54-1.58,3.54-3.54h-8.21Z"/>
      </g>
      <g>
        <path class="cls-8" d="M8.28,25.37v-5.13l-.05-14.4.03-4.08c0-.98-.79-1.76-1.77-1.76H1.8C.83,0,.04.79.04,1.76l-.02,4.08.05,14.4v5.13h8.21Z"/>
        <path class="cls-7" d="M.08,26.48c0,1.95,1.58,3.54,3.53,3.54h1.15c1.95,0,3.54-1.58,3.54-3.54H.08Z"/>
        <path class="cls-6" d="M8.28,25.37v-5.13l-.05-14.4.03-4.08c0-.98-.79-1.76-1.77-1.76H1.8C.83,0,.04.79.04,1.76l-.02,4.08.05,14.4v5.13h8.21Z"/>
      </g>
      <g>
        <path class="cls-2" d="M18.03,25.37v-5.13l-.06-14.4.03-4.08c0-.98-.79-1.76-1.77-1.76h-4.68c-.98,0-1.77.79-1.77,1.76l-.02,4.08.05,14.4v5.13h8.21Z"/>
        <path class="cls-2" d="M9.83,26.48c0,1.95,1.58,3.54,3.54,3.54h1.14c1.96,0,3.54-1.58,3.54-3.54h-8.21Z"/>
        <path class="cls-2" d="M18.03,25.37v-5.13l-.06-14.4.03-4.08c0-.98-.79-1.76-1.77-1.76h-4.68c-.98,0-1.77.79-1.77,1.76l-.02,4.08.05,14.4v5.13h8.21Z"/>
        <path class="cls-2" d="M9.83,26.48c0,1.95,1.58,3.54,3.54,3.54h1.14c1.96,0,3.54-1.58,3.54-3.54h-8.21Z"/>
      </g>
      <path class="cls-2" d="M56.1,30.05c-.36.26-.72.44-1.11.57v32.32c-.01.49.38.89.87.89h.23c.49,0,.89-.4.89-.89V29.18c-.24.32-.53.61-.88.87Z"/>
      <path class="cls-2" d="M31.61,30.76v19.57c0,.46-.39.84-.85.84H3.02c-.46,0-.84-.38-.84-.84v-19.48c-.18-.11-1.16-.78-1.35-.94-.32-.27-.6-.57-.83-.89v33.92c0,.49.39.88.87.88h32.14c.48,0,.88-.39.88-.88V30.89c-.14,0-.31,0-.47,0-.36,0-1.5-.11-1.82-.14Z"/>
      <path class="cls-2" d="M40.55,45.7c0,.57-.46,1.04-1.03,1.04h-3.02c-.57,0-1.04-.46-1.04-1.04h0c0-.57.46-1.03,1.04-1.03h3.02c.57,0,1.03.46,1.03,1.03h0Z"/>
    </g>
  </g>
</svg>