<?xml version="1.0" encoding="UTF-8"?>
<svg id="Layer_2" data-name="Layer 2" xmlns="http://www.w3.org/2000/svg" xmlns:xlink="http://www.w3.org/1999/xlink" viewBox="0 0 59.27 65.64">
  <defs>
    <style>
      .cls-1 {
        fill: url(#linear-gradient-2);
      }

      .cls-2 {
        fill: #fff;
      }

      .cls-3 {
        fill: url(#linear-gradient-3);
      }

      .cls-4 {
        fill: url(#linear-gradient);
      }
    </style>
    <linearGradient id="linear-gradient" x1="54.01" y1="2.68" x2="54.01" y2="39.21" gradientUnits="userSpaceOnUse">
      <stop offset=".3" stop-color="#2dd4bf"/>
      <stop offset="1" stop-color="#0d9488"/>
    </linearGradient>
    <linearGradient id="linear-gradient-2" x1="47.7" y1="7.94" x2="47.7" y2="34.03" xlink:href="#linear-gradient"/>
    <linearGradient id="linear-gradient-3" x1="41.84" y1="12.85" x2="41.84" y2="29.19" xlink:href="#linear-gradient"/>
  </defs>
  <g id="oontent">
    <g>
      <path class="cls-2" d="M32.62,9.27V2.67c0-1.47-1.28-2.67-2.86-2.67s-2.85,1.19-2.85,2.67v3.85c-.54-.08-1.1-.13-1.67-.13h-14.88C4.64,6.39,0,10.72,0,16.06v39.91c0,5.34,4.64,9.67,10.36,9.67h14.88c5.72,0,10.36-4.33,10.36-9.67V16.06c0-2.64-1.14-5.04-2.98-6.79ZM6.15,12.77h23.31c1.24,0,2.24.81,2.24,1.79v14.53c0,.99-.99,1.79-2.23,1.79H6.15c-1.23,0-2.24-.81-2.24-1.79v-14.53c0-.99.99-1.79,2.23-1.79ZM7.93,34.49c2.23,0,4.03,1.28,4.03,2.85,0,1.59-1.8,2.86-4.03,2.86-2.22,0-4.03-1.28-4.03-2.85s1.8-2.87,4.02-2.87ZM7.93,41.75c2.22,0,4.03,1.28,4.03,2.86,0,1.58-1.8,2.86-4.02,2.86s-4.03-1.28-4.03-2.86,1.8-2.86,4.02-2.86ZM7.94,48.79c2.22,0,4.02,1.28,4.03,2.86,0,1.58-1.8,2.86-4.02,2.86-2.22,0-4.03-1.27-4.03-2.85s1.8-2.86,4.03-2.87ZM7.95,61.26c-2.22,0-4.02-1.28-4.03-2.85,0-1.58,1.8-2.86,4.03-2.86,2.22,0,4.02,1.28,4.03,2.86,0,1.58-1.8,2.86-4.03,2.86ZM17.8,34.49c2.22,0,4.03,1.28,4.03,2.86s-1.8,2.85-4.03,2.86c-2.22,0-4.02-1.28-4.03-2.86,0-1.57,1.8-2.86,4.03-2.86ZM17.8,41.75c2.23,0,4.03,1.28,4.03,2.86s-1.8,2.86-4.02,2.86c-2.23,0-4.03-1.27-4.03-2.86s1.8-2.86,4.02-2.86ZM17.81,48.79c2.22,0,4.03,1.28,4.03,2.86,0,1.58-1.8,2.86-4.02,2.86s-4.03-1.27-4.03-2.85,1.8-2.86,4.02-2.86ZM17.82,61.25c-2.22,0-4.03-1.28-4.03-2.86s1.8-2.86,4.02-2.86c2.22,0,4.03,1.28,4.03,2.86,0,1.58-1.8,2.86-4.02,2.86ZM27.66,34.48c2.22,0,4.03,1.28,4.03,2.85s-1.8,2.86-4.03,2.86c-2.22,0-4.02-1.28-4.03-2.86,0-1.58,1.8-2.86,4.03-2.86ZM27.67,41.74c2.23,0,4.03,1.28,4.03,2.86s-1.8,2.86-4.03,2.86-4.02-1.28-4.02-2.86c0-1.58,1.8-2.86,4.02-2.86ZM27.67,48.79c2.23,0,4.03,1.27,4.03,2.85,0,1.58-1.8,2.86-4.02,2.86-2.23,0-4.03-1.27-4.03-2.85s1.8-2.86,4.02-2.86ZM27.68,61.25c-2.22,0-4.03-1.28-4.03-2.86,0-1.58,1.8-2.86,4.02-2.86,2.22,0,4.03,1.27,4.03,2.85,0,1.58-1.8,2.86-4.02,2.86Z"/>
      <g>
        <path class="cls-4" d="M52.19,2.96c-.35-.38-.99-.35-1.33,0-.61.62-1.23,1.25-1.84,1.87-.38.38-.35.95,0,1.33,3.65,4.09,5.67,9.28,5.75,14.76,0,5.47-1.94,10.71-5.53,14.85-.34.39-.38.95,0,1.33.62.61,1.25,1.23,1.87,1.84.34.34.99.39,1.33,0,4.4-5.01,6.83-11.36,6.83-18.04s-2.65-13.04-7.08-17.94Z"/>
        <path class="cls-1" d="M47.01,8.21c-.34-.39-.99-.35-1.33,0-.61.62-1.23,1.24-1.84,1.87-.38.39-.33.94,0,1.33,2.27,2.7,3.5,6.03,3.57,9.56-.02,3.52-1.18,6.87-3.42,9.61-.32.4-.39.95,0,1.33.62.61,1.25,1.23,1.87,1.84.34.34,1,.4,1.33,0,6.24-7.43,6.17-18.2-.18-25.54Z"/>
        <path class="cls-3" d="M42.17,13.13c-.32-.4-1.01-.33-1.33,0-.62.63-1.23,1.25-1.85,1.88-.27.28-.39.8-.15,1.14,1.06,1.47,1.64,3.06,1.7,4.87-.03,1.81-.58,3.42-1.62,4.9-.24.34-.13.86.15,1.14.63.62,1.25,1.23,1.88,1.85.47.47,1.12.29,1.48-.19,3.56-4.68,3.34-11.02-.25-15.6Z"/>
      </g>
    </g>
  </g>
</svg>