<?xml version="1.0" encoding="UTF-8"?>
<svg id="Layer_2" data-name="Layer 2" xmlns="http://www.w3.org/2000/svg" xmlns:xlink="http://www.w3.org/1999/xlink" viewBox="0 0 80.17 38.14">
  <defs>
    <style>
      .cls-1 {
        fill: url(#linear-gradient-2);
      }

      .cls-2 {
        fill: #fff;
      }

      .cls-3 {
        fill: url(#linear-gradient);
      }
    </style>
    <linearGradient id="linear-gradient" x1="53.55" y1="11.73" x2="53.55" y2="33.96" gradientUnits="userSpaceOnUse">
      <stop offset=".3" stop-color="#9333ea"/>
      <stop offset="1" stop-color="#7e22ce"/>
    </linearGradient>
    <linearGradient id="linear-gradient-2" x1="18.22" x2="18.22" xlink:href="#linear-gradient"/>
  </defs>
  <g id="oontent">
    <g>
      <path class="cls-2" d="M80.17,3.87v24.88c0,.56-.46,1.02-1.02,1.02s-1.02-.46-1.02-1.02V3.87c0-1.01-.82-1.83-1.84-1.83H10.22c-.56,0-1.02-.46-1.02-1.02s.46-1.02,1.02-1.02h66.07c2.14,0,3.88,1.74,3.88,3.87Z"/>
      <path class="cls-2" d="M76.1,7.55v24.88c0,.56-.46,1.02-1.02,1.02s-1.02-.46-1.02-1.02V7.55c0-1.01-.82-1.83-1.83-1.83H6.15c-.56,0-1.02-.46-1.02-1.02s.46-1.02,1.02-1.02h66.08c2.13,0,3.87,1.74,3.87,3.87Z"/>
      <path class="cls-2" d="M71.78,10.41v24.88c0,1.57-1.28,2.85-2.86,2.85H2.85c-1.58,0-2.85-1.28-2.85-2.85V10.41c0-1.58,1.27-2.86,2.85-2.86h66.07c1.58,0,2.86,1.28,2.86,2.86ZM68.85,34.59V11.1c0-.34-.28-.62-.62-.62H3.54c-.34,0-.62.28-.62.62v23.49c0,.35.28.63.62.63h64.69c.34,0,.62-.28.62-.63Z"/>
      <path class="cls-3" d="M67.6,11.73v22.23h-27.98c3.42-1.84,5.81-6.11,5.81-11.08s-2.45-9.35-5.93-11.15h28.1Z"/>
      <path class="cls-2" d="M35.92,12.08c4.56.02,8.26,4.85,8.26,10.8s-3.72,10.8-8.29,10.8h-.02l.02-.91c1.13,0,2.06-.68,2.06-1.52,0-.21-.06-.42-.18-.6,2.45-.59,4.22-2.27,4.22-4.26,0-2.35-2.49-4.28-5.63-4.46-.15-.04-.31-.05-.47-.05-1.57,0-2.85-.94-2.85-2.09s1.28-2.09,2.85-2.09,2.84.94,2.84,2.09c0,.66.73,1.19,1.63,1.19s1.63-.53,1.63-1.19c0-2.01-1.81-3.71-4.29-4.28.16-.21.25-.45.25-.71,0-.84-.93-1.51-2.06-1.51l.03-1.21Z"/>
      <path class="cls-2" d="M35.89,24.3c1.57,0,2.84.94,2.84,2.09s-1.27,2.09-2.84,2.09-2.85-.94-2.85-2.09c0-.66-.73-1.19-1.63-1.19s-1.63.53-1.63,1.19c0,1.99,1.77,3.67,4.22,4.26-.11.18-.18.39-.18.6,0,.84.93,1.52,2.07,1.52l-.02.91c-4.57,0-8.28-4.86-8.28-10.8s3.72-10.8,8.3-10.8h.03l-.03,1.21c-1.14,0-2.07.67-2.07,1.51,0,.26.09.5.25.71-2.48.57-4.29,2.27-4.29,4.28,0,2.35,2.49,4.28,5.63,4.46.15.03.31.05.48.05Z"/>
      <path class="cls-1" d="M4.17,11.73h28.1c-3.48,1.8-5.93,6.12-5.93,11.15s2.4,9.24,5.81,11.08H4.17V11.73Z"/>
    </g>
  </g>
</svg>