<?xml version="1.0" encoding="UTF-8"?>
<svg id="Layer_2" data-name="Layer 2" xmlns="http://www.w3.org/2000/svg" viewBox="0 0 49.84 47.21">
  <defs>
    <style>
      .cls-1 {
        fill: #fff;
      }
    </style>
  </defs>
  <g id="oontent">
    <path class="cls-1" d="M0,11.79C0,7.79.88,4.82,2.64,2.89,4.39.96,6.77,0,9.78,0s5.54.96,7.3,2.88c1.75,1.92,2.63,4.89,2.63,8.91s-.88,6.96-2.63,8.89c-1.76,1.93-4.14,2.89-7.14,2.89s-5.54-.96-7.3-2.88c-1.76-1.92-2.64-4.89-2.64-8.91ZM6.67,11.73c0,2.9.34,4.85,1.01,5.85.51.73,1.21,1.1,2.1,1.1s1.62-.37,2.13-1.1c.65-1,.98-2.95.98-5.85s-.32-4.84-.98-5.82c-.51-.75-1.22-1.13-2.13-1.13s-1.59.37-2.1,1.1c-.67,1-1.01,2.95-1.01,5.85ZM16.3,47.13h-6.34L33.75,0h6.15l-23.61,47.13ZM30.13,35.4c0-4,.88-6.96,2.64-8.89,1.76-1.93,4.16-2.89,7.2-2.89s5.48.96,7.24,2.89c1.76,1.93,2.63,4.89,2.63,8.89s-.88,7-2.63,8.93c-1.76,1.93-4.14,2.89-7.15,2.89s-5.54-.96-7.3-2.89c-1.76-1.93-2.64-4.9-2.64-8.93ZM36.8,35.37c0,2.9.34,4.84,1,5.82.51.75,1.21,1.12,2.1,1.12s1.62-.37,2.1-1.09c.67-1,1.01-2.95,1.01-5.85s-.33-4.86-.98-5.85c-.51-.73-1.22-1.09-2.13-1.09s-1.61.37-2.1,1.09c-.67,1-1,2.95-1,5.85Z"/>
  </g>
</svg>