<?xml version="1.0" encoding="UTF-8"?>
<svg id="Layer_2" data-name="Layer 2" xmlns="http://www.w3.org/2000/svg" xmlns:xlink="http://www.w3.org/1999/xlink" viewBox="0 0 78.14 77.96">
  <defs>
    <style>
      .cls-1 {
        fill: #231f20;
      }

      .cls-1, .cls-2, .cls-3, .cls-4, .cls-5 {
        fill-rule: evenodd;
      }

      .cls-2 {
        fill: #fff;
      }

      .cls-3 {
        fill: url(#linear-gradient-3);
      }

      .cls-4 {
        fill: url(#linear-gradient-2);
      }

      .cls-5 {
        fill: url(#linear-gradient);
      }
    </style>
    <linearGradient id="linear-gradient" x1="50.48" y1="77.96" x2="50.48" y2="61.6" gradientUnits="userSpaceOnUse">
      <stop offset=".3" stop-color="#9333ea"/>
      <stop offset="1" stop-color="#7e22ce"/>
    </linearGradient>
    <linearGradient id="linear-gradient-2" x1="66.83" y1="62.49" x2="66.83" y2="39.87" xlink:href="#linear-gradient"/>
    <linearGradient id="linear-gradient-3" x1="34.25" y1="64.79" x2="34.25" y2="44.32" xlink:href="#linear-gradient"/>
  </defs>
  <g id="oontent">
    <g>
      <path class="cls-2" d="M.79,38.17c-1.59-2.68-.71-6.19,1.97-7.8L51.83.81c2.67-1.61,6.19-.75,7.82,1.91l13,21.19c1.63,2.66.79,6.16-1.88,7.79l-21.39,13.05c-2.66,1.62-5.09,2.52-5.41,1.99s1.61-2.29,4.27-3.91l19.5-11.88c2.66-1.62,3.51-5.12,1.87-7.78l-10.71-17.43c-1.63-2.66-5.16-3.52-7.84-1.92L5.57,30.99c-2.68,1.6-3.57,5.1-1.99,7.79l10.67,18.13c1.58,2.69,4.21,4.07,5.85,3.08s3.23-1.37,3.54-.84-1.15,2.02-3.25,3.31-5.12.14-6.71-2.54L.79,38.17Z"/>
      <path class="cls-5" d="M48.89,61.76c-4.41.88-7.29,5.2-6.41,9.62.88,4.42,5.19,7.31,9.6,6.43,4.41-.88,7.29-5.2,6.41-9.62-.88-4.42-5.19-7.31-9.6-6.43h0Z"/>
      <path class="cls-4" d="M64.62,40.09c-6.11,1.22-10.1,7.19-8.88,13.3,1.22,6.11,7.19,10.09,13.3,8.88,6.11-1.22,10.1-7.19,8.88-13.3-1.21-6.11-7.19-10.1-13.3-8.88h0Z"/>
      <path class="cls-3" d="M32.25,44.51c-5.33,1.06-8.78,6.44-7.68,11.98,1.1,5.54,6.35,9.19,11.68,8.12,5.33-1.06,8.78-6.44,7.68-11.98-1.1-5.54-6.35-9.19-11.68-8.13h0Z"/>
      <path class="cls-2" d="M40.37,60.98l-1-5c-.24-1.23.04-1.72.35-2.12.41-.52.8-.81,1.81-1.09l-.32-2.57c-.65.14-1.2.18-1.64.52-.44.34-.7.74-.98,1.32l-.2-.82-3.04.53,1.86,9.93,3.14-.7h0Z"/>
      <path class="cls-2" d="M33.96,62.26l-1.43-7.56,1.92-.38-.57-2.46-1.75.35-.03-.17c-.13-.64-.24-1.52-.14-1.59.26-.2.49-.29,1.27-.45l.23-.04-.37-2.08c-1.66.33-3.01.32-3.73,1.07-.72.76-.63,2.23-.4,3.38l.07.34-1.92.42.51,2.36,1.88-.3,1.46,7.7,3-.6h0Z"/>
      <path class="cls-2" d="M72.32,48.16c.26-.06.05-7.39-7.39-5.46-3.49.92-4.23,2.62-4.27,4.26-.06,2.93,1.46,3.05,1.58,3.38l.14.4-3.66.72.54,2.49,4.19-.74c.46,3.18-2.38,4.22-2.38,4.22l.5,2.76,12.77-2.19-.59-2.96-8.61,1.49c-.15-.04-.18-.13-.02-.26,1.17-.92.7-3.53.7-3.53l4.21-.86-.47-2.34-4.65.69-.02-.4c-.57-.24-3.61-3.45.69-4.75,4.33-1.15,4.06,3.69,4.06,3.69l2.68-.61h0Z"/>
      <polygon class="cls-2" points="46.45 71.94 46.88 74.11 49.84 73.52 50.54 76.44 52.98 75.96 52.42 73 55.56 72.38 55.13 70.21 52.37 70.76 54.41 64.45 51.7 64.91 50.36 68.83 47.45 65.5 44.79 66.07 49.29 71.37 46.45 71.94 46.45 71.94"/>
      <path class="cls-2" d="M20.52,24.51c-1.34.79-1.79,2.54-.99,3.88l7.33,12.33c.8,1.34,1.95,2.22,2.57,1.95s3.65-.69,5.21-.64l4.64.99c1.4.69,3.64.6,4.98-.2l23.69-14.05c1.34-.8,1.76-2.53.93-3.85l-11.79-18.79c-.83-1.32-2.6-1.75-3.95-.96L20.52,24.51Z"/>
      <path class="cls-1" d="M50.88,18.51c-.92-1.31-3.2-2.44-5.11-2.61-1.46-.13-3.24-.05-5.23.72l-.96-1.51-2.79,1.6.83,1.47c-1.54,1.37-2.76,3.34-3.35,5.03-.56,1.6-.45,3.52.32,5.09.9,1.85,1.77,2.15,2.76,2.58.99.43,1.98.45,2.9.35.92-.1,2.36-.77,3.96-1.98l2.99,5.1c-.71.32-1.84.55-2.32.35-.49-.21-2.37-.97-3.04-1.7l-3.14,1.97c.53.95,1.8,1.71,2.47,2.1.67.39,1.45.41,2.33.57.87.16,1.61.24,2.55.04.94-.19,1.51-.2,2.83-.69l.78,1.62,2.86-1.86-.84-1.61c.99-.68.92-.94,1.48-1.62.56-.68,1.17-1.56,1.47-2.46.3-.9.59-1.64.64-2.61.06-.97.13-2.84-.65-4.06s-2.58-2.06-4.17-2.18c-1.59-.12-2.55.28-5.31,1.86l-2.87-4.67c.35-.09,1.55-.47,2.59-.32.77.1,2.08,1.04,2.62,1.58l3.41-2.14h0Z"/>
      <path class="cls-2" d="M39.43,21.18c-.42.51-1.16.93-1.2,1.32-.04.39-.77,1.08-.61,2.09.25,1.56,1.33,2.08,1.71,2.22.38.14,2.08-.17,2.91-.92l-2.82-4.71h0Z"/>
      <path class="cls-2" d="M50.01,32.32c.6-.61,1.68-2.17,1.7-2.95.01-.78-.03-1.55-.37-2.01-.42-.55-.6-.69-1.1-.81-1.4-.35-2.32.3-3.06.85l2.84,4.92Z"/>
    </g>
  </g>
</svg>