<?xml version="1.0" encoding="UTF-8"?>
<svg id="Layer_2" data-name="Layer 2" xmlns="http://www.w3.org/2000/svg" xmlns:xlink="http://www.w3.org/1999/xlink" viewBox="0 0 67.21 46.67">
  <defs>
    <style>
      .cls-1 {
        fill: #fff;
      }

      .cls-2 {
        fill: #231f20;
      }

      .cls-3 {
        fill: url(#linear-gradient);
      }
    </style>
    <linearGradient id="linear-gradient" x1="32.03" y1="17.27" x2="64.07" y2="17.27" gradientUnits="userSpaceOnUse">
      <stop offset=".3" stop-color="#9333ea"/>
      <stop offset="1" stop-color="#7e22ce"/>
    </linearGradient>
  </defs>
  <g id="oontent">
    <g>
      <path class="cls-1" d="M66.97,26.2c.49,2.36.24,4.27-.65,5.65v.06l-2.85,3.72c-.11.16-.3.23-.49.23l-.66.87c-.19.25-.5.3-.77.16l-.57.74c-.21.27-.6.31-.87.11-.06-.05-.11-.1-.14-.16l-.54.69c-.21.27-.6.31-.87.11-.17-.13-.25-.33-.24-.54l-.63.82c-.2.28-.6.33-.87.13-.28-.22-.33-.6-.12-.88l2.63-3.42c-.06,0-.14-.01-.21-.01l-3.32,4.34c-.22.27-.6.33-.88.11-.27-.21-.31-.6-.11-.87l2.9-3.78c-.14-.03-.3-.06-.46-.09l-3.49,4.55c-.2.27-.6.32-.87.11-.27-.2-.31-.6-.11-.86l3.15-4.11c-.24-.06-.46-.13-.68-.19l-3.64,4.74c-.2.27-.6.31-.87.11-.27-.21-.33-.6-.13-.87l3.37-4.41c-.27-.1-.55-.21-.85-.32l-3.76,4.93c-.2.27-.6.31-.87.11-.27-.21-.33-.6-.13-.87l3.57-4.66c-.3-.13-.6-.27-.88-.41-.05-.01-.08-.03-.11-.05l-3.89,5.09c-.2.27-.6.33-.88.13-.27-.22-.31-.6-.11-.88l3.75-4.9c-.36-.19-.72-.38-1.09-.58l-4.02,5.24c-.21.27-.6.32-.87.11-.28-.2-.33-.6-.13-.86l3.92-5.12c-.39-.24-.79-.47-1.18-.73l-4.11,5.37c-.21.27-.6.31-.87.11-.28-.21-.33-.6-.13-.87l4.06-5.29c-.43-.28-.83-.57-1.24-.87l-4.19,5.46c-.21.25-.57.33-.84.13t-.03-.01c-.27-.21-.33-.6-.11-.87l4.17-5.45c-.44-.33-.87-.66-1.29-1.01-.02.03-.02.06-.03.1l-4.19,5.46c-.16.19-.39.27-.63.22.46.38.91.74,1.37,1.09-3.57,2.43-9.02,3.99-15.1,3.99-10.74,0-19.48-4.85-19.48-10.79s8.74-10.78,19.48-10.78c.6,0,1.18.01,1.76.05.02-.05.05-.11.08-.18l4.19-5.45s.08-.08.12-.11c-.03-.08-.05-.16-.08-.25l-3.59,4.71c-.16.2-.44.28-.68.2.03.14.06.29.09.44-.61-.03-1.26-.05-1.9-.05-11.37,0-20.63,5.12-20.63,11.42s9.26,11.42,20.63,11.42c6.35,0,12.01-1.59,15.81-4.09.6.44,1.2.85,1.8,1.25.02.03.02.06.02.09v6.88c0,.33-.27.62-.61.62s-.61-.29-.61-.62v-6.38c-.24.13-.46.25-.69.38.02.05.03.11.03.17v6.88c0,.33-.28.61-.63.61s-.61-.29-.61-.61v-6.5c-.3.14-.6.25-.9.38.02.07.03.11.03.16v6.88c0,.34-.28.63-.63.63s-.61-.29-.61-.63v-6.58c-.36.13-.72.23-1.09.34.02.05.03.09.03.14v6.88c0,.34-.28.61-.63.61s-.61-.27-.61-.61v-6.66c-.41.11-.83.21-1.26.3.02.03.03.06.03.11v6.88c0,.34-.28.61-.63.61s-.61-.27-.61-.61v-6.74c-.46.1-.93.18-1.4.24.02.03.02.07.02.08v6.88c0,.35-.27.63-.62.63s-.61-.28-.61-.63v-6.79c-.5.06-1.01.11-1.53.16,0,.02.02.02.02.05v6.87c0,.35-.28.63-.61.63-.35,0-.63-.28-.63-.63v-6.83c-.54.03-1.07.05-1.61.05v6.89c0,.33-.28.62-.63.62s-.61-.28-.61-.62v-6.89c-.54,0-1.09-.02-1.61-.05v6.83c0,.35-.28.63-.63.63s-.61-.28-.61-.63v-6.91c-.5-.05-1.01-.09-1.51-.16v6.79c0,.35-.27.63-.61.63s-.63-.28-.63-.63v-6.88s.02-.05.03-.08c-.49-.06-.94-.14-1.4-.24v6.74c0,.34-.28.61-.63.61s-.62-.27-.62-.61v-6.88s.02-.08.02-.11c-.41-.09-.83-.19-1.24-.3v6.66c0,.34-.28.61-.62.61s-.63-.27-.63-.61v-6.88s.02-.09.03-.14c-.38-.11-.74-.22-1.09-.34v6.58c0,.34-.28.63-.63.63s-.61-.29-.61-.63v-6.88s.02-.09.03-.16c-.3-.13-.6-.24-.9-.38v6.5c0,.33-.28.61-.63.61s-.61-.29-.61-.61v-6.88c0-.06.02-.13.03-.17-.24-.13-.46-.25-.69-.38v6.38c0,.33-.27.62-.61.62s-.63-.29-.63-.62v-6.88c0-.08.02-.14.05-.2-.16-.09-.32-.19-.46-.3v6.2c0,.34-.28.63-.63.63s-.61-.29-.61-.63v-6.88c0-.06.02-.14.03-.2-.06-.06-.13-.11-.2-.17v5.98c0,.35-.28.63-.61.63-.35,0-.63-.28-.63-.63v-1.04c-.11.18-.3.3-.5.3-.35,0-.63-.28-.63-.63v-.87c-.06.02-.14.03-.2.03-.35,0-.63-.27-.63-.61v-.93c-.28-.05-.52-.29-.52-.6v-1.15c-.11-.11-.17-.27-.17-.42v-6.88c0-.1.02-.18.05-.24v-.05C.05,19.14,10.49,13.38,23.35,13.38c.54,0,1.05,0,1.57.01l.57-.72c-.21.08-.43.06-.6-.08-.27-.2-.31-.6-.11-.86l.54-.7c-.08-.03-.14-.05-.2-.09-.27-.22-.31-.6-.11-.88l.57-.73c-.2-.22-.24-.55-.05-.79l.69-.91c-.02-.16.01-.33.13-.45l3.32-4.33c.22-.38.49-.73.79-1.04l.08-.09c.05-.08.13-.13.21-.17,2.61-2.25,7.79-2.11,14.27.94,10.46,4.93,20.28,15.54,21.97,23.71Z"/>
      <path class="cls-2" d="M50.73,30.35c9.24,4.36,15.54,2.03,14.06-5.18-1.48-7.23-10.2-16.63-19.45-20.99-9.23-4.36-15.54-2.03-14.05,5.2,1.48,7.21,10.2,16.63,19.43,20.97Z"/>
      <path class="cls-2" d="M40.91,25.55s.08-.08.11-.1c-.43-.38-.83-.74-1.26-1.12-.02.05-.03.11-.08.16l-4.17,5.46c-.11.14-.28.22-.46.24.52.49,1.07.98,1.61,1.45-.09-.2-.08-.44.06-.63l4.19-5.46Z"/>
      <path class="cls-2" d="M38.7,23.74c.06-.08.14-.14.24-.17-.41-.38-.79-.77-1.17-1.15-.03.06-.05.13-.09.17l-4.19,5.47c-.08.13-.22.19-.35.22.39.44.82.86,1.26,1.29,0-.12.03-.25.11-.36l4.19-5.46Z"/>
      <path class="cls-2" d="M37.02,21.63c-.36-.38-.71-.77-1.05-1.17-.02.06-.05.13-.08.17l-4.19,5.47c-.06.1-.17.16-.28.19.32.41.66.8,1.01,1.2.02-.06.05-.13.09-.19l4.17-5.46c.09-.11.2-.18.33-.21Z"/>
      <path class="cls-2" d="M35.27,19.66c-.31-.38-.61-.76-.91-1.13-.02.03-.03.08-.05.11l-4.19,5.46c-.06.08-.16.14-.25.17.27.38.53.74.82,1.12.02-.02.02-.03.03-.05l4.17-5.46c.1-.13.24-.19.38-.22Z"/>
      <path class="cls-2" d="M33.7,17.65c-.25-.35-.51-.7-.74-1.04l-4.19,5.46c-.06.1-.16.14-.25.19.22.35.44.68.66,1.03l4.14-5.4c.09-.13.24-.2.38-.23Z"/>
      <path class="cls-2" d="M32.31,15.64c-.19-.31-.38-.61-.57-.93l-4.09,5.34c-.06.1-.17.16-.27.19.16.32.33.63.5.95l4.08-5.34c.09-.11.22-.17.35-.21Z"/>
      <path class="cls-2" d="M31.15,13.65c-.14-.25-.27-.5-.39-.76l-3.97,5.18c-.08.11-.2.17-.35.22.13.27.25.55.38.82l4.05-5.27c.06-.1.17-.16.28-.19Z"/>
      <path class="cls-2" d="M30.2,11.68c-.08-.17-.14-.34-.22-.52l-3.79,4.96c-.13.16-.3.24-.49.24.09.25.17.49.27.74l4.03-5.24c.05-.08.13-.12.2-.17Z"/>
      <path class="cls-2" d="M26.25,31.98v-.32h-.52c-.87,0-1.5-.06-1.89-.2-.39-.14-.64-.32-.77-.54-.13-.21-.19-.71-.19-1.5v-10.31h-.55l-8.36,2.13.3.31c.82-.19,1.51-.3,2.08-.3.36,0,.68.06.95.16.28.1.47.22.57.38.09.14.16.5.16,1.1v6.53c0,.81-.08,1.31-.22,1.53-.16.22-.43.39-.85.52-.41.13-1.12.19-2.09.19h-.6v.32h12Z"/>
      <path class="cls-3" d="M63.87,24.73c1.4,6.82-4.55,9-13.27,4.9-8.72-4.11-16.96-13.01-18.36-19.82-1.4-6.8,4.55-9.01,13.27-4.9,8.72,4.11,16.96,13.01,18.36,19.83Z"/>
      <path class="cls-1" d="M54.74,26.92l-.08-.36-.43-.2c-.69-.33-1.23-.65-1.57-.96-.36-.3-.61-.6-.76-.9-.16-.3-.31-.9-.5-1.8l-2.44-11.81-.44-.22-6.3-.77.33.49c.61.08,1.15.24,1.62.46.28.13.55.31.8.54.25.22.43.44.54.65.12.2.25.64.39,1.31l1.54,7.51c.19.91.25,1.46.17,1.67-.06.19-.25.29-.55.27-.31-.02-.87-.21-1.65-.58l-.5-.24.08.36,9.75,4.6Z"/>
      <path class="cls-1" d="M45.19,37.15v.84c0,.34-.28.63-.63.63-.22,0-.39-.12-.5-.3v1.04c0,.35-.28.63-.63.63s-.61-.28-.61-.63v-3.42c.79.44,1.59.85,2.38,1.21Z"/>
      <path class="cls-1" d="M42.64,35.85v4.79c0,.34-.27.63-.61.63s-.63-.29-.63-.63v-5.53c.42.27.84.5,1.24.74Z"/>
    </g>
  </g>
</svg>