<?xml version="1.0" encoding="UTF-8"?>
<svg id="Layer_2" data-name="Layer 2" xmlns="http://www.w3.org/2000/svg" xmlns:xlink="http://www.w3.org/1999/xlink" viewBox="0 0 71.31 67.82">
  <defs>
    <style>
      .cls-1 {
        fill: url(#linear-gradient-2);
      }

      .cls-2 {
        fill: #fff;
      }

      .cls-3 {
        fill: url(#linear-gradient-4);
      }

      .cls-4 {
        fill: url(#linear-gradient-3);
      }

      .cls-5 {
        fill: url(#linear-gradient-5);
      }

      .cls-6 {
        fill: url(#linear-gradient);
      }
    </style>
    <linearGradient id="linear-gradient" x1="14.86" y1="53.03" x2="14.86" y2="48.5" gradientUnits="userSpaceOnUse">
      <stop offset=".25" stop-color="#000"/>
      <stop offset="1" stop-color="#504e55"/>
    </linearGradient>
    <linearGradient id="linear-gradient-2" x1="28.03" y1="60.99" x2="28.03" y2="45.36" gradientUnits="userSpaceOnUse">
      <stop offset=".3" stop-color="#9333ea"/>
      <stop offset="1" stop-color="#7e22ce"/>
    </linearGradient>
    <linearGradient id="linear-gradient-3" x1="42.64" y1="65.51" x2="42.64" y2="49.88" xlink:href="#linear-gradient-2"/>
    <linearGradient id="linear-gradient-4" x1="8.49" y1="67.82" x2="8.49" y2="55.32" xlink:href="#linear-gradient-2"/>
    <linearGradient id="linear-gradient-5" x1="10.18" y1="61.57" x2="11.91" y2="61.57" xlink:href="#linear-gradient-2"/>
  </defs>
  <g id="oontent">
    <g>
      <path class="cls-2" d="M66.23,44.12c-.64,0-1.09.83-1.09,2.61s.42,2.58,1.11,2.58,1.06-.87,1.06-2.61-.36-2.58-1.08-2.58Z"/>
      <g>
        <path class="cls-2" d="M56.9,19.34c-.56.33-.54,1.26.36,2.8.88,1.51,1.65,2.03,2.24,1.69.6-.35.49-1.29-.37-2.79-.85-1.46-1.61-2.06-2.23-1.7Z"/>
        <path class="cls-2" d="M24.25,41.03l-1-1.73c-1.26.65-2.65.98-3.56,1.01l-.68-2.46c1.01-.01,2.31-.25,3.49-.94,1.06-.62,1.53-1.45,1.12-2.16-.4-.69-1.24-.8-2.87-.46-2.33.47-4.2.33-5.22-1.44-.94-1.63-.54-3.55,1.21-5.04l-1-1.74,1.79-1.04.93,1.61c1.23-.66,2.21-.85,3.01-.93l.64,2.38c-.58.04-1.68.12-3,.88-1.19.69-1.27,1.44-.97,1.95.34.59,1.21.62,3.11.28,2.62-.49,4.06.02,5.02,1.68.94,1.63.61,3.67-1.29,5.23l1.08,1.88-1.81,1.04Z"/>
      </g>
      <path class="cls-2" d="M63.8,31.3c-.62.16-.84,1.08-.38,2.8.45,1.69,1.08,2.38,1.73,2.21.67-.18.8-1.11.35-2.79-.44-1.64-1.02-2.4-1.71-2.21Z"/>
      <path class="cls-6" d="M18.47,52.49l-1.14.3c-2.54.68-5.19-.97-5.92-3.68l-.16-.62c.26,2.55,2.28,4.53,4.73,4.53h2.46c0-.18.01-.36.03-.54Z"/>
      <g>
        <path class="cls-2" d="M18.5,52.12l-.79.45c-.17.11-.34.19-.52.26.05-.01.09-.02.14-.03l1.14-.3c.01-.13.01-.25.03-.38Z"/>
        <path class="cls-2" d="M69.46,33.56l-5.34-19.94c-.73-2.71-3.38-4.36-5.92-3.68l-1.05.28,5.93,10.28c1.41,2.43.69,5.47-1.58,6.78l-8.42,4.86,1.06,3.97c.62,2.3-.33,4.56-2.12,5.04l-17.4,4.66c.64.56,1.21,1.19,1.69,1.9l29.86-8.01c2.54-.68,4.01-3.43,3.29-6.15ZM56.51,39.88l-.28-1.04.71-1.1c1.23-1.88,1.79-2.92,1.57-3.78-.16-.61-.64-.99-1.49-.76-.63.17-1.1.64-1.41,1.02l-.81-1.09c.43-.57,1.21-1.14,2.2-1.4,1.68-.45,2.85.28,3.2,1.6.34,1.25-.29,2.47-1.1,3.71l-.53.75v.03s2.79-.75,2.79-.75l.38,1.42-5.22,1.4ZM65.47,37.61c-1.9.51-3.2-.97-3.77-3.05-.57-2.14-.13-4.06,1.78-4.57,1.96-.53,3.21,1.02,3.75,3.03.6,2.27.1,4.09-1.76,4.58Z"/>
      </g>
      <path class="cls-2" d="M63.08,20.5L52.76,2.63c-1.4-2.43-4.39-3.34-6.67-2.03L2.3,25.89C.03,27.2-.68,30.25.72,32.68l10.32,17.87c1.4,2.44,4.39,3.34,6.67,2.02l.79-.45c.12-1.12.44-2.18.9-3.14l-2.1,1.21c-1.6.92-3.86,0-5.06-2.07l-8.76-15.17c-1.19-2.06-.86-4.49.73-5.42l30.74-17.74c1.6-.92,3.86,0,5.05,2.07l8.76,15.17c1.19,2.06.86,4.49-.74,5.42l-19.06,11c1.12.09,2.19.36,3.17.79l29.35-16.95c2.28-1.31,2.99-4.35,1.58-6.78ZM53.97,28.58c-.8.46-1.58.67-2.05.68l-.39-1.32c.37-.02,1.07-.18,1.67-.54.64-.36,1.14-1.06.74-1.77-.39-.67-1.17-.78-2.49-.02-.36.21-.61.38-.85.57l-1.57-3.71,3.63-2.1.74,1.27-2.56,1.48.44,1.1c.13-.11.25-.17.42-.27.63-.36,1.36-.59,2.01-.53.69.05,1.31.42,1.76,1.19.71,1.23.28,2.93-1.49,3.95ZM60.15,25.01c-1.71.99-3.34-.11-4.43-1.98-1.11-1.92-1.17-3.88.53-4.87,1.76-1.02,3.37.15,4.41,1.96,1.17,2.03,1.17,3.92-.51,4.88Z"/>
      <path class="cls-1" d="M35.67,50.86c-.94-3-3.63-5.27-6.96-5.48-4.31-.28-8.03,2.99-8.3,7.3-.28,4.31,2.99,8.02,7.3,8.3,1.99.13,3.84-.51,5.3-1.65-.09-.53-.15-1.07-.15-1.64,0-2.66,1.07-5.08,2.8-6.83Z"/>
      <polygon class="cls-2" points="29.79 56.99 28.07 56.99 28.07 50.95 28.05 50.95 26.59 51.64 26.3 50.3 28.33 49.37 29.79 49.37 29.79 56.99"/>
      <path class="cls-2" d="M66.55,22.22h-.13l3.04,11.34c.72,2.71-.75,5.47-3.29,6.15l-10.38,2.78v3.95c0,2.39-1.5,4.32-3.36,4.32h-2.92c.67.67,1.25,1.43,1.71,2.27h15.32c2.63,0,4.76-2.27,4.76-5.09v-20.64c0-2.8-2.14-5.08-4.76-5.08ZM60.96,50.52h-1.72v-6.04h-.03l-1.46.7-.29-1.34,2.03-.94h1.47v7.62ZM66.21,50.65c-1.97,0-2.84-1.77-2.85-3.92,0-2.22.93-3.95,2.9-3.95s2.84,1.82,2.84,3.9c0,2.34-.95,3.97-2.88,3.97Z"/>
      <path class="cls-4" d="M43.14,49.89c-4.31-.28-8.02,2.99-8.3,7.3-.27,4.31,2.99,8.03,7.3,8.3,4.31.28,8.03-2.99,8.3-7.3.28-4.31-2.99-8.03-7.3-8.3Z"/>
      <path class="cls-2" d="M44.89,61.57h-5.41v-1.08l.97-.88c1.68-1.5,2.49-2.35,2.5-3.24,0-.62-.36-1.11-1.24-1.11-.66,0-1.23.33-1.63.61l-.5-1.26c.56-.43,1.47-.79,2.48-.79,1.74,0,2.67,1.01,2.67,2.38,0,1.29-.92,2.31-2.03,3.29l-.71.59v.02h2.89v1.47Z"/>
      <path class="cls-3" d="M8.88,55.33c-3.45-.22-6.42,2.39-6.64,5.83-.22,3.45,2.39,6.42,5.84,6.65,3.45.22,6.41-2.4,6.64-5.84.22-3.45-2.4-6.42-5.84-6.64Z"/>
      <path class="cls-2" d="M5.33,64.72c-.74,0-1.36-.17-1.7-.34l.26-1.07c.26.13.82.3,1.37.3.59,0,1.22-.28,1.22-.93s-.5-1.02-1.72-1.02c-.33,0-.57.03-.81.06l.39-3.19h3.36v1.17h-2.37l-.13.94c.13-.03.24-.03.39-.03.58,0,1.18.13,1.6.44.46.31.75.82.75,1.53,0,1.14-.98,2.14-2.62,2.14Z"/>
      <path class="cls-2" d="M11.03,64.72c-1.57,0-2.27-1.41-2.28-3.14,0-1.77.74-3.16,2.32-3.16s2.27,1.45,2.27,3.12c0,1.88-.76,3.18-2.31,3.18Z"/>
      <path class="cls-5" d="M11.05,59.49c-.52,0-.87.66-.87,2.09s.34,2.06.88,2.06.86-.69.86-2.08-.29-2.06-.86-2.06Z"/>
    </g>
  </g>
</svg>