<?xml version="1.0" encoding="UTF-8"?>
<svg id="Layer_2" data-name="Layer 2" xmlns="http://www.w3.org/2000/svg" xmlns:xlink="http://www.w3.org/1999/xlink" viewBox="0 0 74.22 58.25">
  <defs>
    <style>
      .cls-1 {
        fill: #fff;
      }

      .cls-2 {
        fill: url(#linear-gradient);
      }
    </style>
    <linearGradient id="linear-gradient" x1="0" y1="29.12" x2="58.27" y2="29.12" gradientUnits="userSpaceOnUse">
      <stop offset="0" stop-color="#fbbf24"/>
      <stop offset="1" stop-color="#fbbf24"/>
    </linearGradient>
  </defs>
  <g id="oontent">
    <g>
      <path class="cls-1" d="M72.61,31.15L43.08,1.63c-2.14-2.14-5.65-2.14-7.79,0l-1.43,1.44,37.32,37.31,1.43-1.42c2.14-2.15,2.14-5.65,0-7.8Z"/>
      <path class="cls-1" d="M44.98,54.33l2.23,2.23c2.14,2.15,5.65,2.15,7.79,0l9.31-9.31-6.12-6.12-13.21,13.2Z"/>
      <path class="cls-2" d="M57.37,37.87c1.41-2.2,1.16-5.17-.76-7.1h0L27.46,1.66c-2.21-2.21-5.82-2.21-8.03,0L1.66,19.42c-2.21,2.22-2.21,5.82,0,8.04l29.11,29.12c2.22,2.22,5.83,2.22,8.05,0l17.78-17.77c.29-.31.55-.62.77-.96ZM36.82,54.59c-1.12,1.11-2.94,1.11-4.06,0L3.66,25.46c-1.11-1.11-1.11-2.93,0-4.04l10.88-10.89,33.18,33.16c-1.94,1.95-10.91,10.9-10.91,10.9ZM54.61,36.82s-.27.27-.52.52L20.9,4.18l.52-.53c.54-.54,1.26-.83,2.02-.83s1.48.29,2.02.83l29.14,29.11h.01c.53.54.83,1.26.83,2.02s-.3,1.49-.84,2.03Z"/>
      <path class="cls-1" d="M11.09,22.96c-.38-.38-.99-.38-1.37,0-.38.38-.38.99,0,1.37l23.46,23.48c.38.37.99.37,1.37,0,.38-.39.38-1,0-1.38L11.09,22.96Z"/>
      <path class="cls-1" d="M36.48,44.53c.38.38.99.38,1.37,0,.38-.38.38-1,0-1.38l-5.21-5.21c-.38-.38-.99-.38-1.37,0-.38.38-.38,1,0,1.38l5.21,5.21Z"/>
      <path class="cls-1" d="M13.01,19.67c-.38.39-.38,1,0,1.38l12.63,12.63c.38.37.99.37,1.37,0,.38-.38.38-.99,0-1.38l-12.63-12.63c-.38-.37-.99-.37-1.37,0Z"/>
    </g>
  </g>
</svg>