<?xml version="1.0" encoding="UTF-8"?>
<svg id="Layer_2" data-name="Layer 2" xmlns="http://www.w3.org/2000/svg" xmlns:xlink="http://www.w3.org/1999/xlink" viewBox="0 0 39.04 73.7">
  <defs>
    <style>
      .cls-1 {
        fill: #fff;
      }

      .cls-2 {
        fill: url(#linear-gradient);
      }
    </style>
    <linearGradient id="linear-gradient" x1="19.52" y1="15.14" x2="19.52" y2="73.7" gradientUnits="userSpaceOnUse">
      <stop offset=".3" stop-color="#9333ea"/>
      <stop offset="1" stop-color="#7e22ce"/>
    </linearGradient>
  </defs>
  <g id="oontent">
    <g>
      <path class="cls-1" d="M19.57,13.77c4.62,0,8.37-3.08,8.37-6.88S24.19,0,19.57,0s-8.38,3.08-8.38,6.88,3.75,6.88,8.38,6.88Z"/>
      <path class="cls-2" d="M38.92,40.95l-6-20.41c-.33-1.14-1.31-1.97-2.42-2.22-3.58-2.27-7.17-3.1-10.42-3.16-.17,0-.34-.02-.51-.02-.39,0-.76.02-1.14.06-4.98.3-8.91,2.25-10.32,3.05-1.16.23-2.18,1.11-2.49,2.29L.1,41.04c-.42,1.57.53,3.07,2.13,3.36,1.6.29,3.23-.74,3.65-2.31l4.08-15.19v10.75c0,.67.12,1.32.33,1.94v30.67c0,1.9,1.62,3.44,3.61,3.44s3.61-1.54,3.61-3.44v-25.16c.66.12,1.35.18,2.06.18.58,0,1.14-.05,1.7-.13v25.11c0,1.9,1.62,3.44,3.61,3.44s3.61-1.54,3.61-3.44v-29.79c.44-.87.69-1.82.69-2.82v-9.14l3.99,13.58c.46,1.56,2.12,2.57,3.71,2.25,1.59-.32,2.51-1.83,2.05-3.39Z"/>
    </g>
  </g>
</svg>