<?xml version="1.0" encoding="UTF-8"?>
<svg id="Layer_2" data-name="Layer 2" xmlns="http://www.w3.org/2000/svg" xmlns:xlink="http://www.w3.org/1999/xlink" viewBox="0 0 76.66 47.47">
  <defs>
    <style>
      .cls-1 {
        fill: url(#linear-gradient-2);
      }

      .cls-2 {
        fill: #fff;
      }

      .cls-3 {
        fill: url(#linear-gradient);
      }
    </style>
    <linearGradient id="linear-gradient" x1="28.19" y1="23.73" x2="51.92" y2="23.73" gradientUnits="userSpaceOnUse">
      <stop offset=".3" stop-color="#fbbf24"/>
      <stop offset="1" stop-color="#f59e0b"/>
    </linearGradient>
    <linearGradient id="linear-gradient-2" x1="16.32" y1="23.73" x2="63.79" y2="23.73" xlink:href="#linear-gradient"/>
  </defs>
  <g id="oontent">
    <g>
      <path class="cls-3" d="M40.05,11.87c-6.55,0-11.85,5.31-11.87,11.87.01,6.55,5.31,11.85,11.87,11.87,6.55-.01,11.85-5.31,11.87-11.87-.01-6.55-5.31-11.86-11.87-11.87Z"/>
      <path class="cls-1" d="M40.05,0c-13.11,0-23.73,10.63-23.73,23.73s10.63,23.73,23.73,23.73,23.73-10.62,23.73-23.73S53.16,0,40.05,0ZM40.05,38.24c-8.01,0-14.5-6.49-14.5-14.5,0-8.01,6.49-14.5,14.5-14.51,8.01,0,14.5,6.49,14.5,14.51,0,8.01-6.49,14.5-14.5,14.5Z"/>
      <path class="cls-2" d="M10.08,1.54v14.17c0,.65-.53,1.18-1.18,1.18s-1.18-.52-1.18-1.18V.62c-.38-.07-.76-.1-1.16-.1-.51,0-1,.06-1.48.17v15.02c0,.65-.53,1.18-1.18,1.18s-1.18-.52-1.18-1.18V1.76C1.08,2.95,0,4.89,0,7.08v7.77c0,2.76,1.71,5.13,4.13,6.1,0,.04,0,.08,0,.12l-1.28,22.22c0,2.02,1.64,3.66,3.66,3.66s3.66-1.64,3.66-3.66l-1.16-22.22s0-.08,0-.12c2.42-.97,4.13-3.33,4.13-6.1v-7.77c0-2.33-1.22-4.38-3.05-5.54Z"/>
      <path class="cls-2" d="M75.76,27.68l.02.03-.2-27.23c-3.67-.11-6.74,2.78-6.85,6.46l-1.35,11.87c-.08,2.81,1.23,5,3.07,6.35l-1.12,18.18c0,2.02,1.64,3.66,3.66,3.66s3.66-1.64,3.66-3.66l-.9-15.66Z"/>
    </g>
  </g>
</svg>