<?xml version="1.0" encoding="UTF-8"?>
<svg id="Layer_2" data-name="Layer 2" xmlns="http://www.w3.org/2000/svg" viewBox="0 0 54.9 54.9">
  <defs>
    <style>
      .cls-1 {
        fill: #fff;
      }
    </style>
  </defs>
  <g id="oontent">
    <g>
      <path class="cls-1" d="M54.9,27.45c0,15.16-12.29,27.45-27.45,27.45S0,42.61,0,27.45,12.29,0,27.45,0s27.45,12.29,27.45,27.45Z"/>
      <g>
        <path d="M21.7,20.61c0,2.26-1.17,4.09-2.61,4.09s-2.61-1.83-2.61-4.09,1.17-4.09,2.61-4.09,2.61,1.83,2.61,4.09Z"/>
        <path class="cls-1" d="M22.05,18.43c0,1.13-.58,2.05-1.31,2.05s-1.3-.91-1.3-2.05.58-2.04,1.3-2.04,1.31.91,1.31,2.04Z"/>
      </g>
      <g>
        <path d="M38.29,20.61c0,2.26-1.17,4.09-2.61,4.09s-2.61-1.83-2.61-4.09,1.17-4.09,2.61-4.09,2.61,1.83,2.61,4.09Z"/>
        <path class="cls-1" d="M38.64,18.43c0,1.13-.59,2.05-1.31,2.05s-1.3-.91-1.3-2.05.58-2.04,1.3-2.04,1.31.91,1.31,2.04Z"/>
      </g>
      <path d="M25.48,39.67h15.17c.78,0,1.41-.63,1.41-1.41s-.63-1.41-1.41-1.41h-15.17c-.78,0-1.41.63-1.41,1.41s.63,1.41,1.41,1.41h0Z"/>
      <path d="M24.86,11.77c-1.19-1.34-4.5-3.48-8.47-1.95h0c-.61.23-.9.89-.65,1.47.25.58.94.85,1.54.62h0c3.34-1.29,5.67,1.21,5.77,1.32h0c.42.47,1.17.53,1.67.13.5-.4.56-1.11.14-1.59h0Z"/>
      <path d="M42.42,12.95c-1.19-1.34-4.5-3.48-8.47-1.95h0c-.61.23-.9.89-.65,1.47.25.58.94.85,1.54.62h0c3.34-1.29,5.67,1.21,5.77,1.32h0c.42.47,1.17.53,1.67.13.5-.4.56-1.11.14-1.59h0Z"/>
    </g>
  </g>
</svg>