<?xml version="1.0" encoding="UTF-8"?>
<svg id="Layer_2" data-name="Layer 2" xmlns="http://www.w3.org/2000/svg" viewBox="0 0 55.21 55.21">
  <defs>
    <style>
      .cls-1 {
        fill: #fff;
      }
    </style>
  </defs>
  <g id="oontent">
    <g>
      <path class="cls-1" d="M55.21,27.61c0,15.25-12.36,27.61-27.61,27.61S0,42.85,0,27.61,12.36,0,27.61,0s27.61,12.36,27.61,27.61Z"/>
      <g>
        <path d="M21.82,20.72c0,2.28-1.17,4.12-2.63,4.12s-2.63-1.84-2.63-4.12,1.17-4.11,2.63-4.11,2.63,1.84,2.63,4.11Z"/>
        <path class="cls-1" d="M22.17,18.53c0,1.14-.59,2.06-1.31,2.06s-1.31-.92-1.31-2.06.58-2.06,1.31-2.06,1.31.92,1.31,2.06Z"/>
      </g>
      <g>
        <path d="M38.51,20.72c0,2.28-1.18,4.12-2.63,4.12s-2.62-1.84-2.62-4.12,1.18-4.11,2.62-4.11,2.63,1.84,2.63,4.11Z"/>
        <path class="cls-1" d="M38.85,18.53c0,1.14-.59,2.06-1.31,2.06s-1.31-.92-1.31-2.06.59-2.06,1.31-2.06,1.31.92,1.31,2.06Z"/>
      </g>
      <g>
        <path d="M27.61,41.97c-6.87,0-12.97-3.62-16.8-9.21,3.3,6.45,9.59,10.8,16.8,10.8s13.5-4.36,16.8-10.8c-3.83,5.6-9.93,9.21-16.8,9.21Z"/>
        <path d="M9.37,34.85s.33-2.74,4.03-2.42c0,0-1.23-1.45-3.12-.24-.73.47-1.27,1.55-.91,2.67Z"/>
        <path d="M45.72,34.85s-.33-2.74-4.03-2.42c0,0,1.23-1.45,3.12-.24.73.47,1.28,1.55.91,2.67Z"/>
      </g>
    </g>
  </g>
</svg>