<?xml version="1.0" encoding="UTF-8"?>
<svg id="Layer_2" data-name="Layer 2" xmlns="http://www.w3.org/2000/svg" viewBox="0 0 54.9 54.9">
  <defs>
    <style>
      .cls-1 {
        fill: #fff;
      }
    </style>
  </defs>
  <g id="oontent">
    <g>
      <path class="cls-1" d="M54.9,27.45c0,15.16-12.29,27.45-27.45,27.45S0,42.61,0,27.45,12.29,0,27.45,0s27.45,12.29,27.45,27.45Z"/>
      <g>
        <path d="M21.7,20.61c0,2.26-1.17,4.09-2.61,4.09s-2.61-1.83-2.61-4.09,1.17-4.09,2.61-4.09,2.61,1.83,2.61,4.09Z"/>
        <path class="cls-1" d="M22.05,18.43c0,1.13-.58,2.05-1.31,2.05s-1.3-.91-1.3-2.05.58-2.04,1.3-2.04,1.31.91,1.31,2.04Z"/>
      </g>
      <g>
        <path d="M38.29,20.61c0,2.26-1.17,4.09-2.61,4.09s-2.61-1.83-2.61-4.09,1.17-4.09,2.61-4.09,2.61,1.83,2.61,4.09Z"/>
        <path class="cls-1" d="M38.64,18.43c0,1.13-.59,2.05-1.31,2.05s-1.3-.91-1.3-2.05.58-2.04,1.3-2.04,1.31.91,1.31,2.04Z"/>
      </g>
      <path d="M27.33,34.02c5.18,0,9.79,2.73,12.68,6.95-2.49-4.86-7.24-8.15-12.68-8.15s-10.19,3.29-12.68,8.15c2.89-4.22,7.49-6.95,12.68-6.95Z"/>
    </g>
  </g>
</svg>