<?xml version="1.0" encoding="UTF-8"?>
<svg id="Layer_2" data-name="Layer 2" xmlns="http://www.w3.org/2000/svg" viewBox="0 0 17.81 30.31">
  <defs>
    <style>
      .cls-1 {
        fill: #fff;
      }
    </style>
  </defs>
  <g id="oontent">
    <path class="cls-1" d="M.84,3.54c1.01-.84,2.14-1.56,3.36-2.18C6.18.37,8.08-.07,9.93,0c1.85.09,3.38.61,4.6,1.54,1.19.94,1.99,2.25,2.4,3.94.34,1.42.36,2.99.1,4.74-.46,4.5-4.03,9.71-10.73,15.59h11.5v4.48H0v-4.48c7.5-6.92,11.56-12.12,12.16-15.59.19-.91.21-1.69.05-2.37-.23-.97-.68-1.71-1.35-2.24-.69-.53-1.54-.75-2.59-.66-1.04.09-2.12.41-3.25.97-1.08.55-2.04,1.26-2.85,2.13L.84,3.61v-.06Z"/>
  </g>
</svg>