<?xml version="1.0" encoding="UTF-8"?>
<svg id="Layer_2" data-name="Layer 2" xmlns="http://www.w3.org/2000/svg" xmlns:xlink="http://www.w3.org/1999/xlink" viewBox="0 0 54.65 47.11">
  <defs>
    <style>
      .cls-1 {
        fill: url(#linear-gradient-2);
      }

      .cls-2 {
        fill: #fff;
      }

      .cls-3 {
        fill: url(#linear-gradient-4);
      }

      .cls-4 {
        fill: url(#linear-gradient-3);
      }

      .cls-5 {
        fill: url(#linear-gradient-5);
      }

      .cls-6 {
        fill: url(#linear-gradient);
      }
    </style>
    <linearGradient id="linear-gradient" x1="50.66" y1="-.31" x2="50.66" y2="7.6" gradientTransform="translate(-.06 .19)" gradientUnits="userSpaceOnUse">
      <stop offset="0" stop-color="#9333ea"/>
      <stop offset="1" stop-color="#7e22ce"/>
    </linearGradient>
    <linearGradient id="linear-gradient-2" x1="23.2" y1="28.81" x2="23.2" y2="17.63" gradientTransform="matrix(1,0,0,1,0,0)" xlink:href="#linear-gradient"/>
    <linearGradient id="linear-gradient-3" x1="22.6" y1="22.19" x2="22.6" y2="12.81" gradientTransform="matrix(1,0,0,1,0,0)" xlink:href="#linear-gradient"/>
    <linearGradient id="linear-gradient-4" x1="16.1" y1="45.92" x2="16.1" y2="34.86" gradientTransform="matrix(1,0,0,1,0,0)" xlink:href="#linear-gradient"/>
    <linearGradient id="linear-gradient-5" x1="38.17" y1="45.92" x2="38.17" y2="34.86" gradientTransform="matrix(1,0,0,1,0,0)" xlink:href="#linear-gradient"/>
  </defs>
  <g id="oontent">
    <g>
      <path class="cls-2" d="M39.05,28.52c-.81.73-1.74,1.34-2.74,1.81l3.74,6.57-28.76-.1c-.91,0-1.64.73-1.64,1.63,0,.91.73,1.64,1.63,1.64l31.59.11h0c.58,0,1.12-.31,1.41-.81.3-.51.3-1.13,0-1.64l-5.24-9.22Z"/>
      <path class="cls-2" d="M39.57,37.87h.83s-.27-.48-.27-.48h-.08s-28.76-.1-28.76-.1c-.45,0-.83.25-1.02.62.16-.09.35-.14.54-.14l28.76.1Z"/>
      <path class="cls-2" d="M43.88,37.98l-4.96-8.71c-.21.17-.38.32-.5.43,0,0,.02.05.02.05l4.96,8.71c.19.34.2.76.01,1.11.19-.1.35-.25.46-.43.21-.36.21-.8,0-1.16Z"/>
      <path class="cls-6" d="M49.39.19c2.13-.67,4.4.51,5.07,2.64s-.51,4.4-2.64,5.07c-2.13.67-4.4-.51-5.07-2.64-.67-2.13.51-4.4,2.64-5.07Z"/>
      <path class="cls-2" d="M50.03,2.21c1.01-.32,2.09.24,2.4,1.25.32,1.01-.24,2.09-1.25,2.4-1.01.32-2.09-.24-2.4-1.25-.32-1.01.24-2.09,1.25-2.4Z"/>
      <path class="cls-2" d="M38.69,26.55v.08c0,2.04-.94,1.88-3.29,1.85l.96-15.49h-3.3l-.96,16.16h-3.99V12.98h-3.3v16.16h-4.95V12.98h-3.3v16.16h-1.84c-.08,0-.15,0-.23,0l-2.88-16.15h-3.3l3.36,16.19c-1.5.06-2.46.11-3.26-2.55v-.08L3.93,12.98H.61l4.52,13.72c1.3,3.33,4.33,5.26,9.61,5.26h17.64c5.28,0,9.56-.75,9.61-5.26l2.59-13.72h-3.32l-2.57,13.56Z"/>
      <path class="cls-2" d="M51.57,5.73l-7.35,7.38c-.64.64-1.69.65-2.33,0h0c-.64-.64-.65-1.69,0-2.33h0l7.35-7.38c.64-.65,1.69-.65,2.33,0h0c.28.27.43.62.47.98h0c.05.48-.1.98-.47,1.35h0Z"/>
      <path class="cls-2" d="M2.24,12.82c-1.24,0-2.24-1-2.24-2.24h0c0-1.24,1-2.24,2.24-2.24h41.16c1.24,0,2.24,1,2.24,2.24h0c0,1.24-1,2.24-2.24,2.24H2.24Z"/>
      <path class="cls-1" d="M39.72,24.37l-.08.58h-5.11v-.66l.81-6.34h-1.51l-.81,6.34v.66h-6.1v-7h-1.51v7h-6.1v-7h-1.51v7h-4.33v-.66l-1.77-6.34h-1.51l1.77,6.34v.66h-4.65l-.08-.58-2.24-6.54h-1.52l2.33,7.2c1.62.46,3.38.87,5.26,1.2h.89v.15c.49.08,1,.16,1.51.23v-.38h4.33v.97c.5.03,1,.05,1.51.07v-1.04h6.1v1.03c.51-.02,1.01-.04,1.51-.07v-.96h6.1v.35c.51-.07,1.01-.15,1.51-.23v-.12h.68c2.15-.38,4.15-.86,5.96-1.42l1.74-6.99h-1.51l-1.68,6.54Z"/>
      <path class="cls-4" d="M41.16,18.46l-.08.49h-5.54v-5.87h-1.63v5.87h-6.62v-5.87h-1.63v5.87h-6.62v-5.87h-1.63v5.87h-4.69l-.4-.55-1.52-5.32h-1.63l1.52,5.32v.55h-5.04l-.09-.49-2.46-5.48h-1.64l2.56,6.04c1.76.39,4.07.73,6.11,1.01h.97v.13c.54.07,1.08.13,1.63.19v-.32h4.69v.81c.54.02,1.08.04,1.63.06v-.87h6.62v.86c.55-.01,1.09-.04,1.63-.06v-.8h6.62v.29c.55-.06,1.1-.13,1.63-.2v-.1h.74c2.33-.32,4.5-.72,6.47-1.19l1.01-5.86h-1.64l-.94,5.48Z"/>
      <path class="cls-2" d="M2.24,9.54h41.16c.88,0,1.61.62,1.79,1.44.03-.13.05-.26.05-.4,0-1.01-.82-1.84-1.84-1.84H2.24c-1.01,0-1.84.82-1.84,1.84,0,.14.02.27.05.4.18-.82.92-1.44,1.79-1.44Z"/>
      <circle class="cls-2" cx="16.1" cy="42.07" r="5.04"/>
      <path class="cls-2" d="M19.7,42.07c0,1.98-1.61,3.6-3.59,3.6s-3.6-1.61-3.6-3.6,1.61-3.6,3.6-3.6,3.59,1.61,3.59,3.6Z"/>
      <path class="cls-3" d="M19.22,42.07c0,1.72-1.39,3.11-3.11,3.11s-3.11-1.39-3.11-3.11,1.39-3.12,3.11-3.12,3.11,1.39,3.11,3.12Z"/>
      <circle class="cls-2" cx="16.1" cy="42.07" r="1.19"/>
      <circle class="cls-2" cx="38.17" cy="42.07" r="5.04"/>
      <path class="cls-2" d="M41.77,42.07c0,1.98-1.61,3.6-3.59,3.6s-3.6-1.61-3.6-3.6,1.61-3.6,3.6-3.6,3.59,1.61,3.59,3.6Z"/>
      <path class="cls-5" d="M41.29,42.07c0,1.72-1.39,3.11-3.11,3.11s-3.12-1.39-3.12-3.11,1.39-3.12,3.12-3.12,3.11,1.39,3.11,3.12Z"/>
      <circle class="cls-2" cx="38.17" cy="42.07" r="1.19"/>
    </g>
  </g>
</svg>