<?xml version="1.0" encoding="UTF-8"?>
<svg id="Layer_2" data-name="Layer 2" xmlns="http://www.w3.org/2000/svg" xmlns:xlink="http://www.w3.org/1999/xlink" viewBox="0 0 72.52 62.52">
  <defs>
    <style>
      .cls-1 {
        fill: url(#linear-gradient-2);
      }

      .cls-2 {
        fill: #fff;
      }

      .cls-3 {
        fill: url(#linear-gradient-4);
      }

      .cls-4 {
        fill: url(#linear-gradient-3);
      }

      .cls-5 {
        fill: url(#linear-gradient-5);
      }

      .cls-6 {
        fill: url(#linear-gradient);
      }
    </style>
    <linearGradient id="linear-gradient" x1="67.21" y1="-.35" x2="67.21" y2="10.15" gradientTransform="translate(-.06 .19)" gradientUnits="userSpaceOnUse">
      <stop offset=".3" stop-color="#fbbf24"/>
      <stop offset="1" stop-color="#f59e0b"/>
    </linearGradient>
    <linearGradient id="linear-gradient-2" x1="30.79" y1="38.23" x2="30.79" y2="23.39" gradientTransform="matrix(1,0,0,1,0,0)" xlink:href="#linear-gradient"/>
    <linearGradient id="linear-gradient-3" x1="29.99" y1="29.45" x2="29.99" y2="17" gradientTransform="matrix(1,0,0,1,0,0)" xlink:href="#linear-gradient"/>
    <linearGradient id="linear-gradient-4" x1="21.37" y1="60.94" x2="21.37" y2="46.26" gradientTransform="matrix(1,0,0,1,0,0)" xlink:href="#linear-gradient"/>
    <linearGradient id="linear-gradient-5" x1="50.66" y1="60.94" x2="50.66" y2="46.26" gradientTransform="matrix(1,0,0,1,0,0)" xlink:href="#linear-gradient"/>
  </defs>
  <g id="oontent">
    <g>
      <path class="cls-2" d="M51.83,37.85c-1.08.97-2.3,1.78-3.64,2.4l4.96,8.72-38.17-.13c-1.2,0-2.18.97-2.18,2.17,0,1.2.97,2.18,2.17,2.18l41.92.14h0c.77,0,1.49-.41,1.88-1.08.39-.67.4-1.5.01-2.17l-6.96-12.23Z"/>
      <path class="cls-2" d="M52.51,50.25h1.1s-.36-.64-.36-.64h-.1s-38.17-.13-38.17-.13c-.59,0-1.1.34-1.36.82.22-.11.46-.19.72-.19l38.17.13Z"/>
      <path class="cls-2" d="M58.23,50.4l-6.58-11.56c-.28.23-.51.43-.67.58,0,0,.03.06.03.06l6.58,11.56c.26.46.26,1.01.02,1.47.25-.13.47-.33.61-.58.27-.47.28-1.06,0-1.53Z"/>
      <path class="cls-6" d="M65.55.25c2.82-.89,5.84.68,6.72,3.5.89,2.82-.68,5.84-3.5,6.72-2.82.89-5.84-.68-6.73-3.5-.89-2.82.68-5.84,3.5-6.72Z"/>
      <path class="cls-2" d="M66.39,2.94c1.34-.42,2.77.32,3.19,1.66.42,1.34-.32,2.77-1.66,3.19-1.34.42-2.77-.32-3.19-1.66-.42-1.34.32-2.77,1.66-3.19Z"/>
      <path class="cls-2" d="M51.34,35.23v.1c0,2.71-1.25,2.49-4.36,2.46l1.28-20.56h-4.38l-1.28,21.44h-5.29v-21.44h-4.38v21.44h-6.57v-21.44h-4.38v21.44h-2.43c-.1,0-.2-.01-.3-.01l-3.83-21.43h-4.38l4.46,21.49c-1.99.09-3.26.15-4.33-3.39v-.1l-5.97-18H.81l5.99,18.21c1.73,4.41,5.75,6.98,12.75,6.98h23.41c7,0,12.68-1,12.75-6.98l3.44-18.21h-4.4l-3.42,18Z"/>
      <path class="cls-2" d="M68.44,7.61l-9.76,9.8c-.85.86-2.24.86-3.09,0h0c-.86-.85-.86-2.24,0-3.1h0l9.76-9.8c.85-.86,2.24-.86,3.09,0h0c.37.37.58.83.63,1.3h0c.07.64-.14,1.3-.62,1.79h0Z"/>
      <path class="cls-2" d="M2.97,17.01c-1.64,0-2.97-1.33-2.97-2.97h0c0-1.64,1.33-2.97,2.97-2.97h54.63c1.64,0,2.97,1.33,2.97,2.97h0c0,1.64-1.33,2.97-2.97,2.97H2.97Z"/>
      <path class="cls-1" d="M52.71,32.34l-.1.77h-6.78v-.87l1.07-8.42h-2l-1.07,8.42v.87h-8.1v-9.29h-2v9.29h-8.1v-9.29h-2v9.29h-5.74v-.87l-2.35-8.41h-2l2.35,8.41v.87h-6.17l-.1-.77-2.97-8.67h-2.01l3.09,9.56c2.15.62,4.49,1.16,6.98,1.6h1.18v.2c.66.11,1.32.21,2,.3v-.5h5.74v1.29c.66.04,1.33.07,2,.09v-1.38h8.1v1.36c.67-.02,1.34-.06,2-.1v-1.27h8.1v.46c.68-.1,1.34-.2,2-.31v-.16h.9c2.86-.51,5.51-1.14,7.91-1.88l2.31-9.28h-2.01l-2.23,8.67Z"/>
      <path class="cls-4" d="M54.62,24.5l-.11.65h-7.36v-7.79h-2.17v7.79h-8.78v-7.79h-2.16v7.79h-8.78v-7.79h-2.17v7.79h-6.23l-.54-.73-2.01-7.06h-2.17l2.01,7.06v.73h-6.69l-.11-.65-3.27-7.28H1.92l3.39,8.02c2.33.52,5.4.97,8.1,1.34h1.28v.17c.71.09,1.43.17,2.17.25v-.42h6.23v1.08c.72.03,1.44.06,2.17.08v-1.15h8.78v1.14c.73-.02,1.45-.05,2.16-.08v-1.06h8.78v.39c.73-.08,1.46-.17,2.17-.26v-.13h.98c3.1-.43,5.98-.96,8.58-1.58l1.34-7.78h-2.18l-1.25,7.28Z"/>
      <path class="cls-2" d="M2.97,12.66h54.63c1.16,0,2.13.82,2.38,1.91.04-.17.06-.35.06-.53,0-1.35-1.09-2.44-2.44-2.44H2.97c-1.34,0-2.44,1.09-2.44,2.44,0,.18.02.36.06.53.24-1.09,1.21-1.91,2.38-1.91Z"/>
      <path class="cls-2" d="M28.05,55.83c0,3.69-2.99,6.68-6.68,6.68s-6.68-2.99-6.68-6.68,2.99-6.68,6.68-6.68,6.68,2.99,6.68,6.68Z"/>
      <path class="cls-2" d="M26.14,55.83c0,2.63-2.14,4.77-4.77,4.77s-4.77-2.14-4.77-4.77,2.14-4.77,4.77-4.77,4.77,2.14,4.77,4.77Z"/>
      <path class="cls-3" d="M25.5,55.83c0,2.28-1.85,4.13-4.13,4.13s-4.13-1.85-4.13-4.13,1.85-4.13,4.13-4.13,4.13,1.85,4.13,4.13Z"/>
      <path class="cls-2" d="M22.95,55.83c0,.87-.71,1.58-1.58,1.58s-1.58-.71-1.58-1.58.71-1.58,1.58-1.58,1.58.71,1.58,1.58Z"/>
      <path class="cls-2" d="M57.34,55.83c0,3.69-2.99,6.68-6.68,6.68s-6.68-2.99-6.68-6.68,2.99-6.68,6.68-6.68,6.68,2.99,6.68,6.68Z"/>
      <path class="cls-2" d="M55.43,55.83c0,2.63-2.14,4.77-4.77,4.77s-4.77-2.14-4.77-4.77,2.14-4.77,4.77-4.77,4.77,2.14,4.77,4.77Z"/>
      <path class="cls-5" d="M54.79,55.83c0,2.28-1.85,4.13-4.13,4.13s-4.13-1.85-4.13-4.13,1.85-4.13,4.13-4.13,4.13,1.85,4.13,4.13Z"/>
      <path class="cls-2" d="M52.24,55.83c0,.87-.71,1.58-1.58,1.58s-1.58-.71-1.58-1.58.71-1.58,1.58-1.58,1.58.71,1.58,1.58Z"/>
    </g>
  </g>
</svg>