<?xml version="1.0" encoding="UTF-8"?>
<svg id="Layer_2" data-name="Layer 2" xmlns="http://www.w3.org/2000/svg" xmlns:xlink="http://www.w3.org/1999/xlink" viewBox="0 0 73.08 70.96">
  <defs>
    <style>
      .cls-1 {
        fill: url(#linear-gradient-2);
      }

      .cls-2 {
        fill: #fff;
      }

      .cls-3 {
        fill: url(#linear-gradient-3);
      }

      .cls-4 {
        fill: url(#linear-gradient);
      }
    </style>
    <linearGradient id="linear-gradient" x1="6.5" y1="16.2" x2="29.18" y2="16.2" gradientUnits="userSpaceOnUse">
      <stop offset="0" stop-color="#fbbf24"/>
      <stop offset="1" stop-color="#fbbf24"/>
    </linearGradient>
    <linearGradient id="linear-gradient-2" x1="30" y1="58.41" x2="30" y2="46.15" xlink:href="#linear-gradient"/>
    <linearGradient id="linear-gradient-3" x1="48.29" y1="28.56" x2="48.29" y2="16.52" xlink:href="#linear-gradient"/>
  </defs>
  <g id="oontent">
    <g>
      <g>
        <path class="cls-2" d="M41.53,7.04c-5.38,0-10.45,1.37-14.89,3.78v3.48c4.34-2.68,9.43-4.23,14.89-4.23,15.77,0,28.57,12.96,28.57,28.94,0,13.2-8.73,24.33-20.66,27.8-2.51.73-3.52,1.08-6.29,1.37,0,0-2.03.05-1.85,1.52.1.86.51,1.29,1.85,1.27,2.89-.04,4.18-.41,6.89-1.18,13.29-3.76,23.03-16.12,23.03-30.78,0-17.65-14.12-31.95-31.55-31.95Z"/>
        <path class="cls-2" d="M36.46,59.61c1.8-.41,3.81-1.33,5.85-3.13,5.1-4.49,7.92-9,9.55-11.52,1.52-2.59,4.28-7.13,6-13.71,2.26-8.63-3.72-12.67-3.72-12.67l-6.37,10.46c2.35,1.64,1.8,4.44,1.42,5.59-1.05,3.07-2.24,5.02-3.18,6.72-.96,1.41-2.15,3.39-4.58,5.86-.86.87-3.11,2.6-5.63,1.24l-6.48,10.39s1.66.93,4.17,1.04c4.17,7.25,2.88,7.97.31,7.36-11.81-2.81-20.85-15.1-20.85-28.25,0-2.93.44-5.77,1.24-8.44h-3.09c-.72,2.68-1.12,5.52-1.12,8.44,0,16.06,12.59,29.84,25.2,31.19,3.17.34,5.92-2.76,1.16-10.53l.13-.04Z"/>
      </g>
      <path class="cls-2" d="M36.43,18.19C36.43,8.14,28.27,0,18.21,0S0,8.14,0,18.19s8.15,18.22,18.21,18.22,18.22-8.14,18.22-18.22Z"/>
      <path class="cls-4" d="M27.59,12.24c-.83,0-1.52.67-1.58,1.52l-4.1.36c-1.14.1-2.28-.76-2.54-1.92l-.15-.66h0l-.79-3.5c.57-.25.97-.84.97-1.52,0-.92-.71-1.66-1.59-1.66s-1.59.74-1.59,1.66c0,.68.4,1.27.97,1.52l-.94,4.16c-.26,1.16-1.4,2.02-2.54,1.92l-4.03-.35c-.08-.84-.76-1.49-1.58-1.49-.88,0-1.59.74-1.59,1.66s.71,1.65,1.59,1.65c.48,0,.9-.22,1.19-.56l3.46,2.18c.97.62,1.41,2.01.97,3.11l-1.6,3.95c-.1-.02-.21-.04-.33-.04-.88,0-1.59.74-1.59,1.66s.72,1.66,1.59,1.66,1.59-.75,1.59-1.66c0-.32-.09-.62-.24-.87l3.1-2.79c.86-.78,2.28-.78,3.14,0l3.08,2.77c-.14.25-.23.54-.23.85,0,.91.71,1.66,1.59,1.66s1.59-.74,1.59-1.66-.71-1.65-1.59-1.65c-.12,0-.23,0-.34.04l-1.58-3.92c-.44-1.09,0-2.49.97-3.11l3.52-2.22c.29.35.72.57,1.2.57.88,0,1.59-.75,1.59-1.65s-.71-1.66-1.59-1.66Z"/>
      <path class="cls-1" d="M26.34,49.81s2.98-5.01,6.31-3.31c1.26.65,2.4,1.48,2.4,1.48l-6.42,10.42s-1.49-.85-2.42-1.74c-2.91-2.76.13-6.86.13-6.86Z"/>
      <path class="cls-3" d="M50.76,16.79c1.21.45,2.63,1.41,2.63,1.41l-6.53,10.36s-1.25-.66-2.39-1.51c-3-2.24.19-7.11.19-7.11,0,0,2.34-4.54,6.1-3.15Z"/>
    </g>
  </g>
</svg>