<?xml version="1.0" encoding="UTF-8"?>
<svg id="Layer_2" data-name="Layer 2" xmlns="http://www.w3.org/2000/svg" xmlns:xlink="http://www.w3.org/1999/xlink" viewBox="0 0 69.15 66.74">
  <defs>
    <style>
      .cls-1 {
        fill: url(#linear-gradient-2);
      }

      .cls-2 {
        fill: #fff;
      }

      .cls-3 {
        fill: url(#linear-gradient-3);
      }

      .cls-4 {
        fill: url(#linear-gradient);
      }
    </style>
    <linearGradient id="linear-gradient" x1="9.48" y1="16.2" x2="27" y2="16.2" gradientUnits="userSpaceOnUse">
      <stop offset="0" stop-color="#fbbf24"/>
      <stop offset="1" stop-color="#fbbf24"/>
    </linearGradient>
    <linearGradient id="linear-gradient-2" x1="26.07" y1="54.2" x2="26.07" y2="41.94" xlink:href="#linear-gradient"/>
    <linearGradient id="linear-gradient-3" x1="44.35" y1="24.34" x2="44.35" y2="12.31" xlink:href="#linear-gradient"/>
  </defs>
  <g id="oontent">
    <g>
      <g>
        <path class="cls-2" d="M37.6,2.83c-5.38,0-10.45,1.37-14.89,3.78v3.48c4.34-2.68,9.43-4.23,14.89-4.23,15.77,0,28.57,12.96,28.57,28.94,0,13.2-8.73,24.33-20.66,27.8-2.51.73-3.52,1.08-6.29,1.37,0,0-2.03.05-1.85,1.52.1.86.51,1.29,1.85,1.27,2.89-.05,4.18-.41,6.89-1.18,13.29-3.76,23.03-16.12,23.03-30.78,0-17.65-14.12-31.95-31.55-31.95Z"/>
        <path class="cls-2" d="M32.53,55.4c1.8-.41,3.81-1.33,5.85-3.13,5.1-4.49,7.92-9,9.55-11.52,1.52-2.59,4.28-7.13,6-13.71,2.26-8.63-3.72-12.67-3.72-12.67l-6.37,10.46c2.35,1.64,1.8,4.44,1.42,5.59-1.05,3.07-2.24,5.02-3.18,6.72-.96,1.41-2.15,3.39-4.58,5.86-.86.87-3.11,2.6-5.63,1.24l-6.48,10.39s1.66.93,4.17,1.04c4.17,7.25,2.88,7.97.31,7.36-11.81-2.81-20.85-15.1-20.85-28.25,0-2.93.44-5.77,1.24-8.44h-3.09c-.72,2.68-1.12,5.52-1.12,8.44,0,16.06,12.59,29.84,25.2,31.19,3.17.34,5.92-2.76,1.16-10.53l.13-.04Z"/>
      </g>
      <path class="cls-2" d="M36.43,18.19C36.43,8.14,28.27,0,18.2,0S0,8.14,0,18.19s8.15,18.22,18.2,18.22,18.22-8.14,18.22-18.22Z"/>
      <path class="cls-4" d="M26.24,18.45c-2.73-5.9-.97-7.79-.95-7.82.03-.03.03-.08.01-.12-.02-.04-.07-.05-.11-.03-.04.02-3.83,1.6-3.35,5.1-1.04-.94-5.9-5.73-2.93-11.38.02-.03.01-.08-.02-.11-.03-.03-.07-.04-.1-.02-.06.03-1.58.67-2.79,2.31-1.11,1.51-2.15,4.17-.76,8.3.51,1.94-.45,3.52-.96,4.18.13-.46.28-1.24.26-2.14-.04-1.31-.51-3.12-2.53-4.29-.03-.02-.07-.02-.1,0-.03.02-.05.06-.04.1,0,.03.76,3.48-.56,5.08-1.15,1.38-2.27,3.77-1.66,5.99.51,1.86,2.1,3.27,4.72,4.21.67.21,1.32.37,2.03.5.05.01.09-.02.11-.06.01-.05,0-.1-.05-.12-1.35-.58-2.74-1.8-1.71-4.28.98-2.13.81-3.23.61-3.7.51.29,1.52,1.03,1.27,2.34,0,.04.01.08.04.1.03.02.08.02.11,0,.03-.03,3.07-2.52,1.69-5.59.68.39,2.49,1.77,1.42,4.92-.36,1.36.61,2.33.65,2.37.03.03.08.04.12.01.04-.02.05-.07.04-.11-.03-.09-.75-2.03.81-3.09-.08.5-.21,1.73.35,2.4.5.6.99,1.59.84,2.56-.1.68-.51,1.25-1.2,1.7-.04.03-.06.08-.03.12.02.04.07.06.11.05,1.71-.57,3.96-1.69,4.94-3.84.72-1.58.63-3.48-.27-5.64Z"/>
      <path class="cls-1" d="M22.41,45.6s2.98-5.01,6.31-3.31c1.26.65,2.4,1.48,2.4,1.48l-6.42,10.42s-1.49-.85-2.42-1.74c-2.91-2.76.13-6.86.13-6.86Z"/>
      <path class="cls-3" d="M46.83,12.57c1.21.45,2.63,1.41,2.63,1.41l-6.53,10.36s-1.25-.66-2.39-1.51c-3-2.24.19-7.11.19-7.11,0,0,2.34-4.54,6.1-3.15Z"/>
    </g>
  </g>
</svg>