<?xml version="1.0" encoding="UTF-8"?>
<svg id="Layer_2" data-name="Layer 2" xmlns="http://www.w3.org/2000/svg" xmlns:xlink="http://www.w3.org/1999/xlink" viewBox="0 0 72.98 66.88">
  <defs>
    <style>
      .cls-1 {
        fill: url(#linear-gradient-2);
      }

      .cls-2 {
        fill: #fff;
      }

      .cls-3 {
        fill: url(#linear-gradient-3);
      }

      .cls-4 {
        fill: url(#linear-gradient);
      }
    </style>
    <linearGradient id="linear-gradient" x1="29.89" y1="54.33" x2="29.89" y2="42.07" gradientUnits="userSpaceOnUse">
      <stop offset="0" stop-color="#fbbf24"/>
      <stop offset="1" stop-color="#fbbf24"/>
    </linearGradient>
    <linearGradient id="linear-gradient-2" x1="48.18" y1="24.47" x2="48.18" y2="12.44" xlink:href="#linear-gradient"/>
    <linearGradient id="linear-gradient-3" x1="17.48" y1="28.42" x2="17.48" y2="7" xlink:href="#linear-gradient"/>
  </defs>
  <g id="oontent">
    <g>
      <g>
        <path class="cls-2" d="M41.43,2.96c-5.38,0-10.45,1.37-14.89,3.78v3.48c4.34-2.68,9.43-4.23,14.89-4.23,15.77,0,28.57,12.96,28.57,28.94,0,13.2-8.73,24.33-20.66,27.8-2.51.73-3.52,1.08-6.29,1.37,0,0-2.03.05-1.85,1.52.1.86.51,1.29,1.85,1.27,2.89-.04,4.18-.41,6.89-1.18,13.29-3.76,23.03-16.12,23.03-30.78,0-17.65-14.12-31.95-31.55-31.95Z"/>
        <path class="cls-2" d="M36.36,55.53c1.8-.41,3.81-1.33,5.85-3.13,5.1-4.49,7.92-9,9.55-11.52,1.52-2.59,4.28-7.13,6-13.71,2.26-8.63-3.72-12.67-3.72-12.67l-6.37,10.46c2.35,1.64,1.8,4.44,1.42,5.59-1.05,3.07-2.24,5.02-3.18,6.72-.96,1.41-2.15,3.39-4.58,5.86-.86.87-3.11,2.6-5.63,1.24l-6.48,10.39s1.66.93,4.17,1.04c4.17,7.25,2.88,7.97.31,7.36-11.81-2.81-20.85-15.1-20.85-28.25,0-2.93.44-5.77,1.24-8.44h-3.09c-.72,2.68-1.12,5.52-1.12,8.44,0,16.06,12.59,29.84,25.2,31.19,3.17.34,5.92-2.76,1.16-10.53l.13-.04Z"/>
      </g>
      <path class="cls-2" d="M36.43,18.19C36.43,8.14,28.27,0,18.21,0S0,8.14,0,18.19s8.15,18.22,18.21,18.22,18.22-8.14,18.22-18.22Z"/>
      <path class="cls-4" d="M26.24,45.73s2.98-5.01,6.31-3.31c1.26.65,2.4,1.48,2.4,1.48l-6.42,10.42s-1.49-.85-2.42-1.74c-2.91-2.76.13-6.86.13-6.86Z"/>
      <path class="cls-1" d="M50.66,12.7c1.21.45,2.63,1.41,2.63,1.41l-6.53,10.36s-1.25-.66-2.39-1.51c-3-2.24.19-7.11.19-7.11,0,0,2.34-4.54,6.1-3.15Z"/>
      <polygon class="cls-3" points="28.19 13.33 21.86 13.33 21.86 7 13.09 7 13.09 13.33 6.77 13.33 6.77 22.09 13.09 22.09 13.09 28.42 21.86 28.42 21.86 22.09 28.19 22.09 28.19 13.33"/>
    </g>
  </g>
</svg>