<?xml version="1.0" encoding="UTF-8"?>
<svg id="Layer_2" data-name="Layer 2" xmlns="http://www.w3.org/2000/svg" xmlns:xlink="http://www.w3.org/1999/xlink" viewBox="0 0 84.92 48.83">
  <defs>
    <style>
      .cls-1 {
        fill: #231f20;
      }

      .cls-1, .cls-2, .cls-3, .cls-4, .cls-5, .cls-6, .cls-7, .cls-8 {
        fill-rule: evenodd;
      }

      .cls-2 {
        fill: #fff;
      }

      .cls-3 {
        fill: url(#linear-gradient-3);
      }

      .cls-4 {
        fill: url(#linear-gradient-5);
      }

      .cls-5 {
        fill: url(#linear-gradient-2);
      }

      .cls-6 {
        fill: url(#linear-gradient-6);
      }

      .cls-7 {
        fill: url(#linear-gradient-4);
      }

      .cls-8 {
        fill: url(#linear-gradient);
      }
    </style>
    <linearGradient id="linear-gradient" x1="50.67" y1="11.55" x2="52.83" y2="11.55" gradientUnits="userSpaceOnUse">
      <stop offset=".3" stop-color="#2dd4bf"/>
      <stop offset="1" stop-color="#0d9488"/>
    </linearGradient>
    <linearGradient id="linear-gradient-2" x1="54.43" y1="13.63" x2="56.59" y2="13.63" xlink:href="#linear-gradient"/>
    <linearGradient id="linear-gradient-3" x1="57.95" y1="15.55" x2="60.11" y2="15.55" xlink:href="#linear-gradient"/>
    <linearGradient id="linear-gradient-4" x1="61.87" y1="17.63" x2="64.03" y2="17.63" xlink:href="#linear-gradient"/>
    <linearGradient id="linear-gradient-5" x1="70.2" y1="19.95" x2="72.36" y2="19.95" xlink:href="#linear-gradient"/>
    <linearGradient id="linear-gradient-6" x1="72.04" y1="23.87" x2="74.2" y2="23.87" xlink:href="#linear-gradient"/>
  </defs>
  <g id="oontent">
    <g>
      <path class="cls-2" d="M52.83,3.04l16.65,9.13-18.12,33.95-17.72-8.78.18-.32,9.72-1.9c4.68-1.99,3.44-8.09-1.38-8.95l-2.57.42L52.83,3.04h0ZM66.27,7.83v.05S51.87,0,51.87,0l-9.92,17.64-17.37-9.4L0,22.33v25.15c11.88-.34,17.98-6.73,20.16-7.7l11-2.27,2.73,1.77-1.36,2.85c-.37,3.18,2.4,5.16,5.8,3.05-.07,2.5,2.81,4.41,5.31,2.65l1.15-2.62,1.31.55,5.88,3.08,4.83-8.96,28.11-16.67-11.61-19.61-7.04,4.24h0ZM68.22,8.94l4.06,2.22-13.61,25.25,23.21-14.1-9.44-16.01-4.22,2.64Z"/>
      <path class="cls-8" d="M51.75,12.63c.6,0,1.08-.49,1.08-1.08s-.49-1.08-1.08-1.08-1.08.48-1.08,1.08.49,1.08,1.08,1.08Z"/>
      <path class="cls-5" d="M55.51,14.71c.59,0,1.08-.48,1.08-1.08s-.48-1.08-1.08-1.08-1.08.49-1.08,1.08.49,1.08,1.08,1.08Z"/>
      <path class="cls-3" d="M59.03,16.63c.59,0,1.08-.49,1.08-1.08s-.48-1.08-1.08-1.08-1.08.48-1.08,1.08.49,1.08,1.08,1.08Z"/>
      <path class="cls-7" d="M62.95,18.71c.59,0,1.08-.48,1.08-1.08s-.49-1.08-1.08-1.08-1.08.49-1.08,1.08.49,1.08,1.08,1.08Z"/>
      <path class="cls-4" d="M71.28,21.04c.59,0,1.08-.49,1.08-1.08s-.49-1.08-1.08-1.08-1.08.48-1.08,1.08.48,1.08,1.08,1.08Z"/>
      <path class="cls-6" d="M73.12,24.95c.6,0,1.08-.49,1.08-1.08s-.49-1.08-1.08-1.08-1.08.49-1.08,1.08.49,1.08,1.08,1.08Z"/>
      <path class="cls-1" d="M22.09,29.16c.56-6.38,4.94-6,11.45-1.83l-11.45,1.83Z"/>
    </g>
  </g>
</svg>