<?xml version="1.0" encoding="UTF-8"?>
<svg id="Layer_2" data-name="Layer 2" xmlns="http://www.w3.org/2000/svg" xmlns:xlink="http://www.w3.org/1999/xlink" viewBox="0 0 63.67 68.58">
  <defs>
    <style>
      .cls-1 {
        fill: #fff;
      }

      .cls-1, .cls-2 {
        fill-rule: evenodd;
      }

      .cls-2 {
        fill: url(#linear-gradient);
      }
    </style>
    <linearGradient id="linear-gradient" x1="29.18" y1="42.13" x2="46.29" y2="42.13" gradientUnits="userSpaceOnUse">
      <stop offset=".3" stop-color="#2dd4bf"/>
      <stop offset="1" stop-color="#0d9488"/>
    </linearGradient>
  </defs>
  <g id="oontent">
    <g>
      <path class="cls-1" d="M34.88,5.06v-1.42h1.98V0h-9.84v3.64h1.77v1.42c-7.51.71-14.25,4.03-19.32,9.04l-.8-.8,1.17-1.17-1.35-1.35-4.25,4.25,1.35,1.35,1.24-1.24.88.87C2.91,21.59,0,28.82,0,36.75c0,17.58,14.25,31.84,31.84,31.84s31.84-14.25,31.84-31.84c0-16.56-12.64-30.15-28.79-31.68ZM33.19,63.3v-4.75c0-.75-.61-1.35-1.35-1.35s-1.35.6-1.35,1.35v4.75c-13.62-.68-24.52-11.58-25.2-25.2h4.53c.75,0,1.35-.61,1.35-1.35s-.61-1.35-1.35-1.35h-4.53c.69-13.62,11.59-24.52,25.22-25.2,0,.02-.01.04-.01.06v4.95c0,.75.61,1.35,1.35,1.35s1.35-.61,1.35-1.35v-4.95s-.01-.04-.01-.06c13.63.68,24.53,11.58,25.21,25.2h-4.57c-.75,0-1.35.6-1.35,1.35s.6,1.35,1.35,1.35h4.57c-.69,13.62-11.58,24.52-25.2,25.2Z"/>
      <path class="cls-2" d="M34.33,37.8c.09-.27.17-.54.17-.84,0-1.47-1.19-2.66-2.66-2.66s-2.66,1.19-2.66,2.66,1.19,2.66,2.66,2.66c.14,0,.26-.06.4-.08.02.02.04.06.06.08l11.02,9.56,2.97.78-1.47-3.07-10.49-9.1Z"/>
    </g>
  </g>
</svg>