<?xml version="1.0" encoding="UTF-8"?>
<svg id="Layer_2" data-name="Layer 2" xmlns="http://www.w3.org/2000/svg" xmlns:xlink="http://www.w3.org/1999/xlink" viewBox="0 0 75.2 75.21">
  <defs>
    <style>
      .cls-1 {
        fill: #fff;
      }

      .cls-2 {
        fill: url(#linear-gradient);
      }
    </style>
    <linearGradient id="linear-gradient" x1="48.3" y1="43.62" x2="48.3" y2="15.17" gradientUnits="userSpaceOnUse">
      <stop offset=".3" stop-color="#fbbf24"/>
      <stop offset="1" stop-color="#f59e0b"/>
    </linearGradient>
  </defs>
  <g id="oontent">
    <g>
      <path class="cls-1" d="M37.6,75.21C16.87,75.21,0,58.33,0,37.6S16.87,0,37.6,0s37.6,16.86,37.6,37.6-16.87,37.6-37.6,37.6ZM37.6,4.03C19.09,4.03,4.03,19.09,4.03,37.6s15.06,33.56,33.57,33.56,33.56-15.06,33.56-33.56S56.11,4.03,37.6,4.03Z"/>
      <g>
        <path class="cls-1" d="M14.3,37.07c-.49-2.19-2.59-1.59-3.94-1.59-1.45,0-3.75-.69-4.02,2.11-.26,2.79,2.98,2.12,4.02,2.12,1.35,0,3.45.6,3.94-1.6.07-.13.11-.3.08-.52.02-.22-.02-.39-.08-.52Z"/>
        <path class="cls-1" d="M68.88,37.38c-.24-2.58-2.73-1.9-4-1.9-1.45,0-3.76-.69-4.03,2.11-.25,2.73,2.81,2.12,3.84,2.12,1.29,0,3.94.74,4.19-1.9,0-.08,0-.15,0-.22,0-.07,0-.14,0-.22Z"/>
        <path class="cls-1" d="M37.62,6.32c-2.81,0-2.11,2.78-2.11,4.02,0,1.35-.6,3.45,1.59,3.94.14.07.31.11.52.09.23.02.4-.01.53-.09,2.19-.49,1.59-2.59,1.59-3.94,0-1.24.69-4.02-2.12-4.02Z"/>
        <path class="cls-1" d="M37.62,60.83c-2.78-.26-2.11,2.99-2.11,4.02,0,1.35-.6,3.45,1.59,3.94.14.07.31.11.52.08.23.02.4-.01.53-.08,2.18-.49,1.59-2.6,1.59-3.94,0-1.45.69-3.76-2.12-4.02Z"/>
      </g>
      <path class="cls-2" d="M64.75,24.28c-.59-1.29-1.95-1.94-3.04-1.45l-19.61,8.9,3.1-13.81c.26-1.17-.65-2.37-2.04-2.68-1.39-.32-2.73.38-2.98,1.56l-3.31,14.81c-2.94.2-5.28,2.8-5.28,5.99s2.54,6.02,5.65,6.02h.73c3.13,0,5.66-2.69,5.66-6.02,0-.29-.03-.58-.07-.86l20.28-9.21c1.1-.5,1.5-1.95.91-3.24Z"/>
    </g>
  </g>
</svg>