<?xml version="1.0" encoding="UTF-8"?>
<svg id="Layer_2" data-name="Layer 2" xmlns="http://www.w3.org/2000/svg" xmlns:xlink="http://www.w3.org/1999/xlink" viewBox="0 0 50.98 70.05">
  <defs>
    <style>
      .cls-1 {
        fill: #fff;
      }

      .cls-2 {
        fill: url(#linear-gradient);
      }
    </style>
    <linearGradient id="linear-gradient" x1="25.49" y1="0" x2="25.49" y2="52.54" gradientUnits="userSpaceOnUse">
      <stop offset=".3" stop-color="#2dd4bf"/>
      <stop offset="1" stop-color="#0d9488"/>
    </linearGradient>
  </defs>
  <g id="oontent">
    <g>
      <path class="cls-2" d="M50.81,43.01l-7.04-35.2c-.88-4.39-5.06-7.82-9.53-7.82h-17.51c-4.47,0-8.65,3.43-9.53,7.82L.17,43.01c-.48,2.41.09,4.84,1.59,6.66,1.49,1.82,3.76,2.86,6.23,2.86h35.02c2.46,0,4.73-1.04,6.23-2.86,1.49-1.82,2.07-4.25,1.59-6.66ZM21.11,4.38h8.76v4.38h-8.76v-4.38ZM7.98,26.27l2.63-13.13h29.77l2.62,13.13,1.75,8.76H6.23l1.75-8.76ZM16.73,48.16c-2.42,0-4.38-1.96-4.38-4.38s1.96-4.38,4.38-4.38,4.38,1.96,4.38,4.38-1.96,4.38-4.38,4.38ZM34.25,48.16c-2.42,0-4.38-1.96-4.38-4.38s1.96-4.38,4.38-4.38,4.38,1.96,4.38,4.38-1.96,4.38-4.38,4.38Z"/>
      <polygon class="cls-1" points="32.84 56.92 34.77 61.29 16.21 61.29 18.14 56.92 11.28 56.92 5.5 70.05 12.36 70.05 14.28 65.67 36.7 65.67 38.63 70.05 45.48 70.05 39.7 56.92 32.84 56.92"/>
    </g>
  </g>
</svg>