<?xml version="1.0" encoding="UTF-8"?>
<svg id="Layer_2" data-name="Layer 2" xmlns="http://www.w3.org/2000/svg" xmlns:xlink="http://www.w3.org/1999/xlink" viewBox="0 0 55.66 82.83">
  <defs>
    <style>
      .cls-1 {
        fill: #fff;
      }

      .cls-2 {
        fill: url(#linear-gradient);
      }
    </style>
    <linearGradient id="linear-gradient" x1="27.83" y1="46.35" x2="27.83" y2="70.83" gradientUnits="userSpaceOnUse">
      <stop offset=".3" stop-color="#2dd4bf"/>
      <stop offset="1" stop-color="#0d9488"/>
    </linearGradient>
  </defs>
  <g id="oontent">
    <g>
      <g>
        <g>
          <path class="cls-1" d="M19.58,16.4c0,.91-.74,1.65-1.65,1.65h-4.44c-.91,0-1.65-.74-1.65-1.65h0c0-.91.74-1.65,1.65-1.65h4.44c.91,0,1.65.74,1.65,1.65h0Z"/>
          <path class="cls-1" d="M40.9,1.43c-2.87,0-5.2,2.33-5.2,5.2v3.32c-.06,0-.12-.02-.19-.02H10.9c-.74,0-1.33.6-1.33,1.33s.6,1.33,1.33,1.33h24.61c.07,0,.13-.01.19-.02v1.92c0,2.87,2.33,5.2,5.2,5.2s5.2-2.33,5.2-5.2v-7.86c0-2.87-2.33-5.2-5.2-5.2ZM43.56,12.58c0,1.47-1.19,2.66-2.66,2.66s-2.66-1.19-2.66-2.66v-4.03c0-1.47,1.19-2.66,2.66-2.66s2.66,1.19,2.66,2.66v4.03Z"/>
        </g>
        <g>
          <path class="cls-1" d="M19.58,14.97c0,.91-.74,1.65-1.65,1.65h-4.44c-.91,0-1.65-.74-1.65-1.65h0c0-.91.74-1.65,1.65-1.65h4.44c.91,0,1.65.74,1.65,1.65h0Z"/>
          <path class="cls-1" d="M40.9,0c-2.87,0-5.2,2.33-5.2,5.2v3.32c-.06,0-.12-.02-.19-.02H10.9c-.74,0-1.33.59-1.33,1.33s.6,1.33,1.33,1.33h24.61c.07,0,.13-.01.19-.02v1.92c0,2.88,2.33,5.2,5.2,5.2s5.2-2.33,5.2-5.2v-7.86c0-2.87-2.33-5.2-5.2-5.2ZM43.56,11.15c0,1.47-1.19,2.66-2.66,2.66s-2.66-1.19-2.66-2.66v-4.03c0-1.47,1.19-2.66,2.66-2.66s2.66,1.19,2.66,2.66v4.03Z"/>
        </g>
      </g>
      <path class="cls-1" d="M8.2,79.04c0,2.1,1.69,3.79,3.79,3.79s3.79-1.7,3.79-3.79v-5.5h-7.58v5.5Z"/>
      <path class="cls-1" d="M39.88,79.04c0,2.09,1.7,3.79,3.79,3.79s3.79-1.7,3.79-3.79v-5.51h-7.58v5.51Z"/>
      <path class="cls-2" d="M49.37,46.35H6.3c-3.46,0-6.28,2.84-6.3,6.29v11.91c.01,3.45,2.84,6.29,6.3,6.29h43.08c3.45,0,6.28-2.83,6.29-6.29v-11.91c0-3.45-2.84-6.28-6.29-6.29ZM11.89,63.71c-2.82,0-5.11-2.3-5.11-5.12s2.29-5.11,5.11-5.11,5.11,2.28,5.11,5.11-2.28,5.12-5.11,5.12ZM32.81,62.16h-9.95c-.59,0-1.08-.49-1.08-1.08s.49-1.09,1.08-1.09h9.95c.6,0,1.08.49,1.08,1.09s-.48,1.08-1.08,1.08ZM32.81,57h-9.95c-.59,0-1.08-.49-1.08-1.08s.49-1.09,1.08-1.09h9.95c.6,0,1.08.49,1.08,1.09s-.48,1.08-1.08,1.08ZM43.77,63.71c-2.82,0-5.11-2.3-5.11-5.12s2.29-5.11,5.11-5.11,5.12,2.28,5.12,5.11-2.29,5.12-5.12,5.12Z"/>
      <path class="cls-1" d="M11.87,43.35c1.02,0,1.85-.82,1.85-1.84h0v-2.07c.01-5.22,4.24-9.45,9.46-9.46h9.33c5.22,0,9.44,4.23,9.45,9.46v2.06h0c0,1.02.82,1.84,1.84,1.84s1.84-.82,1.84-1.84v-2.06c0-7.26-5.88-13.14-13.14-13.14h-9.33c-7.26,0-13.14,5.88-13.14,13.14v2.07c0,1.01.82,1.84,1.84,1.84Z"/>
    </g>
  </g>
</svg>