<?xml version="1.0" encoding="UTF-8"?>
<svg id="Layer_2" data-name="Layer 2" xmlns="http://www.w3.org/2000/svg" xmlns:xlink="http://www.w3.org/1999/xlink" viewBox="0 0 69.72 64.02">
  <defs>
    <style>
      .cls-1 {
        fill: #fff;
      }

      .cls-2 {
        fill: url(#linear-gradient);
      }
    </style>
    <linearGradient id="linear-gradient" x1="39.92" y1="41.65" x2="39.92" y2="27.3" gradientUnits="userSpaceOnUse">
      <stop offset=".3" stop-color="#2dd4bf"/>
      <stop offset="1" stop-color="#0d9488"/>
    </linearGradient>
  </defs>
  <g id="oontent">
    <g>
      <path class="cls-1" d="M68.74,26.43c-2.94-12.41-13.17-22.16-25.35-25.35C40.58.34,37.72,0,34.89,0c-.03,0-.05,0-.07,0C24.93.05,15.24,4.43,8.58,11.9-.58,22.18-2.33,36.82,2.97,49.32c2.38,5.59,6.5,10.24,11.29,13.88.37.39.84.66,1.35.75.84.21,1.63-.09,2.2-.67,10.52-7.21,23.85-7.15,34.32.19.76.53,2.16.56,2.92,0,11.62-8.63,17.04-22.88,13.69-37.04ZM58,52.62c-1.84-1.84-3.67-3.67-5.49-5.49-2.11-2.11-5.38,1.16-3.27,3.27,1.85,1.85,3.7,3.71,5.56,5.56.05.05.11.09.16.13-.48.47-.99.92-1.5,1.35-11.36-7.07-25.87-7.07-37.24,0-.51-.43-1.01-.87-1.48-1.33.07-.06.13-.1.19-.16,1.85-1.85,3.7-3.7,5.55-5.56,2.11-2.11-1.16-5.37-3.26-3.27-1.85,1.85-3.69,3.69-5.54,5.54-3.84-5.09-5.87-11.28-5.9-17.61h6.44c2.98,0,2.98-4.62,0-4.62h-6.11c.3-2.06.81-4.1,1.56-6.11,1.33-3.62,3.42-6.81,6.03-9.49,1.17,1.18,2.35,2.35,3.54,3.54,2.1,2.11,5.37-1.16,3.26-3.27-1.1-1.1-2.2-2.21-3.31-3.32,4.45-3.29,9.82-5.36,15.39-5.86v4.18c0,2.98,4.62,2.98,4.62,0v-4.22c5.67.41,10.95,2.57,15.32,5.97-1.09,1.08-2.17,2.17-3.25,3.25-2.11,2.11,1.16,5.38,3.27,3.27,1.14-1.14,2.27-2.28,3.41-3.41,2.38,2.51,4.36,5.44,5.82,8.66.99,2.2,1.66,4.5,2.01,6.83h-6.24c-2.98,0-2.98,4.62,0,4.62h6.56c-.09,6.29-2.28,12.52-6.06,17.57Z"/>
      <path class="cls-2" d="M40.84,37.32l9.56-6.61c1.12-.43,1.74-1.51,1.39-2.4-.35-.89-1.53-1.26-2.65-.83l-11.5,1.58c-1.63-.83-3.59-.99-5.43-.28-3.43,1.33-5.13,5.19-3.8,8.61,1.33,3.43,5.19,5.13,8.62,3.79,1.84-.72,3.17-2.16,3.81-3.87ZM31.97,36.02c-.57-1.46.16-3.11,1.62-3.68.32-.13.66-.18.99-.18,1.15-.01,2.24.66,2.68,1.8.44,1.13.1,2.37-.76,3.14-.25.22-.53.41-.86.53-1.46.57-3.1-.16-3.67-1.62Z"/>
    </g>
  </g>
</svg>