<?xml version="1.0" encoding="UTF-8"?>
<svg id="Layer_2" data-name="Layer 2" xmlns="http://www.w3.org/2000/svg" xmlns:xlink="http://www.w3.org/1999/xlink" viewBox="0 0 79.51 42.5">
  <defs>
    <style>
      .cls-1 {
        fill: url(#linear-gradient-2);
      }

      .cls-2 {
        fill: url(#linear-gradient);
      }
    </style>
    <linearGradient id="linear-gradient" x1="14.84" y1="0" x2="14.84" y2="42.5" gradientUnits="userSpaceOnUse">
      <stop offset=".3" stop-color="#2dd4bf"/>
      <stop offset="1" stop-color="#0d9488"/>
    </linearGradient>
    <linearGradient id="linear-gradient-2" x1="57.29" y1="12.56" x2="57.29" xlink:href="#linear-gradient"/>
  </defs>
  <g id="oontent">
    <g>
      <path class="cls-2" d="M29.69,42.5l-11.97-17.42,10.47-11.85h-10.95l-5.93,8.8c-.72,1.08-1.44,2.28-2.09,3.53h-.12V0H0v42.5h9.1v-9.16l2.28-2.87,7.12,12.03h11.19Z"/>
      <path class="cls-1" d="M35.3,42.5h8.84v-17.03c0-.78.06-1.61.36-2.33.53-1.43,1.91-3.23,4.24-3.23,2.93,0,4.24,2.51,4.24,6.15v16.43h8.84v-17.09c0-.78.12-1.67.3-2.33.65-1.73,2.09-3.17,4.24-3.17,2.93,0,4.3,2.45,4.3,6.69v15.89h8.84v-17.2c0-8.79-4.24-12.73-9.86-12.73-2.15,0-3.94.54-5.55,1.43-1.44.84-2.69,2.03-3.83,3.58h-.12c-1.25-3.05-4.18-5.02-8-5.02-4.96,0-7.59,2.75-8.84,4.66h-.18l-.36-3.94h-7.71c.12,2.63.24,5.67.24,9.32v19.9Z"/>
    </g>
  </g>
</svg>