<?xml version="1.0" encoding="UTF-8"?>
<svg id="Layer_2" data-name="Layer 2" xmlns="http://www.w3.org/2000/svg" xmlns:xlink="http://www.w3.org/1999/xlink" viewBox="0 0 87.81 26.5">
  <defs>
    <style>
      .cls-1 {
        fill: url(#linear-gradient-2);
      }

      .cls-2 {
        fill: url(#linear-gradient-4);
      }

      .cls-3 {
        fill: url(#linear-gradient-3);
      }

      .cls-4 {
        fill: url(#linear-gradient);
      }
    </style>
    <linearGradient id="linear-gradient" x1="36.25" y1="9.7" x2="36.25" y2="26.11" gradientUnits="userSpaceOnUse">
      <stop offset=".3" stop-color="#2dd4bf"/>
      <stop offset="1" stop-color="#0d9488"/>
    </linearGradient>
    <linearGradient id="linear-gradient-2" x1="79.31" y1="0" x2="79.31" xlink:href="#linear-gradient"/>
    <linearGradient id="linear-gradient-3" x1="10" y1="0" x2="10" xlink:href="#linear-gradient"/>
    <linearGradient id="linear-gradient-4" x1="60.14" y1=".39" x2="60.14" y2="26.5" xlink:href="#linear-gradient"/>
  </defs>
  <g id="oontent">
    <g>
      <path class="cls-4" d="M49.92,26.11h-5.72v-7.97c0-1.39-.14-2.34-.43-2.85-.43-.75-1.07-1.13-1.93-1.13-.95,0-1.68.41-2.19,1.23-.36.58-.54,1.49-.54,2.74v7.97h-5.72v-7.97c0-1.39-.12-2.29-.35-2.71-.46-.83-1.18-1.25-2.14-1.25-.89,0-1.59.36-2.08,1.08-.19.25-.32.6-.4,1.05-.08.45-.12,1.06-.12,1.83v7.97h-5.72V9.98h5.72v1.98c.67-.65,1.29-1.12,1.85-1.43,1.01-.54,2.14-.82,3.38-.82,1.59,0,2.91.41,3.97,1.23.53.42,1.04,1.01,1.53,1.77.44-.72.93-1.29,1.48-1.7,1.15-.88,2.46-1.32,3.94-1.32,1.21,0,2.28.29,3.22.87,1.01.64,1.67,1.5,1.98,2.59.19.66.28,1.48.28,2.47v10.48Z"/>
      <path class="cls-1" d="M87.81,26.11h-5.72v-8.16c0-1.43-.16-2.38-.48-2.85-.47-.68-1.18-1.02-2.12-1.02-.88,0-1.6.29-2.18.88-.53.54-.8,1.38-.8,2.51v8.64h-5.72V0h5.72v12.01c.66-.76,1.27-1.3,1.82-1.62.91-.52,2.04-.78,3.38-.78,1.71,0,3.12.48,4.24,1.43,1.24,1.07,1.86,2.67,1.86,4.8v10.27Z"/>
      <polygon class="cls-3" points="19.99 26.11 11.99 26.11 5.72 19.54 5.72 26.11 0 26.11 0 0 5.72 0 5.72 15.78 11.68 9.98 19.5 9.98 11.42 17.42 19.99 26.11"/>
      <polygon class="cls-2" points="67.67 .39 56.06 26.5 52.6 26.5 64.38 .39 67.67 .39"/>
    </g>
  </g>
</svg>