<?xml version="1.0" encoding="UTF-8"?>
<svg id="Layer_2" data-name="Layer 2" xmlns="http://www.w3.org/2000/svg" xmlns:xlink="http://www.w3.org/1999/xlink" viewBox="0 0 70.29 34.17">
  <defs>
    <style>
      .cls-1 {
        fill: url(#linear-gradient-2);
      }

      .cls-2 {
        fill: url(#linear-gradient-3);
      }

      .cls-3 {
        fill: url(#linear-gradient);
      }
    </style>
    <linearGradient id="linear-gradient" x1="13.67" y1="9.47" x2="13.67" y2="25.88" gradientUnits="userSpaceOnUse">
      <stop offset=".3" stop-color="#2dd4bf"/>
      <stop offset="1" stop-color="#0d9488"/>
    </linearGradient>
    <linearGradient id="linear-gradient-2" x1="40.61" x2="40.61" y2="34.17" xlink:href="#linear-gradient"/>
    <linearGradient id="linear-gradient-3" x1="61.78" y1="0" x2="61.78" y2="26.11" xlink:href="#linear-gradient"/>
  </defs>
  <g id="oontent">
    <g>
      <path class="cls-3" d="M27.34,25.88h-5.72v-7.97c0-1.39-.14-2.34-.43-2.85-.43-.75-1.07-1.13-1.93-1.13-.95,0-1.68.41-2.19,1.23-.36.58-.54,1.49-.54,2.74v7.97h-5.72v-7.97c0-1.39-.12-2.29-.35-2.71-.46-.83-1.18-1.25-2.14-1.25-.89,0-1.59.36-2.09,1.08-.19.25-.32.6-.4,1.05-.08.45-.12,1.06-.12,1.83v7.97H0V9.75h5.72v1.98c.67-.65,1.29-1.12,1.85-1.42,1.01-.55,2.14-.82,3.38-.82,1.59,0,2.91.41,3.97,1.23.53.42,1.05,1.01,1.53,1.77.44-.72.93-1.29,1.48-1.7,1.15-.88,2.46-1.32,3.93-1.32,1.21,0,2.28.29,3.22.87,1.01.64,1.67,1.5,1.99,2.59.19.66.28,1.48.28,2.47v10.48Z"/>
      <path class="cls-1" d="M47.23,11.54c-1.56-1.38-3.34-2.07-5.35-2.07-1.24,0-2.34.27-3.32.82-.59.33-1.14.82-1.65,1.5v-1.81h-5.72v24.2h5.72v-9.65c.61.64,1.21,1.1,1.79,1.37,1.01.49,2.08.73,3.23.73,1.97,0,3.71-.65,5.23-1.96,1.91-1.64,2.86-3.84,2.86-6.6s-.93-4.89-2.79-6.53ZM43.2,20.44c-.71.86-1.64,1.29-2.78,1.29-1.02,0-1.88-.36-2.6-1.07-.71-.71-1.07-1.58-1.07-2.61s.35-1.9,1.06-2.61c.71-.71,1.58-1.06,2.6-1.06,1.14,0,2.08.43,2.8,1.29.58.67.87,1.47.87,2.39s-.29,1.69-.88,2.39Z"/>
      <path class="cls-2" d="M70.29,26.11h-5.72v-8.16c0-1.43-.16-2.38-.48-2.85-.47-.68-1.18-1.02-2.12-1.02-.88,0-1.6.29-2.18.88-.53.54-.79,1.38-.79,2.51v8.64h-5.72V0h5.72v12.01c.66-.77,1.27-1.3,1.82-1.62.91-.52,2.04-.78,3.38-.78,1.71,0,3.12.48,4.23,1.43,1.24,1.07,1.86,2.67,1.86,4.8v10.27Z"/>
    </g>
  </g>
</svg>