<?xml version="1.0" encoding="UTF-8"?>
<svg id="Layer_2" data-name="Layer 2" xmlns="http://www.w3.org/2000/svg" xmlns:xlink="http://www.w3.org/1999/xlink" viewBox="0 0 48.56 67.62">
  <defs>
    <style>
      .cls-1 {
        fill: #fff;
      }

      .cls-2 {
        fill: url(#linear-gradient);
      }
    </style>
    <linearGradient id="linear-gradient" x1="24.28" y1="0" x2="24.28" y2="54.85" gradientUnits="userSpaceOnUse">
      <stop offset=".3" stop-color="#2dd4bf"/>
      <stop offset="1" stop-color="#0d9488"/>
    </linearGradient>
  </defs>
  <g id="oontent">
    <g>
      <path class="cls-1" d="M5.78,63.18c0,2.45,2,4.44,4.45,4.44s4.45-1.99,4.45-4.44v-4.99H5.78v4.99Z"/>
      <path class="cls-1" d="M33.87,63.18c0,2.44,1.99,4.44,4.46,4.44s4.45-2,4.45-4.44v-4.99h-8.9v4.99Z"/>
      <path class="cls-2" d="M48.56,47.46V7.39c0-4.05-3.33-7.38-7.37-7.39H7.38C3.33,0,.01,3.34,0,7.39v40.07c.01,4.06,3.33,7.37,7.38,7.39h33.81c4.05-.02,7.37-3.33,7.37-7.39ZM16.93,4.22h14.69c1.41,0,2.54,1.13,2.54,2.55s-1.13,2.54-2.54,2.54h-14.69c-1.4,0-2.54-1.14-2.54-2.54s1.14-2.55,2.54-2.55ZM6.33,17.87c0-2.53,2.09-4.6,4.62-4.61h26.66c2.48,0,4.61,2.12,4.61,4.62v10.73c0,2.49-2.13,4.6-4.62,4.61H10.94c-2.48,0-4.61-2.13-4.61-4.62v-10.73ZM10.24,48.94c-2.58,0-4.66-2.09-4.66-4.66s2.08-4.65,4.66-4.65,4.65,2.09,4.65,4.65-2.08,4.66-4.65,4.66ZM38.32,48.94c-2.57,0-4.65-2.09-4.65-4.66s2.08-4.65,4.65-4.65,4.65,2.09,4.65,4.65-2.07,4.66-4.65,4.66Z"/>
    </g>
  </g>
</svg>