<?xml version="1.0" encoding="UTF-8"?>
<svg id="Layer_2" data-name="Layer 2" xmlns="http://www.w3.org/2000/svg" xmlns:xlink="http://www.w3.org/1999/xlink" viewBox="0 0 68.02 67.5">
  <defs>
    <style>
      .cls-1 {
        fill: #fff;
      }

      .cls-2 {
        fill: url(#linear-gradient);
      }
    </style>
    <linearGradient id="linear-gradient" x1="34.01" y1="29.45" x2="34.01" y2="54.31" gradientUnits="userSpaceOnUse">
      <stop offset=".3" stop-color="#2dd4bf"/>
      <stop offset="1" stop-color="#0d9488"/>
    </linearGradient>
  </defs>
  <g id="oontent">
    <g>
      <path class="cls-1" d="M8.62,62.99c0,2.5,2.02,4.51,4.5,4.51s4.51-2.01,4.51-4.51v-5.45h-9.01v5.45Z"/>
      <path class="cls-1" d="M50.4,62.99c0,2.5,2.01,4.51,4.51,4.51s4.5-2.01,4.5-4.51v-5.45h-9.01v5.45Z"/>
      <path class="cls-2" d="M60.55,29.45H7.47c-4.09,0-7.46,3.38-7.47,7.48v9.9c0,4.1,3.37,7.46,7.47,7.47h53.09c4.09,0,7.46-3.38,7.47-7.47v-9.9c0-4.11-3.37-7.47-7.47-7.48ZM13.02,47.17c-2.92,0-5.28-2.36-5.28-5.29s2.36-5.27,5.28-5.27,5.27,2.36,5.27,5.27-2.35,5.29-5.27,5.29ZM39.92,46.35h-11.82c-.7,0-1.29-.58-1.29-1.29s.58-1.3,1.29-1.3h11.82c.71,0,1.29.58,1.29,1.3s-.58,1.29-1.29,1.29ZM39.92,40.22h-11.82c-.7,0-1.29-.57-1.29-1.28s.58-1.3,1.29-1.3h11.82c.71,0,1.29.58,1.29,1.3s-.58,1.28-1.29,1.28ZM55.01,47.17c-2.91,0-5.27-2.36-5.27-5.29s2.36-5.27,5.27-5.27,5.29,2.36,5.29,5.27-2.37,5.29-5.29,5.29Z"/>
      <path class="cls-1" d="M12.09,26.25c.28.12.58.2.9.2s.63-.09.91-.2c.76-.35,1.28-1.11,1.28-1.98v-2.15c0-5.23,4.24-9.46,9.48-9.46h18.71c5.22,0,9.45,4.23,9.47,9.46v2.14c0,.89.53,1.64,1.3,1.99.28.12.58.19.9.19s.61-.08.89-.19c.76-.35,1.3-1.11,1.3-1.99v-2.14c0-7.33-5.7-13.32-12.92-13.8,0-.03,0-.06,0-.09v-2.38c0-3.22-2.62-5.83-5.83-5.83h-8.94c-3.21,0-5.82,2.61-5.83,5.83v2.38s0,.07,0,.09c-7.22.49-12.91,6.47-12.91,13.8v2.15c0,.88.52,1.63,1.28,1.98Z"/>
    </g>
  </g>
</svg>