<?xml version="1.0" encoding="UTF-8"?>
<svg id="Layer_2" data-name="Layer 2" xmlns="http://www.w3.org/2000/svg" xmlns:xlink="http://www.w3.org/1999/xlink" viewBox="0 0 59.64 41.88">
  <defs>
    <style>
      .cls-1 {
        fill: url(#linear-gradient-2);
      }

      .cls-2 {
        fill: url(#linear-gradient-3);
      }

      .cls-3 {
        fill: url(#linear-gradient);
      }
    </style>
    <linearGradient id="linear-gradient" x1="54.83" y1="0" x2="54.83" y2="9.08" gradientUnits="userSpaceOnUse">
      <stop offset=".3" stop-color="#2dd4bf"/>
      <stop offset="1" stop-color="#0d9488"/>
    </linearGradient>
    <linearGradient id="linear-gradient-2" x1="54.83" y1="12.67" x2="54.83" y2="41.88" xlink:href="#linear-gradient"/>
    <linearGradient id="linear-gradient-3" x1="22.22" y1="11.95" x2="22.22" y2="41.88" xlink:href="#linear-gradient"/>
  </defs>
  <g id="oontent">
    <g>
      <g>
        <path class="cls-3" d="M54.75,9.08c3.04,0,4.9-2.03,4.9-4.54-.06-2.57-1.85-4.54-4.78-4.54s-4.84,1.97-4.84,4.54,1.85,4.54,4.72,4.54Z"/>
        <rect class="cls-1" x="50.29" y="12.67" width="9.08" height="29.21"/>
      </g>
      <path class="cls-2" d="M.24,41.88h8.84v-17.03c0-.78.06-1.61.36-2.33.53-1.43,1.91-3.23,4.24-3.23,2.93,0,4.24,2.51,4.24,6.15v16.43h8.84v-17.09c0-.78.12-1.67.3-2.33.65-1.73,2.09-3.17,4.24-3.17,2.93,0,4.3,2.45,4.3,6.69v15.89h8.84v-17.2c0-8.79-4.24-12.73-9.86-12.73-2.15,0-3.94.54-5.55,1.43-1.44.84-2.69,2.03-3.83,3.58h-.12c-1.25-3.05-4.18-5.02-8-5.02-4.96,0-7.59,2.75-8.84,4.66h-.18l-.36-3.94H0c.12,2.63.24,5.67.24,9.32v19.9Z"/>
    </g>
  </g>
</svg>