<?xml version="1.0" encoding="UTF-8"?>
<svg id="Layer_2" data-name="Layer 2" xmlns="http://www.w3.org/2000/svg" xmlns:xlink="http://www.w3.org/1999/xlink" viewBox="0 0 79.34 67.82">
  <defs>
    <style>
      .cls-1 {
        fill: url(#linear-gradient-2);
      }

      .cls-2 {
        fill: #fff;
      }

      .cls-3 {
        fill: url(#linear-gradient-3);
      }

      .cls-4 {
        fill: url(#linear-gradient);
      }
    </style>
    <linearGradient id="linear-gradient" x1="24.06" y1="49.89" x2="24.06" y2="39.7" gradientUnits="userSpaceOnUse">
      <stop offset=".3" stop-color="#9333ea"/>
      <stop offset="1" stop-color="#7e22ce"/>
    </linearGradient>
    <linearGradient id="linear-gradient-2" x1="33.96" y1="24.77" x2="33.96" y2="14.59" xlink:href="#linear-gradient"/>
    <linearGradient id="linear-gradient-3" x1="39.67" y1="0" x2="39.67" y2="64.64" xlink:href="#linear-gradient"/>
  </defs>
  <g id="oontent">
    <g>
      <path class="cls-4" d="M18.43,46.45l2.19-5.72c.31-.83,1.24-1.24,2.07-.92l5.97,2.29c.83.32,1.24,1.24.92,2.06l-2.19,5.73-8.96-3.43Z"/>
      <path class="cls-1" d="M30.63,14.59l-2.19,5.73c-.31.82.1,1.75.92,2.06l5.98,2.29c.82.31,1.75-.1,2.06-.92l2.19-5.72-8.96-3.43Z"/>
      <path class="cls-2" d="M46.07,20.49l-5.23-2c-.73,1.9-1.46,3.81-2.18,5.71-1.22,3.19-4.64,1.38-6.78.56-2.18-.84-5.89-1.76-4.65-4.98.72-1.89,1.45-3.78,2.17-5.67l-5.23-2c-2.75-1.06-5.84.32-6.89,3.06l-8.39,21.92c-1.05,2.74.32,5.83,3.07,6.88l5.23,2.01c.73-1.91,1.46-3.81,2.19-5.71,1.22-3.19,4.63-1.38,6.78-.57,2.18.84,5.89,1.77,4.66,4.99-.73,1.89-1.45,3.78-2.18,5.67l5.23,2c2.75,1.06,5.84-.32,6.89-3.07l8.39-21.91c1.05-2.75-.32-5.83-3.07-6.89Z"/>
      <path class="cls-3" d="M79.21,2.61c-.45-1.65-2.51-3.15-4.25-2.42-2.61,1.09-5.21,2.16-7.81,3.26-1.59.65-3.19,1.32-4.77,1.99-1.58.66-2.97,1.16-3.66,2.96-1.51,3.89-3.02,7.79-4.52,11.68-4.72,12.2-9.45,24.39-14.18,36.6-10.46-4.06-20.92-8.14-31.38-12.2-1.41-.55-2.83-1.1-4.24-1.65-1.76-.68-3.8.74-4.26,2.42-.53,1.96.66,3.56,2.42,4.25,3.32,1.29,6.65,2.58,9.97,3.88,1.72-1.44,3.92-2.31,6.34-2.31,5.02,0,9.15,3.74,9.78,8.58,2.73,1.06,5.45,2.12,8.18,3.18,1.41.55,2.83,1.1,4.24,1.65,1.88.73,3.63-.81,4.25-2.42,4.26-10.99,8.51-21.98,12.77-32.97,2.22-5.73,4.44-11.46,6.65-17.19,4.02-1.67,8.04-3.35,12.06-5.02,1.74-.72,2.96-2.26,2.42-4.25Z"/>
      <path class="cls-2" d="M18.85,54c-3.82,0-6.91,3.09-6.91,6.91s3.09,6.91,6.91,6.91,6.91-3.09,6.91-6.91-3.1-6.91-6.91-6.91ZM18.85,63.68c-1.52,0-2.76-1.24-2.76-2.76s1.24-2.77,2.76-2.77,2.76,1.24,2.76,2.77-1.24,2.76-2.76,2.76Z"/>
    </g>
  </g>
</svg>