<?xml version="1.0" encoding="UTF-8"?>
<svg id="Layer_2" data-name="Layer 2" xmlns="http://www.w3.org/2000/svg" xmlns:xlink="http://www.w3.org/1999/xlink" viewBox="0 0 69.28 61.22">
  <defs>
    <style>
      .cls-1 {
        fill: #fff;
      }

      .cls-2 {
        fill: url(#linear-gradient);
      }
    </style>
    <linearGradient id="linear-gradient" x1="8.21" y1="27.38" x2="61.08" y2="27.38" gradientUnits="userSpaceOnUse">
      <stop offset=".3" stop-color="#2dd4bf"/>
      <stop offset="1" stop-color="#0d9488"/>
    </linearGradient>
  </defs>
  <g id="oontent">
    <g>
      <path class="cls-1" d="M61.63,0H7.67C3.44,0,0,3.43,0,7.66v39.44c0,4.23,3.44,7.66,7.67,7.66h53.96c4.22,0,7.66-3.43,7.66-7.66V7.66c0-4.23-3.43-7.66-7.66-7.66ZM65.32,47.1c0,2.04-1.66,3.7-3.69,3.7H7.67c-2.04,0-3.7-1.66-3.7-3.7V7.66c0-2.04,1.66-3.7,3.7-3.7h53.96c2.04,0,3.69,1.66,3.69,3.7v39.44Z"/>
      <path class="cls-2" d="M58.78,8.41H10.51c-1.27,0-2.3,1.02-2.3,2.27v33.4c0,1.25,1.03,2.28,2.3,2.28h48.27c1.27,0,2.3-1.02,2.3-2.28V10.68c0-1.25-1.03-2.27-2.3-2.27Z"/>
      <path class="cls-1" d="M34.81,35.17c-.8.8-2.11.8-2.9,0l-8.96-8.96-1.92,5.99-6.94-17.75,17.76,6.94-6,1.91,8.96,8.96c.8.8.8,2.1,0,2.91Z"/>
      <path class="cls-1" d="M45.81,57.25h-20.2c-1.1,0-1.99.89-1.99,1.99s.89,1.98,1.99,1.98h20.2c1.09,0,1.98-.89,1.98-1.98s-.89-1.99-1.98-1.99Z"/>
    </g>
  </g>
</svg>