<?xml version="1.0" encoding="UTF-8"?>
<svg id="Layer_2" data-name="Layer 2" xmlns="http://www.w3.org/2000/svg" xmlns:xlink="http://www.w3.org/1999/xlink" viewBox="0 0 84.48 57.69">
  <defs>
    <style>
      .cls-1 {
        fill: url(#linear-gradient-2);
      }

      .cls-2 {
        fill: #fff;
      }

      .cls-3 {
        fill: url(#linear-gradient-4);
      }

      .cls-4 {
        fill: url(#linear-gradient-3);
      }

      .cls-5 {
        fill: url(#linear-gradient-5);
      }

      .cls-6 {
        fill: url(#linear-gradient-6);
      }

      .cls-7 {
        fill: url(#linear-gradient);
      }
    </style>
    <linearGradient id="linear-gradient" x1="53.55" y1="28.89" x2="26.79" y2="28.89" gradientUnits="userSpaceOnUse">
      <stop offset="0" stop-color="#c084fc"/>
      <stop offset=".57" stop-color="#c084fc"/>
      <stop offset=".8" stop-color="#c084fc"/>
      <stop offset=".96" stop-color="#a855f7"/>
      <stop offset="1" stop-color="#a855f7"/>
    </linearGradient>
    <linearGradient id="linear-gradient-2" x1="7.94" y1="30.56" x2="7.94" y2="27.2" gradientUnits="userSpaceOnUse">
      <stop offset=".25" stop-color="#000"/>
      <stop offset="1" stop-color="#504e55"/>
    </linearGradient>
    <linearGradient id="linear-gradient-3" x1="49.69" y1="30.57" x2="49.69" y2="27.19" xlink:href="#linear-gradient-2"/>
    <linearGradient id="linear-gradient-4" x1="28.82" y1="11.08" x2="28.82" y2="4.91" xlink:href="#linear-gradient-2"/>
    <linearGradient id="linear-gradient-5" x1="28.82" y1="52.85" x2="28.82" y2="46.66" xlink:href="#linear-gradient-2"/>
    <linearGradient id="linear-gradient-6" x1="37.01" y1="11.69" x2="37.01" y2="33.49" xlink:href="#linear-gradient"/>
  </defs>
  <g id="oontent">
    <g>
      <path class="cls-2" d="M84.47,28.76c-.03-15.87-12.19-28.76-27.13-28.76-.19,0-.38.02-.58.03h0s0,0,.01,0c-.06,0-.12.01-.18.01.04,0,.09,0,.13,0-.14,0-.28.03-.42.04.15-.01.3-.03.45-.03-.03.02-.06.04-.09.06-5.64,1.09-8.67,15.28-8.67,28.71s3.13,28.05,8.92,28.75c.02.01.03.02.06.03h0c.13,0,.25.03.38.03,14.94,0,27.09-12.88,27.13-28.73,0-.03,0-.05,0-.08,0-.02,0-.04,0-.06ZM82.11,28.81h0c0,1.31-1.69,2.83-4.75,4.15.14-1.36.24-2.74.24-4.15s-.1-2.79-.23-4.14c3.06,1.32,4.74,2.84,4.75,4.13h0ZM76.97,21.84c-.37-2.1-.9-4.1-1.57-5.99,2.76,2.26,4.8,5.03,5.86,8.11-1.17-.8-2.63-1.51-4.29-2.12ZM78.76,15.66c-1.5-1.53-3.25-2.89-5.21-4.06-1.1-2.08-2.38-3.95-3.82-5.54,3.75,2.31,6.87,5.62,9.04,9.6ZM66.18,38.22c2.94-.36,5.76-.89,8.26-1.6-.59,2.75-1.49,5.3-2.61,7.58-2.15,1.19-4.57,2.12-7.15,2.74.66-2.65,1.17-5.61,1.51-8.72ZM64.68,10.69c2.58.62,4.99,1.55,7.15,2.74,1.12,2.29,2.02,4.83,2.6,7.58-2.5-.71-5.3-1.24-8.24-1.6-.34-3.11-.84-6.08-1.51-8.72ZM66.42,35.68c.18-2.27.28-4.57.28-6.87s-.12-4.6-.3-6.87c3.31.43,6.17,1.05,8.51,1.81.22,1.64.34,3.33.34,5.06s-.12,3.42-.34,5.06c-2.33.75-5.18,1.38-8.48,1.81ZM69.55,9.63c-1.78-.72-3.67-1.27-5.65-1.67-.58-1.76-1.24-3.31-1.99-4.55,2.9,1.14,5.51,3.29,7.64,6.22ZM57.34,2.5c1.23,0,2.66,1.79,3.91,5.05-1.28-.15-2.57-.26-3.9-.26s-2.63.11-3.91.26c1.25-3.26,2.68-5.05,3.91-5.05ZM52.56,10.22c1.55-.24,3.14-.41,4.79-.41s3.22.16,4.78.4c.7,2.47,1.29,5.5,1.69,8.99-2.13-.19-4.3-.32-6.46-.32s-4.33.12-6.47.3c.4-3.48.99-6.5,1.69-8.96ZM50.34,28.81c0-2.54.11-4.9.29-7.12,2.1-.19,4.31-.31,6.71-.31s4.62.11,6.7.3c.18,2.22.29,4.58.29,7.12s-.11,4.9-.29,7.13c-2.08.18-4.31.3-6.7.3s-4.62-.13-6.71-.32c-.18-2.22-.29-4.58-.29-7.12ZM50.87,38.45c2.14.18,4.31.3,6.47.3s4.33-.13,6.47-.32c-.4,3.51-.99,6.52-1.7,8.99-1.55.24-3.13.4-4.77.4s-3.23-.17-4.78-.41c-.7-2.47-1.3-5.47-1.7-8.96ZM57.34,55.12c-1.22,0-2.65-1.78-3.9-5.04,1.28.14,2.57.25,3.9.25s2.62-.1,3.89-.25c-1.24,3.26-2.67,5.04-3.9,5.04ZM61.89,54.23c.76-1.24,1.43-2.78,2.01-4.56,1.97-.39,3.87-.95,5.65-1.66-2.14,2.93-4.76,5.09-7.66,6.22ZM69.72,51.56c1.44-1.59,2.72-3.46,3.82-5.54,1.96-1.16,3.71-2.52,5.21-4.05-2.18,3.97-5.29,7.28-9.04,9.59ZM75.41,41.78c.67-1.89,1.19-3.89,1.56-5.99,1.67-.61,3.12-1.32,4.3-2.12-1.06,3.08-3.1,5.84-5.86,8.11Z"/>
      <path class="cls-7" d="M53.54,57.68s-.07-.05-.11-.07c-1.07-.23-2.09-1.16-3-2.7-.06-.09-.11-.17-.16-.26-3.27-1-6.2-3.34-8.55-6.57,2.08.83,4.3,1.47,6.64,1.87-.26-.85-.51-1.73-.73-2.7-2.99-.6-5.75-1.62-8.19-2.97-1.12-2.29-2.02-4.83-2.6-7.58,2.82.8,6.02,1.38,9.38,1.74-.08-.82-.15-1.67-.21-2.52-3.81-.42-7.04-1.11-9.64-1.95-.22-1.64-.34-3.33-.34-5.06s.12-3.42.34-5.06c2.59-.84,5.82-1.54,9.63-1.95.06-.85.13-1.69.22-2.52-3.36.35-6.57.93-9.38,1.73.58-2.75,1.48-5.3,2.6-7.58,2.43-1.36,5.19-2.37,8.19-2.98.22-.96.48-1.84.73-2.69-2.34.39-4.56,1.04-6.64,1.87,2.35-3.24,5.29-5.57,8.56-6.58.05-.09.1-.17.15-.26.85-1.42,1.78-2.33,2.76-2.65.05-.04.11-.07.16-.12,0,0,0,0,.01,0-14.7.33-26.56,13.11-26.56,28.79h0v.02c0,15.74,11.97,28.56,26.76,28.78t0-.01ZM41.54,6.14c-1.45,1.59-2.73,3.45-3.82,5.54-1.96,1.16-3.72,2.52-5.22,4.06,2.17-3.98,5.3-7.3,9.04-9.61ZM35.86,15.93c-.67,1.88-1.2,3.89-1.56,5.98-1.67.61-3.12,1.32-4.29,2.12,1.06-3.08,3.1-5.85,5.86-8.11ZM29.15,28.89c0-1.3,1.69-2.82,4.75-4.14-.14,1.35-.24,2.73-.24,4.14s.1,2.79.24,4.15c-3.07-1.33-4.75-2.84-4.75-4.15ZM34.29,35.87c.37,2.1.89,4.1,1.56,5.99-2.76-2.26-4.8-5.03-5.86-8.11,1.17.8,2.63,1.51,4.29,2.12ZM32.5,42.04c1.5,1.53,3.26,2.89,5.22,4.06,1.09,2.08,2.38,3.95,3.82,5.54-3.75-2.3-6.87-5.62-9.04-9.59Z"/>
      <path class="cls-2" d="M57.15,28.91c0,15.64-12.68,28.33-28.32,28.33S.5,44.55.5,28.91,13.18.58,28.82.58s28.32,12.68,28.32,28.32Z"/>
      <path class="cls-2" d="M28.81,57.69C12.93,57.69,0,44.76,0,28.88S12.93.07,28.81.07s28.81,12.92,28.81,28.81-12.93,28.81-28.81,28.81ZM28.81,3.16C14.62,3.16,3.09,14.7,3.09,28.88s11.54,25.71,25.72,25.71,25.72-11.54,25.72-25.71S42.99,3.16,28.81,3.16Z"/>
      <g>
        <path class="cls-1" d="M10.96,28.47c-.38-1.68-1.98-1.22-3.02-1.22-1.11,0-2.88-.53-3.08,1.62-.2,2.13,2.29,1.63,3.08,1.63,1.04,0,2.64.46,3.02-1.23.05-.1.08-.23.06-.4.02-.17-.01-.3-.06-.4Z"/>
        <path class="cls-4" d="M52.77,28.71c-.18-1.98-2.09-1.45-3.07-1.45-1.11,0-2.88-.53-3.09,1.62-.19,2.09,2.15,1.63,2.94,1.63.99,0,3.02.57,3.21-1.46,0-.06,0-.11,0-.17,0-.05,0-.11,0-.17Z"/>
        <path class="cls-3" d="M28.82,4.91c-2.15,0-1.62,2.13-1.62,3.08,0,1.04-.46,2.64,1.22,3.02.1.06.24.08.4.07.17.01.31-.01.4-.07,1.68-.38,1.22-1.98,1.22-3.02,0-.95.53-3.08-1.62-3.08Z"/>
        <path class="cls-5" d="M28.82,46.67c-2.13-.2-1.62,2.29-1.62,3.08,0,1.03-.46,2.64,1.22,3.02.1.05.24.08.4.06.17.02.31-.01.4-.06,1.67-.38,1.22-1.99,1.22-3.02,0-1.11.53-2.88-1.62-3.08Z"/>
      </g>
      <path class="cls-6" d="M49.61,18.67c-.45-.99-1.49-1.49-2.33-1.11l-15.02,6.82,2.37-10.58c.2-.89-.5-1.81-1.56-2.05-1.07-.24-2.09.29-2.28,1.19l-2.54,11.34c-2.26.16-4.04,2.15-4.04,4.59s1.94,4.61,4.33,4.61h.56c2.39,0,4.33-2.06,4.33-4.61,0-.22-.02-.44-.05-.66l15.54-7.06c.84-.38,1.15-1.49.7-2.48Z"/>
    </g>
  </g>
</svg>