<?xml version="1.0" encoding="UTF-8"?><svg id="Layer_1" xmlns="http://www.w3.org/2000/svg" viewBox="0 0 855 240"><path d="M36.81,178.05c-5.87,0-10.4-1.63-13.6-4.9-3.2-3.27-4.8-7.9-4.8-13.9V52.25c0-6.13,1.6-10.8,4.8-14,3.2-3.2,7.73-4.8,13.6-4.8s10.57,1.6,13.7,4.8c3.13,3.2,4.7,7.87,4.7,14v37.4h58.2v-37.4c0-6.13,1.57-10.8,4.7-14,3.13-3.2,7.7-4.8,13.7-4.8s10.37,1.6,13.5,4.8c3.13,3.2,4.7,7.87,4.7,14v107c0,6-1.57,10.63-4.7,13.9-3.13,3.27-7.63,4.9-13.5,4.9s-10.57-1.63-13.7-4.9c-3.13-3.27-4.7-7.9-4.7-13.9v-39.4h-58.2v39.4c0,6-1.53,10.63-4.6,13.9-3.07,3.27-7.67,4.9-13.8,4.9Z" fill="#ebb63c"/><path d="M221.01,178.45c-10.93,0-20.47-2.07-28.6-6.2-8.13-4.13-14.47-10.07-19-17.8-4.53-7.73-6.8-16.87-6.8-27.4,0-8,1.27-15.17,3.8-21.5,2.53-6.33,6.2-11.73,11-16.2,4.8-4.47,10.53-7.87,17.2-10.2,6.67-2.33,14.13-3.5,22.4-3.5,10.93,0,20.47,2.07,28.6,6.2,8.13,4.13,14.43,10.03,18.9,17.7,4.47,7.67,6.7,16.83,6.7,27.5,0,7.87-1.27,15-3.8,21.4-2.53,6.4-6.17,11.83-10.9,16.3-4.73,4.47-10.47,7.87-17.2,10.2-6.73,2.33-14.17,3.5-22.3,3.5ZM221.01,152.25c3.6,0,6.8-.9,9.6-2.7,2.8-1.8,4.97-4.53,6.5-8.2,1.53-3.67,2.3-8.43,2.3-14.3,0-8.93-1.73-15.37-5.2-19.3-3.47-3.93-7.87-5.9-13.2-5.9-3.6,0-6.8.87-9.6,2.6-2.8,1.73-5,4.43-6.6,8.1-1.6,3.67-2.4,8.5-2.4,14.5,0,8.8,1.73,15.2,5.2,19.2,3.47,4,7.93,6,13.4,6Z" fill="#ebb63c"/><path d="M339.4,178.45c-10.93,0-20.47-2.07-28.6-6.2-8.13-4.13-14.47-10.07-19-17.8-4.53-7.73-6.8-16.87-6.8-27.4,0-8,1.27-15.17,3.8-21.5,2.53-6.33,6.2-11.73,11-16.2,4.8-4.47,10.53-7.87,17.2-10.2,6.67-2.33,14.13-3.5,22.4-3.5,10.93,0,20.47,2.07,28.6,6.2,8.13,4.13,14.43,10.03,18.9,17.7,4.47,7.67,6.7,16.83,6.7,27.5,0,7.87-1.27,15-3.8,21.4-2.53,6.4-6.17,11.83-10.9,16.3-4.73,4.47-10.47,7.87-17.2,10.2-6.73,2.33-14.17,3.5-22.3,3.5ZM339.4,152.25c3.6,0,6.8-.9,9.6-2.7,2.8-1.8,4.97-4.53,6.5-8.2,1.53-3.67,2.3-8.43,2.3-14.3,0-8.93-1.73-15.37-5.2-19.3-3.47-3.93-7.87-5.9-13.2-5.9-3.6,0-6.8.87-9.6,2.6-2.8,1.73-5,4.43-6.6,8.1-1.6,3.67-2.4,8.5-2.4,14.5,0,8.8,1.73,15.2,5.2,19.2,3.47,4,7.93,6,13.4,6Z" fill="#ebb63c"/><path d="M458.6,178.45c-10,0-18.23-1.53-24.7-4.6-6.47-3.07-11.3-7.7-14.5-13.9-3.2-6.2-4.8-13.97-4.8-23.3v-32.6h-6.8c-4.27,0-7.57-1.13-9.9-3.4-2.33-2.27-3.5-5.53-3.5-9.8s1.17-7.5,3.5-9.7c2.33-2.2,5.63-3.3,9.9-3.3h6.8v-12.4c0-5.87,1.53-10.33,4.6-13.4s7.47-4.6,13.2-4.6,10.13,1.53,13.2,4.6c3.07,3.07,4.6,7.53,4.6,13.4v12.4h16.4c4.4,0,7.77,1.1,10.1,3.3,2.33,2.2,3.5,5.43,3.5,9.7s-1.17,7.53-3.5,9.8c-2.33,2.27-5.7,3.4-10.1,3.4h-16.4v31.4c0,4.93,1.17,8.57,3.5,10.9,2.33,2.33,6.03,3.5,11.1,3.5,1.87,0,3.67-.2,5.4-.6,1.73-.4,3.33-.6,4.8-.6,2.13-.13,3.87.5,5.2,1.9,1.33,1.4,2,4.57,2,9.5,0,4-.6,7.37-1.8,10.1-1.2,2.73-3.33,4.7-6.4,5.9-1.87.67-4.4,1.23-7.6,1.7-3.2.47-5.8.7-7.8.7Z" fill="#ebb63c"/><path d="M531,178.45c-12.8,0-22.23-3.43-28.3-10.3-6.07-6.87-9.1-17.23-9.1-31.1V51.45c0-5.87,1.53-10.33,4.6-13.4,3.07-3.07,7.4-4.6,13-4.6s10.17,1.53,13.3,4.6c3.13,3.07,4.7,7.53,4.7,13.4v84.4c0,4.93.97,8.53,2.9,10.8,1.93,2.27,4.43,3.4,7.5,3.4.93,0,1.9-.1,2.9-.3s2.1-.37,3.3-.5c2.27,0,3.97.87,5.1,2.6,1.13,1.73,1.7,5.27,1.7,10.6,0,4.67-.93,8.17-2.8,10.5-1.87,2.33-4.73,3.83-8.6,4.5-1.07.13-2.6.33-4.6.6-2,.27-3.87.4-5.6.4Z" fill="#ebb63c"/><path d="M578.8,61.85c-6.27,0-11.1-1.47-14.5-4.4-3.4-2.93-5.1-7.2-5.1-12.8s1.7-9.67,5.1-12.6c3.4-2.93,8.23-4.4,14.5-4.4s11.47,1.47,14.8,4.4c3.33,2.93,5,7.13,5,12.6s-1.67,9.87-5,12.8c-3.33,2.93-8.27,4.4-14.8,4.4ZM578.8,178.05c-5.6,0-9.93-1.67-13-5-3.07-3.33-4.6-8.13-4.6-14.4v-63.2c0-6.27,1.53-11.07,4.6-14.4,3.07-3.33,7.4-5,13-5s10.17,1.67,13.3,5c3.13,3.33,4.7,8.13,4.7,14.4v63.2c0,6.27-1.53,11.07-4.6,14.4-3.07,3.33-7.54,5-13.4,5Z" fill="#ebb63c"/><path d="M633,178.05c-5.6,0-9.93-1.53-13-4.6-3.07-3.07-4.6-7.53-4.6-13.4v-66.2c0-5.73,1.5-10.13,4.5-13.2,3-3.07,7.3-4.6,12.9-4.6s9.87,1.53,12.8,4.6c2.93,3.07,4.4,7.47,4.4,13.2v9.4l-2.2-8.2c3.2-6.27,7.77-11.07,13.7-14.4,5.93-3.33,12.7-5,20.3-5s14.33,1.5,19.4,4.5c5.07,3,8.87,7.67,11.4,14,2.53,6.33,3.8,14.3,3.8,23.9v42c0,5.87-1.54,10.33-4.6,13.4-3.07,3.07-7.47,4.6-13.2,4.6s-10.13-1.53-13.2-4.6c-3.07-3.07-4.6-7.53-4.6-13.4v-40.6c0-6-1.03-10.27-3.1-12.8-2.07-2.53-5.1-3.8-9.1-3.8-5.33,0-9.6,1.7-12.8,5.1-3.2,3.4-4.8,7.97-4.8,13.7v38.4c0,12-6,18-18,18Z" fill="#ebb63c"/><path d="M783.4,214.45c-7.33,0-14.2-.5-20.6-1.5-6.4-1-11.93-2.43-16.6-4.3-3.87-1.33-6.6-3.27-8.2-5.8-1.6-2.53-2.33-5.2-2.2-8,.13-2.8.9-5.33,2.3-7.6,1.4-2.27,3.3-3.9,5.7-4.9,2.4-1,5.07-.97,8,.1,5.87,2.4,11.2,3.97,16,4.7,4.8.73,8.87,1.1,12.2,1.1,8.13,0,14.23-1.7,18.3-5.1,4.07-3.4,6.1-8.7,6.1-15.9v-12.6h1.6c-2,5.6-6.07,10.17-12.2,13.7-6.13,3.53-12.8,5.3-20,5.3-8.8,0-16.47-2.03-23-6.1-6.53-4.07-11.63-9.77-15.3-17.1-3.67-7.33-5.5-15.93-5.5-25.8,0-7.47,1.07-14.2,3.2-20.2,2.13-6,5.1-11.13,8.9-15.4,3.8-4.27,8.4-7.57,13.8-9.9,5.4-2.33,11.37-3.5,17.9-3.5,7.47,0,14.17,1.73,20.1,5.2,5.93,3.47,9.9,8,11.9,13.6l-2,8.2v-8.8c0-5.73,1.57-10.13,4.7-13.2,3.13-3.07,7.5-4.6,13.1-4.6s9.9,1.53,12.9,4.6c3,3.07,4.5,7.47,4.5,13.2v69.2c0,17.07-4.8,29.9-14.4,38.5-9.6,8.6-23.33,12.9-41.2,12.9ZM784.8,147.45c4,0,7.4-.9,10.2-2.7s5-4.4,6.6-7.8c1.6-3.4,2.4-7.5,2.4-12.3,0-7.2-1.73-12.8-5.2-16.8-3.47-4-8.13-6-14-6-3.73,0-7.07.9-10,2.7-2.93,1.8-5.17,4.4-6.7,7.8-1.54,3.4-2.3,7.5-2.3,12.3,0,7.2,1.73,12.8,5.2,16.8,3.47,4,8.07,6,13.8,6Z" fill="#ebb63c"/></svg>