<?xml version="1.0" encoding="UTF-8"?><svg id="Layer_1" xmlns="http://www.w3.org/2000/svg" viewBox="0 0 512 512"><path d="M487.85,92.2c-3.49,9.47-7.52,18.72-13.97,27.73,5.04-.97,11.67-10.13,18.13-5.44,2.18,1.58,2.81,4.39,3.01,7.76-4.65,24.24-20.45,42.72-42.88,54.66,25.53,35.98,38.9,74.87,36.09,119.08-.66,10.43-1.98,20.05-5,30.28-12.49,42.26-40.75,74.91-77.36,98.79-27.64,18.03-57.75,30.91-90.01,37.72-12.04,2.54-22.9,4.41-35.3,5.27-49.31,3.45-98.84-4.72-143.51-26.01-25.41-12.11-48.46-28.29-67.49-48.93-16.11-17.48-28.02-37.73-35.48-60.19-17.09-51.42-4.64-106.17,26.06-149.43,1.14-1.61,2.29-2.88,2.35-4.57.81.03,1.73.07,2.25-.18.74-.35.72-1.66.35-2.29-.25-.43-1.24-.33-1.95-.42-1.13-.15-2.52-.13-2.08.77.19.39.48.83.59,1.33-14.74-6.71-30.23-18.11-37.62-32.77.78-.14.38-1.35.15-1.81-.38-.76-1.12.08-1.6.26-1.29-1.38-1.15-3.62-1.99-5.07,3.99-.01-.4-6.29,5.87-6.14.62,1.61,1.62,3.41,1.5,5.11-1.19.11-1.35,1.12-1.36,2.02-.02,2.25,2.32,4.08,3.1,4,.51-.05.94-.79,1.15-1.35,6.1,8.4,12.91,16.25,21.75,21.75-3.2,2.09,3.77,2.99,2.92,9.54,3.06.43,5.15-1.92,5.34-4.4,14.68,6.49,29.86,11.08,46.2,12.83l28.45,3.06c14.74,1.58,28.68,4.39,42.84,8.83,34.9,10.94,61.71,31.62,78.93,64.83,19.08-37.79,50.64-59.17,90.34-68.25,17.26-3.95,34.03-5.61,51.63-7.4,37.75-3.84,77.16-19.76,87.31-60.37-.32-1.68-1.22-1.6-1.02.1-1.67-.25-2.36,1.45-3.73,2.41-4.52,3.17-25.76,17.21-29.38,11.04-.95-1.62-.64-3.83.86-5.4,17.86-18.67,35.87-49.13,32.89-74.5l-.87-7.42c-.25-2.14-1.79-4.05-1.38-6.05,1.79.64,1.14,2.69,1.79,4.24,2.75,6.58,1.31,23.11-.85,30.88-.54,1.94-.11,15.94,2.96,14.13ZM422.66,207.38c13.64,12.99,24.37,29,29.24,47.55,12.02,45.79-5.61,91.64-46.33,115.28-34.39,19.96-80.33,16.59-111.32-8.2l-.76-1.35c.73-.13,1.7-.22,2.22-.54,1.67-1.02-.32-4.68,1.41-5.13,3.65,1.15,5.81,4.9,9.48,6.55,2.6,1.17,4.4,3.26,7.04,3.46.17.01.35.03.52.06,1.53,5.27,6.3.41,7.31,6.32,3.95.44,7.56,2.53,11.52,2.48,3.4-.04,6.11.35,9.35,1.26s6.56.07,9.9.6c7.76,1.23,15.54-.72,23.32-1.89,1.89-.29,4.17.78,5.78-.24,8.89-5.64,8.99-2.45,13.76-7.22.19-.07.55-.06.75-.07,1.43.94,2.28-1.04,3.47-1.52,4.26-1.71,7.66-3.89,11.11-6.87,3.04-2.62,6.96-4.45,8.57-7.97l.67-.68c5.47-5.53,11.2-11.65,14.88-18.64.11-.21,0-.52.07-.75.83.1,1.52-.26,1.85-.92.46-.93.45-1.89.52-2.83.04-.52.46-1.01.64-1.48.96.28,1.36-.33,1.78-1.36,6.32-15.26,10.63-31.92,8.47-48.5-1.27-9.75-3.05-19.18-6.97-28.06-3.86-8.75-8.34-17.09-14.8-23.54l-1.69-1.69c1.05-2.86-16.69-15.78-18.76-17.06l-9.22-5.69c-3.09-1.9-7.1-2.36-10.32-3.99-4.14-2.09-8.56-1.11-12.55-1.58-5.63-.68-9.77.94-15.16,2.23l-15.02,3.6c-2.29.55-4.24.2-6.49,1.53-3.47,2.05-7.62,2.84-11.35,4.46-9.26,4.01-17.82,8.48-25.76,14.64-1.83,1.42-3.98,2.25-6.24,1.89.14.88.44,1.27.47,1.79.05.68-.55.87-1.15,1.35-7.65,6-13.89,13.08-19.28,21.04-1.76,2.61-3.68,4.83-4.91,7.79-1.04,2.5-2.9,3.8-6.06,3.25,1.96,2.69,1.97,5.01-.19,7.14-1.12,1.11-.51,3.78-1.99,4.71-1.63,1.02-4.34.56-6.11.52-2.82-3.24-3.92-6.98-5.74-10.45l-3.35-6.39c-1.74-3.32-4.9-5.52-6.24-9.4-.69-2-2.89-3.4-4.51-4.14-.19-.27-.51-.51-.63-.82-1.34-3.39-4.73-5.78-7.12-8.61.55-.77,1.52-2.72.16-2.53-1.06.38-1.7,2.02-2.94,1.39-.24-.29-.48-.69-.78-.92-1.13-1.73-2.39-3.41-3.12-5.6-7.83-.62.27-.05-11.94-6.27-6-3.05-11.49-6.91-17.92-9.49-7.33-2.93-14.68-5.89-22.43-8.06-2.27-.63-4.77-.67-7.04-1.19l-13.89-3.23c-3.84-.89-8.62-.4-12.39.26-5.03.89-12.58,5.44-17.29,3.46-2.3,1.06-3.17,4.29-5.34,4.99-2.71.87-3.06,2-4.48,3.93-2.37,3.23-7.28,4.18-9.95,7.12l-12.08,13.3c-.09.1-10.1,17.8-10.46,17.79l-2.21-.08c-.7-.03.7,1.81.66,2.5-.21,3.44-1.2,6.87-2.31,10.2-6.41,19.24-5.27,39.25,1.62,58.28,3.48,9.6,6.74,13.76,11.86,22.35,2.02,3.38,15.08,18.87,19.02,19.96,2.71.75,4.24,3.46,6.46,4.74,3.3,1.9,7.27,2.77,10.57,5.04,2.12,1.46,4.48,2.02,6.77,3.06,4.19,1.91,7.9,3.54,12.53,4.02,7.82.79,15.5,2.55,23.45,1.61,6.37-.75,12.39-1.02,18.76.65l1.79-3.78c3.35-1.69,6.91-2.41,10.31-3.96l6.16-2.8c2.88-1.31,5.04-4.22,8.46-3l.97-3.23c.62-.35,1.63-1.01,2.17-1.47l2.26-.09c.08.39.15,1.09.56,1.26.59.25.97-.49,1.7-.8,2.54-1.09,6.28,1.2,6.07,3.88-.9-.78-1.88-.54-2.99.31-22.72,17.59-51.72,23.87-79.92,18.4-18.16-3.52-33.68-11.58-47.41-23.83-12.3-10.97-20.41-24.73-26.74-39.56-.36-1.29-.49-2.71-1.38-3.76.02-.19-.03-.55-.07-.75-3.15-12.66-5.73-26.04-4.1-39.68.43-3.58.58-7.04,1.31-10.4.05-.21.05-.54,0-.75.95-1.55,1.08-3.45,1.28-5.23.02-.2.15-.57.06-.75l6.05-15.6c2.23-5.75,6.06-10.55,8.78-15.79,5.43-5.71,9.71-12.67,15.82-17.75,7.15-5.95,15.14-10.49,24.12-15.46-15.69-2-30.86-4.31-46.07-9.66-4.07,5.21-8.27,10.14-10.41,16.01-2.95,2.43-4.06,6.41-5.89,9.73-.49.25-.5,1.05-.8,1.43-2.12,2.79-3.19,6.06-4.75,9.52-7.58,16.74-12.36,34.07-14.06,52.5-.63,6.77-1.31,13.17.11,19.44-.46,16.7,3.97,33.42,10.45,49.44,10.61,26.19,28.01,48.15,49.89,65.86,40.31,32.62,91.43,50.13,143.01,53.66,27.48,1.88,54.33.07,80.89-6.48,28.25-6.97,54.38-17.88,78.81-33.44,28.26-18,52.27-41.16,67.14-71.5,8.24-16.81,13.61-34.69,13.98-53.13.04-1.83-.06-4.14.26-5.9.84-4.59.75-9.53.12-14.57-.76-6.04-.46-12.13-2.59-17.57.06-.23,0-.51,0-.75-.13-7.58-3.01-14.88-5.04-22.46-2.46-9.17-11.95-28.99-16.86-36.64-3.6-5.6-6.69-11.56-11.53-16.8-14.8,6.04-30.05,9.38-45.05,11.06,8.57,5.08,17.14,9.22,23.8,15.56Z" fill="#804a14"/><path d="M487.85,92.2c-3.07,1.81-3.5-12.2-2.96-14.13,2.16-7.77,3.6-24.3.85-30.88-.65-1.55,0-3.6-1.79-4.24-.49-.17-.9-1.17-1.35-1.5-.42-.3-.1-1.45-.75-1.74-.73-.32-1.47.52-1.95,1.37-7.1,12.42-14.53,24.13-24.36,34.66-15.78,16.91-35.15,28.61-56.81,36.6-12.14,4.48-24.28,7.65-35.81,12.62l-7.21-1.76c-1.03-.25-2.17.92-3.08.07-.59-.56-.96-1.42-.88-2.37,1.8-.83,3.45-1.6,5.97-2.89-64.93-29.04-134.68-29.36-200.48.54,4.75,3.44,11.14,4.36,15.83,7.31,26.89,16.88,42.37,28.83,61.09,55.48,8.05,11.46,14.57,23.37,20.91,35.83.52,1.02.81,1.92,1.75,2.2.04,4.2,1.57,8.18,3.13,12.06-.91,1.43-1.43,2.69-3.65,2.2-1.23-.27-3.08-.98-3.9-2.65-6.58-13.31-12.98-26.14-21-38.73-16.04-25.2-37.64-45.37-64.12-59.15-5.21-2.71-9.79-5.34-15.29-7.23l-34.43-11.84c-12.57-4.32-24.27-9.17-35.51-16.11-15.86-9.81-28.91-22.22-39.39-37.59-4.3-6.31-8.45-12.03-11.78-18.91-.32-.66-1.17-1.29-1.54-1.62-.72-.64-1.36.09-1.67.5-.51.67-.18,1.89-.53,2.63-2.91,6.22-3.35,13.57-2.79,21.08,1.9,25.28,13.82,48.2,31.83,65.65,1.89,1.83,2.25,3.98,1.63,5.71-2.08,5.86-13.74-1.07-19.89-3.93-3.45-1.6-6.28-3.89-9.28-5.67-1.75-1.03-2.84-2.99-5.44-3.67.25,4.09,1.99,7.25,3.27,10.54-6.28-.15-1.88,6.12-5.87,6.14-2.94-5.07-9.22-19.65-2.8-24.14s12.94,3.68,18.45,6.24c-1.58-4.2-3.76-7.22-5.92-10.82-11.27-18.78-16.31-40.57-13.3-62.38,1.18-8.57,3.67-17.28,12.7-16.59,2.63.2,5.31,1.9,6.97,4.58l6.58,10.64c27.32,44.18,55,53.11,102.79,68.57,72.21-35.73,150.54-36.14,222.81-.65l33.8-12.09c26.42-9.45,47.84-28.8,62.63-52.45,5.38-8.61,8.75-19.96,18.23-18.55,10,1.48,10.86,21.99,10.92,29.75.09,11.26-2.97,21.5-6.61,31.38Z" fill="#834d16"/><path d="M62.5,178.92c-.32-.17-.5-.64-.83-.79-.12-.5-.4-.94-.59-1.33-.44-.9.94-.92,2.08-.77.71.09,1.7-.01,1.95.42.37.64.39,1.94-.35,2.29-.52.25-1.44.21-2.25.18Z" fill="#834d16"/><path d="M24.05,145.36c-.77-.19-.98-1.06-1.45-1.55.47-.18,1.22-1.02,1.6-.26.23.46.63,1.68-.15,1.81Z" fill="#834d16"/><path d="M223.14,227.27c.3.23.54.63.78.92,2.97,3.52,6.42,6.75,9.91,9.75.12.3.44.55.63.82,6.29,9.08,12.75,17.82,17.13,28.39,1.28,3.09,5.17,5.94,8.09,3.5,5.26-4.4,11.65-30.78,43.32-52.21,6.03-4.08,11.79-7.08,18.32-10.15l4.61-2.17c11.78-5.54,40.66-11.78,54.28-11.85,17.58,4.55,31.75,14.85,44.19,27.26l1.69,1.69c4.99,8.01,11.28,15.74,14.46,25.47,3.19,9.74,5.99,19.27,6.22,29.63.26,11.57-.57,22.42-4.08,33.51-1.43,4.5-3.47,8.66-5.07,12.84-.18.47-.6.96-.64,1.48-1.55.51-1.93,2.32-2.37,3.75-.07.23.04.54-.07.75-4.6,6.54-9.51,12.71-14.88,18.64l-.67.68-7.06,5.76c-3.35,2.73-6.95,5.1-10.68,7.44-1.89,1.19-4.33,1.35-5.4,3.16-.2.01-.56,0-.75.07-7.31,2.63-14.42,5.82-22.49,6.85s-15.1,2-22.87,1.28c-24.54-2.26-29.48-8.32-35.58-9.45-.17-.03-.35-.05-.52-.06-.04-1.01-1.03-1.26-2.01-1.75-7.26-3.67-9.11-6.16-15.39-10.15,0-.2-.06-.47.01-.66,4-10.66.36-23.03-8.12-30.54l-.68-1c-4.93-7.3-19.62-17.26-29.94-17.09-8.65.14-16.56,4.24-22.47,9.72l-.72.63c-1.36,1.19-2.9,2.64-4.51,3.83-.55.41-.89,1.02-1.38,1.42-2.56,2.13-4.46,4.92-6.5,7.87-5.24,7.6-6.82,16.85-4.18,25.62-.26.98-1.63,1.87-2.06,2.46-.21.28-.61.74-.89.9-1.3.32-1.99,1.33-2.9,2.12-.54.46-1.55,1.11-2.17,1.47-10.46,5.92-21.44,11.26-33.81,13.4-40.46,7-76.84-10.58-96.7-46.09-6.16-11.01-9.43-23.45-10.82-36.13-.54-4.94-.24-10,0-14.98.66-13.46,4.86-26.02,11.32-37.87,12.03-22.1,32.92-37.49,57.29-44.13,36.01,4.39,57.99,11.85,86.14,33.22ZM214.86,293.55c6.37-30.09-15.17-59.31-45.77-61.14-15.3-.91-30.01,5.15-40.13,16.71-10.95,12.51-15.24,28.45-11.93,44.86,4.7,23.25,25.58,39.69,48.85,39.67,23.43-.02,43.93-16.28,48.98-40.09ZM319.97,324.09c16.19,12,37.55,12.55,54.77,2.56,16.35-9.49,25.8-27.93,24.28-47.61-2.12-27.44-25.34-48.54-52.99-46.62-18.24,1.27-33.89,12.24-41.72,28.48-10.74,22.29-4.56,48.21,15.67,63.2Z" fill="#fdfdfc"/><path d="M454.84,198.31c1.65,1.23,1.77,3.65,2.97,5.36,2.77,3.96,4.46,7.99,6.35,12.42,5.27,12.35,9.74,24.57,12.01,37.91.19,1.12.52,2.17,1.17,2.66,0,.24.06.52,0,.75-.16.61,1.28,13.31,1.3,15.02l.24,16.36c0,.63.51.9.92.76-.32,1.75-.22,4.07-.26,5.9-.71.08-1.17.7-1.41,1.62-2.88,10.92-6.3,21.08-11.66,31.08-10.64,19.82-24.14,37.52-41.2,52.12-28.38,24.29-59.67,40.08-95.62,50.28-65.07,18.46-135.06,10.82-195.2-19.46-21.11-10.63-44.42-27.84-60.17-45.28-19.1-21.13-33.5-46.84-38.13-74.77.28-5.05-.19-10.25.23-15.62l.6-7.59c.55-6.91,2.1-13.48,3.61-20.15,2.26-9.96,5.47-19.1,9.76-28.4,1.52-3.3,3.38-6.38,3.75-9.69.29-.38.31-1.18.8-1.43,3.14-1.63,4.09-7.9,7.44-8.92l17.32,5.77c4.54,1.51,9.02,2.67,13.49,2.51-6.11,5.08-10.39,12.04-15.82,17.75-3.04,3.2-5.58,6.82-7.57,11.24s-4.27,8.82-5.63,13.8c-.62,2.26-2.82,4.06-1.63,6.36.09.17-.04.55-.06.75-2.31.53-1.76,3.34-1.28,5.23.05.21.05.54,0,.75-.61.2-1.29.88-1.45,1.89l-1.02,6.4c-.54,3.36-.07,23.06.87,27.56l2.03,9.75c.38,1.84.7,4.04,2.37,4.47.05.19.09.56.07.75-.99,1.66.9,2.64,1.38,3.76,6.33,14.83,14.44,28.58,26.74,39.56,13.73,12.25,29.25,20.31,47.41,23.83,28.2,5.47,57.2-.81,79.92-18.4,1.11-.86,2.09-1.09,2.99-.31l-.13,1.63c-.67.51-1.19,1.76-.85,3.01,2.78,10.03,6.85,19.37,12.52,27.98,5.97,9.06,18.12,27.39,31,17.39,11.3-8.77,18.57-20.98,23.67-34.31,2.15-5.62,3.26-11.15,5.57-16.31,30.99,24.79,76.93,28.16,111.32,8.2,40.72-23.64,58.35-69.5,46.33-115.28-4.87-18.55-15.6-34.57-29.24-47.55,11.19-1.17,21.72-5.06,32.18-9.08Z" fill="#eab432"/><path d="M483.96,42.94c-.4,2,1.13,3.91,1.38,6.05l.87,7.42c2.98,25.38-15.03,55.84-32.89,74.5-1.5,1.57-1.81,3.78-.86,5.4,3.63,6.17,24.87-7.87,29.38-11.04,1.36-.96,2.06-2.66,3.73-2.41l-7.32,7.65c-30.19,31.53-57.56,34.94-100.65,39.32-16.4,1.67-31.76,5.46-47.12,11.09-18.66,6.84-32.61,14.95-46.89,28.55-11.53,10.99-20.15,24.04-26.3,39.16-3.76-6.6-6.17-13.76-10.76-19.82-2.74-3.62-4.97-7.47-8.06-10.78-4.1-4.39-8.08-8.85-12.69-12.62-6.94-5.68-13.7-10.71-21.64-14.89-16.89-8.88-34.64-15.09-53.44-18.43-9.04-1.61-17.46-2.5-26.49-3.46-14.78-1.57-28.81-3.84-43.21-7.64-18-4.75-33.67-14.16-46.61-27.37-2.45-2.5-4.81-4.81-5.74-7.92,3.01,1.78,5.84,4.07,9.28,5.67,6.15,2.86,17.81,9.79,19.89,3.93.62-1.73.26-3.88-1.63-5.71-18.02-17.46-29.94-40.37-31.83-65.65-.56-7.51-.12-14.86,2.79-21.08,1.17.03,1.05,1.24,1.47,2.28l6.53,16.15c1.49,3.69,3.07,7.71,5.46,10.97,3.79,5.18,7.25,10.39,11.67,15.17,15.88,17.13,35.96,29.21,58.05,36.67l35.34,11.93c22.57,7.62,42.92,19.83,60.51,35.79,26.18,23.74,40.69,56.13,48.52,64.25,1.56,1.62,4.6-.73,5.62-2.05,5.75-7.38,9.96-15.14,14.92-23.1,23.96-38.51,53.87-61.28,96.41-76.33l34.91-12.35c14.17-5.01,26.55-12.89,38.03-22.44,3.34-2.78,6.7-5.08,9.58-8.24,16.76-18.37,20.9-26.82,28.44-50.13.45.33.86,1.32,1.35,1.5Z" fill="#eab435"/><path d="M36.15,291.03c4.64,27.93,19.04,53.64,38.13,74.77,15.76,17.44,39.06,34.65,60.17,45.28,60.15,30.27,130.13,37.91,195.2,19.46,35.95-10.2,67.24-25.99,95.62-50.28,17.06-14.6,30.57-32.3,41.2-52.12,5.36-9.99,8.78-20.16,11.66-31.08.24-.92.71-1.54,1.41-1.62-.36,18.44-5.74,36.32-13.98,53.13-14.87,30.34-38.88,53.5-67.14,71.5-24.43,15.56-50.56,26.47-78.81,33.44-26.56,6.55-53.41,8.36-80.89,6.48-51.58-3.53-102.7-21.04-143.01-53.66-21.88-17.7-39.28-39.66-49.89-65.86-6.49-16.02-10.91-32.74-10.45-49.44h.75Z" fill="#cf8f2e"/><path d="M60.89,169.26l-8.26-5.14c-8.84-5.5-15.65-13.35-21.75-21.75-1.06-1.46-.7-4.11-2.89-4.66.12-1.71-.88-3.5-1.5-5.11-1.28-3.29-3.02-6.46-3.27-10.54,2.6.68,3.7,2.63,5.44,3.67.92,3.11,3.29,5.42,5.74,7.92,12.94,13.21,28.61,22.62,46.61,27.37,14.4,3.8,28.42,6.08,43.21,7.64,9.03.96,17.45,1.85,26.49,3.46,18.8,3.34,36.56,9.55,53.44,18.43,7.94,4.18,14.69,9.21,21.64,14.89,4.61,3.77,8.59,8.23,12.69,12.62,3.09,3.31,5.32,7.16,8.06,10.78,4.59,6.06,7,13.22,10.76,19.82,6.15-15.12,14.77-28.17,26.3-39.16,14.27-13.6,28.23-21.71,46.89-28.55,15.35-5.63,30.72-9.43,47.12-11.09,43.09-4.38,70.46-7.8,100.65-39.32l7.32-7.65c-.2-1.7.7-1.77,1.02-.1-10.15,40.6-49.56,56.52-87.31,60.37-17.6,1.79-34.36,3.45-51.63,7.4-39.7,9.08-71.26,30.46-90.34,68.25-17.22-33.2-44.03-53.88-78.93-64.83-14.16-4.44-28.1-7.25-42.84-8.83l-28.45-3.06c-16.34-1.75-31.52-6.34-46.2-12.83Z" fill="#cf9032"/><path d="M224.77,344.8c13.87,10.55,14.32,15.68,24.68,23.65,3.33,2.56,6.47,3.54,10.22,3.43,2.75-.08,4.79-1.44,6.2-3.87,1.55-2.66,4.57-4.36,6.57-6.61l.79-.88c.21-.24.49-.44.68-.69,1.9-1.45,4.34-2.66,4.65-5.18l.79-.56c1.9.49,1.53,2.88,2.66,4.4.8,1.07,3.07.72,2.95,2.41-.07,1-1.21,1.88-1.87,2.93.07,1.72,2.26,1.23,3.34.7,1.25-.61,2.05-1.71,2.56-3.24.61-1.81,3.47-1.63,4.32-2.98,1.01-1.6.55-4.24,2.94-4.19.39.17.66.54.87.88-1.73.45.26,4.11-1.41,5.13-.52.32-1.49.41-2.22.54-.54.09-1.09-.17-1.43.38-.22.35.04.91-.22,1.47-5.65,12.24-12.62,23.72-22.34,33.03-3.43,3.29-7.3,6.3-12.04,6.58-9.89.6-21.9-14.37-25.31-22.13.59.06.92-.38,1.08-.72.73-1.52-1.95-5.66-5.62-6.06-2.15-2.81-2.98-6.29-5.27-8.96l.13-1.63c.22-2.68-3.52-4.96-6.07-3.88-.74.32-1.11,1.05-1.7.8-.41-.17-.48-.87-.56-1.26.13-.7.35-1.38.65-2.03.29-.16.68-.62.89-.9l4.16.33c-2.2-4.01-2.14-6.8-.65-10.21.74-1.7.39-3.87,2.45-4.45.57-.04,1.24,0,1.61.25,1.24.86.17,2.47,1.53,3.5ZM232.07,362.41c0-.21-.17-.37-.37-.37s-.37.17-.37.37.17.37.37.37.37-.17.37-.37ZM232.19,363.42c3.63,9.87,9.84,17.14,15.6,24.71,2.82,2.64,5.65,5.63,9.76,5.61,7.74-.04,21.54-23.62,24.83-30.73-7.95,5.89-5.22,5.7-14.38,13.12-14.64,11.86-26.3-3.93-35.8-12.71Z" fill="#7c4310"/><path d="M293.49,360.67l.76,1.35c-2.31,5.15-3.42,10.69-5.57,16.31-5.1,13.34-12.38,25.54-23.67,34.31-12.88,10-25.03-8.33-31-17.39-5.68-8.61-9.74-17.95-12.52-27.98-.35-1.24.18-2.5.85-3.01,2.29,2.67,3.12,6.14,5.27,8.96,1.59,2.08,2.02,5.39,4.55,6.78,3.41,7.76,15.42,22.73,25.31,22.13,4.74-.29,8.61-3.3,12.04-6.58,9.72-9.31,16.69-20.78,22.34-33.03.26-.56,0-1.12.22-1.47.34-.55.9-.28,1.43-.38Z" fill="#cf8f2e"/><path d="M455.44,197.56c-.22.24-.42.48-.6.75-10.47,4.02-20.99,7.91-32.18,9.08-6.66-6.34-15.23-10.48-23.8-15.56,15-1.68,30.25-5.02,45.05-11.06,4.85,5.24,7.94,11.2,11.53,16.8Z" fill="#cf9032"/><path d="M93.15,207.51c-4.47.16-8.95-1-13.49-2.51l-17.32-5.77c-.55-.18-1.05-.56-1.56-.82,2.14-5.87,6.35-10.81,10.41-16.01,15.21,5.34,30.38,7.65,46.07,9.66-8.99,4.97-16.97,9.51-24.12,15.46Z" fill="#cf9032"/><path d="M223.14,227.27c-28.15-21.37-50.14-28.84-86.14-33.22-24.37,6.64-45.26,22.03-57.29,44.13-6.45,11.85-10.66,24.41-11.32,37.87-.24,4.98-.55,10.04,0,14.98,1.39,12.68,4.66,25.12,10.82,36.13,19.86,35.51,56.24,53.1,96.7,46.09,12.37-2.14,23.35-7.48,33.81-13.4l-.97,3.23c-3.41-1.22-5.57,1.68-8.46,3l-6.16,2.8c-3.4,1.55-6.96,2.26-10.31,3.96l-1.79,3.78c-6.37-1.67-12.4-1.4-18.76-.65-7.95.94-15.64-.82-23.45-1.61-4.63-.47-8.34-2.1-12.53-4.02-2.28-1.04-4.65-1.61-6.77-3.06-3.3-2.27-7.27-3.14-10.57-5.04-2.22-1.28-3.75-3.99-6.46-4.74-3.95-1.09-17-16.58-19.02-19.96-5.13-8.59-8.39-12.75-11.86-22.35-6.9-19.03-8.04-39.04-1.62-58.28,1.11-3.33,2.1-6.76,2.31-10.2.04-.69-1.36-2.53-.66-2.5l2.21.08c.36.01,10.37-17.69,10.46-17.79l12.08-13.3c2.66-2.93,7.58-3.89,9.95-7.12,1.41-1.93,1.76-3.06,4.48-3.93,2.17-.7,3.04-3.93,5.34-4.99,4.71,1.99,12.26-2.57,17.29-3.46,3.77-.66,8.55-1.16,12.39-.26l13.89,3.23c2.26.53,4.77.56,7.04,1.19,7.75,2.17,15.1,5.13,22.43,8.06,6.43,2.57,11.92,6.43,17.92,9.49,12.22,6.21,4.12,5.65,11.94,6.27.73,2.19,2,3.87,3.12,5.6ZM179.72,374.37c0-.21-.17-.37-.37-.37s-.37.17-.37.37.17.37.37.37.37-.17.37-.37Z" fill="#834d16"/><path d="M395.09,366.39c-4.77,4.77-4.87,1.59-13.76,7.22-1.6,1.02-3.89-.05-5.78.24-7.77,1.17-15.55,3.12-23.32,1.89-3.34-.53-6.75.28-9.9-.6s-5.95-1.3-9.35-1.26c-3.96.05-7.58-2.04-11.52-2.48-1.01-5.92-5.77-1.06-7.31-6.32,6.1,1.13,11.04,7.19,35.58,9.45,7.77.72,15.08-.29,22.87-1.28s15.17-4.22,22.49-6.85Z" fill="#834d16"/><path d="M424.39,221.53c-12.44-12.4-26.61-22.71-44.19-27.26-13.62.07-42.5,6.32-54.28,11.85l-4.61,2.17c-6.53,3.07-12.29,6.07-18.32,10.15-31.67,21.42-38.06,47.8-43.32,52.21-2.91,2.44-6.8-.42-8.09-3.5-4.38-10.57-10.84-19.31-17.13-28.39,1.62.74,3.82,2.14,4.51,4.14,1.34,3.87,4.5,6.08,6.24,9.4l3.35,6.39c1.82,3.47,2.92,7.21,5.74,10.45,1.77.04,4.48.5,6.11-.52,1.47-.92.86-3.6,1.99-4.71,2.15-2.13,2.15-4.45.19-7.14,3.16.55,5.03-.75,6.06-3.25,1.23-2.97,3.15-5.19,4.91-7.79,5.38-7.96,11.62-15.04,19.28-21.04.61-.47,1.2-.67,1.15-1.35-.04-.52-.33-.91-.47-1.79,2.26.36,4.41-.47,6.24-1.89,7.94-6.17,16.5-10.63,25.76-14.64,3.73-1.62,7.88-2.41,11.35-4.46,2.25-1.33,4.2-.98,6.49-1.53l15.02-3.6c5.39-1.29,9.53-2.9,15.16-2.23,4,.48,8.41-.51,12.55,1.58,3.22,1.63,7.23,2.08,10.32,3.99l9.22,5.69c2.07,1.28,19.81,14.19,18.76,17.06Z" fill="#834d16"/><path d="M437.6,324.67c1.6-4.18,3.64-8.34,5.07-12.84,3.52-11.09,4.34-21.94,4.08-33.51-.23-10.36-3.03-19.88-6.22-29.63-3.18-9.73-9.47-17.46-14.46-25.47,6.46,6.44,10.94,14.79,14.8,23.54,3.92,8.88,5.7,18.31,6.97,28.06,2.16,16.58-2.15,33.24-8.47,48.5-.42,1.02-.82,1.63-1.78,1.36Z" fill="#834d16"/><path d="M36.15,291.03h-.75c-1.42-6.27-.73-12.67-.11-19.44,1.7-18.43,6.48-35.76,14.06-52.5,1.56-3.46,2.63-6.72,4.75-9.52-.37,3.32-2.23,6.39-3.75,9.69-4.29,9.3-7.5,18.45-9.76,28.4-1.52,6.67-3.07,13.24-3.61,20.15l-.6,7.59c-.43,5.38.05,10.58-.23,15.62Z" fill="#ebb436"/><path d="M63.95,313.45c-1.67-.43-1.99-2.64-2.37-4.47l-2.03-9.75c-.94-4.5-1.4-24.2-.87-27.56l1.02-6.4c.16-1.01.84-1.69,1.45-1.89-.72,3.36-.88,6.82-1.31,10.4-1.63,13.64.95,27.02,4.1,39.68Z" fill="#ebb436"/><path d="M60.89,169.26c-.19,2.48-2.28,4.83-5.34,4.4.85-6.55-6.12-7.45-2.92-9.54l8.26,5.14Z" fill="#834d16"/><path d="M479.82,289.54c-.41.14-.91-.14-.92-.76l-.24-16.36c-.03-1.71-1.46-14.41-1.3-15.02,2.13,5.43,1.83,11.52,2.59,17.57.63,5.04.72,9.98-.12,14.57Z" fill="#ebb436"/><path d="M477.34,256.66c-.65-.49-.98-1.54-1.17-2.66-2.27-13.33-6.75-25.56-12.01-37.91-1.89-4.43-3.58-8.46-6.35-12.42-1.2-1.71-1.32-4.13-2.97-5.36.18-.26.38-.51.6-.75,4.91,7.65,14.4,27.47,16.86,36.64,2.03,7.58,4.92,14.88,5.04,22.46Z" fill="#ebb436"/><path d="M27.99,137.7c2.19.55,1.83,3.21,2.89,4.66-.21.56-.64,1.3-1.15,1.35-.79.07-3.12-1.75-3.1-4,0-.89.17-1.9,1.36-2.02Z" fill="#834d16"/><path d="M233.82,237.94c-3.48-3.01-6.94-6.23-9.91-9.75,1.24.63,1.88-1,2.94-1.39,1.36-.18.4,1.76-.16,2.53,2.4,2.83,5.78,5.21,7.12,8.61Z" fill="#834d16"/><path d="M418.98,349.97c-1.6,3.52-5.53,5.34-8.57,7.97-3.45,2.98-6.84,5.16-11.11,6.87-1.19.48-2.04,2.46-3.47,1.52,1.08-1.8,3.51-1.97,5.4-3.16,3.72-2.34,7.32-4.7,10.68-7.44l7.06-5.76Z" fill="#834d16"/><path d="M62.34,199.23c-3.35,1.01-4.3,7.28-7.44,8.92,1.83-3.32,2.94-7.3,5.89-9.73.51.26,1.01.63,1.56.82Z" fill="#ebb436"/><path d="M62.5,256.66c-1.19-2.3,1.01-4.1,1.63-6.36,1.36-4.98,3.58-9.21,5.63-13.8s4.53-8.04,7.57-11.24c-2.73,5.24-6.55,10.03-8.78,15.79l-6.05,15.6Z" fill="#ebb436"/><path d="M61.15,262.63c-.48-1.89-1.03-4.7,1.28-5.23-.2,1.78-.33,3.68-1.28,5.23Z" fill="#ebb436"/><path d="M313.63,365c-2.63-.2-4.43-2.28-7.04-3.46-3.67-1.65-5.83-5.4-9.48-6.55-.21-.34-.48-.71-.87-.88l-.03-1.01c6.28,3.99,8.13,6.47,15.39,10.15.98.5,1.97.74,2.01,1.75Z" fill="#834d16"/><path d="M419.65,349.29c5.37-5.94,10.28-12.1,14.88-18.64-3.68,6.99-9.41,13.11-14.88,18.64Z" fill="#834d16"/><path d="M434.59,329.9c.44-1.43.82-3.24,2.37-3.75-.07.94-.06,1.9-.52,2.83-.33.66-1.01,1.02-1.85.92Z" fill="#834d16"/><path d="M214.78,356.27c-.29.65-.51,1.33-.65,2.03l-2.26.09c.91-.78,1.61-1.79,2.9-2.12Z" fill="#834d16"/><path d="M65.4,317.96c-.48-1.12-2.37-2.1-1.38-3.76.89,1.05,1.02,2.47,1.38,3.76Z" fill="#ebb436"/><path d="M341.14,125.8c-9.14,4.23-17.17,10.65-25.47,17.17-25.58,20.1-45.24,47.44-58.84,76.36-.94-.28-1.22-1.17-1.75-2.2-6.34-12.45-12.86-24.37-20.91-35.83-18.72-26.65-34.2-38.6-61.09-55.48,23.17-8.82,48.6-14.86,74.11-16.2,32.13-1.69,64.85,3.47,93.95,16.17Z" fill="#ebb436"/><path d="M259.97,231.39c3.74-5.86,6.11-12.25,9.58-18.75,21.78-40.67,51.01-69.45,93.38-87.7,11.53-4.97,23.67-8.14,35.81-12.62,21.66-7.99,41.03-19.69,56.81-36.6,9.82-10.53,17.26-22.24,24.36-34.66.48-.84,1.22-1.68,1.95-1.37.65.29.34,1.44.75,1.74-7.53,23.31-11.68,31.76-28.44,50.13-2.88,3.16-6.24,5.46-9.58,8.24-11.48,9.55-23.86,17.43-38.03,22.44l-34.91,12.35c-42.54,15.05-72.45,37.82-96.41,76.33-4.96,7.97-9.17,15.72-14.92,23.1-1.02,1.31-4.06,3.67-5.62,2.05-7.82-8.12-22.34-40.51-48.52-64.25-17.59-15.96-37.94-28.17-60.51-35.79l-35.34-11.93c-22.09-7.46-42.17-19.54-58.05-36.67-4.43-4.77-7.88-9.99-11.67-15.17-2.38-3.26-3.96-7.28-5.46-10.97l-6.53-16.15c-.42-1.04-.3-2.25-1.47-2.28.35-.75.03-1.96.53-2.63.31-.41.95-1.14,1.67-.5.37.33,1.23.96,1.54,1.62,3.33,6.88,7.48,12.6,11.78,18.91,10.48,15.37,23.53,27.79,39.39,37.59,11.24,6.95,22.94,11.79,35.51,16.11l34.43,11.84c5.51,1.89,10.08,4.52,15.29,7.23,26.48,13.78,48.08,33.95,64.12,59.15,8.02,12.59,14.41,25.42,21,38.73.83,1.67,2.67,2.38,3.9,2.65,2.21.48,2.74-.77,3.65-2.2Z" fill="#f0ca76"/><path d="M351.77,120.88l-10.63,4.92c-29.1-12.69-61.82-17.86-93.95-16.17-25.51,1.34-50.94,7.38-74.11,16.2-4.69-2.94-11.08-3.87-15.83-7.31,65.8-29.9,135.55-29.58,200.48-.54-2.52,1.29-4.17,2.06-5.97,2.89Z" fill="#f0ca76"/><path d="M362.93,124.95c-42.37,18.25-71.61,47.03-93.38,87.7-3.48,6.5-5.85,12.89-9.58,18.75-1.57-3.87-3.09-7.86-3.13-12.06,13.6-28.93,33.26-56.26,58.84-76.36,8.3-6.52,16.33-12.94,25.47-17.17l10.63-4.92c-.08.95.29,1.82.88,2.37.91.86,2.05-.32,3.08-.07l7.21,1.76Z" fill="#7c4310"/><path d="M214.86,293.55c-5.04,23.82-25.55,40.08-48.98,40.09-23.27.02-44.15-16.42-48.85-39.67-3.32-16.41.98-32.34,11.93-44.86,10.11-11.56,24.82-17.62,40.13-16.71,30.6,1.83,52.14,31.05,45.77,61.14ZM155.2,251.83c-5.77-2.04-11.68-1.96-16.32,2.65-3.52,3.5-6.02,10.52-2.95,16.42-4.32,11.92-2.34,24.87,6.22,34.32,8.37,9.25,21.7,13.14,33.96,8.97s20.78-15.94,21.83-28.52c1.11-13.2-5.59-25.95-17.4-32.13-8.1-4.24-16.99-3.86-25.33-1.71Z" fill="#54b299"/><path d="M319.97,324.09c-20.23-14.99-26.41-40.9-15.67-63.2,7.83-16.24,23.48-27.21,41.72-28.48,27.65-1.92,50.87,19.18,52.99,46.62,1.52,19.69-7.93,38.12-24.28,47.61-17.22,10-38.58,9.44-54.77-2.56ZM338.32,252.18c-5.72-2.48-12.21-2.4-16.86,2.4-3.67,3.79-5.68,11.18-2.44,17.1-4.3,13-1.16,28.43,10.28,37.19,8.54,6.54,19.14,8.74,29.45,5.52,9.78-3.06,17.46-11.44,20.44-19.74,3.95-11,2.45-22.16-3.78-30.92-8.64-12.12-23.66-16.42-37.09-11.56Z" fill="#54b299"/><path d="M287.45,320.9l.68,1c-.24,1.41,1.13,1.92,1.94,3.03,10.23,13.95,4.89,27.25,5.18,27.39.38.19.68.36.99.12-.07.19-.02.46-.01.66l.03,1.01c-2.39-.05-1.93,2.59-2.94,4.19-.85,1.34-3.71,1.16-4.32,2.98-.51,1.53-1.31,2.63-2.56,3.24-1.09.53-3.28,1.02-3.34-.7.66-1.05,1.8-1.93,1.87-2.93.12-1.69-2.15-1.35-2.95-2.41-1.13-1.51-.76-3.91-2.66-4.4.24-2.84,8.68-6.36,8.92-9.17,1.56-2.06.35-4.85-.41-7.27-1.96-6.27-5.36-10.99-10.21-15.2-9.81-8.53-20-13.27-32.41-6.15-7.24,4.16-17.88,14.42-19.24,22.33-1.35,1.82-1.11,3.94-1.24,6.18-1.36-1.03-.29-2.64-1.53-3.5-.37-.25-1.04-.29-1.61-.25l.03-10.41c.01-3.89,6.86-8.78,6.76-11.22.49-.41.83-1.02,1.38-1.42,2.07-.28,4.12-1.72,4.51-3.83l.72-.63c1.12-.98,5.95-4.37,9.37-3.19,1.44.5.71-2.22,1.46-2.62,5.16-2.74,11.4-2.86,16.99-2.09,2.38.33,3.75,2.43,5.14,2.79,4.25,1.1,7.29,2.15,10.37,5.15,1.7,1.65,4.08,2.66,5.59,4.87.87,1.27,2.19,2.34,3.51,2.46Z" fill="#804a14"/><path d="M221.63,341.04c-2.06.57-1.71,2.75-2.45,4.45-1.49,3.4-1.54,6.2.65,10.21l-4.16-.33c.43-.59,1.8-1.48,2.06-2.46-2.64-8.77-1.07-18.02,4.18-25.62,2.04-2.95,3.94-5.74,6.5-7.87.11,2.44-6.74,7.33-6.76,11.22l-.03,10.41ZM220.1,334.75c0-.21-.17-.37-.37-.37s-.37.17-.37.37.17.37.37.37.37-.17.37-.37ZM220.19,338.12c0-.46-.37-.83-.83-.83s-.83.37-.83.83.37.83.83.83.83-.37.83-.83Z" fill="#834d16"/><path d="M287.45,320.9c-1.31-.12-2.64-1.19-3.51-2.46-1.51-2.2-3.89-3.21-5.59-4.87-3.07-2.99-6.11-4.04-10.37-5.15-1.4-.36-2.76-2.47-5.14-2.79-5.59-.77-11.83-.65-16.99,2.09-.75.4-.02,3.11-1.46,2.62-3.42-1.18-8.25,2.21-9.37,3.19,5.91-5.48,13.82-9.58,22.47-9.72,10.32-.17,25.01,9.79,29.94,17.09Z" fill="#834d16"/><path d="M296.24,352.44c-.32.24-.62.08-.99-.12-.29-.15,5.05-13.44-5.18-27.39-.81-1.11-2.18-1.61-1.94-3.03,8.48,7.51,12.12,19.87,8.12,30.54Z" fill="#834d16"/><path d="M234.3,314.16c-.39,2.11-2.44,3.55-4.51,3.83,1.61-1.19,3.14-2.64,4.51-3.83Z" fill="#834d16"/><path d="M288.28,344.91c-.24,2.81-8.68,6.33-8.92,9.17l-.79.56c-1.9,1.35-3.25,3.33-4.65,5.18-.19.25-.47.46-.68.69l-.79.88c-2,2.24-5.02,3.95-6.57,6.61l-6.2,3.87c-3.75.11-6.89-.87-10.22-3.43-10.36-7.97-10.81-13.1-24.68-23.65.13-2.25-.11-4.36,1.24-6.18,5.49-7.4,11.56-13.94,20.57-17.45,7.73-3,15.85-2.87,23.46.82s19.65,13.53,18.24,22.93ZM272.72,344.76c2.55-3.31,2.76-7.68,1.29-11.07-.84-1.94-2.47-3.09-4.19-3.07-1.42.02-3.25.58-4.24,2.1-2.56,3.93-2.02,9.15,1.13,12.67,1.77,1.03,4.49,1.36,6.02-.63Z" fill="#f17f23"/><path d="M232.19,363.42c9.51,8.79,21.17,24.57,35.8,12.71,9.16-7.42,6.44-7.24,14.38-13.12-3.29,7.12-17.09,30.7-24.83,30.73-4.11.02-6.94-2.96-9.76-5.61-5.76-7.57-11.97-14.84-15.6-24.71Z" fill="#d1621e"/><path d="M232.15,379.99c-2.53-1.39-2.95-4.7-4.55-6.78,3.68.4,6.35,4.54,5.62,6.06-.16.34-.49.78-1.08.72Z" fill="#804a14"/><path d="M259.68,371.88l6.2-3.87c-1.42,2.44-3.46,3.79-6.2,3.87Z" fill="#804a14"/><path d="M273.91,359.82c1.39-1.85,2.74-3.83,4.65-5.18-.31,2.52-2.75,3.73-4.65,5.18Z" fill="#804a14"/><path d="M272.45,361.4l.79-.88-.79.88Z" fill="#804a14"/><circle cx="231.69" cy="362.41" r=".37" fill="#d1621e"/><circle cx="179.35" cy="374.37" r=".37" fill="#804a14"/><path d="M135.92,270.9c2.63,5.07,9.69,7.58,14.77,6.88,5.76-.8,10-5.31,11.26-11.41,1.14-5.51-2.05-10.91-6.75-14.55,8.34-2.15,17.23-2.52,25.33,1.71,11.81,6.18,18.51,18.93,17.4,32.13-1.06,12.58-9.19,24.21-21.83,28.52s-25.59.28-33.96-8.97c-8.55-9.45-10.54-22.4-6.22-34.32ZM178.89,295.29c-3.29,1.52-3.78,5.57-2.25,8.22,1.4,2.4,4.68,3.12,7.32,1.9,2.85-1.31,3.89-4.67,2.58-7.51-1.2-2.61-4.4-4.11-7.66-2.61Z" fill="#2f6d61"/><path d="M155.2,251.83c4.71,3.63,7.9,9.04,6.75,14.55-1.26,6.1-5.5,10.61-11.26,11.41-5.08.7-12.14-1.81-14.77-6.88-3.06-5.9-.57-12.92,2.95-16.42,4.65-4.61,10.56-4.69,16.32-2.65Z" fill="#fdfdfc"/><path d="M319.02,271.68c2.54,4.63,9.82,6.69,14.19,6.1,5.79-.79,10.09-5.27,11.24-10.76,1.18-5.64-1.07-11.28-6.13-14.84,13.43-4.87,28.45-.57,37.09,11.56,6.24,8.75,7.74,19.92,3.78,30.92-2.98,8.3-10.66,16.68-20.44,19.74-10.31,3.22-20.91,1.02-29.45-5.52-11.45-8.77-14.58-24.19-10.28-37.19ZM361.54,295.44c-3.14,1.68-3.36,5.51-2.03,7.82,1.63,2.83,5.06,3.33,7.72,1.99s3.3-4.84,2.32-7.26c-1.27-3.14-4.81-4.26-8-2.55Z" fill="#2f6d61"/><path d="M338.32,252.18c5.06,3.57,7.31,9.2,6.13,14.84-1.15,5.49-5.46,9.97-11.24,10.76-4.37.59-11.65-1.47-14.19-6.1-3.24-5.91-1.23-13.31,2.44-17.1,4.65-4.8,11.14-4.88,16.86-2.4Z" fill="#fdfdfc"/><path d="M288.28,344.91c1.41-9.4-10.63-19.24-18.24-22.93s-15.73-3.82-23.46-.82c-9.02,3.5-15.08,10.05-20.57,17.45,1.35-7.9,11.99-18.17,19.24-22.33,12.41-7.13,22.61-2.38,32.41,6.15,4.85,4.22,8.25,8.93,10.21,15.2.76,2.43,1.97,5.21.41,7.27Z" fill="#f6ab57"/><circle cx="219.36" cy="338.12" r=".83" fill="#7c4310"/><circle cx="219.73" cy="334.75" r=".37" fill="#7c4310"/><path d="M272.72,344.76c-1.53,1.99-4.25,1.66-6.02.63-3.15-3.52-3.68-8.74-1.13-12.67.99-1.52,2.81-2.08,4.24-2.1,1.73-.02,3.35,1.13,4.19,3.07,1.47,3.39,1.27,7.76-1.29,11.07Z" fill="#f6ab57"/><path d="M178.89,295.29c3.26-1.5,6.46,0,7.66,2.61,1.31,2.85.27,6.2-2.58,7.51-2.64,1.22-5.92.5-7.32-1.9-1.54-2.65-1.04-6.7,2.25-8.22Z" fill="#fdfdfc"/><path d="M361.54,295.44c3.2-1.71,6.73-.59,8,2.55.98,2.42.46,5.86-2.32,7.26s-6.09.84-7.72-1.99c-1.33-2.31-1.11-6.14,2.03-7.82Z" fill="#fdfdfc"/></svg>